G75*
%MOIN*%
%OFA0B0*%
%FSLAX25Y25*%
%IPPOS*%
%LPD*%
%AMOC8*
5,1,8,0,0,1.08239X$1,22.5*
%
%ADD10C,0.00700*%
%ADD11C,0.00591*%
%ADD12C,0.00600*%
%ADD13C,0.01000*%
%ADD14C,0.00500*%
%ADD15C,0.00200*%
%ADD16R,0.04500X0.02500*%
%ADD17R,0.16000X0.02500*%
%ADD18R,0.02000X0.40000*%
%ADD19R,0.00500X0.15500*%
%ADD20R,0.02000X0.19000*%
D10*
X0151649Y0040563D02*
X0153084Y0040563D01*
X0152366Y0040563D02*
X0152366Y0044866D01*
X0151649Y0044866D02*
X0153084Y0044866D01*
X0154718Y0044149D02*
X0154718Y0041280D01*
X0155436Y0040563D01*
X0156870Y0040563D01*
X0157587Y0041280D01*
X0159322Y0042714D02*
X0162191Y0042714D01*
X0161474Y0040563D02*
X0161474Y0044866D01*
X0159322Y0042714D01*
X0157587Y0044149D02*
X0156870Y0044866D01*
X0155436Y0044866D01*
X0154718Y0044149D01*
X0211649Y0060563D02*
X0213084Y0060563D01*
X0212366Y0060563D02*
X0212366Y0064866D01*
X0211649Y0064866D02*
X0213084Y0064866D01*
X0214718Y0064149D02*
X0214718Y0061280D01*
X0215436Y0060563D01*
X0216870Y0060563D01*
X0217587Y0061280D01*
X0219322Y0061280D02*
X0220040Y0060563D01*
X0221474Y0060563D01*
X0222191Y0061280D01*
X0222191Y0062714D01*
X0221474Y0063432D01*
X0220757Y0063432D01*
X0219322Y0062714D01*
X0219322Y0064866D01*
X0222191Y0064866D01*
X0217587Y0064149D02*
X0216870Y0064866D01*
X0215436Y0064866D01*
X0214718Y0064149D01*
X0285684Y0099313D02*
X0288553Y0103616D01*
X0290288Y0102182D02*
X0291722Y0103616D01*
X0291722Y0099313D01*
X0290288Y0099313D02*
X0293157Y0099313D01*
X0288553Y0099313D02*
X0285684Y0103616D01*
X0320284Y0108174D02*
X0320284Y0109609D01*
X0320284Y0108891D02*
X0324588Y0108891D01*
X0324588Y0108174D02*
X0324588Y0109609D01*
X0323870Y0111243D02*
X0321001Y0111243D01*
X0320284Y0111961D01*
X0320284Y0113395D01*
X0321001Y0114112D01*
X0321719Y0115847D02*
X0320284Y0117282D01*
X0324588Y0117282D01*
X0324588Y0118716D02*
X0324588Y0115847D01*
X0323870Y0114112D02*
X0324588Y0113395D01*
X0324588Y0111961D01*
X0323870Y0111243D01*
X0403158Y0111696D02*
X0403875Y0110978D01*
X0406744Y0110978D01*
X0407462Y0111696D01*
X0407462Y0113130D01*
X0406744Y0113847D01*
X0403875Y0113847D01*
X0403158Y0113130D01*
X0403158Y0111696D01*
X0403875Y0109244D02*
X0403158Y0108526D01*
X0403158Y0107092D01*
X0403875Y0106374D01*
X0406744Y0106374D01*
X0407462Y0107092D01*
X0407462Y0108526D01*
X0406744Y0109244D01*
X0407462Y0115582D02*
X0403158Y0115582D01*
X0407462Y0118451D01*
X0403158Y0118451D01*
X0404593Y0120186D02*
X0403158Y0121621D01*
X0407462Y0121621D01*
X0407462Y0123055D02*
X0407462Y0120186D01*
X0407088Y0155563D02*
X0402784Y0155563D01*
X0402784Y0157714D01*
X0403501Y0158432D01*
X0404936Y0158432D01*
X0405653Y0157714D01*
X0405653Y0155563D01*
X0405653Y0156997D02*
X0407088Y0158432D01*
X0406370Y0160167D02*
X0404936Y0160167D01*
X0404219Y0160884D01*
X0404219Y0162318D01*
X0404936Y0163036D01*
X0405653Y0163036D01*
X0405653Y0160167D01*
X0406370Y0160167D02*
X0407088Y0160884D01*
X0407088Y0162318D01*
X0404219Y0164770D02*
X0407088Y0166205D01*
X0404219Y0167640D01*
X0397272Y0169274D02*
X0397272Y0169992D01*
X0396555Y0170709D01*
X0392969Y0170709D01*
X0395838Y0170709D02*
X0395838Y0168557D01*
X0395120Y0167840D01*
X0392969Y0167840D01*
X0391534Y0165488D02*
X0395838Y0165488D01*
X0395838Y0166205D02*
X0395838Y0164770D01*
X0395838Y0163036D02*
X0392969Y0163036D01*
X0391534Y0164770D02*
X0391534Y0165488D01*
X0395838Y0163036D02*
X0395838Y0160884D01*
X0395120Y0160167D01*
X0392969Y0160167D01*
X0391534Y0158432D02*
X0391534Y0156997D01*
X0391534Y0157714D02*
X0395120Y0157714D01*
X0395838Y0156997D01*
X0395838Y0156280D01*
X0395120Y0155563D01*
X0404219Y0173978D02*
X0402784Y0175413D01*
X0404219Y0176847D01*
X0407088Y0176847D01*
X0404936Y0176847D02*
X0404936Y0173978D01*
X0404219Y0173978D02*
X0407088Y0173978D01*
X0395838Y0177048D02*
X0395838Y0179917D01*
X0395120Y0181652D02*
X0392251Y0184521D01*
X0395120Y0184521D01*
X0395838Y0183803D01*
X0395838Y0182369D01*
X0395120Y0181652D01*
X0392251Y0181652D01*
X0391534Y0182369D01*
X0391534Y0183803D01*
X0392251Y0184521D01*
X0392969Y0186255D02*
X0391534Y0187690D01*
X0395838Y0187690D01*
X0395838Y0186255D02*
X0395838Y0189125D01*
X0395838Y0190859D02*
X0395120Y0190859D01*
X0392251Y0193728D01*
X0391534Y0193728D01*
X0391534Y0190859D01*
X0392251Y0179917D02*
X0391534Y0179199D01*
X0391534Y0177765D01*
X0392251Y0177048D01*
X0392969Y0179917D02*
X0395838Y0177048D01*
X0392969Y0179917D02*
X0392251Y0179917D01*
X0329493Y0167274D02*
X0329493Y0165839D01*
X0328776Y0165122D01*
X0326624Y0165122D01*
X0326624Y0163688D02*
X0326624Y0167991D01*
X0328776Y0167991D01*
X0329493Y0167274D01*
X0324889Y0167274D02*
X0324172Y0167991D01*
X0322738Y0167991D01*
X0322020Y0167274D01*
X0322020Y0166557D01*
X0322738Y0165839D01*
X0324172Y0165839D01*
X0324889Y0165122D01*
X0324889Y0164405D01*
X0324172Y0163688D01*
X0322738Y0163688D01*
X0322020Y0164405D01*
X0320285Y0164405D02*
X0319568Y0163688D01*
X0318134Y0163688D01*
X0317416Y0164405D01*
X0317416Y0167274D01*
X0318134Y0167991D01*
X0319568Y0167991D01*
X0320285Y0167274D01*
X0315782Y0167991D02*
X0314347Y0167991D01*
X0315064Y0167991D02*
X0315064Y0163688D01*
X0314347Y0163688D02*
X0315782Y0163688D01*
X0222191Y0159866D02*
X0220757Y0159149D01*
X0219322Y0157714D01*
X0221474Y0157714D01*
X0222191Y0156997D01*
X0222191Y0156280D01*
X0221474Y0155563D01*
X0220040Y0155563D01*
X0219322Y0156280D01*
X0219322Y0157714D01*
X0217587Y0156280D02*
X0216870Y0155563D01*
X0215436Y0155563D01*
X0214718Y0156280D01*
X0214718Y0159149D01*
X0215436Y0159866D01*
X0216870Y0159866D01*
X0217587Y0159149D01*
X0213084Y0159866D02*
X0211649Y0159866D01*
X0212366Y0159866D02*
X0212366Y0155563D01*
X0211649Y0155563D02*
X0213084Y0155563D01*
X0213084Y0112366D02*
X0211649Y0112366D01*
X0212366Y0112366D02*
X0212366Y0108063D01*
X0211649Y0108063D02*
X0213084Y0108063D01*
X0214718Y0108780D02*
X0215436Y0108063D01*
X0216870Y0108063D01*
X0217587Y0108780D01*
X0219322Y0108780D02*
X0219322Y0108063D01*
X0219322Y0108780D02*
X0222191Y0111649D01*
X0222191Y0112366D01*
X0219322Y0112366D01*
X0217587Y0111649D02*
X0216870Y0112366D01*
X0215436Y0112366D01*
X0214718Y0111649D01*
X0214718Y0108780D01*
X0300909Y0038234D02*
X0303778Y0038234D01*
X0305213Y0036799D01*
X0303778Y0035365D01*
X0300909Y0035365D01*
X0300909Y0033630D02*
X0300909Y0030761D01*
X0303061Y0030761D01*
X0302344Y0032195D01*
X0302344Y0032912D01*
X0303061Y0033630D01*
X0304495Y0033630D01*
X0305213Y0032912D01*
X0305213Y0031478D01*
X0304495Y0030761D01*
X0303061Y0029026D02*
X0303061Y0026157D01*
X0309659Y0026874D02*
X0310376Y0026157D01*
X0313245Y0026157D01*
X0313963Y0026874D01*
X0313963Y0028309D01*
X0313245Y0029026D01*
X0311811Y0029026D01*
X0311811Y0027591D01*
X0310376Y0029026D02*
X0309659Y0028309D01*
X0309659Y0026874D01*
X0309659Y0030761D02*
X0313963Y0033630D01*
X0309659Y0033630D01*
X0309659Y0035365D02*
X0309659Y0037516D01*
X0310376Y0038234D01*
X0313245Y0038234D01*
X0313963Y0037516D01*
X0313963Y0035365D01*
X0309659Y0035365D01*
X0309659Y0030761D02*
X0313963Y0030761D01*
X0318409Y0030761D02*
X0320561Y0030761D01*
X0319844Y0032195D01*
X0319844Y0032912D01*
X0320561Y0033630D01*
X0321995Y0033630D01*
X0322713Y0032912D01*
X0322713Y0031478D01*
X0321995Y0030761D01*
X0320561Y0029026D02*
X0320561Y0026157D01*
X0321995Y0027591D02*
X0319126Y0027591D01*
X0318409Y0030761D02*
X0318409Y0033630D01*
X0318409Y0035365D02*
X0321278Y0035365D01*
X0322713Y0036799D01*
X0321278Y0038234D01*
X0318409Y0038234D01*
X0329311Y0035932D02*
X0329311Y0033063D01*
X0330028Y0031328D02*
X0330745Y0031328D01*
X0331463Y0030610D01*
X0331463Y0029176D01*
X0330745Y0028459D01*
X0329311Y0029176D02*
X0329311Y0030610D01*
X0330028Y0031328D01*
X0327876Y0031328D02*
X0327159Y0030610D01*
X0327159Y0029176D01*
X0327876Y0028459D01*
X0328594Y0028459D01*
X0329311Y0029176D01*
X0335909Y0029176D02*
X0336626Y0028459D01*
X0337344Y0028459D01*
X0338061Y0029176D01*
X0338061Y0030610D01*
X0338778Y0031328D01*
X0339495Y0031328D01*
X0340213Y0030610D01*
X0340213Y0029176D01*
X0339495Y0028459D01*
X0335909Y0029176D02*
X0335909Y0030610D01*
X0336626Y0031328D01*
X0338061Y0033063D02*
X0338061Y0035932D01*
X0339495Y0034497D02*
X0336626Y0034497D01*
D11*
X0333688Y0040213D02*
X0324938Y0040213D01*
X0324938Y0025213D01*
X0333688Y0025213D01*
X0333688Y0040213D01*
X0342438Y0040213D01*
X0342438Y0025213D01*
X0333688Y0025213D01*
X0324938Y0025213D02*
X0316188Y0025213D01*
X0316188Y0040213D01*
X0307438Y0040213D01*
X0307438Y0025213D01*
X0316188Y0025213D01*
X0307438Y0025213D02*
X0298688Y0025213D01*
X0298688Y0040213D01*
X0307438Y0040213D01*
X0308944Y0044701D02*
X0303432Y0044701D01*
X0303432Y0055724D01*
X0308944Y0055724D01*
X0308944Y0044701D01*
X0316188Y0040213D02*
X0324938Y0040213D01*
X0348432Y0045951D02*
X0348432Y0056974D01*
X0353944Y0056974D01*
X0353944Y0045951D01*
X0348432Y0045951D01*
X0360341Y0045360D02*
X0367034Y0045360D01*
X0367034Y0057565D01*
X0360341Y0057565D01*
X0360341Y0045360D01*
X0334534Y0061610D02*
X0327841Y0061610D01*
X0327841Y0073815D01*
X0334534Y0073815D01*
X0334534Y0061610D01*
X0327034Y0061610D02*
X0327034Y0073815D01*
X0320341Y0073815D01*
X0320341Y0061610D01*
X0327034Y0061610D01*
X0312290Y0068116D02*
X0312290Y0074809D01*
X0300085Y0074809D01*
X0300085Y0068116D01*
X0312290Y0068116D01*
X0307819Y0076663D02*
X0337057Y0076663D01*
X0337057Y0146163D01*
X0307819Y0146163D01*
X0307819Y0076663D01*
X0291040Y0078559D02*
X0291040Y0071866D01*
X0278835Y0071866D01*
X0278835Y0078559D01*
X0291040Y0078559D01*
X0291040Y0079366D02*
X0291040Y0086059D01*
X0278835Y0086059D01*
X0278835Y0079366D01*
X0291040Y0079366D01*
X0296237Y0088864D02*
X0283638Y0088864D01*
X0283638Y0114061D01*
X0296237Y0114061D01*
X0296237Y0088864D01*
X0282034Y0087860D02*
X0282034Y0100065D01*
X0275341Y0100065D01*
X0275341Y0087860D01*
X0282034Y0087860D01*
X0282034Y0102860D02*
X0275341Y0102860D01*
X0275341Y0115065D01*
X0282034Y0115065D01*
X0282034Y0102860D01*
X0286591Y0116610D02*
X0293284Y0116610D01*
X0293284Y0128815D01*
X0286591Y0128815D01*
X0286591Y0116610D01*
X0251768Y0113264D02*
X0251768Y0132161D01*
X0243107Y0132161D01*
X0243107Y0113264D01*
X0251768Y0113264D01*
X0251768Y0112161D02*
X0251768Y0093264D01*
X0243107Y0093264D01*
X0243107Y0112161D01*
X0251768Y0112161D01*
X0240784Y0114110D02*
X0234091Y0114110D01*
X0234091Y0126315D01*
X0240784Y0126315D01*
X0240784Y0114110D01*
X0230430Y0117299D02*
X0204446Y0117299D01*
X0204446Y0103126D01*
X0230430Y0103126D01*
X0230430Y0117299D01*
X0234091Y0106315D02*
X0240784Y0106315D01*
X0240784Y0094110D01*
X0234091Y0094110D01*
X0234091Y0106315D01*
X0243107Y0084661D02*
X0251768Y0084661D01*
X0251768Y0065764D01*
X0243107Y0065764D01*
X0243107Y0084661D01*
X0240784Y0078815D02*
X0234091Y0078815D01*
X0234091Y0066610D01*
X0240784Y0066610D01*
X0240784Y0078815D01*
X0230430Y0069799D02*
X0204446Y0069799D01*
X0204446Y0055626D01*
X0230430Y0055626D01*
X0230430Y0069799D01*
X0243107Y0064661D02*
X0251768Y0064661D01*
X0251768Y0045764D01*
X0243107Y0045764D01*
X0243107Y0064661D01*
X0240784Y0058815D02*
X0234091Y0058815D01*
X0234091Y0046610D01*
X0240784Y0046610D01*
X0240784Y0058815D01*
X0244938Y0039713D02*
X0244938Y0025713D01*
X0294938Y0025713D01*
X0294938Y0039713D01*
X0244938Y0039713D01*
X0290341Y0047860D02*
X0290341Y0060065D01*
X0297034Y0060065D01*
X0297034Y0047860D01*
X0290341Y0047860D01*
X0382477Y0091610D02*
X0382477Y0138264D01*
X0382479Y0138310D01*
X0382484Y0138356D01*
X0382493Y0138402D01*
X0382506Y0138447D01*
X0382522Y0138490D01*
X0382541Y0138532D01*
X0382564Y0138573D01*
X0382590Y0138611D01*
X0382619Y0138648D01*
X0382650Y0138682D01*
X0382684Y0138713D01*
X0382721Y0138742D01*
X0382759Y0138768D01*
X0382800Y0138791D01*
X0382842Y0138810D01*
X0382885Y0138826D01*
X0382930Y0138839D01*
X0382976Y0138848D01*
X0383022Y0138853D01*
X0383068Y0138855D01*
X0383068Y0138854D02*
X0398225Y0138854D01*
X0412398Y0138854D02*
X0445469Y0138854D01*
X0445469Y0092201D01*
X0445470Y0092201D02*
X0445468Y0092155D01*
X0445463Y0092109D01*
X0445454Y0092063D01*
X0445441Y0092018D01*
X0445425Y0091975D01*
X0445406Y0091933D01*
X0445383Y0091892D01*
X0445357Y0091854D01*
X0445328Y0091817D01*
X0445297Y0091783D01*
X0445263Y0091752D01*
X0445226Y0091723D01*
X0445188Y0091697D01*
X0445147Y0091674D01*
X0445105Y0091655D01*
X0445062Y0091639D01*
X0445017Y0091626D01*
X0444971Y0091617D01*
X0444925Y0091612D01*
X0444879Y0091610D01*
X0412398Y0091610D01*
X0398225Y0091610D02*
X0382477Y0091610D01*
X0353284Y0095360D02*
X0346591Y0095360D01*
X0346591Y0107565D01*
X0353284Y0107565D01*
X0353284Y0095360D01*
X0352841Y0127860D02*
X0359534Y0127860D01*
X0359534Y0140065D01*
X0352841Y0140065D01*
X0352841Y0127860D01*
X0352438Y0148213D02*
X0292438Y0148213D01*
X0292438Y0162213D01*
X0352438Y0162213D01*
X0352438Y0148213D01*
X0309512Y0142463D02*
X0309514Y0142555D01*
X0309520Y0142646D01*
X0309530Y0142737D01*
X0309544Y0142828D01*
X0309562Y0142918D01*
X0309584Y0143007D01*
X0309609Y0143094D01*
X0309639Y0143181D01*
X0309672Y0143267D01*
X0309709Y0143350D01*
X0309749Y0143433D01*
X0309793Y0143513D01*
X0309841Y0143591D01*
X0309892Y0143668D01*
X0309946Y0143741D01*
X0310003Y0143813D01*
X0310064Y0143882D01*
X0310127Y0143948D01*
X0310193Y0144011D01*
X0310262Y0144072D01*
X0310334Y0144129D01*
X0310407Y0144183D01*
X0310484Y0144234D01*
X0310562Y0144282D01*
X0310642Y0144326D01*
X0310725Y0144366D01*
X0310808Y0144403D01*
X0310894Y0144436D01*
X0310981Y0144466D01*
X0311068Y0144491D01*
X0311157Y0144513D01*
X0311247Y0144531D01*
X0311338Y0144545D01*
X0311429Y0144555D01*
X0311520Y0144561D01*
X0311612Y0144563D01*
X0311704Y0144561D01*
X0311795Y0144555D01*
X0311886Y0144545D01*
X0311977Y0144531D01*
X0312067Y0144513D01*
X0312156Y0144491D01*
X0312243Y0144466D01*
X0312330Y0144436D01*
X0312416Y0144403D01*
X0312499Y0144366D01*
X0312582Y0144326D01*
X0312662Y0144282D01*
X0312740Y0144234D01*
X0312817Y0144183D01*
X0312890Y0144129D01*
X0312962Y0144072D01*
X0313031Y0144011D01*
X0313097Y0143948D01*
X0313160Y0143882D01*
X0313221Y0143813D01*
X0313278Y0143741D01*
X0313332Y0143668D01*
X0313383Y0143591D01*
X0313431Y0143513D01*
X0313475Y0143433D01*
X0313515Y0143350D01*
X0313552Y0143267D01*
X0313585Y0143181D01*
X0313615Y0143094D01*
X0313640Y0143007D01*
X0313662Y0142918D01*
X0313680Y0142828D01*
X0313694Y0142737D01*
X0313704Y0142646D01*
X0313710Y0142555D01*
X0313712Y0142463D01*
X0313710Y0142371D01*
X0313704Y0142280D01*
X0313694Y0142189D01*
X0313680Y0142098D01*
X0313662Y0142008D01*
X0313640Y0141919D01*
X0313615Y0141832D01*
X0313585Y0141745D01*
X0313552Y0141659D01*
X0313515Y0141576D01*
X0313475Y0141493D01*
X0313431Y0141413D01*
X0313383Y0141335D01*
X0313332Y0141258D01*
X0313278Y0141185D01*
X0313221Y0141113D01*
X0313160Y0141044D01*
X0313097Y0140978D01*
X0313031Y0140915D01*
X0312962Y0140854D01*
X0312890Y0140797D01*
X0312817Y0140743D01*
X0312740Y0140692D01*
X0312662Y0140644D01*
X0312582Y0140600D01*
X0312499Y0140560D01*
X0312416Y0140523D01*
X0312330Y0140490D01*
X0312243Y0140460D01*
X0312156Y0140435D01*
X0312067Y0140413D01*
X0311977Y0140395D01*
X0311886Y0140381D01*
X0311795Y0140371D01*
X0311704Y0140365D01*
X0311612Y0140363D01*
X0311520Y0140365D01*
X0311429Y0140371D01*
X0311338Y0140381D01*
X0311247Y0140395D01*
X0311157Y0140413D01*
X0311068Y0140435D01*
X0310981Y0140460D01*
X0310894Y0140490D01*
X0310808Y0140523D01*
X0310725Y0140560D01*
X0310642Y0140600D01*
X0310562Y0140644D01*
X0310484Y0140692D01*
X0310407Y0140743D01*
X0310334Y0140797D01*
X0310262Y0140854D01*
X0310193Y0140915D01*
X0310127Y0140978D01*
X0310064Y0141044D01*
X0310003Y0141113D01*
X0309946Y0141185D01*
X0309892Y0141258D01*
X0309841Y0141335D01*
X0309793Y0141413D01*
X0309749Y0141493D01*
X0309709Y0141576D01*
X0309672Y0141659D01*
X0309639Y0141745D01*
X0309609Y0141832D01*
X0309584Y0141919D01*
X0309562Y0142008D01*
X0309544Y0142098D01*
X0309530Y0142189D01*
X0309520Y0142280D01*
X0309514Y0142371D01*
X0309512Y0142463D01*
X0289534Y0155360D02*
X0282841Y0155360D01*
X0282841Y0167565D01*
X0289534Y0167565D01*
X0289534Y0155360D01*
X0279534Y0155360D02*
X0272841Y0155360D01*
X0272841Y0167565D01*
X0279534Y0167565D01*
X0279534Y0155360D01*
X0296672Y0164677D02*
X0298203Y0164677D01*
X0298539Y0165266D02*
X0296336Y0165266D01*
X0295999Y0165855D02*
X0298876Y0165855D01*
X0299213Y0166444D02*
X0295663Y0166444D01*
X0295326Y0167033D02*
X0299549Y0167033D01*
X0299886Y0167622D02*
X0294989Y0167622D01*
X0294938Y0167713D02*
X0297438Y0163338D01*
X0299938Y0167713D01*
X0294938Y0167713D01*
X0294534Y0169110D02*
X0287841Y0169110D01*
X0287841Y0181315D01*
X0294534Y0181315D01*
X0294534Y0169110D01*
X0296335Y0170616D02*
X0296335Y0177309D01*
X0308540Y0177309D01*
X0308540Y0170616D01*
X0296335Y0170616D01*
X0297009Y0164088D02*
X0297866Y0164088D01*
X0297530Y0163499D02*
X0297346Y0163499D01*
X0284534Y0169110D02*
X0277841Y0169110D01*
X0277841Y0181315D01*
X0284534Y0181315D01*
X0284534Y0169110D01*
X0274534Y0169110D02*
X0267841Y0169110D01*
X0267841Y0181315D01*
X0274534Y0181315D01*
X0274534Y0169110D01*
X0251768Y0160764D02*
X0251768Y0179661D01*
X0243107Y0179661D01*
X0243107Y0160764D01*
X0251768Y0160764D01*
X0251768Y0159661D02*
X0251768Y0140764D01*
X0243107Y0140764D01*
X0243107Y0159661D01*
X0251768Y0159661D01*
X0240784Y0161610D02*
X0234091Y0161610D01*
X0234091Y0173815D01*
X0240784Y0173815D01*
X0240784Y0161610D01*
X0230430Y0164799D02*
X0204446Y0164799D01*
X0204446Y0150626D01*
X0230430Y0150626D01*
X0230430Y0164799D01*
X0226631Y0175557D02*
X0217575Y0175557D01*
X0217575Y0179100D01*
X0213245Y0179100D01*
X0213245Y0183825D01*
X0217575Y0183825D01*
X0217575Y0187368D01*
X0226631Y0187368D01*
X0226631Y0183037D01*
X0222300Y0183037D01*
X0222300Y0179888D01*
X0226631Y0179888D01*
X0226631Y0175557D01*
X0212290Y0184366D02*
X0212290Y0191059D01*
X0200085Y0191059D01*
X0200085Y0184366D01*
X0212290Y0184366D01*
X0234091Y0153815D02*
X0240784Y0153815D01*
X0240784Y0141610D01*
X0234091Y0141610D01*
X0234091Y0153815D01*
X0317585Y0184366D02*
X0317585Y0191059D01*
X0329790Y0191059D01*
X0329790Y0184366D01*
X0317585Y0184366D01*
X0332585Y0184366D02*
X0332585Y0191059D01*
X0344790Y0191059D01*
X0344790Y0184366D01*
X0332585Y0184366D01*
X0332546Y0182821D02*
X0332546Y0176128D01*
X0344751Y0176128D01*
X0344751Y0182821D01*
X0332546Y0182821D01*
X0186768Y0049661D02*
X0178107Y0049661D01*
X0178107Y0030764D01*
X0186768Y0030764D01*
X0186768Y0049661D01*
X0175784Y0046315D02*
X0169091Y0046315D01*
X0169091Y0034110D01*
X0175784Y0034110D01*
X0175784Y0046315D01*
X0166099Y0049799D02*
X0148776Y0049799D01*
X0148776Y0039563D01*
X0166099Y0039563D01*
X0166099Y0049799D01*
X0145784Y0046315D02*
X0139091Y0046315D01*
X0139091Y0034110D01*
X0145784Y0034110D01*
X0145784Y0046315D01*
X0136768Y0049661D02*
X0128107Y0049661D01*
X0128107Y0030764D01*
X0136768Y0030764D01*
X0136768Y0049661D01*
D12*
X0033438Y0038213D02*
X0024438Y0038213D01*
X0024438Y0137213D01*
X0033438Y0137213D01*
X0031938Y0132713D02*
X0025438Y0132713D01*
X0025438Y0130213D01*
X0025438Y0110213D01*
X0029938Y0110213D01*
X0029938Y0130213D01*
X0027438Y0130213D01*
X0027438Y0131713D01*
X0031938Y0131713D01*
X0027438Y0130213D02*
X0025438Y0130213D01*
X0046438Y0137213D02*
X0055438Y0137213D01*
X0055438Y0038213D01*
X0046438Y0038213D01*
X0047938Y0042713D02*
X0054438Y0042713D01*
X0054438Y0045213D01*
X0054438Y0065213D01*
X0049938Y0065213D01*
X0049938Y0045213D01*
X0052438Y0045213D01*
X0052438Y0043713D01*
X0047938Y0043713D01*
X0052438Y0045213D02*
X0054438Y0045213D01*
X0029938Y0045213D02*
X0029938Y0065213D01*
X0025438Y0065213D01*
X0025438Y0045213D01*
X0029938Y0045213D01*
X0049938Y0110213D02*
X0054438Y0110213D01*
X0054438Y0130213D01*
X0049938Y0130213D01*
X0049938Y0110213D01*
X0217731Y0183953D02*
X0217731Y0187063D01*
X0350073Y0055198D02*
X0350630Y0055198D01*
X0351186Y0054641D01*
X0351743Y0055198D01*
X0352300Y0055198D01*
X0352856Y0054641D01*
X0352856Y0053528D01*
X0352300Y0052971D01*
X0352300Y0051572D02*
X0352856Y0051016D01*
X0352856Y0049902D01*
X0352300Y0049346D01*
X0350073Y0049346D01*
X0349516Y0049902D01*
X0349516Y0051016D01*
X0350073Y0051572D01*
X0350073Y0052971D02*
X0349516Y0053528D01*
X0349516Y0054641D01*
X0350073Y0055198D01*
X0351186Y0054641D02*
X0351186Y0054084D01*
X0349516Y0048042D02*
X0349516Y0046929D01*
X0349516Y0047486D02*
X0352856Y0047486D01*
X0352856Y0048042D02*
X0352856Y0046929D01*
X0307856Y0046792D02*
X0307856Y0045679D01*
X0307856Y0046236D02*
X0304516Y0046236D01*
X0304516Y0046792D02*
X0304516Y0045679D01*
X0305073Y0048096D02*
X0307300Y0048096D01*
X0307856Y0048652D01*
X0307856Y0049766D01*
X0307300Y0050322D01*
X0307856Y0051721D02*
X0305630Y0053948D01*
X0305073Y0053948D01*
X0304516Y0053391D01*
X0304516Y0052278D01*
X0305073Y0051721D01*
X0305073Y0050322D02*
X0304516Y0049766D01*
X0304516Y0048652D01*
X0305073Y0048096D01*
X0307856Y0051721D02*
X0307856Y0053948D01*
D13*
X0197556Y0059720D02*
X0087320Y0059720D01*
X0087320Y0185705D01*
X0197556Y0185705D01*
X0197556Y0059720D01*
X0062123Y0142713D02*
X0022753Y0142713D01*
X0022753Y0182713D01*
X0062123Y0182713D01*
X0062123Y0142713D01*
D14*
X0111926Y0053087D02*
X0122949Y0053087D01*
X0125312Y0050724D01*
X0125312Y0039701D01*
X0122949Y0037339D01*
X0111926Y0037339D01*
X0109564Y0039701D01*
X0109564Y0050724D01*
X0111926Y0053087D01*
X0262064Y0049701D02*
X0262064Y0060724D01*
X0264426Y0063087D01*
X0275449Y0063087D01*
X0277812Y0060724D01*
X0277812Y0049701D01*
X0275449Y0047339D01*
X0264426Y0047339D01*
X0262064Y0049701D01*
D15*
X0051438Y0067713D02*
X0051438Y0107713D01*
X0039938Y0108213D02*
X0039938Y0067213D01*
X0028438Y0067713D02*
X0028438Y0107713D01*
D16*
X0029688Y0108963D03*
X0050188Y0108963D03*
X0050188Y0066463D03*
X0029688Y0066463D03*
D17*
X0039938Y0066463D03*
X0039938Y0108963D03*
D18*
X0049438Y0087713D03*
X0030438Y0087713D03*
D19*
X0032188Y0057463D03*
X0047688Y0057463D03*
X0047688Y0117963D03*
X0032188Y0117963D03*
D20*
X0030938Y0119713D03*
X0048938Y0119713D03*
X0048938Y0055713D03*
X0030938Y0055713D03*
M02*
