G75*
%MOIN*%
%OFA0B0*%
%FSLAX25Y25*%
%IPPOS*%
%LPD*%
%AMOC8*
5,1,8,0,0,1.08239X$1,22.5*
%
%ADD10C,0.00394*%
%ADD11R,0.02362X0.08661*%
%ADD12R,0.04331X0.05118*%
%ADD13R,0.09449X0.06299*%
%ADD14R,0.07480X0.05197*%
%ADD15R,0.07874X0.07874*%
%ADD16R,0.05118X0.02362*%
%ADD17R,0.05118X0.04331*%
%ADD18R,0.05118X0.06299*%
%ADD19R,0.11024X0.03543*%
%ADD20C,0.23622*%
%ADD21C,0.00787*%
%ADD22C,0.03562*%
%ADD23C,0.01600*%
%ADD24C,0.02400*%
%ADD25R,0.05906X0.05906*%
D10*
X0032280Y0024681D02*
X0201572Y0024681D01*
X0201857Y0024684D01*
X0202143Y0024695D01*
X0202428Y0024712D01*
X0202712Y0024736D01*
X0202996Y0024767D01*
X0203279Y0024805D01*
X0203560Y0024850D01*
X0203841Y0024901D01*
X0204121Y0024959D01*
X0204399Y0025024D01*
X0204675Y0025096D01*
X0204949Y0025174D01*
X0205222Y0025259D01*
X0205492Y0025351D01*
X0205760Y0025449D01*
X0206026Y0025553D01*
X0206289Y0025664D01*
X0206549Y0025781D01*
X0206807Y0025904D01*
X0207061Y0026034D01*
X0207312Y0026170D01*
X0207560Y0026311D01*
X0207804Y0026459D01*
X0208045Y0026612D01*
X0208281Y0026772D01*
X0208514Y0026937D01*
X0208743Y0027107D01*
X0208968Y0027283D01*
X0209188Y0027465D01*
X0209404Y0027651D01*
X0209615Y0027843D01*
X0209822Y0028040D01*
X0210024Y0028242D01*
X0210221Y0028449D01*
X0210413Y0028660D01*
X0210599Y0028876D01*
X0210781Y0029096D01*
X0210957Y0029321D01*
X0211127Y0029550D01*
X0211292Y0029783D01*
X0211452Y0030019D01*
X0211605Y0030260D01*
X0211753Y0030504D01*
X0211894Y0030752D01*
X0212030Y0031003D01*
X0212160Y0031257D01*
X0212283Y0031515D01*
X0212400Y0031775D01*
X0212511Y0032038D01*
X0212615Y0032304D01*
X0212713Y0032572D01*
X0212805Y0032842D01*
X0212890Y0033115D01*
X0212968Y0033389D01*
X0213040Y0033665D01*
X0213105Y0033943D01*
X0213163Y0034223D01*
X0213214Y0034504D01*
X0213259Y0034785D01*
X0213297Y0035068D01*
X0213328Y0035352D01*
X0213352Y0035636D01*
X0213369Y0035921D01*
X0213380Y0036207D01*
X0213383Y0036492D01*
X0213383Y0127043D01*
X0213380Y0127328D01*
X0213369Y0127614D01*
X0213352Y0127899D01*
X0213328Y0128183D01*
X0213297Y0128467D01*
X0213259Y0128750D01*
X0213214Y0129031D01*
X0213163Y0129312D01*
X0213105Y0129592D01*
X0213040Y0129870D01*
X0212968Y0130146D01*
X0212890Y0130420D01*
X0212805Y0130693D01*
X0212713Y0130963D01*
X0212615Y0131231D01*
X0212511Y0131497D01*
X0212400Y0131760D01*
X0212283Y0132020D01*
X0212160Y0132278D01*
X0212030Y0132532D01*
X0211894Y0132783D01*
X0211753Y0133031D01*
X0211605Y0133275D01*
X0211452Y0133516D01*
X0211292Y0133752D01*
X0211127Y0133985D01*
X0210957Y0134214D01*
X0210781Y0134439D01*
X0210599Y0134659D01*
X0210413Y0134875D01*
X0210221Y0135086D01*
X0210024Y0135293D01*
X0209822Y0135495D01*
X0209615Y0135692D01*
X0209404Y0135884D01*
X0209188Y0136070D01*
X0208968Y0136252D01*
X0208743Y0136428D01*
X0208514Y0136598D01*
X0208281Y0136763D01*
X0208045Y0136923D01*
X0207804Y0137076D01*
X0207560Y0137224D01*
X0207312Y0137365D01*
X0207061Y0137501D01*
X0206807Y0137631D01*
X0206549Y0137754D01*
X0206289Y0137871D01*
X0206026Y0137982D01*
X0205760Y0138086D01*
X0205492Y0138184D01*
X0205222Y0138276D01*
X0204949Y0138361D01*
X0204675Y0138439D01*
X0204399Y0138511D01*
X0204121Y0138576D01*
X0203841Y0138634D01*
X0203560Y0138685D01*
X0203279Y0138730D01*
X0202996Y0138768D01*
X0202712Y0138799D01*
X0202428Y0138823D01*
X0202143Y0138840D01*
X0201857Y0138851D01*
X0201572Y0138854D01*
X0032280Y0138854D01*
X0031995Y0138851D01*
X0031709Y0138840D01*
X0031424Y0138823D01*
X0031140Y0138799D01*
X0030856Y0138768D01*
X0030573Y0138730D01*
X0030292Y0138685D01*
X0030011Y0138634D01*
X0029731Y0138576D01*
X0029453Y0138511D01*
X0029177Y0138439D01*
X0028903Y0138361D01*
X0028630Y0138276D01*
X0028360Y0138184D01*
X0028092Y0138086D01*
X0027826Y0137982D01*
X0027563Y0137871D01*
X0027303Y0137754D01*
X0027045Y0137631D01*
X0026791Y0137501D01*
X0026540Y0137365D01*
X0026292Y0137224D01*
X0026048Y0137076D01*
X0025807Y0136923D01*
X0025571Y0136763D01*
X0025338Y0136598D01*
X0025109Y0136428D01*
X0024884Y0136252D01*
X0024664Y0136070D01*
X0024448Y0135884D01*
X0024237Y0135692D01*
X0024030Y0135495D01*
X0023828Y0135293D01*
X0023631Y0135086D01*
X0023439Y0134875D01*
X0023253Y0134659D01*
X0023071Y0134439D01*
X0022895Y0134214D01*
X0022725Y0133985D01*
X0022560Y0133752D01*
X0022400Y0133516D01*
X0022247Y0133275D01*
X0022099Y0133031D01*
X0021958Y0132783D01*
X0021822Y0132532D01*
X0021692Y0132278D01*
X0021569Y0132020D01*
X0021452Y0131760D01*
X0021341Y0131497D01*
X0021237Y0131231D01*
X0021139Y0130963D01*
X0021047Y0130693D01*
X0020962Y0130420D01*
X0020884Y0130146D01*
X0020812Y0129870D01*
X0020747Y0129592D01*
X0020689Y0129312D01*
X0020638Y0129031D01*
X0020593Y0128750D01*
X0020555Y0128467D01*
X0020524Y0128183D01*
X0020500Y0127899D01*
X0020483Y0127614D01*
X0020472Y0127328D01*
X0020469Y0127043D01*
X0020469Y0036492D01*
X0020472Y0036207D01*
X0020483Y0035921D01*
X0020500Y0035636D01*
X0020524Y0035352D01*
X0020555Y0035068D01*
X0020593Y0034785D01*
X0020638Y0034504D01*
X0020689Y0034223D01*
X0020747Y0033943D01*
X0020812Y0033665D01*
X0020884Y0033389D01*
X0020962Y0033115D01*
X0021047Y0032842D01*
X0021139Y0032572D01*
X0021237Y0032304D01*
X0021341Y0032038D01*
X0021452Y0031775D01*
X0021569Y0031515D01*
X0021692Y0031257D01*
X0021822Y0031003D01*
X0021958Y0030752D01*
X0022099Y0030504D01*
X0022247Y0030260D01*
X0022400Y0030019D01*
X0022560Y0029783D01*
X0022725Y0029550D01*
X0022895Y0029321D01*
X0023071Y0029096D01*
X0023253Y0028876D01*
X0023439Y0028660D01*
X0023631Y0028449D01*
X0023828Y0028242D01*
X0024030Y0028040D01*
X0024237Y0027843D01*
X0024448Y0027651D01*
X0024664Y0027465D01*
X0024884Y0027283D01*
X0025109Y0027107D01*
X0025338Y0026937D01*
X0025571Y0026772D01*
X0025807Y0026612D01*
X0026048Y0026459D01*
X0026292Y0026311D01*
X0026540Y0026170D01*
X0026791Y0026034D01*
X0027045Y0025904D01*
X0027303Y0025781D01*
X0027563Y0025664D01*
X0027826Y0025553D01*
X0028092Y0025449D01*
X0028360Y0025351D01*
X0028630Y0025259D01*
X0028903Y0025174D01*
X0029177Y0025096D01*
X0029453Y0025024D01*
X0029731Y0024959D01*
X0030011Y0024901D01*
X0030292Y0024850D01*
X0030573Y0024805D01*
X0030856Y0024767D01*
X0031140Y0024736D01*
X0031424Y0024712D01*
X0031709Y0024695D01*
X0031995Y0024684D01*
X0032280Y0024681D01*
D11*
X0044219Y0073195D03*
X0049219Y0073195D03*
X0054219Y0073195D03*
X0059219Y0073195D03*
X0059219Y0093667D03*
X0054219Y0093667D03*
X0049219Y0093667D03*
X0044219Y0093667D03*
X0180469Y0091167D03*
X0185469Y0091167D03*
X0190469Y0091167D03*
X0195469Y0091167D03*
X0195469Y0070695D03*
X0190469Y0070695D03*
X0185469Y0070695D03*
X0180469Y0070695D03*
D12*
X0154869Y0078431D03*
X0148570Y0078431D03*
X0148570Y0085931D03*
X0154869Y0085931D03*
X0154869Y0093431D03*
X0148570Y0093431D03*
X0126119Y0068431D03*
X0119820Y0068431D03*
X0119820Y0060931D03*
X0126119Y0060931D03*
X0094869Y0074681D03*
X0088570Y0074681D03*
X0072369Y0074681D03*
X0066070Y0074681D03*
X0066070Y0083431D03*
X0072369Y0083431D03*
X0049869Y0103431D03*
X0043570Y0103431D03*
X0058570Y0105931D03*
X0064869Y0105931D03*
X0064869Y0063431D03*
X0058570Y0063431D03*
X0058570Y0055931D03*
X0064869Y0055931D03*
X0049869Y0055931D03*
X0043570Y0055931D03*
X0043570Y0063431D03*
X0049869Y0063431D03*
X0051070Y0042181D03*
X0057369Y0042181D03*
X0063570Y0042181D03*
X0069869Y0042181D03*
X0164820Y0042181D03*
X0171119Y0042181D03*
X0177320Y0042181D03*
X0183619Y0042181D03*
X0188570Y0099681D03*
X0194869Y0099681D03*
X0194869Y0107181D03*
X0188570Y0107181D03*
D13*
X0136719Y0043087D03*
X0136719Y0031276D03*
X0097969Y0031276D03*
X0097969Y0043087D03*
D14*
X0101719Y0072181D03*
X0101719Y0082181D03*
X0161719Y0068431D03*
X0161719Y0058431D03*
D15*
X0141719Y0063431D03*
X0081719Y0077181D03*
D16*
X0120036Y0075931D03*
X0120036Y0080931D03*
X0120036Y0085931D03*
X0120036Y0090931D03*
X0140902Y0090931D03*
X0140902Y0085931D03*
X0140902Y0080931D03*
X0140902Y0075931D03*
D17*
X0169219Y0065331D03*
X0169219Y0059031D03*
X0172969Y0072781D03*
X0172969Y0079081D03*
X0180469Y0100281D03*
X0180469Y0106581D03*
X0134219Y0104081D03*
X0134219Y0097781D03*
X0124219Y0097781D03*
X0124219Y0104081D03*
X0111719Y0087831D03*
X0111719Y0081531D03*
X0111719Y0074081D03*
X0111719Y0067781D03*
X0111719Y0060331D03*
X0111719Y0054031D03*
X0107969Y0042831D03*
X0107969Y0036531D03*
X0126719Y0036531D03*
X0126719Y0042831D03*
X0075469Y0091531D03*
X0075469Y0097831D03*
X0066719Y0097831D03*
X0066719Y0091531D03*
X0085469Y0094031D03*
X0085469Y0100331D03*
D18*
X0059209Y0113431D03*
X0051729Y0113431D03*
D19*
X0082969Y0044071D03*
X0082969Y0030291D03*
X0151719Y0030291D03*
X0151719Y0044071D03*
D20*
X0199603Y0038461D03*
X0199603Y0125075D03*
X0034249Y0125075D03*
X0034249Y0038461D03*
D21*
X0022260Y0038828D02*
X0053744Y0038828D01*
X0053610Y0038962D02*
X0054543Y0038028D01*
X0060194Y0038028D01*
X0060469Y0038303D01*
X0060744Y0038028D01*
X0066395Y0038028D01*
X0066719Y0038352D01*
X0067043Y0038028D01*
X0072694Y0038028D01*
X0073628Y0038962D01*
X0073628Y0039787D01*
X0074695Y0039787D01*
X0075575Y0040152D01*
X0076248Y0040825D01*
X0076463Y0041040D01*
X0076797Y0040706D01*
X0089141Y0040706D01*
X0089713Y0041277D01*
X0091651Y0041277D01*
X0091651Y0039277D01*
X0092585Y0038343D01*
X0103354Y0038343D01*
X0104287Y0039277D01*
X0104287Y0039534D01*
X0104750Y0039072D01*
X0111188Y0039072D01*
X0112122Y0040005D01*
X0112122Y0041699D01*
X0113961Y0043537D01*
X0118090Y0043537D01*
X0118557Y0043070D01*
X0119798Y0042556D01*
X0121140Y0042556D01*
X0122381Y0043070D01*
X0122566Y0043256D01*
X0122566Y0040005D01*
X0123500Y0039072D01*
X0129938Y0039072D01*
X0130401Y0039534D01*
X0130401Y0039277D01*
X0131335Y0038343D01*
X0142104Y0038343D01*
X0143037Y0039277D01*
X0143037Y0041277D01*
X0144976Y0041277D01*
X0145547Y0040706D01*
X0157891Y0040706D01*
X0158225Y0041040D01*
X0158440Y0040825D01*
X0159113Y0040152D01*
X0159993Y0039787D01*
X0161060Y0039787D01*
X0161060Y0038962D01*
X0161994Y0038028D01*
X0167645Y0038028D01*
X0167969Y0038352D01*
X0168293Y0038028D01*
X0173944Y0038028D01*
X0174219Y0038303D01*
X0174494Y0038028D01*
X0180145Y0038028D01*
X0181079Y0038962D01*
X0181079Y0045400D01*
X0180145Y0046334D01*
X0174494Y0046334D01*
X0174219Y0046059D01*
X0173944Y0046334D01*
X0168293Y0046334D01*
X0167969Y0046010D01*
X0167645Y0046334D01*
X0164228Y0046334D01*
X0166431Y0048537D01*
X0193445Y0048537D01*
X0194325Y0048902D01*
X0194998Y0049575D01*
X0194998Y0049575D01*
X0200575Y0055152D01*
X0201248Y0055825D01*
X0201613Y0056705D01*
X0201613Y0083907D01*
X0201248Y0084787D01*
X0199325Y0086710D01*
X0198445Y0087075D01*
X0198244Y0087075D01*
X0198244Y0096158D01*
X0197310Y0097092D01*
X0193628Y0097092D01*
X0192969Y0096433D01*
X0192329Y0097073D01*
X0192329Y0102900D01*
X0191798Y0103431D01*
X0192329Y0103962D01*
X0192329Y0110400D01*
X0191395Y0111334D01*
X0185744Y0111334D01*
X0184810Y0110400D01*
X0184810Y0103962D01*
X0185341Y0103431D01*
X0184810Y0102900D01*
X0184810Y0099873D01*
X0184622Y0099684D01*
X0184622Y0103107D01*
X0184298Y0103431D01*
X0184622Y0103755D01*
X0184622Y0109406D01*
X0183688Y0110340D01*
X0182863Y0110340D01*
X0182863Y0117657D01*
X0182498Y0118537D01*
X0181825Y0119210D01*
X0174325Y0126710D01*
X0173445Y0127075D01*
X0094993Y0127075D01*
X0094113Y0126710D01*
X0093440Y0126037D01*
X0083440Y0116037D01*
X0083075Y0115157D01*
X0083075Y0104090D01*
X0082250Y0104090D01*
X0081316Y0103156D01*
X0081316Y0098469D01*
X0079925Y0099860D01*
X0079622Y0099986D01*
X0079622Y0100656D01*
X0078688Y0101590D01*
X0072250Y0101590D01*
X0071316Y0100656D01*
X0071316Y0095005D01*
X0071641Y0094681D01*
X0071316Y0094357D01*
X0071316Y0093925D01*
X0070872Y0093925D01*
X0070872Y0094357D01*
X0069938Y0095291D01*
X0063500Y0095291D01*
X0062566Y0094357D01*
X0062566Y0093925D01*
X0061994Y0093925D01*
X0061994Y0098658D01*
X0061060Y0099592D01*
X0057378Y0099592D01*
X0056719Y0098933D01*
X0056613Y0099039D01*
X0056613Y0101778D01*
X0061395Y0101778D01*
X0062329Y0102712D01*
X0062329Y0108688D01*
X0062428Y0108688D01*
X0063362Y0109621D01*
X0063362Y0116689D01*
X0064325Y0117652D01*
X0064998Y0118325D01*
X0065363Y0119205D01*
X0065363Y0132657D01*
X0064998Y0133537D01*
X0063748Y0134787D01*
X0063075Y0135460D01*
X0062195Y0135825D01*
X0056243Y0135825D01*
X0055363Y0135460D01*
X0054113Y0134210D01*
X0053440Y0133537D01*
X0053075Y0132657D01*
X0053075Y0119205D01*
X0053440Y0118325D01*
X0053591Y0118174D01*
X0048510Y0118174D01*
X0047576Y0117241D01*
X0047576Y0109621D01*
X0048075Y0109122D01*
X0048075Y0107584D01*
X0047043Y0107584D01*
X0046110Y0106650D01*
X0046110Y0100212D01*
X0046825Y0099496D01*
X0046825Y0099039D01*
X0046444Y0098658D01*
X0046444Y0088676D01*
X0047378Y0087743D01*
X0050844Y0087743D01*
X0050844Y0086510D01*
X0051358Y0085269D01*
X0052307Y0084320D01*
X0053548Y0083806D01*
X0053709Y0083806D01*
X0052863Y0082960D01*
X0052190Y0082287D01*
X0051825Y0081407D01*
X0051825Y0078567D01*
X0051719Y0078461D01*
X0051060Y0079119D01*
X0047378Y0079119D01*
X0046719Y0078461D01*
X0046060Y0079119D01*
X0042378Y0079119D01*
X0041444Y0078186D01*
X0041444Y0068204D01*
X0042378Y0067270D01*
X0046060Y0067270D01*
X0046425Y0067636D01*
X0046425Y0066966D01*
X0046110Y0066650D01*
X0046110Y0060212D01*
X0046641Y0059681D01*
X0046110Y0059150D01*
X0046110Y0052712D01*
X0047043Y0051778D01*
X0047475Y0051778D01*
X0047475Y0048555D01*
X0047839Y0047676D01*
X0049690Y0045825D01*
X0050363Y0045152D01*
X0051243Y0044787D01*
X0053610Y0044787D01*
X0053610Y0038962D01*
X0053610Y0039613D02*
X0022260Y0039613D01*
X0022260Y0040399D02*
X0053610Y0040399D01*
X0053610Y0041185D02*
X0022260Y0041185D01*
X0022260Y0041971D02*
X0053610Y0041971D01*
X0053610Y0042757D02*
X0022260Y0042757D01*
X0022260Y0043543D02*
X0053610Y0043543D01*
X0053610Y0044329D02*
X0022260Y0044329D01*
X0022260Y0045115D02*
X0050453Y0045115D01*
X0049614Y0045901D02*
X0022260Y0045901D01*
X0022260Y0046687D02*
X0048828Y0046687D01*
X0048042Y0047473D02*
X0022260Y0047473D01*
X0022260Y0048258D02*
X0047598Y0048258D01*
X0047475Y0049044D02*
X0022260Y0049044D01*
X0022260Y0049830D02*
X0047475Y0049830D01*
X0047475Y0050616D02*
X0022260Y0050616D01*
X0022260Y0051402D02*
X0047475Y0051402D01*
X0046634Y0052188D02*
X0022260Y0052188D01*
X0022260Y0052974D02*
X0046110Y0052974D01*
X0046110Y0053760D02*
X0022260Y0053760D01*
X0022260Y0054546D02*
X0046110Y0054546D01*
X0046110Y0055332D02*
X0022260Y0055332D01*
X0022260Y0056118D02*
X0046110Y0056118D01*
X0046110Y0056904D02*
X0022260Y0056904D01*
X0022260Y0057689D02*
X0046110Y0057689D01*
X0046110Y0058475D02*
X0022260Y0058475D01*
X0022260Y0059261D02*
X0046221Y0059261D01*
X0046274Y0060047D02*
X0022260Y0060047D01*
X0022260Y0060833D02*
X0046110Y0060833D01*
X0046110Y0061619D02*
X0022260Y0061619D01*
X0022260Y0062405D02*
X0046110Y0062405D01*
X0046110Y0063191D02*
X0022260Y0063191D01*
X0022260Y0063977D02*
X0046110Y0063977D01*
X0046110Y0064763D02*
X0022260Y0064763D01*
X0022260Y0065549D02*
X0046110Y0065549D01*
X0046110Y0066334D02*
X0022260Y0066334D01*
X0022260Y0067120D02*
X0046425Y0067120D01*
X0041742Y0067906D02*
X0022260Y0067906D01*
X0022260Y0068692D02*
X0041444Y0068692D01*
X0041444Y0069478D02*
X0022260Y0069478D01*
X0022260Y0070264D02*
X0041444Y0070264D01*
X0041444Y0071050D02*
X0022260Y0071050D01*
X0022260Y0071836D02*
X0041444Y0071836D01*
X0041444Y0072622D02*
X0022260Y0072622D01*
X0022260Y0073408D02*
X0041444Y0073408D01*
X0041444Y0074194D02*
X0022260Y0074194D01*
X0022260Y0074980D02*
X0041444Y0074980D01*
X0041444Y0075765D02*
X0022260Y0075765D01*
X0022260Y0076551D02*
X0041444Y0076551D01*
X0041444Y0077337D02*
X0022260Y0077337D01*
X0022260Y0078123D02*
X0041444Y0078123D01*
X0042168Y0078909D02*
X0022260Y0078909D01*
X0022260Y0079695D02*
X0051825Y0079695D01*
X0051825Y0080481D02*
X0022260Y0080481D01*
X0022260Y0081267D02*
X0051825Y0081267D01*
X0052093Y0082053D02*
X0022260Y0082053D01*
X0022260Y0082839D02*
X0052742Y0082839D01*
X0053527Y0083625D02*
X0022260Y0083625D01*
X0022260Y0084410D02*
X0052217Y0084410D01*
X0051431Y0085196D02*
X0022260Y0085196D01*
X0022260Y0085982D02*
X0051063Y0085982D01*
X0050844Y0086768D02*
X0022260Y0086768D01*
X0022260Y0087554D02*
X0050844Y0087554D01*
X0046781Y0088340D02*
X0022260Y0088340D01*
X0022260Y0089126D02*
X0046444Y0089126D01*
X0046444Y0089912D02*
X0022260Y0089912D01*
X0022260Y0090698D02*
X0046444Y0090698D01*
X0046444Y0091484D02*
X0022260Y0091484D01*
X0022260Y0092270D02*
X0046444Y0092270D01*
X0046444Y0093056D02*
X0022260Y0093056D01*
X0022260Y0093841D02*
X0046444Y0093841D01*
X0046444Y0094627D02*
X0022260Y0094627D01*
X0022260Y0095413D02*
X0046444Y0095413D01*
X0046444Y0096199D02*
X0022260Y0096199D01*
X0022260Y0096985D02*
X0046444Y0096985D01*
X0046444Y0097771D02*
X0022260Y0097771D01*
X0022260Y0098557D02*
X0046444Y0098557D01*
X0046825Y0099343D02*
X0022260Y0099343D01*
X0022260Y0100129D02*
X0046193Y0100129D01*
X0046110Y0100915D02*
X0022260Y0100915D01*
X0022260Y0101701D02*
X0046110Y0101701D01*
X0046110Y0102486D02*
X0022260Y0102486D01*
X0022260Y0103272D02*
X0046110Y0103272D01*
X0046110Y0104058D02*
X0022260Y0104058D01*
X0022260Y0104844D02*
X0046110Y0104844D01*
X0046110Y0105630D02*
X0022260Y0105630D01*
X0022260Y0106416D02*
X0046110Y0106416D01*
X0046661Y0107202D02*
X0022260Y0107202D01*
X0022260Y0107988D02*
X0048075Y0107988D01*
X0048075Y0108774D02*
X0022260Y0108774D01*
X0022260Y0109560D02*
X0047638Y0109560D01*
X0047576Y0110346D02*
X0022260Y0110346D01*
X0022260Y0111132D02*
X0047576Y0111132D01*
X0047576Y0111917D02*
X0022260Y0111917D01*
X0022260Y0112703D02*
X0047576Y0112703D01*
X0047576Y0113489D02*
X0022260Y0113489D01*
X0022260Y0114275D02*
X0047576Y0114275D01*
X0047576Y0115061D02*
X0022260Y0115061D01*
X0022260Y0115847D02*
X0047576Y0115847D01*
X0047576Y0116633D02*
X0022260Y0116633D01*
X0022260Y0117419D02*
X0047754Y0117419D01*
X0053164Y0118991D02*
X0022260Y0118991D01*
X0022260Y0119777D02*
X0053075Y0119777D01*
X0053075Y0120562D02*
X0022260Y0120562D01*
X0022260Y0121348D02*
X0053075Y0121348D01*
X0053075Y0122134D02*
X0022260Y0122134D01*
X0022260Y0122920D02*
X0053075Y0122920D01*
X0053075Y0123706D02*
X0022260Y0123706D01*
X0022260Y0124492D02*
X0053075Y0124492D01*
X0053075Y0125278D02*
X0022260Y0125278D01*
X0022260Y0126064D02*
X0053075Y0126064D01*
X0053075Y0126850D02*
X0022260Y0126850D01*
X0022260Y0127043D02*
X0022383Y0128611D01*
X0023352Y0131593D01*
X0025195Y0134129D01*
X0027731Y0135972D01*
X0030713Y0136940D01*
X0032280Y0137064D01*
X0201572Y0137064D01*
X0203139Y0136940D01*
X0206121Y0135972D01*
X0208657Y0134129D01*
X0210500Y0131592D01*
X0211469Y0128611D01*
X0211592Y0127043D01*
X0211592Y0036492D01*
X0211469Y0034925D01*
X0210500Y0031943D01*
X0208657Y0029407D01*
X0206121Y0027564D01*
X0203139Y0026595D01*
X0201572Y0026472D01*
X0170016Y0026472D01*
X0170016Y0033294D01*
X0169082Y0034228D01*
X0161856Y0034228D01*
X0160923Y0033294D01*
X0160923Y0032475D01*
X0158825Y0032475D01*
X0158825Y0032723D01*
X0157891Y0033657D01*
X0145547Y0033657D01*
X0144614Y0032723D01*
X0144614Y0027860D01*
X0145547Y0026926D01*
X0151070Y0026926D01*
X0151163Y0026887D01*
X0160923Y0026887D01*
X0160923Y0026472D01*
X0073766Y0026472D01*
X0073766Y0026887D01*
X0082915Y0026887D01*
X0083008Y0026926D01*
X0089141Y0026926D01*
X0090075Y0027860D01*
X0090075Y0032723D01*
X0089141Y0033657D01*
X0076797Y0033657D01*
X0075864Y0032723D01*
X0075864Y0032475D01*
X0073766Y0032475D01*
X0073766Y0033294D01*
X0072832Y0034228D01*
X0065606Y0034228D01*
X0064673Y0033294D01*
X0064673Y0026472D01*
X0032280Y0026472D01*
X0030713Y0026595D01*
X0027731Y0027564D01*
X0025195Y0029407D01*
X0023352Y0031943D01*
X0022383Y0034925D01*
X0022260Y0036492D01*
X0022260Y0127043D01*
X0022306Y0127636D02*
X0053075Y0127636D01*
X0053075Y0128422D02*
X0022368Y0128422D01*
X0022577Y0129208D02*
X0053075Y0129208D01*
X0053075Y0129993D02*
X0022832Y0129993D01*
X0023088Y0130779D02*
X0053075Y0130779D01*
X0053075Y0131565D02*
X0023343Y0131565D01*
X0023903Y0132351D02*
X0053075Y0132351D01*
X0053274Y0133137D02*
X0024474Y0133137D01*
X0025045Y0133923D02*
X0053826Y0133923D01*
X0054612Y0134709D02*
X0025993Y0134709D01*
X0027075Y0135495D02*
X0055446Y0135495D01*
X0062992Y0135495D02*
X0206777Y0135495D01*
X0207859Y0134709D02*
X0063827Y0134709D01*
X0064612Y0133923D02*
X0208807Y0133923D01*
X0209378Y0133137D02*
X0065164Y0133137D01*
X0065363Y0132351D02*
X0209949Y0132351D01*
X0210509Y0131565D02*
X0065363Y0131565D01*
X0065363Y0130779D02*
X0210764Y0130779D01*
X0211019Y0129993D02*
X0065363Y0129993D01*
X0065363Y0129208D02*
X0211275Y0129208D01*
X0211484Y0128422D02*
X0065363Y0128422D01*
X0065363Y0127636D02*
X0211545Y0127636D01*
X0211592Y0126850D02*
X0173989Y0126850D01*
X0174972Y0126064D02*
X0211592Y0126064D01*
X0211592Y0125278D02*
X0175757Y0125278D01*
X0176543Y0124492D02*
X0211592Y0124492D01*
X0211592Y0123706D02*
X0177329Y0123706D01*
X0178115Y0122920D02*
X0211592Y0122920D01*
X0211592Y0122134D02*
X0178901Y0122134D01*
X0179687Y0121348D02*
X0211592Y0121348D01*
X0211592Y0120562D02*
X0180473Y0120562D01*
X0181259Y0119777D02*
X0211592Y0119777D01*
X0211592Y0118991D02*
X0182045Y0118991D01*
X0182636Y0118205D02*
X0211592Y0118205D01*
X0211592Y0117419D02*
X0182863Y0117419D01*
X0182863Y0116633D02*
X0211592Y0116633D01*
X0211592Y0115847D02*
X0182863Y0115847D01*
X0182863Y0115061D02*
X0211592Y0115061D01*
X0211592Y0114275D02*
X0182863Y0114275D01*
X0182863Y0113489D02*
X0211592Y0113489D01*
X0211592Y0112703D02*
X0182863Y0112703D01*
X0182863Y0111917D02*
X0211592Y0111917D01*
X0211592Y0111132D02*
X0191597Y0111132D01*
X0192329Y0110346D02*
X0211592Y0110346D01*
X0211592Y0109560D02*
X0192329Y0109560D01*
X0192329Y0108774D02*
X0211592Y0108774D01*
X0211592Y0107988D02*
X0192329Y0107988D01*
X0192329Y0107202D02*
X0211592Y0107202D01*
X0211592Y0106416D02*
X0192329Y0106416D01*
X0192329Y0105630D02*
X0211592Y0105630D01*
X0211592Y0104844D02*
X0192329Y0104844D01*
X0192329Y0104058D02*
X0211592Y0104058D01*
X0211592Y0103272D02*
X0191956Y0103272D01*
X0192329Y0102486D02*
X0211592Y0102486D01*
X0211592Y0101701D02*
X0192329Y0101701D01*
X0192329Y0100915D02*
X0211592Y0100915D01*
X0211592Y0100129D02*
X0192329Y0100129D01*
X0192329Y0099343D02*
X0211592Y0099343D01*
X0211592Y0098557D02*
X0192329Y0098557D01*
X0192329Y0097771D02*
X0211592Y0097771D01*
X0211592Y0096985D02*
X0197417Y0096985D01*
X0198203Y0096199D02*
X0211592Y0096199D01*
X0211592Y0095413D02*
X0198244Y0095413D01*
X0198244Y0094627D02*
X0211592Y0094627D01*
X0211592Y0093841D02*
X0198244Y0093841D01*
X0198244Y0093056D02*
X0211592Y0093056D01*
X0211592Y0092270D02*
X0198244Y0092270D01*
X0198244Y0091484D02*
X0211592Y0091484D01*
X0211592Y0090698D02*
X0198244Y0090698D01*
X0198244Y0089912D02*
X0211592Y0089912D01*
X0211592Y0089126D02*
X0198244Y0089126D01*
X0198244Y0088340D02*
X0211592Y0088340D01*
X0211592Y0087554D02*
X0198244Y0087554D01*
X0199185Y0086768D02*
X0211592Y0086768D01*
X0211592Y0085982D02*
X0200053Y0085982D01*
X0200839Y0085196D02*
X0211592Y0085196D01*
X0211592Y0084410D02*
X0201404Y0084410D01*
X0201613Y0083625D02*
X0211592Y0083625D01*
X0211592Y0082839D02*
X0201613Y0082839D01*
X0201613Y0082053D02*
X0211592Y0082053D01*
X0211592Y0081267D02*
X0201613Y0081267D01*
X0201613Y0080481D02*
X0211592Y0080481D01*
X0211592Y0079695D02*
X0201613Y0079695D01*
X0201613Y0078909D02*
X0211592Y0078909D01*
X0211592Y0078123D02*
X0201613Y0078123D01*
X0201613Y0077337D02*
X0211592Y0077337D01*
X0211592Y0076551D02*
X0201613Y0076551D01*
X0201613Y0075765D02*
X0211592Y0075765D01*
X0211592Y0074980D02*
X0201613Y0074980D01*
X0201613Y0074194D02*
X0211592Y0074194D01*
X0211592Y0073408D02*
X0201613Y0073408D01*
X0201613Y0072622D02*
X0211592Y0072622D01*
X0211592Y0071836D02*
X0201613Y0071836D01*
X0201613Y0071050D02*
X0211592Y0071050D01*
X0211592Y0070264D02*
X0201613Y0070264D01*
X0201613Y0069478D02*
X0211592Y0069478D01*
X0211592Y0068692D02*
X0201613Y0068692D01*
X0201613Y0067906D02*
X0211592Y0067906D01*
X0211592Y0067120D02*
X0201613Y0067120D01*
X0201613Y0066334D02*
X0211592Y0066334D01*
X0211592Y0065549D02*
X0201613Y0065549D01*
X0201613Y0064763D02*
X0211592Y0064763D01*
X0211592Y0063977D02*
X0201613Y0063977D01*
X0201613Y0063191D02*
X0211592Y0063191D01*
X0211592Y0062405D02*
X0201613Y0062405D01*
X0201613Y0061619D02*
X0211592Y0061619D01*
X0211592Y0060833D02*
X0201613Y0060833D01*
X0201613Y0060047D02*
X0211592Y0060047D01*
X0211592Y0059261D02*
X0201613Y0059261D01*
X0201613Y0058475D02*
X0211592Y0058475D01*
X0211592Y0057689D02*
X0201613Y0057689D01*
X0201613Y0056904D02*
X0211592Y0056904D01*
X0211592Y0056118D02*
X0201370Y0056118D01*
X0200755Y0055332D02*
X0211592Y0055332D01*
X0211592Y0054546D02*
X0199969Y0054546D01*
X0199183Y0053760D02*
X0211592Y0053760D01*
X0211592Y0052974D02*
X0198397Y0052974D01*
X0197611Y0052188D02*
X0211592Y0052188D01*
X0211592Y0051402D02*
X0196825Y0051402D01*
X0196039Y0050616D02*
X0211592Y0050616D01*
X0211592Y0049830D02*
X0195254Y0049830D01*
X0194468Y0049044D02*
X0211592Y0049044D01*
X0211592Y0048258D02*
X0166152Y0048258D01*
X0165366Y0047473D02*
X0211592Y0047473D01*
X0211592Y0046687D02*
X0164580Y0046687D01*
X0158866Y0040399D02*
X0143037Y0040399D01*
X0143037Y0039613D02*
X0161060Y0039613D01*
X0161195Y0038828D02*
X0142588Y0038828D01*
X0143037Y0041185D02*
X0145067Y0041185D01*
X0145217Y0033326D02*
X0089472Y0033326D01*
X0090075Y0032540D02*
X0144614Y0032540D01*
X0144614Y0031754D02*
X0090075Y0031754D01*
X0090075Y0030968D02*
X0144614Y0030968D01*
X0144614Y0030182D02*
X0090075Y0030182D01*
X0090075Y0029397D02*
X0144614Y0029397D01*
X0144614Y0028611D02*
X0090075Y0028611D01*
X0090040Y0027825D02*
X0144648Y0027825D01*
X0145434Y0027039D02*
X0089254Y0027039D01*
X0076467Y0033326D02*
X0073733Y0033326D01*
X0073766Y0032540D02*
X0075864Y0032540D01*
X0072948Y0034112D02*
X0161741Y0034112D01*
X0160955Y0033326D02*
X0158222Y0033326D01*
X0158825Y0032540D02*
X0160923Y0032540D01*
X0161981Y0038042D02*
X0072708Y0038042D01*
X0073493Y0038828D02*
X0092100Y0038828D01*
X0091651Y0039613D02*
X0073628Y0039613D01*
X0075823Y0040399D02*
X0091651Y0040399D01*
X0091651Y0041185D02*
X0089621Y0041185D01*
X0103838Y0038828D02*
X0130850Y0038828D01*
X0122958Y0039613D02*
X0111730Y0039613D01*
X0112122Y0040399D02*
X0122566Y0040399D01*
X0122566Y0041185D02*
X0112122Y0041185D01*
X0112394Y0041971D02*
X0122566Y0041971D01*
X0122566Y0042757D02*
X0121625Y0042757D01*
X0119313Y0042757D02*
X0113180Y0042757D01*
X0106978Y0050825D02*
X0077711Y0050825D01*
X0076825Y0051710D01*
X0075945Y0052075D01*
X0061691Y0052075D01*
X0062329Y0052712D01*
X0062329Y0059150D01*
X0061798Y0059681D01*
X0062329Y0060212D01*
X0062329Y0066650D01*
X0062013Y0066966D01*
X0062013Y0067287D01*
X0078090Y0067287D01*
X0078557Y0066820D01*
X0079798Y0066306D01*
X0081140Y0066306D01*
X0082381Y0066820D01*
X0083330Y0067769D01*
X0083844Y0069010D01*
X0083844Y0070352D01*
X0083330Y0071593D01*
X0083273Y0071650D01*
X0084810Y0071650D01*
X0084810Y0071462D01*
X0085744Y0070528D01*
X0091395Y0070528D01*
X0091719Y0070852D01*
X0092043Y0070528D01*
X0096385Y0070528D01*
X0096385Y0068923D01*
X0097319Y0067989D01*
X0106119Y0067989D01*
X0107053Y0068923D01*
X0107053Y0072287D01*
X0107566Y0072287D01*
X0107566Y0071255D01*
X0107891Y0070931D01*
X0107566Y0070607D01*
X0107566Y0064956D01*
X0108466Y0064056D01*
X0107566Y0063156D01*
X0107566Y0057505D01*
X0107891Y0057181D01*
X0107566Y0056857D01*
X0107566Y0051414D01*
X0107190Y0051037D01*
X0106978Y0050825D01*
X0107555Y0051402D02*
X0077133Y0051402D01*
X0062329Y0052974D02*
X0107566Y0052974D01*
X0107566Y0053760D02*
X0062329Y0053760D01*
X0062329Y0054546D02*
X0107566Y0054546D01*
X0107566Y0055332D02*
X0062329Y0055332D01*
X0062329Y0056118D02*
X0107566Y0056118D01*
X0107613Y0056904D02*
X0062329Y0056904D01*
X0062329Y0057689D02*
X0107566Y0057689D01*
X0107566Y0058475D02*
X0062329Y0058475D01*
X0062218Y0059261D02*
X0107566Y0059261D01*
X0107566Y0060047D02*
X0062164Y0060047D01*
X0062329Y0060833D02*
X0107566Y0060833D01*
X0107566Y0061619D02*
X0062329Y0061619D01*
X0062329Y0062405D02*
X0107566Y0062405D01*
X0107601Y0063191D02*
X0062329Y0063191D01*
X0062329Y0063977D02*
X0108387Y0063977D01*
X0107760Y0064763D02*
X0062329Y0064763D01*
X0062329Y0065549D02*
X0107566Y0065549D01*
X0107566Y0066334D02*
X0081208Y0066334D01*
X0079730Y0066334D02*
X0062329Y0066334D01*
X0062013Y0067120D02*
X0078257Y0067120D01*
X0082681Y0067120D02*
X0107566Y0067120D01*
X0107566Y0067906D02*
X0083387Y0067906D01*
X0083712Y0068692D02*
X0096616Y0068692D01*
X0096385Y0069478D02*
X0083844Y0069478D01*
X0083844Y0070264D02*
X0096385Y0070264D01*
X0098628Y0077075D02*
X0098628Y0077900D01*
X0098539Y0077989D01*
X0106119Y0077989D01*
X0107053Y0078923D01*
X0107053Y0085440D01*
X0106119Y0086373D01*
X0097319Y0086373D01*
X0096385Y0085440D01*
X0096385Y0078923D01*
X0096474Y0078834D01*
X0092043Y0078834D01*
X0091719Y0078510D01*
X0091395Y0078834D01*
X0087250Y0078834D01*
X0087250Y0081778D01*
X0086316Y0082712D01*
X0084385Y0082712D01*
X0086825Y0085152D01*
X0087498Y0085825D01*
X0087863Y0086705D01*
X0087863Y0090272D01*
X0088688Y0090272D01*
X0089622Y0091206D01*
X0089622Y0096857D01*
X0089298Y0097181D01*
X0089622Y0097505D01*
X0089622Y0103156D01*
X0088688Y0104090D01*
X0087863Y0104090D01*
X0087863Y0113690D01*
X0096461Y0122287D01*
X0171978Y0122287D01*
X0178075Y0116190D01*
X0178075Y0110340D01*
X0177250Y0110340D01*
X0176316Y0109406D01*
X0176316Y0103755D01*
X0176641Y0103431D01*
X0176316Y0103107D01*
X0176316Y0097456D01*
X0177250Y0096522D01*
X0177675Y0096522D01*
X0177675Y0090612D01*
X0177694Y0090566D01*
X0177694Y0086176D01*
X0178628Y0085243D01*
X0182310Y0085243D01*
X0182969Y0085902D01*
X0183628Y0085243D01*
X0187310Y0085243D01*
X0187969Y0085902D01*
X0188075Y0085795D01*
X0188075Y0085455D01*
X0188440Y0084575D01*
X0189690Y0083325D01*
X0190363Y0082652D01*
X0191243Y0082287D01*
X0196825Y0082287D01*
X0196825Y0076619D01*
X0193628Y0076619D01*
X0192969Y0075961D01*
X0192310Y0076619D01*
X0188628Y0076619D01*
X0187694Y0075686D01*
X0187694Y0065704D01*
X0188628Y0064770D01*
X0192310Y0064770D01*
X0192969Y0065429D01*
X0193075Y0065323D01*
X0193075Y0058173D01*
X0190728Y0055825D01*
X0172991Y0055825D01*
X0173372Y0056206D01*
X0173372Y0061857D01*
X0172438Y0062791D01*
X0166000Y0062791D01*
X0165833Y0062623D01*
X0157319Y0062623D01*
X0156385Y0061690D01*
X0156385Y0060825D01*
X0156243Y0060825D01*
X0155363Y0060460D01*
X0154690Y0059787D01*
X0153228Y0058325D01*
X0152310Y0058325D01*
X0152594Y0059010D01*
X0152594Y0060352D01*
X0152080Y0061593D01*
X0151613Y0062060D01*
X0151613Y0074496D01*
X0151719Y0074602D01*
X0152043Y0074278D01*
X0152475Y0074278D01*
X0152475Y0071055D01*
X0152839Y0070176D01*
X0153513Y0069502D01*
X0156385Y0066630D01*
X0156385Y0065173D01*
X0157319Y0064239D01*
X0166119Y0064239D01*
X0167053Y0065173D01*
X0167053Y0071690D01*
X0166119Y0072623D01*
X0157319Y0072623D01*
X0157262Y0072567D01*
X0157262Y0074278D01*
X0157694Y0074278D01*
X0158628Y0075212D01*
X0158628Y0081650D01*
X0157694Y0082584D01*
X0152201Y0082584D01*
X0152329Y0082712D01*
X0152329Y0089150D01*
X0151798Y0089681D01*
X0152329Y0090212D01*
X0152329Y0096650D01*
X0151395Y0097584D01*
X0145744Y0097584D01*
X0144810Y0096650D01*
X0144810Y0093017D01*
X0144121Y0093706D01*
X0137683Y0093706D01*
X0136749Y0092772D01*
X0136749Y0089090D01*
X0137408Y0088431D01*
X0136749Y0087772D01*
X0136749Y0084286D01*
X0136613Y0084423D01*
X0136613Y0094022D01*
X0137438Y0094022D01*
X0138372Y0094956D01*
X0138372Y0096037D01*
X0143445Y0096037D01*
X0144325Y0096402D01*
X0144998Y0097075D01*
X0146248Y0098325D01*
X0146480Y0098885D01*
X0147832Y0098885D01*
X0148766Y0099818D01*
X0148766Y0107044D01*
X0147832Y0107978D01*
X0140606Y0107978D01*
X0139673Y0107044D01*
X0139673Y0100825D01*
X0138154Y0100825D01*
X0138048Y0100931D01*
X0138372Y0101255D01*
X0138372Y0106906D01*
X0137438Y0107840D01*
X0131000Y0107840D01*
X0130066Y0106906D01*
X0130066Y0106474D01*
X0128372Y0106474D01*
X0128372Y0106906D01*
X0127438Y0107840D01*
X0121000Y0107840D01*
X0120066Y0106906D01*
X0120066Y0101255D01*
X0121000Y0100322D01*
X0126825Y0100322D01*
X0126825Y0090673D01*
X0124478Y0088325D01*
X0123636Y0088325D01*
X0123530Y0088431D01*
X0124189Y0089090D01*
X0124189Y0092772D01*
X0123255Y0093706D01*
X0116817Y0093706D01*
X0115883Y0092772D01*
X0115883Y0089090D01*
X0116542Y0088431D01*
X0115883Y0087772D01*
X0115883Y0084090D01*
X0116542Y0083431D01*
X0116436Y0083325D01*
X0115872Y0083325D01*
X0115872Y0084357D01*
X0114938Y0085291D01*
X0108500Y0085291D01*
X0107566Y0084357D01*
X0107566Y0078706D01*
X0108466Y0077806D01*
X0107735Y0077075D01*
X0098628Y0077075D01*
X0098628Y0077337D02*
X0107997Y0077337D01*
X0108149Y0078123D02*
X0106254Y0078123D01*
X0107040Y0078909D02*
X0107566Y0078909D01*
X0107566Y0079695D02*
X0107053Y0079695D01*
X0107053Y0080481D02*
X0107566Y0080481D01*
X0107566Y0081267D02*
X0107053Y0081267D01*
X0107053Y0082053D02*
X0107566Y0082053D01*
X0107566Y0082839D02*
X0107053Y0082839D01*
X0107053Y0083625D02*
X0107566Y0083625D01*
X0107620Y0084410D02*
X0107053Y0084410D01*
X0107053Y0085196D02*
X0108406Y0085196D01*
X0106510Y0085982D02*
X0115883Y0085982D01*
X0115883Y0085196D02*
X0115032Y0085196D01*
X0115818Y0084410D02*
X0115883Y0084410D01*
X0115872Y0083625D02*
X0116349Y0083625D01*
X0115883Y0086768D02*
X0087863Y0086768D01*
X0087863Y0087554D02*
X0115883Y0087554D01*
X0116451Y0088340D02*
X0087863Y0088340D01*
X0087863Y0089126D02*
X0115883Y0089126D01*
X0115883Y0089912D02*
X0087863Y0089912D01*
X0089114Y0090698D02*
X0115883Y0090698D01*
X0115883Y0091484D02*
X0089622Y0091484D01*
X0089622Y0092270D02*
X0115883Y0092270D01*
X0116167Y0093056D02*
X0089622Y0093056D01*
X0089622Y0093841D02*
X0126825Y0093841D01*
X0126825Y0093056D02*
X0123906Y0093056D01*
X0124189Y0092270D02*
X0126825Y0092270D01*
X0126825Y0091484D02*
X0124189Y0091484D01*
X0124189Y0090698D02*
X0126825Y0090698D01*
X0126065Y0089912D02*
X0124189Y0089912D01*
X0124189Y0089126D02*
X0125279Y0089126D01*
X0124493Y0088340D02*
X0123621Y0088340D01*
X0128120Y0085196D02*
X0131825Y0085196D01*
X0131825Y0084410D02*
X0127334Y0084410D01*
X0126825Y0083902D02*
X0130575Y0087652D01*
X0131248Y0088325D01*
X0131613Y0089205D01*
X0131613Y0094022D01*
X0131825Y0094022D01*
X0131825Y0082955D01*
X0132190Y0082075D01*
X0132863Y0081402D01*
X0135363Y0078902D01*
X0136243Y0078537D01*
X0137302Y0078537D01*
X0137408Y0078431D01*
X0136749Y0077772D01*
X0136749Y0074090D01*
X0137683Y0073156D01*
X0138509Y0073156D01*
X0138509Y0068962D01*
X0137122Y0068962D01*
X0136188Y0068028D01*
X0136188Y0058834D01*
X0136698Y0058325D01*
X0123579Y0058325D01*
X0123579Y0064150D01*
X0123048Y0064681D01*
X0123579Y0065212D01*
X0123579Y0071650D01*
X0122645Y0072584D01*
X0122613Y0072584D01*
X0122613Y0073156D01*
X0123255Y0073156D01*
X0124189Y0074090D01*
X0124189Y0077772D01*
X0123530Y0078431D01*
X0124189Y0079090D01*
X0124189Y0082772D01*
X0123530Y0083431D01*
X0123636Y0083537D01*
X0125945Y0083537D01*
X0126825Y0083902D01*
X0126156Y0083625D02*
X0131825Y0083625D01*
X0131874Y0082839D02*
X0124123Y0082839D01*
X0124189Y0082053D02*
X0132212Y0082053D01*
X0132998Y0081267D02*
X0124189Y0081267D01*
X0124189Y0080481D02*
X0133784Y0080481D01*
X0134570Y0079695D02*
X0124189Y0079695D01*
X0124008Y0078909D02*
X0135356Y0078909D01*
X0137100Y0078123D02*
X0123838Y0078123D01*
X0124189Y0077337D02*
X0136749Y0077337D01*
X0136749Y0076551D02*
X0124189Y0076551D01*
X0124189Y0075765D02*
X0136749Y0075765D01*
X0136749Y0074980D02*
X0124189Y0074980D01*
X0124189Y0074194D02*
X0136749Y0074194D01*
X0137432Y0073408D02*
X0123507Y0073408D01*
X0122613Y0072622D02*
X0138509Y0072622D01*
X0138509Y0071836D02*
X0123393Y0071836D01*
X0123579Y0071050D02*
X0138509Y0071050D01*
X0138509Y0070264D02*
X0123579Y0070264D01*
X0123579Y0069478D02*
X0138509Y0069478D01*
X0136852Y0068692D02*
X0123579Y0068692D01*
X0123579Y0067906D02*
X0136188Y0067906D01*
X0136188Y0067120D02*
X0123579Y0067120D01*
X0123579Y0066334D02*
X0136188Y0066334D01*
X0136188Y0065549D02*
X0123579Y0065549D01*
X0123129Y0064763D02*
X0136188Y0064763D01*
X0136188Y0063977D02*
X0123579Y0063977D01*
X0123579Y0063191D02*
X0136188Y0063191D01*
X0136188Y0062405D02*
X0123579Y0062405D01*
X0123579Y0061619D02*
X0136188Y0061619D01*
X0136188Y0060833D02*
X0123579Y0060833D01*
X0123579Y0060047D02*
X0136188Y0060047D01*
X0136188Y0059261D02*
X0123579Y0059261D01*
X0123579Y0058475D02*
X0136547Y0058475D01*
X0151613Y0062405D02*
X0157101Y0062405D01*
X0156385Y0061619D02*
X0152054Y0061619D01*
X0152395Y0060833D02*
X0156385Y0060833D01*
X0154950Y0060047D02*
X0152594Y0060047D01*
X0152594Y0059261D02*
X0154164Y0059261D01*
X0153378Y0058475D02*
X0152373Y0058475D01*
X0151613Y0063191D02*
X0193075Y0063191D01*
X0193075Y0063977D02*
X0151613Y0063977D01*
X0151613Y0064763D02*
X0156795Y0064763D01*
X0156385Y0065549D02*
X0151613Y0065549D01*
X0151613Y0066334D02*
X0156385Y0066334D01*
X0155895Y0067120D02*
X0151613Y0067120D01*
X0151613Y0067906D02*
X0155109Y0067906D01*
X0154323Y0068692D02*
X0151613Y0068692D01*
X0151613Y0069478D02*
X0153537Y0069478D01*
X0152803Y0070264D02*
X0151613Y0070264D01*
X0151613Y0071050D02*
X0152477Y0071050D01*
X0152475Y0071836D02*
X0151613Y0071836D01*
X0151613Y0072622D02*
X0152475Y0072622D01*
X0152475Y0073408D02*
X0151613Y0073408D01*
X0151613Y0074194D02*
X0152475Y0074194D01*
X0157262Y0074194D02*
X0168816Y0074194D01*
X0168816Y0074980D02*
X0158395Y0074980D01*
X0158628Y0075765D02*
X0168975Y0075765D01*
X0168816Y0075607D02*
X0168816Y0069956D01*
X0169750Y0069022D01*
X0176188Y0069022D01*
X0177122Y0069956D01*
X0177122Y0069988D01*
X0177694Y0069988D01*
X0177694Y0065704D01*
X0178628Y0064770D01*
X0182310Y0064770D01*
X0183244Y0065704D01*
X0183244Y0070094D01*
X0183263Y0070139D01*
X0183263Y0073337D01*
X0183244Y0073383D01*
X0183244Y0075686D01*
X0182310Y0076619D01*
X0178628Y0076619D01*
X0177694Y0075686D01*
X0177694Y0075575D01*
X0177122Y0075575D01*
X0177122Y0075607D01*
X0176188Y0076541D01*
X0169750Y0076541D01*
X0168816Y0075607D01*
X0168816Y0073408D02*
X0157262Y0073408D01*
X0157262Y0072622D02*
X0157317Y0072622D01*
X0158628Y0076551D02*
X0178560Y0076551D01*
X0177774Y0075765D02*
X0176963Y0075765D01*
X0182378Y0076551D02*
X0188560Y0076551D01*
X0187774Y0075765D02*
X0183164Y0075765D01*
X0183244Y0074980D02*
X0187694Y0074980D01*
X0187694Y0074194D02*
X0183244Y0074194D01*
X0183244Y0073408D02*
X0187694Y0073408D01*
X0187694Y0072622D02*
X0183263Y0072622D01*
X0183263Y0071836D02*
X0187694Y0071836D01*
X0187694Y0071050D02*
X0183263Y0071050D01*
X0183263Y0070264D02*
X0187694Y0070264D01*
X0187694Y0069478D02*
X0183244Y0069478D01*
X0183244Y0068692D02*
X0187694Y0068692D01*
X0187694Y0067906D02*
X0183244Y0067906D01*
X0183244Y0067120D02*
X0187694Y0067120D01*
X0187694Y0066334D02*
X0183244Y0066334D01*
X0183088Y0065549D02*
X0187850Y0065549D01*
X0193075Y0064763D02*
X0166643Y0064763D01*
X0167053Y0065549D02*
X0177850Y0065549D01*
X0177694Y0066334D02*
X0167053Y0066334D01*
X0167053Y0067120D02*
X0177694Y0067120D01*
X0177694Y0067906D02*
X0167053Y0067906D01*
X0167053Y0068692D02*
X0177694Y0068692D01*
X0177694Y0069478D02*
X0176644Y0069478D01*
X0169294Y0069478D02*
X0167053Y0069478D01*
X0167053Y0070264D02*
X0168816Y0070264D01*
X0168816Y0071050D02*
X0167053Y0071050D01*
X0166907Y0071836D02*
X0168816Y0071836D01*
X0168816Y0072622D02*
X0166121Y0072622D01*
X0158628Y0077337D02*
X0196825Y0077337D01*
X0196825Y0078123D02*
X0158628Y0078123D01*
X0158628Y0078909D02*
X0196825Y0078909D01*
X0196825Y0079695D02*
X0158628Y0079695D01*
X0158628Y0080481D02*
X0196825Y0080481D01*
X0196825Y0081267D02*
X0158628Y0081267D01*
X0158225Y0082053D02*
X0196825Y0082053D01*
X0193560Y0076551D02*
X0192378Y0076551D01*
X0190176Y0082839D02*
X0152329Y0082839D01*
X0152329Y0083625D02*
X0189390Y0083625D01*
X0188605Y0084410D02*
X0152329Y0084410D01*
X0152329Y0085196D02*
X0188183Y0085196D01*
X0177889Y0085982D02*
X0152329Y0085982D01*
X0152329Y0086768D02*
X0177694Y0086768D01*
X0177694Y0087554D02*
X0152329Y0087554D01*
X0152329Y0088340D02*
X0177694Y0088340D01*
X0177694Y0089126D02*
X0152329Y0089126D01*
X0152029Y0089912D02*
X0177694Y0089912D01*
X0177675Y0090698D02*
X0152329Y0090698D01*
X0152329Y0091484D02*
X0177675Y0091484D01*
X0177675Y0092270D02*
X0152329Y0092270D01*
X0152329Y0093056D02*
X0177675Y0093056D01*
X0177675Y0093841D02*
X0152329Y0093841D01*
X0152329Y0094627D02*
X0177675Y0094627D01*
X0177675Y0095413D02*
X0152329Y0095413D01*
X0152329Y0096199D02*
X0177675Y0096199D01*
X0176787Y0096985D02*
X0151994Y0096985D01*
X0148290Y0099343D02*
X0176316Y0099343D01*
X0176316Y0100129D02*
X0148766Y0100129D01*
X0148766Y0100915D02*
X0176316Y0100915D01*
X0176316Y0101701D02*
X0148766Y0101701D01*
X0148766Y0102486D02*
X0176316Y0102486D01*
X0176482Y0103272D02*
X0148766Y0103272D01*
X0148766Y0104058D02*
X0176316Y0104058D01*
X0176316Y0104844D02*
X0148766Y0104844D01*
X0148766Y0105630D02*
X0176316Y0105630D01*
X0176316Y0106416D02*
X0148766Y0106416D01*
X0148608Y0107202D02*
X0176316Y0107202D01*
X0176316Y0107988D02*
X0087863Y0107988D01*
X0087863Y0108774D02*
X0176316Y0108774D01*
X0176470Y0109560D02*
X0087863Y0109560D01*
X0087863Y0110346D02*
X0178075Y0110346D01*
X0178075Y0111132D02*
X0087863Y0111132D01*
X0087863Y0111917D02*
X0178075Y0111917D01*
X0178075Y0112703D02*
X0087863Y0112703D01*
X0087863Y0113489D02*
X0178075Y0113489D01*
X0178075Y0114275D02*
X0088448Y0114275D01*
X0089234Y0115061D02*
X0178075Y0115061D01*
X0178075Y0115847D02*
X0090020Y0115847D01*
X0090806Y0116633D02*
X0177632Y0116633D01*
X0176846Y0117419D02*
X0091592Y0117419D01*
X0092378Y0118205D02*
X0176060Y0118205D01*
X0175274Y0118991D02*
X0093164Y0118991D01*
X0093950Y0119777D02*
X0174488Y0119777D01*
X0173703Y0120562D02*
X0094736Y0120562D01*
X0095522Y0121348D02*
X0172917Y0121348D01*
X0172131Y0122134D02*
X0096308Y0122134D01*
X0092681Y0125278D02*
X0065363Y0125278D01*
X0065363Y0126064D02*
X0093467Y0126064D01*
X0094450Y0126850D02*
X0065363Y0126850D01*
X0065363Y0124492D02*
X0091895Y0124492D01*
X0091109Y0123706D02*
X0065363Y0123706D01*
X0065363Y0122920D02*
X0090323Y0122920D01*
X0089537Y0122134D02*
X0065363Y0122134D01*
X0065363Y0121348D02*
X0088751Y0121348D01*
X0087965Y0120562D02*
X0065363Y0120562D01*
X0065363Y0119777D02*
X0087179Y0119777D01*
X0086394Y0118991D02*
X0065274Y0118991D01*
X0064878Y0118205D02*
X0085608Y0118205D01*
X0084822Y0117419D02*
X0064092Y0117419D01*
X0063362Y0116633D02*
X0084036Y0116633D01*
X0083361Y0115847D02*
X0063362Y0115847D01*
X0063362Y0115061D02*
X0083075Y0115061D01*
X0083075Y0114275D02*
X0063362Y0114275D01*
X0063362Y0113489D02*
X0083075Y0113489D01*
X0083075Y0112703D02*
X0063362Y0112703D01*
X0063362Y0111917D02*
X0083075Y0111917D01*
X0083075Y0111132D02*
X0063362Y0111132D01*
X0063362Y0110346D02*
X0083075Y0110346D01*
X0083075Y0109560D02*
X0063300Y0109560D01*
X0062514Y0108774D02*
X0083075Y0108774D01*
X0083075Y0107988D02*
X0062329Y0107988D01*
X0062329Y0107202D02*
X0083075Y0107202D01*
X0083075Y0106416D02*
X0062329Y0106416D01*
X0062329Y0105630D02*
X0083075Y0105630D01*
X0083075Y0104844D02*
X0062329Y0104844D01*
X0062329Y0104058D02*
X0082219Y0104058D01*
X0081433Y0103272D02*
X0062329Y0103272D01*
X0062103Y0102486D02*
X0081316Y0102486D01*
X0081316Y0101701D02*
X0056613Y0101701D01*
X0056613Y0100915D02*
X0071575Y0100915D01*
X0071316Y0100129D02*
X0056613Y0100129D01*
X0056613Y0099343D02*
X0057129Y0099343D01*
X0061309Y0099343D02*
X0071316Y0099343D01*
X0071316Y0098557D02*
X0061994Y0098557D01*
X0061994Y0097771D02*
X0071316Y0097771D01*
X0071316Y0096985D02*
X0061994Y0096985D01*
X0061994Y0096199D02*
X0071316Y0096199D01*
X0071316Y0095413D02*
X0061994Y0095413D01*
X0061994Y0094627D02*
X0062837Y0094627D01*
X0070602Y0094627D02*
X0071587Y0094627D01*
X0079622Y0100129D02*
X0081316Y0100129D01*
X0081316Y0100915D02*
X0079363Y0100915D01*
X0080443Y0099343D02*
X0081316Y0099343D01*
X0081316Y0098557D02*
X0081229Y0098557D01*
X0089622Y0098557D02*
X0126825Y0098557D01*
X0126825Y0099343D02*
X0089622Y0099343D01*
X0089622Y0100129D02*
X0126825Y0100129D01*
X0126825Y0097771D02*
X0089622Y0097771D01*
X0089494Y0096985D02*
X0126825Y0096985D01*
X0126825Y0096199D02*
X0089622Y0096199D01*
X0089622Y0095413D02*
X0126825Y0095413D01*
X0126825Y0094627D02*
X0089622Y0094627D01*
X0089622Y0100915D02*
X0120407Y0100915D01*
X0120066Y0101701D02*
X0089622Y0101701D01*
X0089622Y0102486D02*
X0120066Y0102486D01*
X0120066Y0103272D02*
X0089506Y0103272D01*
X0088720Y0104058D02*
X0120066Y0104058D01*
X0120066Y0104844D02*
X0087863Y0104844D01*
X0087863Y0105630D02*
X0120066Y0105630D01*
X0120066Y0106416D02*
X0087863Y0106416D01*
X0087863Y0107202D02*
X0120362Y0107202D01*
X0128076Y0107202D02*
X0130362Y0107202D01*
X0138076Y0107202D02*
X0139831Y0107202D01*
X0139673Y0106416D02*
X0138372Y0106416D01*
X0138372Y0105630D02*
X0139673Y0105630D01*
X0139673Y0104844D02*
X0138372Y0104844D01*
X0138372Y0104058D02*
X0139673Y0104058D01*
X0139673Y0103272D02*
X0138372Y0103272D01*
X0138372Y0102486D02*
X0139673Y0102486D01*
X0139673Y0101701D02*
X0138372Y0101701D01*
X0138064Y0100915D02*
X0139673Y0100915D01*
X0143836Y0096199D02*
X0144810Y0096199D01*
X0144810Y0095413D02*
X0138372Y0095413D01*
X0138043Y0094627D02*
X0144810Y0094627D01*
X0144810Y0093841D02*
X0136613Y0093841D01*
X0136613Y0093056D02*
X0137033Y0093056D01*
X0136749Y0092270D02*
X0136613Y0092270D01*
X0136613Y0091484D02*
X0136749Y0091484D01*
X0136749Y0090698D02*
X0136613Y0090698D01*
X0136613Y0089912D02*
X0136749Y0089912D01*
X0136749Y0089126D02*
X0136613Y0089126D01*
X0136613Y0088340D02*
X0137317Y0088340D01*
X0136749Y0087554D02*
X0136613Y0087554D01*
X0136613Y0086768D02*
X0136749Y0086768D01*
X0136749Y0085982D02*
X0136613Y0085982D01*
X0136613Y0085196D02*
X0136749Y0085196D01*
X0136749Y0084410D02*
X0136625Y0084410D01*
X0131825Y0085982D02*
X0128906Y0085982D01*
X0129691Y0086768D02*
X0131825Y0086768D01*
X0131825Y0087554D02*
X0130477Y0087554D01*
X0131255Y0088340D02*
X0131825Y0088340D01*
X0131825Y0089126D02*
X0131580Y0089126D01*
X0131613Y0089912D02*
X0131825Y0089912D01*
X0131825Y0090698D02*
X0131613Y0090698D01*
X0131613Y0091484D02*
X0131825Y0091484D01*
X0131825Y0092270D02*
X0131613Y0092270D01*
X0131613Y0093056D02*
X0131825Y0093056D01*
X0131825Y0093841D02*
X0131613Y0093841D01*
X0144772Y0093056D02*
X0144810Y0093056D01*
X0144908Y0096985D02*
X0145145Y0096985D01*
X0145694Y0097771D02*
X0176316Y0097771D01*
X0176316Y0098557D02*
X0146344Y0098557D01*
X0184622Y0100129D02*
X0184810Y0100129D01*
X0184810Y0100915D02*
X0184622Y0100915D01*
X0184622Y0101701D02*
X0184810Y0101701D01*
X0184810Y0102486D02*
X0184622Y0102486D01*
X0184456Y0103272D02*
X0185183Y0103272D01*
X0184810Y0104058D02*
X0184622Y0104058D01*
X0184622Y0104844D02*
X0184810Y0104844D01*
X0184810Y0105630D02*
X0184622Y0105630D01*
X0184622Y0106416D02*
X0184810Y0106416D01*
X0184810Y0107202D02*
X0184622Y0107202D01*
X0184622Y0107988D02*
X0184810Y0107988D01*
X0184810Y0108774D02*
X0184622Y0108774D01*
X0184468Y0109560D02*
X0184810Y0109560D01*
X0184810Y0110346D02*
X0182863Y0110346D01*
X0182863Y0111132D02*
X0185542Y0111132D01*
X0192417Y0096985D02*
X0193521Y0096985D01*
X0193075Y0062405D02*
X0172824Y0062405D01*
X0173372Y0061619D02*
X0193075Y0061619D01*
X0193075Y0060833D02*
X0173372Y0060833D01*
X0173372Y0060047D02*
X0193075Y0060047D01*
X0193075Y0059261D02*
X0173372Y0059261D01*
X0173372Y0058475D02*
X0193075Y0058475D01*
X0192592Y0057689D02*
X0173372Y0057689D01*
X0173372Y0056904D02*
X0191806Y0056904D01*
X0191020Y0056118D02*
X0173284Y0056118D01*
X0180578Y0045901D02*
X0211592Y0045901D01*
X0211592Y0045115D02*
X0181079Y0045115D01*
X0181079Y0044329D02*
X0211592Y0044329D01*
X0211592Y0043543D02*
X0181079Y0043543D01*
X0181079Y0042757D02*
X0211592Y0042757D01*
X0211592Y0041971D02*
X0181079Y0041971D01*
X0181079Y0041185D02*
X0211592Y0041185D01*
X0211592Y0040399D02*
X0181079Y0040399D01*
X0181079Y0039613D02*
X0211592Y0039613D01*
X0211592Y0038828D02*
X0180944Y0038828D01*
X0180158Y0038042D02*
X0211592Y0038042D01*
X0211592Y0037256D02*
X0022260Y0037256D01*
X0022260Y0038042D02*
X0054530Y0038042D01*
X0060208Y0038042D02*
X0060731Y0038042D01*
X0065491Y0034112D02*
X0022647Y0034112D01*
X0022902Y0033326D02*
X0064705Y0033326D01*
X0064673Y0032540D02*
X0023158Y0032540D01*
X0023489Y0031754D02*
X0064673Y0031754D01*
X0064673Y0030968D02*
X0024060Y0030968D01*
X0024631Y0030182D02*
X0064673Y0030182D01*
X0064673Y0029397D02*
X0025208Y0029397D01*
X0026290Y0028611D02*
X0064673Y0028611D01*
X0064673Y0027825D02*
X0027372Y0027825D01*
X0029347Y0027039D02*
X0064673Y0027039D01*
X0066408Y0038042D02*
X0067030Y0038042D01*
X0061805Y0052188D02*
X0107566Y0052188D01*
X0107566Y0068692D02*
X0106823Y0068692D01*
X0107053Y0069478D02*
X0107566Y0069478D01*
X0107566Y0070264D02*
X0107053Y0070264D01*
X0107053Y0071050D02*
X0107772Y0071050D01*
X0107566Y0071836D02*
X0107053Y0071836D01*
X0096399Y0078909D02*
X0087250Y0078909D01*
X0087250Y0079695D02*
X0096385Y0079695D01*
X0096385Y0080481D02*
X0087250Y0080481D01*
X0087250Y0081267D02*
X0096385Y0081267D01*
X0096385Y0082053D02*
X0086975Y0082053D01*
X0085298Y0083625D02*
X0096385Y0083625D01*
X0096385Y0084410D02*
X0086084Y0084410D01*
X0086870Y0085196D02*
X0096385Y0085196D01*
X0096928Y0085982D02*
X0087564Y0085982D01*
X0084512Y0082839D02*
X0096385Y0082839D01*
X0085222Y0071050D02*
X0083555Y0071050D01*
X0051825Y0078909D02*
X0051271Y0078909D01*
X0047168Y0078909D02*
X0046271Y0078909D01*
X0053560Y0118205D02*
X0022260Y0118205D01*
X0028682Y0136281D02*
X0205169Y0136281D01*
X0174481Y0038042D02*
X0173958Y0038042D01*
X0169198Y0034112D02*
X0211205Y0034112D01*
X0211460Y0034898D02*
X0022392Y0034898D01*
X0022323Y0035684D02*
X0211528Y0035684D01*
X0211590Y0036470D02*
X0022261Y0036470D01*
X0167658Y0038042D02*
X0168280Y0038042D01*
X0169983Y0033326D02*
X0210949Y0033326D01*
X0210694Y0032540D02*
X0170016Y0032540D01*
X0170016Y0031754D02*
X0210363Y0031754D01*
X0209792Y0030968D02*
X0170016Y0030968D01*
X0170016Y0030182D02*
X0209221Y0030182D01*
X0208643Y0029397D02*
X0170016Y0029397D01*
X0170016Y0028611D02*
X0207562Y0028611D01*
X0206480Y0027825D02*
X0170016Y0027825D01*
X0170016Y0027039D02*
X0204505Y0027039D01*
D22*
X0156719Y0037181D03*
X0146719Y0037181D03*
X0149219Y0048431D03*
X0149219Y0059681D03*
X0132969Y0060931D03*
X0132969Y0065931D03*
X0132969Y0070931D03*
X0132969Y0075931D03*
X0126719Y0075931D03*
X0120469Y0055931D03*
X0120469Y0045931D03*
X0120469Y0040931D03*
X0120469Y0035931D03*
X0114219Y0035931D03*
X0114219Y0040931D03*
X0114219Y0029681D03*
X0107969Y0029681D03*
X0120469Y0029681D03*
X0126719Y0029681D03*
X0087969Y0037181D03*
X0077969Y0037181D03*
X0075469Y0054681D03*
X0070469Y0054681D03*
X0070469Y0059681D03*
X0075469Y0059681D03*
X0075469Y0064681D03*
X0070469Y0064681D03*
X0080469Y0069681D03*
X0059219Y0080931D03*
X0054219Y0087181D03*
X0044219Y0085931D03*
X0037969Y0085931D03*
X0037969Y0092181D03*
X0037969Y0098431D03*
X0037969Y0104681D03*
X0070469Y0103431D03*
X0076719Y0103431D03*
X0076719Y0109681D03*
X0070469Y0109681D03*
X0080469Y0087181D03*
X0110469Y0095931D03*
X0116719Y0095931D03*
X0116719Y0100931D03*
X0110469Y0100931D03*
X0161719Y0093431D03*
X0167969Y0093431D03*
X0167969Y0085931D03*
X0161719Y0085931D03*
X0174219Y0085931D03*
X0180469Y0079681D03*
X0185469Y0079681D03*
X0190469Y0079681D03*
X0175469Y0065931D03*
X0181719Y0062181D03*
X0189219Y0062181D03*
X0200469Y0097181D03*
X0206719Y0097181D03*
X0206719Y0103431D03*
X0200469Y0103431D03*
X0200469Y0109681D03*
X0206719Y0109681D03*
D23*
X0190469Y0091167D02*
X0190469Y0085931D01*
X0191719Y0084681D01*
X0197969Y0084681D01*
X0199219Y0083431D01*
X0199219Y0057181D01*
X0192969Y0050931D01*
X0165440Y0050931D01*
X0158579Y0044071D01*
X0160469Y0042181D01*
X0164820Y0042181D01*
X0171119Y0042181D02*
X0177320Y0042181D01*
X0191719Y0053431D02*
X0195469Y0057181D01*
X0195469Y0070695D01*
X0191719Y0053431D02*
X0124219Y0053431D01*
X0122969Y0052181D01*
X0117969Y0052181D01*
X0116119Y0054031D01*
X0111719Y0054031D01*
X0109219Y0049681D02*
X0124219Y0049681D01*
X0126719Y0047181D01*
X0126719Y0042831D01*
X0120469Y0045931D02*
X0112969Y0045931D01*
X0109869Y0042831D01*
X0107969Y0042831D01*
X0107969Y0048431D02*
X0109219Y0049681D01*
X0107969Y0048431D02*
X0076719Y0048431D01*
X0075469Y0049681D01*
X0060469Y0049681D01*
X0058570Y0051581D01*
X0058570Y0055931D01*
X0049869Y0055931D02*
X0049869Y0049031D01*
X0051719Y0047181D01*
X0072999Y0047181D01*
X0076109Y0044071D01*
X0074219Y0042181D01*
X0069869Y0042181D01*
X0063570Y0042181D02*
X0057369Y0042181D01*
X0076109Y0044071D02*
X0082969Y0044071D01*
X0097969Y0044071D02*
X0097969Y0043087D01*
X0097969Y0042831D01*
X0082969Y0030291D02*
X0082967Y0030243D01*
X0082961Y0030196D01*
X0082952Y0030149D01*
X0082939Y0030102D01*
X0082923Y0030058D01*
X0082903Y0030014D01*
X0082879Y0029972D01*
X0082853Y0029932D01*
X0082823Y0029895D01*
X0082790Y0029860D01*
X0082755Y0029827D01*
X0082718Y0029797D01*
X0082678Y0029771D01*
X0082636Y0029747D01*
X0082592Y0029727D01*
X0082548Y0029711D01*
X0082501Y0029698D01*
X0082454Y0029689D01*
X0082407Y0029683D01*
X0082359Y0029681D01*
X0120469Y0055931D02*
X0120469Y0060281D01*
X0119820Y0060931D01*
X0120469Y0055931D02*
X0154219Y0055931D01*
X0156719Y0058431D01*
X0161719Y0058431D01*
X0161719Y0068431D02*
X0157969Y0068431D01*
X0154869Y0071531D01*
X0154869Y0078431D01*
X0149219Y0077781D02*
X0149219Y0059681D01*
X0141719Y0063431D02*
X0140902Y0064248D01*
X0140902Y0075931D01*
X0140902Y0080931D02*
X0136719Y0080931D01*
X0134219Y0083431D01*
X0134219Y0097781D01*
X0134869Y0098431D01*
X0142969Y0098431D01*
X0144219Y0099681D01*
X0144219Y0103431D01*
X0134219Y0104081D02*
X0129219Y0104081D01*
X0129219Y0089681D01*
X0125469Y0085931D01*
X0120036Y0085931D01*
X0120036Y0080931D02*
X0112320Y0080931D01*
X0111719Y0081531D01*
X0111719Y0074081D01*
X0111119Y0074681D01*
X0101719Y0074681D01*
X0101719Y0072181D01*
X0101719Y0074681D02*
X0094869Y0074681D01*
X0088570Y0074681D02*
X0084219Y0074681D01*
X0081719Y0077181D01*
X0079219Y0074681D01*
X0072369Y0074681D01*
X0066070Y0074681D02*
X0066070Y0075331D01*
X0060469Y0080931D01*
X0059219Y0080931D01*
X0057969Y0084681D02*
X0054219Y0080931D01*
X0054219Y0073195D01*
X0059219Y0069681D02*
X0080469Y0069681D01*
X0081719Y0083431D02*
X0072369Y0083431D01*
X0066070Y0083431D02*
X0066070Y0084081D01*
X0065469Y0084681D01*
X0057969Y0084681D01*
X0054219Y0087181D02*
X0054219Y0093667D01*
X0054219Y0103431D01*
X0056719Y0105931D01*
X0058570Y0105931D01*
X0050469Y0104681D02*
X0050469Y0112171D01*
X0051729Y0113431D01*
X0057969Y0113431D02*
X0057969Y0117181D01*
X0055469Y0119681D01*
X0055469Y0132181D01*
X0056719Y0133431D01*
X0061719Y0133431D01*
X0062969Y0132181D01*
X0062969Y0119681D01*
X0060469Y0117181D01*
X0060469Y0113431D01*
X0057969Y0113431D01*
X0057969Y0114198D02*
X0060469Y0114198D01*
X0060469Y0115796D02*
X0057969Y0115796D01*
X0057755Y0117395D02*
X0060683Y0117395D01*
X0062281Y0118993D02*
X0056157Y0118993D01*
X0055469Y0120592D02*
X0062969Y0120592D01*
X0062969Y0122190D02*
X0055469Y0122190D01*
X0055469Y0123789D02*
X0062969Y0123789D01*
X0062969Y0125387D02*
X0055469Y0125387D01*
X0055469Y0126986D02*
X0062969Y0126986D01*
X0062969Y0128584D02*
X0055469Y0128584D01*
X0055469Y0130183D02*
X0062969Y0130183D01*
X0062969Y0131781D02*
X0055469Y0131781D01*
X0056668Y0133380D02*
X0061770Y0133380D01*
X0085469Y0114681D02*
X0095469Y0124681D01*
X0172969Y0124681D01*
X0180469Y0117181D01*
X0180469Y0106581D01*
X0149219Y0077781D02*
X0148570Y0078431D01*
X0120036Y0075931D02*
X0119820Y0075715D01*
X0111719Y0067781D02*
X0111719Y0060331D01*
X0136719Y0044071D02*
X0136719Y0043087D01*
X0136719Y0042831D01*
X0149219Y0044071D02*
X0149219Y0048431D01*
X0151719Y0044071D02*
X0158579Y0044071D01*
X0151719Y0030291D02*
X0151719Y0029681D01*
X0085469Y0087181D02*
X0081719Y0083431D01*
X0080469Y0087181D02*
X0080469Y0095931D01*
X0078570Y0097831D01*
X0075469Y0097831D01*
X0075469Y0091531D02*
X0066719Y0091531D01*
X0059219Y0091531D01*
X0059219Y0093667D01*
X0049219Y0093667D02*
X0049219Y0102781D01*
X0049869Y0103431D01*
X0049869Y0104081D01*
X0050469Y0104681D01*
X0085469Y0100331D02*
X0085469Y0114681D01*
X0085469Y0094031D02*
X0085469Y0087181D01*
X0124219Y0104081D02*
X0129219Y0104081D01*
D24*
X0148570Y0093431D02*
X0148570Y0085931D01*
X0148570Y0078431D01*
X0148570Y0085931D02*
X0140902Y0085931D01*
X0119820Y0075715D02*
X0119820Y0068431D01*
X0119820Y0060931D01*
X0136719Y0044071D02*
X0149219Y0044071D01*
X0151719Y0044071D01*
X0136719Y0042831D02*
X0126719Y0042831D01*
X0107969Y0042831D02*
X0097969Y0042831D01*
X0097969Y0044071D02*
X0082969Y0044071D01*
X0082359Y0029681D02*
X0069219Y0029681D01*
X0058570Y0055931D02*
X0058570Y0063431D01*
X0059219Y0064081D01*
X0059219Y0069681D01*
X0059219Y0073195D01*
X0049219Y0073195D02*
X0049219Y0064081D01*
X0049869Y0063431D01*
X0049869Y0055931D01*
X0151719Y0029681D02*
X0165469Y0029681D01*
X0168619Y0058431D02*
X0161719Y0058431D01*
X0168619Y0058431D02*
X0169219Y0059031D01*
X0180469Y0070695D02*
X0180469Y0072781D01*
X0172969Y0072781D01*
X0180469Y0091167D02*
X0180469Y0100281D01*
X0185469Y0096581D02*
X0185469Y0091167D01*
X0190469Y0091167D01*
X0185469Y0096581D02*
X0188570Y0099681D01*
X0188570Y0107181D01*
D25*
X0144219Y0103431D03*
X0165469Y0029681D03*
X0069219Y0029681D03*
M02*
