G75*
%MOIN*%
%OFA0B0*%
%FSLAX25Y25*%
%IPPOS*%
%LPD*%
%AMOC8*
5,1,8,0,0,1.08239X$1,22.5*
%
%ADD10C,0.01100*%
%ADD11C,0.00800*%
D10*
X0062618Y0046522D02*
X0062618Y0050275D01*
X0063869Y0051526D01*
X0066371Y0051526D01*
X0067622Y0050275D01*
X0070536Y0051526D02*
X0074290Y0051526D01*
X0075541Y0050275D01*
X0075541Y0047773D01*
X0074290Y0046522D01*
X0070536Y0046522D01*
X0067622Y0046522D02*
X0067622Y0054028D01*
X0078249Y0047773D02*
X0078249Y0046522D01*
X0079500Y0046522D01*
X0079500Y0047773D01*
X0078249Y0047773D01*
X0082414Y0047773D02*
X0082414Y0050275D01*
X0083666Y0051526D01*
X0086168Y0051526D01*
X0087419Y0050275D01*
X0087419Y0047773D01*
X0086168Y0046522D01*
X0083666Y0046522D01*
X0082414Y0047773D01*
X0090264Y0046522D02*
X0094018Y0049024D01*
X0090264Y0051526D01*
X0094018Y0054028D02*
X0094018Y0046522D01*
X0096795Y0046522D02*
X0098046Y0047773D01*
X0098046Y0052777D01*
X0099297Y0051526D02*
X0096795Y0051526D01*
X0102211Y0052777D02*
X0103462Y0054028D01*
X0105965Y0054028D01*
X0107216Y0052777D01*
X0107216Y0051526D01*
X0105965Y0050275D01*
X0102211Y0050275D01*
X0102211Y0047773D02*
X0102211Y0052777D01*
X0110130Y0050275D02*
X0111381Y0051526D01*
X0115134Y0051526D01*
X0115134Y0054028D02*
X0115134Y0046522D01*
X0111381Y0046522D01*
X0110130Y0047773D01*
X0110130Y0050275D01*
X0107216Y0047773D02*
X0105965Y0046522D01*
X0103462Y0046522D01*
X0102211Y0047773D01*
X0118049Y0046522D02*
X0118049Y0050275D01*
X0119300Y0051526D01*
X0121802Y0051526D01*
X0123053Y0050275D01*
X0123053Y0054028D02*
X0123053Y0046522D01*
X0133886Y0050275D02*
X0138891Y0050275D01*
X0149724Y0051526D02*
X0149724Y0045271D01*
X0150975Y0044020D01*
X0152226Y0044020D01*
X0153477Y0046522D02*
X0149724Y0046522D01*
X0153477Y0046522D02*
X0154728Y0047773D01*
X0154728Y0051526D01*
X0157643Y0050275D02*
X0157643Y0046522D01*
X0161396Y0046522D01*
X0162647Y0047773D01*
X0161396Y0049024D01*
X0157643Y0049024D01*
X0157643Y0050275D02*
X0158894Y0051526D01*
X0161396Y0051526D01*
X0166675Y0054028D02*
X0166675Y0046522D01*
X0167926Y0046522D02*
X0165424Y0046522D01*
X0170841Y0047773D02*
X0172092Y0046522D01*
X0175845Y0046522D01*
X0175845Y0044020D02*
X0175845Y0051526D01*
X0172092Y0051526D01*
X0170841Y0050275D01*
X0170841Y0047773D01*
X0178759Y0047773D02*
X0180010Y0049024D01*
X0182513Y0049024D01*
X0183764Y0050275D01*
X0182513Y0051526D01*
X0178759Y0051526D01*
X0178759Y0047773D02*
X0180010Y0046522D01*
X0183764Y0046522D01*
X0186541Y0046522D02*
X0189043Y0046522D01*
X0187792Y0046522D02*
X0187792Y0051526D01*
X0189043Y0051526D01*
X0187792Y0054028D02*
X0187792Y0055279D01*
X0191957Y0052777D02*
X0193208Y0054028D01*
X0196962Y0054028D01*
X0196962Y0046522D01*
X0193208Y0046522D01*
X0191957Y0047773D01*
X0191957Y0052777D01*
X0207726Y0051526D02*
X0208977Y0051526D01*
X0211479Y0049024D01*
X0211479Y0046522D02*
X0211479Y0051526D01*
X0214394Y0050275D02*
X0214394Y0049024D01*
X0219398Y0049024D01*
X0219398Y0050275D02*
X0218147Y0051526D01*
X0215645Y0051526D01*
X0214394Y0050275D01*
X0215645Y0046522D02*
X0218147Y0046522D01*
X0219398Y0047773D01*
X0219398Y0050275D01*
X0222175Y0051526D02*
X0224677Y0051526D01*
X0223426Y0052777D02*
X0223426Y0047773D01*
X0222175Y0046522D01*
X0227592Y0049024D02*
X0232596Y0049024D01*
X0232596Y0050275D02*
X0231345Y0051526D01*
X0228843Y0051526D01*
X0227592Y0050275D01*
X0227592Y0049024D01*
X0228843Y0046522D02*
X0231345Y0046522D01*
X0232596Y0047773D01*
X0232596Y0050275D01*
X0235511Y0054028D02*
X0235511Y0046522D01*
X0240515Y0046522D02*
X0240515Y0054028D01*
X0238013Y0051526D01*
X0235511Y0054028D01*
X0243429Y0050275D02*
X0248434Y0050275D01*
X0251348Y0049024D02*
X0251348Y0047773D01*
X0252599Y0046522D01*
X0255101Y0046522D01*
X0256352Y0047773D01*
X0252599Y0050275D02*
X0251348Y0049024D01*
X0252599Y0050275D02*
X0255101Y0050275D01*
X0256352Y0051526D01*
X0256352Y0052777D01*
X0255101Y0054028D01*
X0252599Y0054028D01*
X0251348Y0052777D01*
X0267186Y0050275D02*
X0272190Y0050275D01*
X0282954Y0051526D02*
X0284205Y0051526D01*
X0286708Y0049024D01*
X0286708Y0046522D02*
X0286708Y0051526D01*
X0289622Y0050275D02*
X0289622Y0049024D01*
X0294626Y0049024D01*
X0294626Y0047773D02*
X0294626Y0050275D01*
X0293375Y0051526D01*
X0290873Y0051526D01*
X0289622Y0050275D01*
X0290873Y0046522D02*
X0293375Y0046522D01*
X0294626Y0047773D01*
X0297403Y0046522D02*
X0299905Y0046522D01*
X0298654Y0046522D02*
X0298654Y0054028D01*
X0299905Y0054028D01*
X0302820Y0051526D02*
X0306573Y0051526D01*
X0307824Y0050275D01*
X0306573Y0049024D01*
X0304071Y0049024D01*
X0302820Y0047773D01*
X0304071Y0046522D01*
X0307824Y0046522D01*
X0310739Y0047773D02*
X0311990Y0049024D01*
X0314492Y0049024D01*
X0315743Y0050275D01*
X0314492Y0051526D01*
X0310739Y0051526D01*
X0310739Y0047773D02*
X0311990Y0046522D01*
X0315743Y0046522D01*
X0318658Y0046522D02*
X0322411Y0046522D01*
X0323662Y0047773D01*
X0322411Y0049024D01*
X0318658Y0049024D01*
X0318658Y0050275D02*
X0318658Y0046522D01*
X0318658Y0050275D02*
X0319909Y0051526D01*
X0322411Y0051526D01*
X0322411Y0054028D02*
X0322411Y0055279D01*
X0319909Y0055279D02*
X0319909Y0054028D01*
X0326576Y0054028D02*
X0331581Y0054028D01*
X0331581Y0046522D01*
X0331581Y0050275D02*
X0329078Y0050275D01*
X0342414Y0051526D02*
X0346167Y0051526D01*
X0347418Y0050275D01*
X0346167Y0049024D01*
X0343665Y0049024D01*
X0342414Y0047773D01*
X0343665Y0046522D01*
X0347418Y0046522D01*
X0350333Y0046522D02*
X0354086Y0046522D01*
X0355337Y0047773D01*
X0354086Y0049024D01*
X0350333Y0049024D01*
X0350333Y0050275D02*
X0350333Y0046522D01*
X0350333Y0050275D02*
X0351584Y0051526D01*
X0354086Y0051526D01*
X0358183Y0051526D02*
X0361936Y0049024D01*
X0358183Y0046522D01*
X0361936Y0046522D02*
X0361936Y0054028D01*
X0364850Y0051526D02*
X0364850Y0046522D01*
X0368603Y0046522D01*
X0369855Y0047773D01*
X0369855Y0051526D01*
X0372769Y0046522D02*
X0377773Y0046522D01*
X0377773Y0054028D01*
X0167926Y0054028D02*
X0166675Y0054028D01*
D11*
X0077556Y0085705D02*
X0361020Y0085705D01*
X0361020Y0180193D01*
X0077556Y0180193D01*
X0077556Y0085705D01*
X0061808Y0062083D02*
X0376768Y0062083D01*
X0376768Y0203815D01*
X0061808Y0203815D01*
X0061808Y0062083D01*
M02*
