%
M48
M72
T01C0.0157
T02C0.0236
T03C0.0315
T04C0.0394
T05C0.0512
T06C0.0520
T07C0.0906
T08C0.1299
%
T01
X33369Y5896
X33619Y5021
T02
X12744Y2646
X13244Y2646
X13744Y2646
X14619Y3021
X15119Y3021
X15619Y3021
X20244Y4396
X20244Y5021
X20244Y5646
X18494Y5646
X17994Y5646
X17494Y5646
X16994Y5646
X23494Y6271
X23994Y6271
X25369Y6521
X25369Y5896
X25369Y7146
X28619Y8271
X31494Y8021
X31994Y8021
X33369Y9396
X33369Y9896
X32869Y10146
X31494Y10146
X30994Y10646
X30994Y11146
X29869Y10896
X29369Y10896
X27744Y10146
X26994Y10146
X25494Y10646
X25494Y11271
X25494Y11896
X23994Y11021
X23494Y11021
X20244Y10396
X20244Y9771
X20244Y9146
X27494Y12521
X25494Y15146
X25494Y15771
X25494Y16396
X23994Y15521
X23494Y15521
X20244Y14896
X20244Y14271
X20244Y13646
X28994Y18021
X31994Y17896
X32369Y17521
X34869Y18271
X34869Y18771
X23119Y18271
X21744Y18771
X35619Y10271
X31119Y6521
X30494Y6521
X29619Y6021
X29119Y6021
X30744Y4896
X31744Y4896
X32994Y5021
X34119Y5146
X35119Y6021
X35744Y6021
X36369Y6021
X32744Y6021
X31494Y6021
T03
X29494Y8771
X29494Y9396
X34994Y12396
T04
X10307Y8334
X18181Y8334
X18181Y10303
X29744Y15521
X30744Y15521
X31744Y15521
X32744Y15521
X33744Y15521
X34744Y15521
X39619Y15396
X39619Y14396
X39619Y13396
X39619Y16396
X39619Y17396
X34527Y19397
X33527Y19397
X32527Y19397
X31527Y19397
X30527Y19397
X29527Y19397
X28527Y19397
X27527Y19397
X26527Y19397
X25527Y19397
X24527Y19397
X23527Y19397
X22527Y19397
X21527Y19397
X20527Y19397
X19527Y19397
X18181Y16208
X10307Y16208
X27244Y3396
X28244Y3396
X29244Y3396
X30244Y3396
X31244Y3396
X38677Y8669
X39464Y8669
X39464Y9653
X38677Y9653
T05
X6494Y14396
X6494Y16396
T06
X4119Y3591
X4119Y12451
T07
X40531Y6791
X40531Y11531
T08
X7165Y7193
X7165Y19397
X36693Y19397
X36693Y7193
M30
