G75*
%MOIN*%
%OFA0B0*%
%FSLAX25Y25*%
%IPPOS*%
%LPD*%
%AMOC8*
5,1,8,0,0,1.08239X$1,22.5*
%
%ADD10C,0.00394*%
%ADD11R,0.02762X0.09061*%
%ADD12R,0.04731X0.05518*%
%ADD13R,0.09849X0.06699*%
%ADD14R,0.07880X0.05597*%
%ADD15R,0.08274X0.08274*%
%ADD16R,0.05518X0.02762*%
%ADD17R,0.05518X0.04731*%
%ADD18R,0.05518X0.06699*%
%ADD19R,0.16935X0.06699*%
%ADD20C,0.06896*%
%ADD21C,0.08077*%
%ADD22C,0.24022*%
%ADD23R,0.06306X0.06306*%
D10*
X0032280Y0024681D02*
X0213383Y0024681D01*
X0213668Y0024684D01*
X0213954Y0024695D01*
X0214239Y0024712D01*
X0214523Y0024736D01*
X0214807Y0024767D01*
X0215090Y0024805D01*
X0215371Y0024850D01*
X0215652Y0024901D01*
X0215932Y0024959D01*
X0216210Y0025024D01*
X0216486Y0025096D01*
X0216760Y0025174D01*
X0217033Y0025259D01*
X0217303Y0025351D01*
X0217571Y0025449D01*
X0217837Y0025553D01*
X0218100Y0025664D01*
X0218360Y0025781D01*
X0218618Y0025904D01*
X0218872Y0026034D01*
X0219123Y0026170D01*
X0219371Y0026311D01*
X0219615Y0026459D01*
X0219856Y0026612D01*
X0220092Y0026772D01*
X0220325Y0026937D01*
X0220554Y0027107D01*
X0220779Y0027283D01*
X0220999Y0027465D01*
X0221215Y0027651D01*
X0221426Y0027843D01*
X0221633Y0028040D01*
X0221835Y0028242D01*
X0222032Y0028449D01*
X0222224Y0028660D01*
X0222410Y0028876D01*
X0222592Y0029096D01*
X0222768Y0029321D01*
X0222938Y0029550D01*
X0223103Y0029783D01*
X0223263Y0030019D01*
X0223416Y0030260D01*
X0223564Y0030504D01*
X0223705Y0030752D01*
X0223841Y0031003D01*
X0223971Y0031257D01*
X0224094Y0031515D01*
X0224211Y0031775D01*
X0224322Y0032038D01*
X0224426Y0032304D01*
X0224524Y0032572D01*
X0224616Y0032842D01*
X0224701Y0033115D01*
X0224779Y0033389D01*
X0224851Y0033665D01*
X0224916Y0033943D01*
X0224974Y0034223D01*
X0225025Y0034504D01*
X0225070Y0034785D01*
X0225108Y0035068D01*
X0225139Y0035352D01*
X0225163Y0035636D01*
X0225180Y0035921D01*
X0225191Y0036207D01*
X0225194Y0036492D01*
X0225194Y0142791D01*
X0225191Y0143076D01*
X0225180Y0143362D01*
X0225163Y0143647D01*
X0225139Y0143931D01*
X0225108Y0144215D01*
X0225070Y0144498D01*
X0225025Y0144779D01*
X0224974Y0145060D01*
X0224916Y0145340D01*
X0224851Y0145618D01*
X0224779Y0145894D01*
X0224701Y0146168D01*
X0224616Y0146441D01*
X0224524Y0146711D01*
X0224426Y0146979D01*
X0224322Y0147245D01*
X0224211Y0147508D01*
X0224094Y0147768D01*
X0223971Y0148026D01*
X0223841Y0148280D01*
X0223705Y0148531D01*
X0223564Y0148779D01*
X0223416Y0149023D01*
X0223263Y0149264D01*
X0223103Y0149500D01*
X0222938Y0149733D01*
X0222768Y0149962D01*
X0222592Y0150187D01*
X0222410Y0150407D01*
X0222224Y0150623D01*
X0222032Y0150834D01*
X0221835Y0151041D01*
X0221633Y0151243D01*
X0221426Y0151440D01*
X0221215Y0151632D01*
X0220999Y0151818D01*
X0220779Y0152000D01*
X0220554Y0152176D01*
X0220325Y0152346D01*
X0220092Y0152511D01*
X0219856Y0152671D01*
X0219615Y0152824D01*
X0219371Y0152972D01*
X0219123Y0153113D01*
X0218872Y0153249D01*
X0218618Y0153379D01*
X0218360Y0153502D01*
X0218100Y0153619D01*
X0217837Y0153730D01*
X0217571Y0153834D01*
X0217303Y0153932D01*
X0217033Y0154024D01*
X0216760Y0154109D01*
X0216486Y0154187D01*
X0216210Y0154259D01*
X0215932Y0154324D01*
X0215652Y0154382D01*
X0215371Y0154433D01*
X0215090Y0154478D01*
X0214807Y0154516D01*
X0214523Y0154547D01*
X0214239Y0154571D01*
X0213954Y0154588D01*
X0213668Y0154599D01*
X0213383Y0154602D01*
X0032280Y0154602D01*
X0031995Y0154599D01*
X0031709Y0154588D01*
X0031424Y0154571D01*
X0031140Y0154547D01*
X0030856Y0154516D01*
X0030573Y0154478D01*
X0030292Y0154433D01*
X0030011Y0154382D01*
X0029731Y0154324D01*
X0029453Y0154259D01*
X0029177Y0154187D01*
X0028903Y0154109D01*
X0028630Y0154024D01*
X0028360Y0153932D01*
X0028092Y0153834D01*
X0027826Y0153730D01*
X0027563Y0153619D01*
X0027303Y0153502D01*
X0027045Y0153379D01*
X0026791Y0153249D01*
X0026540Y0153113D01*
X0026292Y0152972D01*
X0026048Y0152824D01*
X0025807Y0152671D01*
X0025571Y0152511D01*
X0025338Y0152346D01*
X0025109Y0152176D01*
X0024884Y0152000D01*
X0024664Y0151818D01*
X0024448Y0151632D01*
X0024237Y0151440D01*
X0024030Y0151243D01*
X0023828Y0151041D01*
X0023631Y0150834D01*
X0023439Y0150623D01*
X0023253Y0150407D01*
X0023071Y0150187D01*
X0022895Y0149962D01*
X0022725Y0149733D01*
X0022560Y0149500D01*
X0022400Y0149264D01*
X0022247Y0149023D01*
X0022099Y0148779D01*
X0021958Y0148531D01*
X0021822Y0148280D01*
X0021692Y0148026D01*
X0021569Y0147768D01*
X0021452Y0147508D01*
X0021341Y0147245D01*
X0021237Y0146979D01*
X0021139Y0146711D01*
X0021047Y0146441D01*
X0020962Y0146168D01*
X0020884Y0145894D01*
X0020812Y0145618D01*
X0020747Y0145340D01*
X0020689Y0145060D01*
X0020638Y0144779D01*
X0020593Y0144498D01*
X0020555Y0144215D01*
X0020524Y0143931D01*
X0020500Y0143647D01*
X0020483Y0143362D01*
X0020472Y0143076D01*
X0020469Y0142791D01*
X0020469Y0036492D01*
X0020472Y0036207D01*
X0020483Y0035921D01*
X0020500Y0035636D01*
X0020524Y0035352D01*
X0020555Y0035068D01*
X0020593Y0034785D01*
X0020638Y0034504D01*
X0020689Y0034223D01*
X0020747Y0033943D01*
X0020812Y0033665D01*
X0020884Y0033389D01*
X0020962Y0033115D01*
X0021047Y0032842D01*
X0021139Y0032572D01*
X0021237Y0032304D01*
X0021341Y0032038D01*
X0021452Y0031775D01*
X0021569Y0031515D01*
X0021692Y0031257D01*
X0021822Y0031003D01*
X0021958Y0030752D01*
X0022099Y0030504D01*
X0022247Y0030260D01*
X0022400Y0030019D01*
X0022560Y0029783D01*
X0022725Y0029550D01*
X0022895Y0029321D01*
X0023071Y0029096D01*
X0023253Y0028876D01*
X0023439Y0028660D01*
X0023631Y0028449D01*
X0023828Y0028242D01*
X0024030Y0028040D01*
X0024237Y0027843D01*
X0024448Y0027651D01*
X0024664Y0027465D01*
X0024884Y0027283D01*
X0025109Y0027107D01*
X0025338Y0026937D01*
X0025571Y0026772D01*
X0025807Y0026612D01*
X0026048Y0026459D01*
X0026292Y0026311D01*
X0026540Y0026170D01*
X0026791Y0026034D01*
X0027045Y0025904D01*
X0027303Y0025781D01*
X0027563Y0025664D01*
X0027826Y0025553D01*
X0028092Y0025449D01*
X0028360Y0025351D01*
X0028630Y0025259D01*
X0028903Y0025174D01*
X0029177Y0025096D01*
X0029453Y0025024D01*
X0029731Y0024959D01*
X0030011Y0024901D01*
X0030292Y0024850D01*
X0030573Y0024805D01*
X0030856Y0024767D01*
X0031140Y0024736D01*
X0031424Y0024712D01*
X0031709Y0024695D01*
X0031995Y0024684D01*
X0032280Y0024681D01*
D11*
X0049219Y0083195D03*
X0054219Y0083195D03*
X0059219Y0083195D03*
X0064219Y0083195D03*
X0064219Y0103667D03*
X0059219Y0103667D03*
X0054219Y0103667D03*
X0049219Y0103667D03*
X0190469Y0101167D03*
X0195469Y0101167D03*
X0200469Y0101167D03*
X0205469Y0101167D03*
X0205469Y0080695D03*
X0200469Y0080695D03*
X0195469Y0080695D03*
X0190469Y0080695D03*
D12*
X0159869Y0088431D03*
X0153570Y0088431D03*
X0153570Y0095931D03*
X0159869Y0095931D03*
X0159869Y0103431D03*
X0153570Y0103431D03*
X0142369Y0127181D03*
X0136070Y0127181D03*
X0099869Y0084681D03*
X0093570Y0084681D03*
X0077369Y0084681D03*
X0071070Y0084681D03*
X0071070Y0093431D03*
X0077369Y0093431D03*
X0054869Y0113431D03*
X0048570Y0113431D03*
X0063570Y0115931D03*
X0069869Y0115931D03*
X0124820Y0078431D03*
X0131119Y0078431D03*
X0131119Y0070931D03*
X0124820Y0070931D03*
X0169820Y0050931D03*
X0176119Y0050931D03*
X0182320Y0050931D03*
X0188619Y0050931D03*
X0198570Y0109681D03*
X0204869Y0109681D03*
X0204869Y0117181D03*
X0198570Y0117181D03*
X0074869Y0050931D03*
X0068570Y0050931D03*
X0062369Y0050931D03*
X0056070Y0050931D03*
X0054869Y0065931D03*
X0048570Y0065931D03*
X0048570Y0073431D03*
X0054869Y0073431D03*
X0063570Y0073431D03*
X0069869Y0073431D03*
X0069869Y0065931D03*
X0063570Y0065931D03*
D13*
X0102969Y0051837D03*
X0102969Y0040026D03*
X0141719Y0040026D03*
X0141719Y0051837D03*
D14*
X0166719Y0068431D03*
X0166719Y0078431D03*
X0106719Y0082181D03*
X0106719Y0092181D03*
D15*
X0086719Y0087181D03*
X0146719Y0073431D03*
D16*
X0145902Y0085931D03*
X0145902Y0090931D03*
X0145902Y0095931D03*
X0145902Y0100931D03*
X0125036Y0100931D03*
X0125036Y0095931D03*
X0125036Y0090931D03*
X0125036Y0085931D03*
D17*
X0116719Y0084081D03*
X0116719Y0077781D03*
X0116719Y0070331D03*
X0116719Y0064031D03*
X0112969Y0051581D03*
X0112969Y0045281D03*
X0131719Y0045281D03*
X0131719Y0051581D03*
X0174219Y0069031D03*
X0174219Y0075331D03*
X0182969Y0082781D03*
X0182969Y0089081D03*
X0190469Y0110281D03*
X0190469Y0116581D03*
X0139219Y0114081D03*
X0139219Y0107781D03*
X0129219Y0107781D03*
X0129219Y0114081D03*
X0116719Y0097831D03*
X0116719Y0091531D03*
X0090469Y0104031D03*
X0090469Y0110331D03*
X0080469Y0107831D03*
X0080469Y0101531D03*
X0071719Y0101531D03*
X0071719Y0107831D03*
D18*
X0064209Y0123431D03*
X0056729Y0123431D03*
D19*
X0087969Y0051837D03*
X0087969Y0040026D03*
X0156719Y0040026D03*
X0156719Y0051837D03*
D20*
X0161611Y0120823D03*
X0161611Y0129681D03*
X0161611Y0138539D03*
X0179327Y0138539D03*
X0179327Y0120823D03*
X0118077Y0120823D03*
X0100361Y0120823D03*
X0100361Y0129681D03*
X0100361Y0138539D03*
X0118077Y0138539D03*
D21*
X0109219Y0144445D03*
X0109219Y0114917D03*
X0170469Y0114917D03*
X0170469Y0144445D03*
D22*
X0211414Y0140823D03*
X0211414Y0038461D03*
X0034249Y0038461D03*
X0034249Y0140823D03*
D23*
X0149219Y0113431D03*
X0170469Y0038431D03*
X0074219Y0038431D03*
M02*
