G75*
%MOIN*%
%OFA0B0*%
%FSLAX25Y25*%
%IPPOS*%
%LPD*%
%AMOC8*
5,1,8,0,0,1.08239X$1,22.5*
%
%ADD10C,0.00900*%
%ADD11C,0.00591*%
%ADD12C,0.00700*%
%ADD13C,0.00500*%
D10*
X0051251Y0033434D02*
X0055321Y0033434D01*
X0057696Y0033434D02*
X0057696Y0036486D01*
X0061767Y0036486D01*
X0060749Y0034451D02*
X0059731Y0034451D01*
X0057696Y0033434D01*
X0060749Y0034451D02*
X0061767Y0033434D01*
X0061767Y0031399D01*
X0060749Y0030381D01*
X0058714Y0030381D01*
X0057696Y0031399D01*
X0064142Y0032416D02*
X0066177Y0030381D01*
X0068212Y0032416D01*
X0068212Y0036486D01*
X0064142Y0036486D02*
X0064142Y0032416D01*
X0034313Y0069144D02*
X0035330Y0070161D01*
X0035330Y0072196D01*
X0034313Y0073214D01*
X0033295Y0073214D01*
X0032278Y0072196D01*
X0032278Y0070161D01*
X0031260Y0069144D01*
X0030243Y0069144D01*
X0029225Y0070161D01*
X0029225Y0072196D01*
X0030243Y0073214D01*
X0032278Y0075589D02*
X0032278Y0079659D01*
X0035330Y0082035D02*
X0029225Y0082035D01*
X0031260Y0084070D01*
X0029225Y0086105D01*
X0035330Y0086105D01*
X0034313Y0088480D02*
X0032278Y0088480D01*
X0031260Y0089498D01*
X0031260Y0091533D01*
X0032278Y0092550D01*
X0033295Y0092550D01*
X0033295Y0088480D01*
X0034313Y0088480D02*
X0035330Y0089498D01*
X0035330Y0091533D01*
X0034313Y0095943D02*
X0030243Y0095943D01*
X0031260Y0094926D02*
X0031260Y0096961D01*
X0032278Y0099223D02*
X0031260Y0100240D01*
X0031260Y0102275D01*
X0032278Y0103293D01*
X0033295Y0103293D01*
X0033295Y0099223D01*
X0032278Y0099223D02*
X0034313Y0099223D01*
X0035330Y0100240D01*
X0035330Y0102275D01*
X0035330Y0105668D02*
X0031260Y0105668D01*
X0033295Y0105668D02*
X0031260Y0107703D01*
X0031260Y0108721D01*
X0035330Y0096961D02*
X0034313Y0095943D01*
X0073664Y0137260D02*
X0073664Y0139295D01*
X0073664Y0138277D02*
X0079769Y0138277D01*
X0079769Y0137260D02*
X0079769Y0139295D01*
X0079769Y0141557D02*
X0075699Y0141557D01*
X0075699Y0144609D01*
X0076717Y0145627D01*
X0079769Y0145627D01*
X0168575Y0107969D02*
X0168575Y0103899D01*
X0169593Y0102881D01*
X0171628Y0102881D01*
X0172645Y0103899D01*
X0172645Y0107969D01*
X0171628Y0108986D01*
X0169593Y0108986D01*
X0168575Y0107969D01*
X0175021Y0106951D02*
X0175021Y0103899D01*
X0176038Y0102881D01*
X0179091Y0102881D01*
X0179091Y0106951D01*
X0181466Y0106951D02*
X0183501Y0106951D01*
X0182484Y0107969D02*
X0182484Y0103899D01*
X0183501Y0102881D01*
X0214264Y0109428D02*
X0220370Y0109428D01*
X0220370Y0107053D02*
X0220370Y0104000D01*
X0219352Y0102983D01*
X0217317Y0102983D01*
X0216299Y0104000D01*
X0216299Y0107053D01*
X0217317Y0109428D02*
X0216299Y0110446D01*
X0216299Y0112481D01*
X0217317Y0113498D01*
X0220370Y0113498D01*
X0220370Y0100777D02*
X0219352Y0100777D01*
X0219352Y0099760D01*
X0220370Y0099760D01*
X0220370Y0100777D01*
X0219352Y0097385D02*
X0217317Y0097385D01*
X0216299Y0096367D01*
X0216299Y0094332D01*
X0217317Y0093314D01*
X0219352Y0093314D01*
X0220370Y0094332D01*
X0220370Y0096367D01*
X0219352Y0097385D01*
X0220370Y0090996D02*
X0218334Y0087943D01*
X0216299Y0090996D01*
X0214264Y0087943D02*
X0220370Y0087943D01*
X0220370Y0085681D02*
X0219352Y0084664D01*
X0215282Y0084664D01*
X0216299Y0083646D02*
X0216299Y0085681D01*
X0215282Y0081271D02*
X0214264Y0080253D01*
X0214264Y0078218D01*
X0215282Y0077201D01*
X0216299Y0077201D01*
X0217317Y0078218D01*
X0217317Y0081271D01*
X0219352Y0081271D02*
X0215282Y0081271D01*
X0219352Y0081271D02*
X0220370Y0080253D01*
X0220370Y0078218D01*
X0219352Y0077201D01*
X0219352Y0074825D02*
X0217317Y0074825D01*
X0216299Y0073808D01*
X0216299Y0070755D01*
X0214264Y0070755D02*
X0220370Y0070755D01*
X0220370Y0073808D01*
X0219352Y0074825D01*
X0220370Y0068380D02*
X0217317Y0068380D01*
X0216299Y0067362D01*
X0216299Y0065327D01*
X0217317Y0064310D01*
X0214264Y0064310D02*
X0220370Y0064310D01*
X0193212Y0036486D02*
X0193212Y0032416D01*
X0191177Y0030381D01*
X0189142Y0032416D01*
X0189142Y0036486D01*
X0186767Y0036486D02*
X0182696Y0036486D01*
X0182696Y0033434D01*
X0184731Y0034451D01*
X0185749Y0034451D01*
X0186767Y0033434D01*
X0186767Y0031399D01*
X0185749Y0030381D01*
X0183714Y0030381D01*
X0182696Y0031399D01*
X0180321Y0033434D02*
X0176251Y0033434D01*
X0178286Y0035469D02*
X0178286Y0031399D01*
D11*
X0179072Y0042585D02*
X0166867Y0042585D01*
X0166867Y0049278D01*
X0179072Y0049278D01*
X0179072Y0042585D01*
X0179367Y0042585D02*
X0191572Y0042585D01*
X0191572Y0049278D01*
X0179367Y0049278D01*
X0179367Y0042585D01*
X0164072Y0065085D02*
X0151867Y0065085D01*
X0151867Y0071778D01*
X0164072Y0071778D01*
X0164072Y0065085D01*
X0164072Y0072585D02*
X0164072Y0079278D01*
X0151867Y0079278D01*
X0151867Y0072585D01*
X0164072Y0072585D01*
X0164072Y0080085D02*
X0164072Y0086778D01*
X0151867Y0086778D01*
X0151867Y0080085D01*
X0164072Y0080085D01*
X0172123Y0079829D02*
X0178816Y0079829D01*
X0178816Y0092033D01*
X0172123Y0092033D01*
X0172123Y0079829D01*
X0179623Y0079829D02*
X0186316Y0079829D01*
X0186316Y0092033D01*
X0179623Y0092033D01*
X0179623Y0079829D01*
X0187270Y0083451D02*
X0187270Y0098411D01*
X0206168Y0098411D01*
X0206168Y0083451D01*
X0187270Y0083451D01*
X0188305Y0085931D02*
X0188307Y0086006D01*
X0188313Y0086080D01*
X0188323Y0086154D01*
X0188336Y0086227D01*
X0188354Y0086300D01*
X0188375Y0086371D01*
X0188400Y0086442D01*
X0188429Y0086511D01*
X0188462Y0086578D01*
X0188498Y0086643D01*
X0188537Y0086707D01*
X0188579Y0086768D01*
X0188625Y0086827D01*
X0188674Y0086884D01*
X0188726Y0086937D01*
X0188780Y0086988D01*
X0188837Y0087037D01*
X0188897Y0087081D01*
X0188959Y0087123D01*
X0189023Y0087162D01*
X0189089Y0087197D01*
X0189156Y0087228D01*
X0189226Y0087256D01*
X0189296Y0087280D01*
X0189368Y0087301D01*
X0189441Y0087317D01*
X0189514Y0087330D01*
X0189589Y0087339D01*
X0189663Y0087344D01*
X0189738Y0087345D01*
X0189812Y0087342D01*
X0189887Y0087335D01*
X0189960Y0087324D01*
X0190034Y0087310D01*
X0190106Y0087291D01*
X0190177Y0087269D01*
X0190247Y0087243D01*
X0190316Y0087213D01*
X0190382Y0087180D01*
X0190447Y0087143D01*
X0190510Y0087103D01*
X0190571Y0087059D01*
X0190629Y0087013D01*
X0190685Y0086963D01*
X0190738Y0086911D01*
X0190789Y0086856D01*
X0190836Y0086798D01*
X0190880Y0086738D01*
X0190921Y0086675D01*
X0190959Y0086611D01*
X0190993Y0086545D01*
X0191024Y0086476D01*
X0191051Y0086407D01*
X0191074Y0086336D01*
X0191093Y0086264D01*
X0191109Y0086191D01*
X0191121Y0086117D01*
X0191129Y0086043D01*
X0191133Y0085968D01*
X0191133Y0085894D01*
X0191129Y0085819D01*
X0191121Y0085745D01*
X0191109Y0085671D01*
X0191093Y0085598D01*
X0191074Y0085526D01*
X0191051Y0085455D01*
X0191024Y0085386D01*
X0190993Y0085317D01*
X0190959Y0085251D01*
X0190921Y0085187D01*
X0190880Y0085124D01*
X0190836Y0085064D01*
X0190789Y0085006D01*
X0190738Y0084951D01*
X0190685Y0084899D01*
X0190629Y0084849D01*
X0190571Y0084803D01*
X0190510Y0084759D01*
X0190447Y0084719D01*
X0190382Y0084682D01*
X0190316Y0084649D01*
X0190247Y0084619D01*
X0190177Y0084593D01*
X0190106Y0084571D01*
X0190034Y0084552D01*
X0189960Y0084538D01*
X0189887Y0084527D01*
X0189812Y0084520D01*
X0189738Y0084517D01*
X0189663Y0084518D01*
X0189589Y0084523D01*
X0189514Y0084532D01*
X0189441Y0084545D01*
X0189368Y0084561D01*
X0189296Y0084582D01*
X0189226Y0084606D01*
X0189156Y0084634D01*
X0189089Y0084665D01*
X0189023Y0084700D01*
X0188959Y0084739D01*
X0188897Y0084781D01*
X0188837Y0084825D01*
X0188780Y0084874D01*
X0188726Y0084925D01*
X0188674Y0084978D01*
X0188625Y0085035D01*
X0188579Y0085094D01*
X0188537Y0085155D01*
X0188498Y0085219D01*
X0188462Y0085284D01*
X0188429Y0085351D01*
X0188400Y0085420D01*
X0188375Y0085491D01*
X0188354Y0085562D01*
X0188336Y0085635D01*
X0188323Y0085708D01*
X0188313Y0085782D01*
X0188307Y0085856D01*
X0188305Y0085931D01*
X0162822Y0092585D02*
X0162822Y0099278D01*
X0150617Y0099278D01*
X0150617Y0092585D01*
X0162822Y0092585D01*
X0162822Y0100085D02*
X0150617Y0100085D01*
X0150617Y0106778D01*
X0162822Y0106778D01*
X0162822Y0100085D01*
X0143816Y0104829D02*
X0143816Y0117033D01*
X0137123Y0117033D01*
X0137123Y0104829D01*
X0143816Y0104829D01*
X0142949Y0102880D02*
X0142949Y0083982D01*
X0127989Y0083982D01*
X0127989Y0102880D01*
X0142949Y0102880D01*
X0133816Y0104829D02*
X0127123Y0104829D01*
X0127123Y0117033D01*
X0133816Y0117033D01*
X0133816Y0104829D01*
X0129055Y0100431D02*
X0129057Y0100506D01*
X0129063Y0100580D01*
X0129073Y0100654D01*
X0129086Y0100727D01*
X0129104Y0100800D01*
X0129125Y0100871D01*
X0129150Y0100942D01*
X0129179Y0101011D01*
X0129212Y0101078D01*
X0129248Y0101143D01*
X0129287Y0101207D01*
X0129329Y0101268D01*
X0129375Y0101327D01*
X0129424Y0101384D01*
X0129476Y0101437D01*
X0129530Y0101488D01*
X0129587Y0101537D01*
X0129647Y0101581D01*
X0129709Y0101623D01*
X0129773Y0101662D01*
X0129839Y0101697D01*
X0129906Y0101728D01*
X0129976Y0101756D01*
X0130046Y0101780D01*
X0130118Y0101801D01*
X0130191Y0101817D01*
X0130264Y0101830D01*
X0130339Y0101839D01*
X0130413Y0101844D01*
X0130488Y0101845D01*
X0130562Y0101842D01*
X0130637Y0101835D01*
X0130710Y0101824D01*
X0130784Y0101810D01*
X0130856Y0101791D01*
X0130927Y0101769D01*
X0130997Y0101743D01*
X0131066Y0101713D01*
X0131132Y0101680D01*
X0131197Y0101643D01*
X0131260Y0101603D01*
X0131321Y0101559D01*
X0131379Y0101513D01*
X0131435Y0101463D01*
X0131488Y0101411D01*
X0131539Y0101356D01*
X0131586Y0101298D01*
X0131630Y0101238D01*
X0131671Y0101175D01*
X0131709Y0101111D01*
X0131743Y0101045D01*
X0131774Y0100976D01*
X0131801Y0100907D01*
X0131824Y0100836D01*
X0131843Y0100764D01*
X0131859Y0100691D01*
X0131871Y0100617D01*
X0131879Y0100543D01*
X0131883Y0100468D01*
X0131883Y0100394D01*
X0131879Y0100319D01*
X0131871Y0100245D01*
X0131859Y0100171D01*
X0131843Y0100098D01*
X0131824Y0100026D01*
X0131801Y0099955D01*
X0131774Y0099886D01*
X0131743Y0099817D01*
X0131709Y0099751D01*
X0131671Y0099687D01*
X0131630Y0099624D01*
X0131586Y0099564D01*
X0131539Y0099506D01*
X0131488Y0099451D01*
X0131435Y0099399D01*
X0131379Y0099349D01*
X0131321Y0099303D01*
X0131260Y0099259D01*
X0131197Y0099219D01*
X0131132Y0099182D01*
X0131066Y0099149D01*
X0130997Y0099119D01*
X0130927Y0099093D01*
X0130856Y0099071D01*
X0130784Y0099052D01*
X0130710Y0099038D01*
X0130637Y0099027D01*
X0130562Y0099020D01*
X0130488Y0099017D01*
X0130413Y0099018D01*
X0130339Y0099023D01*
X0130264Y0099032D01*
X0130191Y0099045D01*
X0130118Y0099061D01*
X0130046Y0099082D01*
X0129976Y0099106D01*
X0129906Y0099134D01*
X0129839Y0099165D01*
X0129773Y0099200D01*
X0129709Y0099239D01*
X0129647Y0099281D01*
X0129587Y0099325D01*
X0129530Y0099374D01*
X0129476Y0099425D01*
X0129424Y0099478D01*
X0129375Y0099535D01*
X0129329Y0099594D01*
X0129287Y0099655D01*
X0129248Y0099719D01*
X0129212Y0099784D01*
X0129179Y0099851D01*
X0129150Y0099920D01*
X0129125Y0099991D01*
X0129104Y0100062D01*
X0129086Y0100135D01*
X0129073Y0100208D01*
X0129063Y0100282D01*
X0129057Y0100356D01*
X0129055Y0100431D01*
X0120066Y0100783D02*
X0113373Y0100783D01*
X0113373Y0088579D01*
X0120066Y0088579D01*
X0120066Y0100783D01*
X0112566Y0100783D02*
X0105873Y0100783D01*
X0105873Y0088579D01*
X0112566Y0088579D01*
X0112566Y0100783D01*
X0100066Y0096079D02*
X0093373Y0096079D01*
X0093373Y0108283D01*
X0100066Y0108283D01*
X0100066Y0096079D01*
X0106867Y0086778D02*
X0106867Y0080085D01*
X0119072Y0080085D01*
X0119072Y0086778D01*
X0106867Y0086778D01*
X0106867Y0079278D02*
X0106867Y0072585D01*
X0119072Y0072585D01*
X0119072Y0079278D01*
X0106867Y0079278D01*
X0106867Y0071778D02*
X0106867Y0065085D01*
X0119072Y0065085D01*
X0119072Y0071778D01*
X0106867Y0071778D01*
X0120617Y0068835D02*
X0120617Y0075528D01*
X0132822Y0075528D01*
X0132822Y0068835D01*
X0120617Y0068835D01*
X0120617Y0076335D02*
X0120617Y0083028D01*
X0132822Y0083028D01*
X0132822Y0076335D01*
X0120617Y0076335D01*
X0138117Y0076335D02*
X0150322Y0076335D01*
X0150322Y0083028D01*
X0138117Y0083028D01*
X0138117Y0076335D01*
X0138117Y0075528D02*
X0138117Y0068835D01*
X0150322Y0068835D01*
X0150322Y0075528D01*
X0138117Y0075528D01*
X0136207Y0050774D02*
X0147231Y0050774D01*
X0147231Y0031089D01*
X0136207Y0031089D01*
X0136207Y0050774D01*
X0135066Y0049533D02*
X0128373Y0049533D01*
X0128373Y0037329D01*
X0135066Y0037329D01*
X0135066Y0049533D01*
X0116316Y0049533D02*
X0116316Y0037329D01*
X0109623Y0037329D01*
X0109623Y0049533D01*
X0116316Y0049533D01*
X0108481Y0050774D02*
X0108481Y0031089D01*
X0097457Y0031089D01*
X0097457Y0050774D01*
X0108481Y0050774D01*
X0077822Y0049278D02*
X0077822Y0042585D01*
X0065617Y0042585D01*
X0065617Y0049278D01*
X0077822Y0049278D01*
X0065322Y0049278D02*
X0065322Y0042585D01*
X0053117Y0042585D01*
X0053117Y0049278D01*
X0065322Y0049278D01*
X0063117Y0062585D02*
X0075322Y0062585D01*
X0075322Y0069278D01*
X0063117Y0069278D01*
X0063117Y0062585D01*
X0060322Y0062585D02*
X0060322Y0069278D01*
X0048117Y0069278D01*
X0048117Y0062585D01*
X0060322Y0062585D01*
X0060322Y0070085D02*
X0048117Y0070085D01*
X0048117Y0076778D01*
X0060322Y0076778D01*
X0060322Y0070085D01*
X0063117Y0070085D02*
X0063117Y0076778D01*
X0075322Y0076778D01*
X0075322Y0070085D01*
X0063117Y0070085D01*
X0068668Y0085951D02*
X0049770Y0085951D01*
X0049770Y0100911D01*
X0068668Y0100911D01*
X0068668Y0085951D01*
X0064805Y0098431D02*
X0064807Y0098506D01*
X0064813Y0098580D01*
X0064823Y0098654D01*
X0064836Y0098727D01*
X0064854Y0098800D01*
X0064875Y0098871D01*
X0064900Y0098942D01*
X0064929Y0099011D01*
X0064962Y0099078D01*
X0064998Y0099143D01*
X0065037Y0099207D01*
X0065079Y0099268D01*
X0065125Y0099327D01*
X0065174Y0099384D01*
X0065226Y0099437D01*
X0065280Y0099488D01*
X0065337Y0099537D01*
X0065397Y0099581D01*
X0065459Y0099623D01*
X0065523Y0099662D01*
X0065589Y0099697D01*
X0065656Y0099728D01*
X0065726Y0099756D01*
X0065796Y0099780D01*
X0065868Y0099801D01*
X0065941Y0099817D01*
X0066014Y0099830D01*
X0066089Y0099839D01*
X0066163Y0099844D01*
X0066238Y0099845D01*
X0066312Y0099842D01*
X0066387Y0099835D01*
X0066460Y0099824D01*
X0066534Y0099810D01*
X0066606Y0099791D01*
X0066677Y0099769D01*
X0066747Y0099743D01*
X0066816Y0099713D01*
X0066882Y0099680D01*
X0066947Y0099643D01*
X0067010Y0099603D01*
X0067071Y0099559D01*
X0067129Y0099513D01*
X0067185Y0099463D01*
X0067238Y0099411D01*
X0067289Y0099356D01*
X0067336Y0099298D01*
X0067380Y0099238D01*
X0067421Y0099175D01*
X0067459Y0099111D01*
X0067493Y0099045D01*
X0067524Y0098976D01*
X0067551Y0098907D01*
X0067574Y0098836D01*
X0067593Y0098764D01*
X0067609Y0098691D01*
X0067621Y0098617D01*
X0067629Y0098543D01*
X0067633Y0098468D01*
X0067633Y0098394D01*
X0067629Y0098319D01*
X0067621Y0098245D01*
X0067609Y0098171D01*
X0067593Y0098098D01*
X0067574Y0098026D01*
X0067551Y0097955D01*
X0067524Y0097886D01*
X0067493Y0097817D01*
X0067459Y0097751D01*
X0067421Y0097687D01*
X0067380Y0097624D01*
X0067336Y0097564D01*
X0067289Y0097506D01*
X0067238Y0097451D01*
X0067185Y0097399D01*
X0067129Y0097349D01*
X0067071Y0097303D01*
X0067010Y0097259D01*
X0066947Y0097219D01*
X0066882Y0097182D01*
X0066816Y0097149D01*
X0066747Y0097119D01*
X0066677Y0097093D01*
X0066606Y0097071D01*
X0066534Y0097052D01*
X0066460Y0097038D01*
X0066387Y0097027D01*
X0066312Y0097020D01*
X0066238Y0097017D01*
X0066163Y0097018D01*
X0066089Y0097023D01*
X0066014Y0097032D01*
X0065941Y0097045D01*
X0065868Y0097061D01*
X0065796Y0097082D01*
X0065726Y0097106D01*
X0065656Y0097134D01*
X0065589Y0097165D01*
X0065523Y0097200D01*
X0065459Y0097239D01*
X0065397Y0097281D01*
X0065337Y0097325D01*
X0065280Y0097374D01*
X0065226Y0097425D01*
X0065174Y0097478D01*
X0065125Y0097535D01*
X0065079Y0097594D01*
X0065037Y0097655D01*
X0064998Y0097719D01*
X0064962Y0097784D01*
X0064929Y0097851D01*
X0064900Y0097920D01*
X0064875Y0097991D01*
X0064854Y0098062D01*
X0064836Y0098135D01*
X0064823Y0098208D01*
X0064813Y0098282D01*
X0064807Y0098356D01*
X0064805Y0098431D01*
X0066316Y0109829D02*
X0059623Y0109829D01*
X0059623Y0122033D01*
X0066316Y0122033D01*
X0066316Y0109829D01*
X0067123Y0109829D02*
X0073816Y0109829D01*
X0073816Y0122033D01*
X0067123Y0122033D01*
X0067123Y0109829D01*
X0074623Y0109829D02*
X0081316Y0109829D01*
X0081316Y0122033D01*
X0074623Y0122033D01*
X0074623Y0109829D01*
X0058816Y0109829D02*
X0052123Y0109829D01*
X0052123Y0122033D01*
X0058816Y0122033D01*
X0058816Y0109829D01*
X0051316Y0109829D02*
X0051316Y0122033D01*
X0044623Y0122033D01*
X0044623Y0109829D01*
X0051316Y0109829D01*
X0093373Y0109829D02*
X0100066Y0109829D01*
X0100066Y0122033D01*
X0093373Y0122033D01*
X0093373Y0109829D01*
X0102792Y0120114D02*
X0102792Y0149248D01*
X0168146Y0149248D01*
X0168146Y0120114D01*
X0102792Y0120114D01*
X0170617Y0122585D02*
X0182822Y0122585D01*
X0182822Y0129278D01*
X0170617Y0129278D01*
X0170617Y0122585D01*
X0193117Y0120528D02*
X0193117Y0113835D01*
X0205322Y0113835D01*
X0205322Y0120528D01*
X0193117Y0120528D01*
X0193117Y0113028D02*
X0193117Y0106335D01*
X0205322Y0106335D01*
X0205322Y0113028D01*
X0193117Y0113028D01*
D12*
X0191829Y0093385D02*
X0190194Y0093385D01*
X0191011Y0093385D02*
X0191011Y0088481D01*
X0190194Y0088481D02*
X0191829Y0088481D01*
X0193632Y0089298D02*
X0194449Y0088481D01*
X0196084Y0088481D01*
X0196901Y0089298D01*
X0198788Y0089298D02*
X0199605Y0088481D01*
X0201240Y0088481D01*
X0202057Y0089298D01*
X0202057Y0090116D01*
X0201240Y0090933D01*
X0200423Y0090933D01*
X0201240Y0090933D02*
X0202057Y0091751D01*
X0202057Y0092568D01*
X0201240Y0093385D01*
X0199605Y0093385D01*
X0198788Y0092568D01*
X0196901Y0092568D02*
X0196084Y0093385D01*
X0194449Y0093385D01*
X0193632Y0092568D01*
X0193632Y0089298D01*
X0137919Y0088541D02*
X0137919Y0086906D01*
X0137919Y0087723D02*
X0133015Y0087723D01*
X0133015Y0086906D02*
X0133015Y0088541D01*
X0133832Y0090343D02*
X0137102Y0090343D01*
X0137919Y0091161D01*
X0137919Y0092796D01*
X0137102Y0093613D01*
X0137919Y0095500D02*
X0134650Y0098769D01*
X0133832Y0098769D01*
X0133015Y0097952D01*
X0133015Y0096317D01*
X0133832Y0095500D01*
X0133832Y0093613D02*
X0133015Y0092796D01*
X0133015Y0091161D01*
X0133832Y0090343D01*
X0137919Y0095500D02*
X0137919Y0098769D01*
X0137254Y0124657D02*
X0137254Y0128961D01*
X0135819Y0127526D01*
X0134084Y0128961D02*
X0131215Y0124657D01*
X0134084Y0124657D02*
X0131215Y0128961D01*
X0130631Y0132531D02*
X0128479Y0132531D01*
X0127762Y0133248D01*
X0128479Y0133966D01*
X0130631Y0133966D01*
X0130631Y0134683D02*
X0130631Y0132531D01*
X0130631Y0134683D02*
X0129914Y0135400D01*
X0128479Y0135400D01*
X0126127Y0135400D02*
X0124693Y0135400D01*
X0125410Y0136117D02*
X0125410Y0133248D01*
X0126127Y0132531D01*
X0122958Y0132531D02*
X0122958Y0134683D01*
X0122241Y0135400D01*
X0120806Y0135400D01*
X0120806Y0133966D02*
X0122958Y0133966D01*
X0122958Y0132531D02*
X0120806Y0132531D01*
X0120089Y0133248D01*
X0120806Y0133966D01*
X0118404Y0135400D02*
X0117687Y0135400D01*
X0116252Y0133966D01*
X0116252Y0135400D02*
X0116252Y0132531D01*
X0114518Y0132531D02*
X0114518Y0135400D01*
X0111648Y0135400D02*
X0111648Y0133248D01*
X0112366Y0132531D01*
X0114518Y0132531D01*
X0109914Y0132531D02*
X0109914Y0136835D01*
X0108479Y0135400D01*
X0107045Y0136835D01*
X0107045Y0132531D01*
X0135819Y0124657D02*
X0138688Y0124657D01*
X0139122Y0132531D02*
X0139839Y0133248D01*
X0139122Y0132531D02*
X0137687Y0132531D01*
X0136970Y0133248D01*
X0136970Y0136117D01*
X0137687Y0136835D01*
X0139122Y0136835D01*
X0139839Y0136117D01*
X0141574Y0136835D02*
X0144443Y0136835D01*
X0146178Y0136835D02*
X0146178Y0132531D01*
X0149047Y0132531D01*
X0150782Y0134683D02*
X0153651Y0134683D01*
X0155386Y0134683D02*
X0156820Y0135400D01*
X0157538Y0135400D01*
X0158255Y0134683D01*
X0158255Y0133248D01*
X0157538Y0132531D01*
X0156103Y0132531D01*
X0155386Y0133248D01*
X0155386Y0134683D02*
X0155386Y0136835D01*
X0158255Y0136835D01*
X0159990Y0136835D02*
X0159990Y0134683D01*
X0161424Y0135400D01*
X0162142Y0135400D01*
X0162859Y0134683D01*
X0162859Y0133248D01*
X0162142Y0132531D01*
X0160707Y0132531D01*
X0159990Y0133248D01*
X0159990Y0136835D02*
X0162859Y0136835D01*
X0152934Y0136835D02*
X0152934Y0132531D01*
X0150782Y0134683D02*
X0152934Y0136835D01*
X0143009Y0134683D02*
X0141574Y0134683D01*
X0141574Y0132531D02*
X0141574Y0136835D01*
X0062923Y0095885D02*
X0062923Y0090981D01*
X0064557Y0090981D02*
X0061288Y0090981D01*
X0059401Y0091798D02*
X0058584Y0090981D01*
X0056949Y0090981D01*
X0056132Y0091798D01*
X0056132Y0095068D01*
X0056949Y0095885D01*
X0058584Y0095885D01*
X0059401Y0095068D01*
X0061288Y0094251D02*
X0062923Y0095885D01*
X0054329Y0095885D02*
X0052694Y0095885D01*
X0053511Y0095885D02*
X0053511Y0090981D01*
X0052694Y0090981D02*
X0054329Y0090981D01*
X0099432Y0043085D02*
X0098715Y0042367D01*
X0098715Y0039498D01*
X0099432Y0038781D01*
X0100867Y0038781D01*
X0101584Y0039498D01*
X0103319Y0039498D02*
X0104036Y0038781D01*
X0105471Y0038781D01*
X0106188Y0039498D01*
X0106188Y0040216D01*
X0105471Y0040933D01*
X0104754Y0040933D01*
X0105471Y0040933D02*
X0106188Y0041650D01*
X0106188Y0042367D01*
X0105471Y0043085D01*
X0104036Y0043085D01*
X0103319Y0042367D01*
X0101584Y0042367D02*
X0100867Y0043085D01*
X0099432Y0043085D01*
X0137465Y0042367D02*
X0137465Y0039498D01*
X0138183Y0038781D01*
X0139617Y0038781D01*
X0140334Y0039498D01*
X0142069Y0038781D02*
X0144938Y0041650D01*
X0144938Y0042367D01*
X0144221Y0043085D01*
X0142786Y0043085D01*
X0142069Y0042367D01*
X0140334Y0042367D02*
X0139617Y0043085D01*
X0138183Y0043085D01*
X0137465Y0042367D01*
X0142069Y0038781D02*
X0144938Y0038781D01*
D13*
X0148845Y0035419D02*
X0148845Y0046443D01*
X0151207Y0048805D01*
X0162231Y0048805D01*
X0164593Y0046443D01*
X0164593Y0035419D01*
X0162231Y0033057D01*
X0151207Y0033057D01*
X0148845Y0035419D01*
X0095843Y0035419D02*
X0095843Y0046443D01*
X0093481Y0048805D01*
X0082457Y0048805D01*
X0080095Y0046443D01*
X0080095Y0035419D01*
X0082457Y0033057D01*
X0093481Y0033057D01*
X0095843Y0035419D01*
M02*
