G75*
%MOIN*%
%OFA0B0*%
%FSLAX25Y25*%
%IPPOS*%
%LPD*%
%AMOC8*
5,1,8,0,0,1.08239X$1,22.5*
%
%ADD10C,0.00394*%
%ADD11C,0.05906*%
%ADD12C,0.09449*%
%ADD13C,0.23622*%
%ADD14C,0.00800*%
%ADD15C,0.03562*%
%ADD16R,0.05906X0.05906*%
%ADD17C,0.02775*%
%ADD18C,0.01600*%
D10*
X0032280Y0024681D02*
X0213383Y0024681D01*
X0213668Y0024684D01*
X0213954Y0024695D01*
X0214239Y0024712D01*
X0214523Y0024736D01*
X0214807Y0024767D01*
X0215090Y0024805D01*
X0215371Y0024850D01*
X0215652Y0024901D01*
X0215932Y0024959D01*
X0216210Y0025024D01*
X0216486Y0025096D01*
X0216760Y0025174D01*
X0217033Y0025259D01*
X0217303Y0025351D01*
X0217571Y0025449D01*
X0217837Y0025553D01*
X0218100Y0025664D01*
X0218360Y0025781D01*
X0218618Y0025904D01*
X0218872Y0026034D01*
X0219123Y0026170D01*
X0219371Y0026311D01*
X0219615Y0026459D01*
X0219856Y0026612D01*
X0220092Y0026772D01*
X0220325Y0026937D01*
X0220554Y0027107D01*
X0220779Y0027283D01*
X0220999Y0027465D01*
X0221215Y0027651D01*
X0221426Y0027843D01*
X0221633Y0028040D01*
X0221835Y0028242D01*
X0222032Y0028449D01*
X0222224Y0028660D01*
X0222410Y0028876D01*
X0222592Y0029096D01*
X0222768Y0029321D01*
X0222938Y0029550D01*
X0223103Y0029783D01*
X0223263Y0030019D01*
X0223416Y0030260D01*
X0223564Y0030504D01*
X0223705Y0030752D01*
X0223841Y0031003D01*
X0223971Y0031257D01*
X0224094Y0031515D01*
X0224211Y0031775D01*
X0224322Y0032038D01*
X0224426Y0032304D01*
X0224524Y0032572D01*
X0224616Y0032842D01*
X0224701Y0033115D01*
X0224779Y0033389D01*
X0224851Y0033665D01*
X0224916Y0033943D01*
X0224974Y0034223D01*
X0225025Y0034504D01*
X0225070Y0034785D01*
X0225108Y0035068D01*
X0225139Y0035352D01*
X0225163Y0035636D01*
X0225180Y0035921D01*
X0225191Y0036207D01*
X0225194Y0036492D01*
X0225194Y0142791D01*
X0225191Y0143076D01*
X0225180Y0143362D01*
X0225163Y0143647D01*
X0225139Y0143931D01*
X0225108Y0144215D01*
X0225070Y0144498D01*
X0225025Y0144779D01*
X0224974Y0145060D01*
X0224916Y0145340D01*
X0224851Y0145618D01*
X0224779Y0145894D01*
X0224701Y0146168D01*
X0224616Y0146441D01*
X0224524Y0146711D01*
X0224426Y0146979D01*
X0224322Y0147245D01*
X0224211Y0147508D01*
X0224094Y0147768D01*
X0223971Y0148026D01*
X0223841Y0148280D01*
X0223705Y0148531D01*
X0223564Y0148779D01*
X0223416Y0149023D01*
X0223263Y0149264D01*
X0223103Y0149500D01*
X0222938Y0149733D01*
X0222768Y0149962D01*
X0222592Y0150187D01*
X0222410Y0150407D01*
X0222224Y0150623D01*
X0222032Y0150834D01*
X0221835Y0151041D01*
X0221633Y0151243D01*
X0221426Y0151440D01*
X0221215Y0151632D01*
X0220999Y0151818D01*
X0220779Y0152000D01*
X0220554Y0152176D01*
X0220325Y0152346D01*
X0220092Y0152511D01*
X0219856Y0152671D01*
X0219615Y0152824D01*
X0219371Y0152972D01*
X0219123Y0153113D01*
X0218872Y0153249D01*
X0218618Y0153379D01*
X0218360Y0153502D01*
X0218100Y0153619D01*
X0217837Y0153730D01*
X0217571Y0153834D01*
X0217303Y0153932D01*
X0217033Y0154024D01*
X0216760Y0154109D01*
X0216486Y0154187D01*
X0216210Y0154259D01*
X0215932Y0154324D01*
X0215652Y0154382D01*
X0215371Y0154433D01*
X0215090Y0154478D01*
X0214807Y0154516D01*
X0214523Y0154547D01*
X0214239Y0154571D01*
X0213954Y0154588D01*
X0213668Y0154599D01*
X0213383Y0154602D01*
X0032280Y0154602D01*
X0031995Y0154599D01*
X0031709Y0154588D01*
X0031424Y0154571D01*
X0031140Y0154547D01*
X0030856Y0154516D01*
X0030573Y0154478D01*
X0030292Y0154433D01*
X0030011Y0154382D01*
X0029731Y0154324D01*
X0029453Y0154259D01*
X0029177Y0154187D01*
X0028903Y0154109D01*
X0028630Y0154024D01*
X0028360Y0153932D01*
X0028092Y0153834D01*
X0027826Y0153730D01*
X0027563Y0153619D01*
X0027303Y0153502D01*
X0027045Y0153379D01*
X0026791Y0153249D01*
X0026540Y0153113D01*
X0026292Y0152972D01*
X0026048Y0152824D01*
X0025807Y0152671D01*
X0025571Y0152511D01*
X0025338Y0152346D01*
X0025109Y0152176D01*
X0024884Y0152000D01*
X0024664Y0151818D01*
X0024448Y0151632D01*
X0024237Y0151440D01*
X0024030Y0151243D01*
X0023828Y0151041D01*
X0023631Y0150834D01*
X0023439Y0150623D01*
X0023253Y0150407D01*
X0023071Y0150187D01*
X0022895Y0149962D01*
X0022725Y0149733D01*
X0022560Y0149500D01*
X0022400Y0149264D01*
X0022247Y0149023D01*
X0022099Y0148779D01*
X0021958Y0148531D01*
X0021822Y0148280D01*
X0021692Y0148026D01*
X0021569Y0147768D01*
X0021452Y0147508D01*
X0021341Y0147245D01*
X0021237Y0146979D01*
X0021139Y0146711D01*
X0021047Y0146441D01*
X0020962Y0146168D01*
X0020884Y0145894D01*
X0020812Y0145618D01*
X0020747Y0145340D01*
X0020689Y0145060D01*
X0020638Y0144779D01*
X0020593Y0144498D01*
X0020555Y0144215D01*
X0020524Y0143931D01*
X0020500Y0143647D01*
X0020483Y0143362D01*
X0020472Y0143076D01*
X0020469Y0142791D01*
X0020469Y0036492D01*
X0020472Y0036207D01*
X0020483Y0035921D01*
X0020500Y0035636D01*
X0020524Y0035352D01*
X0020555Y0035068D01*
X0020593Y0034785D01*
X0020638Y0034504D01*
X0020689Y0034223D01*
X0020747Y0033943D01*
X0020812Y0033665D01*
X0020884Y0033389D01*
X0020962Y0033115D01*
X0021047Y0032842D01*
X0021139Y0032572D01*
X0021237Y0032304D01*
X0021341Y0032038D01*
X0021452Y0031775D01*
X0021569Y0031515D01*
X0021692Y0031257D01*
X0021822Y0031003D01*
X0021958Y0030752D01*
X0022099Y0030504D01*
X0022247Y0030260D01*
X0022400Y0030019D01*
X0022560Y0029783D01*
X0022725Y0029550D01*
X0022895Y0029321D01*
X0023071Y0029096D01*
X0023253Y0028876D01*
X0023439Y0028660D01*
X0023631Y0028449D01*
X0023828Y0028242D01*
X0024030Y0028040D01*
X0024237Y0027843D01*
X0024448Y0027651D01*
X0024664Y0027465D01*
X0024884Y0027283D01*
X0025109Y0027107D01*
X0025338Y0026937D01*
X0025571Y0026772D01*
X0025807Y0026612D01*
X0026048Y0026459D01*
X0026292Y0026311D01*
X0026540Y0026170D01*
X0026791Y0026034D01*
X0027045Y0025904D01*
X0027303Y0025781D01*
X0027563Y0025664D01*
X0027826Y0025553D01*
X0028092Y0025449D01*
X0028360Y0025351D01*
X0028630Y0025259D01*
X0028903Y0025174D01*
X0029177Y0025096D01*
X0029453Y0025024D01*
X0029731Y0024959D01*
X0030011Y0024901D01*
X0030292Y0024850D01*
X0030573Y0024805D01*
X0030856Y0024767D01*
X0031140Y0024736D01*
X0031424Y0024712D01*
X0031709Y0024695D01*
X0031995Y0024684D01*
X0032280Y0024681D01*
D11*
X0107516Y0126413D03*
X0107516Y0142949D03*
X0163422Y0142949D03*
X0163422Y0126413D03*
D12*
X0140194Y0148461D02*
X0130745Y0148461D01*
D13*
X0211414Y0140823D03*
X0211414Y0038461D03*
X0034249Y0038461D03*
X0034249Y0140823D03*
D14*
X0022192Y0144389D02*
X0023179Y0147428D01*
X0025058Y0150014D01*
X0027643Y0151892D01*
X0030682Y0152880D01*
X0032280Y0153006D01*
X0213383Y0153006D01*
X0214980Y0152880D01*
X0218020Y0151892D01*
X0220605Y0150014D01*
X0222483Y0147428D01*
X0223471Y0144389D01*
X0223597Y0142791D01*
X0223597Y0036492D01*
X0223471Y0034894D01*
X0222483Y0031855D01*
X0220605Y0029270D01*
X0218020Y0027391D01*
X0214980Y0026404D01*
X0213383Y0026278D01*
X0032280Y0026278D01*
X0030682Y0026404D01*
X0027643Y0027391D01*
X0025058Y0029270D01*
X0023179Y0031855D01*
X0022192Y0034894D01*
X0022066Y0036492D01*
X0022066Y0142791D01*
X0022192Y0144389D01*
X0022214Y0144458D02*
X0051316Y0144458D01*
X0051316Y0145256D02*
X0022473Y0145256D01*
X0022733Y0146055D02*
X0051740Y0146055D01*
X0052019Y0146334D02*
X0051316Y0145631D01*
X0051316Y0138731D01*
X0052019Y0138028D01*
X0058919Y0138028D01*
X0059622Y0138731D01*
X0059622Y0145631D01*
X0058919Y0146334D01*
X0052019Y0146334D01*
X0051316Y0143659D02*
X0022134Y0143659D01*
X0022071Y0142861D02*
X0051316Y0142861D01*
X0051316Y0142062D02*
X0022066Y0142062D01*
X0022066Y0141264D02*
X0051316Y0141264D01*
X0051316Y0140465D02*
X0022066Y0140465D01*
X0022066Y0139667D02*
X0051316Y0139667D01*
X0051316Y0138868D02*
X0022066Y0138868D01*
X0022066Y0138070D02*
X0051978Y0138070D01*
X0058960Y0138070D02*
X0223597Y0138070D01*
X0223597Y0138868D02*
X0059622Y0138868D01*
X0059622Y0139667D02*
X0223597Y0139667D01*
X0223597Y0140465D02*
X0059622Y0140465D01*
X0059622Y0141264D02*
X0223597Y0141264D01*
X0223597Y0142062D02*
X0059622Y0142062D01*
X0059622Y0142861D02*
X0223591Y0142861D01*
X0223528Y0143659D02*
X0059622Y0143659D01*
X0059622Y0144458D02*
X0223449Y0144458D01*
X0223189Y0145256D02*
X0059622Y0145256D01*
X0059198Y0146055D02*
X0222930Y0146055D01*
X0222670Y0146853D02*
X0022992Y0146853D01*
X0023342Y0147652D02*
X0222321Y0147652D01*
X0221741Y0148450D02*
X0023922Y0148450D01*
X0024502Y0149249D02*
X0221161Y0149249D01*
X0220559Y0150047D02*
X0025104Y0150047D01*
X0026203Y0150846D02*
X0219460Y0150846D01*
X0218361Y0151644D02*
X0027302Y0151644D01*
X0029338Y0152443D02*
X0216325Y0152443D01*
X0223597Y0137271D02*
X0022066Y0137271D01*
X0022066Y0136473D02*
X0223597Y0136473D01*
X0223597Y0135674D02*
X0022066Y0135674D01*
X0022066Y0134876D02*
X0223597Y0134876D01*
X0223597Y0134077D02*
X0022066Y0134077D01*
X0022066Y0133279D02*
X0223597Y0133279D01*
X0223597Y0132480D02*
X0022066Y0132480D01*
X0022066Y0131682D02*
X0223597Y0131682D01*
X0223597Y0130883D02*
X0022066Y0130883D01*
X0022066Y0130085D02*
X0105528Y0130085D01*
X0105164Y0129934D02*
X0103996Y0128766D01*
X0103364Y0127239D01*
X0103364Y0125587D01*
X0103996Y0124061D01*
X0105164Y0122893D01*
X0106690Y0122261D01*
X0108342Y0122261D01*
X0109869Y0122893D01*
X0111037Y0124061D01*
X0111669Y0125587D01*
X0111669Y0127239D01*
X0111037Y0128766D01*
X0109869Y0129934D01*
X0108342Y0130566D01*
X0106690Y0130566D01*
X0105164Y0129934D01*
X0104516Y0129286D02*
X0022066Y0129286D01*
X0022066Y0128488D02*
X0103881Y0128488D01*
X0103550Y0127689D02*
X0022066Y0127689D01*
X0022066Y0126891D02*
X0103364Y0126891D01*
X0103364Y0126092D02*
X0022066Y0126092D01*
X0022066Y0125294D02*
X0103485Y0125294D01*
X0103816Y0124495D02*
X0022066Y0124495D01*
X0022066Y0123697D02*
X0104360Y0123697D01*
X0105159Y0122898D02*
X0022066Y0122898D01*
X0022066Y0122099D02*
X0223597Y0122099D01*
X0223597Y0121301D02*
X0022066Y0121301D01*
X0022066Y0120502D02*
X0223597Y0120502D01*
X0223597Y0119704D02*
X0022066Y0119704D01*
X0022066Y0118905D02*
X0223597Y0118905D01*
X0223597Y0118107D02*
X0022066Y0118107D01*
X0022066Y0117308D02*
X0169244Y0117308D01*
X0169519Y0117584D02*
X0168816Y0116881D01*
X0168816Y0109981D01*
X0169519Y0109278D01*
X0176419Y0109278D01*
X0177122Y0109981D01*
X0177122Y0116881D01*
X0176419Y0117584D01*
X0169519Y0117584D01*
X0168816Y0116510D02*
X0022066Y0116510D01*
X0022066Y0115711D02*
X0168816Y0115711D01*
X0168816Y0114913D02*
X0022066Y0114913D01*
X0022066Y0114114D02*
X0168816Y0114114D01*
X0168816Y0113316D02*
X0022066Y0113316D01*
X0022066Y0112517D02*
X0168816Y0112517D01*
X0168816Y0111719D02*
X0022066Y0111719D01*
X0022066Y0110920D02*
X0168816Y0110920D01*
X0168816Y0110122D02*
X0022066Y0110122D01*
X0022066Y0109323D02*
X0169474Y0109323D01*
X0176464Y0109323D02*
X0223597Y0109323D01*
X0223597Y0108525D02*
X0022066Y0108525D01*
X0022066Y0107726D02*
X0223597Y0107726D01*
X0223597Y0106928D02*
X0022066Y0106928D01*
X0022066Y0106129D02*
X0223597Y0106129D01*
X0223597Y0105331D02*
X0022066Y0105331D01*
X0022066Y0104532D02*
X0223597Y0104532D01*
X0223597Y0103734D02*
X0073993Y0103734D01*
X0073562Y0103912D02*
X0072376Y0103912D01*
X0071280Y0103458D01*
X0070442Y0102620D01*
X0069988Y0101524D01*
X0069988Y0100338D01*
X0070442Y0099242D01*
X0070969Y0098715D01*
X0070969Y0088147D01*
X0070442Y0087620D01*
X0069988Y0086524D01*
X0069988Y0085338D01*
X0070442Y0084242D01*
X0071280Y0083404D01*
X0072376Y0082950D01*
X0073562Y0082950D01*
X0074658Y0083404D01*
X0075496Y0084242D01*
X0075950Y0085338D01*
X0075950Y0086524D01*
X0075496Y0087620D01*
X0074969Y0088147D01*
X0074969Y0098715D01*
X0075496Y0099242D01*
X0075950Y0100338D01*
X0075950Y0101524D01*
X0075496Y0102620D01*
X0074658Y0103458D01*
X0073562Y0103912D01*
X0071945Y0103734D02*
X0022066Y0103734D01*
X0022066Y0102935D02*
X0070757Y0102935D01*
X0070242Y0102137D02*
X0022066Y0102137D01*
X0022066Y0101338D02*
X0069988Y0101338D01*
X0069988Y0100540D02*
X0022066Y0100540D01*
X0022066Y0099741D02*
X0070235Y0099741D01*
X0070742Y0098943D02*
X0022066Y0098943D01*
X0022066Y0098144D02*
X0070969Y0098144D01*
X0070969Y0097346D02*
X0022066Y0097346D01*
X0022066Y0096547D02*
X0070969Y0096547D01*
X0070969Y0095749D02*
X0022066Y0095749D01*
X0022066Y0094950D02*
X0070969Y0094950D01*
X0070969Y0094152D02*
X0022066Y0094152D01*
X0022066Y0093353D02*
X0070969Y0093353D01*
X0070969Y0092555D02*
X0022066Y0092555D01*
X0022066Y0091756D02*
X0070969Y0091756D01*
X0070969Y0090958D02*
X0022066Y0090958D01*
X0022066Y0090159D02*
X0070969Y0090159D01*
X0070969Y0089361D02*
X0022066Y0089361D01*
X0022066Y0088562D02*
X0070969Y0088562D01*
X0070586Y0087763D02*
X0022066Y0087763D01*
X0022066Y0086965D02*
X0070171Y0086965D01*
X0069988Y0086166D02*
X0022066Y0086166D01*
X0022066Y0085368D02*
X0069988Y0085368D01*
X0070306Y0084569D02*
X0022066Y0084569D01*
X0022066Y0083771D02*
X0070913Y0083771D01*
X0072322Y0082972D02*
X0022066Y0082972D01*
X0022066Y0082174D02*
X0223597Y0082174D01*
X0223597Y0082972D02*
X0073616Y0082972D01*
X0075025Y0083771D02*
X0223597Y0083771D01*
X0223597Y0084569D02*
X0075632Y0084569D01*
X0075950Y0085368D02*
X0223597Y0085368D01*
X0223597Y0086166D02*
X0100513Y0086166D01*
X0100685Y0086238D02*
X0101413Y0086965D01*
X0101807Y0087916D01*
X0101807Y0088946D01*
X0101413Y0089897D01*
X0100685Y0090625D01*
X0099734Y0091018D01*
X0099460Y0091018D01*
X0093719Y0096760D01*
X0092548Y0097931D01*
X0090878Y0097931D01*
X0090685Y0098125D01*
X0089734Y0098518D01*
X0088704Y0098518D01*
X0087754Y0098125D01*
X0087026Y0097397D01*
X0086632Y0096446D01*
X0086632Y0095416D01*
X0087026Y0094465D01*
X0087754Y0093738D01*
X0088704Y0093344D01*
X0089734Y0093344D01*
X0090685Y0093738D01*
X0090878Y0093931D01*
X0090891Y0093931D01*
X0096632Y0088190D01*
X0096632Y0087916D01*
X0097026Y0086965D01*
X0075768Y0086965D01*
X0075950Y0086166D02*
X0097925Y0086166D01*
X0097754Y0086238D02*
X0098704Y0085844D01*
X0099734Y0085844D01*
X0100685Y0086238D01*
X0101412Y0086965D02*
X0152986Y0086965D01*
X0152530Y0087154D02*
X0153626Y0086700D01*
X0154812Y0086700D01*
X0155908Y0087154D01*
X0156746Y0087992D01*
X0157200Y0089088D01*
X0157200Y0090274D01*
X0156746Y0091370D01*
X0155908Y0092208D01*
X0154812Y0092662D01*
X0153626Y0092662D01*
X0152530Y0092208D01*
X0151692Y0091370D01*
X0151238Y0090274D01*
X0151238Y0089088D01*
X0151692Y0087992D01*
X0152530Y0087154D01*
X0151921Y0087763D02*
X0101743Y0087763D01*
X0101807Y0088562D02*
X0151456Y0088562D01*
X0151238Y0089361D02*
X0101635Y0089361D01*
X0101150Y0090159D02*
X0151238Y0090159D01*
X0151521Y0090958D02*
X0099881Y0090958D01*
X0098723Y0091756D02*
X0152078Y0091756D01*
X0153366Y0092555D02*
X0097924Y0092555D01*
X0097126Y0093353D02*
X0223597Y0093353D01*
X0223597Y0092555D02*
X0155072Y0092555D01*
X0156360Y0091756D02*
X0223597Y0091756D01*
X0223597Y0090958D02*
X0156917Y0090958D01*
X0157200Y0090159D02*
X0223597Y0090159D01*
X0223597Y0089361D02*
X0157200Y0089361D01*
X0156982Y0088562D02*
X0223597Y0088562D01*
X0223597Y0087763D02*
X0156517Y0087763D01*
X0155452Y0086965D02*
X0223597Y0086965D01*
X0223597Y0081375D02*
X0022066Y0081375D01*
X0022066Y0080577D02*
X0223597Y0080577D01*
X0223597Y0079778D02*
X0022066Y0079778D01*
X0022066Y0078980D02*
X0223597Y0078980D01*
X0223597Y0078181D02*
X0022066Y0078181D01*
X0022066Y0077383D02*
X0223597Y0077383D01*
X0223597Y0076584D02*
X0022066Y0076584D01*
X0022066Y0075786D02*
X0223597Y0075786D01*
X0223597Y0074987D02*
X0022066Y0074987D01*
X0022066Y0074189D02*
X0223597Y0074189D01*
X0223597Y0073390D02*
X0022066Y0073390D01*
X0022066Y0072592D02*
X0223597Y0072592D01*
X0223597Y0071793D02*
X0022066Y0071793D01*
X0022066Y0070995D02*
X0168868Y0070995D01*
X0168780Y0070958D02*
X0167942Y0070120D01*
X0167488Y0069024D01*
X0167488Y0067838D01*
X0167942Y0066742D01*
X0168469Y0066215D01*
X0168469Y0058147D01*
X0167942Y0057620D01*
X0167488Y0056524D01*
X0167488Y0055338D01*
X0167942Y0054242D01*
X0168780Y0053404D01*
X0169876Y0052950D01*
X0171062Y0052950D01*
X0172158Y0053404D01*
X0172996Y0054242D01*
X0173450Y0055338D01*
X0173450Y0056524D01*
X0172996Y0057620D01*
X0172469Y0058147D01*
X0172469Y0066215D01*
X0172996Y0066742D01*
X0173450Y0067838D01*
X0173450Y0069024D01*
X0172996Y0070120D01*
X0172158Y0070958D01*
X0171062Y0071412D01*
X0169876Y0071412D01*
X0168780Y0070958D01*
X0168018Y0070196D02*
X0022066Y0070196D01*
X0022066Y0069398D02*
X0167643Y0069398D01*
X0167488Y0068599D02*
X0126818Y0068599D01*
X0127158Y0068458D02*
X0126062Y0068912D01*
X0124876Y0068912D01*
X0123780Y0068458D01*
X0122942Y0067620D01*
X0122488Y0066524D01*
X0122488Y0065338D01*
X0122942Y0064242D01*
X0123469Y0063715D01*
X0123469Y0049397D01*
X0122942Y0048870D01*
X0122488Y0047774D01*
X0122488Y0046588D01*
X0122942Y0045492D01*
X0123780Y0044654D01*
X0124876Y0044200D01*
X0126062Y0044200D01*
X0127158Y0044654D01*
X0127996Y0045492D01*
X0128450Y0046588D01*
X0128450Y0047774D01*
X0127996Y0048870D01*
X0127469Y0049397D01*
X0127469Y0063715D01*
X0127996Y0064242D01*
X0128450Y0065338D01*
X0128450Y0066524D01*
X0127996Y0067620D01*
X0127158Y0068458D01*
X0127815Y0067801D02*
X0167504Y0067801D01*
X0167834Y0067002D02*
X0128252Y0067002D01*
X0128450Y0066204D02*
X0168469Y0066204D01*
X0168469Y0065405D02*
X0128450Y0065405D01*
X0128147Y0064607D02*
X0168469Y0064607D01*
X0168469Y0063808D02*
X0127562Y0063808D01*
X0127469Y0063010D02*
X0168469Y0063010D01*
X0168469Y0062211D02*
X0127469Y0062211D01*
X0127469Y0061413D02*
X0168469Y0061413D01*
X0168469Y0060614D02*
X0127469Y0060614D01*
X0127469Y0059816D02*
X0168469Y0059816D01*
X0168469Y0059017D02*
X0127469Y0059017D01*
X0127469Y0058219D02*
X0168469Y0058219D01*
X0167859Y0057420D02*
X0127469Y0057420D01*
X0127469Y0056622D02*
X0167528Y0056622D01*
X0167488Y0055823D02*
X0127469Y0055823D01*
X0127469Y0055025D02*
X0167618Y0055025D01*
X0167958Y0054226D02*
X0127469Y0054226D01*
X0127469Y0053428D02*
X0168757Y0053428D01*
X0172181Y0053428D02*
X0223597Y0053428D01*
X0223597Y0054226D02*
X0172980Y0054226D01*
X0173320Y0055025D02*
X0223597Y0055025D01*
X0223597Y0055823D02*
X0173450Y0055823D01*
X0173410Y0056622D02*
X0223597Y0056622D01*
X0223597Y0057420D02*
X0173079Y0057420D01*
X0172469Y0058219D02*
X0223597Y0058219D01*
X0223597Y0059017D02*
X0172469Y0059017D01*
X0172469Y0059816D02*
X0223597Y0059816D01*
X0223597Y0060614D02*
X0172469Y0060614D01*
X0172469Y0061413D02*
X0223597Y0061413D01*
X0223597Y0062211D02*
X0172469Y0062211D01*
X0172469Y0063010D02*
X0223597Y0063010D01*
X0223597Y0063808D02*
X0172469Y0063808D01*
X0172469Y0064607D02*
X0223597Y0064607D01*
X0223597Y0065405D02*
X0172469Y0065405D01*
X0172469Y0066204D02*
X0223597Y0066204D01*
X0223597Y0067002D02*
X0173104Y0067002D01*
X0173435Y0067801D02*
X0223597Y0067801D01*
X0223597Y0068599D02*
X0173450Y0068599D01*
X0173295Y0069398D02*
X0223597Y0069398D01*
X0223597Y0070196D02*
X0172920Y0070196D01*
X0172070Y0070995D02*
X0223597Y0070995D01*
X0223597Y0052629D02*
X0127469Y0052629D01*
X0127469Y0051830D02*
X0223597Y0051830D01*
X0223597Y0051032D02*
X0127469Y0051032D01*
X0127469Y0050233D02*
X0223597Y0050233D01*
X0223597Y0049435D02*
X0127469Y0049435D01*
X0128093Y0048636D02*
X0223597Y0048636D01*
X0223597Y0047838D02*
X0128424Y0047838D01*
X0128450Y0047039D02*
X0223597Y0047039D01*
X0223597Y0046241D02*
X0128306Y0046241D01*
X0127946Y0045442D02*
X0223597Y0045442D01*
X0223597Y0044644D02*
X0127134Y0044644D01*
X0123805Y0044644D02*
X0022066Y0044644D01*
X0022066Y0045442D02*
X0122992Y0045442D01*
X0122632Y0046241D02*
X0022066Y0046241D01*
X0022066Y0047039D02*
X0122488Y0047039D01*
X0122515Y0047838D02*
X0022066Y0047838D01*
X0022066Y0048636D02*
X0122845Y0048636D01*
X0123469Y0049435D02*
X0022066Y0049435D01*
X0022066Y0050233D02*
X0123469Y0050233D01*
X0123469Y0051032D02*
X0022066Y0051032D01*
X0022066Y0051830D02*
X0123469Y0051830D01*
X0123469Y0052629D02*
X0022066Y0052629D01*
X0022066Y0053428D02*
X0123469Y0053428D01*
X0123469Y0054226D02*
X0022066Y0054226D01*
X0022066Y0055025D02*
X0123469Y0055025D01*
X0123469Y0055823D02*
X0022066Y0055823D01*
X0022066Y0056622D02*
X0123469Y0056622D01*
X0123469Y0057420D02*
X0022066Y0057420D01*
X0022066Y0058219D02*
X0123469Y0058219D01*
X0123469Y0059017D02*
X0022066Y0059017D01*
X0022066Y0059816D02*
X0123469Y0059816D01*
X0123469Y0060614D02*
X0022066Y0060614D01*
X0022066Y0061413D02*
X0123469Y0061413D01*
X0123469Y0062211D02*
X0022066Y0062211D01*
X0022066Y0063010D02*
X0123469Y0063010D01*
X0123376Y0063808D02*
X0022066Y0063808D01*
X0022066Y0064607D02*
X0122791Y0064607D01*
X0122488Y0065405D02*
X0022066Y0065405D01*
X0022066Y0066204D02*
X0122488Y0066204D01*
X0122686Y0067002D02*
X0022066Y0067002D01*
X0022066Y0067801D02*
X0123123Y0067801D01*
X0124121Y0068599D02*
X0022066Y0068599D01*
X0022066Y0043845D02*
X0223597Y0043845D01*
X0223597Y0043047D02*
X0022066Y0043047D01*
X0022066Y0042248D02*
X0223597Y0042248D01*
X0223597Y0041450D02*
X0022066Y0041450D01*
X0022066Y0040651D02*
X0223597Y0040651D01*
X0223597Y0039853D02*
X0022066Y0039853D01*
X0022066Y0039054D02*
X0223597Y0039054D01*
X0223597Y0038256D02*
X0022066Y0038256D01*
X0022066Y0037457D02*
X0070643Y0037457D01*
X0070769Y0037584D02*
X0070066Y0036881D01*
X0070066Y0029981D01*
X0070769Y0029278D01*
X0077669Y0029278D01*
X0078372Y0029981D01*
X0078372Y0036881D01*
X0077669Y0037584D01*
X0070769Y0037584D01*
X0070066Y0036659D02*
X0022066Y0036659D01*
X0022116Y0035860D02*
X0070066Y0035860D01*
X0070066Y0035062D02*
X0022179Y0035062D01*
X0022397Y0034263D02*
X0070066Y0034263D01*
X0070066Y0033465D02*
X0022656Y0033465D01*
X0022916Y0032666D02*
X0070066Y0032666D01*
X0070066Y0031868D02*
X0023175Y0031868D01*
X0023750Y0031069D02*
X0070066Y0031069D01*
X0070066Y0030271D02*
X0024330Y0030271D01*
X0024911Y0029472D02*
X0070576Y0029472D01*
X0077863Y0029472D02*
X0166826Y0029472D01*
X0167019Y0029278D02*
X0173919Y0029278D01*
X0174622Y0029981D01*
X0174622Y0036881D01*
X0173919Y0037584D01*
X0167019Y0037584D01*
X0166316Y0036881D01*
X0166316Y0029981D01*
X0167019Y0029278D01*
X0166316Y0030271D02*
X0078372Y0030271D01*
X0078372Y0031069D02*
X0166316Y0031069D01*
X0166316Y0031868D02*
X0078372Y0031868D01*
X0078372Y0032666D02*
X0166316Y0032666D01*
X0166316Y0033465D02*
X0078372Y0033465D01*
X0078372Y0034263D02*
X0166316Y0034263D01*
X0166316Y0035062D02*
X0078372Y0035062D01*
X0078372Y0035860D02*
X0166316Y0035860D01*
X0166316Y0036659D02*
X0078372Y0036659D01*
X0077796Y0037457D02*
X0166893Y0037457D01*
X0174046Y0037457D02*
X0223597Y0037457D01*
X0223597Y0036659D02*
X0174622Y0036659D01*
X0174622Y0035860D02*
X0223547Y0035860D01*
X0223484Y0035062D02*
X0174622Y0035062D01*
X0174622Y0034263D02*
X0223266Y0034263D01*
X0223006Y0033465D02*
X0174622Y0033465D01*
X0174622Y0032666D02*
X0222747Y0032666D01*
X0222488Y0031868D02*
X0174622Y0031868D01*
X0174622Y0031069D02*
X0221913Y0031069D01*
X0221332Y0030271D02*
X0174622Y0030271D01*
X0174113Y0029472D02*
X0220752Y0029472D01*
X0219785Y0028674D02*
X0025878Y0028674D01*
X0026977Y0027875D02*
X0218686Y0027875D01*
X0217052Y0027077D02*
X0028611Y0027077D01*
X0032278Y0026278D02*
X0213385Y0026278D01*
X0223597Y0094152D02*
X0096327Y0094152D01*
X0095529Y0094950D02*
X0223597Y0094950D01*
X0223597Y0095749D02*
X0094730Y0095749D01*
X0093932Y0096547D02*
X0223597Y0096547D01*
X0223597Y0097346D02*
X0093133Y0097346D01*
X0090638Y0098144D02*
X0223597Y0098144D01*
X0223597Y0098943D02*
X0075197Y0098943D01*
X0074969Y0098144D02*
X0087801Y0098144D01*
X0087005Y0097346D02*
X0074969Y0097346D01*
X0074969Y0096547D02*
X0086674Y0096547D01*
X0086632Y0095749D02*
X0074969Y0095749D01*
X0074969Y0094950D02*
X0086825Y0094950D01*
X0087340Y0094152D02*
X0074969Y0094152D01*
X0074969Y0093353D02*
X0088682Y0093353D01*
X0089756Y0093353D02*
X0091469Y0093353D01*
X0092267Y0092555D02*
X0074969Y0092555D01*
X0074969Y0091756D02*
X0093066Y0091756D01*
X0093864Y0090958D02*
X0074969Y0090958D01*
X0074969Y0090159D02*
X0094663Y0090159D01*
X0095461Y0089361D02*
X0074969Y0089361D01*
X0074969Y0088562D02*
X0096260Y0088562D01*
X0096695Y0087763D02*
X0075353Y0087763D01*
X0075703Y0099741D02*
X0223597Y0099741D01*
X0223597Y0100540D02*
X0075950Y0100540D01*
X0075950Y0101338D02*
X0223597Y0101338D01*
X0223597Y0102137D02*
X0075696Y0102137D01*
X0075181Y0102935D02*
X0223597Y0102935D01*
X0223597Y0110122D02*
X0177122Y0110122D01*
X0177122Y0110920D02*
X0223597Y0110920D01*
X0223597Y0111719D02*
X0177122Y0111719D01*
X0177122Y0112517D02*
X0223597Y0112517D01*
X0223597Y0113316D02*
X0177122Y0113316D01*
X0177122Y0114114D02*
X0223597Y0114114D01*
X0223597Y0114913D02*
X0177122Y0114913D01*
X0177122Y0115711D02*
X0223597Y0115711D01*
X0223597Y0116510D02*
X0177122Y0116510D01*
X0176694Y0117308D02*
X0223597Y0117308D01*
X0223597Y0122898D02*
X0165779Y0122898D01*
X0165774Y0122893D02*
X0166942Y0124061D01*
X0167575Y0125587D01*
X0167575Y0127239D01*
X0166942Y0128766D01*
X0165774Y0129934D01*
X0164248Y0130566D01*
X0162596Y0130566D01*
X0161070Y0129934D01*
X0159901Y0128766D01*
X0159269Y0127239D01*
X0159269Y0125587D01*
X0159901Y0124061D01*
X0161070Y0122893D01*
X0162596Y0122261D01*
X0164248Y0122261D01*
X0165774Y0122893D01*
X0166578Y0123697D02*
X0223597Y0123697D01*
X0223597Y0124495D02*
X0167122Y0124495D01*
X0167453Y0125294D02*
X0223597Y0125294D01*
X0223597Y0126092D02*
X0167575Y0126092D01*
X0167575Y0126891D02*
X0223597Y0126891D01*
X0223597Y0127689D02*
X0167388Y0127689D01*
X0167058Y0128488D02*
X0223597Y0128488D01*
X0223597Y0129286D02*
X0166422Y0129286D01*
X0165410Y0130085D02*
X0223597Y0130085D01*
X0161433Y0130085D02*
X0109505Y0130085D01*
X0110517Y0129286D02*
X0160422Y0129286D01*
X0159786Y0128488D02*
X0111152Y0128488D01*
X0111483Y0127689D02*
X0159455Y0127689D01*
X0159269Y0126891D02*
X0111669Y0126891D01*
X0111669Y0126092D02*
X0159269Y0126092D01*
X0159391Y0125294D02*
X0111547Y0125294D01*
X0111217Y0124495D02*
X0159722Y0124495D01*
X0160266Y0123697D02*
X0110672Y0123697D01*
X0109874Y0122898D02*
X0161064Y0122898D01*
X0097754Y0086238D02*
X0097026Y0086965D01*
D15*
X0077969Y0074681D03*
X0077969Y0069681D03*
X0077969Y0064681D03*
X0072969Y0085931D03*
X0072969Y0100931D03*
X0089219Y0103431D03*
X0105469Y0103431D03*
X0111719Y0103431D03*
X0117969Y0103431D03*
X0124219Y0107181D03*
X0132969Y0087181D03*
X0137969Y0087181D03*
X0135469Y0082181D03*
X0135469Y0075931D03*
X0135469Y0069681D03*
X0125469Y0065931D03*
X0120469Y0063431D03*
X0111719Y0059681D03*
X0125469Y0047181D03*
X0125469Y0039681D03*
X0119219Y0039681D03*
X0117969Y0033431D03*
X0111719Y0033431D03*
X0106719Y0028431D03*
X0100469Y0028431D03*
X0126719Y0033431D03*
X0132969Y0033431D03*
X0137969Y0028431D03*
X0144219Y0028431D03*
X0134219Y0054681D03*
X0144219Y0062181D03*
X0164564Y0054494D03*
X0170469Y0055931D03*
X0170469Y0068431D03*
X0166001Y0073431D03*
X0166001Y0078431D03*
X0154219Y0089681D03*
X0165469Y0094681D03*
X0165469Y0099681D03*
X0165469Y0104681D03*
X0172969Y0094681D03*
X0179219Y0094681D03*
X0184219Y0094681D03*
X0189219Y0089681D03*
X0194219Y0089681D03*
X0199219Y0089681D03*
X0196719Y0073431D03*
X0191719Y0073431D03*
X0196719Y0058431D03*
X0207969Y0108431D03*
X0207969Y0113431D03*
X0207969Y0118431D03*
X0172969Y0134681D03*
X0172969Y0140931D03*
X0172969Y0147181D03*
X0097969Y0147181D03*
X0097969Y0140931D03*
X0097969Y0134681D03*
X0074219Y0124681D03*
X0067969Y0124681D03*
X0061719Y0124681D03*
X0049219Y0124681D03*
X0045469Y0124681D03*
X0045469Y0102181D03*
X0045469Y0095931D03*
X0051719Y0095931D03*
X0045469Y0074681D03*
X0045469Y0069681D03*
X0045469Y0064681D03*
D16*
X0074219Y0033431D03*
X0170469Y0033431D03*
X0172969Y0113431D03*
X0180469Y0113431D03*
X0066719Y0142181D03*
X0055469Y0142181D03*
D17*
X0089219Y0095931D03*
X0099219Y0088431D03*
D18*
X0091719Y0095931D01*
X0089219Y0095931D01*
X0072969Y0100931D02*
X0072969Y0085931D01*
X0125469Y0065931D02*
X0125469Y0047181D01*
X0170469Y0055931D02*
X0170469Y0068431D01*
M02*
