G75*
%MOIN*%
%OFA0B0*%
%FSLAX25Y25*%
%IPPOS*%
%LPD*%
%AMOC8*
5,1,8,0,0,1.08239X$1,22.5*
%
%ADD10C,0.00394*%
%ADD11R,0.02362X0.08661*%
%ADD12R,0.04331X0.05118*%
%ADD13R,0.09449X0.06299*%
%ADD14R,0.07480X0.05197*%
%ADD15R,0.07874X0.07874*%
%ADD16R,0.05118X0.02362*%
%ADD17R,0.05118X0.04331*%
%ADD18R,0.05118X0.06299*%
%ADD19R,0.16535X0.06299*%
%ADD20C,0.06496*%
%ADD21C,0.07677*%
%ADD22C,0.23622*%
%ADD23C,0.00800*%
%ADD24C,0.04362*%
%ADD25C,0.01600*%
%ADD26C,0.02400*%
%ADD27R,0.05906X0.05906*%
D10*
X0032280Y0024681D02*
X0213383Y0024681D01*
X0213668Y0024684D01*
X0213954Y0024695D01*
X0214239Y0024712D01*
X0214523Y0024736D01*
X0214807Y0024767D01*
X0215090Y0024805D01*
X0215371Y0024850D01*
X0215652Y0024901D01*
X0215932Y0024959D01*
X0216210Y0025024D01*
X0216486Y0025096D01*
X0216760Y0025174D01*
X0217033Y0025259D01*
X0217303Y0025351D01*
X0217571Y0025449D01*
X0217837Y0025553D01*
X0218100Y0025664D01*
X0218360Y0025781D01*
X0218618Y0025904D01*
X0218872Y0026034D01*
X0219123Y0026170D01*
X0219371Y0026311D01*
X0219615Y0026459D01*
X0219856Y0026612D01*
X0220092Y0026772D01*
X0220325Y0026937D01*
X0220554Y0027107D01*
X0220779Y0027283D01*
X0220999Y0027465D01*
X0221215Y0027651D01*
X0221426Y0027843D01*
X0221633Y0028040D01*
X0221835Y0028242D01*
X0222032Y0028449D01*
X0222224Y0028660D01*
X0222410Y0028876D01*
X0222592Y0029096D01*
X0222768Y0029321D01*
X0222938Y0029550D01*
X0223103Y0029783D01*
X0223263Y0030019D01*
X0223416Y0030260D01*
X0223564Y0030504D01*
X0223705Y0030752D01*
X0223841Y0031003D01*
X0223971Y0031257D01*
X0224094Y0031515D01*
X0224211Y0031775D01*
X0224322Y0032038D01*
X0224426Y0032304D01*
X0224524Y0032572D01*
X0224616Y0032842D01*
X0224701Y0033115D01*
X0224779Y0033389D01*
X0224851Y0033665D01*
X0224916Y0033943D01*
X0224974Y0034223D01*
X0225025Y0034504D01*
X0225070Y0034785D01*
X0225108Y0035068D01*
X0225139Y0035352D01*
X0225163Y0035636D01*
X0225180Y0035921D01*
X0225191Y0036207D01*
X0225194Y0036492D01*
X0225194Y0142791D01*
X0225191Y0143076D01*
X0225180Y0143362D01*
X0225163Y0143647D01*
X0225139Y0143931D01*
X0225108Y0144215D01*
X0225070Y0144498D01*
X0225025Y0144779D01*
X0224974Y0145060D01*
X0224916Y0145340D01*
X0224851Y0145618D01*
X0224779Y0145894D01*
X0224701Y0146168D01*
X0224616Y0146441D01*
X0224524Y0146711D01*
X0224426Y0146979D01*
X0224322Y0147245D01*
X0224211Y0147508D01*
X0224094Y0147768D01*
X0223971Y0148026D01*
X0223841Y0148280D01*
X0223705Y0148531D01*
X0223564Y0148779D01*
X0223416Y0149023D01*
X0223263Y0149264D01*
X0223103Y0149500D01*
X0222938Y0149733D01*
X0222768Y0149962D01*
X0222592Y0150187D01*
X0222410Y0150407D01*
X0222224Y0150623D01*
X0222032Y0150834D01*
X0221835Y0151041D01*
X0221633Y0151243D01*
X0221426Y0151440D01*
X0221215Y0151632D01*
X0220999Y0151818D01*
X0220779Y0152000D01*
X0220554Y0152176D01*
X0220325Y0152346D01*
X0220092Y0152511D01*
X0219856Y0152671D01*
X0219615Y0152824D01*
X0219371Y0152972D01*
X0219123Y0153113D01*
X0218872Y0153249D01*
X0218618Y0153379D01*
X0218360Y0153502D01*
X0218100Y0153619D01*
X0217837Y0153730D01*
X0217571Y0153834D01*
X0217303Y0153932D01*
X0217033Y0154024D01*
X0216760Y0154109D01*
X0216486Y0154187D01*
X0216210Y0154259D01*
X0215932Y0154324D01*
X0215652Y0154382D01*
X0215371Y0154433D01*
X0215090Y0154478D01*
X0214807Y0154516D01*
X0214523Y0154547D01*
X0214239Y0154571D01*
X0213954Y0154588D01*
X0213668Y0154599D01*
X0213383Y0154602D01*
X0032280Y0154602D01*
X0031995Y0154599D01*
X0031709Y0154588D01*
X0031424Y0154571D01*
X0031140Y0154547D01*
X0030856Y0154516D01*
X0030573Y0154478D01*
X0030292Y0154433D01*
X0030011Y0154382D01*
X0029731Y0154324D01*
X0029453Y0154259D01*
X0029177Y0154187D01*
X0028903Y0154109D01*
X0028630Y0154024D01*
X0028360Y0153932D01*
X0028092Y0153834D01*
X0027826Y0153730D01*
X0027563Y0153619D01*
X0027303Y0153502D01*
X0027045Y0153379D01*
X0026791Y0153249D01*
X0026540Y0153113D01*
X0026292Y0152972D01*
X0026048Y0152824D01*
X0025807Y0152671D01*
X0025571Y0152511D01*
X0025338Y0152346D01*
X0025109Y0152176D01*
X0024884Y0152000D01*
X0024664Y0151818D01*
X0024448Y0151632D01*
X0024237Y0151440D01*
X0024030Y0151243D01*
X0023828Y0151041D01*
X0023631Y0150834D01*
X0023439Y0150623D01*
X0023253Y0150407D01*
X0023071Y0150187D01*
X0022895Y0149962D01*
X0022725Y0149733D01*
X0022560Y0149500D01*
X0022400Y0149264D01*
X0022247Y0149023D01*
X0022099Y0148779D01*
X0021958Y0148531D01*
X0021822Y0148280D01*
X0021692Y0148026D01*
X0021569Y0147768D01*
X0021452Y0147508D01*
X0021341Y0147245D01*
X0021237Y0146979D01*
X0021139Y0146711D01*
X0021047Y0146441D01*
X0020962Y0146168D01*
X0020884Y0145894D01*
X0020812Y0145618D01*
X0020747Y0145340D01*
X0020689Y0145060D01*
X0020638Y0144779D01*
X0020593Y0144498D01*
X0020555Y0144215D01*
X0020524Y0143931D01*
X0020500Y0143647D01*
X0020483Y0143362D01*
X0020472Y0143076D01*
X0020469Y0142791D01*
X0020469Y0036492D01*
X0020472Y0036207D01*
X0020483Y0035921D01*
X0020500Y0035636D01*
X0020524Y0035352D01*
X0020555Y0035068D01*
X0020593Y0034785D01*
X0020638Y0034504D01*
X0020689Y0034223D01*
X0020747Y0033943D01*
X0020812Y0033665D01*
X0020884Y0033389D01*
X0020962Y0033115D01*
X0021047Y0032842D01*
X0021139Y0032572D01*
X0021237Y0032304D01*
X0021341Y0032038D01*
X0021452Y0031775D01*
X0021569Y0031515D01*
X0021692Y0031257D01*
X0021822Y0031003D01*
X0021958Y0030752D01*
X0022099Y0030504D01*
X0022247Y0030260D01*
X0022400Y0030019D01*
X0022560Y0029783D01*
X0022725Y0029550D01*
X0022895Y0029321D01*
X0023071Y0029096D01*
X0023253Y0028876D01*
X0023439Y0028660D01*
X0023631Y0028449D01*
X0023828Y0028242D01*
X0024030Y0028040D01*
X0024237Y0027843D01*
X0024448Y0027651D01*
X0024664Y0027465D01*
X0024884Y0027283D01*
X0025109Y0027107D01*
X0025338Y0026937D01*
X0025571Y0026772D01*
X0025807Y0026612D01*
X0026048Y0026459D01*
X0026292Y0026311D01*
X0026540Y0026170D01*
X0026791Y0026034D01*
X0027045Y0025904D01*
X0027303Y0025781D01*
X0027563Y0025664D01*
X0027826Y0025553D01*
X0028092Y0025449D01*
X0028360Y0025351D01*
X0028630Y0025259D01*
X0028903Y0025174D01*
X0029177Y0025096D01*
X0029453Y0025024D01*
X0029731Y0024959D01*
X0030011Y0024901D01*
X0030292Y0024850D01*
X0030573Y0024805D01*
X0030856Y0024767D01*
X0031140Y0024736D01*
X0031424Y0024712D01*
X0031709Y0024695D01*
X0031995Y0024684D01*
X0032280Y0024681D01*
D11*
X0049219Y0083195D03*
X0054219Y0083195D03*
X0059219Y0083195D03*
X0064219Y0083195D03*
X0064219Y0103667D03*
X0059219Y0103667D03*
X0054219Y0103667D03*
X0049219Y0103667D03*
X0190469Y0101167D03*
X0195469Y0101167D03*
X0200469Y0101167D03*
X0205469Y0101167D03*
X0205469Y0080695D03*
X0200469Y0080695D03*
X0195469Y0080695D03*
X0190469Y0080695D03*
D12*
X0159869Y0088431D03*
X0153570Y0088431D03*
X0153570Y0095931D03*
X0159869Y0095931D03*
X0159869Y0103431D03*
X0153570Y0103431D03*
X0142369Y0127181D03*
X0136070Y0127181D03*
X0099869Y0084681D03*
X0093570Y0084681D03*
X0077369Y0084681D03*
X0071070Y0084681D03*
X0071070Y0093431D03*
X0077369Y0093431D03*
X0054869Y0113431D03*
X0048570Y0113431D03*
X0063570Y0115931D03*
X0069869Y0115931D03*
X0124820Y0078431D03*
X0131119Y0078431D03*
X0131119Y0070931D03*
X0124820Y0070931D03*
X0169820Y0050931D03*
X0176119Y0050931D03*
X0182320Y0050931D03*
X0188619Y0050931D03*
X0198570Y0109681D03*
X0204869Y0109681D03*
X0204869Y0117181D03*
X0198570Y0117181D03*
X0074869Y0050931D03*
X0068570Y0050931D03*
X0062369Y0050931D03*
X0056070Y0050931D03*
X0054869Y0065931D03*
X0048570Y0065931D03*
X0048570Y0073431D03*
X0054869Y0073431D03*
X0063570Y0073431D03*
X0069869Y0073431D03*
X0069869Y0065931D03*
X0063570Y0065931D03*
D13*
X0102969Y0051837D03*
X0102969Y0040026D03*
X0141719Y0040026D03*
X0141719Y0051837D03*
D14*
X0166719Y0068431D03*
X0166719Y0078431D03*
X0106719Y0082181D03*
X0106719Y0092181D03*
D15*
X0086719Y0087181D03*
X0146719Y0073431D03*
D16*
X0145902Y0085931D03*
X0145902Y0090931D03*
X0145902Y0095931D03*
X0145902Y0100931D03*
X0125036Y0100931D03*
X0125036Y0095931D03*
X0125036Y0090931D03*
X0125036Y0085931D03*
D17*
X0116719Y0084081D03*
X0116719Y0077781D03*
X0116719Y0070331D03*
X0116719Y0064031D03*
X0112969Y0051581D03*
X0112969Y0045281D03*
X0131719Y0045281D03*
X0131719Y0051581D03*
X0174219Y0069031D03*
X0174219Y0075331D03*
X0182969Y0082781D03*
X0182969Y0089081D03*
X0190469Y0110281D03*
X0190469Y0116581D03*
X0139219Y0114081D03*
X0139219Y0107781D03*
X0129219Y0107781D03*
X0129219Y0114081D03*
X0116719Y0097831D03*
X0116719Y0091531D03*
X0090469Y0104031D03*
X0090469Y0110331D03*
X0080469Y0107831D03*
X0080469Y0101531D03*
X0071719Y0101531D03*
X0071719Y0107831D03*
D18*
X0064209Y0123431D03*
X0056729Y0123431D03*
D19*
X0087969Y0051837D03*
X0087969Y0040026D03*
X0156719Y0040026D03*
X0156719Y0051837D03*
D20*
X0161611Y0120823D03*
X0161611Y0129681D03*
X0161611Y0138539D03*
X0179327Y0138539D03*
X0179327Y0120823D03*
X0118077Y0120823D03*
X0100361Y0120823D03*
X0100361Y0129681D03*
X0100361Y0138539D03*
X0118077Y0138539D03*
D21*
X0109219Y0144445D03*
X0109219Y0114917D03*
X0170469Y0114917D03*
X0170469Y0144445D03*
D22*
X0211414Y0140823D03*
X0211414Y0038461D03*
X0034249Y0038461D03*
X0034249Y0140823D03*
D23*
X0022389Y0144358D02*
X0023357Y0147338D01*
X0025199Y0149872D01*
X0027734Y0151714D01*
X0030714Y0152682D01*
X0032280Y0152806D01*
X0213383Y0152806D01*
X0214949Y0152682D01*
X0217929Y0151714D01*
X0220464Y0149872D01*
X0222305Y0147338D01*
X0223273Y0144358D01*
X0223397Y0142791D01*
X0223397Y0036492D01*
X0223273Y0034926D01*
X0222305Y0031946D01*
X0220464Y0029411D01*
X0217929Y0027569D01*
X0214949Y0026601D01*
X0213383Y0026478D01*
X0032280Y0026478D01*
X0030714Y0026601D01*
X0027734Y0027569D01*
X0025199Y0029411D01*
X0023357Y0031946D01*
X0022389Y0034926D01*
X0022266Y0036492D01*
X0022266Y0142791D01*
X0022389Y0144358D01*
X0022422Y0144458D02*
X0059352Y0144458D01*
X0059110Y0144216D02*
X0059110Y0144216D01*
X0060360Y0145466D01*
X0061242Y0145831D01*
X0067197Y0145831D01*
X0068079Y0145466D01*
X0070004Y0143541D01*
X0070369Y0142658D01*
X0070369Y0129204D01*
X0070004Y0128322D01*
X0069329Y0127646D01*
X0068368Y0126686D01*
X0068368Y0119619D01*
X0067431Y0118681D01*
X0067335Y0118681D01*
X0067335Y0112709D01*
X0066398Y0111772D01*
X0061619Y0111772D01*
X0061619Y0109042D01*
X0061719Y0108942D01*
X0062375Y0109598D01*
X0066063Y0109598D01*
X0067000Y0108661D01*
X0067000Y0103931D01*
X0067560Y0103931D01*
X0067560Y0104360D01*
X0068497Y0105297D01*
X0074941Y0105297D01*
X0075878Y0104360D01*
X0075878Y0103931D01*
X0076310Y0103931D01*
X0076310Y0104360D01*
X0076632Y0104681D01*
X0076310Y0105003D01*
X0076310Y0110659D01*
X0077247Y0111596D01*
X0083691Y0111596D01*
X0084628Y0110659D01*
X0084628Y0109990D01*
X0084929Y0109865D01*
X0086310Y0108484D01*
X0086310Y0113159D01*
X0087247Y0114096D01*
X0088069Y0114096D01*
X0088069Y0117658D01*
X0088435Y0118541D01*
X0089110Y0119216D01*
X0092751Y0122857D01*
X0093633Y0123223D01*
X0096108Y0123223D01*
X0096251Y0123569D01*
X0097615Y0124933D01*
X0098385Y0125252D01*
X0097615Y0125571D01*
X0096251Y0126935D01*
X0095513Y0128717D01*
X0095513Y0130645D01*
X0096251Y0132427D01*
X0097615Y0133791D01*
X0099397Y0134529D01*
X0101325Y0134529D01*
X0103107Y0133791D01*
X0104471Y0132427D01*
X0105209Y0130645D01*
X0105209Y0129065D01*
X0105360Y0129216D01*
X0106242Y0129581D01*
X0132304Y0129581D01*
X0132304Y0130403D01*
X0133241Y0131340D01*
X0138898Y0131340D01*
X0139219Y0131019D01*
X0139541Y0131340D01*
X0145197Y0131340D01*
X0146134Y0130403D01*
X0146134Y0129581D01*
X0155730Y0129581D01*
X0156612Y0129216D01*
X0156763Y0129065D01*
X0156763Y0130645D01*
X0157501Y0132427D01*
X0158865Y0133791D01*
X0160647Y0134529D01*
X0162575Y0134529D01*
X0164357Y0133791D01*
X0165721Y0132427D01*
X0166459Y0130645D01*
X0166459Y0128717D01*
X0166299Y0128331D01*
X0187197Y0128331D01*
X0188079Y0127966D01*
X0188754Y0127291D01*
X0192504Y0123541D01*
X0192869Y0122658D01*
X0192869Y0120346D01*
X0193691Y0120346D01*
X0194628Y0119409D01*
X0194628Y0113753D01*
X0194307Y0113431D01*
X0194628Y0113110D01*
X0194628Y0109700D01*
X0194804Y0109876D01*
X0194804Y0112903D01*
X0195332Y0113431D01*
X0194804Y0113959D01*
X0194804Y0120403D01*
X0195741Y0121340D01*
X0201398Y0121340D01*
X0202335Y0120403D01*
X0202335Y0113959D01*
X0201807Y0113431D01*
X0202335Y0112903D01*
X0202335Y0107076D01*
X0202969Y0106442D01*
X0203625Y0107098D01*
X0207313Y0107098D01*
X0208250Y0106161D01*
X0208250Y0097081D01*
X0208447Y0097081D01*
X0209329Y0096716D01*
X0211254Y0094791D01*
X0211619Y0093908D01*
X0211619Y0065454D01*
X0211254Y0064572D01*
X0210579Y0063896D01*
X0204329Y0057646D01*
X0203447Y0057281D01*
X0173963Y0057281D01*
X0172869Y0056187D01*
X0172869Y0054869D01*
X0172969Y0054769D01*
X0173291Y0055090D01*
X0178947Y0055090D01*
X0179219Y0054818D01*
X0179491Y0055090D01*
X0185148Y0055090D01*
X0186085Y0054153D01*
X0186085Y0047709D01*
X0185148Y0046772D01*
X0179491Y0046772D01*
X0179219Y0047044D01*
X0178947Y0046772D01*
X0173291Y0046772D01*
X0172969Y0047094D01*
X0172648Y0046772D01*
X0166991Y0046772D01*
X0166163Y0047600D01*
X0165650Y0047087D01*
X0147789Y0047087D01*
X0147448Y0047428D01*
X0147106Y0047087D01*
X0136332Y0047087D01*
X0135395Y0048024D01*
X0135395Y0048269D01*
X0134941Y0047815D01*
X0128497Y0047815D01*
X0127560Y0048753D01*
X0127560Y0051455D01*
X0126221Y0050900D01*
X0124717Y0050900D01*
X0123327Y0051476D01*
X0122522Y0052281D01*
X0118963Y0052281D01*
X0117128Y0050446D01*
X0117128Y0048753D01*
X0116191Y0047815D01*
X0109747Y0047815D01*
X0109294Y0048269D01*
X0109294Y0048024D01*
X0108356Y0047087D01*
X0097582Y0047087D01*
X0097241Y0047428D01*
X0096900Y0047087D01*
X0079039Y0047087D01*
X0078525Y0047600D01*
X0077697Y0046772D01*
X0072041Y0046772D01*
X0071719Y0047094D01*
X0071398Y0046772D01*
X0065741Y0046772D01*
X0065469Y0047044D01*
X0065197Y0046772D01*
X0059541Y0046772D01*
X0058603Y0047709D01*
X0058603Y0053588D01*
X0057860Y0053896D01*
X0054110Y0057646D01*
X0053435Y0058322D01*
X0053069Y0059204D01*
X0053069Y0061772D01*
X0052041Y0061772D01*
X0051103Y0062709D01*
X0051103Y0069153D01*
X0051632Y0069681D01*
X0051103Y0070209D01*
X0051103Y0076653D01*
X0051419Y0076969D01*
X0051419Y0077620D01*
X0051063Y0077264D01*
X0047375Y0077264D01*
X0046438Y0078201D01*
X0046438Y0088188D01*
X0047375Y0089126D01*
X0051063Y0089126D01*
X0051719Y0088469D01*
X0052375Y0089126D01*
X0056063Y0089126D01*
X0056719Y0088469D01*
X0056819Y0088569D01*
X0056819Y0091408D01*
X0057185Y0092291D01*
X0057860Y0092966D01*
X0058345Y0093451D01*
X0057077Y0093976D01*
X0056014Y0095039D01*
X0055438Y0096429D01*
X0055438Y0097737D01*
X0052375Y0097737D01*
X0051438Y0098674D01*
X0051438Y0108661D01*
X0051819Y0109042D01*
X0051819Y0109494D01*
X0051103Y0110209D01*
X0051103Y0116653D01*
X0052041Y0117590D01*
X0053069Y0117590D01*
X0053069Y0119120D01*
X0052570Y0119619D01*
X0052570Y0127243D01*
X0053507Y0128181D01*
X0058575Y0128181D01*
X0058435Y0128322D01*
X0058069Y0129204D01*
X0058069Y0142658D01*
X0058435Y0143541D01*
X0059110Y0144216D01*
X0058553Y0143659D02*
X0022334Y0143659D01*
X0022271Y0142861D02*
X0058153Y0142861D01*
X0058069Y0142062D02*
X0022266Y0142062D01*
X0022266Y0141264D02*
X0058069Y0141264D01*
X0058069Y0140465D02*
X0022266Y0140465D01*
X0022266Y0139667D02*
X0058069Y0139667D01*
X0058069Y0138868D02*
X0022266Y0138868D01*
X0022266Y0138070D02*
X0058069Y0138070D01*
X0058069Y0137271D02*
X0022266Y0137271D01*
X0022266Y0136473D02*
X0058069Y0136473D01*
X0058069Y0135674D02*
X0022266Y0135674D01*
X0022266Y0134876D02*
X0058069Y0134876D01*
X0058069Y0134077D02*
X0022266Y0134077D01*
X0022266Y0133279D02*
X0058069Y0133279D01*
X0058069Y0132480D02*
X0022266Y0132480D01*
X0022266Y0131682D02*
X0058069Y0131682D01*
X0058069Y0130883D02*
X0022266Y0130883D01*
X0022266Y0130085D02*
X0058069Y0130085D01*
X0058069Y0129286D02*
X0022266Y0129286D01*
X0022266Y0128488D02*
X0058366Y0128488D01*
X0053016Y0127689D02*
X0022266Y0127689D01*
X0022266Y0126891D02*
X0052570Y0126891D01*
X0052570Y0126092D02*
X0022266Y0126092D01*
X0022266Y0125294D02*
X0052570Y0125294D01*
X0052570Y0124495D02*
X0022266Y0124495D01*
X0022266Y0123697D02*
X0052570Y0123697D01*
X0052570Y0122898D02*
X0022266Y0122898D01*
X0022266Y0122099D02*
X0052570Y0122099D01*
X0052570Y0121301D02*
X0022266Y0121301D01*
X0022266Y0120502D02*
X0052570Y0120502D01*
X0052570Y0119704D02*
X0022266Y0119704D01*
X0022266Y0118905D02*
X0053069Y0118905D01*
X0053069Y0118107D02*
X0022266Y0118107D01*
X0022266Y0117308D02*
X0051759Y0117308D01*
X0051103Y0116510D02*
X0022266Y0116510D01*
X0022266Y0115711D02*
X0051103Y0115711D01*
X0051103Y0114913D02*
X0022266Y0114913D01*
X0022266Y0114114D02*
X0051103Y0114114D01*
X0051103Y0113316D02*
X0022266Y0113316D01*
X0022266Y0112517D02*
X0051103Y0112517D01*
X0051103Y0111719D02*
X0022266Y0111719D01*
X0022266Y0110920D02*
X0051103Y0110920D01*
X0051191Y0110122D02*
X0022266Y0110122D01*
X0022266Y0109323D02*
X0051819Y0109323D01*
X0051438Y0108525D02*
X0022266Y0108525D01*
X0022266Y0107726D02*
X0051438Y0107726D01*
X0051438Y0106928D02*
X0022266Y0106928D01*
X0022266Y0106129D02*
X0051438Y0106129D01*
X0051438Y0105331D02*
X0022266Y0105331D01*
X0022266Y0104532D02*
X0051438Y0104532D01*
X0051438Y0103734D02*
X0022266Y0103734D01*
X0022266Y0102935D02*
X0051438Y0102935D01*
X0051438Y0102137D02*
X0022266Y0102137D01*
X0022266Y0101338D02*
X0051438Y0101338D01*
X0051438Y0100540D02*
X0022266Y0100540D01*
X0022266Y0099741D02*
X0051438Y0099741D01*
X0051438Y0098943D02*
X0022266Y0098943D01*
X0022266Y0098144D02*
X0051968Y0098144D01*
X0055438Y0097346D02*
X0022266Y0097346D01*
X0022266Y0096547D02*
X0055438Y0096547D01*
X0055720Y0095749D02*
X0022266Y0095749D01*
X0022266Y0094950D02*
X0056103Y0094950D01*
X0056901Y0094152D02*
X0022266Y0094152D01*
X0022266Y0093353D02*
X0058247Y0093353D01*
X0057449Y0092555D02*
X0022266Y0092555D01*
X0022266Y0091756D02*
X0056963Y0091756D01*
X0056819Y0090958D02*
X0022266Y0090958D01*
X0022266Y0090159D02*
X0056819Y0090159D01*
X0056819Y0089361D02*
X0022266Y0089361D01*
X0022266Y0088562D02*
X0046812Y0088562D01*
X0046438Y0087763D02*
X0022266Y0087763D01*
X0022266Y0086965D02*
X0046438Y0086965D01*
X0046438Y0086166D02*
X0022266Y0086166D01*
X0022266Y0085368D02*
X0046438Y0085368D01*
X0046438Y0084569D02*
X0022266Y0084569D01*
X0022266Y0083771D02*
X0046438Y0083771D01*
X0046438Y0082972D02*
X0022266Y0082972D01*
X0022266Y0082174D02*
X0046438Y0082174D01*
X0046438Y0081375D02*
X0022266Y0081375D01*
X0022266Y0080577D02*
X0046438Y0080577D01*
X0046438Y0079778D02*
X0022266Y0079778D01*
X0022266Y0078980D02*
X0046438Y0078980D01*
X0046458Y0078181D02*
X0022266Y0078181D01*
X0022266Y0077383D02*
X0047257Y0077383D01*
X0051182Y0077383D02*
X0051419Y0077383D01*
X0051103Y0076584D02*
X0022266Y0076584D01*
X0022266Y0075786D02*
X0051103Y0075786D01*
X0051103Y0074987D02*
X0022266Y0074987D01*
X0022266Y0074189D02*
X0051103Y0074189D01*
X0051103Y0073390D02*
X0022266Y0073390D01*
X0022266Y0072592D02*
X0051103Y0072592D01*
X0051103Y0071793D02*
X0022266Y0071793D01*
X0022266Y0070995D02*
X0051103Y0070995D01*
X0051116Y0070196D02*
X0022266Y0070196D01*
X0022266Y0069398D02*
X0051348Y0069398D01*
X0051103Y0068599D02*
X0022266Y0068599D01*
X0022266Y0067801D02*
X0051103Y0067801D01*
X0051103Y0067002D02*
X0022266Y0067002D01*
X0022266Y0066204D02*
X0051103Y0066204D01*
X0051103Y0065405D02*
X0022266Y0065405D01*
X0022266Y0064607D02*
X0051103Y0064607D01*
X0051103Y0063808D02*
X0022266Y0063808D01*
X0022266Y0063010D02*
X0051103Y0063010D01*
X0051602Y0062211D02*
X0022266Y0062211D01*
X0022266Y0061413D02*
X0053069Y0061413D01*
X0053069Y0060614D02*
X0022266Y0060614D01*
X0022266Y0059816D02*
X0053069Y0059816D01*
X0053146Y0059017D02*
X0022266Y0059017D01*
X0022266Y0058219D02*
X0053538Y0058219D01*
X0054336Y0057420D02*
X0022266Y0057420D01*
X0022266Y0056622D02*
X0055135Y0056622D01*
X0055933Y0055823D02*
X0022266Y0055823D01*
X0022266Y0055025D02*
X0056732Y0055025D01*
X0057530Y0054226D02*
X0022266Y0054226D01*
X0022266Y0053428D02*
X0058603Y0053428D01*
X0058603Y0052629D02*
X0022266Y0052629D01*
X0022266Y0051830D02*
X0058603Y0051830D01*
X0058603Y0051032D02*
X0022266Y0051032D01*
X0022266Y0050233D02*
X0058603Y0050233D01*
X0058603Y0049435D02*
X0022266Y0049435D01*
X0022266Y0048636D02*
X0058603Y0048636D01*
X0058603Y0047838D02*
X0022266Y0047838D01*
X0022266Y0047039D02*
X0059273Y0047039D01*
X0065464Y0047039D02*
X0065474Y0047039D01*
X0071665Y0047039D02*
X0071773Y0047039D01*
X0070604Y0042984D02*
X0069666Y0042047D01*
X0069666Y0034816D01*
X0070604Y0033878D01*
X0077835Y0033878D01*
X0078772Y0034816D01*
X0078772Y0035543D01*
X0079039Y0035276D01*
X0096900Y0035276D01*
X0097837Y0036213D01*
X0097837Y0043838D01*
X0096900Y0044775D01*
X0079039Y0044775D01*
X0078101Y0043838D01*
X0078101Y0042717D01*
X0077835Y0042984D01*
X0070604Y0042984D01*
X0069868Y0042248D02*
X0022266Y0042248D01*
X0022266Y0041450D02*
X0069666Y0041450D01*
X0069666Y0040651D02*
X0022266Y0040651D01*
X0022266Y0039853D02*
X0069666Y0039853D01*
X0069666Y0039054D02*
X0022266Y0039054D01*
X0022266Y0038256D02*
X0069666Y0038256D01*
X0069666Y0037457D02*
X0022266Y0037457D01*
X0022266Y0036659D02*
X0069666Y0036659D01*
X0069666Y0035860D02*
X0022316Y0035860D01*
X0022379Y0035062D02*
X0069666Y0035062D01*
X0070219Y0034263D02*
X0022604Y0034263D01*
X0022864Y0033465D02*
X0222799Y0033465D01*
X0223058Y0034263D02*
X0174470Y0034263D01*
X0174085Y0033878D02*
X0175022Y0034816D01*
X0175022Y0042047D01*
X0174085Y0042984D01*
X0166854Y0042984D01*
X0166587Y0042717D01*
X0166587Y0043838D01*
X0165650Y0044775D01*
X0147789Y0044775D01*
X0146851Y0043838D01*
X0146851Y0036213D01*
X0147789Y0035276D01*
X0165650Y0035276D01*
X0165916Y0035543D01*
X0165916Y0034816D01*
X0166854Y0033878D01*
X0174085Y0033878D01*
X0175022Y0035062D02*
X0223284Y0035062D01*
X0223347Y0035860D02*
X0175022Y0035860D01*
X0175022Y0036659D02*
X0223397Y0036659D01*
X0223397Y0037457D02*
X0175022Y0037457D01*
X0175022Y0038256D02*
X0223397Y0038256D01*
X0223397Y0039054D02*
X0175022Y0039054D01*
X0175022Y0039853D02*
X0223397Y0039853D01*
X0223397Y0040651D02*
X0175022Y0040651D01*
X0175022Y0041450D02*
X0223397Y0041450D01*
X0223397Y0042248D02*
X0174820Y0042248D01*
X0173023Y0047039D02*
X0172915Y0047039D01*
X0179214Y0047039D02*
X0179224Y0047039D01*
X0185415Y0047039D02*
X0223397Y0047039D01*
X0223397Y0046241D02*
X0022266Y0046241D01*
X0022266Y0045442D02*
X0223397Y0045442D01*
X0223397Y0044644D02*
X0165781Y0044644D01*
X0166579Y0043845D02*
X0223397Y0043845D01*
X0223397Y0043047D02*
X0166587Y0043047D01*
X0166724Y0047039D02*
X0077964Y0047039D01*
X0078907Y0044644D02*
X0022266Y0044644D01*
X0022266Y0043845D02*
X0078109Y0043845D01*
X0078101Y0043047D02*
X0022266Y0043047D01*
X0023123Y0032666D02*
X0222539Y0032666D01*
X0222249Y0031868D02*
X0023414Y0031868D01*
X0023994Y0031069D02*
X0221668Y0031069D01*
X0221088Y0030271D02*
X0024575Y0030271D01*
X0025155Y0029472D02*
X0220508Y0029472D01*
X0219449Y0028674D02*
X0026214Y0028674D01*
X0027313Y0027875D02*
X0218350Y0027875D01*
X0216412Y0027077D02*
X0029250Y0027077D01*
X0078220Y0034263D02*
X0166469Y0034263D01*
X0165916Y0035062D02*
X0078772Y0035062D01*
X0097031Y0044644D02*
X0147657Y0044644D01*
X0146859Y0043845D02*
X0097829Y0043845D01*
X0097837Y0043047D02*
X0146851Y0043047D01*
X0146851Y0042248D02*
X0097837Y0042248D01*
X0097837Y0041450D02*
X0146851Y0041450D01*
X0146851Y0040651D02*
X0097837Y0040651D01*
X0097837Y0039853D02*
X0146851Y0039853D01*
X0146851Y0039054D02*
X0097837Y0039054D01*
X0097837Y0038256D02*
X0146851Y0038256D01*
X0146851Y0037457D02*
X0097837Y0037457D01*
X0097837Y0036659D02*
X0146851Y0036659D01*
X0147204Y0035860D02*
X0097484Y0035860D01*
X0109107Y0047838D02*
X0109725Y0047838D01*
X0116214Y0047838D02*
X0128475Y0047838D01*
X0127676Y0048636D02*
X0117012Y0048636D01*
X0117128Y0049435D02*
X0127560Y0049435D01*
X0127560Y0050233D02*
X0117128Y0050233D01*
X0117714Y0051032D02*
X0124398Y0051032D01*
X0122972Y0051830D02*
X0118513Y0051830D01*
X0126540Y0051032D02*
X0127560Y0051032D01*
X0134964Y0047838D02*
X0135581Y0047838D01*
X0113079Y0060685D02*
X0112810Y0060416D01*
X0111975Y0059581D01*
X0082713Y0059581D01*
X0080579Y0061716D01*
X0079697Y0062081D01*
X0066707Y0062081D01*
X0067335Y0062709D01*
X0067335Y0069153D01*
X0066807Y0069681D01*
X0067335Y0070209D01*
X0067335Y0076653D01*
X0067019Y0076969D01*
X0067019Y0077281D01*
X0082522Y0077281D01*
X0083327Y0076476D01*
X0084717Y0075900D01*
X0086221Y0075900D01*
X0087611Y0076476D01*
X0088675Y0077539D01*
X0089250Y0078929D01*
X0089250Y0080433D01*
X0088749Y0081644D01*
X0089804Y0081644D01*
X0089804Y0081459D01*
X0090741Y0080522D01*
X0096398Y0080522D01*
X0096719Y0080844D01*
X0097041Y0080522D01*
X0101379Y0080522D01*
X0101379Y0078920D01*
X0102316Y0077983D01*
X0111122Y0077983D01*
X0112059Y0078920D01*
X0112059Y0082281D01*
X0112560Y0082281D01*
X0112560Y0081253D01*
X0112882Y0080931D01*
X0112560Y0080610D01*
X0112560Y0074953D01*
X0113457Y0074056D01*
X0112560Y0073159D01*
X0112560Y0067503D01*
X0112882Y0067181D01*
X0112560Y0066860D01*
X0112560Y0061203D01*
X0113079Y0060685D01*
X0113008Y0060614D02*
X0081680Y0060614D01*
X0080882Y0061413D02*
X0112560Y0061413D01*
X0112560Y0062211D02*
X0066837Y0062211D01*
X0067335Y0063010D02*
X0112560Y0063010D01*
X0112560Y0063808D02*
X0067335Y0063808D01*
X0067335Y0064607D02*
X0112560Y0064607D01*
X0112560Y0065405D02*
X0067335Y0065405D01*
X0067335Y0066204D02*
X0112560Y0066204D01*
X0112703Y0067002D02*
X0067335Y0067002D01*
X0067335Y0067801D02*
X0112560Y0067801D01*
X0112560Y0068599D02*
X0067335Y0068599D01*
X0067090Y0069398D02*
X0112560Y0069398D01*
X0112560Y0070196D02*
X0067322Y0070196D01*
X0067335Y0070995D02*
X0112560Y0070995D01*
X0112560Y0071793D02*
X0067335Y0071793D01*
X0067335Y0072592D02*
X0112560Y0072592D01*
X0112792Y0073390D02*
X0067335Y0073390D01*
X0067335Y0074189D02*
X0113325Y0074189D01*
X0112560Y0074987D02*
X0067335Y0074987D01*
X0067335Y0075786D02*
X0112560Y0075786D01*
X0112560Y0076584D02*
X0087720Y0076584D01*
X0088518Y0077383D02*
X0112560Y0077383D01*
X0112560Y0078181D02*
X0111321Y0078181D01*
X0112059Y0078980D02*
X0112560Y0078980D01*
X0112560Y0079778D02*
X0112059Y0079778D01*
X0112059Y0080577D02*
X0112560Y0080577D01*
X0112560Y0081375D02*
X0112059Y0081375D01*
X0112059Y0082174D02*
X0112560Y0082174D01*
X0112732Y0087081D02*
X0103634Y0087081D01*
X0103634Y0087903D01*
X0103554Y0087983D01*
X0111122Y0087983D01*
X0112059Y0088920D01*
X0112059Y0095442D01*
X0111122Y0096380D01*
X0102316Y0096380D01*
X0101379Y0095442D01*
X0101379Y0088920D01*
X0101459Y0088840D01*
X0097041Y0088840D01*
X0096719Y0088519D01*
X0096398Y0088840D01*
X0092256Y0088840D01*
X0092256Y0091781D01*
X0091319Y0092718D01*
X0090650Y0092718D01*
X0091829Y0093896D01*
X0092504Y0094572D01*
X0092869Y0095454D01*
X0092869Y0100266D01*
X0093691Y0100266D01*
X0094628Y0101203D01*
X0094628Y0106860D01*
X0094307Y0107181D01*
X0094628Y0107503D01*
X0094628Y0113159D01*
X0093691Y0114096D01*
X0092869Y0114096D01*
X0092869Y0116187D01*
X0095105Y0118423D01*
X0096108Y0118423D01*
X0096251Y0118077D01*
X0097615Y0116713D01*
X0099397Y0115975D01*
X0101325Y0115975D01*
X0103107Y0116713D01*
X0104471Y0118077D01*
X0105209Y0119858D01*
X0105209Y0121787D01*
X0105066Y0122133D01*
X0107713Y0124781D01*
X0115180Y0124781D01*
X0113967Y0123569D01*
X0113229Y0121787D01*
X0113229Y0119858D01*
X0113967Y0118077D01*
X0115331Y0116713D01*
X0117113Y0115975D01*
X0119042Y0115975D01*
X0120824Y0116713D01*
X0122187Y0118077D01*
X0122925Y0119858D01*
X0122925Y0121787D01*
X0122187Y0123569D01*
X0120975Y0124781D01*
X0132304Y0124781D01*
X0132304Y0123959D01*
X0133241Y0123022D01*
X0138898Y0123022D01*
X0139219Y0123344D01*
X0139541Y0123022D01*
X0145197Y0123022D01*
X0146134Y0123959D01*
X0146134Y0124781D01*
X0154259Y0124781D01*
X0156906Y0122133D01*
X0156763Y0121787D01*
X0156763Y0119858D01*
X0157501Y0118077D01*
X0158865Y0116713D01*
X0160647Y0115975D01*
X0162575Y0115975D01*
X0164357Y0116713D01*
X0165721Y0118077D01*
X0166459Y0119858D01*
X0166459Y0121787D01*
X0166316Y0122133D01*
X0167713Y0123531D01*
X0175202Y0123531D01*
X0174479Y0121787D01*
X0174479Y0119858D01*
X0175217Y0118077D01*
X0176581Y0116713D01*
X0178363Y0115975D01*
X0180292Y0115975D01*
X0182074Y0116713D01*
X0183437Y0118077D01*
X0184175Y0119858D01*
X0184175Y0121787D01*
X0183453Y0123531D01*
X0185725Y0123531D01*
X0188069Y0121187D01*
X0188069Y0120346D01*
X0187247Y0120346D01*
X0186310Y0119409D01*
X0186310Y0113753D01*
X0186632Y0113431D01*
X0186310Y0113110D01*
X0186310Y0107453D01*
X0187247Y0106516D01*
X0187669Y0106516D01*
X0187669Y0100610D01*
X0187688Y0100565D01*
X0187688Y0096174D01*
X0188625Y0095237D01*
X0192313Y0095237D01*
X0192969Y0095893D01*
X0193625Y0095237D01*
X0197313Y0095237D01*
X0197969Y0095893D01*
X0198069Y0095793D01*
X0198069Y0095454D01*
X0198435Y0094572D01*
X0199685Y0093322D01*
X0200360Y0092646D01*
X0201242Y0092281D01*
X0206819Y0092281D01*
X0206819Y0086626D01*
X0203625Y0086626D01*
X0202969Y0085969D01*
X0202313Y0086626D01*
X0198625Y0086626D01*
X0197688Y0085688D01*
X0197688Y0075701D01*
X0198625Y0074764D01*
X0202313Y0074764D01*
X0202969Y0075420D01*
X0203069Y0075320D01*
X0203069Y0068175D01*
X0200725Y0065831D01*
X0178006Y0065831D01*
X0178378Y0066203D01*
X0178378Y0071860D01*
X0177441Y0072797D01*
X0170997Y0072797D01*
X0170830Y0072630D01*
X0162316Y0072630D01*
X0161379Y0071692D01*
X0161379Y0070831D01*
X0161242Y0070831D01*
X0160360Y0070466D01*
X0159685Y0069791D01*
X0158225Y0068331D01*
X0156966Y0068331D01*
X0157425Y0068789D01*
X0158000Y0070179D01*
X0158000Y0071683D01*
X0157425Y0073073D01*
X0156619Y0073878D01*
X0156619Y0084494D01*
X0156719Y0084594D01*
X0157041Y0084272D01*
X0157469Y0084272D01*
X0157469Y0081054D01*
X0157834Y0080172D01*
X0158509Y0079497D01*
X0161379Y0076627D01*
X0161379Y0075170D01*
X0162316Y0074233D01*
X0171122Y0074233D01*
X0172059Y0075170D01*
X0172059Y0081692D01*
X0171122Y0082630D01*
X0162316Y0082630D01*
X0162269Y0082582D01*
X0162269Y0084272D01*
X0162697Y0084272D01*
X0163634Y0085209D01*
X0163634Y0091653D01*
X0162697Y0092590D01*
X0157216Y0092590D01*
X0157335Y0092709D01*
X0157335Y0099153D01*
X0156807Y0099681D01*
X0157335Y0100209D01*
X0157335Y0106653D01*
X0156398Y0107590D01*
X0150741Y0107590D01*
X0149804Y0106653D01*
X0149804Y0103032D01*
X0149124Y0103712D01*
X0142680Y0103712D01*
X0141743Y0102775D01*
X0141743Y0099087D01*
X0142399Y0098431D01*
X0141743Y0097775D01*
X0141743Y0094301D01*
X0141619Y0094425D01*
X0141619Y0104016D01*
X0142441Y0104016D01*
X0143378Y0104953D01*
X0143378Y0106031D01*
X0148447Y0106031D01*
X0149329Y0106396D01*
X0150004Y0107072D01*
X0151254Y0108322D01*
X0151484Y0108878D01*
X0152835Y0108878D01*
X0153772Y0109816D01*
X0153772Y0117047D01*
X0152835Y0117984D01*
X0145604Y0117984D01*
X0144666Y0117047D01*
X0144666Y0110831D01*
X0143157Y0110831D01*
X0143057Y0110931D01*
X0143378Y0111253D01*
X0143378Y0116909D01*
X0142441Y0117846D01*
X0135997Y0117846D01*
X0135060Y0116909D01*
X0135060Y0116481D01*
X0133378Y0116481D01*
X0133378Y0116909D01*
X0132441Y0117846D01*
X0125997Y0117846D01*
X0125060Y0116909D01*
X0125060Y0111253D01*
X0125997Y0110315D01*
X0131819Y0110315D01*
X0131819Y0100675D01*
X0129475Y0098331D01*
X0128639Y0098331D01*
X0128539Y0098431D01*
X0129195Y0099087D01*
X0129195Y0102775D01*
X0128258Y0103712D01*
X0121814Y0103712D01*
X0120877Y0102775D01*
X0120877Y0099087D01*
X0121533Y0098431D01*
X0120877Y0097775D01*
X0120877Y0094361D01*
X0119941Y0095297D01*
X0113497Y0095297D01*
X0112560Y0094360D01*
X0112560Y0088703D01*
X0113457Y0087806D01*
X0112732Y0087081D01*
X0113415Y0087763D02*
X0103634Y0087763D01*
X0101379Y0089361D02*
X0092256Y0089361D01*
X0092256Y0090159D02*
X0101379Y0090159D01*
X0101379Y0090958D02*
X0092256Y0090958D01*
X0092256Y0091756D02*
X0101379Y0091756D01*
X0101379Y0092555D02*
X0091482Y0092555D01*
X0091285Y0093353D02*
X0101379Y0093353D01*
X0101379Y0094152D02*
X0092084Y0094152D01*
X0092661Y0094950D02*
X0101379Y0094950D01*
X0101685Y0095749D02*
X0092869Y0095749D01*
X0092869Y0096547D02*
X0120877Y0096547D01*
X0120877Y0095749D02*
X0111753Y0095749D01*
X0112059Y0094950D02*
X0113151Y0094950D01*
X0112560Y0094152D02*
X0112059Y0094152D01*
X0112059Y0093353D02*
X0112560Y0093353D01*
X0112560Y0092555D02*
X0112059Y0092555D01*
X0112059Y0091756D02*
X0112560Y0091756D01*
X0112560Y0090958D02*
X0112059Y0090958D01*
X0112059Y0090159D02*
X0112560Y0090159D01*
X0112560Y0089361D02*
X0112059Y0089361D01*
X0111701Y0088562D02*
X0112701Y0088562D01*
X0120288Y0094950D02*
X0120877Y0094950D01*
X0120877Y0097346D02*
X0092869Y0097346D01*
X0092869Y0098144D02*
X0121246Y0098144D01*
X0121022Y0098943D02*
X0092869Y0098943D01*
X0092869Y0099741D02*
X0120877Y0099741D01*
X0120877Y0100540D02*
X0093964Y0100540D01*
X0094628Y0101338D02*
X0120877Y0101338D01*
X0120877Y0102137D02*
X0094628Y0102137D01*
X0094628Y0102935D02*
X0121037Y0102935D01*
X0129035Y0102935D02*
X0131819Y0102935D01*
X0131819Y0102137D02*
X0129195Y0102137D01*
X0129195Y0101338D02*
X0131819Y0101338D01*
X0131684Y0100540D02*
X0129195Y0100540D01*
X0129195Y0099741D02*
X0130885Y0099741D01*
X0130087Y0098943D02*
X0129051Y0098943D01*
X0132882Y0094950D02*
X0136819Y0094950D01*
X0136819Y0094152D02*
X0132084Y0094152D01*
X0131829Y0093896D02*
X0135579Y0097646D01*
X0136254Y0098322D01*
X0136619Y0099204D01*
X0136619Y0104016D01*
X0136819Y0104016D01*
X0136819Y0092954D01*
X0137185Y0092072D01*
X0137860Y0091396D01*
X0140360Y0088896D01*
X0141242Y0088531D01*
X0142299Y0088531D01*
X0142399Y0088431D01*
X0141743Y0087775D01*
X0141743Y0084087D01*
X0142680Y0083150D01*
X0143502Y0083150D01*
X0143502Y0078968D01*
X0142119Y0078968D01*
X0141182Y0078031D01*
X0141182Y0068831D01*
X0141682Y0068331D01*
X0128585Y0068331D01*
X0128585Y0074153D01*
X0128057Y0074681D01*
X0128585Y0075209D01*
X0128585Y0081653D01*
X0127648Y0082590D01*
X0127620Y0082590D01*
X0127620Y0083150D01*
X0128258Y0083150D01*
X0129195Y0084087D01*
X0129195Y0087775D01*
X0128539Y0088431D01*
X0129195Y0089087D01*
X0129195Y0092775D01*
X0128539Y0093431D01*
X0128639Y0093531D01*
X0130947Y0093531D01*
X0131829Y0093896D01*
X0133681Y0095749D02*
X0136819Y0095749D01*
X0136819Y0096547D02*
X0134479Y0096547D01*
X0135278Y0097346D02*
X0136819Y0097346D01*
X0136819Y0098144D02*
X0136076Y0098144D01*
X0136511Y0098943D02*
X0136819Y0098943D01*
X0136819Y0099741D02*
X0136619Y0099741D01*
X0136619Y0100540D02*
X0136819Y0100540D01*
X0136819Y0101338D02*
X0136619Y0101338D01*
X0136619Y0102137D02*
X0136819Y0102137D01*
X0136819Y0102935D02*
X0136619Y0102935D01*
X0136619Y0103734D02*
X0136819Y0103734D01*
X0141619Y0103734D02*
X0149804Y0103734D01*
X0149804Y0104532D02*
X0142957Y0104532D01*
X0143378Y0105331D02*
X0149804Y0105331D01*
X0149804Y0106129D02*
X0148684Y0106129D01*
X0149860Y0106928D02*
X0150079Y0106928D01*
X0150658Y0107726D02*
X0186310Y0107726D01*
X0186310Y0108525D02*
X0151338Y0108525D01*
X0153280Y0109323D02*
X0186310Y0109323D01*
X0186310Y0110122D02*
X0173103Y0110122D01*
X0173550Y0110307D02*
X0175080Y0111837D01*
X0175908Y0113836D01*
X0175908Y0115999D01*
X0175080Y0117998D01*
X0173550Y0119528D01*
X0171551Y0120356D01*
X0169387Y0120356D01*
X0167388Y0119528D01*
X0165859Y0117998D01*
X0165031Y0115999D01*
X0165031Y0113836D01*
X0165859Y0111837D01*
X0167388Y0110307D01*
X0169387Y0109479D01*
X0171551Y0109479D01*
X0173550Y0110307D01*
X0174163Y0110920D02*
X0186310Y0110920D01*
X0186310Y0111719D02*
X0174962Y0111719D01*
X0175362Y0112517D02*
X0186310Y0112517D01*
X0186516Y0113316D02*
X0175692Y0113316D01*
X0175908Y0114114D02*
X0186310Y0114114D01*
X0186310Y0114913D02*
X0175908Y0114913D01*
X0175908Y0115711D02*
X0186310Y0115711D01*
X0186310Y0116510D02*
X0181584Y0116510D01*
X0182669Y0117308D02*
X0186310Y0117308D01*
X0186310Y0118107D02*
X0183450Y0118107D01*
X0183781Y0118905D02*
X0186310Y0118905D01*
X0186605Y0119704D02*
X0184111Y0119704D01*
X0184175Y0120502D02*
X0188069Y0120502D01*
X0187955Y0121301D02*
X0184175Y0121301D01*
X0184046Y0122099D02*
X0187157Y0122099D01*
X0186358Y0122898D02*
X0183715Y0122898D01*
X0188355Y0127689D02*
X0223397Y0127689D01*
X0223397Y0126891D02*
X0189154Y0126891D01*
X0189952Y0126092D02*
X0223397Y0126092D01*
X0223397Y0125294D02*
X0190751Y0125294D01*
X0191549Y0124495D02*
X0223397Y0124495D01*
X0223397Y0123697D02*
X0192348Y0123697D01*
X0192770Y0122898D02*
X0223397Y0122898D01*
X0223397Y0122099D02*
X0192869Y0122099D01*
X0192869Y0121301D02*
X0195702Y0121301D01*
X0194904Y0120502D02*
X0192869Y0120502D01*
X0194333Y0119704D02*
X0194804Y0119704D01*
X0194804Y0118905D02*
X0194628Y0118905D01*
X0194628Y0118107D02*
X0194804Y0118107D01*
X0194804Y0117308D02*
X0194628Y0117308D01*
X0194628Y0116510D02*
X0194804Y0116510D01*
X0194804Y0115711D02*
X0194628Y0115711D01*
X0194628Y0114913D02*
X0194804Y0114913D01*
X0194804Y0114114D02*
X0194628Y0114114D01*
X0194422Y0113316D02*
X0195217Y0113316D01*
X0194804Y0112517D02*
X0194628Y0112517D01*
X0194628Y0111719D02*
X0194804Y0111719D01*
X0194804Y0110920D02*
X0194628Y0110920D01*
X0194628Y0110122D02*
X0194804Y0110122D01*
X0187669Y0106129D02*
X0157335Y0106129D01*
X0157335Y0105331D02*
X0187669Y0105331D01*
X0187669Y0104532D02*
X0157335Y0104532D01*
X0157335Y0103734D02*
X0187669Y0103734D01*
X0187669Y0102935D02*
X0157335Y0102935D01*
X0157335Y0102137D02*
X0187669Y0102137D01*
X0187669Y0101338D02*
X0157335Y0101338D01*
X0157335Y0100540D02*
X0187688Y0100540D01*
X0187688Y0099741D02*
X0156867Y0099741D01*
X0157335Y0098943D02*
X0187688Y0098943D01*
X0187688Y0098144D02*
X0157335Y0098144D01*
X0157335Y0097346D02*
X0187688Y0097346D01*
X0187688Y0096547D02*
X0157335Y0096547D01*
X0157335Y0095749D02*
X0188113Y0095749D01*
X0192825Y0095749D02*
X0193113Y0095749D01*
X0197825Y0095749D02*
X0198069Y0095749D01*
X0198278Y0094950D02*
X0157335Y0094950D01*
X0157335Y0094152D02*
X0198855Y0094152D01*
X0199653Y0093353D02*
X0157335Y0093353D01*
X0162732Y0092555D02*
X0200582Y0092555D01*
X0206819Y0091756D02*
X0163531Y0091756D01*
X0163634Y0090958D02*
X0206819Y0090958D01*
X0206819Y0090159D02*
X0163634Y0090159D01*
X0163634Y0089361D02*
X0206819Y0089361D01*
X0206819Y0088562D02*
X0163634Y0088562D01*
X0163634Y0087763D02*
X0206819Y0087763D01*
X0206819Y0086965D02*
X0163634Y0086965D01*
X0163634Y0086166D02*
X0179367Y0086166D01*
X0179747Y0086547D02*
X0178810Y0085610D01*
X0178810Y0079953D01*
X0179747Y0079016D01*
X0186191Y0079016D01*
X0187128Y0079953D01*
X0187128Y0079981D01*
X0187688Y0079981D01*
X0187688Y0075701D01*
X0188625Y0074764D01*
X0192313Y0074764D01*
X0193250Y0075701D01*
X0193250Y0080092D01*
X0193269Y0080138D01*
X0193269Y0083338D01*
X0193250Y0083384D01*
X0193250Y0085688D01*
X0192313Y0086626D01*
X0188625Y0086626D01*
X0187688Y0085688D01*
X0187688Y0085581D01*
X0187128Y0085581D01*
X0187128Y0085610D01*
X0186191Y0086547D01*
X0179747Y0086547D01*
X0178810Y0085368D02*
X0163634Y0085368D01*
X0162994Y0084569D02*
X0178810Y0084569D01*
X0178810Y0083771D02*
X0162269Y0083771D01*
X0162269Y0082972D02*
X0178810Y0082972D01*
X0178810Y0082174D02*
X0171578Y0082174D01*
X0172059Y0081375D02*
X0178810Y0081375D01*
X0178810Y0080577D02*
X0172059Y0080577D01*
X0172059Y0079778D02*
X0178985Y0079778D01*
X0172059Y0078980D02*
X0187688Y0078980D01*
X0187688Y0079778D02*
X0186953Y0079778D01*
X0187688Y0078181D02*
X0172059Y0078181D01*
X0172059Y0077383D02*
X0187688Y0077383D01*
X0187688Y0076584D02*
X0172059Y0076584D01*
X0172059Y0075786D02*
X0187688Y0075786D01*
X0188402Y0074987D02*
X0171877Y0074987D01*
X0177646Y0072592D02*
X0203069Y0072592D01*
X0203069Y0073390D02*
X0157107Y0073390D01*
X0156619Y0074189D02*
X0203069Y0074189D01*
X0203069Y0074987D02*
X0202536Y0074987D01*
X0203069Y0071793D02*
X0178378Y0071793D01*
X0178378Y0070995D02*
X0203069Y0070995D01*
X0203069Y0070196D02*
X0178378Y0070196D01*
X0178378Y0069398D02*
X0203069Y0069398D01*
X0203069Y0068599D02*
X0178378Y0068599D01*
X0178378Y0067801D02*
X0202695Y0067801D01*
X0201896Y0067002D02*
X0178378Y0067002D01*
X0178378Y0066204D02*
X0201098Y0066204D01*
X0207296Y0060614D02*
X0223397Y0060614D01*
X0223397Y0059816D02*
X0206498Y0059816D01*
X0205699Y0059017D02*
X0223397Y0059017D01*
X0223397Y0058219D02*
X0204901Y0058219D01*
X0203782Y0057420D02*
X0223397Y0057420D01*
X0223397Y0056622D02*
X0173304Y0056622D01*
X0172869Y0055823D02*
X0223397Y0055823D01*
X0223397Y0055025D02*
X0185213Y0055025D01*
X0186012Y0054226D02*
X0223397Y0054226D01*
X0223397Y0053428D02*
X0186085Y0053428D01*
X0186085Y0052629D02*
X0223397Y0052629D01*
X0223397Y0051830D02*
X0186085Y0051830D01*
X0186085Y0051032D02*
X0223397Y0051032D01*
X0223397Y0050233D02*
X0186085Y0050233D01*
X0186085Y0049435D02*
X0223397Y0049435D01*
X0223397Y0048636D02*
X0186085Y0048636D01*
X0186085Y0047838D02*
X0223397Y0047838D01*
X0223397Y0061413D02*
X0208095Y0061413D01*
X0208893Y0062211D02*
X0223397Y0062211D01*
X0223397Y0063010D02*
X0209692Y0063010D01*
X0210490Y0063808D02*
X0223397Y0063808D01*
X0223397Y0064607D02*
X0211268Y0064607D01*
X0211599Y0065405D02*
X0223397Y0065405D01*
X0223397Y0066204D02*
X0211619Y0066204D01*
X0211619Y0067002D02*
X0223397Y0067002D01*
X0223397Y0067801D02*
X0211619Y0067801D01*
X0211619Y0068599D02*
X0223397Y0068599D01*
X0223397Y0069398D02*
X0211619Y0069398D01*
X0211619Y0070196D02*
X0223397Y0070196D01*
X0223397Y0070995D02*
X0211619Y0070995D01*
X0211619Y0071793D02*
X0223397Y0071793D01*
X0223397Y0072592D02*
X0211619Y0072592D01*
X0211619Y0073390D02*
X0223397Y0073390D01*
X0223397Y0074189D02*
X0211619Y0074189D01*
X0211619Y0074987D02*
X0223397Y0074987D01*
X0223397Y0075786D02*
X0211619Y0075786D01*
X0211619Y0076584D02*
X0223397Y0076584D01*
X0223397Y0077383D02*
X0211619Y0077383D01*
X0211619Y0078181D02*
X0223397Y0078181D01*
X0223397Y0078980D02*
X0211619Y0078980D01*
X0211619Y0079778D02*
X0223397Y0079778D01*
X0223397Y0080577D02*
X0211619Y0080577D01*
X0211619Y0081375D02*
X0223397Y0081375D01*
X0223397Y0082174D02*
X0211619Y0082174D01*
X0211619Y0082972D02*
X0223397Y0082972D01*
X0223397Y0083771D02*
X0211619Y0083771D01*
X0211619Y0084569D02*
X0223397Y0084569D01*
X0223397Y0085368D02*
X0211619Y0085368D01*
X0211619Y0086166D02*
X0223397Y0086166D01*
X0223397Y0086965D02*
X0211619Y0086965D01*
X0211619Y0087763D02*
X0223397Y0087763D01*
X0223397Y0088562D02*
X0211619Y0088562D01*
X0211619Y0089361D02*
X0223397Y0089361D01*
X0223397Y0090159D02*
X0211619Y0090159D01*
X0211619Y0090958D02*
X0223397Y0090958D01*
X0223397Y0091756D02*
X0211619Y0091756D01*
X0211619Y0092555D02*
X0223397Y0092555D01*
X0223397Y0093353D02*
X0211619Y0093353D01*
X0211518Y0094152D02*
X0223397Y0094152D01*
X0223397Y0094950D02*
X0211094Y0094950D01*
X0210296Y0095749D02*
X0223397Y0095749D01*
X0223397Y0096547D02*
X0209497Y0096547D01*
X0208250Y0097346D02*
X0223397Y0097346D01*
X0223397Y0098144D02*
X0208250Y0098144D01*
X0208250Y0098943D02*
X0223397Y0098943D01*
X0223397Y0099741D02*
X0208250Y0099741D01*
X0208250Y0100540D02*
X0223397Y0100540D01*
X0223397Y0101338D02*
X0208250Y0101338D01*
X0208250Y0102137D02*
X0223397Y0102137D01*
X0223397Y0102935D02*
X0208250Y0102935D01*
X0208250Y0103734D02*
X0223397Y0103734D01*
X0223397Y0104532D02*
X0208250Y0104532D01*
X0208250Y0105331D02*
X0223397Y0105331D01*
X0223397Y0106129D02*
X0208250Y0106129D01*
X0207483Y0106928D02*
X0223397Y0106928D01*
X0223397Y0107726D02*
X0202335Y0107726D01*
X0202335Y0108525D02*
X0223397Y0108525D01*
X0223397Y0109323D02*
X0202335Y0109323D01*
X0202335Y0110122D02*
X0223397Y0110122D01*
X0223397Y0110920D02*
X0202335Y0110920D01*
X0202335Y0111719D02*
X0223397Y0111719D01*
X0223397Y0112517D02*
X0202335Y0112517D01*
X0201922Y0113316D02*
X0223397Y0113316D01*
X0223397Y0114114D02*
X0202335Y0114114D01*
X0202335Y0114913D02*
X0223397Y0114913D01*
X0223397Y0115711D02*
X0202335Y0115711D01*
X0202335Y0116510D02*
X0223397Y0116510D01*
X0223397Y0117308D02*
X0202335Y0117308D01*
X0202335Y0118107D02*
X0223397Y0118107D01*
X0223397Y0118905D02*
X0202335Y0118905D01*
X0202335Y0119704D02*
X0223397Y0119704D01*
X0223397Y0120502D02*
X0202235Y0120502D01*
X0201437Y0121301D02*
X0223397Y0121301D01*
X0223397Y0128488D02*
X0166364Y0128488D01*
X0166459Y0129286D02*
X0223397Y0129286D01*
X0223397Y0130085D02*
X0166459Y0130085D01*
X0166360Y0130883D02*
X0223397Y0130883D01*
X0223397Y0131682D02*
X0166030Y0131682D01*
X0165668Y0132480D02*
X0223397Y0132480D01*
X0223397Y0133279D02*
X0164869Y0133279D01*
X0163666Y0134077D02*
X0177432Y0134077D01*
X0176581Y0134429D02*
X0178363Y0133691D01*
X0180292Y0133691D01*
X0182074Y0134429D01*
X0183437Y0135793D01*
X0184175Y0137575D01*
X0184175Y0139504D01*
X0183437Y0141286D01*
X0182074Y0142649D01*
X0180292Y0143387D01*
X0178363Y0143387D01*
X0176581Y0142649D01*
X0175217Y0141286D01*
X0174479Y0139504D01*
X0174479Y0137575D01*
X0175217Y0135793D01*
X0176581Y0134429D01*
X0176135Y0134876D02*
X0121270Y0134876D01*
X0120824Y0134429D02*
X0122187Y0135793D01*
X0122925Y0137575D01*
X0122925Y0139504D01*
X0122187Y0141286D01*
X0120824Y0142649D01*
X0119042Y0143387D01*
X0117113Y0143387D01*
X0115331Y0142649D01*
X0113967Y0141286D01*
X0113229Y0139504D01*
X0113229Y0137575D01*
X0113967Y0135793D01*
X0115331Y0134429D01*
X0117113Y0133691D01*
X0119042Y0133691D01*
X0120824Y0134429D01*
X0119973Y0134077D02*
X0159555Y0134077D01*
X0158352Y0133279D02*
X0103619Y0133279D01*
X0104418Y0132480D02*
X0157554Y0132480D01*
X0157192Y0131682D02*
X0104780Y0131682D01*
X0105110Y0130883D02*
X0132784Y0130883D01*
X0132304Y0130085D02*
X0105209Y0130085D01*
X0105209Y0129286D02*
X0105530Y0129286D01*
X0107427Y0124495D02*
X0114893Y0124495D01*
X0114095Y0123697D02*
X0106629Y0123697D01*
X0105830Y0122898D02*
X0113690Y0122898D01*
X0113359Y0122099D02*
X0105080Y0122099D01*
X0105209Y0121301D02*
X0113229Y0121301D01*
X0113229Y0120502D02*
X0105209Y0120502D01*
X0105145Y0119704D02*
X0106563Y0119704D01*
X0106138Y0119528D02*
X0104609Y0117998D01*
X0103781Y0115999D01*
X0103781Y0113836D01*
X0104609Y0111837D01*
X0106138Y0110307D01*
X0108137Y0109479D01*
X0110301Y0109479D01*
X0112300Y0110307D01*
X0113830Y0111837D01*
X0114658Y0113836D01*
X0114658Y0115999D01*
X0113830Y0117998D01*
X0112300Y0119528D01*
X0110301Y0120356D01*
X0108137Y0120356D01*
X0106138Y0119528D01*
X0105516Y0118905D02*
X0104814Y0118905D01*
X0104717Y0118107D02*
X0104483Y0118107D01*
X0104323Y0117308D02*
X0103703Y0117308D01*
X0103992Y0116510D02*
X0102617Y0116510D01*
X0103781Y0115711D02*
X0092869Y0115711D01*
X0092869Y0114913D02*
X0103781Y0114913D01*
X0103781Y0114114D02*
X0092869Y0114114D01*
X0094471Y0113316D02*
X0103996Y0113316D01*
X0104327Y0112517D02*
X0094628Y0112517D01*
X0094628Y0111719D02*
X0104726Y0111719D01*
X0105525Y0110920D02*
X0094628Y0110920D01*
X0094628Y0110122D02*
X0106585Y0110122D01*
X0111853Y0110122D02*
X0131819Y0110122D01*
X0131819Y0109323D02*
X0094628Y0109323D01*
X0094628Y0108525D02*
X0131819Y0108525D01*
X0131819Y0107726D02*
X0094628Y0107726D01*
X0094560Y0106928D02*
X0131819Y0106928D01*
X0131819Y0106129D02*
X0094628Y0106129D01*
X0094628Y0105331D02*
X0131819Y0105331D01*
X0131819Y0104532D02*
X0094628Y0104532D01*
X0094628Y0103734D02*
X0131819Y0103734D01*
X0125392Y0110920D02*
X0112913Y0110920D01*
X0113712Y0111719D02*
X0125060Y0111719D01*
X0125060Y0112517D02*
X0114112Y0112517D01*
X0114442Y0113316D02*
X0125060Y0113316D01*
X0125060Y0114114D02*
X0114658Y0114114D01*
X0114658Y0114913D02*
X0125060Y0114913D01*
X0125060Y0115711D02*
X0114658Y0115711D01*
X0114446Y0116510D02*
X0115821Y0116510D01*
X0114736Y0117308D02*
X0114115Y0117308D01*
X0113955Y0118107D02*
X0113721Y0118107D01*
X0113624Y0118905D02*
X0112922Y0118905D01*
X0113293Y0119704D02*
X0111875Y0119704D01*
X0120334Y0116510D02*
X0125060Y0116510D01*
X0125460Y0117308D02*
X0121419Y0117308D01*
X0122200Y0118107D02*
X0157488Y0118107D01*
X0157158Y0118905D02*
X0122531Y0118905D01*
X0122861Y0119704D02*
X0156827Y0119704D01*
X0156763Y0120502D02*
X0122925Y0120502D01*
X0122925Y0121301D02*
X0156763Y0121301D01*
X0156892Y0122099D02*
X0122796Y0122099D01*
X0122465Y0122898D02*
X0156142Y0122898D01*
X0155343Y0123697D02*
X0145871Y0123697D01*
X0146134Y0124495D02*
X0154545Y0124495D01*
X0156442Y0129286D02*
X0156763Y0129286D01*
X0156763Y0130085D02*
X0146134Y0130085D01*
X0145654Y0130883D02*
X0156861Y0130883D01*
X0167080Y0122898D02*
X0174940Y0122898D01*
X0174609Y0122099D02*
X0166330Y0122099D01*
X0166459Y0121301D02*
X0174479Y0121301D01*
X0174479Y0120502D02*
X0166459Y0120502D01*
X0166395Y0119704D02*
X0167813Y0119704D01*
X0166766Y0118905D02*
X0166064Y0118905D01*
X0165967Y0118107D02*
X0165733Y0118107D01*
X0165573Y0117308D02*
X0164953Y0117308D01*
X0165242Y0116510D02*
X0163867Y0116510D01*
X0165031Y0115711D02*
X0153772Y0115711D01*
X0153772Y0114913D02*
X0165031Y0114913D01*
X0165031Y0114114D02*
X0153772Y0114114D01*
X0153772Y0113316D02*
X0165246Y0113316D01*
X0165577Y0112517D02*
X0153772Y0112517D01*
X0153772Y0111719D02*
X0165976Y0111719D01*
X0166775Y0110920D02*
X0153772Y0110920D01*
X0153772Y0110122D02*
X0167835Y0110122D01*
X0175696Y0116510D02*
X0177071Y0116510D01*
X0175986Y0117308D02*
X0175365Y0117308D01*
X0175205Y0118107D02*
X0174971Y0118107D01*
X0174874Y0118905D02*
X0174172Y0118905D01*
X0174543Y0119704D02*
X0173125Y0119704D01*
X0159355Y0116510D02*
X0153772Y0116510D01*
X0153510Y0117308D02*
X0158269Y0117308D01*
X0144928Y0117308D02*
X0142979Y0117308D01*
X0143378Y0116510D02*
X0144666Y0116510D01*
X0144666Y0115711D02*
X0143378Y0115711D01*
X0143378Y0114913D02*
X0144666Y0114913D01*
X0144666Y0114114D02*
X0143378Y0114114D01*
X0143378Y0113316D02*
X0144666Y0113316D01*
X0144666Y0112517D02*
X0143378Y0112517D01*
X0143378Y0111719D02*
X0144666Y0111719D01*
X0144666Y0110920D02*
X0143067Y0110920D01*
X0135060Y0116510D02*
X0133378Y0116510D01*
X0132979Y0117308D02*
X0135460Y0117308D01*
X0132567Y0123697D02*
X0122060Y0123697D01*
X0121261Y0124495D02*
X0132304Y0124495D01*
X0122068Y0135674D02*
X0175336Y0135674D01*
X0174936Y0136473D02*
X0122469Y0136473D01*
X0122800Y0137271D02*
X0174605Y0137271D01*
X0174479Y0138070D02*
X0122925Y0138070D01*
X0122925Y0138868D02*
X0174479Y0138868D01*
X0174547Y0139667D02*
X0173145Y0139667D01*
X0173550Y0139834D02*
X0175080Y0141364D01*
X0175908Y0143363D01*
X0175908Y0145527D01*
X0175080Y0147526D01*
X0173550Y0149055D01*
X0171551Y0149883D01*
X0169387Y0149883D01*
X0167388Y0149055D01*
X0165859Y0147526D01*
X0165031Y0145527D01*
X0165031Y0143363D01*
X0165859Y0141364D01*
X0167388Y0139834D01*
X0169387Y0139006D01*
X0171551Y0139006D01*
X0173550Y0139834D01*
X0174181Y0140465D02*
X0174878Y0140465D01*
X0174979Y0141264D02*
X0175208Y0141264D01*
X0175369Y0142062D02*
X0175994Y0142062D01*
X0175700Y0142861D02*
X0177092Y0142861D01*
X0175908Y0143659D02*
X0223328Y0143659D01*
X0223391Y0142861D02*
X0181563Y0142861D01*
X0182661Y0142062D02*
X0223397Y0142062D01*
X0223397Y0141264D02*
X0183446Y0141264D01*
X0183777Y0140465D02*
X0223397Y0140465D01*
X0223397Y0139667D02*
X0184108Y0139667D01*
X0184175Y0138868D02*
X0223397Y0138868D01*
X0223397Y0138070D02*
X0184175Y0138070D01*
X0184050Y0137271D02*
X0223397Y0137271D01*
X0223397Y0136473D02*
X0183719Y0136473D01*
X0183318Y0135674D02*
X0223397Y0135674D01*
X0223397Y0134876D02*
X0182520Y0134876D01*
X0181223Y0134077D02*
X0223397Y0134077D01*
X0223241Y0144458D02*
X0175908Y0144458D01*
X0175908Y0145256D02*
X0222981Y0145256D01*
X0222722Y0146055D02*
X0175689Y0146055D01*
X0175358Y0146853D02*
X0222463Y0146853D01*
X0222077Y0147652D02*
X0174953Y0147652D01*
X0174155Y0148450D02*
X0221497Y0148450D01*
X0220917Y0149249D02*
X0173083Y0149249D01*
X0167855Y0149249D02*
X0111833Y0149249D01*
X0112300Y0149055D02*
X0110301Y0149883D01*
X0108137Y0149883D01*
X0106138Y0149055D01*
X0104609Y0147526D01*
X0103781Y0145527D01*
X0103781Y0143363D01*
X0104609Y0141364D01*
X0106138Y0139834D01*
X0108137Y0139006D01*
X0110301Y0139006D01*
X0112300Y0139834D01*
X0113830Y0141364D01*
X0114658Y0143363D01*
X0114658Y0145527D01*
X0113830Y0147526D01*
X0112300Y0149055D01*
X0112905Y0148450D02*
X0166783Y0148450D01*
X0165985Y0147652D02*
X0113703Y0147652D01*
X0114108Y0146853D02*
X0165580Y0146853D01*
X0165249Y0146055D02*
X0114439Y0146055D01*
X0114658Y0145256D02*
X0165031Y0145256D01*
X0165031Y0144458D02*
X0114658Y0144458D01*
X0114658Y0143659D02*
X0165031Y0143659D01*
X0165239Y0142861D02*
X0120313Y0142861D01*
X0121411Y0142062D02*
X0165569Y0142062D01*
X0165959Y0141264D02*
X0122196Y0141264D01*
X0122527Y0140465D02*
X0166757Y0140465D01*
X0167793Y0139667D02*
X0122858Y0139667D01*
X0115842Y0142861D02*
X0114450Y0142861D01*
X0114744Y0142062D02*
X0114119Y0142062D01*
X0113958Y0141264D02*
X0113729Y0141264D01*
X0113628Y0140465D02*
X0112931Y0140465D01*
X0113297Y0139667D02*
X0111895Y0139667D01*
X0113229Y0138868D02*
X0070369Y0138868D01*
X0070369Y0138070D02*
X0113229Y0138070D01*
X0113355Y0137271D02*
X0070369Y0137271D01*
X0070369Y0136473D02*
X0113686Y0136473D01*
X0114086Y0135674D02*
X0070369Y0135674D01*
X0070369Y0134876D02*
X0114885Y0134876D01*
X0116182Y0134077D02*
X0102416Y0134077D01*
X0098305Y0134077D02*
X0070369Y0134077D01*
X0070369Y0133279D02*
X0097102Y0133279D01*
X0096304Y0132480D02*
X0070369Y0132480D01*
X0070369Y0131682D02*
X0095942Y0131682D01*
X0095611Y0130883D02*
X0070369Y0130883D01*
X0070369Y0130085D02*
X0095513Y0130085D01*
X0095513Y0129286D02*
X0070369Y0129286D01*
X0070073Y0128488D02*
X0095608Y0128488D01*
X0095939Y0127689D02*
X0069371Y0127689D01*
X0068573Y0126891D02*
X0096295Y0126891D01*
X0097094Y0126092D02*
X0068368Y0126092D01*
X0068368Y0125294D02*
X0098285Y0125294D01*
X0097177Y0124495D02*
X0068368Y0124495D01*
X0068368Y0123697D02*
X0096378Y0123697D01*
X0092849Y0122898D02*
X0068368Y0122898D01*
X0068368Y0122099D02*
X0091993Y0122099D01*
X0091195Y0121301D02*
X0068368Y0121301D01*
X0068368Y0120502D02*
X0090396Y0120502D01*
X0089598Y0119704D02*
X0068368Y0119704D01*
X0067655Y0118905D02*
X0088799Y0118905D01*
X0088255Y0118107D02*
X0067335Y0118107D01*
X0067335Y0117308D02*
X0088069Y0117308D01*
X0088069Y0116510D02*
X0067335Y0116510D01*
X0067335Y0115711D02*
X0088069Y0115711D01*
X0088069Y0114913D02*
X0067335Y0114913D01*
X0067335Y0114114D02*
X0088069Y0114114D01*
X0086467Y0113316D02*
X0067335Y0113316D01*
X0067143Y0112517D02*
X0086310Y0112517D01*
X0086310Y0111719D02*
X0061619Y0111719D01*
X0061619Y0110920D02*
X0076572Y0110920D01*
X0076310Y0110122D02*
X0061619Y0110122D01*
X0061619Y0109323D02*
X0062101Y0109323D01*
X0066338Y0109323D02*
X0076310Y0109323D01*
X0076310Y0108525D02*
X0067000Y0108525D01*
X0067000Y0107726D02*
X0076310Y0107726D01*
X0076310Y0106928D02*
X0067000Y0106928D01*
X0067000Y0106129D02*
X0076310Y0106129D01*
X0076310Y0105331D02*
X0067000Y0105331D01*
X0067000Y0104532D02*
X0067733Y0104532D01*
X0075706Y0104532D02*
X0076483Y0104532D01*
X0084628Y0110122D02*
X0086310Y0110122D01*
X0086310Y0110920D02*
X0084367Y0110920D01*
X0085471Y0109323D02*
X0086310Y0109323D01*
X0086310Y0108525D02*
X0086270Y0108525D01*
X0093192Y0116510D02*
X0098105Y0116510D01*
X0097019Y0117308D02*
X0093991Y0117308D01*
X0094789Y0118107D02*
X0096238Y0118107D01*
X0106543Y0139667D02*
X0070369Y0139667D01*
X0070369Y0140465D02*
X0105507Y0140465D01*
X0104709Y0141264D02*
X0070369Y0141264D01*
X0070369Y0142062D02*
X0104319Y0142062D01*
X0103989Y0142861D02*
X0070285Y0142861D01*
X0069885Y0143659D02*
X0103781Y0143659D01*
X0103781Y0144458D02*
X0069087Y0144458D01*
X0068288Y0145256D02*
X0103781Y0145256D01*
X0103999Y0146055D02*
X0022941Y0146055D01*
X0023200Y0146853D02*
X0104330Y0146853D01*
X0104735Y0147652D02*
X0023586Y0147652D01*
X0024166Y0148450D02*
X0105533Y0148450D01*
X0106605Y0149249D02*
X0024746Y0149249D01*
X0025440Y0150047D02*
X0220223Y0150047D01*
X0219124Y0150846D02*
X0026539Y0150846D01*
X0027638Y0151644D02*
X0218025Y0151644D01*
X0215686Y0152443D02*
X0029977Y0152443D01*
X0022681Y0145256D02*
X0060150Y0145256D01*
X0128617Y0093353D02*
X0136819Y0093353D01*
X0136984Y0092555D02*
X0129195Y0092555D01*
X0129195Y0091756D02*
X0137500Y0091756D01*
X0138299Y0090958D02*
X0129195Y0090958D01*
X0129195Y0090159D02*
X0139097Y0090159D01*
X0139896Y0089361D02*
X0129195Y0089361D01*
X0128670Y0088562D02*
X0141167Y0088562D01*
X0141743Y0087763D02*
X0129195Y0087763D01*
X0129195Y0086965D02*
X0141743Y0086965D01*
X0141743Y0086166D02*
X0129195Y0086166D01*
X0129195Y0085368D02*
X0141743Y0085368D01*
X0141743Y0084569D02*
X0129195Y0084569D01*
X0128879Y0083771D02*
X0142059Y0083771D01*
X0143502Y0082972D02*
X0127620Y0082972D01*
X0128064Y0082174D02*
X0143502Y0082174D01*
X0143502Y0081375D02*
X0128585Y0081375D01*
X0128585Y0080577D02*
X0143502Y0080577D01*
X0143502Y0079778D02*
X0128585Y0079778D01*
X0128585Y0078980D02*
X0143502Y0078980D01*
X0141333Y0078181D02*
X0128585Y0078181D01*
X0128585Y0077383D02*
X0141182Y0077383D01*
X0141182Y0076584D02*
X0128585Y0076584D01*
X0128585Y0075786D02*
X0141182Y0075786D01*
X0141182Y0074987D02*
X0128363Y0074987D01*
X0128549Y0074189D02*
X0141182Y0074189D01*
X0141182Y0073390D02*
X0128585Y0073390D01*
X0128585Y0072592D02*
X0141182Y0072592D01*
X0141182Y0071793D02*
X0128585Y0071793D01*
X0128585Y0070995D02*
X0141182Y0070995D01*
X0141182Y0070196D02*
X0128585Y0070196D01*
X0128585Y0069398D02*
X0141182Y0069398D01*
X0141414Y0068599D02*
X0128585Y0068599D01*
X0112210Y0059816D02*
X0082479Y0059816D01*
X0083219Y0076584D02*
X0067335Y0076584D01*
X0056812Y0088562D02*
X0056627Y0088562D01*
X0051812Y0088562D02*
X0051627Y0088562D01*
X0088860Y0081375D02*
X0089888Y0081375D01*
X0089191Y0080577D02*
X0090687Y0080577D01*
X0089250Y0079778D02*
X0101379Y0079778D01*
X0101379Y0078980D02*
X0089250Y0078980D01*
X0088941Y0078181D02*
X0102118Y0078181D01*
X0096986Y0080577D02*
X0096452Y0080577D01*
X0096676Y0088562D02*
X0096763Y0088562D01*
X0141619Y0094950D02*
X0141743Y0094950D01*
X0141743Y0095749D02*
X0141619Y0095749D01*
X0141619Y0096547D02*
X0141743Y0096547D01*
X0141743Y0097346D02*
X0141619Y0097346D01*
X0141619Y0098144D02*
X0142112Y0098144D01*
X0141888Y0098943D02*
X0141619Y0098943D01*
X0141619Y0099741D02*
X0141743Y0099741D01*
X0141743Y0100540D02*
X0141619Y0100540D01*
X0141619Y0101338D02*
X0141743Y0101338D01*
X0141743Y0102137D02*
X0141619Y0102137D01*
X0141619Y0102935D02*
X0141903Y0102935D01*
X0157060Y0106928D02*
X0186836Y0106928D01*
X0202483Y0106928D02*
X0203455Y0106928D01*
X0203166Y0086166D02*
X0202772Y0086166D01*
X0198166Y0086166D02*
X0192772Y0086166D01*
X0193250Y0085368D02*
X0197688Y0085368D01*
X0197688Y0084569D02*
X0193250Y0084569D01*
X0193250Y0083771D02*
X0197688Y0083771D01*
X0197688Y0082972D02*
X0193269Y0082972D01*
X0193269Y0082174D02*
X0197688Y0082174D01*
X0197688Y0081375D02*
X0193269Y0081375D01*
X0193269Y0080577D02*
X0197688Y0080577D01*
X0197688Y0079778D02*
X0193250Y0079778D01*
X0193250Y0078980D02*
X0197688Y0078980D01*
X0197688Y0078181D02*
X0193250Y0078181D01*
X0193250Y0077383D02*
X0197688Y0077383D01*
X0197688Y0076584D02*
X0193250Y0076584D01*
X0193250Y0075786D02*
X0197688Y0075786D01*
X0198402Y0074987D02*
X0192536Y0074987D01*
X0188166Y0086166D02*
X0186571Y0086166D01*
X0161379Y0076584D02*
X0156619Y0076584D01*
X0156619Y0075786D02*
X0161379Y0075786D01*
X0161562Y0074987D02*
X0156619Y0074987D01*
X0157624Y0072592D02*
X0162279Y0072592D01*
X0161480Y0071793D02*
X0157955Y0071793D01*
X0158000Y0070995D02*
X0161379Y0070995D01*
X0160090Y0070196D02*
X0158000Y0070196D01*
X0157677Y0069398D02*
X0159292Y0069398D01*
X0158493Y0068599D02*
X0157235Y0068599D01*
X0156619Y0077383D02*
X0160623Y0077383D01*
X0159825Y0078181D02*
X0156619Y0078181D01*
X0156619Y0078980D02*
X0159026Y0078980D01*
X0158228Y0079778D02*
X0156619Y0079778D01*
X0156619Y0080577D02*
X0157666Y0080577D01*
X0157469Y0081375D02*
X0156619Y0081375D01*
X0156619Y0082174D02*
X0157469Y0082174D01*
X0157469Y0082972D02*
X0156619Y0082972D01*
X0156619Y0083771D02*
X0157469Y0083771D01*
X0156743Y0084569D02*
X0156695Y0084569D01*
X0172869Y0055025D02*
X0173225Y0055025D01*
X0179012Y0055025D02*
X0179426Y0055025D01*
D24*
X0191719Y0072181D03*
X0199219Y0072181D03*
X0181719Y0074681D03*
X0190469Y0089681D03*
X0195469Y0089681D03*
X0200469Y0089681D03*
X0184219Y0095931D03*
X0172969Y0095931D03*
X0166719Y0095931D03*
X0166719Y0103431D03*
X0172969Y0103431D03*
X0137969Y0085931D03*
X0137969Y0080931D03*
X0137969Y0075931D03*
X0137969Y0070931D03*
X0125469Y0065931D03*
X0125469Y0054681D03*
X0126719Y0038431D03*
X0132969Y0038431D03*
X0129219Y0030931D03*
X0121719Y0030931D03*
X0114219Y0030931D03*
X0106719Y0030931D03*
X0099219Y0030931D03*
X0091719Y0030931D03*
X0111719Y0038431D03*
X0117969Y0038431D03*
X0136719Y0030931D03*
X0144219Y0030931D03*
X0151719Y0030931D03*
X0154219Y0057181D03*
X0154219Y0070931D03*
X0131719Y0085931D03*
X0121719Y0105931D03*
X0115469Y0105931D03*
X0115469Y0112181D03*
X0121719Y0112181D03*
X0151719Y0132181D03*
X0151719Y0138431D03*
X0151719Y0144681D03*
X0090469Y0144681D03*
X0090469Y0138431D03*
X0090469Y0132181D03*
X0081719Y0119681D03*
X0075469Y0119681D03*
X0075469Y0113431D03*
X0081719Y0113431D03*
X0085469Y0097181D03*
X0065469Y0090931D03*
X0059219Y0097181D03*
X0049219Y0095931D03*
X0042969Y0095931D03*
X0042969Y0102181D03*
X0042969Y0108431D03*
X0042969Y0114681D03*
X0085469Y0079681D03*
X0081719Y0072181D03*
X0075469Y0069681D03*
X0081719Y0065931D03*
X0075469Y0064681D03*
X0075469Y0074681D03*
X0210469Y0107181D03*
X0216719Y0107181D03*
X0216719Y0113431D03*
X0210469Y0113431D03*
X0210469Y0119681D03*
X0216719Y0119681D03*
D25*
X0190469Y0122181D02*
X0190469Y0116581D01*
X0190469Y0122181D02*
X0186719Y0125931D01*
X0166719Y0125931D01*
X0161611Y0120823D01*
X0155253Y0127181D01*
X0142369Y0127181D01*
X0136070Y0127181D02*
X0106719Y0127181D01*
X0100361Y0120823D01*
X0094111Y0120823D01*
X0090469Y0117181D01*
X0090469Y0110331D01*
X0085469Y0105931D02*
X0085469Y0097181D01*
X0087344Y0092806D02*
X0077994Y0092806D01*
X0077369Y0093431D01*
X0071070Y0093431D02*
X0071070Y0094081D01*
X0069219Y0095931D01*
X0064219Y0095931D01*
X0059219Y0090931D01*
X0059219Y0083195D01*
X0064219Y0079681D02*
X0085469Y0079681D01*
X0084219Y0084681D02*
X0086719Y0087181D01*
X0089219Y0084681D01*
X0093570Y0084681D01*
X0099869Y0084681D02*
X0106719Y0084681D01*
X0106719Y0082181D01*
X0106719Y0084681D02*
X0116119Y0084681D01*
X0116719Y0084081D01*
X0116719Y0091531D01*
X0117320Y0090931D01*
X0125036Y0090931D01*
X0125036Y0085931D02*
X0124820Y0085715D01*
X0116719Y0077781D02*
X0116719Y0070331D01*
X0124820Y0070931D02*
X0125469Y0070281D01*
X0125469Y0065931D01*
X0159219Y0065931D01*
X0161719Y0068431D01*
X0166719Y0068431D01*
X0169219Y0063431D02*
X0201719Y0063431D01*
X0205469Y0067181D01*
X0205469Y0080695D01*
X0209219Y0093431D02*
X0207969Y0094681D01*
X0201719Y0094681D01*
X0200469Y0095931D01*
X0200469Y0101167D01*
X0209219Y0093431D02*
X0209219Y0065931D01*
X0202969Y0059681D01*
X0172969Y0059681D01*
X0170469Y0057181D01*
X0170469Y0051581D01*
X0169820Y0050931D01*
X0157625Y0050931D01*
X0156719Y0051837D01*
X0154219Y0051837D02*
X0154219Y0057181D01*
X0141719Y0051837D02*
X0141719Y0051581D01*
X0131719Y0051581D02*
X0131719Y0055931D01*
X0128594Y0059056D01*
X0114844Y0059056D01*
X0112969Y0057181D01*
X0081719Y0057181D01*
X0079219Y0059681D01*
X0065469Y0059681D01*
X0063570Y0061581D01*
X0063570Y0065931D01*
X0055469Y0065331D02*
X0055469Y0059681D01*
X0059219Y0055931D01*
X0072969Y0055931D01*
X0074869Y0054031D01*
X0074869Y0050931D01*
X0087064Y0050931D01*
X0087969Y0051837D01*
X0102969Y0051837D02*
X0102969Y0051581D01*
X0102969Y0051837D02*
X0102969Y0052821D01*
X0112969Y0051581D02*
X0114869Y0051581D01*
X0117969Y0054681D01*
X0125469Y0054681D01*
X0123594Y0061556D02*
X0121119Y0064031D01*
X0116719Y0064031D01*
X0123594Y0061556D02*
X0167344Y0061556D01*
X0169219Y0063431D01*
X0154219Y0070931D02*
X0154219Y0087781D01*
X0153570Y0088431D01*
X0159869Y0088431D02*
X0159869Y0081531D01*
X0162969Y0078431D01*
X0166719Y0078431D01*
X0146719Y0073431D02*
X0145902Y0074248D01*
X0145902Y0085931D01*
X0145902Y0090931D02*
X0141719Y0090931D01*
X0139219Y0093431D01*
X0139219Y0107781D01*
X0139869Y0108431D01*
X0147969Y0108431D01*
X0149219Y0109681D01*
X0149219Y0113431D01*
X0139219Y0114081D02*
X0134219Y0114081D01*
X0134219Y0099681D01*
X0130469Y0095931D01*
X0125036Y0095931D01*
X0129219Y0114081D02*
X0134219Y0114081D01*
X0090469Y0104031D02*
X0090469Y0095931D01*
X0087344Y0092806D01*
X0080469Y0101531D02*
X0071719Y0101531D01*
X0064219Y0101531D01*
X0064219Y0103667D01*
X0059219Y0103667D02*
X0059219Y0097181D01*
X0059219Y0103667D02*
X0059219Y0113431D01*
X0061719Y0115931D01*
X0063570Y0115931D01*
X0055469Y0114681D02*
X0055469Y0122171D01*
X0056729Y0123431D01*
X0062969Y0123431D02*
X0062969Y0127181D01*
X0060469Y0129681D01*
X0060469Y0142181D01*
X0061719Y0143431D01*
X0066719Y0143431D01*
X0067969Y0142181D01*
X0067969Y0129681D01*
X0065469Y0127181D01*
X0065469Y0123431D01*
X0062969Y0123431D01*
X0062969Y0123789D02*
X0065469Y0123789D01*
X0065469Y0125387D02*
X0062969Y0125387D01*
X0062969Y0126986D02*
X0065469Y0126986D01*
X0066872Y0128584D02*
X0061566Y0128584D01*
X0060469Y0130183D02*
X0067969Y0130183D01*
X0067969Y0131781D02*
X0060469Y0131781D01*
X0060469Y0133380D02*
X0067969Y0133380D01*
X0067969Y0134978D02*
X0060469Y0134978D01*
X0060469Y0136577D02*
X0067969Y0136577D01*
X0067969Y0138175D02*
X0060469Y0138175D01*
X0060469Y0139774D02*
X0067969Y0139774D01*
X0067969Y0141372D02*
X0060469Y0141372D01*
X0061259Y0142971D02*
X0067179Y0142971D01*
X0055469Y0114681D02*
X0054869Y0114081D01*
X0054869Y0113431D01*
X0054219Y0112781D01*
X0054219Y0103667D01*
X0065469Y0090931D02*
X0071070Y0085331D01*
X0071070Y0084681D01*
X0077369Y0084681D02*
X0084219Y0084681D01*
X0055469Y0065331D02*
X0054869Y0065931D01*
X0062369Y0050931D02*
X0068570Y0050931D01*
X0087969Y0040025D02*
X0087995Y0039962D01*
X0088017Y0039899D01*
X0088036Y0039833D01*
X0088051Y0039767D01*
X0088062Y0039701D01*
X0088070Y0039633D01*
X0088074Y0039566D01*
X0088073Y0039498D01*
X0088070Y0039431D01*
X0088062Y0039363D01*
X0088051Y0039296D01*
X0088035Y0039231D01*
X0088017Y0039165D01*
X0087994Y0039102D01*
X0087968Y0039039D01*
X0087939Y0038978D01*
X0087906Y0038919D01*
X0087870Y0038862D01*
X0087831Y0038806D01*
X0087789Y0038753D01*
X0087743Y0038703D01*
X0087695Y0038655D01*
X0087645Y0038610D01*
X0087592Y0038568D01*
X0087537Y0038529D01*
X0087479Y0038493D01*
X0087420Y0038460D01*
X0087359Y0038431D01*
X0156719Y0038431D02*
X0156719Y0040026D01*
X0176119Y0050931D02*
X0182320Y0050931D01*
X0085469Y0105931D02*
X0083570Y0107831D01*
X0080469Y0107831D01*
D26*
X0064219Y0083195D02*
X0064219Y0079681D01*
X0064219Y0074081D01*
X0063570Y0073431D01*
X0063570Y0065931D01*
X0054869Y0065931D02*
X0054869Y0073431D01*
X0054219Y0074081D01*
X0054219Y0083195D01*
X0087969Y0051837D02*
X0088314Y0052181D01*
X0090469Y0052181D01*
X0090814Y0051837D01*
X0102969Y0051837D01*
X0102969Y0051581D02*
X0112969Y0051581D01*
X0131719Y0051581D02*
X0141463Y0051581D01*
X0141719Y0051837D01*
X0154219Y0051837D01*
X0156719Y0051837D01*
X0156719Y0038431D02*
X0170469Y0038431D01*
X0173619Y0068431D02*
X0166719Y0068431D01*
X0173619Y0068431D02*
X0174219Y0069031D01*
X0190469Y0080695D02*
X0190469Y0082781D01*
X0182969Y0082781D01*
X0190469Y0101167D02*
X0190469Y0110281D01*
X0195469Y0106581D02*
X0195469Y0101167D01*
X0200469Y0101167D01*
X0195469Y0106581D02*
X0198570Y0109681D01*
X0198570Y0117181D01*
X0153570Y0103431D02*
X0153570Y0095931D01*
X0153570Y0088431D01*
X0153570Y0095931D02*
X0145902Y0095931D01*
X0124820Y0085715D02*
X0124820Y0078431D01*
X0124820Y0070931D01*
X0087359Y0038431D02*
X0074219Y0038431D01*
D27*
X0074219Y0038431D03*
X0170469Y0038431D03*
X0149219Y0113431D03*
M02*
