G75*
%MOIN*%
%OFA0B0*%
%FSLAX25Y25*%
%IPPOS*%
%LPD*%
%AMOC8*
5,1,8,0,0,1.08239X$1,22.5*
%
%ADD10C,0.00394*%
%ADD11C,0.06299*%
%ADD12C,0.13055*%
%ADD13C,0.05906*%
%ADD14C,0.05906*%
%ADD15C,0.16992*%
%ADD16C,0.09843*%
%ADD17C,0.07677*%
%ADD18C,0.10000*%
%ADD19C,0.03562*%
%ADD20C,0.01600*%
%ADD21C,0.01200*%
%ADD22C,0.02400*%
D10*
X0034249Y0022713D02*
X0404327Y0022713D01*
X0404327Y0024306D02*
X0034249Y0024306D01*
X0032650Y0024432D01*
X0029610Y0025420D01*
X0027024Y0027299D01*
X0025145Y0029885D01*
X0024157Y0032925D01*
X0024031Y0034524D01*
X0024031Y0195941D01*
X0024157Y0197539D01*
X0025145Y0200580D01*
X0027024Y0203166D01*
X0029610Y0205045D01*
X0032650Y0206032D01*
X0034249Y0206158D01*
X0404327Y0206158D01*
X0405926Y0206032D01*
X0408966Y0205045D01*
X0411552Y0203166D01*
X0413431Y0200580D01*
X0414419Y0197539D01*
X0414545Y0195941D01*
X0414545Y0034524D01*
X0414419Y0032925D01*
X0413431Y0029885D01*
X0411552Y0027299D01*
X0408966Y0025420D01*
X0405926Y0024432D01*
X0404327Y0024306D01*
X0406669Y0024674D02*
X0031907Y0024674D01*
X0030700Y0025066D02*
X0407876Y0025066D01*
X0409019Y0025458D02*
X0290918Y0025458D01*
X0290803Y0025410D02*
X0292402Y0026072D01*
X0293625Y0027296D01*
X0294287Y0028895D01*
X0294287Y0036531D01*
X0293625Y0038129D01*
X0292402Y0039353D01*
X0292248Y0039416D01*
X0292367Y0039535D01*
X0293070Y0039535D01*
X0294238Y0040018D01*
X0295132Y0040912D01*
X0295616Y0042080D01*
X0295616Y0043345D01*
X0295132Y0044513D01*
X0294238Y0045407D01*
X0293070Y0045891D01*
X0291806Y0045891D01*
X0290637Y0045407D01*
X0289744Y0044513D01*
X0289260Y0043345D01*
X0289260Y0042641D01*
X0289028Y0042409D01*
X0287741Y0041123D01*
X0287741Y0039463D01*
X0287474Y0039353D01*
X0286250Y0038129D01*
X0285588Y0036531D01*
X0285588Y0028895D01*
X0286250Y0027296D01*
X0287474Y0026072D01*
X0289072Y0025410D01*
X0290803Y0025410D01*
X0291865Y0025850D02*
X0409558Y0025850D01*
X0410098Y0026243D02*
X0292572Y0026243D01*
X0292964Y0026635D02*
X0410638Y0026635D01*
X0411178Y0027027D02*
X0293356Y0027027D01*
X0293676Y0027419D02*
X0411640Y0027419D01*
X0411924Y0027811D02*
X0293839Y0027811D01*
X0294001Y0028204D02*
X0412209Y0028204D01*
X0412494Y0028596D02*
X0294163Y0028596D01*
X0294287Y0028988D02*
X0412779Y0028988D01*
X0413064Y0029380D02*
X0294287Y0029380D01*
X0294287Y0029772D02*
X0413349Y0029772D01*
X0413522Y0030165D02*
X0294287Y0030165D01*
X0294287Y0030557D02*
X0413649Y0030557D01*
X0413777Y0030949D02*
X0294287Y0030949D01*
X0294287Y0031341D02*
X0413904Y0031341D01*
X0414032Y0031733D02*
X0294287Y0031733D01*
X0294287Y0032126D02*
X0414159Y0032126D01*
X0414287Y0032518D02*
X0294287Y0032518D01*
X0294287Y0032910D02*
X0414414Y0032910D01*
X0414449Y0033302D02*
X0294287Y0033302D01*
X0294287Y0033695D02*
X0414480Y0033695D01*
X0414510Y0034087D02*
X0294287Y0034087D01*
X0294287Y0034479D02*
X0414541Y0034479D01*
X0414545Y0034871D02*
X0294287Y0034871D01*
X0294287Y0035263D02*
X0414545Y0035263D01*
X0414545Y0035656D02*
X0294287Y0035656D01*
X0294287Y0036048D02*
X0414545Y0036048D01*
X0414545Y0036440D02*
X0294287Y0036440D01*
X0294162Y0036832D02*
X0414545Y0036832D01*
X0414545Y0037224D02*
X0294000Y0037224D01*
X0293837Y0037617D02*
X0414545Y0037617D01*
X0414545Y0038009D02*
X0293675Y0038009D01*
X0293353Y0038401D02*
X0414545Y0038401D01*
X0414545Y0038793D02*
X0292961Y0038793D01*
X0292569Y0039186D02*
X0414545Y0039186D01*
X0414545Y0039578D02*
X0293174Y0039578D01*
X0294121Y0039970D02*
X0414545Y0039970D01*
X0414545Y0040362D02*
X0294582Y0040362D01*
X0294974Y0040754D02*
X0414545Y0040754D01*
X0414545Y0041147D02*
X0295229Y0041147D01*
X0295391Y0041539D02*
X0414545Y0041539D01*
X0414545Y0041931D02*
X0295554Y0041931D01*
X0295616Y0042323D02*
X0414545Y0042323D01*
X0414545Y0042715D02*
X0295616Y0042715D01*
X0295616Y0043108D02*
X0414545Y0043108D01*
X0414545Y0043500D02*
X0295551Y0043500D01*
X0295389Y0043892D02*
X0414545Y0043892D01*
X0414545Y0044284D02*
X0295226Y0044284D01*
X0294968Y0044676D02*
X0414545Y0044676D01*
X0414545Y0045069D02*
X0294576Y0045069D01*
X0294107Y0045461D02*
X0414545Y0045461D01*
X0414545Y0045853D02*
X0293160Y0045853D01*
X0291715Y0045853D02*
X0283160Y0045853D01*
X0283070Y0045891D02*
X0281806Y0045891D01*
X0280637Y0045407D01*
X0279744Y0044513D01*
X0279260Y0043345D01*
X0279260Y0042641D01*
X0277741Y0041123D01*
X0277741Y0039463D01*
X0277474Y0039353D01*
X0276250Y0038129D01*
X0275588Y0036531D01*
X0275588Y0028895D01*
X0276250Y0027296D01*
X0277474Y0026072D01*
X0279072Y0025410D01*
X0280803Y0025410D01*
X0282402Y0026072D01*
X0283625Y0027296D01*
X0284287Y0028895D01*
X0284287Y0036531D01*
X0283625Y0038129D01*
X0282402Y0039353D01*
X0282248Y0039416D01*
X0282367Y0039535D01*
X0283070Y0039535D01*
X0284238Y0040018D01*
X0285132Y0040912D01*
X0285616Y0042080D01*
X0285616Y0043345D01*
X0285132Y0044513D01*
X0284238Y0045407D01*
X0283070Y0045891D01*
X0284107Y0045461D02*
X0290768Y0045461D01*
X0290299Y0045069D02*
X0284576Y0045069D01*
X0284968Y0044676D02*
X0289907Y0044676D01*
X0289649Y0044284D02*
X0285226Y0044284D01*
X0285389Y0043892D02*
X0289486Y0043892D01*
X0289324Y0043500D02*
X0285551Y0043500D01*
X0285616Y0043108D02*
X0289260Y0043108D01*
X0289260Y0042715D02*
X0285616Y0042715D01*
X0285616Y0042323D02*
X0288941Y0042323D01*
X0288549Y0041931D02*
X0285554Y0041931D01*
X0285391Y0041539D02*
X0288157Y0041539D01*
X0287765Y0041147D02*
X0285229Y0041147D01*
X0284974Y0040754D02*
X0287741Y0040754D01*
X0287741Y0040362D02*
X0284582Y0040362D01*
X0284121Y0039970D02*
X0287741Y0039970D01*
X0287741Y0039578D02*
X0283174Y0039578D01*
X0282569Y0039186D02*
X0287307Y0039186D01*
X0286914Y0038793D02*
X0282961Y0038793D01*
X0283353Y0038401D02*
X0286522Y0038401D01*
X0286200Y0038009D02*
X0283675Y0038009D01*
X0283837Y0037617D02*
X0286038Y0037617D01*
X0285875Y0037224D02*
X0284000Y0037224D01*
X0284162Y0036832D02*
X0285713Y0036832D01*
X0285588Y0036440D02*
X0284287Y0036440D01*
X0284287Y0036048D02*
X0285588Y0036048D01*
X0285588Y0035656D02*
X0284287Y0035656D01*
X0284287Y0035263D02*
X0285588Y0035263D01*
X0285588Y0034871D02*
X0284287Y0034871D01*
X0284287Y0034479D02*
X0285588Y0034479D01*
X0285588Y0034087D02*
X0284287Y0034087D01*
X0284287Y0033695D02*
X0285588Y0033695D01*
X0285588Y0033302D02*
X0284287Y0033302D01*
X0284287Y0032910D02*
X0285588Y0032910D01*
X0285588Y0032518D02*
X0284287Y0032518D01*
X0284287Y0032126D02*
X0285588Y0032126D01*
X0285588Y0031733D02*
X0284287Y0031733D01*
X0284287Y0031341D02*
X0285588Y0031341D01*
X0285588Y0030949D02*
X0284287Y0030949D01*
X0284287Y0030557D02*
X0285588Y0030557D01*
X0285588Y0030165D02*
X0284287Y0030165D01*
X0284287Y0029772D02*
X0285588Y0029772D01*
X0285588Y0029380D02*
X0284287Y0029380D01*
X0284287Y0028988D02*
X0285588Y0028988D01*
X0285712Y0028596D02*
X0284163Y0028596D01*
X0284001Y0028204D02*
X0285874Y0028204D01*
X0286037Y0027811D02*
X0283839Y0027811D01*
X0283676Y0027419D02*
X0286199Y0027419D01*
X0286519Y0027027D02*
X0283356Y0027027D01*
X0282964Y0026635D02*
X0286912Y0026635D01*
X0287304Y0026243D02*
X0282572Y0026243D01*
X0281865Y0025850D02*
X0288010Y0025850D01*
X0288957Y0025458D02*
X0280918Y0025458D01*
X0278957Y0025458D02*
X0270918Y0025458D01*
X0270803Y0025410D02*
X0272402Y0026072D01*
X0273625Y0027296D01*
X0274287Y0028895D01*
X0274287Y0036531D01*
X0273625Y0038129D01*
X0272534Y0039220D01*
X0272534Y0040815D01*
X0272632Y0040912D01*
X0273116Y0042080D01*
X0273116Y0043345D01*
X0272632Y0044513D01*
X0271738Y0045407D01*
X0270570Y0045891D01*
X0269306Y0045891D01*
X0268137Y0045407D01*
X0267244Y0044513D01*
X0266760Y0043345D01*
X0266760Y0042080D01*
X0267244Y0040912D01*
X0267341Y0040815D01*
X0267341Y0039220D01*
X0266250Y0038129D01*
X0265588Y0036531D01*
X0265588Y0028895D01*
X0266250Y0027296D01*
X0267474Y0026072D01*
X0269072Y0025410D01*
X0270803Y0025410D01*
X0271865Y0025850D02*
X0278010Y0025850D01*
X0277304Y0026243D02*
X0272572Y0026243D01*
X0272964Y0026635D02*
X0276912Y0026635D01*
X0276519Y0027027D02*
X0273356Y0027027D01*
X0273676Y0027419D02*
X0276199Y0027419D01*
X0276037Y0027811D02*
X0273839Y0027811D01*
X0274001Y0028204D02*
X0275874Y0028204D01*
X0275712Y0028596D02*
X0274163Y0028596D01*
X0274287Y0028988D02*
X0275588Y0028988D01*
X0275588Y0029380D02*
X0274287Y0029380D01*
X0274287Y0029772D02*
X0275588Y0029772D01*
X0275588Y0030165D02*
X0274287Y0030165D01*
X0274287Y0030557D02*
X0275588Y0030557D01*
X0275588Y0030949D02*
X0274287Y0030949D01*
X0274287Y0031341D02*
X0275588Y0031341D01*
X0275588Y0031733D02*
X0274287Y0031733D01*
X0274287Y0032126D02*
X0275588Y0032126D01*
X0275588Y0032518D02*
X0274287Y0032518D01*
X0274287Y0032910D02*
X0275588Y0032910D01*
X0275588Y0033302D02*
X0274287Y0033302D01*
X0274287Y0033695D02*
X0275588Y0033695D01*
X0275588Y0034087D02*
X0274287Y0034087D01*
X0274287Y0034479D02*
X0275588Y0034479D01*
X0275588Y0034871D02*
X0274287Y0034871D01*
X0274287Y0035263D02*
X0275588Y0035263D01*
X0275588Y0035656D02*
X0274287Y0035656D01*
X0274287Y0036048D02*
X0275588Y0036048D01*
X0275588Y0036440D02*
X0274287Y0036440D01*
X0274162Y0036832D02*
X0275713Y0036832D01*
X0275875Y0037224D02*
X0274000Y0037224D01*
X0273837Y0037617D02*
X0276038Y0037617D01*
X0276200Y0038009D02*
X0273675Y0038009D01*
X0273353Y0038401D02*
X0276522Y0038401D01*
X0276914Y0038793D02*
X0272961Y0038793D01*
X0272569Y0039186D02*
X0277307Y0039186D01*
X0277741Y0039578D02*
X0272534Y0039578D01*
X0272534Y0039970D02*
X0277741Y0039970D01*
X0277741Y0040362D02*
X0272534Y0040362D01*
X0272534Y0040754D02*
X0277741Y0040754D01*
X0277765Y0041147D02*
X0272729Y0041147D01*
X0272891Y0041539D02*
X0278157Y0041539D01*
X0278549Y0041931D02*
X0273054Y0041931D01*
X0273116Y0042323D02*
X0278941Y0042323D01*
X0279260Y0042715D02*
X0273116Y0042715D01*
X0273116Y0043108D02*
X0279260Y0043108D01*
X0279324Y0043500D02*
X0273051Y0043500D01*
X0272889Y0043892D02*
X0279486Y0043892D01*
X0279649Y0044284D02*
X0272726Y0044284D01*
X0272468Y0044676D02*
X0279907Y0044676D01*
X0280299Y0045069D02*
X0272076Y0045069D01*
X0271607Y0045461D02*
X0280768Y0045461D01*
X0281715Y0045853D02*
X0270660Y0045853D01*
X0269215Y0045853D02*
X0053881Y0045853D01*
X0053719Y0046245D02*
X0414545Y0046245D01*
X0414545Y0046638D02*
X0053556Y0046638D01*
X0053394Y0047030D02*
X0414545Y0047030D01*
X0414545Y0047422D02*
X0337755Y0047422D01*
X0337988Y0047518D02*
X0338882Y0048412D01*
X0339366Y0049580D01*
X0339366Y0050845D01*
X0338882Y0052013D01*
X0337988Y0052907D01*
X0336820Y0053391D01*
X0335834Y0053391D01*
X0334434Y0054790D01*
X0334434Y0055215D01*
X0335132Y0055912D01*
X0335616Y0057080D01*
X0335616Y0058345D01*
X0335132Y0059513D01*
X0334238Y0060407D01*
X0333070Y0060891D01*
X0331806Y0060891D01*
X0330637Y0060407D01*
X0330616Y0060385D01*
X0330616Y0060845D01*
X0330132Y0062013D01*
X0329238Y0062907D01*
X0328070Y0063391D01*
X0326806Y0063391D01*
X0325637Y0062907D01*
X0325140Y0062409D01*
X0317235Y0062409D01*
X0316738Y0062907D01*
X0315570Y0063391D01*
X0314306Y0063391D01*
X0313137Y0062907D01*
X0312244Y0062013D01*
X0311760Y0060845D01*
X0311760Y0059580D01*
X0312244Y0058412D01*
X0313137Y0057518D01*
X0314306Y0057035D01*
X0315570Y0057035D01*
X0316738Y0057518D01*
X0317235Y0058016D01*
X0325140Y0058016D01*
X0325241Y0057915D01*
X0325241Y0051803D01*
X0326528Y0050516D01*
X0326760Y0050284D01*
X0326760Y0049580D01*
X0327244Y0048412D01*
X0328137Y0047518D01*
X0329306Y0047035D01*
X0330570Y0047035D01*
X0331738Y0047518D01*
X0332632Y0048412D01*
X0333063Y0049453D01*
X0333494Y0048412D01*
X0334387Y0047518D01*
X0335556Y0047035D01*
X0336820Y0047035D01*
X0337988Y0047518D01*
X0338284Y0047814D02*
X0414545Y0047814D01*
X0414545Y0048206D02*
X0338676Y0048206D01*
X0338959Y0048599D02*
X0414545Y0048599D01*
X0414545Y0048991D02*
X0339121Y0048991D01*
X0339284Y0049383D02*
X0414545Y0049383D01*
X0414545Y0049775D02*
X0339366Y0049775D01*
X0339366Y0050167D02*
X0414545Y0050167D01*
X0414545Y0050560D02*
X0339366Y0050560D01*
X0339321Y0050952D02*
X0414545Y0050952D01*
X0414545Y0051344D02*
X0339159Y0051344D01*
X0338996Y0051736D02*
X0414545Y0051736D01*
X0414545Y0052129D02*
X0338766Y0052129D01*
X0338374Y0052521D02*
X0414545Y0052521D01*
X0414545Y0052913D02*
X0337973Y0052913D01*
X0337026Y0053305D02*
X0414545Y0053305D01*
X0414545Y0053697D02*
X0335527Y0053697D01*
X0335135Y0054090D02*
X0414545Y0054090D01*
X0414545Y0054482D02*
X0334742Y0054482D01*
X0334434Y0054874D02*
X0414545Y0054874D01*
X0414545Y0055266D02*
X0334486Y0055266D01*
X0334878Y0055658D02*
X0414545Y0055658D01*
X0414545Y0056051D02*
X0335189Y0056051D01*
X0335351Y0056443D02*
X0414545Y0056443D01*
X0414545Y0056835D02*
X0335514Y0056835D01*
X0335616Y0057227D02*
X0414545Y0057227D01*
X0414545Y0057619D02*
X0335616Y0057619D01*
X0335616Y0058012D02*
X0414545Y0058012D01*
X0414545Y0058404D02*
X0335591Y0058404D01*
X0335429Y0058796D02*
X0414545Y0058796D01*
X0414545Y0059188D02*
X0335266Y0059188D01*
X0335064Y0059581D02*
X0414545Y0059581D01*
X0414545Y0059973D02*
X0334672Y0059973D01*
X0334280Y0060365D02*
X0414545Y0060365D01*
X0414545Y0060757D02*
X0333392Y0060757D01*
X0331484Y0060757D02*
X0330616Y0060757D01*
X0330489Y0061149D02*
X0414545Y0061149D01*
X0414545Y0061542D02*
X0330327Y0061542D01*
X0330164Y0061934D02*
X0414545Y0061934D01*
X0414545Y0062326D02*
X0329819Y0062326D01*
X0329426Y0062718D02*
X0414545Y0062718D01*
X0414545Y0063110D02*
X0328746Y0063110D01*
X0326129Y0063110D02*
X0316246Y0063110D01*
X0316926Y0062718D02*
X0325449Y0062718D01*
X0325144Y0058012D02*
X0317231Y0058012D01*
X0316839Y0057619D02*
X0325241Y0057619D01*
X0325241Y0057227D02*
X0316035Y0057227D01*
X0313840Y0057227D02*
X0045334Y0057227D01*
X0045334Y0056835D02*
X0325241Y0056835D01*
X0325241Y0056443D02*
X0045334Y0056443D01*
X0045334Y0056051D02*
X0325241Y0056051D01*
X0325241Y0055658D02*
X0045334Y0055658D01*
X0045334Y0055266D02*
X0325241Y0055266D01*
X0325241Y0054874D02*
X0045334Y0054874D01*
X0045334Y0054482D02*
X0325241Y0054482D01*
X0325241Y0054090D02*
X0045334Y0054090D01*
X0045334Y0053697D02*
X0325241Y0053697D01*
X0325241Y0053305D02*
X0045334Y0053305D01*
X0045334Y0052913D02*
X0325241Y0052913D01*
X0325241Y0052521D02*
X0046981Y0052521D01*
X0046767Y0052609D02*
X0050147Y0051209D01*
X0052734Y0048622D01*
X0054134Y0045242D01*
X0054134Y0041583D01*
X0052734Y0038203D01*
X0050147Y0035616D01*
X0046767Y0034216D01*
X0033108Y0034216D01*
X0029728Y0035616D01*
X0027141Y0038203D01*
X0025741Y0041583D01*
X0025741Y0045242D01*
X0027141Y0048622D01*
X0029728Y0051209D01*
X0033108Y0052609D01*
X0034460Y0052609D01*
X0034541Y0052805D01*
X0034541Y0088786D01*
X0035362Y0090770D01*
X0050362Y0105770D01*
X0051881Y0107288D01*
X0053864Y0108109D01*
X0084761Y0108109D01*
X0086745Y0107288D01*
X0101572Y0092461D01*
X0104881Y0092461D01*
X0108233Y0091072D01*
X0110798Y0088508D01*
X0112186Y0085156D01*
X0112186Y0081529D01*
X0110798Y0078178D01*
X0108233Y0075613D01*
X0104881Y0074224D01*
X0101254Y0074224D01*
X0097903Y0075613D01*
X0095338Y0078178D01*
X0093949Y0081529D01*
X0093949Y0084818D01*
X0081452Y0097316D01*
X0057173Y0097316D01*
X0045334Y0085477D01*
X0045334Y0052805D01*
X0045415Y0052609D01*
X0046767Y0052609D01*
X0047928Y0052129D02*
X0325241Y0052129D01*
X0325307Y0051736D02*
X0048875Y0051736D01*
X0049822Y0051344D02*
X0325699Y0051344D01*
X0326092Y0050952D02*
X0050405Y0050952D01*
X0050797Y0050560D02*
X0326484Y0050560D01*
X0326760Y0050167D02*
X0051189Y0050167D01*
X0051581Y0049775D02*
X0326760Y0049775D01*
X0326841Y0049383D02*
X0051974Y0049383D01*
X0052366Y0048991D02*
X0327004Y0048991D01*
X0327166Y0048599D02*
X0052744Y0048599D01*
X0052907Y0048206D02*
X0327450Y0048206D01*
X0327842Y0047814D02*
X0053069Y0047814D01*
X0053232Y0047422D02*
X0328370Y0047422D01*
X0331505Y0047422D02*
X0334620Y0047422D01*
X0334092Y0047814D02*
X0332034Y0047814D01*
X0332426Y0048206D02*
X0333700Y0048206D01*
X0333416Y0048599D02*
X0332709Y0048599D01*
X0332871Y0048991D02*
X0333254Y0048991D01*
X0333091Y0049383D02*
X0333034Y0049383D01*
X0313036Y0057619D02*
X0045334Y0057619D01*
X0045334Y0058012D02*
X0312644Y0058012D01*
X0312252Y0058404D02*
X0045334Y0058404D01*
X0045334Y0058796D02*
X0312085Y0058796D01*
X0311922Y0059188D02*
X0045334Y0059188D01*
X0045334Y0059581D02*
X0311760Y0059581D01*
X0311760Y0059973D02*
X0045334Y0059973D01*
X0045334Y0060365D02*
X0311760Y0060365D01*
X0311760Y0060757D02*
X0045334Y0060757D01*
X0045334Y0061149D02*
X0311886Y0061149D01*
X0312048Y0061542D02*
X0045334Y0061542D01*
X0045334Y0061934D02*
X0312211Y0061934D01*
X0312557Y0062326D02*
X0045334Y0062326D01*
X0045334Y0062718D02*
X0312949Y0062718D01*
X0313629Y0063110D02*
X0045334Y0063110D01*
X0045334Y0063503D02*
X0414545Y0063503D01*
X0414545Y0063895D02*
X0045334Y0063895D01*
X0045334Y0064287D02*
X0414545Y0064287D01*
X0414545Y0064679D02*
X0045334Y0064679D01*
X0045334Y0065072D02*
X0414545Y0065072D01*
X0414545Y0065464D02*
X0045334Y0065464D01*
X0045334Y0065856D02*
X0414545Y0065856D01*
X0414545Y0066248D02*
X0045334Y0066248D01*
X0045334Y0066640D02*
X0414545Y0066640D01*
X0414545Y0067033D02*
X0045334Y0067033D01*
X0045334Y0067425D02*
X0414545Y0067425D01*
X0414545Y0067817D02*
X0045334Y0067817D01*
X0045334Y0068209D02*
X0414545Y0068209D01*
X0414545Y0068601D02*
X0045334Y0068601D01*
X0045334Y0068994D02*
X0414545Y0068994D01*
X0414545Y0069386D02*
X0045334Y0069386D01*
X0045334Y0069778D02*
X0414545Y0069778D01*
X0414545Y0070170D02*
X0045334Y0070170D01*
X0045334Y0070562D02*
X0414545Y0070562D01*
X0414545Y0070955D02*
X0045334Y0070955D01*
X0045334Y0071347D02*
X0414545Y0071347D01*
X0414545Y0071739D02*
X0045334Y0071739D01*
X0045334Y0072131D02*
X0414545Y0072131D01*
X0414545Y0072524D02*
X0045334Y0072524D01*
X0045334Y0072916D02*
X0414545Y0072916D01*
X0414545Y0073308D02*
X0045334Y0073308D01*
X0045334Y0073700D02*
X0414545Y0073700D01*
X0414545Y0074092D02*
X0045334Y0074092D01*
X0045334Y0074485D02*
X0100626Y0074485D01*
X0099679Y0074877D02*
X0045334Y0074877D01*
X0045334Y0075269D02*
X0098732Y0075269D01*
X0097854Y0075661D02*
X0045334Y0075661D01*
X0045334Y0076053D02*
X0097462Y0076053D01*
X0097069Y0076446D02*
X0045334Y0076446D01*
X0045334Y0076838D02*
X0096677Y0076838D01*
X0096285Y0077230D02*
X0045334Y0077230D01*
X0045334Y0077622D02*
X0095893Y0077622D01*
X0095501Y0078015D02*
X0045334Y0078015D01*
X0045334Y0078407D02*
X0095243Y0078407D01*
X0095080Y0078799D02*
X0045334Y0078799D01*
X0045334Y0079191D02*
X0094918Y0079191D01*
X0094755Y0079583D02*
X0045334Y0079583D01*
X0045334Y0079976D02*
X0094593Y0079976D01*
X0094430Y0080368D02*
X0045334Y0080368D01*
X0045334Y0080760D02*
X0094268Y0080760D01*
X0094105Y0081152D02*
X0045334Y0081152D01*
X0045334Y0081544D02*
X0093949Y0081544D01*
X0093949Y0081937D02*
X0045334Y0081937D01*
X0045334Y0082329D02*
X0093949Y0082329D01*
X0093949Y0082721D02*
X0045334Y0082721D01*
X0045334Y0083113D02*
X0093949Y0083113D01*
X0093949Y0083505D02*
X0045334Y0083505D01*
X0045334Y0083898D02*
X0093949Y0083898D01*
X0093949Y0084290D02*
X0045334Y0084290D01*
X0045334Y0084682D02*
X0093949Y0084682D01*
X0093694Y0085074D02*
X0045334Y0085074D01*
X0045334Y0085467D02*
X0093301Y0085467D01*
X0092909Y0085859D02*
X0045716Y0085859D01*
X0046108Y0086251D02*
X0092517Y0086251D01*
X0092125Y0086643D02*
X0046501Y0086643D01*
X0046893Y0087035D02*
X0091733Y0087035D01*
X0091340Y0087428D02*
X0047285Y0087428D01*
X0047677Y0087820D02*
X0090948Y0087820D01*
X0090556Y0088212D02*
X0048069Y0088212D01*
X0048462Y0088604D02*
X0090164Y0088604D01*
X0089772Y0088996D02*
X0048854Y0088996D01*
X0049246Y0089389D02*
X0089379Y0089389D01*
X0088987Y0089781D02*
X0049638Y0089781D01*
X0050030Y0090173D02*
X0088595Y0090173D01*
X0088203Y0090565D02*
X0050423Y0090565D01*
X0050815Y0090958D02*
X0087810Y0090958D01*
X0087418Y0091350D02*
X0051207Y0091350D01*
X0051599Y0091742D02*
X0087026Y0091742D01*
X0086634Y0092134D02*
X0051991Y0092134D01*
X0052384Y0092526D02*
X0086242Y0092526D01*
X0085849Y0092919D02*
X0052776Y0092919D01*
X0053168Y0093311D02*
X0085457Y0093311D01*
X0085065Y0093703D02*
X0053560Y0093703D01*
X0053953Y0094095D02*
X0084673Y0094095D01*
X0084281Y0094487D02*
X0054345Y0094487D01*
X0054737Y0094880D02*
X0083888Y0094880D01*
X0083496Y0095272D02*
X0055129Y0095272D01*
X0055521Y0095664D02*
X0083104Y0095664D01*
X0082712Y0096056D02*
X0055914Y0096056D01*
X0056306Y0096448D02*
X0082319Y0096448D01*
X0081927Y0096841D02*
X0056698Y0096841D01*
X0057090Y0097233D02*
X0081535Y0097233D01*
X0091701Y0102332D02*
X0175490Y0102332D01*
X0175490Y0102724D02*
X0091309Y0102724D01*
X0090916Y0103116D02*
X0175490Y0103116D01*
X0175490Y0103508D02*
X0090524Y0103508D01*
X0090132Y0103901D02*
X0175490Y0103901D01*
X0175490Y0104284D02*
X0175490Y0101771D01*
X0176452Y0099449D01*
X0178229Y0097671D01*
X0180551Y0096709D01*
X0183064Y0096709D01*
X0185387Y0097671D01*
X0187164Y0099449D01*
X0188126Y0101771D01*
X0188126Y0104284D01*
X0187164Y0106606D01*
X0185387Y0108384D01*
X0185034Y0108530D01*
X0185034Y0110815D01*
X0185132Y0110912D01*
X0185616Y0112080D01*
X0185616Y0113345D01*
X0185132Y0114513D01*
X0184238Y0115407D01*
X0183070Y0115891D01*
X0181806Y0115891D01*
X0180637Y0115407D01*
X0179744Y0114513D01*
X0179260Y0113345D01*
X0179260Y0112080D01*
X0179744Y0110912D01*
X0179841Y0110815D01*
X0179841Y0109051D01*
X0178229Y0108384D01*
X0176452Y0106606D01*
X0175490Y0104284D01*
X0175493Y0104293D02*
X0089740Y0104293D01*
X0089348Y0104685D02*
X0175656Y0104685D01*
X0175818Y0105077D02*
X0088955Y0105077D01*
X0088563Y0105469D02*
X0175980Y0105469D01*
X0176143Y0105862D02*
X0088171Y0105862D01*
X0087779Y0106254D02*
X0176305Y0106254D01*
X0176491Y0106646D02*
X0087387Y0106646D01*
X0086994Y0107038D02*
X0176883Y0107038D01*
X0177275Y0107430D02*
X0086400Y0107430D01*
X0085454Y0107823D02*
X0177668Y0107823D01*
X0178060Y0108215D02*
X0024031Y0108215D01*
X0024031Y0108607D02*
X0178768Y0108607D01*
X0179715Y0108999D02*
X0024031Y0108999D01*
X0024031Y0109391D02*
X0179841Y0109391D01*
X0179841Y0109784D02*
X0024031Y0109784D01*
X0024031Y0110176D02*
X0179841Y0110176D01*
X0179841Y0110568D02*
X0024031Y0110568D01*
X0024031Y0110960D02*
X0179724Y0110960D01*
X0179561Y0111353D02*
X0024031Y0111353D01*
X0024031Y0111745D02*
X0179399Y0111745D01*
X0179260Y0112137D02*
X0024031Y0112137D01*
X0024031Y0112529D02*
X0179260Y0112529D01*
X0179260Y0112921D02*
X0024031Y0112921D01*
X0024031Y0113314D02*
X0179260Y0113314D01*
X0179409Y0113706D02*
X0024031Y0113706D01*
X0024031Y0114098D02*
X0179572Y0114098D01*
X0179734Y0114490D02*
X0024031Y0114490D01*
X0024031Y0114882D02*
X0180113Y0114882D01*
X0180505Y0115275D02*
X0024031Y0115275D01*
X0024031Y0115667D02*
X0181266Y0115667D01*
X0183610Y0115667D02*
X0385720Y0115667D01*
X0385864Y0115607D02*
X0387673Y0115607D01*
X0389344Y0116299D01*
X0390623Y0117578D01*
X0391315Y0119249D01*
X0391315Y0121058D01*
X0390623Y0122729D01*
X0389344Y0124008D01*
X0388554Y0124335D01*
X0388882Y0124662D01*
X0389366Y0125830D01*
X0389366Y0127095D01*
X0388882Y0128263D01*
X0387988Y0129157D01*
X0386820Y0129641D01*
X0385556Y0129641D01*
X0384387Y0129157D01*
X0383494Y0128263D01*
X0383010Y0127095D01*
X0383010Y0125830D01*
X0383494Y0124662D01*
X0384171Y0123985D01*
X0382914Y0122729D01*
X0382222Y0121058D01*
X0382222Y0119249D01*
X0382914Y0117578D01*
X0384193Y0116299D01*
X0385864Y0115607D01*
X0385864Y0114857D02*
X0384193Y0114165D01*
X0382914Y0112886D01*
X0382222Y0111215D01*
X0382222Y0109407D01*
X0382914Y0107736D01*
X0384190Y0106459D01*
X0383494Y0105763D01*
X0383010Y0104595D01*
X0383010Y0103330D01*
X0383494Y0102162D01*
X0384387Y0101268D01*
X0385556Y0100785D01*
X0386820Y0100785D01*
X0387988Y0101268D01*
X0388882Y0102162D01*
X0389366Y0103330D01*
X0389366Y0104595D01*
X0388882Y0105763D01*
X0388526Y0106118D01*
X0389344Y0106457D01*
X0390623Y0107736D01*
X0390705Y0107935D01*
X0390788Y0107736D01*
X0392067Y0106457D01*
X0392683Y0106202D01*
X0392244Y0105763D01*
X0391760Y0104595D01*
X0391760Y0103330D01*
X0392244Y0102162D01*
X0393137Y0101268D01*
X0394306Y0100785D01*
X0395570Y0100785D01*
X0396738Y0101268D01*
X0397632Y0102162D01*
X0398116Y0103330D01*
X0398116Y0104595D01*
X0397632Y0105763D01*
X0397020Y0106375D01*
X0397218Y0106457D01*
X0398497Y0107736D01*
X0399189Y0109407D01*
X0399189Y0111215D01*
X0398497Y0112886D01*
X0397218Y0114165D01*
X0395547Y0114857D01*
X0393738Y0114857D01*
X0392067Y0114165D01*
X0390788Y0112886D01*
X0390705Y0112687D01*
X0390623Y0112886D01*
X0389344Y0114165D01*
X0387673Y0114857D01*
X0385864Y0114857D01*
X0384977Y0114490D02*
X0185141Y0114490D01*
X0185304Y0114098D02*
X0384126Y0114098D01*
X0383733Y0113706D02*
X0185466Y0113706D01*
X0185616Y0113314D02*
X0383341Y0113314D01*
X0382949Y0112921D02*
X0185616Y0112921D01*
X0185616Y0112529D02*
X0382766Y0112529D01*
X0382604Y0112137D02*
X0185616Y0112137D01*
X0185477Y0111745D02*
X0382441Y0111745D01*
X0382279Y0111353D02*
X0185314Y0111353D01*
X0185152Y0110960D02*
X0382222Y0110960D01*
X0382222Y0110568D02*
X0185034Y0110568D01*
X0185034Y0110176D02*
X0382222Y0110176D01*
X0382222Y0109784D02*
X0185034Y0109784D01*
X0185034Y0109391D02*
X0382228Y0109391D01*
X0382391Y0108999D02*
X0185034Y0108999D01*
X0185034Y0108607D02*
X0382553Y0108607D01*
X0382716Y0108215D02*
X0185556Y0108215D01*
X0185948Y0107823D02*
X0382878Y0107823D01*
X0383219Y0107430D02*
X0186340Y0107430D01*
X0186732Y0107038D02*
X0383612Y0107038D01*
X0384004Y0106646D02*
X0187124Y0106646D01*
X0187310Y0106254D02*
X0383985Y0106254D01*
X0383592Y0105862D02*
X0187473Y0105862D01*
X0187635Y0105469D02*
X0383372Y0105469D01*
X0383210Y0105077D02*
X0187797Y0105077D01*
X0187960Y0104685D02*
X0383047Y0104685D01*
X0383010Y0104293D02*
X0330160Y0104293D01*
X0330488Y0104157D02*
X0329320Y0104641D01*
X0328056Y0104641D01*
X0326887Y0104157D01*
X0326390Y0103659D01*
X0317235Y0103659D01*
X0316738Y0104157D01*
X0315570Y0104641D01*
X0314306Y0104641D01*
X0313137Y0104157D01*
X0312244Y0103263D01*
X0311760Y0102095D01*
X0311760Y0100830D01*
X0312244Y0099662D01*
X0313137Y0098768D01*
X0314306Y0098285D01*
X0315570Y0098285D01*
X0316738Y0098768D01*
X0317235Y0099266D01*
X0326390Y0099266D01*
X0326887Y0098768D01*
X0328056Y0098285D01*
X0329320Y0098285D01*
X0330488Y0098768D01*
X0331382Y0099662D01*
X0331866Y0100830D01*
X0331866Y0102095D01*
X0331382Y0103263D01*
X0330488Y0104157D01*
X0330744Y0103901D02*
X0383010Y0103901D01*
X0383010Y0103508D02*
X0331136Y0103508D01*
X0331443Y0103116D02*
X0383098Y0103116D01*
X0383261Y0102724D02*
X0331605Y0102724D01*
X0331767Y0102332D02*
X0383423Y0102332D01*
X0383716Y0101939D02*
X0331866Y0101939D01*
X0331866Y0101547D02*
X0384109Y0101547D01*
X0384661Y0101155D02*
X0331866Y0101155D01*
X0331838Y0100763D02*
X0414545Y0100763D01*
X0414545Y0101155D02*
X0396464Y0101155D01*
X0397017Y0101547D02*
X0414545Y0101547D01*
X0414545Y0101939D02*
X0397409Y0101939D01*
X0397702Y0102332D02*
X0414545Y0102332D01*
X0414545Y0102724D02*
X0397864Y0102724D01*
X0398027Y0103116D02*
X0414545Y0103116D01*
X0414545Y0103508D02*
X0398116Y0103508D01*
X0398116Y0103901D02*
X0414545Y0103901D01*
X0414545Y0104293D02*
X0398116Y0104293D01*
X0398078Y0104685D02*
X0414545Y0104685D01*
X0414545Y0105077D02*
X0397916Y0105077D01*
X0397753Y0105469D02*
X0414545Y0105469D01*
X0414545Y0105862D02*
X0397533Y0105862D01*
X0397141Y0106254D02*
X0414545Y0106254D01*
X0414545Y0106646D02*
X0397407Y0106646D01*
X0397799Y0107038D02*
X0414545Y0107038D01*
X0414545Y0107430D02*
X0398191Y0107430D01*
X0398533Y0107823D02*
X0414545Y0107823D01*
X0414545Y0108215D02*
X0398695Y0108215D01*
X0398858Y0108607D02*
X0414545Y0108607D01*
X0414545Y0108999D02*
X0399020Y0108999D01*
X0399183Y0109391D02*
X0414545Y0109391D01*
X0414545Y0109784D02*
X0399189Y0109784D01*
X0399189Y0110176D02*
X0414545Y0110176D01*
X0414545Y0110568D02*
X0399189Y0110568D01*
X0399189Y0110960D02*
X0414545Y0110960D01*
X0414545Y0111353D02*
X0399132Y0111353D01*
X0398970Y0111745D02*
X0414545Y0111745D01*
X0414545Y0112137D02*
X0398807Y0112137D01*
X0398645Y0112529D02*
X0414545Y0112529D01*
X0414545Y0112921D02*
X0398462Y0112921D01*
X0398069Y0113314D02*
X0414545Y0113314D01*
X0414545Y0113706D02*
X0397677Y0113706D01*
X0397285Y0114098D02*
X0414545Y0114098D01*
X0414545Y0114490D02*
X0396433Y0114490D01*
X0392851Y0114490D02*
X0388559Y0114490D01*
X0389411Y0114098D02*
X0392000Y0114098D01*
X0391608Y0113706D02*
X0389803Y0113706D01*
X0390195Y0113314D02*
X0391215Y0113314D01*
X0390823Y0112921D02*
X0390588Y0112921D01*
X0388764Y0116059D02*
X0414545Y0116059D01*
X0414545Y0115667D02*
X0387817Y0115667D01*
X0389496Y0116451D02*
X0414545Y0116451D01*
X0414545Y0116844D02*
X0389888Y0116844D01*
X0390280Y0117236D02*
X0414545Y0117236D01*
X0414545Y0117628D02*
X0390643Y0117628D01*
X0390806Y0118020D02*
X0414545Y0118020D01*
X0414545Y0118412D02*
X0390968Y0118412D01*
X0391131Y0118805D02*
X0414545Y0118805D01*
X0414545Y0119197D02*
X0391293Y0119197D01*
X0391315Y0119589D02*
X0414545Y0119589D01*
X0414545Y0119981D02*
X0391315Y0119981D01*
X0391315Y0120373D02*
X0414545Y0120373D01*
X0414545Y0120766D02*
X0391315Y0120766D01*
X0391273Y0121158D02*
X0414545Y0121158D01*
X0414545Y0121550D02*
X0391111Y0121550D01*
X0390948Y0121942D02*
X0414545Y0121942D01*
X0414545Y0122334D02*
X0390786Y0122334D01*
X0390624Y0122727D02*
X0414545Y0122727D01*
X0414545Y0123119D02*
X0390233Y0123119D01*
X0389840Y0123511D02*
X0414545Y0123511D01*
X0414545Y0123903D02*
X0389448Y0123903D01*
X0388649Y0124296D02*
X0414545Y0124296D01*
X0414545Y0124688D02*
X0388892Y0124688D01*
X0389055Y0125080D02*
X0414545Y0125080D01*
X0414545Y0125472D02*
X0389217Y0125472D01*
X0389366Y0125864D02*
X0414545Y0125864D01*
X0414545Y0126257D02*
X0389366Y0126257D01*
X0389366Y0126649D02*
X0414545Y0126649D01*
X0414545Y0127041D02*
X0389366Y0127041D01*
X0389225Y0127433D02*
X0414545Y0127433D01*
X0414545Y0127825D02*
X0389063Y0127825D01*
X0388900Y0128218D02*
X0414545Y0128218D01*
X0414545Y0128610D02*
X0388535Y0128610D01*
X0388142Y0129002D02*
X0414545Y0129002D01*
X0414545Y0129394D02*
X0387414Y0129394D01*
X0384961Y0129394D02*
X0053808Y0129394D01*
X0053645Y0129002D02*
X0384233Y0129002D01*
X0383841Y0128610D02*
X0053483Y0128610D01*
X0053320Y0128218D02*
X0383475Y0128218D01*
X0383312Y0127825D02*
X0053158Y0127825D01*
X0052995Y0127433D02*
X0383150Y0127433D01*
X0383010Y0127041D02*
X0052833Y0127041D01*
X0052734Y0126803D02*
X0054134Y0130183D01*
X0054134Y0133842D01*
X0052734Y0137222D01*
X0050147Y0139809D01*
X0047834Y0140767D01*
X0047834Y0144677D01*
X0047875Y0144677D01*
X0050828Y0145900D01*
X0053088Y0148161D01*
X0054312Y0151114D01*
X0054312Y0154311D01*
X0053088Y0157264D01*
X0050828Y0159525D01*
X0047875Y0160748D01*
X0037001Y0160748D01*
X0034047Y0159525D01*
X0031787Y0157264D01*
X0030564Y0154311D01*
X0030564Y0151114D01*
X0031787Y0148161D01*
X0034047Y0145900D01*
X0037001Y0144677D01*
X0037041Y0144677D01*
X0037041Y0141209D01*
X0033108Y0141209D01*
X0029728Y0139809D01*
X0027141Y0137222D01*
X0025741Y0133842D01*
X0025741Y0130183D01*
X0027141Y0126803D01*
X0029728Y0124216D01*
X0033108Y0122816D01*
X0046767Y0122816D01*
X0050147Y0124216D01*
X0052734Y0126803D01*
X0052580Y0126649D02*
X0383010Y0126649D01*
X0383010Y0126257D02*
X0052188Y0126257D01*
X0051796Y0125864D02*
X0383010Y0125864D01*
X0383158Y0125472D02*
X0051404Y0125472D01*
X0051011Y0125080D02*
X0383321Y0125080D01*
X0383483Y0124688D02*
X0050619Y0124688D01*
X0050227Y0124296D02*
X0383860Y0124296D01*
X0384088Y0123903D02*
X0049393Y0123903D01*
X0048446Y0123511D02*
X0383696Y0123511D01*
X0383304Y0123119D02*
X0047499Y0123119D01*
X0032376Y0123119D02*
X0024031Y0123119D01*
X0024031Y0123511D02*
X0031430Y0123511D01*
X0030483Y0123903D02*
X0024031Y0123903D01*
X0024031Y0124296D02*
X0029648Y0124296D01*
X0029256Y0124688D02*
X0024031Y0124688D01*
X0024031Y0125080D02*
X0028864Y0125080D01*
X0028472Y0125472D02*
X0024031Y0125472D01*
X0024031Y0125864D02*
X0028080Y0125864D01*
X0027687Y0126257D02*
X0024031Y0126257D01*
X0024031Y0126649D02*
X0027295Y0126649D01*
X0027042Y0127041D02*
X0024031Y0127041D01*
X0024031Y0127433D02*
X0026880Y0127433D01*
X0026717Y0127825D02*
X0024031Y0127825D01*
X0024031Y0128218D02*
X0026555Y0128218D01*
X0026393Y0128610D02*
X0024031Y0128610D01*
X0024031Y0129002D02*
X0026230Y0129002D01*
X0026068Y0129394D02*
X0024031Y0129394D01*
X0024031Y0129787D02*
X0025905Y0129787D01*
X0025743Y0130179D02*
X0024031Y0130179D01*
X0024031Y0130571D02*
X0025741Y0130571D01*
X0025741Y0130963D02*
X0024031Y0130963D01*
X0024031Y0131355D02*
X0025741Y0131355D01*
X0025741Y0131748D02*
X0024031Y0131748D01*
X0024031Y0132140D02*
X0025741Y0132140D01*
X0025741Y0132532D02*
X0024031Y0132532D01*
X0024031Y0132924D02*
X0025741Y0132924D01*
X0025741Y0133316D02*
X0024031Y0133316D01*
X0024031Y0133709D02*
X0025741Y0133709D01*
X0025848Y0134101D02*
X0024031Y0134101D01*
X0024031Y0134493D02*
X0026011Y0134493D01*
X0026173Y0134885D02*
X0024031Y0134885D01*
X0024031Y0135277D02*
X0026335Y0135277D01*
X0026498Y0135670D02*
X0024031Y0135670D01*
X0024031Y0136062D02*
X0026660Y0136062D01*
X0026823Y0136454D02*
X0024031Y0136454D01*
X0024031Y0136846D02*
X0026985Y0136846D01*
X0027157Y0137239D02*
X0024031Y0137239D01*
X0024031Y0137631D02*
X0027550Y0137631D01*
X0027942Y0138023D02*
X0024031Y0138023D01*
X0024031Y0138415D02*
X0028334Y0138415D01*
X0028726Y0138807D02*
X0024031Y0138807D01*
X0024031Y0139200D02*
X0029118Y0139200D01*
X0029511Y0139592D02*
X0024031Y0139592D01*
X0024031Y0139984D02*
X0030150Y0139984D01*
X0031097Y0140376D02*
X0024031Y0140376D01*
X0024031Y0140768D02*
X0032044Y0140768D01*
X0032991Y0141161D02*
X0024031Y0141161D01*
X0024031Y0141553D02*
X0037041Y0141553D01*
X0037041Y0141945D02*
X0024031Y0141945D01*
X0024031Y0142337D02*
X0037041Y0142337D01*
X0037041Y0142730D02*
X0024031Y0142730D01*
X0024031Y0143122D02*
X0037041Y0143122D01*
X0037041Y0143514D02*
X0024031Y0143514D01*
X0024031Y0143906D02*
X0037041Y0143906D01*
X0037041Y0144298D02*
X0024031Y0144298D01*
X0024031Y0144691D02*
X0036968Y0144691D01*
X0036021Y0145083D02*
X0024031Y0145083D01*
X0024031Y0145475D02*
X0035075Y0145475D01*
X0034128Y0145867D02*
X0024031Y0145867D01*
X0024031Y0146259D02*
X0033688Y0146259D01*
X0033296Y0146652D02*
X0024031Y0146652D01*
X0024031Y0147044D02*
X0032904Y0147044D01*
X0032512Y0147436D02*
X0024031Y0147436D01*
X0024031Y0147828D02*
X0032120Y0147828D01*
X0031762Y0148220D02*
X0024031Y0148220D01*
X0024031Y0148613D02*
X0031600Y0148613D01*
X0031437Y0149005D02*
X0024031Y0149005D01*
X0024031Y0149397D02*
X0031275Y0149397D01*
X0031112Y0149789D02*
X0024031Y0149789D01*
X0024031Y0150182D02*
X0030950Y0150182D01*
X0030788Y0150574D02*
X0024031Y0150574D01*
X0024031Y0150966D02*
X0030625Y0150966D01*
X0030564Y0151358D02*
X0024031Y0151358D01*
X0024031Y0151750D02*
X0030564Y0151750D01*
X0030564Y0152143D02*
X0024031Y0152143D01*
X0024031Y0152535D02*
X0030564Y0152535D01*
X0030564Y0152927D02*
X0024031Y0152927D01*
X0024031Y0153319D02*
X0030564Y0153319D01*
X0030564Y0153711D02*
X0024031Y0153711D01*
X0024031Y0154104D02*
X0030564Y0154104D01*
X0030640Y0154496D02*
X0024031Y0154496D01*
X0024031Y0154888D02*
X0030803Y0154888D01*
X0030965Y0155280D02*
X0024031Y0155280D01*
X0024031Y0155673D02*
X0031128Y0155673D01*
X0031290Y0156065D02*
X0024031Y0156065D01*
X0024031Y0156457D02*
X0031453Y0156457D01*
X0031615Y0156849D02*
X0024031Y0156849D01*
X0024031Y0157241D02*
X0031777Y0157241D01*
X0032156Y0157634D02*
X0024031Y0157634D01*
X0024031Y0158026D02*
X0032548Y0158026D01*
X0032941Y0158418D02*
X0024031Y0158418D01*
X0024031Y0158810D02*
X0033333Y0158810D01*
X0033725Y0159202D02*
X0024031Y0159202D01*
X0024031Y0159595D02*
X0034216Y0159595D01*
X0035163Y0159987D02*
X0024031Y0159987D01*
X0024031Y0160379D02*
X0036110Y0160379D01*
X0037001Y0164677D02*
X0047875Y0164677D01*
X0050828Y0165900D01*
X0052243Y0167316D01*
X0090202Y0167316D01*
X0093949Y0163568D01*
X0093949Y0160269D01*
X0095338Y0156918D01*
X0097903Y0154353D01*
X0101254Y0152965D01*
X0104881Y0152965D01*
X0108233Y0154353D01*
X0110798Y0156918D01*
X0112186Y0160269D01*
X0112186Y0163896D01*
X0110798Y0167248D01*
X0108233Y0169813D01*
X0104881Y0171201D01*
X0101582Y0171201D01*
X0095495Y0177288D01*
X0093511Y0178109D01*
X0052243Y0178109D01*
X0050828Y0179525D01*
X0047875Y0180748D01*
X0037001Y0180748D01*
X0034047Y0179525D01*
X0031787Y0177264D01*
X0030564Y0174311D01*
X0030564Y0171114D01*
X0031787Y0168161D01*
X0034047Y0165900D01*
X0037001Y0164677D01*
X0036962Y0164693D02*
X0024031Y0164693D01*
X0024031Y0164301D02*
X0093217Y0164301D01*
X0093609Y0163909D02*
X0024031Y0163909D01*
X0024031Y0163517D02*
X0093949Y0163517D01*
X0093949Y0163125D02*
X0024031Y0163125D01*
X0024031Y0162732D02*
X0093949Y0162732D01*
X0093949Y0162340D02*
X0024031Y0162340D01*
X0024031Y0161948D02*
X0093949Y0161948D01*
X0093949Y0161556D02*
X0024031Y0161556D01*
X0024031Y0161163D02*
X0093949Y0161163D01*
X0093949Y0160771D02*
X0024031Y0160771D01*
X0024031Y0165086D02*
X0036015Y0165086D01*
X0035068Y0165478D02*
X0024031Y0165478D01*
X0024031Y0165870D02*
X0034121Y0165870D01*
X0033686Y0166262D02*
X0024031Y0166262D01*
X0024031Y0166654D02*
X0033293Y0166654D01*
X0032901Y0167047D02*
X0024031Y0167047D01*
X0024031Y0167439D02*
X0032509Y0167439D01*
X0032117Y0167831D02*
X0024031Y0167831D01*
X0024031Y0168223D02*
X0031761Y0168223D01*
X0031599Y0168616D02*
X0024031Y0168616D01*
X0024031Y0169008D02*
X0031436Y0169008D01*
X0031274Y0169400D02*
X0024031Y0169400D01*
X0024031Y0169792D02*
X0031111Y0169792D01*
X0030949Y0170184D02*
X0024031Y0170184D01*
X0024031Y0170577D02*
X0030786Y0170577D01*
X0030624Y0170969D02*
X0024031Y0170969D01*
X0024031Y0171361D02*
X0030564Y0171361D01*
X0030564Y0171753D02*
X0024031Y0171753D01*
X0024031Y0172145D02*
X0030564Y0172145D01*
X0030564Y0172538D02*
X0024031Y0172538D01*
X0024031Y0172930D02*
X0030564Y0172930D01*
X0030564Y0173322D02*
X0024031Y0173322D01*
X0024031Y0173714D02*
X0030564Y0173714D01*
X0030564Y0174106D02*
X0024031Y0174106D01*
X0024031Y0174499D02*
X0030641Y0174499D01*
X0030804Y0174891D02*
X0024031Y0174891D01*
X0024031Y0175283D02*
X0030966Y0175283D01*
X0031129Y0175675D02*
X0024031Y0175675D01*
X0024031Y0176068D02*
X0031291Y0176068D01*
X0031454Y0176460D02*
X0024031Y0176460D01*
X0024031Y0176852D02*
X0031616Y0176852D01*
X0031779Y0177244D02*
X0024031Y0177244D01*
X0024031Y0177636D02*
X0032159Y0177636D01*
X0032551Y0178029D02*
X0024031Y0178029D01*
X0024031Y0178421D02*
X0032943Y0178421D01*
X0033336Y0178813D02*
X0024031Y0178813D01*
X0024031Y0179205D02*
X0033728Y0179205D01*
X0034223Y0179597D02*
X0024031Y0179597D01*
X0024031Y0179990D02*
X0035170Y0179990D01*
X0036117Y0180382D02*
X0024031Y0180382D01*
X0024031Y0180774D02*
X0414545Y0180774D01*
X0414545Y0180382D02*
X0048759Y0180382D01*
X0049705Y0179990D02*
X0414545Y0179990D01*
X0414545Y0179597D02*
X0050652Y0179597D01*
X0051147Y0179205D02*
X0414545Y0179205D01*
X0414545Y0178813D02*
X0051540Y0178813D01*
X0051932Y0178421D02*
X0414545Y0178421D01*
X0414545Y0178029D02*
X0093706Y0178029D01*
X0094653Y0177636D02*
X0414545Y0177636D01*
X0414545Y0177244D02*
X0095538Y0177244D01*
X0095931Y0176852D02*
X0414545Y0176852D01*
X0414545Y0176460D02*
X0096323Y0176460D01*
X0096715Y0176068D02*
X0414545Y0176068D01*
X0414545Y0175675D02*
X0097107Y0175675D01*
X0097499Y0175283D02*
X0414545Y0175283D01*
X0414545Y0174891D02*
X0097892Y0174891D01*
X0098284Y0174499D02*
X0414545Y0174499D01*
X0414545Y0174106D02*
X0098676Y0174106D01*
X0099068Y0173714D02*
X0414545Y0173714D01*
X0414545Y0173322D02*
X0099460Y0173322D01*
X0099853Y0172930D02*
X0414545Y0172930D01*
X0414545Y0172538D02*
X0100245Y0172538D01*
X0100637Y0172145D02*
X0180087Y0172145D01*
X0180551Y0172338D02*
X0178229Y0171376D01*
X0176452Y0169599D01*
X0176228Y0169059D01*
X0173085Y0169059D01*
X0172988Y0169157D01*
X0171820Y0169641D01*
X0170556Y0169641D01*
X0169387Y0169157D01*
X0168494Y0168263D01*
X0168010Y0167095D01*
X0168010Y0165830D01*
X0168494Y0164662D01*
X0169387Y0163768D01*
X0170556Y0163285D01*
X0171820Y0163285D01*
X0172988Y0163768D01*
X0173085Y0163866D01*
X0175861Y0163866D01*
X0176452Y0162441D01*
X0178229Y0160663D01*
X0180551Y0159702D01*
X0183064Y0159702D01*
X0185387Y0160663D01*
X0187164Y0162441D01*
X0188126Y0164763D01*
X0188126Y0167276D01*
X0187164Y0169599D01*
X0185387Y0171376D01*
X0183064Y0172338D01*
X0180551Y0172338D01*
X0179140Y0171753D02*
X0101029Y0171753D01*
X0101422Y0171361D02*
X0178214Y0171361D01*
X0177822Y0170969D02*
X0105441Y0170969D01*
X0106388Y0170577D02*
X0177429Y0170577D01*
X0177037Y0170184D02*
X0107335Y0170184D01*
X0108253Y0169792D02*
X0176645Y0169792D01*
X0176369Y0169400D02*
X0172401Y0169400D01*
X0169975Y0169400D02*
X0108645Y0169400D01*
X0109037Y0169008D02*
X0169238Y0169008D01*
X0168846Y0168616D02*
X0109430Y0168616D01*
X0109822Y0168223D02*
X0168477Y0168223D01*
X0168315Y0167831D02*
X0110214Y0167831D01*
X0110606Y0167439D02*
X0168152Y0167439D01*
X0168010Y0167047D02*
X0110881Y0167047D01*
X0111043Y0166654D02*
X0168010Y0166654D01*
X0168010Y0166262D02*
X0111206Y0166262D01*
X0111368Y0165870D02*
X0168010Y0165870D01*
X0168156Y0165478D02*
X0111531Y0165478D01*
X0111693Y0165086D02*
X0168318Y0165086D01*
X0168481Y0164693D02*
X0111856Y0164693D01*
X0112018Y0164301D02*
X0168855Y0164301D01*
X0169247Y0163909D02*
X0112180Y0163909D01*
X0112186Y0163517D02*
X0169995Y0163517D01*
X0172380Y0163517D02*
X0176006Y0163517D01*
X0176168Y0163125D02*
X0112186Y0163125D01*
X0112186Y0162732D02*
X0176331Y0162732D01*
X0176552Y0162340D02*
X0112186Y0162340D01*
X0112186Y0161948D02*
X0176944Y0161948D01*
X0177337Y0161556D02*
X0112186Y0161556D01*
X0112186Y0161163D02*
X0177729Y0161163D01*
X0178121Y0160771D02*
X0112186Y0160771D01*
X0112186Y0160379D02*
X0178915Y0160379D01*
X0179862Y0159987D02*
X0112069Y0159987D01*
X0111906Y0159595D02*
X0293322Y0159595D01*
X0293484Y0159987D02*
X0183753Y0159987D01*
X0184700Y0160379D02*
X0293647Y0160379D01*
X0293750Y0160629D02*
X0293088Y0159031D01*
X0293088Y0151395D01*
X0293750Y0149796D01*
X0294974Y0148572D01*
X0296572Y0147910D01*
X0298303Y0147910D01*
X0299902Y0148572D01*
X0301125Y0149796D01*
X0301787Y0151395D01*
X0301787Y0159031D01*
X0301125Y0160629D01*
X0299902Y0161853D01*
X0299634Y0161963D01*
X0299634Y0164165D01*
X0300132Y0164662D01*
X0300616Y0165830D01*
X0300616Y0167095D01*
X0300132Y0168263D01*
X0299238Y0169157D01*
X0298070Y0169641D01*
X0296806Y0169641D01*
X0295637Y0169157D01*
X0294744Y0168263D01*
X0294260Y0167095D01*
X0294260Y0165830D01*
X0294744Y0164662D01*
X0295241Y0164165D01*
X0295241Y0161963D01*
X0294974Y0161853D01*
X0293750Y0160629D01*
X0293892Y0160771D02*
X0185494Y0160771D01*
X0185887Y0161163D02*
X0294285Y0161163D01*
X0294677Y0161556D02*
X0186279Y0161556D01*
X0186671Y0161948D02*
X0295203Y0161948D01*
X0295241Y0162340D02*
X0187063Y0162340D01*
X0187285Y0162732D02*
X0295241Y0162732D01*
X0295241Y0163125D02*
X0187447Y0163125D01*
X0187610Y0163517D02*
X0295241Y0163517D01*
X0295241Y0163909D02*
X0187772Y0163909D01*
X0187935Y0164301D02*
X0295105Y0164301D01*
X0294731Y0164693D02*
X0188097Y0164693D01*
X0188126Y0165086D02*
X0294568Y0165086D01*
X0294406Y0165478D02*
X0188126Y0165478D01*
X0188126Y0165870D02*
X0294260Y0165870D01*
X0294260Y0166262D02*
X0188126Y0166262D01*
X0188126Y0166654D02*
X0294260Y0166654D01*
X0294260Y0167047D02*
X0188126Y0167047D01*
X0188059Y0167439D02*
X0294402Y0167439D01*
X0294565Y0167831D02*
X0187896Y0167831D01*
X0187734Y0168223D02*
X0294727Y0168223D01*
X0295096Y0168616D02*
X0187571Y0168616D01*
X0187409Y0169008D02*
X0295488Y0169008D01*
X0296225Y0169400D02*
X0187246Y0169400D01*
X0186970Y0169792D02*
X0414545Y0169792D01*
X0414545Y0169400D02*
X0308651Y0169400D01*
X0308070Y0169641D02*
X0309238Y0169157D01*
X0310132Y0168263D01*
X0310616Y0167095D01*
X0310616Y0165830D01*
X0310132Y0164662D01*
X0309634Y0164165D01*
X0309634Y0161963D01*
X0309902Y0161853D01*
X0311125Y0160629D01*
X0311787Y0159031D01*
X0311787Y0151395D01*
X0311125Y0149796D01*
X0309902Y0148572D01*
X0308303Y0147910D01*
X0306572Y0147910D01*
X0304974Y0148572D01*
X0303750Y0149796D01*
X0303088Y0151395D01*
X0303088Y0159031D01*
X0303750Y0160629D01*
X0304974Y0161853D01*
X0305241Y0161963D01*
X0305241Y0164165D01*
X0304744Y0164662D01*
X0304260Y0165830D01*
X0304260Y0167095D01*
X0304744Y0168263D01*
X0305637Y0169157D01*
X0306806Y0169641D01*
X0308070Y0169641D01*
X0309387Y0169008D02*
X0414545Y0169008D01*
X0414545Y0168616D02*
X0309779Y0168616D01*
X0310148Y0168223D02*
X0414545Y0168223D01*
X0414545Y0167831D02*
X0310311Y0167831D01*
X0310473Y0167439D02*
X0414545Y0167439D01*
X0414545Y0167047D02*
X0338296Y0167047D01*
X0338070Y0167141D02*
X0336806Y0167141D01*
X0335637Y0166657D01*
X0334744Y0165763D01*
X0334260Y0164595D01*
X0334260Y0163330D01*
X0334744Y0162162D01*
X0335030Y0161876D01*
X0334974Y0161853D01*
X0333750Y0160629D01*
X0333088Y0159031D01*
X0333088Y0151395D01*
X0333750Y0149796D01*
X0334974Y0148572D01*
X0336572Y0147910D01*
X0338303Y0147910D01*
X0339902Y0148572D01*
X0341125Y0149796D01*
X0341787Y0151395D01*
X0341787Y0159031D01*
X0341125Y0160629D01*
X0339902Y0161853D01*
X0339845Y0161876D01*
X0340132Y0162162D01*
X0340616Y0163330D01*
X0340616Y0164595D01*
X0340132Y0165763D01*
X0339238Y0166657D01*
X0338070Y0167141D01*
X0339240Y0166654D02*
X0414545Y0166654D01*
X0414545Y0166262D02*
X0339632Y0166262D01*
X0340025Y0165870D02*
X0414545Y0165870D01*
X0414545Y0165478D02*
X0340250Y0165478D01*
X0340412Y0165086D02*
X0414545Y0165086D01*
X0414545Y0164693D02*
X0340575Y0164693D01*
X0340616Y0164301D02*
X0414545Y0164301D01*
X0414545Y0163909D02*
X0340616Y0163909D01*
X0340616Y0163517D02*
X0414545Y0163517D01*
X0414545Y0163125D02*
X0340530Y0163125D01*
X0340368Y0162732D02*
X0414545Y0162732D01*
X0414545Y0162340D02*
X0348725Y0162340D01*
X0348303Y0162515D02*
X0349902Y0161853D01*
X0351125Y0160629D01*
X0351787Y0159031D01*
X0351787Y0151395D01*
X0351125Y0149796D01*
X0349902Y0148572D01*
X0348303Y0147910D01*
X0346572Y0147910D01*
X0344974Y0148572D01*
X0343750Y0149796D01*
X0343088Y0151395D01*
X0343088Y0159031D01*
X0343750Y0160629D01*
X0344974Y0161853D01*
X0346572Y0162515D01*
X0348303Y0162515D01*
X0349672Y0161948D02*
X0414545Y0161948D01*
X0414545Y0161556D02*
X0350199Y0161556D01*
X0350591Y0161163D02*
X0414545Y0161163D01*
X0414545Y0160771D02*
X0350983Y0160771D01*
X0351229Y0160379D02*
X0414545Y0160379D01*
X0414545Y0159987D02*
X0351391Y0159987D01*
X0351554Y0159595D02*
X0414545Y0159595D01*
X0414545Y0159202D02*
X0351716Y0159202D01*
X0351787Y0158810D02*
X0414545Y0158810D01*
X0414545Y0158418D02*
X0351787Y0158418D01*
X0351787Y0158026D02*
X0414545Y0158026D01*
X0414545Y0157634D02*
X0351787Y0157634D01*
X0351787Y0157241D02*
X0414545Y0157241D01*
X0414545Y0156849D02*
X0351787Y0156849D01*
X0351787Y0156457D02*
X0414545Y0156457D01*
X0414545Y0156065D02*
X0351787Y0156065D01*
X0351787Y0155673D02*
X0414545Y0155673D01*
X0414545Y0155280D02*
X0351787Y0155280D01*
X0351787Y0154888D02*
X0414545Y0154888D01*
X0414545Y0154496D02*
X0351787Y0154496D01*
X0351787Y0154104D02*
X0414545Y0154104D01*
X0414545Y0153711D02*
X0351787Y0153711D01*
X0351787Y0153319D02*
X0414545Y0153319D01*
X0414545Y0152927D02*
X0351787Y0152927D01*
X0351787Y0152535D02*
X0414545Y0152535D01*
X0414545Y0152143D02*
X0351787Y0152143D01*
X0351787Y0151750D02*
X0414545Y0151750D01*
X0414545Y0151358D02*
X0351772Y0151358D01*
X0351610Y0150966D02*
X0414545Y0150966D01*
X0414545Y0150574D02*
X0351447Y0150574D01*
X0351285Y0150182D02*
X0414545Y0150182D01*
X0414545Y0149789D02*
X0351118Y0149789D01*
X0350726Y0149397D02*
X0414545Y0149397D01*
X0414545Y0149005D02*
X0350334Y0149005D01*
X0349942Y0148613D02*
X0414545Y0148613D01*
X0414545Y0148220D02*
X0349052Y0148220D01*
X0345823Y0148220D02*
X0339052Y0148220D01*
X0339942Y0148613D02*
X0344934Y0148613D01*
X0344541Y0149005D02*
X0340334Y0149005D01*
X0340726Y0149397D02*
X0344149Y0149397D01*
X0343757Y0149789D02*
X0341118Y0149789D01*
X0341285Y0150182D02*
X0343591Y0150182D01*
X0343428Y0150574D02*
X0341447Y0150574D01*
X0341610Y0150966D02*
X0343266Y0150966D01*
X0343103Y0151358D02*
X0341772Y0151358D01*
X0341787Y0151750D02*
X0343088Y0151750D01*
X0343088Y0152143D02*
X0341787Y0152143D01*
X0341787Y0152535D02*
X0343088Y0152535D01*
X0343088Y0152927D02*
X0341787Y0152927D01*
X0341787Y0153319D02*
X0343088Y0153319D01*
X0343088Y0153711D02*
X0341787Y0153711D01*
X0341787Y0154104D02*
X0343088Y0154104D01*
X0343088Y0154496D02*
X0341787Y0154496D01*
X0341787Y0154888D02*
X0343088Y0154888D01*
X0343088Y0155280D02*
X0341787Y0155280D01*
X0341787Y0155673D02*
X0343088Y0155673D01*
X0343088Y0156065D02*
X0341787Y0156065D01*
X0341787Y0156457D02*
X0343088Y0156457D01*
X0343088Y0156849D02*
X0341787Y0156849D01*
X0341787Y0157241D02*
X0343088Y0157241D01*
X0343088Y0157634D02*
X0341787Y0157634D01*
X0341787Y0158026D02*
X0343088Y0158026D01*
X0343088Y0158418D02*
X0341787Y0158418D01*
X0341787Y0158810D02*
X0343088Y0158810D01*
X0343159Y0159202D02*
X0341716Y0159202D01*
X0341554Y0159595D02*
X0343322Y0159595D01*
X0343484Y0159987D02*
X0341391Y0159987D01*
X0341229Y0160379D02*
X0343647Y0160379D01*
X0343892Y0160771D02*
X0340983Y0160771D01*
X0340591Y0161163D02*
X0344285Y0161163D01*
X0344677Y0161556D02*
X0340199Y0161556D01*
X0339917Y0161948D02*
X0345203Y0161948D01*
X0346150Y0162340D02*
X0340205Y0162340D01*
X0334958Y0161948D02*
X0329917Y0161948D01*
X0329902Y0161853D02*
X0329845Y0161876D01*
X0330132Y0162162D01*
X0330616Y0163330D01*
X0330616Y0164595D01*
X0330132Y0165763D01*
X0329238Y0166657D01*
X0328070Y0167141D01*
X0326806Y0167141D01*
X0325637Y0166657D01*
X0324744Y0165763D01*
X0324260Y0164595D01*
X0324260Y0163330D01*
X0324744Y0162162D01*
X0325030Y0161876D01*
X0324974Y0161853D01*
X0323750Y0160629D01*
X0323088Y0159031D01*
X0323088Y0151395D01*
X0323750Y0149796D01*
X0324974Y0148572D01*
X0326572Y0147910D01*
X0328303Y0147910D01*
X0329902Y0148572D01*
X0331125Y0149796D01*
X0331787Y0151395D01*
X0331787Y0159031D01*
X0331125Y0160629D01*
X0329902Y0161853D01*
X0330199Y0161556D02*
X0334677Y0161556D01*
X0334285Y0161163D02*
X0330591Y0161163D01*
X0330983Y0160771D02*
X0333892Y0160771D01*
X0333647Y0160379D02*
X0331229Y0160379D01*
X0331391Y0159987D02*
X0333484Y0159987D01*
X0333322Y0159595D02*
X0331554Y0159595D01*
X0331716Y0159202D02*
X0333159Y0159202D01*
X0333088Y0158810D02*
X0331787Y0158810D01*
X0331787Y0158418D02*
X0333088Y0158418D01*
X0333088Y0158026D02*
X0331787Y0158026D01*
X0331787Y0157634D02*
X0333088Y0157634D01*
X0333088Y0157241D02*
X0331787Y0157241D01*
X0331787Y0156849D02*
X0333088Y0156849D01*
X0333088Y0156457D02*
X0331787Y0156457D01*
X0331787Y0156065D02*
X0333088Y0156065D01*
X0333088Y0155673D02*
X0331787Y0155673D01*
X0331787Y0155280D02*
X0333088Y0155280D01*
X0333088Y0154888D02*
X0331787Y0154888D01*
X0331787Y0154496D02*
X0333088Y0154496D01*
X0333088Y0154104D02*
X0331787Y0154104D01*
X0331787Y0153711D02*
X0333088Y0153711D01*
X0333088Y0153319D02*
X0331787Y0153319D01*
X0331787Y0152927D02*
X0333088Y0152927D01*
X0333088Y0152535D02*
X0331787Y0152535D01*
X0331787Y0152143D02*
X0333088Y0152143D01*
X0333088Y0151750D02*
X0331787Y0151750D01*
X0331772Y0151358D02*
X0333103Y0151358D01*
X0333266Y0150966D02*
X0331610Y0150966D01*
X0331447Y0150574D02*
X0333428Y0150574D01*
X0333591Y0150182D02*
X0331285Y0150182D01*
X0331118Y0149789D02*
X0333757Y0149789D01*
X0334149Y0149397D02*
X0330726Y0149397D01*
X0330334Y0149005D02*
X0334541Y0149005D01*
X0334934Y0148613D02*
X0329942Y0148613D01*
X0329052Y0148220D02*
X0335823Y0148220D01*
X0325823Y0148220D02*
X0309052Y0148220D01*
X0309942Y0148613D02*
X0324934Y0148613D01*
X0324541Y0149005D02*
X0310334Y0149005D01*
X0310726Y0149397D02*
X0324149Y0149397D01*
X0323757Y0149789D02*
X0311118Y0149789D01*
X0311285Y0150182D02*
X0323591Y0150182D01*
X0323428Y0150574D02*
X0311447Y0150574D01*
X0311610Y0150966D02*
X0323266Y0150966D01*
X0323103Y0151358D02*
X0311772Y0151358D01*
X0311787Y0151750D02*
X0323088Y0151750D01*
X0323088Y0152143D02*
X0311787Y0152143D01*
X0311787Y0152535D02*
X0323088Y0152535D01*
X0323088Y0152927D02*
X0311787Y0152927D01*
X0311787Y0153319D02*
X0323088Y0153319D01*
X0323088Y0153711D02*
X0311787Y0153711D01*
X0311787Y0154104D02*
X0323088Y0154104D01*
X0323088Y0154496D02*
X0311787Y0154496D01*
X0311787Y0154888D02*
X0323088Y0154888D01*
X0323088Y0155280D02*
X0311787Y0155280D01*
X0311787Y0155673D02*
X0323088Y0155673D01*
X0323088Y0156065D02*
X0311787Y0156065D01*
X0311787Y0156457D02*
X0323088Y0156457D01*
X0323088Y0156849D02*
X0311787Y0156849D01*
X0311787Y0157241D02*
X0323088Y0157241D01*
X0323088Y0157634D02*
X0311787Y0157634D01*
X0311787Y0158026D02*
X0323088Y0158026D01*
X0323088Y0158418D02*
X0311787Y0158418D01*
X0311787Y0158810D02*
X0323088Y0158810D01*
X0323159Y0159202D02*
X0311716Y0159202D01*
X0311554Y0159595D02*
X0323322Y0159595D01*
X0323484Y0159987D02*
X0311391Y0159987D01*
X0311229Y0160379D02*
X0323647Y0160379D01*
X0323892Y0160771D02*
X0310983Y0160771D01*
X0310591Y0161163D02*
X0324285Y0161163D01*
X0324677Y0161556D02*
X0310199Y0161556D01*
X0309672Y0161948D02*
X0324958Y0161948D01*
X0324670Y0162340D02*
X0309634Y0162340D01*
X0309634Y0162732D02*
X0324507Y0162732D01*
X0324345Y0163125D02*
X0309634Y0163125D01*
X0309634Y0163517D02*
X0324260Y0163517D01*
X0324260Y0163909D02*
X0309634Y0163909D01*
X0309771Y0164301D02*
X0324260Y0164301D01*
X0324301Y0164693D02*
X0310145Y0164693D01*
X0310307Y0165086D02*
X0324463Y0165086D01*
X0324625Y0165478D02*
X0310470Y0165478D01*
X0310616Y0165870D02*
X0324851Y0165870D01*
X0325243Y0166262D02*
X0310616Y0166262D01*
X0310616Y0166654D02*
X0325635Y0166654D01*
X0326579Y0167047D02*
X0310616Y0167047D01*
X0306225Y0169400D02*
X0298651Y0169400D01*
X0299387Y0169008D02*
X0305488Y0169008D01*
X0305096Y0168616D02*
X0299779Y0168616D01*
X0300148Y0168223D02*
X0304727Y0168223D01*
X0304565Y0167831D02*
X0300311Y0167831D01*
X0300473Y0167439D02*
X0304402Y0167439D01*
X0304260Y0167047D02*
X0300616Y0167047D01*
X0300616Y0166654D02*
X0304260Y0166654D01*
X0304260Y0166262D02*
X0300616Y0166262D01*
X0300616Y0165870D02*
X0304260Y0165870D01*
X0304406Y0165478D02*
X0300470Y0165478D01*
X0300307Y0165086D02*
X0304568Y0165086D01*
X0304731Y0164693D02*
X0300145Y0164693D01*
X0299771Y0164301D02*
X0305105Y0164301D01*
X0305241Y0163909D02*
X0299634Y0163909D01*
X0299634Y0163517D02*
X0305241Y0163517D01*
X0305241Y0163125D02*
X0299634Y0163125D01*
X0299634Y0162732D02*
X0305241Y0162732D01*
X0305241Y0162340D02*
X0299634Y0162340D01*
X0299672Y0161948D02*
X0305203Y0161948D01*
X0304677Y0161556D02*
X0300199Y0161556D01*
X0300591Y0161163D02*
X0304285Y0161163D01*
X0303892Y0160771D02*
X0300983Y0160771D01*
X0301229Y0160379D02*
X0303647Y0160379D01*
X0303484Y0159987D02*
X0301391Y0159987D01*
X0301554Y0159595D02*
X0303322Y0159595D01*
X0303159Y0159202D02*
X0301716Y0159202D01*
X0301787Y0158810D02*
X0303088Y0158810D01*
X0303088Y0158418D02*
X0301787Y0158418D01*
X0301787Y0158026D02*
X0303088Y0158026D01*
X0303088Y0157634D02*
X0301787Y0157634D01*
X0301787Y0157241D02*
X0303088Y0157241D01*
X0303088Y0156849D02*
X0301787Y0156849D01*
X0301787Y0156457D02*
X0303088Y0156457D01*
X0303088Y0156065D02*
X0301787Y0156065D01*
X0301787Y0155673D02*
X0303088Y0155673D01*
X0303088Y0155280D02*
X0301787Y0155280D01*
X0301787Y0154888D02*
X0303088Y0154888D01*
X0303088Y0154496D02*
X0301787Y0154496D01*
X0301787Y0154104D02*
X0303088Y0154104D01*
X0303088Y0153711D02*
X0301787Y0153711D01*
X0301787Y0153319D02*
X0303088Y0153319D01*
X0303088Y0152927D02*
X0301787Y0152927D01*
X0301787Y0152535D02*
X0303088Y0152535D01*
X0303088Y0152143D02*
X0301787Y0152143D01*
X0301787Y0151750D02*
X0303088Y0151750D01*
X0303103Y0151358D02*
X0301772Y0151358D01*
X0301610Y0150966D02*
X0303266Y0150966D01*
X0303428Y0150574D02*
X0301447Y0150574D01*
X0301285Y0150182D02*
X0303591Y0150182D01*
X0303757Y0149789D02*
X0301118Y0149789D01*
X0300726Y0149397D02*
X0304149Y0149397D01*
X0304541Y0149005D02*
X0300334Y0149005D01*
X0299942Y0148613D02*
X0304934Y0148613D01*
X0305823Y0148220D02*
X0299052Y0148220D01*
X0295823Y0148220D02*
X0053113Y0148220D01*
X0053275Y0148613D02*
X0294934Y0148613D01*
X0294541Y0149005D02*
X0053438Y0149005D01*
X0053600Y0149397D02*
X0294149Y0149397D01*
X0293757Y0149789D02*
X0053763Y0149789D01*
X0053925Y0150182D02*
X0293591Y0150182D01*
X0293428Y0150574D02*
X0054088Y0150574D01*
X0054250Y0150966D02*
X0293266Y0150966D01*
X0293103Y0151358D02*
X0054312Y0151358D01*
X0054312Y0151750D02*
X0293088Y0151750D01*
X0293088Y0152143D02*
X0054312Y0152143D01*
X0054312Y0152535D02*
X0293088Y0152535D01*
X0293088Y0152927D02*
X0054312Y0152927D01*
X0054312Y0153319D02*
X0100398Y0153319D01*
X0099451Y0153711D02*
X0054312Y0153711D01*
X0054312Y0154104D02*
X0098504Y0154104D01*
X0097759Y0154496D02*
X0054235Y0154496D01*
X0054073Y0154888D02*
X0097367Y0154888D01*
X0096975Y0155280D02*
X0053910Y0155280D01*
X0053748Y0155673D02*
X0096583Y0155673D01*
X0096191Y0156065D02*
X0053585Y0156065D01*
X0053423Y0156457D02*
X0095798Y0156457D01*
X0095406Y0156849D02*
X0053260Y0156849D01*
X0053098Y0157241D02*
X0095204Y0157241D01*
X0095041Y0157634D02*
X0052719Y0157634D01*
X0052327Y0158026D02*
X0094879Y0158026D01*
X0094716Y0158418D02*
X0051935Y0158418D01*
X0051542Y0158810D02*
X0094554Y0158810D01*
X0094391Y0159202D02*
X0051150Y0159202D01*
X0050659Y0159595D02*
X0094229Y0159595D01*
X0094066Y0159987D02*
X0049712Y0159987D01*
X0048765Y0160379D02*
X0093949Y0160379D01*
X0092825Y0164693D02*
X0047914Y0164693D01*
X0048861Y0165086D02*
X0092432Y0165086D01*
X0092040Y0165478D02*
X0049808Y0165478D01*
X0050754Y0165870D02*
X0091648Y0165870D01*
X0091256Y0166262D02*
X0051190Y0166262D01*
X0051582Y0166654D02*
X0090864Y0166654D01*
X0090471Y0167047D02*
X0051974Y0167047D01*
X0024031Y0181166D02*
X0414545Y0181166D01*
X0414545Y0181559D02*
X0024031Y0181559D01*
X0024031Y0181951D02*
X0414545Y0181951D01*
X0414545Y0182343D02*
X0024031Y0182343D01*
X0024031Y0182735D02*
X0414545Y0182735D01*
X0414545Y0183127D02*
X0024031Y0183127D01*
X0024031Y0183520D02*
X0414545Y0183520D01*
X0414545Y0183912D02*
X0024031Y0183912D01*
X0024031Y0184304D02*
X0414545Y0184304D01*
X0414545Y0184696D02*
X0024031Y0184696D01*
X0024031Y0185088D02*
X0414545Y0185088D01*
X0414545Y0185481D02*
X0024031Y0185481D01*
X0024031Y0185873D02*
X0414545Y0185873D01*
X0414545Y0186265D02*
X0024031Y0186265D01*
X0024031Y0186657D02*
X0414545Y0186657D01*
X0414545Y0187049D02*
X0024031Y0187049D01*
X0024031Y0187442D02*
X0414545Y0187442D01*
X0414545Y0187834D02*
X0024031Y0187834D01*
X0024031Y0188226D02*
X0414545Y0188226D01*
X0414545Y0188618D02*
X0024031Y0188618D01*
X0024031Y0189011D02*
X0414545Y0189011D01*
X0414545Y0189403D02*
X0024031Y0189403D01*
X0024031Y0189795D02*
X0414545Y0189795D01*
X0414545Y0190187D02*
X0024031Y0190187D01*
X0024031Y0190579D02*
X0414545Y0190579D01*
X0414545Y0190972D02*
X0024031Y0190972D01*
X0024031Y0191364D02*
X0414545Y0191364D01*
X0414545Y0191756D02*
X0024031Y0191756D01*
X0024031Y0192148D02*
X0414545Y0192148D01*
X0414545Y0192540D02*
X0024031Y0192540D01*
X0024031Y0192933D02*
X0414545Y0192933D01*
X0414545Y0193325D02*
X0024031Y0193325D01*
X0024031Y0193717D02*
X0194028Y0193717D01*
X0194407Y0193560D02*
X0196137Y0193560D01*
X0197736Y0194222D01*
X0198960Y0195446D01*
X0199622Y0197044D01*
X0199622Y0198775D01*
X0198960Y0200373D01*
X0197736Y0201597D01*
X0196137Y0202259D01*
X0194407Y0202259D01*
X0192808Y0201597D01*
X0191585Y0200373D01*
X0190923Y0198775D01*
X0190923Y0197044D01*
X0191585Y0195446D01*
X0192808Y0194222D01*
X0194407Y0193560D01*
X0193081Y0194109D02*
X0024031Y0194109D01*
X0024031Y0194502D02*
X0192529Y0194502D01*
X0192137Y0194894D02*
X0024031Y0194894D01*
X0024031Y0195286D02*
X0191745Y0195286D01*
X0191489Y0195678D02*
X0024031Y0195678D01*
X0024042Y0196070D02*
X0191326Y0196070D01*
X0191164Y0196463D02*
X0024072Y0196463D01*
X0024103Y0196855D02*
X0191001Y0196855D01*
X0190923Y0197247D02*
X0024134Y0197247D01*
X0024190Y0197639D02*
X0190923Y0197639D01*
X0190923Y0198031D02*
X0024317Y0198031D01*
X0024444Y0198424D02*
X0190923Y0198424D01*
X0190940Y0198816D02*
X0024572Y0198816D01*
X0024699Y0199208D02*
X0191102Y0199208D01*
X0191265Y0199600D02*
X0024827Y0199600D01*
X0024954Y0199992D02*
X0191427Y0199992D01*
X0191596Y0200385D02*
X0025082Y0200385D01*
X0025288Y0200777D02*
X0191988Y0200777D01*
X0192381Y0201169D02*
X0025573Y0201169D01*
X0025858Y0201561D02*
X0192773Y0201561D01*
X0193670Y0201954D02*
X0026143Y0201954D01*
X0026428Y0202346D02*
X0412148Y0202346D01*
X0411863Y0202738D02*
X0026713Y0202738D01*
X0026998Y0203130D02*
X0411578Y0203130D01*
X0411061Y0203522D02*
X0027515Y0203522D01*
X0028055Y0203915D02*
X0410521Y0203915D01*
X0409982Y0204307D02*
X0028595Y0204307D01*
X0029134Y0204699D02*
X0409442Y0204699D01*
X0408823Y0205091D02*
X0029753Y0205091D01*
X0030961Y0205483D02*
X0407616Y0205483D01*
X0406408Y0205876D02*
X0032168Y0205876D01*
X0034249Y0207752D02*
X0404327Y0207752D01*
X0412433Y0201954D02*
X0336875Y0201954D01*
X0336137Y0202259D02*
X0334407Y0202259D01*
X0332808Y0201597D01*
X0331585Y0200373D01*
X0330923Y0198775D01*
X0330923Y0197044D01*
X0331585Y0195446D01*
X0332808Y0194222D01*
X0334407Y0193560D01*
X0336137Y0193560D01*
X0337736Y0194222D01*
X0338960Y0195446D01*
X0339622Y0197044D01*
X0339622Y0198775D01*
X0338960Y0200373D01*
X0337736Y0201597D01*
X0336137Y0202259D01*
X0337772Y0201561D02*
X0412718Y0201561D01*
X0413003Y0201169D02*
X0338164Y0201169D01*
X0338556Y0200777D02*
X0413288Y0200777D01*
X0413494Y0200385D02*
X0338948Y0200385D01*
X0339117Y0199992D02*
X0413622Y0199992D01*
X0413749Y0199600D02*
X0339280Y0199600D01*
X0339442Y0199208D02*
X0413877Y0199208D01*
X0414004Y0198816D02*
X0339605Y0198816D01*
X0339622Y0198424D02*
X0414132Y0198424D01*
X0414259Y0198031D02*
X0339622Y0198031D01*
X0339622Y0197639D02*
X0414386Y0197639D01*
X0414442Y0197247D02*
X0339622Y0197247D01*
X0339543Y0196855D02*
X0414473Y0196855D01*
X0414504Y0196463D02*
X0339381Y0196463D01*
X0339218Y0196070D02*
X0414535Y0196070D01*
X0414545Y0195678D02*
X0339056Y0195678D01*
X0338800Y0195286D02*
X0414545Y0195286D01*
X0414545Y0194894D02*
X0338408Y0194894D01*
X0338016Y0194502D02*
X0414545Y0194502D01*
X0414545Y0194109D02*
X0337464Y0194109D01*
X0336517Y0193717D02*
X0414545Y0193717D01*
X0416138Y0195941D02*
X0416138Y0034524D01*
X0416135Y0034239D01*
X0416124Y0033953D01*
X0416107Y0033668D01*
X0416083Y0033384D01*
X0416052Y0033100D01*
X0416014Y0032817D01*
X0415969Y0032536D01*
X0415918Y0032255D01*
X0415860Y0031975D01*
X0415795Y0031697D01*
X0415723Y0031421D01*
X0415645Y0031147D01*
X0415560Y0030874D01*
X0415468Y0030604D01*
X0415370Y0030336D01*
X0415266Y0030070D01*
X0415155Y0029807D01*
X0415038Y0029547D01*
X0414915Y0029289D01*
X0414785Y0029035D01*
X0414649Y0028784D01*
X0414508Y0028536D01*
X0414360Y0028292D01*
X0414207Y0028051D01*
X0414047Y0027815D01*
X0413882Y0027582D01*
X0413712Y0027353D01*
X0413536Y0027128D01*
X0413354Y0026908D01*
X0413168Y0026692D01*
X0412976Y0026481D01*
X0412779Y0026274D01*
X0412577Y0026072D01*
X0412370Y0025875D01*
X0412159Y0025683D01*
X0411943Y0025497D01*
X0411723Y0025315D01*
X0411498Y0025139D01*
X0411269Y0024969D01*
X0411036Y0024804D01*
X0410800Y0024644D01*
X0410559Y0024491D01*
X0410315Y0024343D01*
X0410067Y0024202D01*
X0409816Y0024066D01*
X0409562Y0023936D01*
X0409304Y0023813D01*
X0409044Y0023696D01*
X0408781Y0023585D01*
X0408515Y0023481D01*
X0408247Y0023383D01*
X0407977Y0023291D01*
X0407704Y0023206D01*
X0407430Y0023128D01*
X0407154Y0023056D01*
X0406876Y0022991D01*
X0406596Y0022933D01*
X0406315Y0022882D01*
X0406034Y0022837D01*
X0405751Y0022799D01*
X0405467Y0022768D01*
X0405183Y0022744D01*
X0404898Y0022727D01*
X0404612Y0022716D01*
X0404327Y0022713D01*
X0414545Y0074485D02*
X0105509Y0074485D01*
X0106456Y0074877D02*
X0414545Y0074877D01*
X0414545Y0075269D02*
X0107403Y0075269D01*
X0108281Y0075661D02*
X0414545Y0075661D01*
X0414545Y0076053D02*
X0108673Y0076053D01*
X0109066Y0076446D02*
X0414545Y0076446D01*
X0414545Y0076838D02*
X0109458Y0076838D01*
X0109850Y0077230D02*
X0414545Y0077230D01*
X0414545Y0077622D02*
X0110242Y0077622D01*
X0110635Y0078015D02*
X0414545Y0078015D01*
X0414545Y0078407D02*
X0110892Y0078407D01*
X0111055Y0078799D02*
X0414545Y0078799D01*
X0414545Y0079191D02*
X0111217Y0079191D01*
X0111380Y0079583D02*
X0414545Y0079583D01*
X0414545Y0079976D02*
X0111542Y0079976D01*
X0111705Y0080368D02*
X0414545Y0080368D01*
X0414545Y0080760D02*
X0111867Y0080760D01*
X0112030Y0081152D02*
X0414545Y0081152D01*
X0414545Y0081544D02*
X0112186Y0081544D01*
X0112186Y0081937D02*
X0414545Y0081937D01*
X0414545Y0082329D02*
X0112186Y0082329D01*
X0112186Y0082721D02*
X0414545Y0082721D01*
X0414545Y0083113D02*
X0112186Y0083113D01*
X0112186Y0083505D02*
X0414545Y0083505D01*
X0414545Y0083898D02*
X0112186Y0083898D01*
X0112186Y0084290D02*
X0414545Y0084290D01*
X0414545Y0084682D02*
X0112186Y0084682D01*
X0112186Y0085074D02*
X0414545Y0085074D01*
X0414545Y0085467D02*
X0112057Y0085467D01*
X0111895Y0085859D02*
X0414545Y0085859D01*
X0414545Y0086251D02*
X0111732Y0086251D01*
X0111570Y0086643D02*
X0414545Y0086643D01*
X0414545Y0087035D02*
X0111407Y0087035D01*
X0111245Y0087428D02*
X0414545Y0087428D01*
X0414545Y0087820D02*
X0111082Y0087820D01*
X0110920Y0088212D02*
X0414545Y0088212D01*
X0414545Y0088604D02*
X0110701Y0088604D01*
X0110309Y0088996D02*
X0414545Y0088996D01*
X0414545Y0089389D02*
X0109916Y0089389D01*
X0109524Y0089781D02*
X0414545Y0089781D01*
X0414545Y0090173D02*
X0109132Y0090173D01*
X0108740Y0090565D02*
X0414545Y0090565D01*
X0414545Y0090958D02*
X0108348Y0090958D01*
X0107563Y0091350D02*
X0414545Y0091350D01*
X0414545Y0091742D02*
X0106616Y0091742D01*
X0105669Y0092134D02*
X0414545Y0092134D01*
X0414545Y0092526D02*
X0101506Y0092526D01*
X0101114Y0092919D02*
X0414545Y0092919D01*
X0414545Y0093311D02*
X0100722Y0093311D01*
X0100330Y0093703D02*
X0414545Y0093703D01*
X0414545Y0094095D02*
X0099937Y0094095D01*
X0099545Y0094487D02*
X0414545Y0094487D01*
X0414545Y0094880D02*
X0099153Y0094880D01*
X0098761Y0095272D02*
X0414545Y0095272D01*
X0414545Y0095664D02*
X0098368Y0095664D01*
X0097976Y0096056D02*
X0414545Y0096056D01*
X0414545Y0096448D02*
X0097584Y0096448D01*
X0097192Y0096841D02*
X0180234Y0096841D01*
X0179287Y0097233D02*
X0096800Y0097233D01*
X0096407Y0097625D02*
X0178340Y0097625D01*
X0177883Y0098017D02*
X0096015Y0098017D01*
X0095623Y0098410D02*
X0177491Y0098410D01*
X0177098Y0098802D02*
X0095231Y0098802D01*
X0094839Y0099194D02*
X0176706Y0099194D01*
X0176395Y0099586D02*
X0094446Y0099586D01*
X0094054Y0099978D02*
X0176232Y0099978D01*
X0176070Y0100371D02*
X0093662Y0100371D01*
X0093270Y0100763D02*
X0175907Y0100763D01*
X0175745Y0101155D02*
X0092878Y0101155D01*
X0092485Y0101547D02*
X0175582Y0101547D01*
X0175490Y0101939D02*
X0092093Y0101939D01*
X0053172Y0107823D02*
X0024031Y0107823D01*
X0024031Y0107430D02*
X0052225Y0107430D01*
X0051631Y0107038D02*
X0024031Y0107038D01*
X0024031Y0106646D02*
X0051239Y0106646D01*
X0050847Y0106254D02*
X0024031Y0106254D01*
X0024031Y0105862D02*
X0050454Y0105862D01*
X0050062Y0105469D02*
X0024031Y0105469D01*
X0024031Y0105077D02*
X0049670Y0105077D01*
X0049278Y0104685D02*
X0024031Y0104685D01*
X0024031Y0104293D02*
X0048885Y0104293D01*
X0048493Y0103901D02*
X0024031Y0103901D01*
X0024031Y0103508D02*
X0048101Y0103508D01*
X0047709Y0103116D02*
X0024031Y0103116D01*
X0024031Y0102724D02*
X0047317Y0102724D01*
X0046924Y0102332D02*
X0024031Y0102332D01*
X0024031Y0101939D02*
X0046532Y0101939D01*
X0046140Y0101547D02*
X0024031Y0101547D01*
X0024031Y0101155D02*
X0045748Y0101155D01*
X0045356Y0100763D02*
X0024031Y0100763D01*
X0024031Y0100371D02*
X0044963Y0100371D01*
X0044571Y0099978D02*
X0024031Y0099978D01*
X0024031Y0099586D02*
X0044179Y0099586D01*
X0043787Y0099194D02*
X0024031Y0099194D01*
X0024031Y0098802D02*
X0043395Y0098802D01*
X0043002Y0098410D02*
X0024031Y0098410D01*
X0024031Y0098017D02*
X0042610Y0098017D01*
X0042218Y0097625D02*
X0024031Y0097625D01*
X0024031Y0097233D02*
X0041826Y0097233D01*
X0041433Y0096841D02*
X0024031Y0096841D01*
X0024031Y0096448D02*
X0041041Y0096448D01*
X0040649Y0096056D02*
X0024031Y0096056D01*
X0024031Y0095664D02*
X0040257Y0095664D01*
X0039865Y0095272D02*
X0024031Y0095272D01*
X0024031Y0094880D02*
X0039472Y0094880D01*
X0039080Y0094487D02*
X0024031Y0094487D01*
X0024031Y0094095D02*
X0038688Y0094095D01*
X0038296Y0093703D02*
X0024031Y0093703D01*
X0024031Y0093311D02*
X0037904Y0093311D01*
X0037511Y0092919D02*
X0024031Y0092919D01*
X0024031Y0092526D02*
X0037119Y0092526D01*
X0036727Y0092134D02*
X0024031Y0092134D01*
X0024031Y0091742D02*
X0036335Y0091742D01*
X0035942Y0091350D02*
X0024031Y0091350D01*
X0024031Y0090958D02*
X0035550Y0090958D01*
X0035278Y0090565D02*
X0024031Y0090565D01*
X0024031Y0090173D02*
X0035115Y0090173D01*
X0034953Y0089781D02*
X0024031Y0089781D01*
X0024031Y0089389D02*
X0034790Y0089389D01*
X0034628Y0088996D02*
X0024031Y0088996D01*
X0024031Y0088604D02*
X0034541Y0088604D01*
X0034541Y0088212D02*
X0024031Y0088212D01*
X0024031Y0087820D02*
X0034541Y0087820D01*
X0034541Y0087428D02*
X0024031Y0087428D01*
X0024031Y0087035D02*
X0034541Y0087035D01*
X0034541Y0086643D02*
X0024031Y0086643D01*
X0024031Y0086251D02*
X0034541Y0086251D01*
X0034541Y0085859D02*
X0024031Y0085859D01*
X0024031Y0085467D02*
X0034541Y0085467D01*
X0034541Y0085074D02*
X0024031Y0085074D01*
X0024031Y0084682D02*
X0034541Y0084682D01*
X0034541Y0084290D02*
X0024031Y0084290D01*
X0024031Y0083898D02*
X0034541Y0083898D01*
X0034541Y0083505D02*
X0024031Y0083505D01*
X0024031Y0083113D02*
X0034541Y0083113D01*
X0034541Y0082721D02*
X0024031Y0082721D01*
X0024031Y0082329D02*
X0034541Y0082329D01*
X0034541Y0081937D02*
X0024031Y0081937D01*
X0024031Y0081544D02*
X0034541Y0081544D01*
X0034541Y0081152D02*
X0024031Y0081152D01*
X0024031Y0080760D02*
X0034541Y0080760D01*
X0034541Y0080368D02*
X0024031Y0080368D01*
X0024031Y0079976D02*
X0034541Y0079976D01*
X0034541Y0079583D02*
X0024031Y0079583D01*
X0024031Y0079191D02*
X0034541Y0079191D01*
X0034541Y0078799D02*
X0024031Y0078799D01*
X0024031Y0078407D02*
X0034541Y0078407D01*
X0034541Y0078015D02*
X0024031Y0078015D01*
X0024031Y0077622D02*
X0034541Y0077622D01*
X0034541Y0077230D02*
X0024031Y0077230D01*
X0024031Y0076838D02*
X0034541Y0076838D01*
X0034541Y0076446D02*
X0024031Y0076446D01*
X0024031Y0076053D02*
X0034541Y0076053D01*
X0034541Y0075661D02*
X0024031Y0075661D01*
X0024031Y0075269D02*
X0034541Y0075269D01*
X0034541Y0074877D02*
X0024031Y0074877D01*
X0024031Y0074485D02*
X0034541Y0074485D01*
X0034541Y0074092D02*
X0024031Y0074092D01*
X0024031Y0073700D02*
X0034541Y0073700D01*
X0034541Y0073308D02*
X0024031Y0073308D01*
X0024031Y0072916D02*
X0034541Y0072916D01*
X0034541Y0072524D02*
X0024031Y0072524D01*
X0024031Y0072131D02*
X0034541Y0072131D01*
X0034541Y0071739D02*
X0024031Y0071739D01*
X0024031Y0071347D02*
X0034541Y0071347D01*
X0034541Y0070955D02*
X0024031Y0070955D01*
X0024031Y0070562D02*
X0034541Y0070562D01*
X0034541Y0070170D02*
X0024031Y0070170D01*
X0024031Y0069778D02*
X0034541Y0069778D01*
X0034541Y0069386D02*
X0024031Y0069386D01*
X0024031Y0068994D02*
X0034541Y0068994D01*
X0034541Y0068601D02*
X0024031Y0068601D01*
X0024031Y0068209D02*
X0034541Y0068209D01*
X0034541Y0067817D02*
X0024031Y0067817D01*
X0024031Y0067425D02*
X0034541Y0067425D01*
X0034541Y0067033D02*
X0024031Y0067033D01*
X0024031Y0066640D02*
X0034541Y0066640D01*
X0034541Y0066248D02*
X0024031Y0066248D01*
X0024031Y0065856D02*
X0034541Y0065856D01*
X0034541Y0065464D02*
X0024031Y0065464D01*
X0024031Y0065072D02*
X0034541Y0065072D01*
X0034541Y0064679D02*
X0024031Y0064679D01*
X0024031Y0064287D02*
X0034541Y0064287D01*
X0034541Y0063895D02*
X0024031Y0063895D01*
X0024031Y0063503D02*
X0034541Y0063503D01*
X0034541Y0063110D02*
X0024031Y0063110D01*
X0024031Y0062718D02*
X0034541Y0062718D01*
X0034541Y0062326D02*
X0024031Y0062326D01*
X0024031Y0061934D02*
X0034541Y0061934D01*
X0034541Y0061542D02*
X0024031Y0061542D01*
X0024031Y0061149D02*
X0034541Y0061149D01*
X0034541Y0060757D02*
X0024031Y0060757D01*
X0024031Y0060365D02*
X0034541Y0060365D01*
X0034541Y0059973D02*
X0024031Y0059973D01*
X0024031Y0059581D02*
X0034541Y0059581D01*
X0034541Y0059188D02*
X0024031Y0059188D01*
X0024031Y0058796D02*
X0034541Y0058796D01*
X0034541Y0058404D02*
X0024031Y0058404D01*
X0024031Y0058012D02*
X0034541Y0058012D01*
X0034541Y0057619D02*
X0024031Y0057619D01*
X0024031Y0057227D02*
X0034541Y0057227D01*
X0034541Y0056835D02*
X0024031Y0056835D01*
X0024031Y0056443D02*
X0034541Y0056443D01*
X0034541Y0056051D02*
X0024031Y0056051D01*
X0024031Y0055658D02*
X0034541Y0055658D01*
X0034541Y0055266D02*
X0024031Y0055266D01*
X0024031Y0054874D02*
X0034541Y0054874D01*
X0034541Y0054482D02*
X0024031Y0054482D01*
X0024031Y0054090D02*
X0034541Y0054090D01*
X0034541Y0053697D02*
X0024031Y0053697D01*
X0024031Y0053305D02*
X0034541Y0053305D01*
X0034541Y0052913D02*
X0024031Y0052913D01*
X0024031Y0052521D02*
X0032894Y0052521D01*
X0031947Y0052129D02*
X0024031Y0052129D01*
X0024031Y0051736D02*
X0031000Y0051736D01*
X0030053Y0051344D02*
X0024031Y0051344D01*
X0024031Y0050952D02*
X0029471Y0050952D01*
X0029078Y0050560D02*
X0024031Y0050560D01*
X0024031Y0050167D02*
X0028686Y0050167D01*
X0028294Y0049775D02*
X0024031Y0049775D01*
X0024031Y0049383D02*
X0027902Y0049383D01*
X0027510Y0048991D02*
X0024031Y0048991D01*
X0024031Y0048599D02*
X0027131Y0048599D01*
X0026969Y0048206D02*
X0024031Y0048206D01*
X0024031Y0047814D02*
X0026806Y0047814D01*
X0026644Y0047422D02*
X0024031Y0047422D01*
X0024031Y0047030D02*
X0026481Y0047030D01*
X0026319Y0046638D02*
X0024031Y0046638D01*
X0024031Y0046245D02*
X0026156Y0046245D01*
X0025994Y0045853D02*
X0024031Y0045853D01*
X0024031Y0045461D02*
X0025831Y0045461D01*
X0025741Y0045069D02*
X0024031Y0045069D01*
X0024031Y0044676D02*
X0025741Y0044676D01*
X0025741Y0044284D02*
X0024031Y0044284D01*
X0024031Y0043892D02*
X0025741Y0043892D01*
X0025741Y0043500D02*
X0024031Y0043500D01*
X0024031Y0043108D02*
X0025741Y0043108D01*
X0025741Y0042715D02*
X0024031Y0042715D01*
X0024031Y0042323D02*
X0025741Y0042323D01*
X0025741Y0041931D02*
X0024031Y0041931D01*
X0024031Y0041539D02*
X0025759Y0041539D01*
X0025922Y0041147D02*
X0024031Y0041147D01*
X0024031Y0040754D02*
X0026084Y0040754D01*
X0026247Y0040362D02*
X0024031Y0040362D01*
X0024031Y0039970D02*
X0026409Y0039970D01*
X0026572Y0039578D02*
X0024031Y0039578D01*
X0024031Y0039186D02*
X0026734Y0039186D01*
X0026896Y0038793D02*
X0024031Y0038793D01*
X0024031Y0038401D02*
X0027059Y0038401D01*
X0027335Y0038009D02*
X0024031Y0038009D01*
X0024031Y0037617D02*
X0027727Y0037617D01*
X0028120Y0037224D02*
X0024031Y0037224D01*
X0024031Y0036832D02*
X0028512Y0036832D01*
X0028904Y0036440D02*
X0024031Y0036440D01*
X0024031Y0036048D02*
X0029296Y0036048D01*
X0029688Y0035656D02*
X0024031Y0035656D01*
X0024031Y0035263D02*
X0030579Y0035263D01*
X0031526Y0034871D02*
X0024031Y0034871D01*
X0024035Y0034479D02*
X0032473Y0034479D01*
X0022438Y0034524D02*
X0022441Y0034239D01*
X0022452Y0033953D01*
X0022469Y0033668D01*
X0022493Y0033384D01*
X0022524Y0033100D01*
X0022562Y0032817D01*
X0022607Y0032536D01*
X0022658Y0032255D01*
X0022716Y0031975D01*
X0022781Y0031697D01*
X0022853Y0031421D01*
X0022931Y0031147D01*
X0023016Y0030874D01*
X0023108Y0030604D01*
X0023206Y0030336D01*
X0023310Y0030070D01*
X0023421Y0029807D01*
X0023538Y0029547D01*
X0023661Y0029289D01*
X0023791Y0029035D01*
X0023927Y0028784D01*
X0024068Y0028536D01*
X0024216Y0028292D01*
X0024369Y0028051D01*
X0024529Y0027815D01*
X0024694Y0027582D01*
X0024864Y0027353D01*
X0025040Y0027128D01*
X0025222Y0026908D01*
X0025408Y0026692D01*
X0025600Y0026481D01*
X0025797Y0026274D01*
X0025999Y0026072D01*
X0026206Y0025875D01*
X0026417Y0025683D01*
X0026633Y0025497D01*
X0026853Y0025315D01*
X0027078Y0025139D01*
X0027307Y0024969D01*
X0027540Y0024804D01*
X0027776Y0024644D01*
X0028017Y0024491D01*
X0028261Y0024343D01*
X0028509Y0024202D01*
X0028760Y0024066D01*
X0029014Y0023936D01*
X0029272Y0023813D01*
X0029532Y0023696D01*
X0029795Y0023585D01*
X0030061Y0023481D01*
X0030329Y0023383D01*
X0030599Y0023291D01*
X0030872Y0023206D01*
X0031146Y0023128D01*
X0031422Y0023056D01*
X0031700Y0022991D01*
X0031980Y0022933D01*
X0032261Y0022882D01*
X0032542Y0022837D01*
X0032825Y0022799D01*
X0033109Y0022768D01*
X0033393Y0022744D01*
X0033678Y0022727D01*
X0033964Y0022716D01*
X0034249Y0022713D01*
X0029558Y0025458D02*
X0248957Y0025458D01*
X0249072Y0025410D02*
X0250803Y0025410D01*
X0252402Y0026072D01*
X0253625Y0027296D01*
X0254287Y0028895D01*
X0254287Y0036531D01*
X0253625Y0038129D01*
X0252402Y0039353D01*
X0250803Y0040015D01*
X0249072Y0040015D01*
X0247474Y0039353D01*
X0246250Y0038129D01*
X0245588Y0036531D01*
X0245588Y0035309D01*
X0244335Y0035309D01*
X0244238Y0035407D01*
X0243070Y0035891D01*
X0241806Y0035891D01*
X0240637Y0035407D01*
X0239744Y0034513D01*
X0239260Y0033345D01*
X0239260Y0032080D01*
X0239744Y0030912D01*
X0240637Y0030018D01*
X0241806Y0029535D01*
X0243070Y0029535D01*
X0244238Y0030018D01*
X0244335Y0030116D01*
X0245588Y0030116D01*
X0245588Y0028895D01*
X0246250Y0027296D01*
X0247474Y0026072D01*
X0249072Y0025410D01*
X0248010Y0025850D02*
X0029018Y0025850D01*
X0028478Y0026243D02*
X0247304Y0026243D01*
X0246912Y0026635D02*
X0027938Y0026635D01*
X0027398Y0027027D02*
X0246519Y0027027D01*
X0246199Y0027419D02*
X0026937Y0027419D01*
X0026652Y0027811D02*
X0246037Y0027811D01*
X0245874Y0028204D02*
X0026367Y0028204D01*
X0026082Y0028596D02*
X0245712Y0028596D01*
X0245588Y0028988D02*
X0025797Y0028988D01*
X0025512Y0029380D02*
X0245588Y0029380D01*
X0245588Y0029772D02*
X0243644Y0029772D01*
X0241231Y0029772D02*
X0025227Y0029772D01*
X0025054Y0030165D02*
X0240491Y0030165D01*
X0240099Y0030557D02*
X0024927Y0030557D01*
X0024799Y0030949D02*
X0239728Y0030949D01*
X0239566Y0031341D02*
X0024672Y0031341D01*
X0024544Y0031733D02*
X0239403Y0031733D01*
X0239260Y0032126D02*
X0024417Y0032126D01*
X0024290Y0032518D02*
X0239260Y0032518D01*
X0239260Y0032910D02*
X0024162Y0032910D01*
X0024127Y0033302D02*
X0239260Y0033302D01*
X0239405Y0033695D02*
X0024097Y0033695D01*
X0024066Y0034087D02*
X0239567Y0034087D01*
X0239730Y0034479D02*
X0047402Y0034479D01*
X0048349Y0034871D02*
X0240102Y0034871D01*
X0240494Y0035263D02*
X0049296Y0035263D01*
X0050187Y0035656D02*
X0241238Y0035656D01*
X0243637Y0035656D02*
X0245588Y0035656D01*
X0245588Y0036048D02*
X0050579Y0036048D01*
X0050971Y0036440D02*
X0245588Y0036440D01*
X0245713Y0036832D02*
X0051364Y0036832D01*
X0051756Y0037224D02*
X0245875Y0037224D01*
X0246038Y0037617D02*
X0052148Y0037617D01*
X0052540Y0038009D02*
X0246200Y0038009D01*
X0246522Y0038401D02*
X0052816Y0038401D01*
X0052979Y0038793D02*
X0246914Y0038793D01*
X0247307Y0039186D02*
X0053141Y0039186D01*
X0053304Y0039578D02*
X0248017Y0039578D01*
X0248964Y0039970D02*
X0053466Y0039970D01*
X0053629Y0040362D02*
X0267341Y0040362D01*
X0267341Y0039970D02*
X0250912Y0039970D01*
X0251858Y0039578D02*
X0267341Y0039578D01*
X0267307Y0039186D02*
X0252569Y0039186D01*
X0252961Y0038793D02*
X0266914Y0038793D01*
X0266522Y0038401D02*
X0253353Y0038401D01*
X0253675Y0038009D02*
X0266200Y0038009D01*
X0266038Y0037617D02*
X0253837Y0037617D01*
X0254000Y0037224D02*
X0265875Y0037224D01*
X0265713Y0036832D02*
X0254162Y0036832D01*
X0254287Y0036440D02*
X0265588Y0036440D01*
X0265588Y0036048D02*
X0254287Y0036048D01*
X0254287Y0035656D02*
X0265588Y0035656D01*
X0265588Y0035263D02*
X0254287Y0035263D01*
X0254287Y0034871D02*
X0265588Y0034871D01*
X0265588Y0034479D02*
X0254287Y0034479D01*
X0254287Y0034087D02*
X0265588Y0034087D01*
X0265588Y0033695D02*
X0254287Y0033695D01*
X0254287Y0033302D02*
X0265588Y0033302D01*
X0265588Y0032910D02*
X0254287Y0032910D01*
X0254287Y0032518D02*
X0265588Y0032518D01*
X0265588Y0032126D02*
X0254287Y0032126D01*
X0254287Y0031733D02*
X0265588Y0031733D01*
X0265588Y0031341D02*
X0254287Y0031341D01*
X0254287Y0030949D02*
X0265588Y0030949D01*
X0265588Y0030557D02*
X0254287Y0030557D01*
X0254287Y0030165D02*
X0265588Y0030165D01*
X0265588Y0029772D02*
X0254287Y0029772D01*
X0254287Y0029380D02*
X0265588Y0029380D01*
X0265588Y0028988D02*
X0254287Y0028988D01*
X0254163Y0028596D02*
X0265712Y0028596D01*
X0265874Y0028204D02*
X0254001Y0028204D01*
X0253839Y0027811D02*
X0266037Y0027811D01*
X0266199Y0027419D02*
X0253676Y0027419D01*
X0253356Y0027027D02*
X0266519Y0027027D01*
X0266912Y0026635D02*
X0252964Y0026635D01*
X0252572Y0026243D02*
X0267304Y0026243D01*
X0268010Y0025850D02*
X0251865Y0025850D01*
X0250918Y0025458D02*
X0268957Y0025458D01*
X0267341Y0040754D02*
X0053791Y0040754D01*
X0053954Y0041147D02*
X0267147Y0041147D01*
X0266984Y0041539D02*
X0054116Y0041539D01*
X0054134Y0041931D02*
X0266822Y0041931D01*
X0266760Y0042323D02*
X0054134Y0042323D01*
X0054134Y0042715D02*
X0266760Y0042715D01*
X0266760Y0043108D02*
X0054134Y0043108D01*
X0054134Y0043500D02*
X0266824Y0043500D01*
X0266986Y0043892D02*
X0054134Y0043892D01*
X0054134Y0044284D02*
X0267149Y0044284D01*
X0267407Y0044676D02*
X0054134Y0044676D01*
X0054134Y0045069D02*
X0267799Y0045069D01*
X0268268Y0045461D02*
X0054044Y0045461D01*
X0022438Y0034524D02*
X0022438Y0195941D01*
X0022441Y0196226D01*
X0022452Y0196512D01*
X0022469Y0196797D01*
X0022493Y0197081D01*
X0022524Y0197365D01*
X0022562Y0197648D01*
X0022607Y0197929D01*
X0022658Y0198210D01*
X0022716Y0198490D01*
X0022781Y0198768D01*
X0022853Y0199044D01*
X0022931Y0199318D01*
X0023016Y0199591D01*
X0023108Y0199861D01*
X0023206Y0200129D01*
X0023310Y0200395D01*
X0023421Y0200658D01*
X0023538Y0200918D01*
X0023661Y0201176D01*
X0023791Y0201430D01*
X0023927Y0201681D01*
X0024068Y0201929D01*
X0024216Y0202173D01*
X0024369Y0202414D01*
X0024529Y0202650D01*
X0024694Y0202883D01*
X0024864Y0203112D01*
X0025040Y0203337D01*
X0025222Y0203557D01*
X0025408Y0203773D01*
X0025600Y0203984D01*
X0025797Y0204191D01*
X0025999Y0204393D01*
X0026206Y0204590D01*
X0026417Y0204782D01*
X0026633Y0204968D01*
X0026853Y0205150D01*
X0027078Y0205326D01*
X0027307Y0205496D01*
X0027540Y0205661D01*
X0027776Y0205821D01*
X0028017Y0205974D01*
X0028261Y0206122D01*
X0028509Y0206263D01*
X0028760Y0206399D01*
X0029014Y0206529D01*
X0029272Y0206652D01*
X0029532Y0206769D01*
X0029795Y0206880D01*
X0030061Y0206984D01*
X0030329Y0207082D01*
X0030599Y0207174D01*
X0030872Y0207259D01*
X0031146Y0207337D01*
X0031422Y0207409D01*
X0031700Y0207474D01*
X0031980Y0207532D01*
X0032261Y0207583D01*
X0032542Y0207628D01*
X0032825Y0207666D01*
X0033109Y0207697D01*
X0033393Y0207721D01*
X0033678Y0207738D01*
X0033964Y0207749D01*
X0034249Y0207752D01*
X0111744Y0159202D02*
X0293159Y0159202D01*
X0293088Y0158810D02*
X0111581Y0158810D01*
X0111419Y0158418D02*
X0293088Y0158418D01*
X0293088Y0158026D02*
X0111257Y0158026D01*
X0111094Y0157634D02*
X0293088Y0157634D01*
X0293088Y0157241D02*
X0110932Y0157241D01*
X0110729Y0156849D02*
X0293088Y0156849D01*
X0293088Y0156457D02*
X0110337Y0156457D01*
X0109945Y0156065D02*
X0293088Y0156065D01*
X0293088Y0155673D02*
X0109552Y0155673D01*
X0109160Y0155280D02*
X0293088Y0155280D01*
X0293088Y0154888D02*
X0108768Y0154888D01*
X0108376Y0154496D02*
X0293088Y0154496D01*
X0293088Y0154104D02*
X0107631Y0154104D01*
X0106684Y0153711D02*
X0293088Y0153711D01*
X0293088Y0153319D02*
X0105738Y0153319D01*
X0054027Y0134101D02*
X0414545Y0134101D01*
X0414545Y0134493D02*
X0053865Y0134493D01*
X0053702Y0134885D02*
X0414545Y0134885D01*
X0414545Y0135277D02*
X0053540Y0135277D01*
X0053377Y0135670D02*
X0414545Y0135670D01*
X0414545Y0136062D02*
X0053215Y0136062D01*
X0053053Y0136454D02*
X0414545Y0136454D01*
X0414545Y0136846D02*
X0052890Y0136846D01*
X0052718Y0137239D02*
X0414545Y0137239D01*
X0414545Y0137631D02*
X0052326Y0137631D01*
X0051934Y0138023D02*
X0414545Y0138023D01*
X0414545Y0138415D02*
X0051541Y0138415D01*
X0051149Y0138807D02*
X0414545Y0138807D01*
X0414545Y0139200D02*
X0050757Y0139200D01*
X0050365Y0139592D02*
X0414545Y0139592D01*
X0414545Y0139984D02*
X0049725Y0139984D01*
X0048779Y0140376D02*
X0414545Y0140376D01*
X0414545Y0140768D02*
X0047834Y0140768D01*
X0047834Y0141161D02*
X0414545Y0141161D01*
X0414545Y0141553D02*
X0047834Y0141553D01*
X0047834Y0141945D02*
X0414545Y0141945D01*
X0414545Y0142337D02*
X0047834Y0142337D01*
X0047834Y0142730D02*
X0414545Y0142730D01*
X0414545Y0143122D02*
X0047834Y0143122D01*
X0047834Y0143514D02*
X0414545Y0143514D01*
X0414545Y0143906D02*
X0047834Y0143906D01*
X0047834Y0144298D02*
X0414545Y0144298D01*
X0414545Y0144691D02*
X0047907Y0144691D01*
X0048854Y0145083D02*
X0414545Y0145083D01*
X0414545Y0145475D02*
X0049801Y0145475D01*
X0050748Y0145867D02*
X0414545Y0145867D01*
X0414545Y0146259D02*
X0051187Y0146259D01*
X0051579Y0146652D02*
X0414545Y0146652D01*
X0414545Y0147044D02*
X0051971Y0147044D01*
X0052364Y0147436D02*
X0414545Y0147436D01*
X0414545Y0147828D02*
X0052756Y0147828D01*
X0054134Y0133709D02*
X0414545Y0133709D01*
X0414545Y0133316D02*
X0054134Y0133316D01*
X0054134Y0132924D02*
X0414545Y0132924D01*
X0414545Y0132532D02*
X0054134Y0132532D01*
X0054134Y0132140D02*
X0414545Y0132140D01*
X0414545Y0131748D02*
X0054134Y0131748D01*
X0054134Y0131355D02*
X0414545Y0131355D01*
X0414545Y0130963D02*
X0054134Y0130963D01*
X0054134Y0130571D02*
X0414545Y0130571D01*
X0414545Y0130179D02*
X0054133Y0130179D01*
X0053970Y0129787D02*
X0414545Y0129787D01*
X0414545Y0115275D02*
X0184370Y0115275D01*
X0184762Y0114882D02*
X0414545Y0114882D01*
X0392557Y0106254D02*
X0388854Y0106254D01*
X0388783Y0105862D02*
X0392342Y0105862D01*
X0392122Y0105469D02*
X0389003Y0105469D01*
X0389166Y0105077D02*
X0391960Y0105077D01*
X0391797Y0104685D02*
X0389328Y0104685D01*
X0389366Y0104293D02*
X0391760Y0104293D01*
X0391760Y0103901D02*
X0389366Y0103901D01*
X0389366Y0103508D02*
X0391760Y0103508D01*
X0391848Y0103116D02*
X0389277Y0103116D01*
X0389114Y0102724D02*
X0392011Y0102724D01*
X0392173Y0102332D02*
X0388952Y0102332D01*
X0388659Y0101939D02*
X0392466Y0101939D01*
X0392859Y0101547D02*
X0388267Y0101547D01*
X0387714Y0101155D02*
X0393411Y0101155D01*
X0391878Y0106646D02*
X0389533Y0106646D01*
X0389925Y0107038D02*
X0391486Y0107038D01*
X0391093Y0107430D02*
X0390317Y0107430D01*
X0390659Y0107823D02*
X0390752Y0107823D01*
X0384773Y0116059D02*
X0024031Y0116059D01*
X0024031Y0116451D02*
X0384041Y0116451D01*
X0383649Y0116844D02*
X0024031Y0116844D01*
X0024031Y0117236D02*
X0383257Y0117236D01*
X0382893Y0117628D02*
X0024031Y0117628D01*
X0024031Y0118020D02*
X0382731Y0118020D01*
X0382569Y0118412D02*
X0024031Y0118412D01*
X0024031Y0118805D02*
X0382406Y0118805D01*
X0382244Y0119197D02*
X0024031Y0119197D01*
X0024031Y0119589D02*
X0382222Y0119589D01*
X0382222Y0119981D02*
X0024031Y0119981D01*
X0024031Y0120373D02*
X0382222Y0120373D01*
X0382222Y0120766D02*
X0024031Y0120766D01*
X0024031Y0121158D02*
X0382263Y0121158D01*
X0382426Y0121550D02*
X0024031Y0121550D01*
X0024031Y0121942D02*
X0382588Y0121942D01*
X0382751Y0122334D02*
X0024031Y0122334D01*
X0024031Y0122727D02*
X0382913Y0122727D01*
X0414545Y0100371D02*
X0331675Y0100371D01*
X0331513Y0099978D02*
X0414545Y0099978D01*
X0414545Y0099586D02*
X0331306Y0099586D01*
X0330913Y0099194D02*
X0414545Y0099194D01*
X0414545Y0098802D02*
X0330521Y0098802D01*
X0329621Y0098410D02*
X0414545Y0098410D01*
X0414545Y0098017D02*
X0185733Y0098017D01*
X0186125Y0098410D02*
X0314004Y0098410D01*
X0313104Y0098802D02*
X0186517Y0098802D01*
X0186909Y0099194D02*
X0312712Y0099194D01*
X0312320Y0099586D02*
X0187221Y0099586D01*
X0187383Y0099978D02*
X0312113Y0099978D01*
X0311950Y0100371D02*
X0187546Y0100371D01*
X0187708Y0100763D02*
X0311788Y0100763D01*
X0311760Y0101155D02*
X0187871Y0101155D01*
X0188033Y0101547D02*
X0311760Y0101547D01*
X0311760Y0101939D02*
X0188126Y0101939D01*
X0188126Y0102332D02*
X0311858Y0102332D01*
X0312020Y0102724D02*
X0188126Y0102724D01*
X0188126Y0103116D02*
X0312183Y0103116D01*
X0312489Y0103508D02*
X0188126Y0103508D01*
X0188126Y0103901D02*
X0312881Y0103901D01*
X0313466Y0104293D02*
X0188122Y0104293D01*
X0185275Y0097625D02*
X0414545Y0097625D01*
X0414545Y0097233D02*
X0184328Y0097233D01*
X0183381Y0096841D02*
X0414545Y0096841D01*
X0327754Y0098410D02*
X0315871Y0098410D01*
X0316771Y0098802D02*
X0326854Y0098802D01*
X0326462Y0099194D02*
X0317163Y0099194D01*
X0316994Y0103901D02*
X0326631Y0103901D01*
X0327216Y0104293D02*
X0316410Y0104293D01*
X0330205Y0162340D02*
X0334670Y0162340D01*
X0334507Y0162732D02*
X0330368Y0162732D01*
X0330530Y0163125D02*
X0334345Y0163125D01*
X0334260Y0163517D02*
X0330616Y0163517D01*
X0330616Y0163909D02*
X0334260Y0163909D01*
X0334260Y0164301D02*
X0330616Y0164301D01*
X0330575Y0164693D02*
X0334301Y0164693D01*
X0334463Y0165086D02*
X0330412Y0165086D01*
X0330250Y0165478D02*
X0334625Y0165478D01*
X0334851Y0165870D02*
X0330025Y0165870D01*
X0329632Y0166262D02*
X0335243Y0166262D01*
X0335635Y0166654D02*
X0329240Y0166654D01*
X0328296Y0167047D02*
X0336579Y0167047D01*
X0334028Y0193717D02*
X0326517Y0193717D01*
X0326137Y0193560D02*
X0327736Y0194222D01*
X0328960Y0195446D01*
X0329622Y0197044D01*
X0329622Y0198775D01*
X0328960Y0200373D01*
X0327736Y0201597D01*
X0326137Y0202259D01*
X0324407Y0202259D01*
X0322808Y0201597D01*
X0321585Y0200373D01*
X0320923Y0198775D01*
X0320923Y0197044D01*
X0321585Y0195446D01*
X0322808Y0194222D01*
X0324407Y0193560D01*
X0326137Y0193560D01*
X0327464Y0194109D02*
X0333081Y0194109D01*
X0332529Y0194502D02*
X0328016Y0194502D01*
X0328408Y0194894D02*
X0332137Y0194894D01*
X0331745Y0195286D02*
X0328800Y0195286D01*
X0329056Y0195678D02*
X0331489Y0195678D01*
X0331326Y0196070D02*
X0329218Y0196070D01*
X0329381Y0196463D02*
X0331164Y0196463D01*
X0331001Y0196855D02*
X0329543Y0196855D01*
X0329622Y0197247D02*
X0330923Y0197247D01*
X0330923Y0197639D02*
X0329622Y0197639D01*
X0329622Y0198031D02*
X0330923Y0198031D01*
X0330923Y0198424D02*
X0329622Y0198424D01*
X0329605Y0198816D02*
X0330940Y0198816D01*
X0331102Y0199208D02*
X0329442Y0199208D01*
X0329280Y0199600D02*
X0331265Y0199600D01*
X0331427Y0199992D02*
X0329117Y0199992D01*
X0328948Y0200385D02*
X0331596Y0200385D01*
X0331988Y0200777D02*
X0328556Y0200777D01*
X0328164Y0201169D02*
X0332381Y0201169D01*
X0332773Y0201561D02*
X0327772Y0201561D01*
X0326875Y0201954D02*
X0333670Y0201954D01*
X0323670Y0201954D02*
X0316875Y0201954D01*
X0316137Y0202259D02*
X0314407Y0202259D01*
X0312808Y0201597D01*
X0311585Y0200373D01*
X0310923Y0198775D01*
X0310923Y0197044D01*
X0311585Y0195446D01*
X0312808Y0194222D01*
X0314407Y0193560D01*
X0316137Y0193560D01*
X0317736Y0194222D01*
X0318960Y0195446D01*
X0319622Y0197044D01*
X0319622Y0198775D01*
X0318960Y0200373D01*
X0317736Y0201597D01*
X0316137Y0202259D01*
X0317772Y0201561D02*
X0322773Y0201561D01*
X0322381Y0201169D02*
X0318164Y0201169D01*
X0318556Y0200777D02*
X0321988Y0200777D01*
X0321596Y0200385D02*
X0318948Y0200385D01*
X0319117Y0199992D02*
X0321427Y0199992D01*
X0321265Y0199600D02*
X0319280Y0199600D01*
X0319442Y0199208D02*
X0321102Y0199208D01*
X0320940Y0198816D02*
X0319605Y0198816D01*
X0319622Y0198424D02*
X0320923Y0198424D01*
X0320923Y0198031D02*
X0319622Y0198031D01*
X0319622Y0197639D02*
X0320923Y0197639D01*
X0320923Y0197247D02*
X0319622Y0197247D01*
X0319543Y0196855D02*
X0321001Y0196855D01*
X0321164Y0196463D02*
X0319381Y0196463D01*
X0319218Y0196070D02*
X0321326Y0196070D01*
X0321489Y0195678D02*
X0319056Y0195678D01*
X0318800Y0195286D02*
X0321745Y0195286D01*
X0322137Y0194894D02*
X0318408Y0194894D01*
X0318016Y0194502D02*
X0322529Y0194502D01*
X0323081Y0194109D02*
X0317464Y0194109D01*
X0316517Y0193717D02*
X0324028Y0193717D01*
X0314028Y0193717D02*
X0306517Y0193717D01*
X0306137Y0193560D02*
X0307736Y0194222D01*
X0308960Y0195446D01*
X0309622Y0197044D01*
X0309622Y0198775D01*
X0308960Y0200373D01*
X0307736Y0201597D01*
X0306137Y0202259D01*
X0304407Y0202259D01*
X0302808Y0201597D01*
X0301585Y0200373D01*
X0300923Y0198775D01*
X0300923Y0197044D01*
X0301585Y0195446D01*
X0302808Y0194222D01*
X0304407Y0193560D01*
X0306137Y0193560D01*
X0307464Y0194109D02*
X0313081Y0194109D01*
X0312529Y0194502D02*
X0308016Y0194502D01*
X0308408Y0194894D02*
X0312137Y0194894D01*
X0311745Y0195286D02*
X0308800Y0195286D01*
X0309056Y0195678D02*
X0311489Y0195678D01*
X0311326Y0196070D02*
X0309218Y0196070D01*
X0309381Y0196463D02*
X0311164Y0196463D01*
X0311001Y0196855D02*
X0309543Y0196855D01*
X0309622Y0197247D02*
X0310923Y0197247D01*
X0310923Y0197639D02*
X0309622Y0197639D01*
X0309622Y0198031D02*
X0310923Y0198031D01*
X0310923Y0198424D02*
X0309622Y0198424D01*
X0309605Y0198816D02*
X0310940Y0198816D01*
X0311102Y0199208D02*
X0309442Y0199208D01*
X0309280Y0199600D02*
X0311265Y0199600D01*
X0311427Y0199992D02*
X0309117Y0199992D01*
X0308948Y0200385D02*
X0311596Y0200385D01*
X0311988Y0200777D02*
X0308556Y0200777D01*
X0308164Y0201169D02*
X0312381Y0201169D01*
X0312773Y0201561D02*
X0307772Y0201561D01*
X0306875Y0201954D02*
X0313670Y0201954D01*
X0303670Y0201954D02*
X0296875Y0201954D01*
X0296137Y0202259D02*
X0294407Y0202259D01*
X0292808Y0201597D01*
X0291585Y0200373D01*
X0290923Y0198775D01*
X0290923Y0197044D01*
X0291585Y0195446D01*
X0292808Y0194222D01*
X0294407Y0193560D01*
X0296137Y0193560D01*
X0297736Y0194222D01*
X0298960Y0195446D01*
X0299622Y0197044D01*
X0299622Y0198775D01*
X0298960Y0200373D01*
X0297736Y0201597D01*
X0296137Y0202259D01*
X0297772Y0201561D02*
X0302773Y0201561D01*
X0302381Y0201169D02*
X0298164Y0201169D01*
X0298556Y0200777D02*
X0301988Y0200777D01*
X0301596Y0200385D02*
X0298948Y0200385D01*
X0299117Y0199992D02*
X0301427Y0199992D01*
X0301265Y0199600D02*
X0299280Y0199600D01*
X0299442Y0199208D02*
X0301102Y0199208D01*
X0300940Y0198816D02*
X0299605Y0198816D01*
X0299622Y0198424D02*
X0300923Y0198424D01*
X0300923Y0198031D02*
X0299622Y0198031D01*
X0299622Y0197639D02*
X0300923Y0197639D01*
X0300923Y0197247D02*
X0299622Y0197247D01*
X0299543Y0196855D02*
X0301001Y0196855D01*
X0301164Y0196463D02*
X0299381Y0196463D01*
X0299218Y0196070D02*
X0301326Y0196070D01*
X0301489Y0195678D02*
X0299056Y0195678D01*
X0298800Y0195286D02*
X0301745Y0195286D01*
X0302137Y0194894D02*
X0298408Y0194894D01*
X0298016Y0194502D02*
X0302529Y0194502D01*
X0303081Y0194109D02*
X0297464Y0194109D01*
X0296517Y0193717D02*
X0304028Y0193717D01*
X0294028Y0193717D02*
X0286517Y0193717D01*
X0286137Y0193560D02*
X0287736Y0194222D01*
X0288960Y0195446D01*
X0289622Y0197044D01*
X0289622Y0198775D01*
X0288960Y0200373D01*
X0287736Y0201597D01*
X0286137Y0202259D01*
X0284407Y0202259D01*
X0282808Y0201597D01*
X0281585Y0200373D01*
X0280923Y0198775D01*
X0280923Y0197044D01*
X0281585Y0195446D01*
X0282808Y0194222D01*
X0284407Y0193560D01*
X0286137Y0193560D01*
X0287464Y0194109D02*
X0293081Y0194109D01*
X0292529Y0194502D02*
X0288016Y0194502D01*
X0288408Y0194894D02*
X0292137Y0194894D01*
X0291745Y0195286D02*
X0288800Y0195286D01*
X0289056Y0195678D02*
X0291489Y0195678D01*
X0291326Y0196070D02*
X0289218Y0196070D01*
X0289381Y0196463D02*
X0291164Y0196463D01*
X0291001Y0196855D02*
X0289543Y0196855D01*
X0289622Y0197247D02*
X0290923Y0197247D01*
X0290923Y0197639D02*
X0289622Y0197639D01*
X0289622Y0198031D02*
X0290923Y0198031D01*
X0290923Y0198424D02*
X0289622Y0198424D01*
X0289605Y0198816D02*
X0290940Y0198816D01*
X0291102Y0199208D02*
X0289442Y0199208D01*
X0289280Y0199600D02*
X0291265Y0199600D01*
X0291427Y0199992D02*
X0289117Y0199992D01*
X0288948Y0200385D02*
X0291596Y0200385D01*
X0291988Y0200777D02*
X0288556Y0200777D01*
X0288164Y0201169D02*
X0292381Y0201169D01*
X0292773Y0201561D02*
X0287772Y0201561D01*
X0286875Y0201954D02*
X0293670Y0201954D01*
X0283670Y0201954D02*
X0276875Y0201954D01*
X0276137Y0202259D02*
X0274407Y0202259D01*
X0272808Y0201597D01*
X0271585Y0200373D01*
X0270923Y0198775D01*
X0270923Y0197044D01*
X0271585Y0195446D01*
X0272808Y0194222D01*
X0274407Y0193560D01*
X0276137Y0193560D01*
X0277736Y0194222D01*
X0278960Y0195446D01*
X0279622Y0197044D01*
X0279622Y0198775D01*
X0278960Y0200373D01*
X0277736Y0201597D01*
X0276137Y0202259D01*
X0277772Y0201561D02*
X0282773Y0201561D01*
X0282381Y0201169D02*
X0278164Y0201169D01*
X0278556Y0200777D02*
X0281988Y0200777D01*
X0281596Y0200385D02*
X0278948Y0200385D01*
X0279117Y0199992D02*
X0281427Y0199992D01*
X0281265Y0199600D02*
X0279280Y0199600D01*
X0279442Y0199208D02*
X0281102Y0199208D01*
X0280940Y0198816D02*
X0279605Y0198816D01*
X0279622Y0198424D02*
X0280923Y0198424D01*
X0280923Y0198031D02*
X0279622Y0198031D01*
X0279622Y0197639D02*
X0280923Y0197639D01*
X0280923Y0197247D02*
X0279622Y0197247D01*
X0279543Y0196855D02*
X0281001Y0196855D01*
X0281164Y0196463D02*
X0279381Y0196463D01*
X0279218Y0196070D02*
X0281326Y0196070D01*
X0281489Y0195678D02*
X0279056Y0195678D01*
X0278800Y0195286D02*
X0281745Y0195286D01*
X0282137Y0194894D02*
X0278408Y0194894D01*
X0278016Y0194502D02*
X0282529Y0194502D01*
X0283081Y0194109D02*
X0277464Y0194109D01*
X0276517Y0193717D02*
X0284028Y0193717D01*
X0274028Y0193717D02*
X0266517Y0193717D01*
X0266137Y0193560D02*
X0267736Y0194222D01*
X0268960Y0195446D01*
X0269622Y0197044D01*
X0269622Y0198775D01*
X0268960Y0200373D01*
X0267736Y0201597D01*
X0266137Y0202259D01*
X0264407Y0202259D01*
X0262808Y0201597D01*
X0261585Y0200373D01*
X0260923Y0198775D01*
X0260923Y0197044D01*
X0261585Y0195446D01*
X0262808Y0194222D01*
X0264407Y0193560D01*
X0266137Y0193560D01*
X0267464Y0194109D02*
X0273081Y0194109D01*
X0272529Y0194502D02*
X0268016Y0194502D01*
X0268408Y0194894D02*
X0272137Y0194894D01*
X0271745Y0195286D02*
X0268800Y0195286D01*
X0269056Y0195678D02*
X0271489Y0195678D01*
X0271326Y0196070D02*
X0269218Y0196070D01*
X0269381Y0196463D02*
X0271164Y0196463D01*
X0271001Y0196855D02*
X0269543Y0196855D01*
X0269622Y0197247D02*
X0270923Y0197247D01*
X0270923Y0197639D02*
X0269622Y0197639D01*
X0269622Y0198031D02*
X0270923Y0198031D01*
X0270923Y0198424D02*
X0269622Y0198424D01*
X0269605Y0198816D02*
X0270940Y0198816D01*
X0271102Y0199208D02*
X0269442Y0199208D01*
X0269280Y0199600D02*
X0271265Y0199600D01*
X0271427Y0199992D02*
X0269117Y0199992D01*
X0268948Y0200385D02*
X0271596Y0200385D01*
X0271988Y0200777D02*
X0268556Y0200777D01*
X0268164Y0201169D02*
X0272381Y0201169D01*
X0272773Y0201561D02*
X0267772Y0201561D01*
X0266875Y0201954D02*
X0273670Y0201954D01*
X0263670Y0201954D02*
X0256875Y0201954D01*
X0256137Y0202259D02*
X0254407Y0202259D01*
X0252808Y0201597D01*
X0251585Y0200373D01*
X0250923Y0198775D01*
X0250923Y0197044D01*
X0251585Y0195446D01*
X0252808Y0194222D01*
X0254407Y0193560D01*
X0256137Y0193560D01*
X0257736Y0194222D01*
X0258960Y0195446D01*
X0259622Y0197044D01*
X0259622Y0198775D01*
X0258960Y0200373D01*
X0257736Y0201597D01*
X0256137Y0202259D01*
X0257772Y0201561D02*
X0262773Y0201561D01*
X0262381Y0201169D02*
X0258164Y0201169D01*
X0258556Y0200777D02*
X0261988Y0200777D01*
X0261596Y0200385D02*
X0258948Y0200385D01*
X0259117Y0199992D02*
X0261427Y0199992D01*
X0261265Y0199600D02*
X0259280Y0199600D01*
X0259442Y0199208D02*
X0261102Y0199208D01*
X0260940Y0198816D02*
X0259605Y0198816D01*
X0259622Y0198424D02*
X0260923Y0198424D01*
X0260923Y0198031D02*
X0259622Y0198031D01*
X0259622Y0197639D02*
X0260923Y0197639D01*
X0260923Y0197247D02*
X0259622Y0197247D01*
X0259543Y0196855D02*
X0261001Y0196855D01*
X0261164Y0196463D02*
X0259381Y0196463D01*
X0259218Y0196070D02*
X0261326Y0196070D01*
X0261489Y0195678D02*
X0259056Y0195678D01*
X0258800Y0195286D02*
X0261745Y0195286D01*
X0262137Y0194894D02*
X0258408Y0194894D01*
X0258016Y0194502D02*
X0262529Y0194502D01*
X0263081Y0194109D02*
X0257464Y0194109D01*
X0256517Y0193717D02*
X0264028Y0193717D01*
X0254028Y0193717D02*
X0246517Y0193717D01*
X0246137Y0193560D02*
X0247736Y0194222D01*
X0248960Y0195446D01*
X0249622Y0197044D01*
X0249622Y0198775D01*
X0248960Y0200373D01*
X0247736Y0201597D01*
X0246137Y0202259D01*
X0244407Y0202259D01*
X0242808Y0201597D01*
X0241585Y0200373D01*
X0240923Y0198775D01*
X0240923Y0197044D01*
X0241585Y0195446D01*
X0242808Y0194222D01*
X0244407Y0193560D01*
X0246137Y0193560D01*
X0247464Y0194109D02*
X0253081Y0194109D01*
X0252529Y0194502D02*
X0248016Y0194502D01*
X0248408Y0194894D02*
X0252137Y0194894D01*
X0251745Y0195286D02*
X0248800Y0195286D01*
X0249056Y0195678D02*
X0251489Y0195678D01*
X0251326Y0196070D02*
X0249218Y0196070D01*
X0249381Y0196463D02*
X0251164Y0196463D01*
X0251001Y0196855D02*
X0249543Y0196855D01*
X0249622Y0197247D02*
X0250923Y0197247D01*
X0250923Y0197639D02*
X0249622Y0197639D01*
X0249622Y0198031D02*
X0250923Y0198031D01*
X0250923Y0198424D02*
X0249622Y0198424D01*
X0249605Y0198816D02*
X0250940Y0198816D01*
X0251102Y0199208D02*
X0249442Y0199208D01*
X0249280Y0199600D02*
X0251265Y0199600D01*
X0251427Y0199992D02*
X0249117Y0199992D01*
X0248948Y0200385D02*
X0251596Y0200385D01*
X0251988Y0200777D02*
X0248556Y0200777D01*
X0248164Y0201169D02*
X0252381Y0201169D01*
X0252773Y0201561D02*
X0247772Y0201561D01*
X0246875Y0201954D02*
X0253670Y0201954D01*
X0243670Y0201954D02*
X0236875Y0201954D01*
X0236137Y0202259D02*
X0237736Y0201597D01*
X0238960Y0200373D01*
X0239622Y0198775D01*
X0239622Y0197044D01*
X0238960Y0195446D01*
X0237736Y0194222D01*
X0236137Y0193560D01*
X0234407Y0193560D01*
X0232808Y0194222D01*
X0231585Y0195446D01*
X0230923Y0197044D01*
X0230923Y0198775D01*
X0231585Y0200373D01*
X0232808Y0201597D01*
X0234407Y0202259D01*
X0236137Y0202259D01*
X0237772Y0201561D02*
X0242773Y0201561D01*
X0242381Y0201169D02*
X0238164Y0201169D01*
X0238556Y0200777D02*
X0241988Y0200777D01*
X0241596Y0200385D02*
X0238948Y0200385D01*
X0239117Y0199992D02*
X0241427Y0199992D01*
X0241265Y0199600D02*
X0239280Y0199600D01*
X0239442Y0199208D02*
X0241102Y0199208D01*
X0240940Y0198816D02*
X0239605Y0198816D01*
X0239622Y0198424D02*
X0240923Y0198424D01*
X0240923Y0198031D02*
X0239622Y0198031D01*
X0239622Y0197639D02*
X0240923Y0197639D01*
X0240923Y0197247D02*
X0239622Y0197247D01*
X0239543Y0196855D02*
X0241001Y0196855D01*
X0241164Y0196463D02*
X0239381Y0196463D01*
X0239218Y0196070D02*
X0241326Y0196070D01*
X0241489Y0195678D02*
X0239056Y0195678D01*
X0238800Y0195286D02*
X0241745Y0195286D01*
X0242137Y0194894D02*
X0238408Y0194894D01*
X0238016Y0194502D02*
X0242529Y0194502D01*
X0243081Y0194109D02*
X0237464Y0194109D01*
X0236517Y0193717D02*
X0244028Y0193717D01*
X0234028Y0193717D02*
X0226517Y0193717D01*
X0226137Y0193560D02*
X0227736Y0194222D01*
X0228960Y0195446D01*
X0229622Y0197044D01*
X0229622Y0198775D01*
X0228960Y0200373D01*
X0227736Y0201597D01*
X0226137Y0202259D01*
X0224407Y0202259D01*
X0222808Y0201597D01*
X0221585Y0200373D01*
X0220923Y0198775D01*
X0220923Y0197044D01*
X0221585Y0195446D01*
X0222808Y0194222D01*
X0224407Y0193560D01*
X0226137Y0193560D01*
X0227464Y0194109D02*
X0233081Y0194109D01*
X0232529Y0194502D02*
X0228016Y0194502D01*
X0228408Y0194894D02*
X0232137Y0194894D01*
X0231745Y0195286D02*
X0228800Y0195286D01*
X0229056Y0195678D02*
X0231489Y0195678D01*
X0231326Y0196070D02*
X0229218Y0196070D01*
X0229381Y0196463D02*
X0231164Y0196463D01*
X0231001Y0196855D02*
X0229543Y0196855D01*
X0229622Y0197247D02*
X0230923Y0197247D01*
X0230923Y0197639D02*
X0229622Y0197639D01*
X0229622Y0198031D02*
X0230923Y0198031D01*
X0230923Y0198424D02*
X0229622Y0198424D01*
X0229605Y0198816D02*
X0230940Y0198816D01*
X0231102Y0199208D02*
X0229442Y0199208D01*
X0229280Y0199600D02*
X0231265Y0199600D01*
X0231427Y0199992D02*
X0229117Y0199992D01*
X0228948Y0200385D02*
X0231596Y0200385D01*
X0231988Y0200777D02*
X0228556Y0200777D01*
X0228164Y0201169D02*
X0232381Y0201169D01*
X0232773Y0201561D02*
X0227772Y0201561D01*
X0226875Y0201954D02*
X0233670Y0201954D01*
X0223670Y0201954D02*
X0216875Y0201954D01*
X0216137Y0202259D02*
X0214407Y0202259D01*
X0212808Y0201597D01*
X0211585Y0200373D01*
X0210923Y0198775D01*
X0210923Y0197044D01*
X0211585Y0195446D01*
X0212808Y0194222D01*
X0214407Y0193560D01*
X0216137Y0193560D01*
X0217736Y0194222D01*
X0218960Y0195446D01*
X0219622Y0197044D01*
X0219622Y0198775D01*
X0218960Y0200373D01*
X0217736Y0201597D01*
X0216137Y0202259D01*
X0217772Y0201561D02*
X0222773Y0201561D01*
X0222381Y0201169D02*
X0218164Y0201169D01*
X0218556Y0200777D02*
X0221988Y0200777D01*
X0221596Y0200385D02*
X0218948Y0200385D01*
X0219117Y0199992D02*
X0221427Y0199992D01*
X0221265Y0199600D02*
X0219280Y0199600D01*
X0219442Y0199208D02*
X0221102Y0199208D01*
X0220940Y0198816D02*
X0219605Y0198816D01*
X0219622Y0198424D02*
X0220923Y0198424D01*
X0220923Y0198031D02*
X0219622Y0198031D01*
X0219622Y0197639D02*
X0220923Y0197639D01*
X0220923Y0197247D02*
X0219622Y0197247D01*
X0219543Y0196855D02*
X0221001Y0196855D01*
X0221164Y0196463D02*
X0219381Y0196463D01*
X0219218Y0196070D02*
X0221326Y0196070D01*
X0221489Y0195678D02*
X0219056Y0195678D01*
X0218800Y0195286D02*
X0221745Y0195286D01*
X0222137Y0194894D02*
X0218408Y0194894D01*
X0218016Y0194502D02*
X0222529Y0194502D01*
X0223081Y0194109D02*
X0217464Y0194109D01*
X0216517Y0193717D02*
X0224028Y0193717D01*
X0214028Y0193717D02*
X0206517Y0193717D01*
X0206137Y0193560D02*
X0207736Y0194222D01*
X0208960Y0195446D01*
X0209622Y0197044D01*
X0209622Y0198775D01*
X0208960Y0200373D01*
X0207736Y0201597D01*
X0206137Y0202259D01*
X0204407Y0202259D01*
X0202808Y0201597D01*
X0201585Y0200373D01*
X0200923Y0198775D01*
X0200923Y0197044D01*
X0201585Y0195446D01*
X0202808Y0194222D01*
X0204407Y0193560D01*
X0206137Y0193560D01*
X0207464Y0194109D02*
X0213081Y0194109D01*
X0212529Y0194502D02*
X0208016Y0194502D01*
X0208408Y0194894D02*
X0212137Y0194894D01*
X0211745Y0195286D02*
X0208800Y0195286D01*
X0209056Y0195678D02*
X0211489Y0195678D01*
X0211326Y0196070D02*
X0209218Y0196070D01*
X0209381Y0196463D02*
X0211164Y0196463D01*
X0211001Y0196855D02*
X0209543Y0196855D01*
X0209622Y0197247D02*
X0210923Y0197247D01*
X0210923Y0197639D02*
X0209622Y0197639D01*
X0209622Y0198031D02*
X0210923Y0198031D01*
X0210923Y0198424D02*
X0209622Y0198424D01*
X0209605Y0198816D02*
X0210940Y0198816D01*
X0211102Y0199208D02*
X0209442Y0199208D01*
X0209280Y0199600D02*
X0211265Y0199600D01*
X0211427Y0199992D02*
X0209117Y0199992D01*
X0208948Y0200385D02*
X0211596Y0200385D01*
X0211988Y0200777D02*
X0208556Y0200777D01*
X0208164Y0201169D02*
X0212381Y0201169D01*
X0212773Y0201561D02*
X0207772Y0201561D01*
X0206875Y0201954D02*
X0213670Y0201954D01*
X0203670Y0201954D02*
X0196875Y0201954D01*
X0197772Y0201561D02*
X0202773Y0201561D01*
X0202381Y0201169D02*
X0198164Y0201169D01*
X0198556Y0200777D02*
X0201988Y0200777D01*
X0201596Y0200385D02*
X0198948Y0200385D01*
X0199117Y0199992D02*
X0201427Y0199992D01*
X0201265Y0199600D02*
X0199280Y0199600D01*
X0199442Y0199208D02*
X0201102Y0199208D01*
X0200940Y0198816D02*
X0199605Y0198816D01*
X0199622Y0198424D02*
X0200923Y0198424D01*
X0200923Y0198031D02*
X0199622Y0198031D01*
X0199622Y0197639D02*
X0200923Y0197639D01*
X0200923Y0197247D02*
X0199622Y0197247D01*
X0199543Y0196855D02*
X0201001Y0196855D01*
X0201164Y0196463D02*
X0199381Y0196463D01*
X0199218Y0196070D02*
X0201326Y0196070D01*
X0201489Y0195678D02*
X0199056Y0195678D01*
X0198800Y0195286D02*
X0201745Y0195286D01*
X0202137Y0194894D02*
X0198408Y0194894D01*
X0198016Y0194502D02*
X0202529Y0194502D01*
X0203081Y0194109D02*
X0197464Y0194109D01*
X0196517Y0193717D02*
X0204028Y0193717D01*
X0184476Y0171753D02*
X0414545Y0171753D01*
X0414545Y0171361D02*
X0185402Y0171361D01*
X0185794Y0170969D02*
X0414545Y0170969D01*
X0414545Y0170577D02*
X0186186Y0170577D01*
X0186578Y0170184D02*
X0414545Y0170184D01*
X0414545Y0172145D02*
X0183529Y0172145D01*
X0404327Y0207752D02*
X0404612Y0207749D01*
X0404898Y0207738D01*
X0405183Y0207721D01*
X0405467Y0207697D01*
X0405751Y0207666D01*
X0406034Y0207628D01*
X0406315Y0207583D01*
X0406596Y0207532D01*
X0406876Y0207474D01*
X0407154Y0207409D01*
X0407430Y0207337D01*
X0407704Y0207259D01*
X0407977Y0207174D01*
X0408247Y0207082D01*
X0408515Y0206984D01*
X0408781Y0206880D01*
X0409044Y0206769D01*
X0409304Y0206652D01*
X0409562Y0206529D01*
X0409816Y0206399D01*
X0410067Y0206263D01*
X0410315Y0206122D01*
X0410559Y0205974D01*
X0410800Y0205821D01*
X0411036Y0205661D01*
X0411269Y0205496D01*
X0411498Y0205326D01*
X0411723Y0205150D01*
X0411943Y0204968D01*
X0412159Y0204782D01*
X0412370Y0204590D01*
X0412577Y0204393D01*
X0412779Y0204191D01*
X0412976Y0203984D01*
X0413168Y0203773D01*
X0413354Y0203557D01*
X0413536Y0203337D01*
X0413712Y0203112D01*
X0413882Y0202883D01*
X0414047Y0202650D01*
X0414207Y0202414D01*
X0414360Y0202173D01*
X0414508Y0201929D01*
X0414649Y0201681D01*
X0414785Y0201430D01*
X0414915Y0201176D01*
X0415038Y0200918D01*
X0415155Y0200658D01*
X0415266Y0200395D01*
X0415370Y0200129D01*
X0415468Y0199861D01*
X0415560Y0199591D01*
X0415645Y0199318D01*
X0415723Y0199044D01*
X0415795Y0198768D01*
X0415860Y0198490D01*
X0415918Y0198210D01*
X0415969Y0197929D01*
X0416014Y0197648D01*
X0416052Y0197365D01*
X0416083Y0197081D01*
X0416107Y0196797D01*
X0416124Y0196512D01*
X0416135Y0196226D01*
X0416138Y0195941D01*
D11*
X0394642Y0120154D03*
X0386768Y0120154D03*
X0386768Y0110311D03*
X0394642Y0110311D03*
D12*
X0405312Y0091531D03*
X0405312Y0138933D03*
D13*
X0347438Y0152260D02*
X0347438Y0158165D01*
X0337438Y0158165D02*
X0337438Y0152260D01*
X0327438Y0152260D02*
X0327438Y0158165D01*
X0317438Y0158165D02*
X0317438Y0152260D01*
X0307438Y0152260D02*
X0307438Y0158165D01*
X0297438Y0158165D02*
X0297438Y0152260D01*
X0289938Y0035665D02*
X0289938Y0029760D01*
X0279938Y0029760D02*
X0279938Y0035665D01*
X0269938Y0035665D02*
X0269938Y0029760D01*
X0259938Y0029760D02*
X0259938Y0035665D01*
X0249938Y0035665D02*
X0249938Y0029760D01*
D14*
X0245272Y0197909D03*
X0235272Y0197909D03*
X0225272Y0197909D03*
X0215272Y0197909D03*
X0205272Y0197909D03*
X0195272Y0197909D03*
X0255272Y0197909D03*
X0265272Y0197909D03*
X0275272Y0197909D03*
X0285272Y0197909D03*
X0295272Y0197909D03*
X0305272Y0197909D03*
X0315272Y0197909D03*
X0325272Y0197909D03*
X0335272Y0197909D03*
X0345272Y0197909D03*
D15*
X0366926Y0197909D03*
X0366926Y0075862D03*
X0071650Y0075862D03*
X0071650Y0197909D03*
D16*
X0103068Y0162083D03*
X0181808Y0166020D03*
X0181808Y0103028D03*
X0181808Y0083343D03*
X0103068Y0083343D03*
D17*
X0046276Y0152713D02*
X0038599Y0152713D01*
X0038599Y0172713D02*
X0046276Y0172713D01*
D18*
X0044938Y0132013D02*
X0034938Y0132013D01*
X0034938Y0043413D02*
X0044938Y0043413D01*
D19*
X0039938Y0050213D03*
X0127438Y0027713D03*
X0132438Y0027713D03*
X0137438Y0027713D03*
X0146188Y0030213D03*
X0151188Y0030213D03*
X0156188Y0030213D03*
X0169938Y0053963D03*
X0174938Y0053963D03*
X0179938Y0053963D03*
X0184938Y0053963D03*
X0203688Y0042713D03*
X0208688Y0042713D03*
X0213688Y0042713D03*
X0242438Y0032713D03*
X0259938Y0042713D03*
X0269938Y0042713D03*
X0282438Y0042713D03*
X0292438Y0042713D03*
X0287438Y0056463D03*
X0287438Y0062713D03*
X0304938Y0065213D03*
X0311188Y0065213D03*
X0314938Y0060213D03*
X0327438Y0060213D03*
X0332438Y0057713D03*
X0329938Y0050213D03*
X0336188Y0050213D03*
X0341188Y0051463D03*
X0351188Y0060213D03*
X0357438Y0060213D03*
X0363688Y0060213D03*
X0333688Y0095213D03*
X0333688Y0100213D03*
X0328688Y0101463D03*
X0314938Y0101463D03*
X0309938Y0103963D03*
X0309938Y0108963D03*
X0309938Y0113963D03*
X0298688Y0108963D03*
X0286188Y0101463D03*
X0273688Y0101463D03*
X0273688Y0106463D03*
X0273688Y0096463D03*
X0254938Y0106463D03*
X0254938Y0112713D03*
X0254938Y0118963D03*
X0239938Y0110213D03*
X0234938Y0110213D03*
X0213688Y0090213D03*
X0208688Y0090213D03*
X0203688Y0090213D03*
X0182438Y0112713D03*
X0203688Y0137713D03*
X0208688Y0137713D03*
X0213688Y0137713D03*
X0234938Y0157713D03*
X0239938Y0157713D03*
X0254938Y0160213D03*
X0254938Y0166463D03*
X0254938Y0153963D03*
X0283688Y0136463D03*
X0283688Y0130213D03*
X0283688Y0123963D03*
X0356188Y0102713D03*
X0359938Y0106463D03*
X0386188Y0103963D03*
X0394938Y0103963D03*
X0386188Y0126463D03*
X0337438Y0163963D03*
X0327438Y0163963D03*
X0317438Y0163963D03*
X0307438Y0166463D03*
X0297438Y0166463D03*
X0322438Y0181463D03*
X0326188Y0178963D03*
X0348688Y0183963D03*
X0348688Y0188963D03*
X0229938Y0182713D03*
X0216188Y0190213D03*
X0171188Y0166463D03*
X0254938Y0071463D03*
X0254938Y0065213D03*
X0254938Y0058963D03*
X0239938Y0062713D03*
X0234938Y0062713D03*
D20*
X0279938Y0040213D02*
X0282438Y0042713D01*
X0279938Y0040213D02*
X0279938Y0032713D01*
X0289938Y0032713D02*
X0289938Y0040213D01*
X0292438Y0042713D01*
X0314938Y0060213D02*
X0327438Y0060213D01*
X0327438Y0052713D01*
X0329938Y0050213D01*
X0328688Y0101463D02*
X0314938Y0101463D01*
X0307438Y0155213D02*
X0307438Y0166463D01*
X0297438Y0166463D02*
X0297438Y0155213D01*
X0327438Y0155213D02*
X0327438Y0163963D01*
X0337438Y0163963D02*
X0337438Y0155213D01*
D21*
X0332438Y0057713D02*
X0332438Y0053963D01*
X0336188Y0050213D01*
D22*
X0269938Y0042713D02*
X0269938Y0032713D01*
X0249938Y0032713D02*
X0242438Y0032713D01*
X0103688Y0082713D02*
X0083688Y0102713D01*
X0054938Y0102713D01*
X0039938Y0087713D01*
X0039938Y0050213D01*
X0039938Y0043963D01*
X0181188Y0102713D02*
X0182438Y0103963D01*
X0182438Y0112713D01*
X0103688Y0161463D02*
X0092438Y0172713D01*
X0042438Y0172713D01*
X0042438Y0152713D02*
X0042438Y0133963D01*
X0039938Y0131463D01*
X0171188Y0166463D02*
X0181188Y0166463D01*
X0182438Y0165213D01*
M02*
