%
M48
M72
T01C0.0236
T02C0.0315
T03C0.0433
T04C0.0512
T05C0.1260
%
T01
X7547Y6468
X8172Y6593
X7547Y6968
X8172Y7218
X7547Y7468
X8547Y7968
X6547Y9093
X5922Y9718
X4922Y9593
X4297Y9593
X4297Y10218
X4297Y10843
X4297Y11468
X7547Y11343
X8172Y11343
X8172Y11968
X7547Y11968
X9047Y13218
X9047Y13843
X9047Y14468
X11547Y11218
X12172Y11218
X12172Y10593
X11547Y10593
X13172Y8593
X13797Y8593
X13797Y8093
X13797Y7593
X13797Y7093
X12547Y6593
X12547Y5468
X12672Y3843
X13297Y3843
X13672Y3093
X14422Y3093
X15172Y3093
X12922Y3093
X12172Y3093
X11422Y3093
X10672Y3093
X9922Y3093
X9172Y3093
X11172Y3843
X11797Y3843
X15422Y5718
X15422Y7093
X18172Y7468
X19172Y7218
X19922Y7218
X20047Y8968
X19547Y8968
X19047Y8968
X18422Y9593
X17297Y9593
X16672Y9593
X16672Y10343
X17297Y10343
X21047Y10718
X21672Y10718
X21672Y11343
X21047Y11343
X21047Y11968
X21672Y11968
X15172Y13218
X15172Y13843
X15172Y14468
X8547Y9718
T02
X7422Y3843
X17047Y3843
X14922Y11343
T03
X10036Y12082
X10036Y12968
X10036Y13854
X11808Y13854
X11808Y12082
X16161Y12082
X16161Y12968
X16161Y13854
X17933Y13854
X17933Y12082
T04
X10922Y11492
X10922Y14444
X17047Y14444
X17047Y11492
T05
X3425Y3846
X3425Y14082
X21141Y14082
X21141Y3846
M30
