%
M48
M72
T01C0.0157
T02C0.0236
T03C0.0276
T04C0.0354
T05C0.0630
T06C0.1260
%
T01
X9922Y8843
X8922Y9593
T02
X4547Y6468
X4547Y6968
X4547Y7468
X7297Y8593
X7797Y7468
X7797Y6968
X7797Y6468
X11172Y5968
X12047Y6343
X12547Y6593
X13547Y6968
X13547Y7593
X13547Y8218
X13797Y8718
X13297Y8718
X15422Y8968
X16547Y9468
X16547Y9968
X16547Y10468
X17297Y9468
X17922Y9468
X18422Y9468
X18922Y8968
X19422Y8968
X19922Y8968
X19672Y7343
X19172Y7343
X19672Y5843
X17047Y5593
X16456Y5449
X17047Y6843
X16600Y7343
X16600Y7843
X14422Y6218
X13422Y5468
X12547Y4718
X12547Y3968
X11922Y3968
X11797Y3343
X11172Y3343
X10672Y2843
X10047Y2843
X12672Y3343
X13297Y3343
X13797Y2843
X14422Y2843
X5172Y9593
X4547Y9593
X4547Y10218
X7297Y10093
X8922Y10343
X10547Y10343
X11172Y10343
X11797Y10343
X12422Y10718
X9797Y13468
X9797Y14093
X9797Y14718
X7422Y12468
X6797Y12468
X6172Y12468
X4922Y12468
X4547Y12468
X17297Y13468
X17297Y14093
X17297Y14718
X20797Y11843
X20797Y11343
X20797Y10843
T03
X10752Y12641
X10752Y14295
X16342Y14295
X16342Y12641
T04
X7422Y3343
X17047Y3343
X17297Y11343
X18047Y11343
X6672Y14218
X5547Y14218
T05
X13547Y14846
T06
X3425Y3846
X3425Y14082
X21141Y14082
X21141Y3846
M30
