%
M48
M72
T01C0.0236
T02C0.0315
T03C0.1260
%
T01
X7047Y5468
X7547Y5468
X7547Y5968
X7047Y5968
X7047Y6468
X7547Y6468
X8047Y6968
X5922Y8093
X5422Y8718
X4422Y8593
X3797Y8593
X3797Y9218
X3797Y9843
X3797Y10468
X7047Y10343
X7672Y10343
X7672Y10968
X7047Y10968
X8047Y8718
X11047Y9593
X11672Y9593
X11672Y10093
X11047Y10093
X12672Y7593
X13297Y7593
X13297Y7093
X13297Y6593
X13297Y6093
X12047Y5593
X12047Y4593
X12047Y4093
X12047Y3593
X11422Y3593
X11422Y4093
X11422Y2968
X10797Y2968
X12047Y2968
X12672Y2968
X14672Y3718
X15672Y3718
X14922Y4843
X14922Y5968
X17547Y6593
X18172Y6218
X18922Y6218
X19047Y7968
X18547Y7968
X18047Y7968
X17422Y8593
X16797Y8593
X16172Y8593
X16172Y9343
X16797Y9343
X20047Y9718
X20672Y9718
X20672Y10343
X20047Y10343
X20047Y10968
X20672Y10968
X8797Y3718
X7797Y3718
T02
X6922Y2968
X16547Y2968
X14422Y10343
T03
X3425Y3846
X3425Y12507
X19960Y12507
X19960Y3846
M30
