G75*
%MOIN*%
%OFA0B0*%
%FSLAX25Y25*%
%IPPOS*%
%LPD*%
%AMOC8*
5,1,8,0,0,1.08239X$1,22.5*
%
%ADD10C,0.01100*%
D10*
X0115365Y0104483D02*
X0116616Y0103232D01*
X0117867Y0103232D01*
X0115365Y0104483D02*
X0115365Y0110739D01*
X0120369Y0110739D02*
X0120369Y0106985D01*
X0119118Y0105734D01*
X0115365Y0105734D01*
X0123284Y0106985D02*
X0124535Y0105734D01*
X0128288Y0105734D01*
X0128288Y0113241D01*
X0128288Y0110739D02*
X0124535Y0110739D01*
X0123284Y0109487D01*
X0123284Y0106985D01*
X0138984Y0105734D02*
X0140235Y0106985D01*
X0140235Y0111990D01*
X0141486Y0110739D02*
X0138984Y0110739D01*
X0145514Y0110739D02*
X0145514Y0105734D01*
X0146765Y0105734D02*
X0144263Y0105734D01*
X0149680Y0105734D02*
X0149680Y0110739D01*
X0146765Y0110739D02*
X0145514Y0110739D01*
X0145514Y0113241D02*
X0145514Y0114492D01*
X0145514Y0119514D02*
X0143012Y0119514D01*
X0141761Y0120765D01*
X0141761Y0123267D01*
X0143012Y0124518D01*
X0145514Y0124518D01*
X0146765Y0123267D01*
X0146765Y0120765D01*
X0145514Y0119514D01*
X0149611Y0119514D02*
X0153364Y0122016D01*
X0149611Y0124518D01*
X0153364Y0127020D02*
X0153364Y0119514D01*
X0156141Y0119514D02*
X0157392Y0120765D01*
X0157392Y0125769D01*
X0158643Y0124518D02*
X0156141Y0124518D01*
X0161558Y0123267D02*
X0165311Y0123267D01*
X0166562Y0124518D01*
X0166562Y0125769D01*
X0165311Y0127020D01*
X0162809Y0127020D01*
X0161558Y0125769D01*
X0161558Y0120765D01*
X0162809Y0119514D01*
X0165311Y0119514D01*
X0166562Y0120765D01*
X0169476Y0120765D02*
X0169476Y0123267D01*
X0170728Y0124518D01*
X0174481Y0124518D01*
X0174481Y0127020D02*
X0174481Y0119514D01*
X0170728Y0119514D01*
X0169476Y0120765D01*
X0173230Y0114492D02*
X0173230Y0113241D01*
X0173230Y0110739D02*
X0173230Y0105734D01*
X0174481Y0105734D02*
X0171979Y0105734D01*
X0169202Y0105734D02*
X0169202Y0110739D01*
X0166699Y0110739D02*
X0165448Y0110739D01*
X0166699Y0110739D02*
X0169202Y0108236D01*
X0173230Y0110739D02*
X0174481Y0110739D01*
X0177395Y0111990D02*
X0178646Y0113241D01*
X0181148Y0113241D01*
X0182399Y0111990D01*
X0182399Y0106985D01*
X0181148Y0105734D01*
X0178646Y0105734D01*
X0177395Y0106985D01*
X0162603Y0106985D02*
X0161352Y0105734D01*
X0157598Y0105734D01*
X0154684Y0106985D02*
X0153433Y0105734D01*
X0149680Y0105734D01*
X0154684Y0106985D02*
X0154684Y0110739D01*
X0157598Y0110739D02*
X0161352Y0110739D01*
X0162603Y0109487D01*
X0162603Y0106985D01*
X0177395Y0119514D02*
X0177395Y0123267D01*
X0178646Y0124518D01*
X0181148Y0124518D01*
X0182399Y0123267D01*
X0182399Y0127020D02*
X0182399Y0119514D01*
X0182399Y0131325D02*
X0177395Y0131325D01*
X0174481Y0132576D02*
X0173230Y0131325D01*
X0169476Y0131325D01*
X0169476Y0136329D01*
X0166562Y0133827D02*
X0162809Y0136329D01*
X0166562Y0133827D02*
X0162809Y0131325D01*
X0159963Y0132576D02*
X0158712Y0133827D01*
X0154959Y0133827D01*
X0154959Y0135078D02*
X0154959Y0131325D01*
X0158712Y0131325D01*
X0159963Y0132576D01*
X0158712Y0136329D02*
X0156210Y0136329D01*
X0154959Y0135078D01*
X0152044Y0135078D02*
X0150793Y0133827D01*
X0148291Y0133827D01*
X0147040Y0132576D01*
X0148291Y0131325D01*
X0152044Y0131325D01*
X0152044Y0135078D02*
X0150793Y0136329D01*
X0147040Y0136329D01*
X0136207Y0135078D02*
X0133705Y0135078D01*
X0136207Y0131325D02*
X0136207Y0138831D01*
X0131202Y0138831D01*
X0127037Y0138831D02*
X0127037Y0140082D01*
X0124535Y0140082D02*
X0124535Y0138831D01*
X0124535Y0136329D02*
X0123284Y0135078D01*
X0123284Y0131325D01*
X0127037Y0131325D01*
X0128288Y0132576D01*
X0127037Y0133827D01*
X0123284Y0133827D01*
X0124535Y0136329D02*
X0127037Y0136329D01*
X0120369Y0135078D02*
X0119118Y0136329D01*
X0115365Y0136329D01*
X0116616Y0133827D02*
X0119118Y0133827D01*
X0120369Y0135078D01*
X0120369Y0131325D02*
X0116616Y0131325D01*
X0115365Y0132576D01*
X0116616Y0133827D01*
X0112450Y0135078D02*
X0111199Y0136329D01*
X0107446Y0136329D01*
X0108697Y0133827D02*
X0111199Y0133827D01*
X0112450Y0135078D01*
X0112450Y0131325D02*
X0108697Y0131325D01*
X0107446Y0132576D01*
X0108697Y0133827D01*
X0104532Y0131325D02*
X0102030Y0131325D01*
X0103281Y0131325D02*
X0103281Y0138831D01*
X0104532Y0138831D01*
X0099252Y0135078D02*
X0098001Y0136329D01*
X0095499Y0136329D01*
X0094248Y0135078D01*
X0094248Y0133827D01*
X0099252Y0133827D01*
X0099252Y0132576D02*
X0099252Y0135078D01*
X0099252Y0132576D02*
X0098001Y0131325D01*
X0095499Y0131325D01*
X0091334Y0131325D02*
X0091334Y0136329D01*
X0091334Y0133827D02*
X0088832Y0136329D01*
X0087581Y0136329D01*
X0084941Y0113241D02*
X0088694Y0109487D01*
X0083690Y0109487D01*
X0080775Y0108236D02*
X0075771Y0113241D01*
X0072857Y0113241D02*
X0072857Y0106985D01*
X0071606Y0105734D01*
X0069103Y0105734D01*
X0067852Y0106985D01*
X0067852Y0113241D01*
X0075771Y0105734D02*
X0079524Y0109487D01*
X0080775Y0113241D02*
X0080775Y0105734D01*
X0084941Y0105734D02*
X0084941Y0113241D01*
X0091609Y0111990D02*
X0092860Y0113241D01*
X0095362Y0113241D01*
X0096613Y0111990D01*
X0096613Y0106985D01*
X0095362Y0105734D01*
X0092860Y0105734D01*
X0091609Y0106985D01*
X0099527Y0106985D02*
X0099527Y0111990D01*
X0100778Y0113241D01*
X0104532Y0113241D01*
X0104532Y0105734D01*
X0100778Y0105734D01*
X0099527Y0106985D01*
X0121964Y0119514D02*
X0121964Y0123267D01*
X0123215Y0124518D01*
X0125717Y0124518D01*
X0126968Y0123267D01*
X0129883Y0124518D02*
X0133636Y0124518D01*
X0134887Y0123267D01*
X0134887Y0120765D01*
X0133636Y0119514D01*
X0129883Y0119514D01*
X0126968Y0119514D02*
X0126968Y0127020D01*
X0137595Y0120765D02*
X0137595Y0119514D01*
X0138846Y0119514D01*
X0138846Y0120765D01*
X0137595Y0120765D01*
X0166562Y0131325D02*
X0166562Y0138831D01*
X0174481Y0136329D02*
X0174481Y0132576D01*
X0182399Y0131325D02*
X0182399Y0138831D01*
M02*
