%
M48
M72
T01C0.0236
T02C0.0354
T03C0.0394
T04C0.0512
T05C0.0520
T06C0.0906
T07C0.1299
%
T01
X3994Y5021
X12744Y2771
X13244Y2771
X13744Y2771
X14619Y3021
X15119Y3021
X15619Y3021
X16994Y5396
X17494Y5396
X17994Y5396
X18494Y5396
X20369Y4271
X20869Y4271
X21369Y4271
X24244Y3271
X25994Y4271
X26994Y4271
X28244Y4271
X29244Y4271
X28744Y5646
X28744Y6271
X30494Y6521
X31119Y6521
X31494Y6021
X32744Y6021
X33244Y5771
X32994Y5021
X33619Y5021
X34119Y5146
X35119Y6021
X35744Y6021
X36369Y6021
X33369Y9521
X33369Y10021
X32869Y10146
X31494Y10146
X30994Y10396
X30994Y10896
X30994Y11396
X29869Y10896
X28619Y10146
X27369Y10146
X27369Y9646
X27369Y10646
X25494Y10646
X25494Y11271
X25494Y11896
X23994Y11021
X23494Y11021
X21369Y9021
X20869Y9021
X20369Y9021
X18244Y11271
X20369Y13771
X20869Y13771
X21369Y13771
X23494Y15771
X23994Y15771
X25494Y16021
X25494Y15396
X25494Y16646
X22994Y18271
X21619Y19021
X17119Y16646
X28369Y13646
X28369Y13021
X28369Y12396
X35619Y10271
X35994Y10646
X38619Y10396
X39494Y10396
X38619Y12646
X33744Y16396
X32744Y16396
X31744Y16396
X30744Y16646
X29744Y16646
X32244Y18146
X32619Y17896
X34869Y18396
X34869Y18896
X25494Y7146
X25494Y6521
X25494Y5896
X23994Y6271
X23494Y6271
T02
X10307Y8334
X18181Y8334
X18181Y10303
X10307Y16208
X18181Y16602
T03
X24994Y3271
X25994Y3271
X26994Y3271
X27994Y3271
X28994Y3271
X38677Y11031
X39464Y11031
X39464Y12015
X38677Y12015
X34744Y15521
X33744Y15521
X32744Y15521
X31744Y15521
X30744Y15521
X29744Y15521
X29527Y19791
X30527Y19791
X31527Y19791
X32527Y19791
X33527Y19791
X34527Y19791
X28527Y19791
X27527Y19791
X26527Y19791
X25527Y19791
X24527Y19791
X23527Y19791
X22527Y19791
X21527Y19791
X20527Y19791
X19527Y19791
T04
X4244Y15271
X4244Y17271
T05
X3994Y4341
X3994Y13201
T06
X40531Y9153
X40531Y13893
T07
X7165Y7586
X7165Y19791
X36693Y19791
X36693Y7586
M30
