G75*
%MOIN*%
%OFA0B0*%
%FSLAX25Y25*%
%IPPOS*%
%LPD*%
%AMOC8*
5,1,8,0,0,1.08239X$1,22.5*
%
%ADD10C,0.01100*%
D10*
X0110365Y0094483D02*
X0111616Y0093232D01*
X0112867Y0093232D01*
X0110365Y0094483D02*
X0110365Y0100739D01*
X0115369Y0100739D02*
X0115369Y0096985D01*
X0114118Y0095734D01*
X0110365Y0095734D01*
X0118284Y0096985D02*
X0118284Y0099487D01*
X0119535Y0100739D01*
X0123288Y0100739D01*
X0123288Y0103241D02*
X0123288Y0095734D01*
X0119535Y0095734D01*
X0118284Y0096985D01*
X0133984Y0095734D02*
X0135235Y0096985D01*
X0135235Y0101990D01*
X0136486Y0100739D02*
X0133984Y0100739D01*
X0140514Y0100739D02*
X0140514Y0095734D01*
X0141765Y0095734D02*
X0139263Y0095734D01*
X0144680Y0095734D02*
X0144680Y0100739D01*
X0141765Y0100739D02*
X0140514Y0100739D01*
X0140514Y0103241D02*
X0140514Y0104492D01*
X0140514Y0109514D02*
X0138012Y0109514D01*
X0136761Y0110765D01*
X0136761Y0113267D01*
X0138012Y0114518D01*
X0140514Y0114518D01*
X0141765Y0113267D01*
X0141765Y0110765D01*
X0140514Y0109514D01*
X0144611Y0109514D02*
X0148364Y0112016D01*
X0144611Y0114518D01*
X0148364Y0117020D02*
X0148364Y0109514D01*
X0151141Y0109514D02*
X0152392Y0110765D01*
X0152392Y0115769D01*
X0153643Y0114518D02*
X0151141Y0114518D01*
X0156558Y0113267D02*
X0160311Y0113267D01*
X0161562Y0114518D01*
X0161562Y0115769D01*
X0160311Y0117020D01*
X0157809Y0117020D01*
X0156558Y0115769D01*
X0156558Y0110765D01*
X0157809Y0109514D01*
X0160311Y0109514D01*
X0161562Y0110765D01*
X0164476Y0110765D02*
X0165728Y0109514D01*
X0169481Y0109514D01*
X0169481Y0117020D01*
X0169481Y0114518D02*
X0165728Y0114518D01*
X0164476Y0113267D01*
X0164476Y0110765D01*
X0172395Y0109514D02*
X0172395Y0113267D01*
X0173646Y0114518D01*
X0176148Y0114518D01*
X0177399Y0113267D01*
X0177399Y0117020D02*
X0177399Y0109514D01*
X0176148Y0103241D02*
X0173646Y0103241D01*
X0172395Y0101990D01*
X0169481Y0100739D02*
X0168230Y0100739D01*
X0168230Y0095734D01*
X0169481Y0095734D02*
X0166979Y0095734D01*
X0164202Y0095734D02*
X0164202Y0100739D01*
X0161699Y0100739D02*
X0160448Y0100739D01*
X0161699Y0100739D02*
X0164202Y0098236D01*
X0168230Y0103241D02*
X0168230Y0104492D01*
X0176148Y0103241D02*
X0177399Y0101990D01*
X0177399Y0096985D01*
X0176148Y0095734D01*
X0173646Y0095734D01*
X0172395Y0096985D01*
X0157603Y0096985D02*
X0156352Y0095734D01*
X0152598Y0095734D01*
X0149684Y0096985D02*
X0148433Y0095734D01*
X0144680Y0095734D01*
X0149684Y0096985D02*
X0149684Y0100739D01*
X0152598Y0100739D02*
X0156352Y0100739D01*
X0157603Y0099487D01*
X0157603Y0096985D01*
X0133846Y0109514D02*
X0132595Y0109514D01*
X0132595Y0110765D01*
X0133846Y0110765D01*
X0133846Y0109514D01*
X0129887Y0110765D02*
X0128636Y0109514D01*
X0124883Y0109514D01*
X0121968Y0109514D02*
X0121968Y0117020D01*
X0120717Y0114518D02*
X0118215Y0114518D01*
X0116964Y0113267D01*
X0116964Y0109514D01*
X0121968Y0113267D02*
X0120717Y0114518D01*
X0124883Y0114518D02*
X0128636Y0114518D01*
X0129887Y0113267D01*
X0129887Y0110765D01*
X0131207Y0121325D02*
X0131207Y0128831D01*
X0126202Y0128831D01*
X0122037Y0128831D02*
X0122037Y0130082D01*
X0119535Y0130082D02*
X0119535Y0128831D01*
X0119535Y0126329D02*
X0118284Y0125078D01*
X0118284Y0121325D01*
X0122037Y0121325D01*
X0123288Y0122576D01*
X0122037Y0123827D01*
X0118284Y0123827D01*
X0115369Y0125078D02*
X0114118Y0126329D01*
X0110365Y0126329D01*
X0111616Y0123827D02*
X0114118Y0123827D01*
X0115369Y0125078D01*
X0115369Y0121325D02*
X0111616Y0121325D01*
X0110365Y0122576D01*
X0111616Y0123827D01*
X0107450Y0125078D02*
X0106199Y0126329D01*
X0102446Y0126329D01*
X0099532Y0128831D02*
X0098281Y0128831D01*
X0098281Y0121325D01*
X0099532Y0121325D02*
X0097030Y0121325D01*
X0094252Y0122576D02*
X0094252Y0125078D01*
X0093001Y0126329D01*
X0090499Y0126329D01*
X0089248Y0125078D01*
X0089248Y0123827D01*
X0094252Y0123827D01*
X0094252Y0122576D02*
X0093001Y0121325D01*
X0090499Y0121325D01*
X0086334Y0121325D02*
X0086334Y0126329D01*
X0086334Y0123827D02*
X0083832Y0126329D01*
X0082581Y0126329D01*
X0102446Y0122576D02*
X0103697Y0123827D01*
X0106199Y0123827D01*
X0107450Y0125078D01*
X0107450Y0121325D02*
X0103697Y0121325D01*
X0102446Y0122576D01*
X0119535Y0126329D02*
X0122037Y0126329D01*
X0128705Y0125078D02*
X0131207Y0125078D01*
X0142040Y0126329D02*
X0145793Y0126329D01*
X0147044Y0125078D01*
X0145793Y0123827D01*
X0143291Y0123827D01*
X0142040Y0122576D01*
X0143291Y0121325D01*
X0147044Y0121325D01*
X0149959Y0121325D02*
X0149959Y0125078D01*
X0151210Y0126329D01*
X0153712Y0126329D01*
X0153712Y0123827D02*
X0149959Y0123827D01*
X0149959Y0121325D02*
X0153712Y0121325D01*
X0154963Y0122576D01*
X0153712Y0123827D01*
X0157809Y0126329D02*
X0161562Y0123827D01*
X0157809Y0121325D01*
X0161562Y0121325D02*
X0161562Y0128831D01*
X0164476Y0126329D02*
X0164476Y0121325D01*
X0168230Y0121325D01*
X0169481Y0122576D01*
X0169481Y0126329D01*
X0172395Y0121325D02*
X0177399Y0121325D01*
X0177399Y0128831D01*
X0099532Y0103241D02*
X0099532Y0095734D01*
X0095778Y0095734D01*
X0094527Y0096985D01*
X0094527Y0101990D01*
X0095778Y0103241D01*
X0099532Y0103241D01*
X0091613Y0101990D02*
X0091613Y0096985D01*
X0090362Y0095734D01*
X0087860Y0095734D01*
X0086609Y0096985D01*
X0083694Y0099487D02*
X0078690Y0099487D01*
X0075775Y0098236D02*
X0070771Y0103241D01*
X0067857Y0103241D02*
X0067857Y0096985D01*
X0066606Y0095734D01*
X0064103Y0095734D01*
X0062852Y0096985D01*
X0062852Y0103241D01*
X0070771Y0095734D02*
X0074524Y0099487D01*
X0075775Y0103241D02*
X0075775Y0095734D01*
X0079941Y0095734D02*
X0079941Y0103241D01*
X0083694Y0099487D01*
X0086609Y0101990D02*
X0087860Y0103241D01*
X0090362Y0103241D01*
X0091613Y0101990D01*
M02*
