G75*
%MOIN*%
%OFA0B0*%
%FSLAX25Y25*%
%IPPOS*%
%LPD*%
%AMOC8*
5,1,8,0,0,1.08239X$1,22.5*
%
%ADD10C,0.00394*%
%ADD11C,0.06699*%
%ADD12C,0.13455*%
%ADD13R,0.05518X0.04731*%
%ADD14R,0.04731X0.05518*%
%ADD15C,0.06306*%
%ADD16R,0.09849X0.07880*%
%ADD17R,0.04731X0.02762*%
%ADD18C,0.06306*%
%ADD19C,0.17392*%
%ADD20R,0.07093X0.02959*%
%ADD21R,0.04337X0.03550*%
%ADD22C,0.10243*%
%ADD23R,0.08274X0.10046*%
%ADD24R,0.03550X0.05912*%
%ADD25R,0.06306X0.08274*%
%ADD26R,0.15361X0.08274*%
%ADD27R,0.06699X0.16935*%
%ADD28R,0.16935X0.06699*%
%ADD29R,0.07487X0.06699*%
%ADD30C,0.08077*%
%ADD31C,0.10400*%
%ADD32R,0.05124X0.05124*%
D10*
X0034249Y0022713D02*
X0404327Y0022713D01*
X0404612Y0022716D01*
X0404898Y0022727D01*
X0405183Y0022744D01*
X0405467Y0022768D01*
X0405751Y0022799D01*
X0406034Y0022837D01*
X0406315Y0022882D01*
X0406596Y0022933D01*
X0406876Y0022991D01*
X0407154Y0023056D01*
X0407430Y0023128D01*
X0407704Y0023206D01*
X0407977Y0023291D01*
X0408247Y0023383D01*
X0408515Y0023481D01*
X0408781Y0023585D01*
X0409044Y0023696D01*
X0409304Y0023813D01*
X0409562Y0023936D01*
X0409816Y0024066D01*
X0410067Y0024202D01*
X0410315Y0024343D01*
X0410559Y0024491D01*
X0410800Y0024644D01*
X0411036Y0024804D01*
X0411269Y0024969D01*
X0411498Y0025139D01*
X0411723Y0025315D01*
X0411943Y0025497D01*
X0412159Y0025683D01*
X0412370Y0025875D01*
X0412577Y0026072D01*
X0412779Y0026274D01*
X0412976Y0026481D01*
X0413168Y0026692D01*
X0413354Y0026908D01*
X0413536Y0027128D01*
X0413712Y0027353D01*
X0413882Y0027582D01*
X0414047Y0027815D01*
X0414207Y0028051D01*
X0414360Y0028292D01*
X0414508Y0028536D01*
X0414649Y0028784D01*
X0414785Y0029035D01*
X0414915Y0029289D01*
X0415038Y0029547D01*
X0415155Y0029807D01*
X0415266Y0030070D01*
X0415370Y0030336D01*
X0415468Y0030604D01*
X0415560Y0030874D01*
X0415645Y0031147D01*
X0415723Y0031421D01*
X0415795Y0031697D01*
X0415860Y0031975D01*
X0415918Y0032255D01*
X0415969Y0032536D01*
X0416014Y0032817D01*
X0416052Y0033100D01*
X0416083Y0033384D01*
X0416107Y0033668D01*
X0416124Y0033953D01*
X0416135Y0034239D01*
X0416138Y0034524D01*
X0416138Y0195941D01*
X0416135Y0196226D01*
X0416124Y0196512D01*
X0416107Y0196797D01*
X0416083Y0197081D01*
X0416052Y0197365D01*
X0416014Y0197648D01*
X0415969Y0197929D01*
X0415918Y0198210D01*
X0415860Y0198490D01*
X0415795Y0198768D01*
X0415723Y0199044D01*
X0415645Y0199318D01*
X0415560Y0199591D01*
X0415468Y0199861D01*
X0415370Y0200129D01*
X0415266Y0200395D01*
X0415155Y0200658D01*
X0415038Y0200918D01*
X0414915Y0201176D01*
X0414785Y0201430D01*
X0414649Y0201681D01*
X0414508Y0201929D01*
X0414360Y0202173D01*
X0414207Y0202414D01*
X0414047Y0202650D01*
X0413882Y0202883D01*
X0413712Y0203112D01*
X0413536Y0203337D01*
X0413354Y0203557D01*
X0413168Y0203773D01*
X0412976Y0203984D01*
X0412779Y0204191D01*
X0412577Y0204393D01*
X0412370Y0204590D01*
X0412159Y0204782D01*
X0411943Y0204968D01*
X0411723Y0205150D01*
X0411498Y0205326D01*
X0411269Y0205496D01*
X0411036Y0205661D01*
X0410800Y0205821D01*
X0410559Y0205974D01*
X0410315Y0206122D01*
X0410067Y0206263D01*
X0409816Y0206399D01*
X0409562Y0206529D01*
X0409304Y0206652D01*
X0409044Y0206769D01*
X0408781Y0206880D01*
X0408515Y0206984D01*
X0408247Y0207082D01*
X0407977Y0207174D01*
X0407704Y0207259D01*
X0407430Y0207337D01*
X0407154Y0207409D01*
X0406876Y0207474D01*
X0406596Y0207532D01*
X0406315Y0207583D01*
X0406034Y0207628D01*
X0405751Y0207666D01*
X0405467Y0207697D01*
X0405183Y0207721D01*
X0404898Y0207738D01*
X0404612Y0207749D01*
X0404327Y0207752D01*
X0034249Y0207752D01*
X0033964Y0207749D01*
X0033678Y0207738D01*
X0033393Y0207721D01*
X0033109Y0207697D01*
X0032825Y0207666D01*
X0032542Y0207628D01*
X0032261Y0207583D01*
X0031980Y0207532D01*
X0031700Y0207474D01*
X0031422Y0207409D01*
X0031146Y0207337D01*
X0030872Y0207259D01*
X0030599Y0207174D01*
X0030329Y0207082D01*
X0030061Y0206984D01*
X0029795Y0206880D01*
X0029532Y0206769D01*
X0029272Y0206652D01*
X0029014Y0206529D01*
X0028760Y0206399D01*
X0028509Y0206263D01*
X0028261Y0206122D01*
X0028017Y0205974D01*
X0027776Y0205821D01*
X0027540Y0205661D01*
X0027307Y0205496D01*
X0027078Y0205326D01*
X0026853Y0205150D01*
X0026633Y0204968D01*
X0026417Y0204782D01*
X0026206Y0204590D01*
X0025999Y0204393D01*
X0025797Y0204191D01*
X0025600Y0203984D01*
X0025408Y0203773D01*
X0025222Y0203557D01*
X0025040Y0203337D01*
X0024864Y0203112D01*
X0024694Y0202883D01*
X0024529Y0202650D01*
X0024369Y0202414D01*
X0024216Y0202173D01*
X0024068Y0201929D01*
X0023927Y0201681D01*
X0023791Y0201430D01*
X0023661Y0201176D01*
X0023538Y0200918D01*
X0023421Y0200658D01*
X0023310Y0200395D01*
X0023206Y0200129D01*
X0023108Y0199861D01*
X0023016Y0199591D01*
X0022931Y0199318D01*
X0022853Y0199044D01*
X0022781Y0198768D01*
X0022716Y0198490D01*
X0022658Y0198210D01*
X0022607Y0197929D01*
X0022562Y0197648D01*
X0022524Y0197365D01*
X0022493Y0197081D01*
X0022469Y0196797D01*
X0022452Y0196512D01*
X0022441Y0196226D01*
X0022438Y0195941D01*
X0022438Y0034524D01*
X0022441Y0034239D01*
X0022452Y0033953D01*
X0022469Y0033668D01*
X0022493Y0033384D01*
X0022524Y0033100D01*
X0022562Y0032817D01*
X0022607Y0032536D01*
X0022658Y0032255D01*
X0022716Y0031975D01*
X0022781Y0031697D01*
X0022853Y0031421D01*
X0022931Y0031147D01*
X0023016Y0030874D01*
X0023108Y0030604D01*
X0023206Y0030336D01*
X0023310Y0030070D01*
X0023421Y0029807D01*
X0023538Y0029547D01*
X0023661Y0029289D01*
X0023791Y0029035D01*
X0023927Y0028784D01*
X0024068Y0028536D01*
X0024216Y0028292D01*
X0024369Y0028051D01*
X0024529Y0027815D01*
X0024694Y0027582D01*
X0024864Y0027353D01*
X0025040Y0027128D01*
X0025222Y0026908D01*
X0025408Y0026692D01*
X0025600Y0026481D01*
X0025797Y0026274D01*
X0025999Y0026072D01*
X0026206Y0025875D01*
X0026417Y0025683D01*
X0026633Y0025497D01*
X0026853Y0025315D01*
X0027078Y0025139D01*
X0027307Y0024969D01*
X0027540Y0024804D01*
X0027776Y0024644D01*
X0028017Y0024491D01*
X0028261Y0024343D01*
X0028509Y0024202D01*
X0028760Y0024066D01*
X0029014Y0023936D01*
X0029272Y0023813D01*
X0029532Y0023696D01*
X0029795Y0023585D01*
X0030061Y0023481D01*
X0030329Y0023383D01*
X0030599Y0023291D01*
X0030872Y0023206D01*
X0031146Y0023128D01*
X0031422Y0023056D01*
X0031700Y0022991D01*
X0031980Y0022933D01*
X0032261Y0022882D01*
X0032542Y0022837D01*
X0032825Y0022799D01*
X0033109Y0022768D01*
X0033393Y0022744D01*
X0033678Y0022727D01*
X0033964Y0022716D01*
X0034249Y0022713D01*
D11*
X0386768Y0086689D03*
X0394642Y0086689D03*
X0394642Y0096531D03*
X0386768Y0096531D03*
D12*
X0405312Y0115311D03*
X0405312Y0067909D03*
D13*
X0363688Y0054612D03*
X0363688Y0048313D03*
X0331188Y0064563D03*
X0323688Y0064563D03*
X0323688Y0070862D03*
X0331188Y0070862D03*
X0294938Y0054612D03*
X0294938Y0048313D03*
X0237438Y0049563D03*
X0237438Y0055862D03*
X0237438Y0069563D03*
X0237438Y0075862D03*
X0273688Y0090813D03*
X0273688Y0097112D03*
X0273688Y0105813D03*
X0273688Y0112112D03*
X0294938Y0113313D03*
X0294938Y0119612D03*
X0349938Y0104612D03*
X0349938Y0098313D03*
X0276188Y0149563D03*
X0268688Y0149563D03*
X0268688Y0155862D03*
X0276188Y0155862D03*
X0279938Y0173313D03*
X0272438Y0173313D03*
X0272438Y0179612D03*
X0279938Y0179612D03*
X0237438Y0168362D03*
X0237438Y0162063D03*
X0237438Y0148362D03*
X0237438Y0142063D03*
X0237438Y0123362D03*
X0237438Y0117063D03*
X0237438Y0103362D03*
X0237438Y0097063D03*
X0172438Y0043362D03*
X0172438Y0037063D03*
X0142438Y0037063D03*
X0142438Y0043362D03*
X0202438Y0179563D03*
X0209938Y0179563D03*
X0209938Y0185862D03*
X0202438Y0185862D03*
D14*
X0186837Y0191463D03*
X0180538Y0191463D03*
X0180538Y0198963D03*
X0186837Y0198963D03*
X0299288Y0172713D03*
X0305587Y0172713D03*
X0319288Y0185213D03*
X0325587Y0185213D03*
X0335538Y0185213D03*
X0341837Y0185213D03*
X0341798Y0174474D03*
X0335499Y0174474D03*
X0309337Y0071463D03*
X0303038Y0071463D03*
D15*
X0302438Y0036915D02*
X0302438Y0031010D01*
X0312438Y0031010D02*
X0312438Y0036915D01*
X0292438Y0036915D02*
X0292438Y0031010D01*
X0282438Y0031010D02*
X0282438Y0036915D01*
X0272438Y0036915D02*
X0272438Y0031010D01*
X0393235Y0133963D02*
X0399140Y0133963D01*
X0399140Y0143963D02*
X0393235Y0143963D01*
X0393235Y0153963D02*
X0399140Y0153963D01*
X0399140Y0163963D02*
X0393235Y0163963D01*
X0393235Y0173963D02*
X0399140Y0173963D01*
X0347438Y0158165D02*
X0347438Y0152260D01*
X0337438Y0152260D02*
X0337438Y0158165D01*
X0327438Y0158165D02*
X0327438Y0152260D01*
X0317438Y0152260D02*
X0317438Y0158165D01*
X0307438Y0158165D02*
X0307438Y0152260D01*
X0297438Y0152260D02*
X0297438Y0158165D01*
D16*
X0284938Y0109533D03*
X0284938Y0093392D03*
D17*
X0345676Y0055203D03*
X0345676Y0051463D03*
X0345676Y0047722D03*
X0356699Y0047722D03*
X0356699Y0055203D03*
X0312949Y0052703D03*
X0312949Y0048963D03*
X0312949Y0045222D03*
X0301926Y0045222D03*
X0301926Y0048963D03*
X0301926Y0052703D03*
D18*
X0305272Y0193972D03*
X0295272Y0193972D03*
X0285272Y0193972D03*
X0275272Y0193972D03*
X0265272Y0193972D03*
X0255272Y0193972D03*
X0245272Y0193972D03*
X0235272Y0193972D03*
X0225272Y0193972D03*
X0215272Y0193972D03*
X0205272Y0193972D03*
X0195272Y0193972D03*
X0315272Y0193972D03*
X0325272Y0193972D03*
X0335272Y0193972D03*
X0345272Y0193972D03*
D19*
X0366926Y0193972D03*
X0366926Y0071925D03*
X0071650Y0071925D03*
X0071650Y0193972D03*
D20*
X0303619Y0143963D03*
X0303619Y0138963D03*
X0303619Y0133963D03*
X0303619Y0128963D03*
X0303619Y0123963D03*
X0303619Y0118963D03*
X0303619Y0113963D03*
X0303619Y0108963D03*
X0303619Y0103963D03*
X0303619Y0098963D03*
X0303619Y0093963D03*
X0303619Y0088963D03*
X0303619Y0083963D03*
X0303619Y0078963D03*
X0341257Y0078963D03*
X0341257Y0083963D03*
X0341257Y0088963D03*
X0341257Y0093963D03*
X0341257Y0098963D03*
X0341257Y0103963D03*
X0341257Y0108963D03*
X0341257Y0113963D03*
X0341257Y0118963D03*
X0341257Y0123963D03*
X0341257Y0128963D03*
X0341257Y0133963D03*
X0341257Y0138963D03*
X0341257Y0143963D03*
D21*
X0226375Y0177722D03*
X0218501Y0181463D03*
X0226375Y0185203D03*
D22*
X0181808Y0162083D03*
X0103068Y0162083D03*
X0181808Y0103028D03*
X0181808Y0083343D03*
X0103068Y0083343D03*
D23*
X0157438Y0046453D03*
D24*
X0163339Y0036882D03*
X0151536Y0036882D03*
D25*
X0208383Y0050311D03*
X0217438Y0050311D03*
X0226493Y0050311D03*
X0226493Y0097811D03*
X0217438Y0097811D03*
X0208383Y0097811D03*
X0208383Y0142811D03*
X0217438Y0142811D03*
X0226493Y0142811D03*
D26*
X0217438Y0122614D03*
X0217438Y0167614D03*
X0217438Y0075114D03*
D27*
X0123343Y0045213D03*
X0111532Y0045213D03*
D28*
X0269938Y0049307D03*
X0269938Y0061118D03*
D29*
X0247438Y0060724D03*
X0247438Y0069701D03*
X0247438Y0080724D03*
X0247438Y0097201D03*
X0247438Y0108224D03*
X0247438Y0117201D03*
X0247438Y0128224D03*
X0247438Y0142201D03*
X0247438Y0153224D03*
X0247438Y0162201D03*
X0247438Y0173224D03*
X0247438Y0049701D03*
X0182438Y0048224D03*
X0182438Y0037201D03*
X0132438Y0033451D03*
X0132438Y0044474D03*
D30*
X0068776Y0143963D02*
X0061099Y0143963D01*
X0061099Y0163963D02*
X0068776Y0163963D01*
D31*
X0046188Y0124513D02*
X0036188Y0124513D01*
X0036188Y0035913D02*
X0046188Y0035913D01*
D32*
X0294938Y0087713D03*
X0294938Y0093963D03*
X0349938Y0123963D03*
M02*
