G75*
%MOIN*%
%OFA0B0*%
%FSLAX25Y25*%
%IPPOS*%
%LPD*%
%AMOC8*
5,1,8,0,0,1.08239X$1,22.5*
%
%ADD10C,0.00394*%
%ADD11C,0.06496*%
%ADD12C,0.07677*%
%ADD13C,0.23622*%
%ADD14C,0.00800*%
%ADD15C,0.04362*%
%ADD16C,0.01600*%
%ADD17R,0.05906X0.05906*%
D10*
X0032280Y0024681D02*
X0213383Y0024681D01*
X0213668Y0024684D01*
X0213954Y0024695D01*
X0214239Y0024712D01*
X0214523Y0024736D01*
X0214807Y0024767D01*
X0215090Y0024805D01*
X0215371Y0024850D01*
X0215652Y0024901D01*
X0215932Y0024959D01*
X0216210Y0025024D01*
X0216486Y0025096D01*
X0216760Y0025174D01*
X0217033Y0025259D01*
X0217303Y0025351D01*
X0217571Y0025449D01*
X0217837Y0025553D01*
X0218100Y0025664D01*
X0218360Y0025781D01*
X0218618Y0025904D01*
X0218872Y0026034D01*
X0219123Y0026170D01*
X0219371Y0026311D01*
X0219615Y0026459D01*
X0219856Y0026612D01*
X0220092Y0026772D01*
X0220325Y0026937D01*
X0220554Y0027107D01*
X0220779Y0027283D01*
X0220999Y0027465D01*
X0221215Y0027651D01*
X0221426Y0027843D01*
X0221633Y0028040D01*
X0221835Y0028242D01*
X0222032Y0028449D01*
X0222224Y0028660D01*
X0222410Y0028876D01*
X0222592Y0029096D01*
X0222768Y0029321D01*
X0222938Y0029550D01*
X0223103Y0029783D01*
X0223263Y0030019D01*
X0223416Y0030260D01*
X0223564Y0030504D01*
X0223705Y0030752D01*
X0223841Y0031003D01*
X0223971Y0031257D01*
X0224094Y0031515D01*
X0224211Y0031775D01*
X0224322Y0032038D01*
X0224426Y0032304D01*
X0224524Y0032572D01*
X0224616Y0032842D01*
X0224701Y0033115D01*
X0224779Y0033389D01*
X0224851Y0033665D01*
X0224916Y0033943D01*
X0224974Y0034223D01*
X0225025Y0034504D01*
X0225070Y0034785D01*
X0225108Y0035068D01*
X0225139Y0035352D01*
X0225163Y0035636D01*
X0225180Y0035921D01*
X0225191Y0036207D01*
X0225194Y0036492D01*
X0225194Y0142791D01*
X0225191Y0143076D01*
X0225180Y0143362D01*
X0225163Y0143647D01*
X0225139Y0143931D01*
X0225108Y0144215D01*
X0225070Y0144498D01*
X0225025Y0144779D01*
X0224974Y0145060D01*
X0224916Y0145340D01*
X0224851Y0145618D01*
X0224779Y0145894D01*
X0224701Y0146168D01*
X0224616Y0146441D01*
X0224524Y0146711D01*
X0224426Y0146979D01*
X0224322Y0147245D01*
X0224211Y0147508D01*
X0224094Y0147768D01*
X0223971Y0148026D01*
X0223841Y0148280D01*
X0223705Y0148531D01*
X0223564Y0148779D01*
X0223416Y0149023D01*
X0223263Y0149264D01*
X0223103Y0149500D01*
X0222938Y0149733D01*
X0222768Y0149962D01*
X0222592Y0150187D01*
X0222410Y0150407D01*
X0222224Y0150623D01*
X0222032Y0150834D01*
X0221835Y0151041D01*
X0221633Y0151243D01*
X0221426Y0151440D01*
X0221215Y0151632D01*
X0220999Y0151818D01*
X0220779Y0152000D01*
X0220554Y0152176D01*
X0220325Y0152346D01*
X0220092Y0152511D01*
X0219856Y0152671D01*
X0219615Y0152824D01*
X0219371Y0152972D01*
X0219123Y0153113D01*
X0218872Y0153249D01*
X0218618Y0153379D01*
X0218360Y0153502D01*
X0218100Y0153619D01*
X0217837Y0153730D01*
X0217571Y0153834D01*
X0217303Y0153932D01*
X0217033Y0154024D01*
X0216760Y0154109D01*
X0216486Y0154187D01*
X0216210Y0154259D01*
X0215932Y0154324D01*
X0215652Y0154382D01*
X0215371Y0154433D01*
X0215090Y0154478D01*
X0214807Y0154516D01*
X0214523Y0154547D01*
X0214239Y0154571D01*
X0213954Y0154588D01*
X0213668Y0154599D01*
X0213383Y0154602D01*
X0032280Y0154602D01*
X0031995Y0154599D01*
X0031709Y0154588D01*
X0031424Y0154571D01*
X0031140Y0154547D01*
X0030856Y0154516D01*
X0030573Y0154478D01*
X0030292Y0154433D01*
X0030011Y0154382D01*
X0029731Y0154324D01*
X0029453Y0154259D01*
X0029177Y0154187D01*
X0028903Y0154109D01*
X0028630Y0154024D01*
X0028360Y0153932D01*
X0028092Y0153834D01*
X0027826Y0153730D01*
X0027563Y0153619D01*
X0027303Y0153502D01*
X0027045Y0153379D01*
X0026791Y0153249D01*
X0026540Y0153113D01*
X0026292Y0152972D01*
X0026048Y0152824D01*
X0025807Y0152671D01*
X0025571Y0152511D01*
X0025338Y0152346D01*
X0025109Y0152176D01*
X0024884Y0152000D01*
X0024664Y0151818D01*
X0024448Y0151632D01*
X0024237Y0151440D01*
X0024030Y0151243D01*
X0023828Y0151041D01*
X0023631Y0150834D01*
X0023439Y0150623D01*
X0023253Y0150407D01*
X0023071Y0150187D01*
X0022895Y0149962D01*
X0022725Y0149733D01*
X0022560Y0149500D01*
X0022400Y0149264D01*
X0022247Y0149023D01*
X0022099Y0148779D01*
X0021958Y0148531D01*
X0021822Y0148280D01*
X0021692Y0148026D01*
X0021569Y0147768D01*
X0021452Y0147508D01*
X0021341Y0147245D01*
X0021237Y0146979D01*
X0021139Y0146711D01*
X0021047Y0146441D01*
X0020962Y0146168D01*
X0020884Y0145894D01*
X0020812Y0145618D01*
X0020747Y0145340D01*
X0020689Y0145060D01*
X0020638Y0144779D01*
X0020593Y0144498D01*
X0020555Y0144215D01*
X0020524Y0143931D01*
X0020500Y0143647D01*
X0020483Y0143362D01*
X0020472Y0143076D01*
X0020469Y0142791D01*
X0020469Y0036492D01*
X0020472Y0036207D01*
X0020483Y0035921D01*
X0020500Y0035636D01*
X0020524Y0035352D01*
X0020555Y0035068D01*
X0020593Y0034785D01*
X0020638Y0034504D01*
X0020689Y0034223D01*
X0020747Y0033943D01*
X0020812Y0033665D01*
X0020884Y0033389D01*
X0020962Y0033115D01*
X0021047Y0032842D01*
X0021139Y0032572D01*
X0021237Y0032304D01*
X0021341Y0032038D01*
X0021452Y0031775D01*
X0021569Y0031515D01*
X0021692Y0031257D01*
X0021822Y0031003D01*
X0021958Y0030752D01*
X0022099Y0030504D01*
X0022247Y0030260D01*
X0022400Y0030019D01*
X0022560Y0029783D01*
X0022725Y0029550D01*
X0022895Y0029321D01*
X0023071Y0029096D01*
X0023253Y0028876D01*
X0023439Y0028660D01*
X0023631Y0028449D01*
X0023828Y0028242D01*
X0024030Y0028040D01*
X0024237Y0027843D01*
X0024448Y0027651D01*
X0024664Y0027465D01*
X0024884Y0027283D01*
X0025109Y0027107D01*
X0025338Y0026937D01*
X0025571Y0026772D01*
X0025807Y0026612D01*
X0026048Y0026459D01*
X0026292Y0026311D01*
X0026540Y0026170D01*
X0026791Y0026034D01*
X0027045Y0025904D01*
X0027303Y0025781D01*
X0027563Y0025664D01*
X0027826Y0025553D01*
X0028092Y0025449D01*
X0028360Y0025351D01*
X0028630Y0025259D01*
X0028903Y0025174D01*
X0029177Y0025096D01*
X0029453Y0025024D01*
X0029731Y0024959D01*
X0030011Y0024901D01*
X0030292Y0024850D01*
X0030573Y0024805D01*
X0030856Y0024767D01*
X0031140Y0024736D01*
X0031424Y0024712D01*
X0031709Y0024695D01*
X0031995Y0024684D01*
X0032280Y0024681D01*
D11*
X0100361Y0120823D03*
X0100361Y0129681D03*
X0100361Y0138539D03*
X0118077Y0138539D03*
X0118077Y0120823D03*
X0161611Y0120823D03*
X0161611Y0129681D03*
X0161611Y0138539D03*
X0179327Y0138539D03*
X0179327Y0120823D03*
D12*
X0170469Y0114917D03*
X0170469Y0144445D03*
X0109219Y0144445D03*
X0109219Y0114917D03*
D13*
X0034249Y0140823D03*
X0034249Y0038461D03*
X0211414Y0038461D03*
X0211414Y0140823D03*
D14*
X0223273Y0144358D02*
X0222305Y0147338D01*
X0220464Y0149872D01*
X0217929Y0151714D01*
X0214949Y0152682D01*
X0213383Y0152806D01*
X0032280Y0152806D01*
X0030714Y0152682D01*
X0027734Y0151714D01*
X0025199Y0149872D01*
X0023357Y0147338D01*
X0022389Y0144358D01*
X0022266Y0142791D01*
X0022266Y0036492D01*
X0022389Y0034926D01*
X0023357Y0031946D01*
X0025199Y0029411D01*
X0027734Y0027569D01*
X0030714Y0026601D01*
X0032280Y0026478D01*
X0213383Y0026478D01*
X0214949Y0026601D01*
X0217929Y0027569D01*
X0220464Y0029411D01*
X0222305Y0031946D01*
X0223273Y0034926D01*
X0223397Y0036492D01*
X0223397Y0142791D01*
X0223273Y0144358D01*
X0223241Y0144458D02*
X0175908Y0144458D01*
X0175908Y0145256D02*
X0222981Y0145256D01*
X0222722Y0146055D02*
X0175689Y0146055D01*
X0175908Y0145527D02*
X0175080Y0147526D01*
X0173550Y0149055D01*
X0171551Y0149883D01*
X0169387Y0149883D01*
X0167388Y0149055D01*
X0165859Y0147526D01*
X0165031Y0145527D01*
X0165031Y0143363D01*
X0165859Y0141364D01*
X0167388Y0139834D01*
X0169387Y0139006D01*
X0171551Y0139006D01*
X0173550Y0139834D01*
X0175080Y0141364D01*
X0175908Y0143363D01*
X0175908Y0145527D01*
X0175358Y0146853D02*
X0222463Y0146853D01*
X0222077Y0147652D02*
X0174953Y0147652D01*
X0174155Y0148450D02*
X0221497Y0148450D01*
X0220917Y0149249D02*
X0173083Y0149249D01*
X0167855Y0149249D02*
X0111833Y0149249D01*
X0112300Y0149055D02*
X0110301Y0149883D01*
X0108137Y0149883D01*
X0106138Y0149055D01*
X0104609Y0147526D01*
X0103781Y0145527D01*
X0103781Y0143363D01*
X0104609Y0141364D01*
X0106138Y0139834D01*
X0108137Y0139006D01*
X0110301Y0139006D01*
X0112300Y0139834D01*
X0113830Y0141364D01*
X0114658Y0143363D01*
X0114658Y0145527D01*
X0113830Y0147526D01*
X0112300Y0149055D01*
X0112905Y0148450D02*
X0166783Y0148450D01*
X0165985Y0147652D02*
X0113703Y0147652D01*
X0114108Y0146853D02*
X0165580Y0146853D01*
X0165249Y0146055D02*
X0114439Y0146055D01*
X0114658Y0145256D02*
X0165031Y0145256D01*
X0165031Y0144458D02*
X0114658Y0144458D01*
X0114658Y0143659D02*
X0165031Y0143659D01*
X0165239Y0142861D02*
X0120313Y0142861D01*
X0120824Y0142649D02*
X0119042Y0143387D01*
X0117113Y0143387D01*
X0115331Y0142649D01*
X0113967Y0141286D01*
X0113229Y0139504D01*
X0113229Y0137575D01*
X0113967Y0135793D01*
X0115331Y0134429D01*
X0117113Y0133691D01*
X0119042Y0133691D01*
X0120824Y0134429D01*
X0122187Y0135793D01*
X0122925Y0137575D01*
X0122925Y0139504D01*
X0122187Y0141286D01*
X0120824Y0142649D01*
X0121411Y0142062D02*
X0165569Y0142062D01*
X0165959Y0141264D02*
X0122196Y0141264D01*
X0122527Y0140465D02*
X0166757Y0140465D01*
X0167793Y0139667D02*
X0122858Y0139667D01*
X0122925Y0138868D02*
X0174479Y0138868D01*
X0174479Y0139504D02*
X0174479Y0137575D01*
X0175217Y0135793D01*
X0176581Y0134429D01*
X0178363Y0133691D01*
X0180292Y0133691D01*
X0182074Y0134429D01*
X0183437Y0135793D01*
X0184175Y0137575D01*
X0184175Y0139504D01*
X0183437Y0141286D01*
X0182074Y0142649D01*
X0180292Y0143387D01*
X0178363Y0143387D01*
X0176581Y0142649D01*
X0175217Y0141286D01*
X0174479Y0139504D01*
X0174547Y0139667D02*
X0173145Y0139667D01*
X0174181Y0140465D02*
X0174878Y0140465D01*
X0174979Y0141264D02*
X0175208Y0141264D01*
X0175369Y0142062D02*
X0175994Y0142062D01*
X0175700Y0142861D02*
X0177092Y0142861D01*
X0175908Y0143659D02*
X0223328Y0143659D01*
X0223391Y0142861D02*
X0181563Y0142861D01*
X0182661Y0142062D02*
X0223397Y0142062D01*
X0223397Y0141264D02*
X0183446Y0141264D01*
X0183777Y0140465D02*
X0223397Y0140465D01*
X0223397Y0139667D02*
X0184108Y0139667D01*
X0184175Y0138868D02*
X0223397Y0138868D01*
X0223397Y0138070D02*
X0184175Y0138070D01*
X0184050Y0137271D02*
X0223397Y0137271D01*
X0223397Y0136473D02*
X0183719Y0136473D01*
X0183318Y0135674D02*
X0223397Y0135674D01*
X0223397Y0134876D02*
X0182520Y0134876D01*
X0181223Y0134077D02*
X0223397Y0134077D01*
X0223397Y0133279D02*
X0164869Y0133279D01*
X0164357Y0133791D02*
X0162575Y0134529D01*
X0160647Y0134529D01*
X0158865Y0133791D01*
X0157501Y0132427D01*
X0156763Y0130645D01*
X0156763Y0128717D01*
X0157501Y0126935D01*
X0158865Y0125571D01*
X0159635Y0125252D01*
X0158865Y0124933D01*
X0157501Y0123569D01*
X0156763Y0121787D01*
X0156763Y0119858D01*
X0157501Y0118077D01*
X0158865Y0116713D01*
X0160647Y0115975D01*
X0162575Y0115975D01*
X0164357Y0116713D01*
X0165721Y0118077D01*
X0166459Y0119858D01*
X0166459Y0121787D01*
X0165721Y0123569D01*
X0164357Y0124933D01*
X0163587Y0125252D01*
X0164357Y0125571D01*
X0165721Y0126935D01*
X0166459Y0128717D01*
X0166459Y0130645D01*
X0165721Y0132427D01*
X0164357Y0133791D01*
X0163666Y0134077D02*
X0177432Y0134077D01*
X0176135Y0134876D02*
X0121270Y0134876D01*
X0122068Y0135674D02*
X0175336Y0135674D01*
X0174936Y0136473D02*
X0122469Y0136473D01*
X0122800Y0137271D02*
X0174605Y0137271D01*
X0174479Y0138070D02*
X0122925Y0138070D01*
X0119973Y0134077D02*
X0159555Y0134077D01*
X0158352Y0133279D02*
X0103619Y0133279D01*
X0103107Y0133791D02*
X0101325Y0134529D01*
X0099397Y0134529D01*
X0097615Y0133791D01*
X0096251Y0132427D01*
X0095513Y0130645D01*
X0095513Y0128717D01*
X0096251Y0126935D01*
X0097615Y0125571D01*
X0098385Y0125252D01*
X0097615Y0124933D01*
X0096251Y0123569D01*
X0095513Y0121787D01*
X0095513Y0119858D01*
X0096251Y0118077D01*
X0097615Y0116713D01*
X0099397Y0115975D01*
X0101325Y0115975D01*
X0103107Y0116713D01*
X0104471Y0118077D01*
X0105209Y0119858D01*
X0105209Y0121787D01*
X0104471Y0123569D01*
X0103107Y0124933D01*
X0102337Y0125252D01*
X0103107Y0125571D01*
X0104471Y0126935D01*
X0105209Y0128717D01*
X0105209Y0130645D01*
X0104471Y0132427D01*
X0103107Y0133791D01*
X0102416Y0134077D02*
X0116182Y0134077D01*
X0114885Y0134876D02*
X0022266Y0134876D01*
X0022266Y0135674D02*
X0114086Y0135674D01*
X0113686Y0136473D02*
X0022266Y0136473D01*
X0022266Y0137271D02*
X0113355Y0137271D01*
X0113229Y0138070D02*
X0022266Y0138070D01*
X0022266Y0138868D02*
X0113229Y0138868D01*
X0113297Y0139667D02*
X0111895Y0139667D01*
X0112931Y0140465D02*
X0113628Y0140465D01*
X0113729Y0141264D02*
X0113958Y0141264D01*
X0114119Y0142062D02*
X0114744Y0142062D01*
X0114450Y0142861D02*
X0115842Y0142861D01*
X0106543Y0139667D02*
X0022266Y0139667D01*
X0022266Y0140465D02*
X0105507Y0140465D01*
X0104709Y0141264D02*
X0022266Y0141264D01*
X0022266Y0142062D02*
X0104319Y0142062D01*
X0103989Y0142861D02*
X0022271Y0142861D01*
X0022334Y0143659D02*
X0103781Y0143659D01*
X0103781Y0144458D02*
X0022422Y0144458D01*
X0022681Y0145256D02*
X0103781Y0145256D01*
X0103999Y0146055D02*
X0022941Y0146055D01*
X0023200Y0146853D02*
X0104330Y0146853D01*
X0104735Y0147652D02*
X0023586Y0147652D01*
X0024166Y0148450D02*
X0105533Y0148450D01*
X0106605Y0149249D02*
X0024746Y0149249D01*
X0025440Y0150047D02*
X0220223Y0150047D01*
X0219124Y0150846D02*
X0026539Y0150846D01*
X0027638Y0151644D02*
X0218025Y0151644D01*
X0215686Y0152443D02*
X0029977Y0152443D01*
X0022266Y0134077D02*
X0098305Y0134077D01*
X0097102Y0133279D02*
X0022266Y0133279D01*
X0022266Y0132480D02*
X0096304Y0132480D01*
X0095942Y0131682D02*
X0022266Y0131682D01*
X0022266Y0130883D02*
X0095611Y0130883D01*
X0095513Y0130085D02*
X0022266Y0130085D01*
X0022266Y0129286D02*
X0095513Y0129286D01*
X0095608Y0128488D02*
X0022266Y0128488D01*
X0022266Y0127689D02*
X0095939Y0127689D01*
X0096295Y0126891D02*
X0022266Y0126891D01*
X0022266Y0126092D02*
X0097094Y0126092D01*
X0098285Y0125294D02*
X0022266Y0125294D01*
X0022266Y0124495D02*
X0097177Y0124495D01*
X0096378Y0123697D02*
X0022266Y0123697D01*
X0022266Y0122898D02*
X0095973Y0122898D01*
X0095642Y0122099D02*
X0022266Y0122099D01*
X0022266Y0121301D02*
X0095513Y0121301D01*
X0095513Y0120502D02*
X0022266Y0120502D01*
X0022266Y0119704D02*
X0095577Y0119704D01*
X0095908Y0118905D02*
X0022266Y0118905D01*
X0022266Y0118107D02*
X0096238Y0118107D01*
X0097019Y0117308D02*
X0022266Y0117308D01*
X0022266Y0116510D02*
X0098105Y0116510D01*
X0102617Y0116510D02*
X0103992Y0116510D01*
X0103781Y0115999D02*
X0103781Y0113836D01*
X0104609Y0111837D01*
X0106138Y0110307D01*
X0108137Y0109479D01*
X0110301Y0109479D01*
X0112300Y0110307D01*
X0113830Y0111837D01*
X0114658Y0113836D01*
X0114658Y0115999D01*
X0113830Y0117998D01*
X0112300Y0119528D01*
X0110301Y0120356D01*
X0108137Y0120356D01*
X0106138Y0119528D01*
X0104609Y0117998D01*
X0103781Y0115999D01*
X0103781Y0115711D02*
X0022266Y0115711D01*
X0022266Y0114913D02*
X0103781Y0114913D01*
X0103781Y0114114D02*
X0022266Y0114114D01*
X0022266Y0113316D02*
X0103996Y0113316D01*
X0104327Y0112517D02*
X0022266Y0112517D01*
X0022266Y0111719D02*
X0104726Y0111719D01*
X0105525Y0110920D02*
X0022266Y0110920D01*
X0022266Y0110122D02*
X0106585Y0110122D01*
X0111853Y0110122D02*
X0144666Y0110122D01*
X0144666Y0109816D02*
X0145604Y0108878D01*
X0152835Y0108878D01*
X0153772Y0109816D01*
X0153772Y0117047D01*
X0152835Y0117984D01*
X0145604Y0117984D01*
X0144666Y0117047D01*
X0144666Y0109816D01*
X0145159Y0109323D02*
X0022266Y0109323D01*
X0022266Y0108525D02*
X0223397Y0108525D01*
X0223397Y0109323D02*
X0153280Y0109323D01*
X0153772Y0110122D02*
X0167835Y0110122D01*
X0167388Y0110307D02*
X0169387Y0109479D01*
X0171551Y0109479D01*
X0173550Y0110307D01*
X0175080Y0111837D01*
X0175908Y0113836D01*
X0175908Y0115999D01*
X0175080Y0117998D01*
X0173550Y0119528D01*
X0171551Y0120356D01*
X0169387Y0120356D01*
X0167388Y0119528D01*
X0165859Y0117998D01*
X0165031Y0115999D01*
X0165031Y0113836D01*
X0165859Y0111837D01*
X0167388Y0110307D01*
X0166775Y0110920D02*
X0153772Y0110920D01*
X0153772Y0111719D02*
X0165976Y0111719D01*
X0165577Y0112517D02*
X0153772Y0112517D01*
X0153772Y0113316D02*
X0165246Y0113316D01*
X0165031Y0114114D02*
X0153772Y0114114D01*
X0153772Y0114913D02*
X0165031Y0114913D01*
X0165031Y0115711D02*
X0153772Y0115711D01*
X0153772Y0116510D02*
X0159355Y0116510D01*
X0158269Y0117308D02*
X0153510Y0117308D01*
X0157158Y0118905D02*
X0122531Y0118905D01*
X0122200Y0118107D02*
X0157488Y0118107D01*
X0156827Y0119704D02*
X0122861Y0119704D01*
X0122925Y0119858D02*
X0122187Y0118077D01*
X0120824Y0116713D01*
X0119042Y0115975D01*
X0117113Y0115975D01*
X0115331Y0116713D01*
X0113967Y0118077D01*
X0113229Y0119858D01*
X0113229Y0121787D01*
X0113967Y0123569D01*
X0115331Y0124933D01*
X0117113Y0125671D01*
X0119042Y0125671D01*
X0120824Y0124933D01*
X0122187Y0123569D01*
X0122925Y0121787D01*
X0122925Y0119858D01*
X0122925Y0120502D02*
X0156763Y0120502D01*
X0156763Y0121301D02*
X0122925Y0121301D01*
X0122796Y0122099D02*
X0156892Y0122099D01*
X0157223Y0122898D02*
X0122465Y0122898D01*
X0122060Y0123697D02*
X0157628Y0123697D01*
X0158427Y0124495D02*
X0121261Y0124495D01*
X0119953Y0125294D02*
X0159535Y0125294D01*
X0158344Y0126092D02*
X0103628Y0126092D01*
X0104426Y0126891D02*
X0157545Y0126891D01*
X0157189Y0127689D02*
X0104783Y0127689D01*
X0105114Y0128488D02*
X0156858Y0128488D01*
X0156763Y0129286D02*
X0105209Y0129286D01*
X0105209Y0130085D02*
X0156763Y0130085D01*
X0156861Y0130883D02*
X0105110Y0130883D01*
X0104780Y0131682D02*
X0157192Y0131682D01*
X0157554Y0132480D02*
X0104418Y0132480D01*
X0102437Y0125294D02*
X0116202Y0125294D01*
X0114893Y0124495D02*
X0103545Y0124495D01*
X0104343Y0123697D02*
X0114095Y0123697D01*
X0113690Y0122898D02*
X0104749Y0122898D01*
X0105080Y0122099D02*
X0113359Y0122099D01*
X0113229Y0121301D02*
X0105209Y0121301D01*
X0105209Y0120502D02*
X0113229Y0120502D01*
X0113293Y0119704D02*
X0111875Y0119704D01*
X0112922Y0118905D02*
X0113624Y0118905D01*
X0113721Y0118107D02*
X0113955Y0118107D01*
X0114115Y0117308D02*
X0114736Y0117308D01*
X0114446Y0116510D02*
X0115821Y0116510D01*
X0114658Y0115711D02*
X0144666Y0115711D01*
X0144666Y0114913D02*
X0114658Y0114913D01*
X0114658Y0114114D02*
X0144666Y0114114D01*
X0144666Y0113316D02*
X0114442Y0113316D01*
X0114112Y0112517D02*
X0144666Y0112517D01*
X0144666Y0111719D02*
X0113712Y0111719D01*
X0112913Y0110920D02*
X0144666Y0110920D01*
X0144666Y0116510D02*
X0120334Y0116510D01*
X0121419Y0117308D02*
X0144928Y0117308D01*
X0163867Y0116510D02*
X0165242Y0116510D01*
X0164953Y0117308D02*
X0165573Y0117308D01*
X0165733Y0118107D02*
X0165967Y0118107D01*
X0166064Y0118905D02*
X0166766Y0118905D01*
X0166395Y0119704D02*
X0167813Y0119704D01*
X0166459Y0120502D02*
X0174479Y0120502D01*
X0174479Y0119858D02*
X0175217Y0118077D01*
X0176581Y0116713D01*
X0178363Y0115975D01*
X0180292Y0115975D01*
X0182074Y0116713D01*
X0183437Y0118077D01*
X0184175Y0119858D01*
X0184175Y0121787D01*
X0183437Y0123569D01*
X0182074Y0124933D01*
X0180292Y0125671D01*
X0178363Y0125671D01*
X0176581Y0124933D01*
X0175217Y0123569D01*
X0174479Y0121787D01*
X0174479Y0119858D01*
X0174543Y0119704D02*
X0173125Y0119704D01*
X0174172Y0118905D02*
X0174874Y0118905D01*
X0174971Y0118107D02*
X0175205Y0118107D01*
X0175365Y0117308D02*
X0175986Y0117308D01*
X0175696Y0116510D02*
X0177071Y0116510D01*
X0175908Y0115711D02*
X0223397Y0115711D01*
X0223397Y0114913D02*
X0175908Y0114913D01*
X0175908Y0114114D02*
X0223397Y0114114D01*
X0223397Y0113316D02*
X0175692Y0113316D01*
X0175362Y0112517D02*
X0223397Y0112517D01*
X0223397Y0111719D02*
X0174962Y0111719D01*
X0174163Y0110920D02*
X0223397Y0110920D01*
X0223397Y0110122D02*
X0173103Y0110122D01*
X0181584Y0116510D02*
X0223397Y0116510D01*
X0223397Y0117308D02*
X0182669Y0117308D01*
X0183450Y0118107D02*
X0223397Y0118107D01*
X0223397Y0118905D02*
X0183781Y0118905D01*
X0184111Y0119704D02*
X0223397Y0119704D01*
X0223397Y0120502D02*
X0184175Y0120502D01*
X0184175Y0121301D02*
X0223397Y0121301D01*
X0223397Y0122099D02*
X0184046Y0122099D01*
X0183715Y0122898D02*
X0223397Y0122898D01*
X0223397Y0123697D02*
X0183310Y0123697D01*
X0182511Y0124495D02*
X0223397Y0124495D01*
X0223397Y0125294D02*
X0181203Y0125294D01*
X0177452Y0125294D02*
X0163687Y0125294D01*
X0164795Y0124495D02*
X0176143Y0124495D01*
X0175345Y0123697D02*
X0165593Y0123697D01*
X0165999Y0122898D02*
X0174940Y0122898D01*
X0174609Y0122099D02*
X0166330Y0122099D01*
X0166459Y0121301D02*
X0174479Y0121301D01*
X0165676Y0126891D02*
X0223397Y0126891D01*
X0223397Y0127689D02*
X0166033Y0127689D01*
X0166364Y0128488D02*
X0223397Y0128488D01*
X0223397Y0129286D02*
X0166459Y0129286D01*
X0166459Y0130085D02*
X0223397Y0130085D01*
X0223397Y0130883D02*
X0166360Y0130883D01*
X0166030Y0131682D02*
X0223397Y0131682D01*
X0223397Y0132480D02*
X0165668Y0132480D01*
X0164878Y0126092D02*
X0223397Y0126092D01*
X0223397Y0107726D02*
X0022266Y0107726D01*
X0022266Y0106928D02*
X0223397Y0106928D01*
X0223397Y0106129D02*
X0022266Y0106129D01*
X0022266Y0105331D02*
X0223397Y0105331D01*
X0223397Y0104532D02*
X0022266Y0104532D01*
X0022266Y0103734D02*
X0223397Y0103734D01*
X0223397Y0102935D02*
X0022266Y0102935D01*
X0022266Y0102137D02*
X0223397Y0102137D01*
X0223397Y0101338D02*
X0022266Y0101338D01*
X0022266Y0100540D02*
X0057447Y0100540D01*
X0057077Y0100387D02*
X0056014Y0099323D01*
X0055438Y0097933D01*
X0055438Y0096429D01*
X0056014Y0095039D01*
X0057077Y0093976D01*
X0058467Y0093400D01*
X0059606Y0093400D01*
X0061688Y0091318D01*
X0061688Y0090179D01*
X0062264Y0088789D01*
X0063327Y0087726D01*
X0064717Y0087150D01*
X0066221Y0087150D01*
X0067611Y0087726D01*
X0068675Y0088789D01*
X0069250Y0090179D01*
X0069250Y0091683D01*
X0068675Y0093073D01*
X0067611Y0094137D01*
X0066221Y0094712D01*
X0065082Y0094712D01*
X0063000Y0096794D01*
X0063000Y0097933D01*
X0062425Y0099323D01*
X0061361Y0100387D01*
X0059971Y0100962D01*
X0058467Y0100962D01*
X0057077Y0100387D01*
X0056432Y0099741D02*
X0022266Y0099741D01*
X0022266Y0098943D02*
X0055856Y0098943D01*
X0055525Y0098144D02*
X0022266Y0098144D01*
X0022266Y0097346D02*
X0055438Y0097346D01*
X0055438Y0096547D02*
X0022266Y0096547D01*
X0022266Y0095749D02*
X0055720Y0095749D01*
X0056103Y0094950D02*
X0022266Y0094950D01*
X0022266Y0094152D02*
X0056901Y0094152D01*
X0059653Y0093353D02*
X0022266Y0093353D01*
X0022266Y0092555D02*
X0060452Y0092555D01*
X0061250Y0091756D02*
X0022266Y0091756D01*
X0022266Y0090958D02*
X0061688Y0090958D01*
X0061696Y0090159D02*
X0022266Y0090159D01*
X0022266Y0089361D02*
X0062027Y0089361D01*
X0062491Y0088562D02*
X0022266Y0088562D01*
X0022266Y0087763D02*
X0063289Y0087763D01*
X0067649Y0087763D02*
X0083069Y0087763D01*
X0083069Y0086965D02*
X0022266Y0086965D01*
X0022266Y0086166D02*
X0083069Y0086166D01*
X0083069Y0085368D02*
X0022266Y0085368D01*
X0022266Y0084569D02*
X0083069Y0084569D01*
X0083069Y0083771D02*
X0022266Y0083771D01*
X0022266Y0082972D02*
X0083069Y0082972D01*
X0083069Y0082628D02*
X0082264Y0081823D01*
X0081688Y0080433D01*
X0081688Y0078929D01*
X0082264Y0077539D01*
X0083327Y0076476D01*
X0084717Y0075900D01*
X0086221Y0075900D01*
X0087611Y0076476D01*
X0088675Y0077539D01*
X0089250Y0078929D01*
X0089250Y0080433D01*
X0088675Y0081823D01*
X0087869Y0082628D01*
X0087869Y0094234D01*
X0088675Y0095039D01*
X0089250Y0096429D01*
X0089250Y0097933D01*
X0088675Y0099323D01*
X0087611Y0100387D01*
X0086221Y0100962D01*
X0084717Y0100962D01*
X0083327Y0100387D01*
X0082264Y0099323D01*
X0081688Y0097933D01*
X0081688Y0096429D01*
X0082264Y0095039D01*
X0083069Y0094234D01*
X0083069Y0082628D01*
X0082615Y0082174D02*
X0022266Y0082174D01*
X0022266Y0081375D02*
X0082078Y0081375D01*
X0081748Y0080577D02*
X0022266Y0080577D01*
X0022266Y0079778D02*
X0081688Y0079778D01*
X0081688Y0078980D02*
X0022266Y0078980D01*
X0022266Y0078181D02*
X0081998Y0078181D01*
X0082420Y0077383D02*
X0022266Y0077383D01*
X0022266Y0076584D02*
X0083219Y0076584D01*
X0087720Y0076584D02*
X0223397Y0076584D01*
X0223397Y0075786D02*
X0022266Y0075786D01*
X0022266Y0074987D02*
X0223397Y0074987D01*
X0223397Y0074189D02*
X0156235Y0074189D01*
X0156361Y0074137D02*
X0154971Y0074712D01*
X0153467Y0074712D01*
X0152077Y0074137D01*
X0151014Y0073073D01*
X0150438Y0071683D01*
X0150438Y0070179D01*
X0151014Y0068789D01*
X0151819Y0067984D01*
X0151819Y0060128D01*
X0151014Y0059323D01*
X0150438Y0057933D01*
X0150438Y0056429D01*
X0151014Y0055039D01*
X0152077Y0053976D01*
X0153467Y0053400D01*
X0154971Y0053400D01*
X0156361Y0053976D01*
X0157425Y0055039D01*
X0158000Y0056429D01*
X0158000Y0057933D01*
X0157425Y0059323D01*
X0156619Y0060128D01*
X0156619Y0067984D01*
X0157425Y0068789D01*
X0158000Y0070179D01*
X0158000Y0071683D01*
X0157425Y0073073D01*
X0156361Y0074137D01*
X0157107Y0073390D02*
X0223397Y0073390D01*
X0223397Y0072592D02*
X0157624Y0072592D01*
X0157955Y0071793D02*
X0223397Y0071793D01*
X0223397Y0070995D02*
X0158000Y0070995D01*
X0158000Y0070196D02*
X0223397Y0070196D01*
X0223397Y0069398D02*
X0157677Y0069398D01*
X0157235Y0068599D02*
X0223397Y0068599D01*
X0223397Y0067801D02*
X0156619Y0067801D01*
X0156619Y0067002D02*
X0223397Y0067002D01*
X0223397Y0066204D02*
X0156619Y0066204D01*
X0156619Y0065405D02*
X0223397Y0065405D01*
X0223397Y0064607D02*
X0156619Y0064607D01*
X0156619Y0063808D02*
X0223397Y0063808D01*
X0223397Y0063010D02*
X0156619Y0063010D01*
X0156619Y0062211D02*
X0223397Y0062211D01*
X0223397Y0061413D02*
X0156619Y0061413D01*
X0156619Y0060614D02*
X0223397Y0060614D01*
X0223397Y0059816D02*
X0156932Y0059816D01*
X0157551Y0059017D02*
X0223397Y0059017D01*
X0223397Y0058219D02*
X0157882Y0058219D01*
X0158000Y0057420D02*
X0223397Y0057420D01*
X0223397Y0056622D02*
X0158000Y0056622D01*
X0157749Y0055823D02*
X0223397Y0055823D01*
X0223397Y0055025D02*
X0157410Y0055025D01*
X0156611Y0054226D02*
X0223397Y0054226D01*
X0223397Y0053428D02*
X0155038Y0053428D01*
X0153401Y0053428D02*
X0129043Y0053428D01*
X0129250Y0053929D02*
X0128675Y0052539D01*
X0127611Y0051476D01*
X0126221Y0050900D01*
X0124717Y0050900D01*
X0123327Y0051476D01*
X0122264Y0052539D01*
X0121688Y0053929D01*
X0121688Y0055433D01*
X0122264Y0056823D01*
X0123069Y0057628D01*
X0123069Y0062984D01*
X0122264Y0063789D01*
X0121688Y0065179D01*
X0121688Y0066683D01*
X0122264Y0068073D01*
X0123327Y0069137D01*
X0124717Y0069712D01*
X0126221Y0069712D01*
X0127611Y0069137D01*
X0128675Y0068073D01*
X0129250Y0066683D01*
X0129250Y0065179D01*
X0128675Y0063789D01*
X0127869Y0062984D01*
X0127869Y0057628D01*
X0128675Y0056823D01*
X0129250Y0055433D01*
X0129250Y0053929D01*
X0129250Y0054226D02*
X0151827Y0054226D01*
X0151028Y0055025D02*
X0129250Y0055025D01*
X0129089Y0055823D02*
X0150689Y0055823D01*
X0150438Y0056622D02*
X0128758Y0056622D01*
X0128077Y0057420D02*
X0150438Y0057420D01*
X0150556Y0058219D02*
X0127869Y0058219D01*
X0127869Y0059017D02*
X0150887Y0059017D01*
X0151506Y0059816D02*
X0127869Y0059816D01*
X0127869Y0060614D02*
X0151819Y0060614D01*
X0151819Y0061413D02*
X0127869Y0061413D01*
X0127869Y0062211D02*
X0151819Y0062211D01*
X0151819Y0063010D02*
X0127895Y0063010D01*
X0128682Y0063808D02*
X0151819Y0063808D01*
X0151819Y0064607D02*
X0129013Y0064607D01*
X0129250Y0065405D02*
X0151819Y0065405D01*
X0151819Y0066204D02*
X0129250Y0066204D01*
X0129118Y0067002D02*
X0151819Y0067002D01*
X0151819Y0067801D02*
X0128787Y0067801D01*
X0128148Y0068599D02*
X0151204Y0068599D01*
X0150762Y0069398D02*
X0126980Y0069398D01*
X0123958Y0069398D02*
X0022266Y0069398D01*
X0022266Y0070196D02*
X0150438Y0070196D01*
X0150438Y0070995D02*
X0022266Y0070995D01*
X0022266Y0071793D02*
X0150484Y0071793D01*
X0150814Y0072592D02*
X0022266Y0072592D01*
X0022266Y0073390D02*
X0151331Y0073390D01*
X0152203Y0074189D02*
X0022266Y0074189D01*
X0022266Y0068599D02*
X0122790Y0068599D01*
X0122151Y0067801D02*
X0022266Y0067801D01*
X0022266Y0067002D02*
X0121820Y0067002D01*
X0121688Y0066204D02*
X0022266Y0066204D01*
X0022266Y0065405D02*
X0121688Y0065405D01*
X0121925Y0064607D02*
X0022266Y0064607D01*
X0022266Y0063808D02*
X0122256Y0063808D01*
X0123043Y0063010D02*
X0022266Y0063010D01*
X0022266Y0062211D02*
X0123069Y0062211D01*
X0123069Y0061413D02*
X0022266Y0061413D01*
X0022266Y0060614D02*
X0123069Y0060614D01*
X0123069Y0059816D02*
X0022266Y0059816D01*
X0022266Y0059017D02*
X0123069Y0059017D01*
X0123069Y0058219D02*
X0022266Y0058219D01*
X0022266Y0057420D02*
X0122861Y0057420D01*
X0122180Y0056622D02*
X0022266Y0056622D01*
X0022266Y0055823D02*
X0121850Y0055823D01*
X0121688Y0055025D02*
X0022266Y0055025D01*
X0022266Y0054226D02*
X0121688Y0054226D01*
X0121896Y0053428D02*
X0022266Y0053428D01*
X0022266Y0052629D02*
X0122227Y0052629D01*
X0122972Y0051830D02*
X0022266Y0051830D01*
X0022266Y0051032D02*
X0124398Y0051032D01*
X0126540Y0051032D02*
X0223397Y0051032D01*
X0223397Y0051830D02*
X0127966Y0051830D01*
X0128712Y0052629D02*
X0223397Y0052629D01*
X0223397Y0050233D02*
X0022266Y0050233D01*
X0022266Y0049435D02*
X0223397Y0049435D01*
X0223397Y0048636D02*
X0022266Y0048636D01*
X0022266Y0047838D02*
X0223397Y0047838D01*
X0223397Y0047039D02*
X0022266Y0047039D01*
X0022266Y0046241D02*
X0223397Y0046241D01*
X0223397Y0045442D02*
X0022266Y0045442D01*
X0022266Y0044644D02*
X0223397Y0044644D01*
X0223397Y0043845D02*
X0022266Y0043845D01*
X0022266Y0043047D02*
X0223397Y0043047D01*
X0223397Y0042248D02*
X0174820Y0042248D01*
X0175022Y0042047D02*
X0174085Y0042984D01*
X0166854Y0042984D01*
X0165916Y0042047D01*
X0165916Y0034816D01*
X0166854Y0033878D01*
X0174085Y0033878D01*
X0175022Y0034816D01*
X0175022Y0042047D01*
X0175022Y0041450D02*
X0223397Y0041450D01*
X0223397Y0040651D02*
X0175022Y0040651D01*
X0175022Y0039853D02*
X0223397Y0039853D01*
X0223397Y0039054D02*
X0175022Y0039054D01*
X0175022Y0038256D02*
X0223397Y0038256D01*
X0223397Y0037457D02*
X0175022Y0037457D01*
X0175022Y0036659D02*
X0223397Y0036659D01*
X0223347Y0035860D02*
X0175022Y0035860D01*
X0175022Y0035062D02*
X0223284Y0035062D01*
X0223058Y0034263D02*
X0174470Y0034263D01*
X0166469Y0034263D02*
X0078220Y0034263D01*
X0077835Y0033878D02*
X0078772Y0034816D01*
X0078772Y0042047D01*
X0077835Y0042984D01*
X0070604Y0042984D01*
X0069666Y0042047D01*
X0069666Y0034816D01*
X0070604Y0033878D01*
X0077835Y0033878D01*
X0078772Y0035062D02*
X0165916Y0035062D01*
X0165916Y0035860D02*
X0078772Y0035860D01*
X0078772Y0036659D02*
X0165916Y0036659D01*
X0165916Y0037457D02*
X0078772Y0037457D01*
X0078772Y0038256D02*
X0165916Y0038256D01*
X0165916Y0039054D02*
X0078772Y0039054D01*
X0078772Y0039853D02*
X0165916Y0039853D01*
X0165916Y0040651D02*
X0078772Y0040651D01*
X0078772Y0041450D02*
X0165916Y0041450D01*
X0166118Y0042248D02*
X0078570Y0042248D01*
X0069868Y0042248D02*
X0022266Y0042248D01*
X0022266Y0041450D02*
X0069666Y0041450D01*
X0069666Y0040651D02*
X0022266Y0040651D01*
X0022266Y0039853D02*
X0069666Y0039853D01*
X0069666Y0039054D02*
X0022266Y0039054D01*
X0022266Y0038256D02*
X0069666Y0038256D01*
X0069666Y0037457D02*
X0022266Y0037457D01*
X0022266Y0036659D02*
X0069666Y0036659D01*
X0069666Y0035860D02*
X0022316Y0035860D01*
X0022379Y0035062D02*
X0069666Y0035062D01*
X0070219Y0034263D02*
X0022604Y0034263D01*
X0022864Y0033465D02*
X0222799Y0033465D01*
X0222539Y0032666D02*
X0023123Y0032666D01*
X0023414Y0031868D02*
X0222249Y0031868D01*
X0221668Y0031069D02*
X0023994Y0031069D01*
X0024575Y0030271D02*
X0221088Y0030271D01*
X0220508Y0029472D02*
X0025155Y0029472D01*
X0026214Y0028674D02*
X0219449Y0028674D01*
X0218350Y0027875D02*
X0027313Y0027875D01*
X0029250Y0027077D02*
X0216412Y0027077D01*
X0223397Y0077383D02*
X0088518Y0077383D01*
X0088941Y0078181D02*
X0223397Y0078181D01*
X0223397Y0078980D02*
X0089250Y0078980D01*
X0089250Y0079778D02*
X0223397Y0079778D01*
X0223397Y0080577D02*
X0089191Y0080577D01*
X0088860Y0081375D02*
X0223397Y0081375D01*
X0223397Y0082174D02*
X0088324Y0082174D01*
X0087869Y0082972D02*
X0223397Y0082972D01*
X0223397Y0083771D02*
X0087869Y0083771D01*
X0087869Y0084569D02*
X0223397Y0084569D01*
X0223397Y0085368D02*
X0087869Y0085368D01*
X0087869Y0086166D02*
X0223397Y0086166D01*
X0223397Y0086965D02*
X0087869Y0086965D01*
X0087869Y0087763D02*
X0223397Y0087763D01*
X0223397Y0088562D02*
X0087869Y0088562D01*
X0087869Y0089361D02*
X0223397Y0089361D01*
X0223397Y0090159D02*
X0087869Y0090159D01*
X0087869Y0090958D02*
X0223397Y0090958D01*
X0223397Y0091756D02*
X0087869Y0091756D01*
X0087869Y0092555D02*
X0223397Y0092555D01*
X0223397Y0093353D02*
X0087869Y0093353D01*
X0087869Y0094152D02*
X0223397Y0094152D01*
X0223397Y0094950D02*
X0088585Y0094950D01*
X0088968Y0095749D02*
X0223397Y0095749D01*
X0223397Y0096547D02*
X0089250Y0096547D01*
X0089250Y0097346D02*
X0223397Y0097346D01*
X0223397Y0098144D02*
X0089163Y0098144D01*
X0088832Y0098943D02*
X0223397Y0098943D01*
X0223397Y0099741D02*
X0088256Y0099741D01*
X0087241Y0100540D02*
X0223397Y0100540D01*
X0106563Y0119704D02*
X0105145Y0119704D01*
X0104814Y0118905D02*
X0105516Y0118905D01*
X0104717Y0118107D02*
X0104483Y0118107D01*
X0104323Y0117308D02*
X0103703Y0117308D01*
X0083697Y0100540D02*
X0060991Y0100540D01*
X0062006Y0099741D02*
X0082682Y0099741D01*
X0082106Y0098943D02*
X0062582Y0098943D01*
X0062913Y0098144D02*
X0081775Y0098144D01*
X0081688Y0097346D02*
X0063000Y0097346D01*
X0063247Y0096547D02*
X0081688Y0096547D01*
X0081970Y0095749D02*
X0064046Y0095749D01*
X0064844Y0094950D02*
X0082353Y0094950D01*
X0083069Y0094152D02*
X0067575Y0094152D01*
X0068394Y0093353D02*
X0083069Y0093353D01*
X0083069Y0092555D02*
X0068889Y0092555D01*
X0069220Y0091756D02*
X0083069Y0091756D01*
X0083069Y0090958D02*
X0069250Y0090958D01*
X0069242Y0090159D02*
X0083069Y0090159D01*
X0083069Y0089361D02*
X0068911Y0089361D01*
X0068447Y0088562D02*
X0083069Y0088562D01*
D15*
X0085469Y0097181D03*
X0065469Y0090931D03*
X0059219Y0097181D03*
X0049219Y0095931D03*
X0042969Y0095931D03*
X0042969Y0102181D03*
X0042969Y0108431D03*
X0042969Y0114681D03*
X0075469Y0113431D03*
X0081719Y0113431D03*
X0081719Y0119681D03*
X0075469Y0119681D03*
X0090469Y0132181D03*
X0090469Y0138431D03*
X0090469Y0144681D03*
X0115469Y0112181D03*
X0121719Y0112181D03*
X0121719Y0105931D03*
X0115469Y0105931D03*
X0131719Y0085931D03*
X0137969Y0085931D03*
X0137969Y0080931D03*
X0137969Y0075931D03*
X0137969Y0070931D03*
X0125469Y0065931D03*
X0125469Y0054681D03*
X0126719Y0038431D03*
X0132969Y0038431D03*
X0129219Y0030931D03*
X0121719Y0030931D03*
X0114219Y0030931D03*
X0106719Y0030931D03*
X0099219Y0030931D03*
X0091719Y0030931D03*
X0111719Y0038431D03*
X0117969Y0038431D03*
X0136719Y0030931D03*
X0144219Y0030931D03*
X0151719Y0030931D03*
X0154219Y0057181D03*
X0154219Y0070931D03*
X0181719Y0074681D03*
X0191719Y0072181D03*
X0199219Y0072181D03*
X0200469Y0089681D03*
X0195469Y0089681D03*
X0190469Y0089681D03*
X0184219Y0095931D03*
X0172969Y0095931D03*
X0166719Y0095931D03*
X0166719Y0103431D03*
X0172969Y0103431D03*
X0210469Y0107181D03*
X0216719Y0107181D03*
X0216719Y0113431D03*
X0210469Y0113431D03*
X0210469Y0119681D03*
X0216719Y0119681D03*
X0151719Y0132181D03*
X0151719Y0138431D03*
X0151719Y0144681D03*
X0085469Y0079681D03*
X0081719Y0072181D03*
X0075469Y0069681D03*
X0081719Y0065931D03*
X0075469Y0064681D03*
X0075469Y0074681D03*
D16*
X0085469Y0079681D02*
X0085469Y0097181D01*
X0065469Y0090931D02*
X0059219Y0097181D01*
X0125469Y0065931D02*
X0125469Y0054681D01*
X0154219Y0057181D02*
X0154219Y0070931D01*
D17*
X0170469Y0038431D03*
X0074219Y0038431D03*
X0149219Y0113431D03*
M02*
