%
M48
M72
T01C0.0236
T02C0.0394
T03C0.0512
T04C0.0520
T05C0.0906
T06C0.1299
%
T01
X10500Y500
X11000Y500
X11500Y500
X12375Y750
X12875Y750
X13375Y750
X14750Y3125
X15250Y3125
X15750Y3125
X16250Y3125
X18125Y2000
X18625Y2000
X19125Y2000
X22000Y1000
X23750Y2000
X24750Y2000
X26500Y2375
X27000Y2000
X26625Y3375
X26625Y4000
X28250Y4250
X28875Y4250
X29250Y3750
X30500Y3750
X31125Y3625
X31375Y2750
X32125Y2875
X30750Y2750
X33125Y3750
X33750Y3750
X34375Y3750
X31125Y7125
X31125Y7625
X30625Y7875
X29250Y7875
X28750Y8625
X27625Y8625
X26375Y7875
X25125Y7875
X25125Y7375
X25125Y8375
X23250Y8375
X23250Y9000
X23250Y9625
X21750Y8750
X21250Y8750
X19125Y6750
X18625Y6750
X18125Y6750
X16000Y9000
X18125Y11500
X18625Y11500
X19125Y11500
X21250Y13500
X21750Y13500
X23250Y13750
X23250Y13125
X23250Y14375
X20750Y16000
X19375Y16750
X15125Y13875
X26125Y11375
X26125Y10750
X26125Y10125
X33375Y8000
X33750Y8375
X36375Y8125
X37250Y8125
X36375Y10375
X31500Y14125
X30500Y14125
X29500Y14125
X28500Y14375
X27500Y14375
X30250Y15750
X29875Y16000
X32625Y16125
X32625Y16625
X23125Y4875
X23125Y4250
X23125Y3625
X21750Y4000
X21250Y4000
T02
X15937Y6063
X15937Y8031
X8063Y6063
X22750Y1000
X23750Y1000
X24750Y1000
X25750Y1000
X26750Y1000
X36433Y8760
X37220Y8760
X37220Y9744
X36433Y9744
X32500Y13250
X31500Y13250
X30500Y13250
X29500Y13250
X28500Y13250
X27500Y13250
X27283Y17520
X28283Y17520
X29283Y17520
X30283Y17520
X31283Y17520
X32283Y17520
X26283Y17520
X25283Y17520
X24283Y17520
X23283Y17520
X22283Y17520
X21283Y17520
X20283Y17520
X19283Y17520
X18283Y17520
X17283Y17520
X15937Y13937
X8063Y13937
T03
X2000Y13000
X2000Y15000
T04
X1875Y2070
X1875Y10930
T05
X38287Y11622
X38287Y6882
T06
X34449Y5315
X34449Y17520
X4921Y17520
X4921Y5315
M30
