%
M48
M72
T01C0.0236
T02C0.0315
T03C0.0433
T04C0.0512
T05C0.1260
%
T01
X4750Y1375
X7125Y625
X7875Y625
X8625Y625
X9375Y625
X10125Y625
X10875Y625
X11625Y625
X12375Y625
X13125Y625
X11250Y1375
X10625Y1375
X9750Y1375
X9125Y1375
X10500Y3000
X10500Y4125
X11750Y4625
X11750Y5125
X11750Y5625
X11750Y6125
X11125Y6125
X13375Y4625
X13375Y3250
X15625Y1375
X17125Y4750
X17875Y4750
X16125Y5000
X17000Y6500
X17500Y6500
X18000Y6500
X16375Y7125
X15250Y7125
X14625Y7125
X14625Y7875
X15250Y7875
X13500Y8750
X13250Y9625
X13125Y10750
X13125Y11375
X13125Y12000
X10125Y8750
X9500Y8750
X9500Y8125
X10125Y8125
X7125Y9625
X6125Y9500
X5500Y9500
X5500Y8875
X6125Y8875
X6500Y7250
X4500Y6625
X3875Y7250
X2875Y7125
X2250Y7125
X2250Y7750
X2250Y8375
X2250Y9000
X7000Y10750
X7000Y11375
X7000Y12000
X6500Y5500
X6125Y4750
X5500Y4500
X6125Y4125
X5500Y4000
X5500Y5000
X19000Y8250
X19625Y8250
X19625Y8875
X19000Y8875
X19000Y9500
X19625Y9500
T02
X12875Y8875
X15000Y1375
X5375Y1375
T03
X7989Y9614
X7989Y10500
X7989Y11386
X9761Y11386
X9761Y9614
X14114Y9614
X14114Y10500
X14114Y11386
X15886Y11386
X15886Y9614
T04
X15000Y9024
X15000Y11976
X8875Y11976
X8875Y9024
T05
X1378Y1378
X1378Y11614
X19094Y11614
X19094Y1378
M30
