G75*
%MOIN*%
%OFA0B0*%
%FSLAX25Y25*%
%IPPOS*%
%LPD*%
%AMOC8*
5,1,8,0,0,1.08239X$1,22.5*
%
%ADD10C,0.06337*%
%ADD11C,0.13055*%
%ADD12R,0.05118X0.04331*%
%ADD13R,0.04331X0.05118*%
%ADD14C,0.06337*%
%ADD15R,0.09449X0.07480*%
%ADD16R,0.04331X0.02362*%
%ADD17C,0.16992*%
%ADD18R,0.06693X0.02559*%
%ADD19R,0.03937X0.03150*%
%ADD20C,0.09843*%
%ADD21R,0.07874X0.09646*%
%ADD22R,0.03150X0.05512*%
%ADD23R,0.03150X0.07480*%
%ADD24R,0.05906X0.07874*%
%ADD25R,0.14961X0.07874*%
%ADD26R,0.06299X0.16535*%
%ADD27R,0.16535X0.06299*%
%ADD28R,0.07087X0.06299*%
%ADD29C,0.07677*%
%ADD30C,0.10000*%
%ADD31C,0.01600*%
%ADD32C,0.02400*%
%ADD33C,0.00394*%
%ADD34C,0.04362*%
%ADD35C,0.04000*%
%ADD36C,0.01200*%
D10*
X0364331Y0087598D03*
X0372205Y0087598D03*
X0372205Y0097441D03*
X0364331Y0097441D03*
X0322835Y0175197D03*
X0312835Y0175197D03*
X0302835Y0175197D03*
X0292835Y0175197D03*
X0282835Y0175197D03*
X0272835Y0175197D03*
X0262835Y0175197D03*
X0252835Y0175197D03*
X0242835Y0175197D03*
X0232835Y0175197D03*
X0222835Y0175197D03*
X0212835Y0175197D03*
X0202835Y0175197D03*
X0192835Y0175197D03*
X0182835Y0175197D03*
X0172835Y0175197D03*
D11*
X0382874Y0116220D03*
X0382874Y0068819D03*
D12*
X0327500Y0075600D03*
X0327500Y0081900D03*
X0333750Y0108100D03*
X0333750Y0114400D03*
X0267500Y0103150D03*
X0267500Y0096850D03*
X0256250Y0089400D03*
X0256250Y0083100D03*
X0256250Y0074400D03*
X0256250Y0068100D03*
X0215000Y0074350D03*
X0215000Y0080650D03*
X0215000Y0094350D03*
X0215000Y0100650D03*
X0215000Y0121850D03*
X0215000Y0128150D03*
X0215000Y0141850D03*
X0215000Y0148150D03*
X0248750Y0149350D03*
X0258750Y0149350D03*
X0258750Y0155650D03*
X0248750Y0155650D03*
X0268750Y0155650D03*
X0268750Y0149350D03*
X0263750Y0141900D03*
X0263750Y0135600D03*
X0253750Y0135600D03*
X0253750Y0141900D03*
X0215000Y0053150D03*
X0215000Y0046850D03*
X0215000Y0033150D03*
X0215000Y0026850D03*
X0272500Y0028100D03*
X0272500Y0034400D03*
X0301250Y0041850D03*
X0308750Y0041850D03*
X0308750Y0048150D03*
X0301250Y0048150D03*
X0343750Y0031900D03*
X0343750Y0025600D03*
X0150000Y0020650D03*
X0150000Y0014350D03*
X0120000Y0014350D03*
X0120000Y0020650D03*
D13*
X0259350Y0052500D03*
X0265650Y0052500D03*
X0280600Y0048750D03*
X0286900Y0048750D03*
X0265650Y0060000D03*
X0259350Y0060000D03*
X0276850Y0151250D03*
X0283150Y0151250D03*
X0298100Y0165000D03*
X0304400Y0165000D03*
X0313100Y0165000D03*
X0319400Y0165000D03*
X0319360Y0156762D03*
X0313061Y0156762D03*
X0186900Y0165000D03*
X0180600Y0165000D03*
D14*
X0275000Y0135669D02*
X0275000Y0129331D01*
X0285000Y0129331D02*
X0285000Y0135669D01*
X0295000Y0135669D02*
X0295000Y0129331D01*
X0305000Y0129331D02*
X0305000Y0135669D01*
X0315000Y0135669D02*
X0315000Y0129331D01*
X0325000Y0129331D02*
X0325000Y0135669D01*
X0267500Y0013169D02*
X0267500Y0006831D01*
X0257500Y0006831D02*
X0257500Y0013169D01*
X0247500Y0013169D02*
X0247500Y0006831D01*
X0237500Y0006831D02*
X0237500Y0013169D01*
X0227500Y0013169D02*
X0227500Y0006831D01*
D15*
X0267500Y0070679D03*
X0267500Y0086821D03*
D16*
X0325738Y0032490D03*
X0325738Y0028750D03*
X0325738Y0025010D03*
X0336762Y0025010D03*
X0336762Y0032490D03*
X0290512Y0029990D03*
X0290512Y0026250D03*
X0290512Y0022510D03*
X0279488Y0022510D03*
X0279488Y0026250D03*
X0279488Y0029990D03*
D17*
X0344488Y0053150D03*
X0344488Y0175197D03*
X0049213Y0175197D03*
X0049213Y0053150D03*
D18*
X0281181Y0056250D03*
X0281181Y0061250D03*
X0281181Y0066250D03*
X0281181Y0071250D03*
X0281181Y0076250D03*
X0281181Y0081250D03*
X0281181Y0086250D03*
X0281181Y0091250D03*
X0281181Y0096250D03*
X0281181Y0101250D03*
X0281181Y0106250D03*
X0281181Y0111250D03*
X0281181Y0116250D03*
X0281181Y0121250D03*
X0318819Y0121250D03*
X0318819Y0116250D03*
X0318819Y0111250D03*
X0318819Y0106250D03*
X0318819Y0101250D03*
X0318819Y0096250D03*
X0318819Y0091250D03*
X0318819Y0086250D03*
X0318819Y0081250D03*
X0318819Y0076250D03*
X0318819Y0071250D03*
X0318819Y0066250D03*
X0318819Y0061250D03*
X0318819Y0056250D03*
D19*
X0201437Y0155010D03*
X0193563Y0158750D03*
X0201437Y0162490D03*
D20*
X0159370Y0139370D03*
X0080630Y0139370D03*
X0159370Y0080315D03*
X0159370Y0060630D03*
X0080630Y0060630D03*
D21*
X0135000Y0023740D03*
D22*
X0129098Y0014169D03*
X0140902Y0014169D03*
D23*
X0135000Y0015169D03*
D24*
X0185945Y0027598D03*
X0195000Y0027598D03*
X0204055Y0027598D03*
X0204055Y0075098D03*
X0195000Y0075098D03*
X0185945Y0075098D03*
X0185945Y0122598D03*
X0195000Y0122598D03*
X0204055Y0122598D03*
D25*
X0195000Y0099902D03*
X0195000Y0147402D03*
X0195000Y0052402D03*
D26*
X0100906Y0022500D03*
X0089094Y0022500D03*
D27*
X0247500Y0026594D03*
X0247500Y0038406D03*
D28*
X0225000Y0038012D03*
X0225000Y0046988D03*
X0225000Y0058012D03*
X0225000Y0074488D03*
X0225000Y0085512D03*
X0225000Y0094488D03*
X0225000Y0105512D03*
X0225000Y0121988D03*
X0225000Y0133012D03*
X0225000Y0141988D03*
X0225000Y0153012D03*
X0225000Y0026988D03*
X0160000Y0023012D03*
X0160000Y0011988D03*
X0110000Y0011988D03*
X0110000Y0023012D03*
D29*
X0023839Y0130000D02*
X0016161Y0130000D01*
X0016161Y0150000D02*
X0023839Y0150000D01*
D30*
X0023750Y0109300D02*
X0013750Y0109300D01*
X0013750Y0020700D02*
X0023750Y0020700D01*
D31*
X0225000Y0105512D02*
X0234488Y0105512D01*
X0240000Y0100000D01*
X0240000Y0060000D01*
X0255000Y0045000D01*
X0260000Y0045000D01*
X0260000Y0033750D01*
X0265650Y0028100D01*
X0272500Y0028100D01*
X0280000Y0037500D02*
X0272500Y0045000D01*
X0276250Y0048750D01*
X0280600Y0048750D01*
X0272500Y0045000D02*
X0260000Y0045000D01*
X0280000Y0037500D02*
X0292500Y0037500D01*
X0301250Y0041850D02*
X0305000Y0041850D01*
X0305000Y0037500D01*
X0305000Y0041850D02*
X0308750Y0041850D01*
X0307500Y0027500D02*
X0313750Y0021250D01*
X0335000Y0021250D01*
X0336762Y0023012D01*
X0336762Y0025010D01*
X0343159Y0025010D01*
X0343750Y0025600D01*
X0287500Y0057500D02*
X0286250Y0056250D01*
X0281181Y0056250D01*
X0287500Y0057500D02*
X0287500Y0073750D01*
X0292500Y0078750D01*
X0292500Y0093750D01*
X0287500Y0098750D01*
X0287500Y0123750D01*
X0285000Y0126250D01*
X0285000Y0132500D01*
X0363750Y0103750D02*
X0363750Y0098022D01*
X0364331Y0097441D01*
X0364331Y0087598D02*
X0363750Y0087018D01*
X0363750Y0081250D01*
X0372500Y0081250D02*
X0372500Y0087303D01*
X0372205Y0087598D01*
X0318819Y0081250D02*
X0308750Y0081250D01*
X0306250Y0078750D01*
X0281181Y0076250D02*
X0273071Y0076250D01*
X0267500Y0070679D01*
X0266929Y0071250D01*
X0262500Y0071250D01*
X0259350Y0068100D01*
X0256250Y0068100D01*
X0256250Y0074400D02*
X0256250Y0083100D01*
X0262500Y0086250D02*
X0266929Y0086250D01*
X0267500Y0086821D01*
X0273071Y0081250D01*
X0281181Y0081250D01*
X0262500Y0086250D02*
X0259350Y0089400D01*
X0256250Y0089400D01*
X0195000Y0147402D02*
X0194902Y0147500D01*
X0183750Y0147500D01*
X0167500Y0163750D01*
X0167500Y0177500D01*
X0171250Y0181250D01*
X0180669Y0181250D01*
X0182835Y0179085D01*
X0185000Y0181250D01*
X0311250Y0181250D01*
X0312835Y0179665D01*
X0312835Y0175197D01*
X0193563Y0158750D02*
X0190000Y0158750D01*
X0187500Y0161250D01*
X0187500Y0164400D01*
X0186900Y0165000D01*
X0180600Y0165000D02*
X0175000Y0165000D01*
X0172835Y0167165D01*
X0172835Y0175197D01*
X0182835Y0175197D02*
X0182835Y0179085D01*
D32*
X0224488Y0152500D02*
X0225000Y0153012D01*
X0224488Y0152500D02*
X0217500Y0152500D01*
X0215000Y0150000D01*
X0215000Y0148150D01*
X0195748Y0148150D01*
X0195000Y0147402D01*
X0215000Y0141850D02*
X0224862Y0141850D01*
X0225000Y0141988D01*
X0225000Y0133012D01*
X0225000Y0121988D02*
X0215138Y0121988D01*
X0215000Y0121850D01*
X0204803Y0121850D01*
X0204055Y0122598D01*
X0204055Y0114055D01*
X0200000Y0110000D01*
X0180000Y0110000D01*
X0160000Y0090000D01*
X0160000Y0080945D01*
X0159370Y0080315D01*
X0177185Y0062500D01*
X0200000Y0062500D01*
X0204055Y0066555D01*
X0204055Y0075098D01*
X0204803Y0074350D01*
X0215000Y0074350D01*
X0215138Y0074488D01*
X0225000Y0074488D01*
X0233012Y0074488D01*
X0236250Y0071250D01*
X0236250Y0058750D01*
X0247500Y0047500D01*
X0247500Y0038406D01*
X0238750Y0032500D02*
X0236250Y0035000D01*
X0236250Y0053750D01*
X0231988Y0058012D01*
X0225000Y0058012D01*
X0224488Y0057500D01*
X0217500Y0057500D01*
X0215000Y0055000D01*
X0215000Y0053150D01*
X0195748Y0053150D01*
X0195000Y0052402D01*
X0215000Y0046850D02*
X0224862Y0046850D01*
X0224862Y0038150D01*
X0225000Y0038012D01*
X0224488Y0037500D01*
X0217500Y0037500D01*
X0215000Y0035000D01*
X0215000Y0033150D01*
X0215138Y0026988D02*
X0225000Y0026988D01*
X0225394Y0026594D01*
X0247500Y0026594D01*
X0256250Y0032500D02*
X0258750Y0030000D01*
X0258750Y0022500D01*
X0256250Y0020000D01*
X0247500Y0020000D01*
X0247500Y0010000D01*
X0227500Y0010000D02*
X0220000Y0010000D01*
X0161988Y0010000D01*
X0160000Y0011988D01*
X0157638Y0014350D01*
X0150000Y0014350D01*
X0149819Y0014169D01*
X0140902Y0014169D01*
X0135000Y0015169D02*
X0135000Y0020000D01*
X0133130Y0021870D01*
X0135000Y0023740D01*
X0133130Y0021870D02*
X0131909Y0020650D01*
X0120000Y0020650D01*
X0112362Y0020650D01*
X0110000Y0023012D01*
X0109488Y0022500D01*
X0100906Y0022500D01*
X0089094Y0022500D02*
X0089094Y0034094D01*
X0095000Y0040000D01*
X0095000Y0127500D01*
X0106250Y0138750D01*
X0151250Y0138750D01*
X0158750Y0138750D01*
X0159370Y0139370D01*
X0215000Y0102500D02*
X0217500Y0105000D01*
X0224488Y0105000D01*
X0225000Y0105512D01*
X0215000Y0102500D02*
X0215000Y0100650D01*
X0195748Y0100650D01*
X0195000Y0099902D01*
X0215000Y0094350D02*
X0224862Y0094350D01*
X0225000Y0094488D01*
X0225000Y0085512D01*
X0224488Y0085000D01*
X0217500Y0085000D01*
X0215000Y0082500D01*
X0215000Y0080650D01*
X0267500Y0096250D02*
X0267500Y0096850D01*
X0267500Y0096250D02*
X0281181Y0096250D01*
X0318819Y0081250D02*
X0326850Y0081250D01*
X0327500Y0081900D01*
X0281181Y0056250D02*
X0280600Y0055669D01*
X0280600Y0048750D01*
X0256250Y0032500D02*
X0238750Y0032500D01*
X0215138Y0026988D02*
X0215000Y0026850D01*
X0204803Y0026850D01*
X0204750Y0026852D01*
X0204697Y0026858D01*
X0204644Y0026867D01*
X0204592Y0026880D01*
X0204542Y0026897D01*
X0204492Y0026918D01*
X0204445Y0026941D01*
X0204399Y0026969D01*
X0204355Y0026999D01*
X0204313Y0027033D01*
X0204274Y0027069D01*
X0204238Y0027108D01*
X0204204Y0027150D01*
X0204174Y0027194D01*
X0204146Y0027240D01*
X0204123Y0027287D01*
X0204102Y0027337D01*
X0204085Y0027387D01*
X0204072Y0027439D01*
X0204063Y0027492D01*
X0204057Y0027545D01*
X0204055Y0027598D01*
X0224862Y0046850D02*
X0225000Y0046988D01*
X0272500Y0028100D02*
X0273100Y0027500D01*
X0275000Y0027500D01*
X0276250Y0026250D01*
X0279488Y0026250D01*
X0160000Y0023012D02*
X0157638Y0020650D01*
X0150000Y0020650D01*
X0129098Y0014169D02*
X0128917Y0014350D01*
X0120000Y0014350D01*
X0112362Y0014350D01*
X0110000Y0011988D01*
X0018750Y0020700D02*
X0018750Y0066250D01*
X0032500Y0080000D01*
X0061260Y0080000D01*
X0080630Y0060630D01*
X0020000Y0109300D02*
X0018750Y0109300D01*
X0020000Y0109300D02*
X0020000Y0130000D01*
X0020000Y0150000D02*
X0070000Y0150000D01*
X0080630Y0139370D01*
X0312835Y0165266D02*
X0313100Y0165000D01*
X0312835Y0165266D02*
X0312835Y0175197D01*
D33*
X0226382Y0002353D02*
X0008262Y0002353D01*
X0007172Y0002707D02*
X0004586Y0004586D01*
X0002707Y0007172D01*
X0001719Y0010213D01*
X0001594Y0011811D01*
X0001594Y0173228D01*
X0001719Y0174827D01*
X0002707Y0177867D01*
X0004586Y0180453D01*
X0007172Y0182332D01*
X0010213Y0183320D01*
X0011811Y0183446D01*
X0170339Y0183446D01*
X0169053Y0182160D01*
X0166590Y0179697D01*
X0165303Y0178410D01*
X0165303Y0162840D01*
X0181553Y0146590D01*
X0182840Y0145303D01*
X0186123Y0145303D01*
X0186123Y0142886D01*
X0186941Y0142068D01*
X0191603Y0142068D01*
X0191603Y0127932D01*
X0191469Y0127932D01*
X0190650Y0127114D01*
X0190650Y0118083D01*
X0191469Y0117265D01*
X0198531Y0117265D01*
X0199350Y0118083D01*
X0199350Y0127114D01*
X0198531Y0127932D01*
X0198397Y0127932D01*
X0198397Y0142068D01*
X0203059Y0142068D01*
X0203877Y0142886D01*
X0203877Y0145553D01*
X0211044Y0145553D01*
X0211044Y0145406D01*
X0211862Y0144587D01*
X0218138Y0144587D01*
X0218956Y0145406D01*
X0218956Y0149903D01*
X0220060Y0149903D01*
X0220060Y0149284D01*
X0220878Y0148465D01*
X0229122Y0148465D01*
X0229940Y0149284D01*
X0229940Y0156740D01*
X0229927Y0156753D01*
X0230423Y0156753D01*
X0236753Y0150423D01*
X0236753Y0106354D01*
X0235398Y0107709D01*
X0229940Y0107709D01*
X0229940Y0109240D01*
X0229122Y0110058D01*
X0220878Y0110058D01*
X0220060Y0109240D01*
X0220060Y0107597D01*
X0216983Y0107597D01*
X0216029Y0107201D01*
X0213039Y0104212D01*
X0211862Y0104212D01*
X0211044Y0103394D01*
X0211044Y0103246D01*
X0203877Y0103246D01*
X0203877Y0104417D01*
X0203059Y0105235D01*
X0186941Y0105235D01*
X0186123Y0104417D01*
X0186123Y0095386D01*
X0186941Y0094568D01*
X0191603Y0094568D01*
X0191603Y0080432D01*
X0191469Y0080432D01*
X0190650Y0079614D01*
X0190650Y0070583D01*
X0191469Y0069765D01*
X0198531Y0069765D01*
X0199350Y0070583D01*
X0199350Y0079614D01*
X0198531Y0080432D01*
X0198397Y0080432D01*
X0198397Y0094568D01*
X0203059Y0094568D01*
X0203877Y0095386D01*
X0203877Y0098053D01*
X0211044Y0098053D01*
X0211044Y0097906D01*
X0211862Y0097087D01*
X0218138Y0097087D01*
X0218956Y0097906D01*
X0218956Y0102403D01*
X0220060Y0102403D01*
X0220060Y0101784D01*
X0220878Y0100965D01*
X0229122Y0100965D01*
X0229940Y0101784D01*
X0229940Y0103315D01*
X0233578Y0103315D01*
X0237803Y0099090D01*
X0237803Y0073369D01*
X0237721Y0073451D01*
X0234483Y0076690D01*
X0233528Y0077085D01*
X0229940Y0077085D01*
X0229940Y0078216D01*
X0229122Y0079035D01*
X0220878Y0079035D01*
X0220060Y0078216D01*
X0220060Y0077085D01*
X0218956Y0077085D01*
X0218956Y0077094D01*
X0218138Y0077913D01*
X0211862Y0077913D01*
X0211044Y0077094D01*
X0211044Y0076947D01*
X0208405Y0076947D01*
X0208405Y0079614D01*
X0207586Y0080432D01*
X0200524Y0080432D01*
X0199706Y0079614D01*
X0199706Y0070583D01*
X0200524Y0069765D01*
X0201458Y0069765D01*
X0201458Y0067631D01*
X0198924Y0065097D01*
X0178261Y0065097D01*
X0165281Y0078076D01*
X0165688Y0079058D01*
X0165688Y0081572D01*
X0164726Y0083894D01*
X0162949Y0085671D01*
X0162597Y0085817D01*
X0162597Y0087537D01*
X0163033Y0087973D01*
X0163578Y0089288D01*
X0163578Y0089905D01*
X0181076Y0107403D01*
X0200517Y0107403D01*
X0201471Y0107798D01*
X0206257Y0112584D01*
X0206652Y0113539D01*
X0206652Y0117265D01*
X0207586Y0117265D01*
X0208405Y0118083D01*
X0208405Y0119254D01*
X0211044Y0119254D01*
X0211044Y0119106D01*
X0211862Y0118288D01*
X0218138Y0118288D01*
X0218956Y0119106D01*
X0218956Y0119391D01*
X0220060Y0119391D01*
X0220060Y0118260D01*
X0220878Y0117442D01*
X0229122Y0117442D01*
X0229940Y0118260D01*
X0229940Y0125716D01*
X0229122Y0126535D01*
X0220878Y0126535D01*
X0220060Y0125716D01*
X0220060Y0124585D01*
X0218956Y0124585D01*
X0218956Y0124594D01*
X0218138Y0125413D01*
X0211862Y0125413D01*
X0211044Y0124594D01*
X0211044Y0124447D01*
X0208405Y0124447D01*
X0208405Y0127114D01*
X0207586Y0127932D01*
X0200524Y0127932D01*
X0199706Y0127114D01*
X0199706Y0118083D01*
X0200524Y0117265D01*
X0201458Y0117265D01*
X0201458Y0115131D01*
X0198924Y0112597D01*
X0179483Y0112597D01*
X0178529Y0112201D01*
X0177798Y0111471D01*
X0159905Y0093578D01*
X0159288Y0093578D01*
X0157973Y0093033D01*
X0156967Y0092027D01*
X0156422Y0090712D01*
X0156422Y0089288D01*
X0156967Y0087973D01*
X0157403Y0087537D01*
X0157403Y0086339D01*
X0155791Y0085671D01*
X0154014Y0083894D01*
X0153052Y0081572D01*
X0153052Y0079058D01*
X0154014Y0076736D01*
X0155791Y0074959D01*
X0158113Y0073997D01*
X0160627Y0073997D01*
X0161609Y0074404D01*
X0175714Y0060298D01*
X0176668Y0059903D01*
X0200517Y0059903D01*
X0201471Y0060298D01*
X0202201Y0061029D01*
X0206257Y0065084D01*
X0206652Y0066039D01*
X0206652Y0069765D01*
X0207586Y0069765D01*
X0208405Y0070583D01*
X0208405Y0071754D01*
X0211044Y0071754D01*
X0211044Y0071606D01*
X0211862Y0070788D01*
X0218138Y0070788D01*
X0218956Y0071606D01*
X0218956Y0071891D01*
X0220060Y0071891D01*
X0220060Y0070760D01*
X0220878Y0069942D01*
X0229122Y0069942D01*
X0229940Y0070760D01*
X0229940Y0071891D01*
X0231936Y0071891D01*
X0233653Y0070174D01*
X0233653Y0060019D01*
X0233459Y0060213D01*
X0232505Y0060609D01*
X0229940Y0060609D01*
X0229940Y0061740D01*
X0229122Y0062558D01*
X0220878Y0062558D01*
X0220060Y0061740D01*
X0220060Y0060097D01*
X0216983Y0060097D01*
X0216029Y0059701D01*
X0215298Y0058971D01*
X0213039Y0056712D01*
X0211862Y0056712D01*
X0211044Y0055894D01*
X0211044Y0055746D01*
X0203877Y0055746D01*
X0203877Y0056917D01*
X0203059Y0057735D01*
X0186941Y0057735D01*
X0186123Y0056917D01*
X0186123Y0047886D01*
X0186941Y0047068D01*
X0191603Y0047068D01*
X0191603Y0032932D01*
X0191469Y0032932D01*
X0190650Y0032114D01*
X0190650Y0023083D01*
X0191469Y0022265D01*
X0198531Y0022265D01*
X0199350Y0023083D01*
X0199350Y0032114D01*
X0198531Y0032932D01*
X0198397Y0032932D01*
X0198397Y0047068D01*
X0203059Y0047068D01*
X0203877Y0047886D01*
X0203877Y0050553D01*
X0211044Y0050553D01*
X0211044Y0050406D01*
X0211862Y0049587D01*
X0218138Y0049587D01*
X0218956Y0050406D01*
X0218956Y0054903D01*
X0220060Y0054903D01*
X0220060Y0054284D01*
X0220878Y0053465D01*
X0229122Y0053465D01*
X0229940Y0054284D01*
X0229940Y0055415D01*
X0230913Y0055415D01*
X0233653Y0052674D01*
X0233653Y0034483D01*
X0234048Y0033529D01*
X0234779Y0032798D01*
X0237279Y0030298D01*
X0237835Y0030068D01*
X0237835Y0029191D01*
X0229940Y0029191D01*
X0229940Y0030716D01*
X0229122Y0031535D01*
X0220878Y0031535D01*
X0220060Y0030716D01*
X0220060Y0029585D01*
X0218956Y0029585D01*
X0218956Y0029594D01*
X0218138Y0030413D01*
X0211862Y0030413D01*
X0211044Y0029594D01*
X0211044Y0029447D01*
X0208405Y0029447D01*
X0208405Y0032114D01*
X0207586Y0032932D01*
X0200524Y0032932D01*
X0199706Y0032114D01*
X0199706Y0023083D01*
X0200524Y0022265D01*
X0207586Y0022265D01*
X0208405Y0023083D01*
X0208405Y0024254D01*
X0211044Y0024254D01*
X0211044Y0024106D01*
X0211862Y0023288D01*
X0218138Y0023288D01*
X0218956Y0024106D01*
X0218956Y0024391D01*
X0220060Y0024391D01*
X0220060Y0023260D01*
X0220878Y0022442D01*
X0229122Y0022442D01*
X0229940Y0023260D01*
X0229940Y0023998D01*
X0237835Y0023998D01*
X0237835Y0022866D01*
X0238654Y0022048D01*
X0244488Y0022048D01*
X0244467Y0022027D01*
X0243922Y0020712D01*
X0243922Y0019288D01*
X0244467Y0017973D01*
X0244903Y0017537D01*
X0244903Y0017028D01*
X0243630Y0015755D01*
X0242935Y0014077D01*
X0242935Y0005923D01*
X0243630Y0004245D01*
X0244914Y0002961D01*
X0246592Y0002266D01*
X0248408Y0002266D01*
X0250086Y0002961D01*
X0251370Y0004245D01*
X0252065Y0005923D01*
X0252065Y0014077D01*
X0251370Y0015755D01*
X0250097Y0017028D01*
X0250097Y0017403D01*
X0255794Y0017403D01*
X0254914Y0017039D01*
X0253630Y0015755D01*
X0252935Y0014077D01*
X0252935Y0005923D01*
X0253630Y0004245D01*
X0254914Y0002961D01*
X0256592Y0002266D01*
X0258408Y0002266D01*
X0260086Y0002961D01*
X0261370Y0004245D01*
X0262065Y0005923D01*
X0262065Y0014077D01*
X0261370Y0015755D01*
X0260599Y0016525D01*
X0264258Y0020184D01*
X0264288Y0020172D01*
X0265712Y0020172D01*
X0266422Y0020466D01*
X0266422Y0019288D01*
X0266434Y0019258D01*
X0265503Y0018327D01*
X0265503Y0017283D01*
X0264914Y0017039D01*
X0263630Y0015755D01*
X0262935Y0014077D01*
X0262935Y0005923D01*
X0263630Y0004245D01*
X0264914Y0002961D01*
X0266592Y0002266D01*
X0268408Y0002266D01*
X0270086Y0002961D01*
X0271370Y0004245D01*
X0272065Y0005923D01*
X0272065Y0014077D01*
X0271370Y0015755D01*
X0270703Y0016422D01*
X0270712Y0016422D01*
X0272027Y0016967D01*
X0273033Y0017973D01*
X0273046Y0018003D01*
X0274173Y0018003D01*
X0275423Y0016753D01*
X0283327Y0016753D01*
X0284497Y0017923D01*
X0287087Y0020513D01*
X0287187Y0020513D01*
X0287768Y0019932D01*
X0293256Y0019932D01*
X0294074Y0020750D01*
X0294074Y0024270D01*
X0293256Y0025088D01*
X0287768Y0025088D01*
X0287187Y0024507D01*
X0285433Y0024507D01*
X0283050Y0022124D01*
X0283050Y0024270D01*
X0282940Y0024380D01*
X0283050Y0024490D01*
X0283050Y0028010D01*
X0282940Y0028120D01*
X0283050Y0028230D01*
X0283050Y0031750D01*
X0283047Y0031753D01*
X0286953Y0031753D01*
X0286950Y0031750D01*
X0286950Y0028230D01*
X0287768Y0027412D01*
X0293256Y0027412D01*
X0293847Y0028003D01*
X0295827Y0028003D01*
X0296997Y0029173D01*
X0297077Y0029253D01*
X0304353Y0029253D01*
X0303922Y0028212D01*
X0303922Y0026788D01*
X0304467Y0025473D01*
X0305473Y0024467D01*
X0306788Y0023922D01*
X0307971Y0023922D01*
X0312840Y0019053D01*
X0335910Y0019053D01*
X0337197Y0020340D01*
X0338959Y0022102D01*
X0338959Y0022432D01*
X0339506Y0022432D01*
X0339862Y0022788D01*
X0340612Y0022038D01*
X0346888Y0022038D01*
X0347706Y0022856D01*
X0347706Y0028344D01*
X0346888Y0029163D01*
X0340612Y0029163D01*
X0339794Y0028344D01*
X0339794Y0027299D01*
X0339506Y0027588D01*
X0334018Y0027588D01*
X0333200Y0026770D01*
X0333200Y0023447D01*
X0329300Y0023447D01*
X0329300Y0026770D01*
X0328482Y0027588D01*
X0322994Y0027588D01*
X0322413Y0027007D01*
X0317328Y0027007D01*
X0317328Y0028212D01*
X0316783Y0029527D01*
X0315817Y0030493D01*
X0322413Y0030493D01*
X0322994Y0029912D01*
X0328482Y0029912D01*
X0329300Y0030730D01*
X0329300Y0034250D01*
X0328482Y0035068D01*
X0322994Y0035068D01*
X0322413Y0034487D01*
X0317087Y0034487D01*
X0316997Y0034577D01*
X0316997Y0045827D01*
X0312706Y0050118D01*
X0312706Y0050894D01*
X0311888Y0051712D01*
X0310747Y0051712D01*
X0310747Y0052077D01*
X0309577Y0053247D01*
X0308247Y0054577D01*
X0308247Y0065827D01*
X0307077Y0066997D01*
X0304497Y0069577D01*
X0304497Y0075603D01*
X0305538Y0075172D01*
X0306962Y0075172D01*
X0308277Y0075717D01*
X0309283Y0076723D01*
X0309828Y0078038D01*
X0309828Y0079053D01*
X0314414Y0079053D01*
X0314894Y0078574D01*
X0322744Y0078574D01*
X0322823Y0078653D01*
X0324047Y0078653D01*
X0324362Y0078337D01*
X0330638Y0078337D01*
X0331456Y0079156D01*
X0331456Y0084253D01*
X0333327Y0084253D01*
X0344253Y0095179D01*
X0344253Y0087077D01*
X0330423Y0073247D01*
X0323423Y0073247D01*
X0322744Y0073926D01*
X0314894Y0073926D01*
X0314076Y0073108D01*
X0314076Y0069392D01*
X0314717Y0068750D01*
X0314076Y0068108D01*
X0314076Y0064392D01*
X0314717Y0063750D01*
X0314076Y0063108D01*
X0314076Y0059392D01*
X0314717Y0058750D01*
X0314076Y0058108D01*
X0314076Y0054392D01*
X0314894Y0053574D01*
X0322744Y0053574D01*
X0323423Y0054253D01*
X0328327Y0054253D01*
X0359577Y0085503D01*
X0360257Y0085503D01*
X0360460Y0085012D01*
X0361456Y0084016D01*
X0360717Y0083277D01*
X0360172Y0081962D01*
X0360172Y0080538D01*
X0360717Y0079223D01*
X0361723Y0078217D01*
X0363038Y0077672D01*
X0364462Y0077672D01*
X0365777Y0078217D01*
X0366783Y0079223D01*
X0367328Y0080538D01*
X0367328Y0081962D01*
X0366783Y0083277D01*
X0366503Y0083557D01*
X0366917Y0083728D01*
X0368201Y0085012D01*
X0368268Y0085173D01*
X0368334Y0085012D01*
X0369619Y0083728D01*
X0369830Y0083640D01*
X0369467Y0083277D01*
X0368922Y0081962D01*
X0368922Y0080538D01*
X0369467Y0079223D01*
X0370473Y0078217D01*
X0371788Y0077672D01*
X0373212Y0077672D01*
X0374527Y0078217D01*
X0375533Y0079223D01*
X0376078Y0080538D01*
X0376078Y0081962D01*
X0375533Y0083277D01*
X0374936Y0083874D01*
X0376075Y0085012D01*
X0376770Y0086690D01*
X0376770Y0088507D01*
X0376075Y0090184D01*
X0374791Y0091469D01*
X0373113Y0092164D01*
X0371297Y0092164D01*
X0370847Y0091977D01*
X0369497Y0093327D01*
X0368327Y0094497D01*
X0367843Y0094497D01*
X0368201Y0094855D01*
X0368896Y0096533D01*
X0368896Y0098349D01*
X0368201Y0100027D01*
X0366917Y0101311D01*
X0366531Y0101471D01*
X0366783Y0101723D01*
X0367328Y0103038D01*
X0367328Y0104462D01*
X0366783Y0105777D01*
X0365777Y0106783D01*
X0364462Y0107328D01*
X0363038Y0107328D01*
X0361723Y0106783D01*
X0360717Y0105777D01*
X0360172Y0104462D01*
X0360172Y0103038D01*
X0360717Y0101723D01*
X0361437Y0101003D01*
X0360460Y0100027D01*
X0360112Y0099186D01*
X0359253Y0098327D01*
X0348247Y0087321D01*
X0348247Y0143327D01*
X0333985Y0157589D01*
X0332815Y0158759D01*
X0322922Y0158759D01*
X0322922Y0159899D01*
X0322104Y0160718D01*
X0316616Y0160718D01*
X0316211Y0160312D01*
X0315805Y0160718D01*
X0310317Y0160718D01*
X0309499Y0159899D01*
X0309499Y0159575D01*
X0307587Y0161487D01*
X0307962Y0161862D01*
X0307962Y0168138D01*
X0307144Y0168956D01*
X0304831Y0168956D01*
X0304831Y0171082D01*
X0305421Y0171327D01*
X0306705Y0172611D01*
X0307400Y0174289D01*
X0307400Y0176105D01*
X0306705Y0177783D01*
X0305435Y0179053D01*
X0310235Y0179053D01*
X0308964Y0177783D01*
X0308269Y0176105D01*
X0308269Y0174289D01*
X0308964Y0172611D01*
X0310238Y0171337D01*
X0310238Y0168837D01*
X0309538Y0168138D01*
X0309538Y0161862D01*
X0310356Y0161044D01*
X0315844Y0161044D01*
X0316663Y0161862D01*
X0316663Y0168138D01*
X0315844Y0168956D01*
X0315431Y0168956D01*
X0315431Y0171337D01*
X0316705Y0172611D01*
X0317400Y0174289D01*
X0317400Y0176105D01*
X0316705Y0177783D01*
X0315421Y0179067D01*
X0315031Y0179228D01*
X0315031Y0180575D01*
X0312161Y0183446D01*
X0381890Y0183446D01*
X0383488Y0183320D01*
X0386528Y0182332D01*
X0389114Y0180453D01*
X0390993Y0177867D01*
X0391981Y0174827D01*
X0392107Y0173228D01*
X0392107Y0011811D01*
X0391981Y0010213D01*
X0390993Y0007172D01*
X0389114Y0004586D01*
X0386528Y0002707D01*
X0383488Y0001719D01*
X0381890Y0001594D01*
X0011811Y0001594D01*
X0010213Y0001719D01*
X0007172Y0002707D01*
X0007120Y0002745D02*
X0225435Y0002745D01*
X0224914Y0002961D02*
X0226592Y0002266D01*
X0228408Y0002266D01*
X0230086Y0002961D01*
X0231370Y0004245D01*
X0232065Y0005923D01*
X0232065Y0014077D01*
X0231370Y0015755D01*
X0230086Y0017039D01*
X0228408Y0017734D01*
X0226592Y0017734D01*
X0224914Y0017039D01*
X0223630Y0015755D01*
X0222935Y0014077D01*
X0222935Y0012597D01*
X0222463Y0012597D01*
X0222027Y0013033D01*
X0220712Y0013578D01*
X0219288Y0013578D01*
X0217973Y0013033D01*
X0217537Y0012597D01*
X0164940Y0012597D01*
X0164940Y0015716D01*
X0164122Y0016535D01*
X0159126Y0016535D01*
X0159109Y0016552D01*
X0158154Y0016947D01*
X0153956Y0016947D01*
X0153956Y0017094D01*
X0153138Y0017913D01*
X0146862Y0017913D01*
X0146044Y0017094D01*
X0146044Y0016766D01*
X0143873Y0016766D01*
X0143873Y0017504D01*
X0143055Y0018322D01*
X0140317Y0018322D01*
X0140334Y0018339D01*
X0140334Y0029142D01*
X0139516Y0029960D01*
X0130484Y0029960D01*
X0129666Y0029142D01*
X0129666Y0023246D01*
X0123956Y0023246D01*
X0123956Y0023394D01*
X0123138Y0024212D01*
X0116862Y0024212D01*
X0116044Y0023394D01*
X0116044Y0023246D01*
X0114940Y0023246D01*
X0114940Y0026740D01*
X0114122Y0027558D01*
X0105878Y0027558D01*
X0105452Y0027132D01*
X0105452Y0031346D01*
X0104634Y0032165D01*
X0097177Y0032165D01*
X0096359Y0031346D01*
X0096359Y0013654D01*
X0097177Y0012835D01*
X0104634Y0012835D01*
X0105452Y0013654D01*
X0105452Y0018891D01*
X0105878Y0018465D01*
X0110874Y0018465D01*
X0110891Y0018448D01*
X0111846Y0018053D01*
X0116044Y0018053D01*
X0116044Y0017906D01*
X0116862Y0017087D01*
X0123138Y0017087D01*
X0123956Y0017906D01*
X0123956Y0018053D01*
X0129952Y0018053D01*
X0130484Y0017520D01*
X0132028Y0017520D01*
X0132028Y0010851D01*
X0132847Y0010032D01*
X0137153Y0010032D01*
X0137943Y0010822D01*
X0138748Y0010017D01*
X0143055Y0010017D01*
X0143873Y0010835D01*
X0143873Y0011572D01*
X0146078Y0011572D01*
X0146862Y0010788D01*
X0153138Y0010788D01*
X0153956Y0011606D01*
X0153956Y0011754D01*
X0155060Y0011754D01*
X0155060Y0008260D01*
X0155878Y0007442D01*
X0161378Y0007442D01*
X0161472Y0007403D01*
X0217537Y0007403D01*
X0217973Y0006967D01*
X0219288Y0006422D01*
X0220712Y0006422D01*
X0222027Y0006967D01*
X0222463Y0007403D01*
X0222935Y0007403D01*
X0222935Y0005923D01*
X0223630Y0004245D01*
X0224914Y0002961D01*
X0224737Y0003138D02*
X0006580Y0003138D01*
X0006040Y0003530D02*
X0224345Y0003530D01*
X0223953Y0003922D02*
X0005500Y0003922D01*
X0004961Y0004314D02*
X0223601Y0004314D01*
X0223439Y0004707D02*
X0004499Y0004707D01*
X0004214Y0005099D02*
X0223276Y0005099D01*
X0223114Y0005491D02*
X0003929Y0005491D01*
X0003644Y0005883D02*
X0222951Y0005883D01*
X0222935Y0006275D02*
X0003359Y0006275D01*
X0003074Y0006668D02*
X0218695Y0006668D01*
X0217880Y0007060D02*
X0002789Y0007060D01*
X0002616Y0007452D02*
X0155868Y0007452D01*
X0155476Y0007844D02*
X0002489Y0007844D01*
X0002362Y0008236D02*
X0155083Y0008236D01*
X0155060Y0008629D02*
X0002234Y0008629D01*
X0002107Y0009021D02*
X0155060Y0009021D01*
X0155060Y0009413D02*
X0001979Y0009413D01*
X0001852Y0009805D02*
X0155060Y0009805D01*
X0155060Y0010198D02*
X0143236Y0010198D01*
X0143628Y0010590D02*
X0155060Y0010590D01*
X0155060Y0010982D02*
X0153331Y0010982D01*
X0153724Y0011374D02*
X0155060Y0011374D01*
X0158353Y0016865D02*
X0224740Y0016865D01*
X0224348Y0016473D02*
X0164184Y0016473D01*
X0164576Y0016081D02*
X0223956Y0016081D01*
X0223602Y0015688D02*
X0164940Y0015688D01*
X0164940Y0015296D02*
X0223440Y0015296D01*
X0223277Y0014904D02*
X0164940Y0014904D01*
X0164940Y0014512D02*
X0223115Y0014512D01*
X0222952Y0014120D02*
X0164940Y0014120D01*
X0164940Y0013727D02*
X0222935Y0013727D01*
X0222935Y0013335D02*
X0221298Y0013335D01*
X0222117Y0012943D02*
X0222935Y0012943D01*
X0218702Y0013335D02*
X0164940Y0013335D01*
X0164940Y0012943D02*
X0217883Y0012943D01*
X0225441Y0017257D02*
X0153793Y0017257D01*
X0153401Y0017650D02*
X0226388Y0017650D01*
X0228612Y0017650D02*
X0244790Y0017650D01*
X0244903Y0017257D02*
X0229559Y0017257D01*
X0230260Y0016865D02*
X0244740Y0016865D01*
X0244348Y0016473D02*
X0230652Y0016473D01*
X0231044Y0016081D02*
X0243956Y0016081D01*
X0243602Y0015688D02*
X0231398Y0015688D01*
X0231560Y0015296D02*
X0243440Y0015296D01*
X0243277Y0014904D02*
X0231723Y0014904D01*
X0231885Y0014512D02*
X0243115Y0014512D01*
X0242952Y0014120D02*
X0232048Y0014120D01*
X0232065Y0013727D02*
X0242935Y0013727D01*
X0242935Y0013335D02*
X0232065Y0013335D01*
X0232065Y0012943D02*
X0242935Y0012943D01*
X0242935Y0012551D02*
X0232065Y0012551D01*
X0232065Y0012159D02*
X0242935Y0012159D01*
X0242935Y0011766D02*
X0232065Y0011766D01*
X0232065Y0011374D02*
X0242935Y0011374D01*
X0242935Y0010982D02*
X0232065Y0010982D01*
X0232065Y0010590D02*
X0242935Y0010590D01*
X0242935Y0010198D02*
X0232065Y0010198D01*
X0232065Y0009805D02*
X0242935Y0009805D01*
X0242935Y0009413D02*
X0232065Y0009413D01*
X0232065Y0009021D02*
X0242935Y0009021D01*
X0242935Y0008629D02*
X0232065Y0008629D01*
X0232065Y0008236D02*
X0242935Y0008236D01*
X0242935Y0007844D02*
X0232065Y0007844D01*
X0232065Y0007452D02*
X0242935Y0007452D01*
X0242935Y0007060D02*
X0232065Y0007060D01*
X0232065Y0006668D02*
X0242935Y0006668D01*
X0242935Y0006275D02*
X0232065Y0006275D01*
X0232049Y0005883D02*
X0242951Y0005883D01*
X0243114Y0005491D02*
X0231886Y0005491D01*
X0231724Y0005099D02*
X0243276Y0005099D01*
X0243439Y0004707D02*
X0231561Y0004707D01*
X0231399Y0004314D02*
X0243601Y0004314D01*
X0243953Y0003922D02*
X0231047Y0003922D01*
X0230655Y0003530D02*
X0244345Y0003530D01*
X0244737Y0003138D02*
X0230263Y0003138D01*
X0229565Y0002745D02*
X0245435Y0002745D01*
X0246382Y0002353D02*
X0228618Y0002353D01*
X0222935Y0006668D02*
X0221305Y0006668D01*
X0222120Y0007060D02*
X0222935Y0007060D01*
X0244438Y0018042D02*
X0143335Y0018042D01*
X0143727Y0017650D02*
X0146599Y0017650D01*
X0146207Y0017257D02*
X0143873Y0017257D01*
X0143873Y0016865D02*
X0146044Y0016865D01*
X0140334Y0018434D02*
X0244276Y0018434D01*
X0244113Y0018826D02*
X0140334Y0018826D01*
X0140334Y0019218D02*
X0243951Y0019218D01*
X0243922Y0019611D02*
X0140334Y0019611D01*
X0140334Y0020003D02*
X0243922Y0020003D01*
X0243922Y0020395D02*
X0140334Y0020395D01*
X0140334Y0020787D02*
X0243953Y0020787D01*
X0244116Y0021179D02*
X0140334Y0021179D01*
X0140334Y0021572D02*
X0244278Y0021572D01*
X0244441Y0021964D02*
X0140334Y0021964D01*
X0140334Y0022356D02*
X0191377Y0022356D01*
X0190985Y0022748D02*
X0140334Y0022748D01*
X0140334Y0023141D02*
X0190650Y0023141D01*
X0190650Y0023533D02*
X0140334Y0023533D01*
X0140334Y0023925D02*
X0190650Y0023925D01*
X0190650Y0024317D02*
X0140334Y0024317D01*
X0140334Y0024709D02*
X0190650Y0024709D01*
X0190650Y0025102D02*
X0140334Y0025102D01*
X0140334Y0025494D02*
X0190650Y0025494D01*
X0190650Y0025886D02*
X0140334Y0025886D01*
X0140334Y0026278D02*
X0190650Y0026278D01*
X0190650Y0026670D02*
X0140334Y0026670D01*
X0140334Y0027063D02*
X0190650Y0027063D01*
X0190650Y0027455D02*
X0140334Y0027455D01*
X0140334Y0027847D02*
X0190650Y0027847D01*
X0190650Y0028239D02*
X0140334Y0028239D01*
X0140334Y0028631D02*
X0190650Y0028631D01*
X0190650Y0029024D02*
X0140334Y0029024D01*
X0140060Y0029416D02*
X0190650Y0029416D01*
X0190650Y0029808D02*
X0139667Y0029808D01*
X0130333Y0029808D02*
X0105452Y0029808D01*
X0105452Y0029416D02*
X0129940Y0029416D01*
X0129666Y0029024D02*
X0105452Y0029024D01*
X0105452Y0028631D02*
X0129666Y0028631D01*
X0129666Y0028239D02*
X0105452Y0028239D01*
X0105452Y0027847D02*
X0129666Y0027847D01*
X0129666Y0027455D02*
X0114225Y0027455D01*
X0114618Y0027063D02*
X0129666Y0027063D01*
X0129666Y0026670D02*
X0114940Y0026670D01*
X0114940Y0026278D02*
X0129666Y0026278D01*
X0129666Y0025886D02*
X0114940Y0025886D01*
X0114940Y0025494D02*
X0129666Y0025494D01*
X0129666Y0025102D02*
X0114940Y0025102D01*
X0114940Y0024709D02*
X0129666Y0024709D01*
X0129666Y0024317D02*
X0114940Y0024317D01*
X0114940Y0023925D02*
X0116575Y0023925D01*
X0116183Y0023533D02*
X0114940Y0023533D01*
X0123425Y0023925D02*
X0129666Y0023925D01*
X0129666Y0023533D02*
X0123817Y0023533D01*
X0123956Y0018042D02*
X0129963Y0018042D01*
X0130355Y0017650D02*
X0123700Y0017650D01*
X0123308Y0017257D02*
X0132028Y0017257D01*
X0132028Y0016865D02*
X0105452Y0016865D01*
X0105452Y0016473D02*
X0132028Y0016473D01*
X0132028Y0016081D02*
X0105452Y0016081D01*
X0105452Y0015688D02*
X0132028Y0015688D01*
X0132028Y0015296D02*
X0105452Y0015296D01*
X0105452Y0014904D02*
X0132028Y0014904D01*
X0132028Y0014512D02*
X0105452Y0014512D01*
X0105452Y0014120D02*
X0132028Y0014120D01*
X0132028Y0013727D02*
X0105452Y0013727D01*
X0105133Y0013335D02*
X0132028Y0013335D01*
X0132028Y0012943D02*
X0104741Y0012943D01*
X0105452Y0017257D02*
X0116692Y0017257D01*
X0116300Y0017650D02*
X0105452Y0017650D01*
X0105452Y0018042D02*
X0116044Y0018042D01*
X0110925Y0018434D02*
X0105452Y0018434D01*
X0105452Y0018826D02*
X0105517Y0018826D01*
X0096359Y0018826D02*
X0093641Y0018826D01*
X0093641Y0018434D02*
X0096359Y0018434D01*
X0096359Y0018042D02*
X0093641Y0018042D01*
X0093641Y0017650D02*
X0096359Y0017650D01*
X0096359Y0017257D02*
X0093641Y0017257D01*
X0093641Y0016865D02*
X0096359Y0016865D01*
X0096359Y0016473D02*
X0093641Y0016473D01*
X0093641Y0016081D02*
X0096359Y0016081D01*
X0096359Y0015688D02*
X0093641Y0015688D01*
X0093641Y0015296D02*
X0096359Y0015296D01*
X0096359Y0014904D02*
X0093641Y0014904D01*
X0093641Y0014512D02*
X0096359Y0014512D01*
X0096359Y0014120D02*
X0093641Y0014120D01*
X0093641Y0013727D02*
X0096359Y0013727D01*
X0096678Y0013335D02*
X0093322Y0013335D01*
X0093641Y0013654D02*
X0093641Y0031346D01*
X0092823Y0032165D01*
X0091691Y0032165D01*
X0091691Y0033019D01*
X0097201Y0038529D01*
X0097597Y0039483D01*
X0097597Y0126424D01*
X0107326Y0136153D01*
X0148787Y0136153D01*
X0149223Y0135717D01*
X0150538Y0135172D01*
X0151962Y0135172D01*
X0153277Y0135717D01*
X0153713Y0136153D01*
X0153864Y0136153D01*
X0154014Y0135791D01*
X0155791Y0134014D01*
X0158113Y0133052D01*
X0160627Y0133052D01*
X0162949Y0134014D01*
X0164726Y0135791D01*
X0165688Y0138113D01*
X0165688Y0140627D01*
X0164726Y0142949D01*
X0162949Y0144726D01*
X0186123Y0144726D01*
X0186123Y0144334D02*
X0163341Y0144334D01*
X0162949Y0144726D02*
X0160627Y0145688D01*
X0158113Y0145688D01*
X0155791Y0144726D01*
X0088169Y0144726D01*
X0088360Y0144535D02*
X0085795Y0147100D01*
X0082444Y0148488D01*
X0079144Y0148488D01*
X0073057Y0154575D01*
X0071073Y0155397D01*
X0029806Y0155397D01*
X0028390Y0156812D01*
X0025437Y0158035D01*
X0014563Y0158035D01*
X0011610Y0156812D01*
X0009349Y0154552D01*
X0008126Y0151598D01*
X0008126Y0148402D01*
X0009349Y0145448D01*
X0011610Y0143188D01*
X0014563Y0141965D01*
X0025437Y0141965D01*
X0028390Y0143188D01*
X0029806Y0144603D01*
X0067765Y0144603D01*
X0071512Y0140856D01*
X0071512Y0137556D01*
X0072900Y0134205D01*
X0075465Y0131640D01*
X0078816Y0130252D01*
X0082444Y0130252D01*
X0085795Y0131640D01*
X0088360Y0134205D01*
X0089748Y0137556D01*
X0089748Y0141184D01*
X0088360Y0144535D01*
X0088443Y0144334D02*
X0155399Y0144334D01*
X0155791Y0144726D02*
X0154014Y0142949D01*
X0153457Y0141603D01*
X0153277Y0141783D01*
X0151962Y0142328D01*
X0150538Y0142328D01*
X0149223Y0141783D01*
X0148787Y0141347D01*
X0105733Y0141347D01*
X0104779Y0140951D01*
X0104048Y0140221D01*
X0092798Y0128971D01*
X0092403Y0128017D01*
X0092403Y0041076D01*
X0087623Y0036296D01*
X0086893Y0035565D01*
X0086498Y0034611D01*
X0086498Y0032165D01*
X0085366Y0032165D01*
X0084548Y0031346D01*
X0084548Y0013654D01*
X0085366Y0012835D01*
X0092823Y0012835D01*
X0093641Y0013654D01*
X0092930Y0012943D02*
X0097070Y0012943D01*
X0085259Y0012943D02*
X0028999Y0012943D01*
X0028960Y0012903D02*
X0031547Y0015490D01*
X0032947Y0018871D01*
X0032947Y0022529D01*
X0031547Y0025910D01*
X0028960Y0028497D01*
X0025579Y0029897D01*
X0024147Y0029897D01*
X0024147Y0064015D01*
X0034735Y0074603D01*
X0059024Y0074603D01*
X0071512Y0062116D01*
X0071512Y0058816D01*
X0072900Y0055465D01*
X0075465Y0052900D01*
X0078816Y0051512D01*
X0082444Y0051512D01*
X0085795Y0052900D01*
X0088360Y0055465D01*
X0089748Y0058816D01*
X0089748Y0062444D01*
X0088360Y0065795D01*
X0085795Y0068360D01*
X0082444Y0069748D01*
X0079144Y0069748D01*
X0064317Y0084575D01*
X0062333Y0085397D01*
X0031426Y0085397D01*
X0029443Y0084575D01*
X0015693Y0070825D01*
X0014175Y0069307D01*
X0013353Y0067323D01*
X0013353Y0029897D01*
X0011921Y0029897D01*
X0008540Y0028497D01*
X0005953Y0025910D01*
X0004553Y0022529D01*
X0004553Y0018871D01*
X0005953Y0015490D01*
X0008540Y0012903D01*
X0011921Y0011503D01*
X0025579Y0011503D01*
X0028960Y0012903D01*
X0029392Y0013335D02*
X0084866Y0013335D01*
X0084548Y0013727D02*
X0029784Y0013727D01*
X0030176Y0014120D02*
X0084548Y0014120D01*
X0084548Y0014512D02*
X0030568Y0014512D01*
X0030960Y0014904D02*
X0084548Y0014904D01*
X0084548Y0015296D02*
X0031353Y0015296D01*
X0031629Y0015688D02*
X0084548Y0015688D01*
X0084548Y0016081D02*
X0031791Y0016081D01*
X0031954Y0016473D02*
X0084548Y0016473D01*
X0084548Y0016865D02*
X0032116Y0016865D01*
X0032279Y0017257D02*
X0084548Y0017257D01*
X0084548Y0017650D02*
X0032441Y0017650D01*
X0032604Y0018042D02*
X0084548Y0018042D01*
X0084548Y0018434D02*
X0032766Y0018434D01*
X0032928Y0018826D02*
X0084548Y0018826D01*
X0084548Y0019218D02*
X0032947Y0019218D01*
X0032947Y0019611D02*
X0084548Y0019611D01*
X0084548Y0020003D02*
X0032947Y0020003D01*
X0032947Y0020395D02*
X0084548Y0020395D01*
X0084548Y0020787D02*
X0032947Y0020787D01*
X0032947Y0021179D02*
X0084548Y0021179D01*
X0084548Y0021572D02*
X0032947Y0021572D01*
X0032947Y0021964D02*
X0084548Y0021964D01*
X0084548Y0022356D02*
X0032947Y0022356D01*
X0032856Y0022748D02*
X0084548Y0022748D01*
X0084548Y0023141D02*
X0032694Y0023141D01*
X0032531Y0023533D02*
X0084548Y0023533D01*
X0084548Y0023925D02*
X0032369Y0023925D01*
X0032206Y0024317D02*
X0084548Y0024317D01*
X0084548Y0024709D02*
X0032044Y0024709D01*
X0031881Y0025102D02*
X0084548Y0025102D01*
X0084548Y0025494D02*
X0031719Y0025494D01*
X0031556Y0025886D02*
X0084548Y0025886D01*
X0084548Y0026278D02*
X0031178Y0026278D01*
X0030786Y0026670D02*
X0084548Y0026670D01*
X0084548Y0027063D02*
X0030394Y0027063D01*
X0030001Y0027455D02*
X0084548Y0027455D01*
X0084548Y0027847D02*
X0029609Y0027847D01*
X0029217Y0028239D02*
X0084548Y0028239D01*
X0084548Y0028631D02*
X0028634Y0028631D01*
X0027687Y0029024D02*
X0084548Y0029024D01*
X0084548Y0029416D02*
X0026740Y0029416D01*
X0025794Y0029808D02*
X0084548Y0029808D01*
X0084548Y0030200D02*
X0024147Y0030200D01*
X0024147Y0030593D02*
X0084548Y0030593D01*
X0084548Y0030985D02*
X0024147Y0030985D01*
X0024147Y0031377D02*
X0084579Y0031377D01*
X0084971Y0031769D02*
X0024147Y0031769D01*
X0024147Y0032161D02*
X0085363Y0032161D01*
X0086498Y0032554D02*
X0024147Y0032554D01*
X0024147Y0032946D02*
X0086498Y0032946D01*
X0086498Y0033338D02*
X0024147Y0033338D01*
X0024147Y0033730D02*
X0086498Y0033730D01*
X0086498Y0034122D02*
X0024147Y0034122D01*
X0024147Y0034515D02*
X0086498Y0034515D01*
X0086620Y0034907D02*
X0024147Y0034907D01*
X0024147Y0035299D02*
X0086783Y0035299D01*
X0087019Y0035691D02*
X0024147Y0035691D01*
X0024147Y0036084D02*
X0087411Y0036084D01*
X0087803Y0036476D02*
X0024147Y0036476D01*
X0024147Y0036868D02*
X0088195Y0036868D01*
X0088588Y0037260D02*
X0024147Y0037260D01*
X0024147Y0037652D02*
X0088980Y0037652D01*
X0089372Y0038045D02*
X0024147Y0038045D01*
X0024147Y0038437D02*
X0089764Y0038437D01*
X0090157Y0038829D02*
X0024147Y0038829D01*
X0024147Y0039221D02*
X0090549Y0039221D01*
X0090941Y0039613D02*
X0024147Y0039613D01*
X0024147Y0040006D02*
X0091333Y0040006D01*
X0091725Y0040398D02*
X0024147Y0040398D01*
X0024147Y0040790D02*
X0092118Y0040790D01*
X0092403Y0041182D02*
X0024147Y0041182D01*
X0024147Y0041574D02*
X0092403Y0041574D01*
X0092403Y0041967D02*
X0024147Y0041967D01*
X0024147Y0042359D02*
X0092403Y0042359D01*
X0092403Y0042751D02*
X0024147Y0042751D01*
X0024147Y0043143D02*
X0092403Y0043143D01*
X0092403Y0043536D02*
X0024147Y0043536D01*
X0024147Y0043928D02*
X0092403Y0043928D01*
X0092403Y0044320D02*
X0024147Y0044320D01*
X0024147Y0044712D02*
X0092403Y0044712D01*
X0092403Y0045104D02*
X0024147Y0045104D01*
X0024147Y0045497D02*
X0092403Y0045497D01*
X0092403Y0045889D02*
X0024147Y0045889D01*
X0024147Y0046281D02*
X0092403Y0046281D01*
X0092403Y0046673D02*
X0024147Y0046673D01*
X0024147Y0047065D02*
X0092403Y0047065D01*
X0092403Y0047458D02*
X0024147Y0047458D01*
X0024147Y0047850D02*
X0092403Y0047850D01*
X0092403Y0048242D02*
X0024147Y0048242D01*
X0024147Y0048634D02*
X0092403Y0048634D01*
X0092403Y0049027D02*
X0024147Y0049027D01*
X0024147Y0049419D02*
X0092403Y0049419D01*
X0092403Y0049811D02*
X0024147Y0049811D01*
X0024147Y0050203D02*
X0092403Y0050203D01*
X0092403Y0050595D02*
X0024147Y0050595D01*
X0024147Y0050988D02*
X0092403Y0050988D01*
X0092403Y0051380D02*
X0024147Y0051380D01*
X0024147Y0051772D02*
X0078188Y0051772D01*
X0077241Y0052164D02*
X0024147Y0052164D01*
X0024147Y0052556D02*
X0076294Y0052556D01*
X0075416Y0052949D02*
X0024147Y0052949D01*
X0024147Y0053341D02*
X0075024Y0053341D01*
X0074632Y0053733D02*
X0024147Y0053733D01*
X0024147Y0054125D02*
X0074240Y0054125D01*
X0073847Y0054517D02*
X0024147Y0054517D01*
X0024147Y0054910D02*
X0073455Y0054910D01*
X0073063Y0055302D02*
X0024147Y0055302D01*
X0024147Y0055694D02*
X0072805Y0055694D01*
X0072643Y0056086D02*
X0024147Y0056086D01*
X0024147Y0056479D02*
X0072480Y0056479D01*
X0072318Y0056871D02*
X0024147Y0056871D01*
X0024147Y0057263D02*
X0072155Y0057263D01*
X0071993Y0057655D02*
X0024147Y0057655D01*
X0024147Y0058047D02*
X0071830Y0058047D01*
X0071668Y0058440D02*
X0024147Y0058440D01*
X0024147Y0058832D02*
X0071512Y0058832D01*
X0071512Y0059224D02*
X0024147Y0059224D01*
X0024147Y0059616D02*
X0071512Y0059616D01*
X0071512Y0060008D02*
X0024147Y0060008D01*
X0024147Y0060401D02*
X0071512Y0060401D01*
X0071512Y0060793D02*
X0024147Y0060793D01*
X0024147Y0061185D02*
X0071512Y0061185D01*
X0071512Y0061577D02*
X0024147Y0061577D01*
X0024147Y0061970D02*
X0071512Y0061970D01*
X0071266Y0062362D02*
X0024147Y0062362D01*
X0024147Y0062754D02*
X0070874Y0062754D01*
X0070481Y0063146D02*
X0024147Y0063146D01*
X0024147Y0063538D02*
X0070089Y0063538D01*
X0069697Y0063931D02*
X0024147Y0063931D01*
X0024455Y0064323D02*
X0069305Y0064323D01*
X0068913Y0064715D02*
X0024847Y0064715D01*
X0025240Y0065107D02*
X0068520Y0065107D01*
X0068128Y0065499D02*
X0025632Y0065499D01*
X0026024Y0065892D02*
X0067736Y0065892D01*
X0067344Y0066284D02*
X0026416Y0066284D01*
X0026808Y0066676D02*
X0066951Y0066676D01*
X0066559Y0067068D02*
X0027201Y0067068D01*
X0027593Y0067460D02*
X0066167Y0067460D01*
X0065775Y0067853D02*
X0027985Y0067853D01*
X0028377Y0068245D02*
X0065383Y0068245D01*
X0064990Y0068637D02*
X0028769Y0068637D01*
X0029162Y0069029D02*
X0064598Y0069029D01*
X0064206Y0069422D02*
X0029554Y0069422D01*
X0029946Y0069814D02*
X0063814Y0069814D01*
X0063422Y0070206D02*
X0030338Y0070206D01*
X0030730Y0070598D02*
X0063029Y0070598D01*
X0062637Y0070990D02*
X0031123Y0070990D01*
X0031515Y0071383D02*
X0062245Y0071383D01*
X0061853Y0071775D02*
X0031907Y0071775D01*
X0032299Y0072167D02*
X0061461Y0072167D01*
X0061068Y0072559D02*
X0032692Y0072559D01*
X0033084Y0072951D02*
X0060676Y0072951D01*
X0060284Y0073344D02*
X0033476Y0073344D01*
X0033868Y0073736D02*
X0059892Y0073736D01*
X0059499Y0074128D02*
X0034260Y0074128D01*
X0034653Y0074520D02*
X0059107Y0074520D01*
X0069273Y0079619D02*
X0092403Y0079619D01*
X0092403Y0079227D02*
X0069665Y0079227D01*
X0070057Y0078835D02*
X0092403Y0078835D01*
X0092403Y0078442D02*
X0070450Y0078442D01*
X0070842Y0078050D02*
X0092403Y0078050D01*
X0092403Y0077658D02*
X0071234Y0077658D01*
X0071626Y0077266D02*
X0092403Y0077266D01*
X0092403Y0076874D02*
X0072019Y0076874D01*
X0072411Y0076481D02*
X0092403Y0076481D01*
X0092403Y0076089D02*
X0072803Y0076089D01*
X0073195Y0075697D02*
X0092403Y0075697D01*
X0092403Y0075305D02*
X0073587Y0075305D01*
X0073980Y0074913D02*
X0092403Y0074913D01*
X0092403Y0074520D02*
X0074372Y0074520D01*
X0074764Y0074128D02*
X0092403Y0074128D01*
X0092403Y0073736D02*
X0075156Y0073736D01*
X0075548Y0073344D02*
X0092403Y0073344D01*
X0092403Y0072951D02*
X0075941Y0072951D01*
X0076333Y0072559D02*
X0092403Y0072559D01*
X0092403Y0072167D02*
X0076725Y0072167D01*
X0077117Y0071775D02*
X0092403Y0071775D01*
X0092403Y0071383D02*
X0077510Y0071383D01*
X0077902Y0070990D02*
X0092403Y0070990D01*
X0092403Y0070598D02*
X0078294Y0070598D01*
X0078686Y0070206D02*
X0092403Y0070206D01*
X0092403Y0069814D02*
X0079078Y0069814D01*
X0083232Y0069422D02*
X0092403Y0069422D01*
X0092403Y0069029D02*
X0084179Y0069029D01*
X0085126Y0068637D02*
X0092403Y0068637D01*
X0092403Y0068245D02*
X0085910Y0068245D01*
X0086302Y0067853D02*
X0092403Y0067853D01*
X0092403Y0067460D02*
X0086694Y0067460D01*
X0087087Y0067068D02*
X0092403Y0067068D01*
X0092403Y0066676D02*
X0087479Y0066676D01*
X0087871Y0066284D02*
X0092403Y0066284D01*
X0092403Y0065892D02*
X0088263Y0065892D01*
X0088482Y0065499D02*
X0092403Y0065499D01*
X0092403Y0065107D02*
X0088645Y0065107D01*
X0088807Y0064715D02*
X0092403Y0064715D01*
X0092403Y0064323D02*
X0088970Y0064323D01*
X0089132Y0063931D02*
X0092403Y0063931D01*
X0092403Y0063538D02*
X0089295Y0063538D01*
X0089457Y0063146D02*
X0092403Y0063146D01*
X0092403Y0062754D02*
X0089619Y0062754D01*
X0089748Y0062362D02*
X0092403Y0062362D01*
X0092403Y0061970D02*
X0089748Y0061970D01*
X0089748Y0061577D02*
X0092403Y0061577D01*
X0092403Y0061185D02*
X0089748Y0061185D01*
X0089748Y0060793D02*
X0092403Y0060793D01*
X0092403Y0060401D02*
X0089748Y0060401D01*
X0089748Y0060008D02*
X0092403Y0060008D01*
X0092403Y0059616D02*
X0089748Y0059616D01*
X0089748Y0059224D02*
X0092403Y0059224D01*
X0092403Y0058832D02*
X0089748Y0058832D01*
X0089592Y0058440D02*
X0092403Y0058440D01*
X0092403Y0058047D02*
X0089430Y0058047D01*
X0089267Y0057655D02*
X0092403Y0057655D01*
X0092403Y0057263D02*
X0089105Y0057263D01*
X0088942Y0056871D02*
X0092403Y0056871D01*
X0092403Y0056479D02*
X0088780Y0056479D01*
X0088617Y0056086D02*
X0092403Y0056086D01*
X0092403Y0055694D02*
X0088455Y0055694D01*
X0088197Y0055302D02*
X0092403Y0055302D01*
X0092403Y0054910D02*
X0087805Y0054910D01*
X0087412Y0054517D02*
X0092403Y0054517D01*
X0092403Y0054125D02*
X0087020Y0054125D01*
X0086628Y0053733D02*
X0092403Y0053733D01*
X0092403Y0053341D02*
X0086236Y0053341D01*
X0085844Y0052949D02*
X0092403Y0052949D01*
X0092403Y0052556D02*
X0084966Y0052556D01*
X0084019Y0052164D02*
X0092403Y0052164D01*
X0092403Y0051772D02*
X0083072Y0051772D01*
X0097597Y0051772D02*
X0186123Y0051772D01*
X0186123Y0052164D02*
X0097597Y0052164D01*
X0097597Y0052556D02*
X0186123Y0052556D01*
X0186123Y0052949D02*
X0097597Y0052949D01*
X0097597Y0053341D02*
X0186123Y0053341D01*
X0186123Y0053733D02*
X0097597Y0053733D01*
X0097597Y0054125D02*
X0186123Y0054125D01*
X0186123Y0054517D02*
X0097597Y0054517D01*
X0097597Y0054910D02*
X0186123Y0054910D01*
X0186123Y0055302D02*
X0097597Y0055302D01*
X0097597Y0055694D02*
X0186123Y0055694D01*
X0186123Y0056086D02*
X0097597Y0056086D01*
X0097597Y0056479D02*
X0186123Y0056479D01*
X0186123Y0056871D02*
X0097597Y0056871D01*
X0097597Y0057263D02*
X0186469Y0057263D01*
X0186861Y0057655D02*
X0097597Y0057655D01*
X0097597Y0058047D02*
X0214375Y0058047D01*
X0213983Y0057655D02*
X0203139Y0057655D01*
X0203531Y0057263D02*
X0213590Y0057263D01*
X0213198Y0056871D02*
X0203877Y0056871D01*
X0203877Y0056479D02*
X0211629Y0056479D01*
X0211237Y0056086D02*
X0203877Y0056086D01*
X0201573Y0060401D02*
X0220060Y0060401D01*
X0220060Y0060793D02*
X0201965Y0060793D01*
X0202201Y0061029D02*
X0202201Y0061029D01*
X0202358Y0061185D02*
X0220060Y0061185D01*
X0220060Y0061577D02*
X0202750Y0061577D01*
X0203142Y0061970D02*
X0220289Y0061970D01*
X0220682Y0062362D02*
X0203534Y0062362D01*
X0203926Y0062754D02*
X0233653Y0062754D01*
X0233653Y0063146D02*
X0204319Y0063146D01*
X0204711Y0063538D02*
X0233653Y0063538D01*
X0233653Y0063931D02*
X0205103Y0063931D01*
X0205495Y0064323D02*
X0233653Y0064323D01*
X0233653Y0064715D02*
X0205887Y0064715D01*
X0206266Y0065107D02*
X0233653Y0065107D01*
X0233653Y0065499D02*
X0206429Y0065499D01*
X0206591Y0065892D02*
X0233653Y0065892D01*
X0233653Y0066284D02*
X0206652Y0066284D01*
X0206652Y0066676D02*
X0233653Y0066676D01*
X0233653Y0067068D02*
X0206652Y0067068D01*
X0206652Y0067460D02*
X0233653Y0067460D01*
X0233653Y0067853D02*
X0206652Y0067853D01*
X0206652Y0068245D02*
X0233653Y0068245D01*
X0233653Y0068637D02*
X0206652Y0068637D01*
X0206652Y0069029D02*
X0233653Y0069029D01*
X0233653Y0069422D02*
X0206652Y0069422D01*
X0207636Y0069814D02*
X0233653Y0069814D01*
X0233622Y0070206D02*
X0229386Y0070206D01*
X0229778Y0070598D02*
X0233229Y0070598D01*
X0232837Y0070990D02*
X0229940Y0070990D01*
X0229940Y0071383D02*
X0232445Y0071383D01*
X0232053Y0071775D02*
X0229940Y0071775D01*
X0235868Y0075305D02*
X0237803Y0075305D01*
X0237803Y0075697D02*
X0235476Y0075697D01*
X0235083Y0076089D02*
X0237803Y0076089D01*
X0237803Y0076481D02*
X0234691Y0076481D01*
X0234039Y0076874D02*
X0237803Y0076874D01*
X0237803Y0077266D02*
X0229940Y0077266D01*
X0229940Y0077658D02*
X0237803Y0077658D01*
X0237803Y0078050D02*
X0229940Y0078050D01*
X0229714Y0078442D02*
X0237803Y0078442D01*
X0237803Y0078835D02*
X0229322Y0078835D01*
X0236260Y0074913D02*
X0237803Y0074913D01*
X0237803Y0074520D02*
X0236652Y0074520D01*
X0237044Y0074128D02*
X0237803Y0074128D01*
X0237803Y0073736D02*
X0237437Y0073736D01*
X0237803Y0079227D02*
X0208405Y0079227D01*
X0208400Y0079619D02*
X0237803Y0079619D01*
X0237803Y0080011D02*
X0208007Y0080011D01*
X0207615Y0080403D02*
X0237803Y0080403D01*
X0237803Y0080796D02*
X0198397Y0080796D01*
X0198397Y0081188D02*
X0237803Y0081188D01*
X0237803Y0081580D02*
X0198397Y0081580D01*
X0198397Y0081972D02*
X0237803Y0081972D01*
X0237803Y0082365D02*
X0198397Y0082365D01*
X0198397Y0082757D02*
X0237803Y0082757D01*
X0237803Y0083149D02*
X0198397Y0083149D01*
X0198397Y0083541D02*
X0237803Y0083541D01*
X0237803Y0083933D02*
X0198397Y0083933D01*
X0198397Y0084326D02*
X0237803Y0084326D01*
X0237803Y0084718D02*
X0198397Y0084718D01*
X0198397Y0085110D02*
X0237803Y0085110D01*
X0237803Y0085502D02*
X0198397Y0085502D01*
X0198397Y0085894D02*
X0237803Y0085894D01*
X0237803Y0086287D02*
X0198397Y0086287D01*
X0198397Y0086679D02*
X0237803Y0086679D01*
X0237803Y0087071D02*
X0198397Y0087071D01*
X0198397Y0087463D02*
X0237803Y0087463D01*
X0237803Y0087856D02*
X0198397Y0087856D01*
X0198397Y0088248D02*
X0237803Y0088248D01*
X0237803Y0088640D02*
X0198397Y0088640D01*
X0198397Y0089032D02*
X0237803Y0089032D01*
X0237803Y0089424D02*
X0198397Y0089424D01*
X0198397Y0089817D02*
X0237803Y0089817D01*
X0237803Y0090209D02*
X0198397Y0090209D01*
X0198397Y0090601D02*
X0237803Y0090601D01*
X0237803Y0090993D02*
X0198397Y0090993D01*
X0198397Y0091385D02*
X0237803Y0091385D01*
X0237803Y0091778D02*
X0198397Y0091778D01*
X0198397Y0092170D02*
X0237803Y0092170D01*
X0237803Y0092562D02*
X0198397Y0092562D01*
X0198397Y0092954D02*
X0237803Y0092954D01*
X0237803Y0093346D02*
X0198397Y0093346D01*
X0198397Y0093739D02*
X0237803Y0093739D01*
X0237803Y0094131D02*
X0198397Y0094131D01*
X0198397Y0094523D02*
X0237803Y0094523D01*
X0237803Y0094915D02*
X0203407Y0094915D01*
X0203799Y0095308D02*
X0237803Y0095308D01*
X0237803Y0095700D02*
X0203877Y0095700D01*
X0203877Y0096092D02*
X0237803Y0096092D01*
X0237803Y0096484D02*
X0203877Y0096484D01*
X0203877Y0096876D02*
X0237803Y0096876D01*
X0237803Y0097269D02*
X0218319Y0097269D01*
X0218711Y0097661D02*
X0237803Y0097661D01*
X0237803Y0098053D02*
X0218956Y0098053D01*
X0218956Y0098445D02*
X0237803Y0098445D01*
X0237803Y0098837D02*
X0218956Y0098837D01*
X0218956Y0099230D02*
X0237664Y0099230D01*
X0237271Y0099622D02*
X0218956Y0099622D01*
X0218956Y0100014D02*
X0236879Y0100014D01*
X0236487Y0100406D02*
X0218956Y0100406D01*
X0218956Y0100799D02*
X0236095Y0100799D01*
X0235702Y0101191D02*
X0229347Y0101191D01*
X0229739Y0101583D02*
X0235310Y0101583D01*
X0234918Y0101975D02*
X0229940Y0101975D01*
X0229940Y0102367D02*
X0234526Y0102367D01*
X0234134Y0102760D02*
X0229940Y0102760D01*
X0229940Y0103152D02*
X0233741Y0103152D01*
X0236425Y0106682D02*
X0236753Y0106682D01*
X0236753Y0107074D02*
X0236033Y0107074D01*
X0235641Y0107466D02*
X0236753Y0107466D01*
X0236753Y0107858D02*
X0229940Y0107858D01*
X0229940Y0108251D02*
X0236753Y0108251D01*
X0236753Y0108643D02*
X0229940Y0108643D01*
X0229940Y0109035D02*
X0236753Y0109035D01*
X0236753Y0109427D02*
X0229753Y0109427D01*
X0229361Y0109819D02*
X0236753Y0109819D01*
X0236753Y0110212D02*
X0203884Y0110212D01*
X0204276Y0110604D02*
X0236753Y0110604D01*
X0236753Y0110996D02*
X0204669Y0110996D01*
X0205061Y0111388D02*
X0236753Y0111388D01*
X0236753Y0111780D02*
X0205453Y0111780D01*
X0205845Y0112173D02*
X0236753Y0112173D01*
X0236753Y0112565D02*
X0206237Y0112565D01*
X0206411Y0112957D02*
X0236753Y0112957D01*
X0236753Y0113349D02*
X0206574Y0113349D01*
X0206652Y0113742D02*
X0236753Y0113742D01*
X0236753Y0114134D02*
X0206652Y0114134D01*
X0206652Y0114526D02*
X0236753Y0114526D01*
X0236753Y0114918D02*
X0206652Y0114918D01*
X0206652Y0115310D02*
X0236753Y0115310D01*
X0236753Y0115703D02*
X0206652Y0115703D01*
X0206652Y0116095D02*
X0236753Y0116095D01*
X0236753Y0116487D02*
X0206652Y0116487D01*
X0206652Y0116879D02*
X0236753Y0116879D01*
X0236753Y0117271D02*
X0207593Y0117271D01*
X0207986Y0117664D02*
X0220656Y0117664D01*
X0220264Y0118056D02*
X0208378Y0118056D01*
X0208405Y0118448D02*
X0211702Y0118448D01*
X0211310Y0118840D02*
X0208405Y0118840D01*
X0208405Y0119232D02*
X0211044Y0119232D01*
X0218298Y0118448D02*
X0220060Y0118448D01*
X0220060Y0118840D02*
X0218690Y0118840D01*
X0218956Y0119232D02*
X0220060Y0119232D01*
X0229344Y0117664D02*
X0236753Y0117664D01*
X0236753Y0118056D02*
X0229736Y0118056D01*
X0229940Y0118448D02*
X0236753Y0118448D01*
X0236753Y0118840D02*
X0229940Y0118840D01*
X0229940Y0119232D02*
X0236753Y0119232D01*
X0236753Y0119625D02*
X0229940Y0119625D01*
X0229940Y0120017D02*
X0236753Y0120017D01*
X0236753Y0120409D02*
X0229940Y0120409D01*
X0229940Y0120801D02*
X0236753Y0120801D01*
X0236753Y0121194D02*
X0229940Y0121194D01*
X0229940Y0121586D02*
X0236753Y0121586D01*
X0236753Y0121978D02*
X0229940Y0121978D01*
X0229940Y0122370D02*
X0236753Y0122370D01*
X0236753Y0122762D02*
X0229940Y0122762D01*
X0229940Y0123155D02*
X0236753Y0123155D01*
X0236753Y0123547D02*
X0229940Y0123547D01*
X0229940Y0123939D02*
X0236753Y0123939D01*
X0236753Y0124331D02*
X0229940Y0124331D01*
X0229940Y0124723D02*
X0236753Y0124723D01*
X0236753Y0125116D02*
X0229940Y0125116D01*
X0229940Y0125508D02*
X0236753Y0125508D01*
X0236753Y0125900D02*
X0229756Y0125900D01*
X0229364Y0126292D02*
X0236753Y0126292D01*
X0236753Y0126685D02*
X0208405Y0126685D01*
X0208405Y0127077D02*
X0236753Y0127077D01*
X0236753Y0127469D02*
X0208050Y0127469D01*
X0207658Y0127861D02*
X0236753Y0127861D01*
X0236753Y0128253D02*
X0198397Y0128253D01*
X0198397Y0128646D02*
X0236753Y0128646D01*
X0236753Y0129038D02*
X0198397Y0129038D01*
X0198397Y0129430D02*
X0236753Y0129430D01*
X0236753Y0129822D02*
X0198397Y0129822D01*
X0198397Y0130214D02*
X0236753Y0130214D01*
X0236753Y0130607D02*
X0198397Y0130607D01*
X0198397Y0130999D02*
X0236753Y0130999D01*
X0236753Y0131391D02*
X0198397Y0131391D01*
X0198397Y0131783D02*
X0236753Y0131783D01*
X0236753Y0132175D02*
X0198397Y0132175D01*
X0198397Y0132568D02*
X0236753Y0132568D01*
X0236753Y0132960D02*
X0198397Y0132960D01*
X0198397Y0133352D02*
X0236753Y0133352D01*
X0236753Y0133744D02*
X0198397Y0133744D01*
X0198397Y0134137D02*
X0236753Y0134137D01*
X0236753Y0134529D02*
X0198397Y0134529D01*
X0198397Y0134921D02*
X0236753Y0134921D01*
X0236753Y0135313D02*
X0198397Y0135313D01*
X0198397Y0135705D02*
X0236753Y0135705D01*
X0236753Y0136098D02*
X0198397Y0136098D01*
X0198397Y0136490D02*
X0236753Y0136490D01*
X0236753Y0136882D02*
X0198397Y0136882D01*
X0198397Y0137274D02*
X0236753Y0137274D01*
X0236753Y0137666D02*
X0198397Y0137666D01*
X0198397Y0138059D02*
X0236753Y0138059D01*
X0236753Y0138451D02*
X0198397Y0138451D01*
X0198397Y0138843D02*
X0236753Y0138843D01*
X0236753Y0139235D02*
X0198397Y0139235D01*
X0198397Y0139628D02*
X0236753Y0139628D01*
X0236753Y0140020D02*
X0198397Y0140020D01*
X0198397Y0140412D02*
X0236753Y0140412D01*
X0236753Y0140804D02*
X0198397Y0140804D01*
X0198397Y0141196D02*
X0236753Y0141196D01*
X0236753Y0141589D02*
X0198397Y0141589D01*
X0198397Y0141981D02*
X0236753Y0141981D01*
X0236753Y0142373D02*
X0203364Y0142373D01*
X0203756Y0142765D02*
X0236753Y0142765D01*
X0236753Y0143157D02*
X0203877Y0143157D01*
X0203877Y0143550D02*
X0236753Y0143550D01*
X0236753Y0143942D02*
X0203877Y0143942D01*
X0203877Y0144334D02*
X0236753Y0144334D01*
X0236753Y0144726D02*
X0218277Y0144726D01*
X0218669Y0145118D02*
X0236753Y0145118D01*
X0236753Y0145511D02*
X0218956Y0145511D01*
X0218956Y0145903D02*
X0236753Y0145903D01*
X0236753Y0146295D02*
X0218956Y0146295D01*
X0218956Y0146687D02*
X0236753Y0146687D01*
X0236753Y0147080D02*
X0218956Y0147080D01*
X0218956Y0147472D02*
X0236753Y0147472D01*
X0236753Y0147864D02*
X0218956Y0147864D01*
X0218956Y0148256D02*
X0236753Y0148256D01*
X0236753Y0148648D02*
X0229305Y0148648D01*
X0229697Y0149041D02*
X0236753Y0149041D01*
X0236753Y0149433D02*
X0229940Y0149433D01*
X0229940Y0149825D02*
X0236753Y0149825D01*
X0236753Y0150217D02*
X0229940Y0150217D01*
X0229940Y0150609D02*
X0236567Y0150609D01*
X0236174Y0151002D02*
X0229940Y0151002D01*
X0229940Y0151394D02*
X0235782Y0151394D01*
X0235390Y0151786D02*
X0229940Y0151786D01*
X0229940Y0152178D02*
X0234998Y0152178D01*
X0234606Y0152571D02*
X0229940Y0152571D01*
X0229940Y0152963D02*
X0234213Y0152963D01*
X0233821Y0153355D02*
X0229940Y0153355D01*
X0229940Y0153747D02*
X0233429Y0153747D01*
X0233037Y0154139D02*
X0229940Y0154139D01*
X0229940Y0154532D02*
X0232644Y0154532D01*
X0232252Y0154924D02*
X0229940Y0154924D01*
X0229940Y0155316D02*
X0231860Y0155316D01*
X0231468Y0155708D02*
X0229940Y0155708D01*
X0229940Y0156100D02*
X0231076Y0156100D01*
X0230683Y0156493D02*
X0229940Y0156493D01*
X0220060Y0149825D02*
X0218956Y0149825D01*
X0218956Y0149433D02*
X0220060Y0149433D01*
X0220303Y0149041D02*
X0218956Y0149041D01*
X0218956Y0148648D02*
X0220695Y0148648D01*
X0211723Y0144726D02*
X0203877Y0144726D01*
X0203877Y0145118D02*
X0211331Y0145118D01*
X0211044Y0145511D02*
X0203877Y0145511D01*
X0198193Y0152735D02*
X0186941Y0152735D01*
X0186123Y0151917D01*
X0186123Y0149697D01*
X0184660Y0149697D01*
X0169697Y0164660D01*
X0169697Y0171878D01*
X0170249Y0171327D01*
X0170638Y0171165D01*
X0170638Y0166255D01*
X0171925Y0164969D01*
X0174090Y0162803D01*
X0177038Y0162803D01*
X0177038Y0161862D01*
X0177856Y0161044D01*
X0183344Y0161044D01*
X0183750Y0161450D01*
X0184156Y0161044D01*
X0185303Y0161044D01*
X0185303Y0160340D01*
X0186590Y0159053D01*
X0189090Y0156553D01*
X0190241Y0156553D01*
X0191016Y0155778D01*
X0196110Y0155778D01*
X0196928Y0156597D01*
X0196928Y0160903D01*
X0196110Y0161722D01*
X0191016Y0161722D01*
X0190576Y0161281D01*
X0190228Y0161629D01*
X0190462Y0161862D01*
X0190462Y0168138D01*
X0189644Y0168956D01*
X0184156Y0168956D01*
X0183750Y0168550D01*
X0183344Y0168956D01*
X0177856Y0168956D01*
X0177038Y0168138D01*
X0177038Y0167197D01*
X0175910Y0167197D01*
X0175031Y0168075D01*
X0175031Y0171165D01*
X0175421Y0171327D01*
X0176705Y0172611D01*
X0177400Y0174289D01*
X0177400Y0176105D01*
X0176705Y0177783D01*
X0175435Y0179053D01*
X0179759Y0179053D01*
X0179997Y0178816D01*
X0178964Y0177783D01*
X0178269Y0176105D01*
X0178269Y0174289D01*
X0178964Y0172611D01*
X0180249Y0171327D01*
X0181927Y0170631D01*
X0183743Y0170631D01*
X0185421Y0171327D01*
X0186705Y0172611D01*
X0187400Y0174289D01*
X0187400Y0176105D01*
X0186705Y0177783D01*
X0185672Y0178816D01*
X0185910Y0179053D01*
X0190235Y0179053D01*
X0188964Y0177783D01*
X0188269Y0176105D01*
X0188269Y0174289D01*
X0188964Y0172611D01*
X0190249Y0171327D01*
X0191927Y0170631D01*
X0193743Y0170631D01*
X0194332Y0170876D01*
X0198454Y0166753D01*
X0204173Y0166753D01*
X0210423Y0160503D01*
X0217679Y0160503D01*
X0214173Y0156997D01*
X0204802Y0156997D01*
X0204802Y0157163D01*
X0203984Y0157981D01*
X0198890Y0157981D01*
X0198072Y0157163D01*
X0198072Y0152856D01*
X0198193Y0152735D01*
X0198072Y0152963D02*
X0181394Y0152963D01*
X0181002Y0153355D02*
X0198072Y0153355D01*
X0198072Y0153747D02*
X0180610Y0153747D01*
X0180217Y0154139D02*
X0198072Y0154139D01*
X0198072Y0154532D02*
X0179825Y0154532D01*
X0179433Y0154924D02*
X0198072Y0154924D01*
X0198072Y0155316D02*
X0179041Y0155316D01*
X0178649Y0155708D02*
X0198072Y0155708D01*
X0198072Y0156100D02*
X0196432Y0156100D01*
X0196824Y0156493D02*
X0198072Y0156493D01*
X0198072Y0156885D02*
X0196928Y0156885D01*
X0196928Y0157277D02*
X0198185Y0157277D01*
X0198578Y0157669D02*
X0196928Y0157669D01*
X0196928Y0158061D02*
X0215238Y0158061D01*
X0215630Y0158454D02*
X0196928Y0158454D01*
X0196928Y0158846D02*
X0216022Y0158846D01*
X0216414Y0159238D02*
X0196928Y0159238D01*
X0196928Y0159630D02*
X0216806Y0159630D01*
X0217199Y0160023D02*
X0196928Y0160023D01*
X0196928Y0160415D02*
X0217591Y0160415D01*
X0214845Y0157669D02*
X0204296Y0157669D01*
X0204689Y0157277D02*
X0214453Y0157277D01*
X0210119Y0160807D02*
X0196928Y0160807D01*
X0196633Y0161199D02*
X0209727Y0161199D01*
X0209335Y0161591D02*
X0196240Y0161591D01*
X0190886Y0161591D02*
X0190265Y0161591D01*
X0190462Y0161984D02*
X0208942Y0161984D01*
X0208550Y0162376D02*
X0190462Y0162376D01*
X0190462Y0162768D02*
X0208158Y0162768D01*
X0207766Y0163160D02*
X0190462Y0163160D01*
X0190462Y0163552D02*
X0207374Y0163552D01*
X0206981Y0163945D02*
X0190462Y0163945D01*
X0190462Y0164337D02*
X0206589Y0164337D01*
X0206197Y0164729D02*
X0190462Y0164729D01*
X0190462Y0165121D02*
X0205805Y0165121D01*
X0205413Y0165514D02*
X0190462Y0165514D01*
X0190462Y0165906D02*
X0205020Y0165906D01*
X0204628Y0166298D02*
X0190462Y0166298D01*
X0190462Y0166690D02*
X0204236Y0166690D01*
X0198125Y0167082D02*
X0190462Y0167082D01*
X0190462Y0167475D02*
X0197733Y0167475D01*
X0197341Y0167867D02*
X0190462Y0167867D01*
X0190340Y0168259D02*
X0196949Y0168259D01*
X0196556Y0168651D02*
X0189948Y0168651D01*
X0191026Y0171004D02*
X0184643Y0171004D01*
X0185491Y0171397D02*
X0190178Y0171397D01*
X0189786Y0171789D02*
X0185883Y0171789D01*
X0186275Y0172181D02*
X0189394Y0172181D01*
X0189002Y0172573D02*
X0186668Y0172573D01*
X0186852Y0172966D02*
X0188817Y0172966D01*
X0188655Y0173358D02*
X0187014Y0173358D01*
X0187177Y0173750D02*
X0188492Y0173750D01*
X0188330Y0174142D02*
X0187339Y0174142D01*
X0187400Y0174534D02*
X0188269Y0174534D01*
X0188269Y0174927D02*
X0187400Y0174927D01*
X0187400Y0175319D02*
X0188269Y0175319D01*
X0188269Y0175711D02*
X0187400Y0175711D01*
X0187400Y0176103D02*
X0188269Y0176103D01*
X0188431Y0176495D02*
X0187238Y0176495D01*
X0187076Y0176888D02*
X0188594Y0176888D01*
X0188756Y0177280D02*
X0186913Y0177280D01*
X0186751Y0177672D02*
X0188918Y0177672D01*
X0189246Y0178064D02*
X0186424Y0178064D01*
X0186031Y0178457D02*
X0189638Y0178457D01*
X0190030Y0178849D02*
X0185706Y0178849D01*
X0179964Y0178849D02*
X0175639Y0178849D01*
X0176031Y0178457D02*
X0179638Y0178457D01*
X0179246Y0178064D02*
X0176424Y0178064D01*
X0176751Y0177672D02*
X0178918Y0177672D01*
X0178756Y0177280D02*
X0176913Y0177280D01*
X0177076Y0176888D02*
X0178594Y0176888D01*
X0178431Y0176495D02*
X0177238Y0176495D01*
X0177400Y0176103D02*
X0178269Y0176103D01*
X0178269Y0175711D02*
X0177400Y0175711D01*
X0177400Y0175319D02*
X0178269Y0175319D01*
X0178269Y0174927D02*
X0177400Y0174927D01*
X0177400Y0174534D02*
X0178269Y0174534D01*
X0178330Y0174142D02*
X0177339Y0174142D01*
X0177177Y0173750D02*
X0178492Y0173750D01*
X0178655Y0173358D02*
X0177014Y0173358D01*
X0176852Y0172966D02*
X0178817Y0172966D01*
X0179002Y0172573D02*
X0176668Y0172573D01*
X0176275Y0172181D02*
X0179394Y0172181D01*
X0179786Y0171789D02*
X0175883Y0171789D01*
X0175491Y0171397D02*
X0180178Y0171397D01*
X0181026Y0171004D02*
X0175031Y0171004D01*
X0175031Y0170612D02*
X0194595Y0170612D01*
X0194987Y0170220D02*
X0175031Y0170220D01*
X0175031Y0169828D02*
X0195380Y0169828D01*
X0195772Y0169436D02*
X0175031Y0169436D01*
X0175031Y0169043D02*
X0196164Y0169043D01*
X0183851Y0168651D02*
X0183649Y0168651D01*
X0177552Y0168651D02*
X0175031Y0168651D01*
X0175031Y0168259D02*
X0177160Y0168259D01*
X0177038Y0167867D02*
X0175240Y0167867D01*
X0175632Y0167475D02*
X0177038Y0167475D01*
X0173341Y0163552D02*
X0170804Y0163552D01*
X0171197Y0163160D02*
X0173733Y0163160D01*
X0172949Y0163945D02*
X0170412Y0163945D01*
X0170020Y0164337D02*
X0172556Y0164337D01*
X0172164Y0164729D02*
X0169697Y0164729D01*
X0169697Y0165121D02*
X0171772Y0165121D01*
X0171380Y0165514D02*
X0169697Y0165514D01*
X0169697Y0165906D02*
X0170987Y0165906D01*
X0170638Y0166298D02*
X0169697Y0166298D01*
X0169697Y0166690D02*
X0170638Y0166690D01*
X0170638Y0167082D02*
X0169697Y0167082D01*
X0169697Y0167475D02*
X0170638Y0167475D01*
X0170638Y0167867D02*
X0169697Y0167867D01*
X0169697Y0168259D02*
X0170638Y0168259D01*
X0170638Y0168651D02*
X0169697Y0168651D01*
X0169697Y0169043D02*
X0170638Y0169043D01*
X0170638Y0169436D02*
X0169697Y0169436D01*
X0169697Y0169828D02*
X0170638Y0169828D01*
X0170638Y0170220D02*
X0169697Y0170220D01*
X0169697Y0170612D02*
X0170638Y0170612D01*
X0170638Y0171004D02*
X0169697Y0171004D01*
X0169697Y0171397D02*
X0170178Y0171397D01*
X0169786Y0171789D02*
X0169697Y0171789D01*
X0165303Y0171789D02*
X0001594Y0171789D01*
X0001594Y0172181D02*
X0165303Y0172181D01*
X0165303Y0172573D02*
X0001594Y0172573D01*
X0001594Y0172966D02*
X0165303Y0172966D01*
X0165303Y0173358D02*
X0001604Y0173358D01*
X0001635Y0173750D02*
X0165303Y0173750D01*
X0165303Y0174142D02*
X0001666Y0174142D01*
X0001696Y0174534D02*
X0165303Y0174534D01*
X0165303Y0174927D02*
X0001752Y0174927D01*
X0001879Y0175319D02*
X0165303Y0175319D01*
X0165303Y0175711D02*
X0002007Y0175711D01*
X0002134Y0176103D02*
X0165303Y0176103D01*
X0165303Y0176495D02*
X0002262Y0176495D01*
X0002389Y0176888D02*
X0165303Y0176888D01*
X0165303Y0177280D02*
X0002517Y0177280D01*
X0002644Y0177672D02*
X0165303Y0177672D01*
X0165303Y0178064D02*
X0002851Y0178064D01*
X0003136Y0178457D02*
X0165350Y0178457D01*
X0165742Y0178849D02*
X0003421Y0178849D01*
X0003706Y0179241D02*
X0166134Y0179241D01*
X0166526Y0179633D02*
X0003991Y0179633D01*
X0004276Y0180025D02*
X0166919Y0180025D01*
X0167311Y0180418D02*
X0004560Y0180418D01*
X0005077Y0180810D02*
X0167703Y0180810D01*
X0168095Y0181202D02*
X0005617Y0181202D01*
X0006157Y0181594D02*
X0168487Y0181594D01*
X0168880Y0181986D02*
X0006697Y0181986D01*
X0007316Y0182379D02*
X0169272Y0182379D01*
X0169053Y0182160D02*
X0169053Y0182160D01*
X0169664Y0182771D02*
X0008523Y0182771D01*
X0009730Y0183163D02*
X0170056Y0183163D01*
X0165303Y0171397D02*
X0001594Y0171397D01*
X0001594Y0171004D02*
X0165303Y0171004D01*
X0165303Y0170612D02*
X0001594Y0170612D01*
X0001594Y0170220D02*
X0165303Y0170220D01*
X0165303Y0169828D02*
X0001594Y0169828D01*
X0001594Y0169436D02*
X0165303Y0169436D01*
X0165303Y0169043D02*
X0001594Y0169043D01*
X0001594Y0168651D02*
X0165303Y0168651D01*
X0165303Y0168259D02*
X0001594Y0168259D01*
X0001594Y0167867D02*
X0165303Y0167867D01*
X0165303Y0167475D02*
X0001594Y0167475D01*
X0001594Y0167082D02*
X0165303Y0167082D01*
X0165303Y0166690D02*
X0001594Y0166690D01*
X0001594Y0166298D02*
X0165303Y0166298D01*
X0165303Y0165906D02*
X0001594Y0165906D01*
X0001594Y0165514D02*
X0165303Y0165514D01*
X0165303Y0165121D02*
X0001594Y0165121D01*
X0001594Y0164729D02*
X0165303Y0164729D01*
X0165303Y0164337D02*
X0001594Y0164337D01*
X0001594Y0163945D02*
X0165303Y0163945D01*
X0165303Y0163552D02*
X0001594Y0163552D01*
X0001594Y0163160D02*
X0165303Y0163160D01*
X0165375Y0162768D02*
X0001594Y0162768D01*
X0001594Y0162376D02*
X0165767Y0162376D01*
X0166160Y0161984D02*
X0001594Y0161984D01*
X0001594Y0161591D02*
X0166552Y0161591D01*
X0166944Y0161199D02*
X0001594Y0161199D01*
X0001594Y0160807D02*
X0167336Y0160807D01*
X0167728Y0160415D02*
X0001594Y0160415D01*
X0001594Y0160023D02*
X0168121Y0160023D01*
X0168513Y0159630D02*
X0001594Y0159630D01*
X0001594Y0159238D02*
X0168905Y0159238D01*
X0169297Y0158846D02*
X0001594Y0158846D01*
X0001594Y0158454D02*
X0169689Y0158454D01*
X0170082Y0158061D02*
X0001594Y0158061D01*
X0001594Y0157669D02*
X0013679Y0157669D01*
X0012732Y0157277D02*
X0001594Y0157277D01*
X0001594Y0156885D02*
X0011785Y0156885D01*
X0011290Y0156493D02*
X0001594Y0156493D01*
X0001594Y0156100D02*
X0010898Y0156100D01*
X0010506Y0155708D02*
X0001594Y0155708D01*
X0001594Y0155316D02*
X0010114Y0155316D01*
X0009721Y0154924D02*
X0001594Y0154924D01*
X0001594Y0154532D02*
X0009341Y0154532D01*
X0009179Y0154139D02*
X0001594Y0154139D01*
X0001594Y0153747D02*
X0009016Y0153747D01*
X0008854Y0153355D02*
X0001594Y0153355D01*
X0001594Y0152963D02*
X0008691Y0152963D01*
X0008529Y0152571D02*
X0001594Y0152571D01*
X0001594Y0152178D02*
X0008366Y0152178D01*
X0008204Y0151786D02*
X0001594Y0151786D01*
X0001594Y0151394D02*
X0008126Y0151394D01*
X0008126Y0151002D02*
X0001594Y0151002D01*
X0001594Y0150609D02*
X0008126Y0150609D01*
X0008126Y0150217D02*
X0001594Y0150217D01*
X0001594Y0149825D02*
X0008126Y0149825D01*
X0008126Y0149433D02*
X0001594Y0149433D01*
X0001594Y0149041D02*
X0008126Y0149041D01*
X0008126Y0148648D02*
X0001594Y0148648D01*
X0001594Y0148256D02*
X0008186Y0148256D01*
X0008349Y0147864D02*
X0001594Y0147864D01*
X0001594Y0147472D02*
X0008511Y0147472D01*
X0008674Y0147080D02*
X0001594Y0147080D01*
X0001594Y0146687D02*
X0008836Y0146687D01*
X0008999Y0146295D02*
X0001594Y0146295D01*
X0001594Y0145903D02*
X0009161Y0145903D01*
X0009323Y0145511D02*
X0001594Y0145511D01*
X0001594Y0145118D02*
X0009679Y0145118D01*
X0010071Y0144726D02*
X0001594Y0144726D01*
X0001594Y0144334D02*
X0010464Y0144334D01*
X0010856Y0143942D02*
X0001594Y0143942D01*
X0001594Y0143550D02*
X0011248Y0143550D01*
X0011683Y0143157D02*
X0001594Y0143157D01*
X0001594Y0142765D02*
X0012630Y0142765D01*
X0013577Y0142373D02*
X0001594Y0142373D01*
X0001594Y0141981D02*
X0014524Y0141981D01*
X0014563Y0138035D02*
X0011610Y0136812D01*
X0009349Y0134552D01*
X0008126Y0131598D01*
X0008126Y0128402D01*
X0009349Y0125448D01*
X0011610Y0123188D01*
X0014563Y0121965D01*
X0014603Y0121965D01*
X0014603Y0118497D01*
X0011921Y0118497D01*
X0008540Y0117097D01*
X0005953Y0114510D01*
X0004553Y0111129D01*
X0004553Y0107471D01*
X0005953Y0104090D01*
X0008540Y0101503D01*
X0011921Y0100103D01*
X0025579Y0100103D01*
X0028960Y0101503D01*
X0031547Y0104090D01*
X0032947Y0107471D01*
X0032947Y0111129D01*
X0031547Y0114510D01*
X0028960Y0117097D01*
X0025579Y0118497D01*
X0025397Y0118497D01*
X0025397Y0121965D01*
X0025437Y0121965D01*
X0028390Y0123188D01*
X0030651Y0125448D01*
X0031874Y0128402D01*
X0031874Y0131598D01*
X0030651Y0134552D01*
X0028390Y0136812D01*
X0025437Y0138035D01*
X0014563Y0138035D01*
X0013672Y0137666D02*
X0001594Y0137666D01*
X0001594Y0137274D02*
X0012725Y0137274D01*
X0011779Y0136882D02*
X0001594Y0136882D01*
X0001594Y0136490D02*
X0011287Y0136490D01*
X0010895Y0136098D02*
X0001594Y0136098D01*
X0001594Y0135705D02*
X0010503Y0135705D01*
X0010111Y0135313D02*
X0001594Y0135313D01*
X0001594Y0134921D02*
X0009719Y0134921D01*
X0009340Y0134529D02*
X0001594Y0134529D01*
X0001594Y0134137D02*
X0009177Y0134137D01*
X0009015Y0133744D02*
X0001594Y0133744D01*
X0001594Y0133352D02*
X0008852Y0133352D01*
X0008690Y0132960D02*
X0001594Y0132960D01*
X0001594Y0132568D02*
X0008528Y0132568D01*
X0008365Y0132175D02*
X0001594Y0132175D01*
X0001594Y0131783D02*
X0008203Y0131783D01*
X0008126Y0131391D02*
X0001594Y0131391D01*
X0001594Y0130999D02*
X0008126Y0130999D01*
X0008126Y0130607D02*
X0001594Y0130607D01*
X0001594Y0130214D02*
X0008126Y0130214D01*
X0008126Y0129822D02*
X0001594Y0129822D01*
X0001594Y0129430D02*
X0008126Y0129430D01*
X0008126Y0129038D02*
X0001594Y0129038D01*
X0001594Y0128646D02*
X0008126Y0128646D01*
X0008187Y0128253D02*
X0001594Y0128253D01*
X0001594Y0127861D02*
X0008350Y0127861D01*
X0008512Y0127469D02*
X0001594Y0127469D01*
X0001594Y0127077D02*
X0008675Y0127077D01*
X0008837Y0126685D02*
X0001594Y0126685D01*
X0001594Y0126292D02*
X0009000Y0126292D01*
X0009162Y0125900D02*
X0001594Y0125900D01*
X0001594Y0125508D02*
X0009325Y0125508D01*
X0009682Y0125116D02*
X0001594Y0125116D01*
X0001594Y0124723D02*
X0010074Y0124723D01*
X0010466Y0124331D02*
X0001594Y0124331D01*
X0001594Y0123939D02*
X0010859Y0123939D01*
X0011251Y0123547D02*
X0001594Y0123547D01*
X0001594Y0123155D02*
X0011690Y0123155D01*
X0012637Y0122762D02*
X0001594Y0122762D01*
X0001594Y0122370D02*
X0013584Y0122370D01*
X0014531Y0121978D02*
X0001594Y0121978D01*
X0001594Y0121586D02*
X0014603Y0121586D01*
X0014603Y0121194D02*
X0001594Y0121194D01*
X0001594Y0120801D02*
X0014603Y0120801D01*
X0014603Y0120409D02*
X0001594Y0120409D01*
X0001594Y0120017D02*
X0014603Y0120017D01*
X0014603Y0119625D02*
X0001594Y0119625D01*
X0001594Y0119232D02*
X0014603Y0119232D01*
X0014603Y0118840D02*
X0001594Y0118840D01*
X0001594Y0118448D02*
X0011803Y0118448D01*
X0010856Y0118056D02*
X0001594Y0118056D01*
X0001594Y0117664D02*
X0009909Y0117664D01*
X0008962Y0117271D02*
X0001594Y0117271D01*
X0001594Y0116879D02*
X0008323Y0116879D01*
X0007931Y0116487D02*
X0001594Y0116487D01*
X0001594Y0116095D02*
X0007538Y0116095D01*
X0007146Y0115703D02*
X0001594Y0115703D01*
X0001594Y0115310D02*
X0006754Y0115310D01*
X0006362Y0114918D02*
X0001594Y0114918D01*
X0001594Y0114526D02*
X0005970Y0114526D01*
X0005798Y0114134D02*
X0001594Y0114134D01*
X0001594Y0113742D02*
X0005635Y0113742D01*
X0005473Y0113349D02*
X0001594Y0113349D01*
X0001594Y0112957D02*
X0005310Y0112957D01*
X0005148Y0112565D02*
X0001594Y0112565D01*
X0001594Y0112173D02*
X0004985Y0112173D01*
X0004823Y0111780D02*
X0001594Y0111780D01*
X0001594Y0111388D02*
X0004660Y0111388D01*
X0004553Y0110996D02*
X0001594Y0110996D01*
X0001594Y0110604D02*
X0004553Y0110604D01*
X0004553Y0110212D02*
X0001594Y0110212D01*
X0001594Y0109819D02*
X0004553Y0109819D01*
X0004553Y0109427D02*
X0001594Y0109427D01*
X0001594Y0109035D02*
X0004553Y0109035D01*
X0004553Y0108643D02*
X0001594Y0108643D01*
X0001594Y0108251D02*
X0004553Y0108251D01*
X0004553Y0107858D02*
X0001594Y0107858D01*
X0001594Y0107466D02*
X0004555Y0107466D01*
X0004717Y0107074D02*
X0001594Y0107074D01*
X0001594Y0106682D02*
X0004880Y0106682D01*
X0005042Y0106289D02*
X0001594Y0106289D01*
X0001594Y0105897D02*
X0005205Y0105897D01*
X0005367Y0105505D02*
X0001594Y0105505D01*
X0001594Y0105113D02*
X0005530Y0105113D01*
X0005692Y0104721D02*
X0001594Y0104721D01*
X0001594Y0104328D02*
X0005855Y0104328D01*
X0006107Y0103936D02*
X0001594Y0103936D01*
X0001594Y0103544D02*
X0006500Y0103544D01*
X0006892Y0103152D02*
X0001594Y0103152D01*
X0001594Y0102760D02*
X0007284Y0102760D01*
X0007676Y0102367D02*
X0001594Y0102367D01*
X0001594Y0101975D02*
X0008069Y0101975D01*
X0008461Y0101583D02*
X0001594Y0101583D01*
X0001594Y0101191D02*
X0009295Y0101191D01*
X0010242Y0100799D02*
X0001594Y0100799D01*
X0001594Y0100406D02*
X0011189Y0100406D01*
X0001594Y0100014D02*
X0092403Y0100014D01*
X0092403Y0099622D02*
X0001594Y0099622D01*
X0001594Y0099230D02*
X0092403Y0099230D01*
X0092403Y0098837D02*
X0001594Y0098837D01*
X0001594Y0098445D02*
X0092403Y0098445D01*
X0092403Y0098053D02*
X0001594Y0098053D01*
X0001594Y0097661D02*
X0092403Y0097661D01*
X0092403Y0097269D02*
X0001594Y0097269D01*
X0001594Y0096876D02*
X0092403Y0096876D01*
X0092403Y0096484D02*
X0001594Y0096484D01*
X0001594Y0096092D02*
X0092403Y0096092D01*
X0092403Y0095700D02*
X0001594Y0095700D01*
X0001594Y0095308D02*
X0092403Y0095308D01*
X0092403Y0094915D02*
X0001594Y0094915D01*
X0001594Y0094523D02*
X0092403Y0094523D01*
X0092403Y0094131D02*
X0001594Y0094131D01*
X0001594Y0093739D02*
X0092403Y0093739D01*
X0092403Y0093346D02*
X0001594Y0093346D01*
X0001594Y0092954D02*
X0092403Y0092954D01*
X0092403Y0092562D02*
X0001594Y0092562D01*
X0001594Y0092170D02*
X0092403Y0092170D01*
X0092403Y0091778D02*
X0001594Y0091778D01*
X0001594Y0091385D02*
X0092403Y0091385D01*
X0092403Y0090993D02*
X0001594Y0090993D01*
X0001594Y0090601D02*
X0092403Y0090601D01*
X0092403Y0090209D02*
X0001594Y0090209D01*
X0001594Y0089817D02*
X0092403Y0089817D01*
X0092403Y0089424D02*
X0001594Y0089424D01*
X0001594Y0089032D02*
X0092403Y0089032D01*
X0092403Y0088640D02*
X0001594Y0088640D01*
X0001594Y0088248D02*
X0092403Y0088248D01*
X0092403Y0087856D02*
X0001594Y0087856D01*
X0001594Y0087463D02*
X0092403Y0087463D01*
X0092403Y0087071D02*
X0001594Y0087071D01*
X0001594Y0086679D02*
X0092403Y0086679D01*
X0092403Y0086287D02*
X0001594Y0086287D01*
X0001594Y0085894D02*
X0092403Y0085894D01*
X0092403Y0085502D02*
X0001594Y0085502D01*
X0001594Y0085110D02*
X0030734Y0085110D01*
X0029787Y0084718D02*
X0001594Y0084718D01*
X0001594Y0084326D02*
X0029193Y0084326D01*
X0028801Y0083933D02*
X0001594Y0083933D01*
X0001594Y0083541D02*
X0028409Y0083541D01*
X0028017Y0083149D02*
X0001594Y0083149D01*
X0001594Y0082757D02*
X0027624Y0082757D01*
X0027232Y0082365D02*
X0001594Y0082365D01*
X0001594Y0081972D02*
X0026840Y0081972D01*
X0026448Y0081580D02*
X0001594Y0081580D01*
X0001594Y0081188D02*
X0026056Y0081188D01*
X0025663Y0080796D02*
X0001594Y0080796D01*
X0001594Y0080403D02*
X0025271Y0080403D01*
X0024879Y0080011D02*
X0001594Y0080011D01*
X0001594Y0079619D02*
X0024487Y0079619D01*
X0024095Y0079227D02*
X0001594Y0079227D01*
X0001594Y0078835D02*
X0023702Y0078835D01*
X0023310Y0078442D02*
X0001594Y0078442D01*
X0001594Y0078050D02*
X0022918Y0078050D01*
X0022526Y0077658D02*
X0001594Y0077658D01*
X0001594Y0077266D02*
X0022133Y0077266D01*
X0021741Y0076874D02*
X0001594Y0076874D01*
X0001594Y0076481D02*
X0021349Y0076481D01*
X0020957Y0076089D02*
X0001594Y0076089D01*
X0001594Y0075697D02*
X0020565Y0075697D01*
X0020172Y0075305D02*
X0001594Y0075305D01*
X0001594Y0074913D02*
X0019780Y0074913D01*
X0019388Y0074520D02*
X0001594Y0074520D01*
X0001594Y0074128D02*
X0018996Y0074128D01*
X0018604Y0073736D02*
X0001594Y0073736D01*
X0001594Y0073344D02*
X0018211Y0073344D01*
X0017819Y0072951D02*
X0001594Y0072951D01*
X0001594Y0072559D02*
X0017427Y0072559D01*
X0017035Y0072167D02*
X0001594Y0072167D01*
X0001594Y0071775D02*
X0016643Y0071775D01*
X0016250Y0071383D02*
X0001594Y0071383D01*
X0001594Y0070990D02*
X0015858Y0070990D01*
X0015466Y0070598D02*
X0001594Y0070598D01*
X0001594Y0070206D02*
X0015074Y0070206D01*
X0014681Y0069814D02*
X0001594Y0069814D01*
X0001594Y0069422D02*
X0014289Y0069422D01*
X0014060Y0069029D02*
X0001594Y0069029D01*
X0001594Y0068637D02*
X0013897Y0068637D01*
X0013735Y0068245D02*
X0001594Y0068245D01*
X0001594Y0067853D02*
X0013572Y0067853D01*
X0013410Y0067460D02*
X0001594Y0067460D01*
X0001594Y0067068D02*
X0013353Y0067068D01*
X0013353Y0066676D02*
X0001594Y0066676D01*
X0001594Y0066284D02*
X0013353Y0066284D01*
X0013353Y0065892D02*
X0001594Y0065892D01*
X0001594Y0065499D02*
X0013353Y0065499D01*
X0013353Y0065107D02*
X0001594Y0065107D01*
X0001594Y0064715D02*
X0013353Y0064715D01*
X0013353Y0064323D02*
X0001594Y0064323D01*
X0001594Y0063931D02*
X0013353Y0063931D01*
X0013353Y0063538D02*
X0001594Y0063538D01*
X0001594Y0063146D02*
X0013353Y0063146D01*
X0013353Y0062754D02*
X0001594Y0062754D01*
X0001594Y0062362D02*
X0013353Y0062362D01*
X0013353Y0061970D02*
X0001594Y0061970D01*
X0001594Y0061577D02*
X0013353Y0061577D01*
X0013353Y0061185D02*
X0001594Y0061185D01*
X0001594Y0060793D02*
X0013353Y0060793D01*
X0013353Y0060401D02*
X0001594Y0060401D01*
X0001594Y0060008D02*
X0013353Y0060008D01*
X0013353Y0059616D02*
X0001594Y0059616D01*
X0001594Y0059224D02*
X0013353Y0059224D01*
X0013353Y0058832D02*
X0001594Y0058832D01*
X0001594Y0058440D02*
X0013353Y0058440D01*
X0013353Y0058047D02*
X0001594Y0058047D01*
X0001594Y0057655D02*
X0013353Y0057655D01*
X0013353Y0057263D02*
X0001594Y0057263D01*
X0001594Y0056871D02*
X0013353Y0056871D01*
X0013353Y0056479D02*
X0001594Y0056479D01*
X0001594Y0056086D02*
X0013353Y0056086D01*
X0013353Y0055694D02*
X0001594Y0055694D01*
X0001594Y0055302D02*
X0013353Y0055302D01*
X0013353Y0054910D02*
X0001594Y0054910D01*
X0001594Y0054517D02*
X0013353Y0054517D01*
X0013353Y0054125D02*
X0001594Y0054125D01*
X0001594Y0053733D02*
X0013353Y0053733D01*
X0013353Y0053341D02*
X0001594Y0053341D01*
X0001594Y0052949D02*
X0013353Y0052949D01*
X0013353Y0052556D02*
X0001594Y0052556D01*
X0001594Y0052164D02*
X0013353Y0052164D01*
X0013353Y0051772D02*
X0001594Y0051772D01*
X0001594Y0051380D02*
X0013353Y0051380D01*
X0013353Y0050988D02*
X0001594Y0050988D01*
X0001594Y0050595D02*
X0013353Y0050595D01*
X0013353Y0050203D02*
X0001594Y0050203D01*
X0001594Y0049811D02*
X0013353Y0049811D01*
X0013353Y0049419D02*
X0001594Y0049419D01*
X0001594Y0049027D02*
X0013353Y0049027D01*
X0013353Y0048634D02*
X0001594Y0048634D01*
X0001594Y0048242D02*
X0013353Y0048242D01*
X0013353Y0047850D02*
X0001594Y0047850D01*
X0001594Y0047458D02*
X0013353Y0047458D01*
X0013353Y0047065D02*
X0001594Y0047065D01*
X0001594Y0046673D02*
X0013353Y0046673D01*
X0013353Y0046281D02*
X0001594Y0046281D01*
X0001594Y0045889D02*
X0013353Y0045889D01*
X0013353Y0045497D02*
X0001594Y0045497D01*
X0001594Y0045104D02*
X0013353Y0045104D01*
X0013353Y0044712D02*
X0001594Y0044712D01*
X0001594Y0044320D02*
X0013353Y0044320D01*
X0013353Y0043928D02*
X0001594Y0043928D01*
X0001594Y0043536D02*
X0013353Y0043536D01*
X0013353Y0043143D02*
X0001594Y0043143D01*
X0001594Y0042751D02*
X0013353Y0042751D01*
X0013353Y0042359D02*
X0001594Y0042359D01*
X0001594Y0041967D02*
X0013353Y0041967D01*
X0013353Y0041574D02*
X0001594Y0041574D01*
X0001594Y0041182D02*
X0013353Y0041182D01*
X0013353Y0040790D02*
X0001594Y0040790D01*
X0001594Y0040398D02*
X0013353Y0040398D01*
X0013353Y0040006D02*
X0001594Y0040006D01*
X0001594Y0039613D02*
X0013353Y0039613D01*
X0013353Y0039221D02*
X0001594Y0039221D01*
X0001594Y0038829D02*
X0013353Y0038829D01*
X0013353Y0038437D02*
X0001594Y0038437D01*
X0001594Y0038045D02*
X0013353Y0038045D01*
X0013353Y0037652D02*
X0001594Y0037652D01*
X0001594Y0037260D02*
X0013353Y0037260D01*
X0013353Y0036868D02*
X0001594Y0036868D01*
X0001594Y0036476D02*
X0013353Y0036476D01*
X0013353Y0036084D02*
X0001594Y0036084D01*
X0001594Y0035691D02*
X0013353Y0035691D01*
X0013353Y0035299D02*
X0001594Y0035299D01*
X0001594Y0034907D02*
X0013353Y0034907D01*
X0013353Y0034515D02*
X0001594Y0034515D01*
X0001594Y0034122D02*
X0013353Y0034122D01*
X0013353Y0033730D02*
X0001594Y0033730D01*
X0001594Y0033338D02*
X0013353Y0033338D01*
X0013353Y0032946D02*
X0001594Y0032946D01*
X0001594Y0032554D02*
X0013353Y0032554D01*
X0013353Y0032161D02*
X0001594Y0032161D01*
X0001594Y0031769D02*
X0013353Y0031769D01*
X0013353Y0031377D02*
X0001594Y0031377D01*
X0001594Y0030985D02*
X0013353Y0030985D01*
X0013353Y0030593D02*
X0001594Y0030593D01*
X0001594Y0030200D02*
X0013353Y0030200D01*
X0011706Y0029808D02*
X0001594Y0029808D01*
X0001594Y0029416D02*
X0010760Y0029416D01*
X0009813Y0029024D02*
X0001594Y0029024D01*
X0001594Y0028631D02*
X0008866Y0028631D01*
X0008283Y0028239D02*
X0001594Y0028239D01*
X0001594Y0027847D02*
X0007891Y0027847D01*
X0007499Y0027455D02*
X0001594Y0027455D01*
X0001594Y0027063D02*
X0007106Y0027063D01*
X0006714Y0026670D02*
X0001594Y0026670D01*
X0001594Y0026278D02*
X0006322Y0026278D01*
X0005944Y0025886D02*
X0001594Y0025886D01*
X0001594Y0025494D02*
X0005781Y0025494D01*
X0005619Y0025102D02*
X0001594Y0025102D01*
X0001594Y0024709D02*
X0005456Y0024709D01*
X0005294Y0024317D02*
X0001594Y0024317D01*
X0001594Y0023925D02*
X0005131Y0023925D01*
X0004969Y0023533D02*
X0001594Y0023533D01*
X0001594Y0023141D02*
X0004806Y0023141D01*
X0004644Y0022748D02*
X0001594Y0022748D01*
X0001594Y0022356D02*
X0004553Y0022356D01*
X0004553Y0021964D02*
X0001594Y0021964D01*
X0001594Y0021572D02*
X0004553Y0021572D01*
X0004553Y0021179D02*
X0001594Y0021179D01*
X0001594Y0020787D02*
X0004553Y0020787D01*
X0004553Y0020395D02*
X0001594Y0020395D01*
X0001594Y0020003D02*
X0004553Y0020003D01*
X0004553Y0019611D02*
X0001594Y0019611D01*
X0001594Y0019218D02*
X0004553Y0019218D01*
X0004572Y0018826D02*
X0001594Y0018826D01*
X0001594Y0018434D02*
X0004734Y0018434D01*
X0004896Y0018042D02*
X0001594Y0018042D01*
X0001594Y0017650D02*
X0005059Y0017650D01*
X0005221Y0017257D02*
X0001594Y0017257D01*
X0001594Y0016865D02*
X0005384Y0016865D01*
X0005546Y0016473D02*
X0001594Y0016473D01*
X0001594Y0016081D02*
X0005709Y0016081D01*
X0005871Y0015688D02*
X0001594Y0015688D01*
X0001594Y0015296D02*
X0006147Y0015296D01*
X0006540Y0014904D02*
X0001594Y0014904D01*
X0001594Y0014512D02*
X0006932Y0014512D01*
X0007324Y0014120D02*
X0001594Y0014120D01*
X0001594Y0013727D02*
X0007716Y0013727D01*
X0008108Y0013335D02*
X0001594Y0013335D01*
X0001594Y0012943D02*
X0008501Y0012943D01*
X0009391Y0012551D02*
X0001594Y0012551D01*
X0001594Y0012159D02*
X0010338Y0012159D01*
X0011285Y0011766D02*
X0001597Y0011766D01*
X0001628Y0011374D02*
X0132028Y0011374D01*
X0132028Y0010982D02*
X0001659Y0010982D01*
X0001690Y0010590D02*
X0132289Y0010590D01*
X0132681Y0010198D02*
X0001724Y0010198D01*
X0009469Y0001961D02*
X0384232Y0001961D01*
X0385439Y0002353D02*
X0268618Y0002353D01*
X0269565Y0002745D02*
X0386581Y0002745D01*
X0387121Y0003138D02*
X0270263Y0003138D01*
X0270655Y0003530D02*
X0387661Y0003530D01*
X0388200Y0003922D02*
X0271047Y0003922D01*
X0271399Y0004314D02*
X0388740Y0004314D01*
X0389202Y0004707D02*
X0271561Y0004707D01*
X0271724Y0005099D02*
X0389487Y0005099D01*
X0389772Y0005491D02*
X0271886Y0005491D01*
X0272049Y0005883D02*
X0390057Y0005883D01*
X0390342Y0006275D02*
X0272065Y0006275D01*
X0272065Y0006668D02*
X0390627Y0006668D01*
X0390912Y0007060D02*
X0272065Y0007060D01*
X0272065Y0007452D02*
X0391084Y0007452D01*
X0391212Y0007844D02*
X0272065Y0007844D01*
X0272065Y0008236D02*
X0391339Y0008236D01*
X0391467Y0008629D02*
X0272065Y0008629D01*
X0272065Y0009021D02*
X0391594Y0009021D01*
X0391722Y0009413D02*
X0272065Y0009413D01*
X0272065Y0009805D02*
X0391849Y0009805D01*
X0391976Y0010198D02*
X0272065Y0010198D01*
X0272065Y0010590D02*
X0392011Y0010590D01*
X0392042Y0010982D02*
X0272065Y0010982D01*
X0272065Y0011374D02*
X0392073Y0011374D01*
X0392104Y0011766D02*
X0272065Y0011766D01*
X0272065Y0012159D02*
X0392107Y0012159D01*
X0392107Y0012551D02*
X0272065Y0012551D01*
X0272065Y0012943D02*
X0392107Y0012943D01*
X0392107Y0013335D02*
X0272065Y0013335D01*
X0272065Y0013727D02*
X0392107Y0013727D01*
X0392107Y0014120D02*
X0272048Y0014120D01*
X0271885Y0014512D02*
X0392107Y0014512D01*
X0392107Y0014904D02*
X0271723Y0014904D01*
X0271560Y0015296D02*
X0392107Y0015296D01*
X0392107Y0015688D02*
X0271398Y0015688D01*
X0271044Y0016081D02*
X0392107Y0016081D01*
X0392107Y0016473D02*
X0270834Y0016473D01*
X0271781Y0016865D02*
X0275311Y0016865D01*
X0274919Y0017257D02*
X0272317Y0017257D01*
X0272710Y0017650D02*
X0274526Y0017650D01*
X0266394Y0019218D02*
X0263292Y0019218D01*
X0262900Y0018826D02*
X0266002Y0018826D01*
X0265610Y0018434D02*
X0262508Y0018434D01*
X0262116Y0018042D02*
X0265503Y0018042D01*
X0265503Y0017650D02*
X0261723Y0017650D01*
X0261331Y0017257D02*
X0265441Y0017257D01*
X0264740Y0016865D02*
X0260939Y0016865D01*
X0260652Y0016473D02*
X0264348Y0016473D01*
X0263956Y0016081D02*
X0261044Y0016081D01*
X0261398Y0015688D02*
X0263602Y0015688D01*
X0263440Y0015296D02*
X0261560Y0015296D01*
X0261723Y0014904D02*
X0263277Y0014904D01*
X0263115Y0014512D02*
X0261885Y0014512D01*
X0262048Y0014120D02*
X0262952Y0014120D01*
X0262935Y0013727D02*
X0262065Y0013727D01*
X0262065Y0013335D02*
X0262935Y0013335D01*
X0262935Y0012943D02*
X0262065Y0012943D01*
X0262065Y0012551D02*
X0262935Y0012551D01*
X0262935Y0012159D02*
X0262065Y0012159D01*
X0262065Y0011766D02*
X0262935Y0011766D01*
X0262935Y0011374D02*
X0262065Y0011374D01*
X0262065Y0010982D02*
X0262935Y0010982D01*
X0262935Y0010590D02*
X0262065Y0010590D01*
X0262065Y0010198D02*
X0262935Y0010198D01*
X0262935Y0009805D02*
X0262065Y0009805D01*
X0262065Y0009413D02*
X0262935Y0009413D01*
X0262935Y0009021D02*
X0262065Y0009021D01*
X0262065Y0008629D02*
X0262935Y0008629D01*
X0262935Y0008236D02*
X0262065Y0008236D01*
X0262065Y0007844D02*
X0262935Y0007844D01*
X0262935Y0007452D02*
X0262065Y0007452D01*
X0262065Y0007060D02*
X0262935Y0007060D01*
X0262935Y0006668D02*
X0262065Y0006668D01*
X0262065Y0006275D02*
X0262935Y0006275D01*
X0262951Y0005883D02*
X0262049Y0005883D01*
X0261886Y0005491D02*
X0263114Y0005491D01*
X0263276Y0005099D02*
X0261724Y0005099D01*
X0261561Y0004707D02*
X0263439Y0004707D01*
X0263601Y0004314D02*
X0261399Y0004314D01*
X0261047Y0003922D02*
X0263953Y0003922D01*
X0264345Y0003530D02*
X0260655Y0003530D01*
X0260263Y0003138D02*
X0264737Y0003138D01*
X0265435Y0002745D02*
X0259565Y0002745D01*
X0258618Y0002353D02*
X0266382Y0002353D01*
X0256382Y0002353D02*
X0248618Y0002353D01*
X0249565Y0002745D02*
X0255435Y0002745D01*
X0254737Y0003138D02*
X0250263Y0003138D01*
X0250655Y0003530D02*
X0254345Y0003530D01*
X0253953Y0003922D02*
X0251047Y0003922D01*
X0251399Y0004314D02*
X0253601Y0004314D01*
X0253439Y0004707D02*
X0251561Y0004707D01*
X0251724Y0005099D02*
X0253276Y0005099D01*
X0253114Y0005491D02*
X0251886Y0005491D01*
X0252049Y0005883D02*
X0252951Y0005883D01*
X0252935Y0006275D02*
X0252065Y0006275D01*
X0252065Y0006668D02*
X0252935Y0006668D01*
X0252935Y0007060D02*
X0252065Y0007060D01*
X0252065Y0007452D02*
X0252935Y0007452D01*
X0252935Y0007844D02*
X0252065Y0007844D01*
X0252065Y0008236D02*
X0252935Y0008236D01*
X0252935Y0008629D02*
X0252065Y0008629D01*
X0252065Y0009021D02*
X0252935Y0009021D01*
X0252935Y0009413D02*
X0252065Y0009413D01*
X0252065Y0009805D02*
X0252935Y0009805D01*
X0252935Y0010198D02*
X0252065Y0010198D01*
X0252065Y0010590D02*
X0252935Y0010590D01*
X0252935Y0010982D02*
X0252065Y0010982D01*
X0252065Y0011374D02*
X0252935Y0011374D01*
X0252935Y0011766D02*
X0252065Y0011766D01*
X0252065Y0012159D02*
X0252935Y0012159D01*
X0252935Y0012551D02*
X0252065Y0012551D01*
X0252065Y0012943D02*
X0252935Y0012943D01*
X0252935Y0013335D02*
X0252065Y0013335D01*
X0252065Y0013727D02*
X0252935Y0013727D01*
X0252952Y0014120D02*
X0252048Y0014120D01*
X0251885Y0014512D02*
X0253115Y0014512D01*
X0253277Y0014904D02*
X0251723Y0014904D01*
X0251560Y0015296D02*
X0253440Y0015296D01*
X0253602Y0015688D02*
X0251398Y0015688D01*
X0251044Y0016081D02*
X0253956Y0016081D01*
X0254348Y0016473D02*
X0250652Y0016473D01*
X0250260Y0016865D02*
X0254740Y0016865D01*
X0255441Y0017257D02*
X0250097Y0017257D01*
X0238346Y0022356D02*
X0207678Y0022356D01*
X0208070Y0022748D02*
X0220572Y0022748D01*
X0220179Y0023141D02*
X0208405Y0023141D01*
X0208405Y0023533D02*
X0211618Y0023533D01*
X0211226Y0023925D02*
X0208405Y0023925D01*
X0200432Y0022356D02*
X0198623Y0022356D01*
X0199015Y0022748D02*
X0200040Y0022748D01*
X0199706Y0023141D02*
X0199350Y0023141D01*
X0199350Y0023533D02*
X0199706Y0023533D01*
X0199706Y0023925D02*
X0199350Y0023925D01*
X0199350Y0024317D02*
X0199706Y0024317D01*
X0199706Y0024709D02*
X0199350Y0024709D01*
X0199350Y0025102D02*
X0199706Y0025102D01*
X0199706Y0025494D02*
X0199350Y0025494D01*
X0199350Y0025886D02*
X0199706Y0025886D01*
X0199706Y0026278D02*
X0199350Y0026278D01*
X0199350Y0026670D02*
X0199706Y0026670D01*
X0199706Y0027063D02*
X0199350Y0027063D01*
X0199350Y0027455D02*
X0199706Y0027455D01*
X0199706Y0027847D02*
X0199350Y0027847D01*
X0199350Y0028239D02*
X0199706Y0028239D01*
X0199706Y0028631D02*
X0199350Y0028631D01*
X0199350Y0029024D02*
X0199706Y0029024D01*
X0199706Y0029416D02*
X0199350Y0029416D01*
X0199350Y0029808D02*
X0199706Y0029808D01*
X0199706Y0030200D02*
X0199350Y0030200D01*
X0199350Y0030593D02*
X0199706Y0030593D01*
X0199706Y0030985D02*
X0199350Y0030985D01*
X0199350Y0031377D02*
X0199706Y0031377D01*
X0199706Y0031769D02*
X0199350Y0031769D01*
X0199302Y0032161D02*
X0199753Y0032161D01*
X0200145Y0032554D02*
X0198910Y0032554D01*
X0198397Y0032946D02*
X0234632Y0032946D01*
X0235024Y0032554D02*
X0207965Y0032554D01*
X0208357Y0032161D02*
X0235416Y0032161D01*
X0235808Y0031769D02*
X0208405Y0031769D01*
X0208405Y0031377D02*
X0220720Y0031377D01*
X0220328Y0030985D02*
X0208405Y0030985D01*
X0208405Y0030593D02*
X0220060Y0030593D01*
X0220060Y0030200D02*
X0218350Y0030200D01*
X0218742Y0029808D02*
X0220060Y0029808D01*
X0211650Y0030200D02*
X0208405Y0030200D01*
X0208405Y0029808D02*
X0211258Y0029808D01*
X0218956Y0024317D02*
X0220060Y0024317D01*
X0220060Y0023925D02*
X0218774Y0023925D01*
X0218382Y0023533D02*
X0220060Y0023533D01*
X0229428Y0022748D02*
X0237953Y0022748D01*
X0237835Y0023141D02*
X0229821Y0023141D01*
X0229940Y0023533D02*
X0237835Y0023533D01*
X0237835Y0023925D02*
X0229940Y0023925D01*
X0229940Y0029416D02*
X0237835Y0029416D01*
X0237835Y0029808D02*
X0229940Y0029808D01*
X0229940Y0030200D02*
X0237516Y0030200D01*
X0236985Y0030593D02*
X0229940Y0030593D01*
X0229672Y0030985D02*
X0236593Y0030985D01*
X0236201Y0031377D02*
X0229280Y0031377D01*
X0233965Y0033730D02*
X0198397Y0033730D01*
X0198397Y0033338D02*
X0234239Y0033338D01*
X0233803Y0034122D02*
X0198397Y0034122D01*
X0198397Y0034515D02*
X0233653Y0034515D01*
X0233653Y0034907D02*
X0198397Y0034907D01*
X0198397Y0035299D02*
X0233653Y0035299D01*
X0233653Y0035691D02*
X0198397Y0035691D01*
X0198397Y0036084D02*
X0233653Y0036084D01*
X0233653Y0036476D02*
X0198397Y0036476D01*
X0198397Y0036868D02*
X0233653Y0036868D01*
X0233653Y0037260D02*
X0198397Y0037260D01*
X0198397Y0037652D02*
X0233653Y0037652D01*
X0233653Y0038045D02*
X0198397Y0038045D01*
X0198397Y0038437D02*
X0233653Y0038437D01*
X0233653Y0038829D02*
X0198397Y0038829D01*
X0198397Y0039221D02*
X0233653Y0039221D01*
X0233653Y0039613D02*
X0198397Y0039613D01*
X0198397Y0040006D02*
X0233653Y0040006D01*
X0233653Y0040398D02*
X0198397Y0040398D01*
X0198397Y0040790D02*
X0233653Y0040790D01*
X0233653Y0041182D02*
X0198397Y0041182D01*
X0198397Y0041574D02*
X0233653Y0041574D01*
X0233653Y0041967D02*
X0198397Y0041967D01*
X0198397Y0042359D02*
X0233653Y0042359D01*
X0233653Y0042751D02*
X0198397Y0042751D01*
X0198397Y0043143D02*
X0233653Y0043143D01*
X0233653Y0043536D02*
X0198397Y0043536D01*
X0198397Y0043928D02*
X0233653Y0043928D01*
X0233653Y0044320D02*
X0198397Y0044320D01*
X0198397Y0044712D02*
X0233653Y0044712D01*
X0233653Y0045104D02*
X0198397Y0045104D01*
X0198397Y0045497D02*
X0233653Y0045497D01*
X0233653Y0045889D02*
X0198397Y0045889D01*
X0198397Y0046281D02*
X0233653Y0046281D01*
X0233653Y0046673D02*
X0198397Y0046673D01*
X0198397Y0047065D02*
X0233653Y0047065D01*
X0233653Y0047458D02*
X0203449Y0047458D01*
X0203841Y0047850D02*
X0233653Y0047850D01*
X0233653Y0048242D02*
X0203877Y0048242D01*
X0203877Y0048634D02*
X0233653Y0048634D01*
X0233653Y0049027D02*
X0203877Y0049027D01*
X0203877Y0049419D02*
X0233653Y0049419D01*
X0233653Y0049811D02*
X0218361Y0049811D01*
X0218753Y0050203D02*
X0233653Y0050203D01*
X0233653Y0050595D02*
X0218956Y0050595D01*
X0218956Y0050988D02*
X0233653Y0050988D01*
X0233653Y0051380D02*
X0218956Y0051380D01*
X0218956Y0051772D02*
X0233653Y0051772D01*
X0233653Y0052164D02*
X0218956Y0052164D01*
X0218956Y0052556D02*
X0233653Y0052556D01*
X0233379Y0052949D02*
X0218956Y0052949D01*
X0218956Y0053341D02*
X0232987Y0053341D01*
X0232594Y0053733D02*
X0229390Y0053733D01*
X0229782Y0054125D02*
X0232202Y0054125D01*
X0231810Y0054517D02*
X0229940Y0054517D01*
X0229940Y0054910D02*
X0231418Y0054910D01*
X0231026Y0055302D02*
X0229940Y0055302D01*
X0229940Y0060793D02*
X0233653Y0060793D01*
X0233653Y0061185D02*
X0229940Y0061185D01*
X0229940Y0061577D02*
X0233653Y0061577D01*
X0233653Y0061970D02*
X0229711Y0061970D01*
X0229318Y0062362D02*
X0233653Y0062362D01*
X0233653Y0060401D02*
X0233007Y0060401D01*
X0220610Y0053733D02*
X0218956Y0053733D01*
X0218956Y0054125D02*
X0220218Y0054125D01*
X0220060Y0054517D02*
X0218956Y0054517D01*
X0214767Y0058440D02*
X0097597Y0058440D01*
X0097597Y0058832D02*
X0215159Y0058832D01*
X0215552Y0059224D02*
X0097597Y0059224D01*
X0097597Y0059616D02*
X0215944Y0059616D01*
X0216770Y0060008D02*
X0200771Y0060008D01*
X0198935Y0065107D02*
X0178250Y0065107D01*
X0177858Y0065499D02*
X0199327Y0065499D01*
X0199719Y0065892D02*
X0177466Y0065892D01*
X0177074Y0066284D02*
X0200111Y0066284D01*
X0200504Y0066676D02*
X0176681Y0066676D01*
X0176289Y0067068D02*
X0200896Y0067068D01*
X0201288Y0067460D02*
X0175897Y0067460D01*
X0175505Y0067853D02*
X0201458Y0067853D01*
X0201458Y0068245D02*
X0175113Y0068245D01*
X0174720Y0068637D02*
X0201458Y0068637D01*
X0201458Y0069029D02*
X0174328Y0069029D01*
X0173936Y0069422D02*
X0201458Y0069422D01*
X0200475Y0069814D02*
X0198581Y0069814D01*
X0198973Y0070206D02*
X0200082Y0070206D01*
X0199706Y0070598D02*
X0199350Y0070598D01*
X0199350Y0070990D02*
X0199706Y0070990D01*
X0199706Y0071383D02*
X0199350Y0071383D01*
X0199350Y0071775D02*
X0199706Y0071775D01*
X0199706Y0072167D02*
X0199350Y0072167D01*
X0199350Y0072559D02*
X0199706Y0072559D01*
X0199706Y0072951D02*
X0199350Y0072951D01*
X0199350Y0073344D02*
X0199706Y0073344D01*
X0199706Y0073736D02*
X0199350Y0073736D01*
X0199350Y0074128D02*
X0199706Y0074128D01*
X0199706Y0074520D02*
X0199350Y0074520D01*
X0199350Y0074913D02*
X0199706Y0074913D01*
X0199706Y0075305D02*
X0199350Y0075305D01*
X0199350Y0075697D02*
X0199706Y0075697D01*
X0199706Y0076089D02*
X0199350Y0076089D01*
X0199350Y0076481D02*
X0199706Y0076481D01*
X0199706Y0076874D02*
X0199350Y0076874D01*
X0199350Y0077266D02*
X0199706Y0077266D01*
X0199706Y0077658D02*
X0199350Y0077658D01*
X0199350Y0078050D02*
X0199706Y0078050D01*
X0199706Y0078442D02*
X0199350Y0078442D01*
X0199350Y0078835D02*
X0199706Y0078835D01*
X0199706Y0079227D02*
X0199350Y0079227D01*
X0199345Y0079619D02*
X0199711Y0079619D01*
X0200103Y0080011D02*
X0198952Y0080011D01*
X0198560Y0080403D02*
X0200495Y0080403D01*
X0208405Y0078835D02*
X0220678Y0078835D01*
X0220286Y0078442D02*
X0208405Y0078442D01*
X0208405Y0078050D02*
X0220060Y0078050D01*
X0220060Y0077658D02*
X0218392Y0077658D01*
X0218784Y0077266D02*
X0220060Y0077266D01*
X0220060Y0071775D02*
X0218956Y0071775D01*
X0218732Y0071383D02*
X0220060Y0071383D01*
X0220060Y0070990D02*
X0218340Y0070990D01*
X0220222Y0070598D02*
X0208405Y0070598D01*
X0208405Y0070990D02*
X0211660Y0070990D01*
X0211268Y0071383D02*
X0208405Y0071383D01*
X0208028Y0070206D02*
X0220614Y0070206D01*
X0211608Y0077658D02*
X0208405Y0077658D01*
X0208405Y0077266D02*
X0211216Y0077266D01*
X0191603Y0080796D02*
X0165688Y0080796D01*
X0165688Y0081188D02*
X0191603Y0081188D01*
X0191603Y0081580D02*
X0165685Y0081580D01*
X0165522Y0081972D02*
X0191603Y0081972D01*
X0191603Y0082365D02*
X0165360Y0082365D01*
X0165197Y0082757D02*
X0191603Y0082757D01*
X0191603Y0083149D02*
X0165035Y0083149D01*
X0164872Y0083541D02*
X0191603Y0083541D01*
X0191603Y0083933D02*
X0164687Y0083933D01*
X0164295Y0084326D02*
X0191603Y0084326D01*
X0191603Y0084718D02*
X0163902Y0084718D01*
X0163510Y0085110D02*
X0191603Y0085110D01*
X0191603Y0085502D02*
X0163118Y0085502D01*
X0162597Y0085894D02*
X0191603Y0085894D01*
X0191603Y0086287D02*
X0162597Y0086287D01*
X0162597Y0086679D02*
X0191603Y0086679D01*
X0191603Y0087071D02*
X0162597Y0087071D01*
X0162597Y0087463D02*
X0191603Y0087463D01*
X0191603Y0087856D02*
X0162915Y0087856D01*
X0163147Y0088248D02*
X0191603Y0088248D01*
X0191603Y0088640D02*
X0163309Y0088640D01*
X0163472Y0089032D02*
X0191603Y0089032D01*
X0191603Y0089424D02*
X0163578Y0089424D01*
X0163578Y0089817D02*
X0191603Y0089817D01*
X0191603Y0090209D02*
X0163881Y0090209D01*
X0164273Y0090601D02*
X0191603Y0090601D01*
X0191603Y0090993D02*
X0164666Y0090993D01*
X0165058Y0091385D02*
X0191603Y0091385D01*
X0191603Y0091778D02*
X0165450Y0091778D01*
X0165842Y0092170D02*
X0191603Y0092170D01*
X0191603Y0092562D02*
X0166235Y0092562D01*
X0166627Y0092954D02*
X0191603Y0092954D01*
X0191603Y0093346D02*
X0167019Y0093346D01*
X0167411Y0093739D02*
X0191603Y0093739D01*
X0191603Y0094131D02*
X0167803Y0094131D01*
X0168196Y0094523D02*
X0191603Y0094523D01*
X0186593Y0094915D02*
X0168588Y0094915D01*
X0168980Y0095308D02*
X0186201Y0095308D01*
X0186123Y0095700D02*
X0169372Y0095700D01*
X0169764Y0096092D02*
X0186123Y0096092D01*
X0186123Y0096484D02*
X0170157Y0096484D01*
X0170549Y0096876D02*
X0186123Y0096876D01*
X0186123Y0097269D02*
X0170941Y0097269D01*
X0171333Y0097661D02*
X0186123Y0097661D01*
X0186123Y0098053D02*
X0171726Y0098053D01*
X0172118Y0098445D02*
X0186123Y0098445D01*
X0186123Y0098837D02*
X0172510Y0098837D01*
X0172902Y0099230D02*
X0186123Y0099230D01*
X0186123Y0099622D02*
X0173294Y0099622D01*
X0173687Y0100014D02*
X0186123Y0100014D01*
X0186123Y0100406D02*
X0174079Y0100406D01*
X0174471Y0100799D02*
X0186123Y0100799D01*
X0186123Y0101191D02*
X0174863Y0101191D01*
X0175255Y0101583D02*
X0186123Y0101583D01*
X0186123Y0101975D02*
X0175648Y0101975D01*
X0176040Y0102367D02*
X0186123Y0102367D01*
X0186123Y0102760D02*
X0176432Y0102760D01*
X0176824Y0103152D02*
X0186123Y0103152D01*
X0186123Y0103544D02*
X0177216Y0103544D01*
X0177609Y0103936D02*
X0186123Y0103936D01*
X0186123Y0104328D02*
X0178001Y0104328D01*
X0178393Y0104721D02*
X0186426Y0104721D01*
X0186819Y0105113D02*
X0178785Y0105113D01*
X0179178Y0105505D02*
X0214333Y0105505D01*
X0214725Y0105897D02*
X0179570Y0105897D01*
X0179962Y0106289D02*
X0215117Y0106289D01*
X0215509Y0106682D02*
X0180354Y0106682D01*
X0180746Y0107074D02*
X0215901Y0107074D01*
X0216668Y0107466D02*
X0200669Y0107466D01*
X0201531Y0107858D02*
X0220060Y0107858D01*
X0220060Y0108251D02*
X0201923Y0108251D01*
X0202315Y0108643D02*
X0220060Y0108643D01*
X0220060Y0109035D02*
X0202707Y0109035D01*
X0203100Y0109427D02*
X0220247Y0109427D01*
X0220639Y0109819D02*
X0203492Y0109819D01*
X0199285Y0112957D02*
X0097597Y0112957D01*
X0097597Y0112565D02*
X0179406Y0112565D01*
X0178500Y0112173D02*
X0097597Y0112173D01*
X0097597Y0111780D02*
X0178108Y0111780D01*
X0177716Y0111388D02*
X0097597Y0111388D01*
X0097597Y0110996D02*
X0177324Y0110996D01*
X0176931Y0110604D02*
X0097597Y0110604D01*
X0097597Y0110212D02*
X0176539Y0110212D01*
X0176147Y0109819D02*
X0097597Y0109819D01*
X0097597Y0109427D02*
X0175755Y0109427D01*
X0175362Y0109035D02*
X0097597Y0109035D01*
X0097597Y0108643D02*
X0174970Y0108643D01*
X0174578Y0108251D02*
X0097597Y0108251D01*
X0097597Y0107858D02*
X0174186Y0107858D01*
X0173794Y0107466D02*
X0097597Y0107466D01*
X0097597Y0107074D02*
X0173401Y0107074D01*
X0173009Y0106682D02*
X0097597Y0106682D01*
X0097597Y0106289D02*
X0172617Y0106289D01*
X0172225Y0105897D02*
X0097597Y0105897D01*
X0097597Y0105505D02*
X0171833Y0105505D01*
X0171440Y0105113D02*
X0097597Y0105113D01*
X0097597Y0104721D02*
X0171048Y0104721D01*
X0170656Y0104328D02*
X0097597Y0104328D01*
X0097597Y0103936D02*
X0170264Y0103936D01*
X0169872Y0103544D02*
X0097597Y0103544D01*
X0097597Y0103152D02*
X0169479Y0103152D01*
X0169087Y0102760D02*
X0097597Y0102760D01*
X0097597Y0102367D02*
X0168695Y0102367D01*
X0168303Y0101975D02*
X0097597Y0101975D01*
X0097597Y0101583D02*
X0167910Y0101583D01*
X0167518Y0101191D02*
X0097597Y0101191D01*
X0097597Y0100799D02*
X0167126Y0100799D01*
X0166734Y0100406D02*
X0097597Y0100406D01*
X0097597Y0100014D02*
X0166342Y0100014D01*
X0165949Y0099622D02*
X0097597Y0099622D01*
X0097597Y0099230D02*
X0165557Y0099230D01*
X0165165Y0098837D02*
X0097597Y0098837D01*
X0097597Y0098445D02*
X0164773Y0098445D01*
X0164381Y0098053D02*
X0097597Y0098053D01*
X0097597Y0097661D02*
X0163988Y0097661D01*
X0163596Y0097269D02*
X0097597Y0097269D01*
X0097597Y0096876D02*
X0163204Y0096876D01*
X0162812Y0096484D02*
X0097597Y0096484D01*
X0097597Y0096092D02*
X0162419Y0096092D01*
X0162027Y0095700D02*
X0097597Y0095700D01*
X0097597Y0095308D02*
X0161635Y0095308D01*
X0161243Y0094915D02*
X0097597Y0094915D01*
X0097597Y0094523D02*
X0160851Y0094523D01*
X0160458Y0094131D02*
X0097597Y0094131D01*
X0097597Y0093739D02*
X0160066Y0093739D01*
X0158730Y0093346D02*
X0097597Y0093346D01*
X0097597Y0092954D02*
X0157894Y0092954D01*
X0157502Y0092562D02*
X0097597Y0092562D01*
X0097597Y0092170D02*
X0157110Y0092170D01*
X0156864Y0091778D02*
X0097597Y0091778D01*
X0097597Y0091385D02*
X0156701Y0091385D01*
X0156539Y0090993D02*
X0097597Y0090993D01*
X0097597Y0090601D02*
X0156422Y0090601D01*
X0156422Y0090209D02*
X0097597Y0090209D01*
X0097597Y0089817D02*
X0156422Y0089817D01*
X0156422Y0089424D02*
X0097597Y0089424D01*
X0097597Y0089032D02*
X0156528Y0089032D01*
X0156691Y0088640D02*
X0097597Y0088640D01*
X0097597Y0088248D02*
X0156853Y0088248D01*
X0157084Y0087856D02*
X0097597Y0087856D01*
X0097597Y0087463D02*
X0157403Y0087463D01*
X0157403Y0087071D02*
X0097597Y0087071D01*
X0097597Y0086679D02*
X0157403Y0086679D01*
X0157277Y0086287D02*
X0097597Y0086287D01*
X0097597Y0085894D02*
X0156330Y0085894D01*
X0155622Y0085502D02*
X0097597Y0085502D01*
X0097597Y0085110D02*
X0155230Y0085110D01*
X0154838Y0084718D02*
X0097597Y0084718D01*
X0097597Y0084326D02*
X0154446Y0084326D01*
X0154053Y0083933D02*
X0097597Y0083933D01*
X0097597Y0083541D02*
X0153868Y0083541D01*
X0153705Y0083149D02*
X0097597Y0083149D01*
X0097597Y0082757D02*
X0153543Y0082757D01*
X0153380Y0082365D02*
X0097597Y0082365D01*
X0097597Y0081972D02*
X0153218Y0081972D01*
X0153055Y0081580D02*
X0097597Y0081580D01*
X0097597Y0081188D02*
X0153052Y0081188D01*
X0153052Y0080796D02*
X0097597Y0080796D01*
X0097597Y0080403D02*
X0153052Y0080403D01*
X0153052Y0080011D02*
X0097597Y0080011D01*
X0097597Y0079619D02*
X0153052Y0079619D01*
X0153052Y0079227D02*
X0097597Y0079227D01*
X0097597Y0078835D02*
X0153145Y0078835D01*
X0153307Y0078442D02*
X0097597Y0078442D01*
X0097597Y0078050D02*
X0153469Y0078050D01*
X0153632Y0077658D02*
X0097597Y0077658D01*
X0097597Y0077266D02*
X0153794Y0077266D01*
X0153957Y0076874D02*
X0097597Y0076874D01*
X0097597Y0076481D02*
X0154269Y0076481D01*
X0154661Y0076089D02*
X0097597Y0076089D01*
X0097597Y0075697D02*
X0155053Y0075697D01*
X0155445Y0075305D02*
X0097597Y0075305D01*
X0097597Y0074913D02*
X0155903Y0074913D01*
X0156850Y0074520D02*
X0097597Y0074520D01*
X0097597Y0074128D02*
X0157796Y0074128D01*
X0160944Y0074128D02*
X0161884Y0074128D01*
X0162277Y0073736D02*
X0097597Y0073736D01*
X0097597Y0073344D02*
X0162669Y0073344D01*
X0163061Y0072951D02*
X0097597Y0072951D01*
X0097597Y0072559D02*
X0163453Y0072559D01*
X0163846Y0072167D02*
X0097597Y0072167D01*
X0097597Y0071775D02*
X0164238Y0071775D01*
X0164630Y0071383D02*
X0097597Y0071383D01*
X0097597Y0070990D02*
X0165022Y0070990D01*
X0165414Y0070598D02*
X0097597Y0070598D01*
X0097597Y0070206D02*
X0165807Y0070206D01*
X0166199Y0069814D02*
X0097597Y0069814D01*
X0097597Y0069422D02*
X0166591Y0069422D01*
X0166983Y0069029D02*
X0097597Y0069029D01*
X0097597Y0068637D02*
X0167375Y0068637D01*
X0167768Y0068245D02*
X0097597Y0068245D01*
X0097597Y0067853D02*
X0168160Y0067853D01*
X0168552Y0067460D02*
X0097597Y0067460D01*
X0097597Y0067068D02*
X0168944Y0067068D01*
X0169336Y0066676D02*
X0097597Y0066676D01*
X0097597Y0066284D02*
X0169729Y0066284D01*
X0170121Y0065892D02*
X0097597Y0065892D01*
X0097597Y0065499D02*
X0170513Y0065499D01*
X0170905Y0065107D02*
X0097597Y0065107D01*
X0097597Y0064715D02*
X0171298Y0064715D01*
X0171690Y0064323D02*
X0097597Y0064323D01*
X0097597Y0063931D02*
X0172082Y0063931D01*
X0172474Y0063538D02*
X0097597Y0063538D01*
X0097597Y0063146D02*
X0172866Y0063146D01*
X0173259Y0062754D02*
X0097597Y0062754D01*
X0097597Y0062362D02*
X0173651Y0062362D01*
X0174043Y0061970D02*
X0097597Y0061970D01*
X0097597Y0061577D02*
X0174435Y0061577D01*
X0174827Y0061185D02*
X0097597Y0061185D01*
X0097597Y0060793D02*
X0175220Y0060793D01*
X0175612Y0060401D02*
X0097597Y0060401D01*
X0097597Y0060008D02*
X0176414Y0060008D01*
X0186123Y0051380D02*
X0097597Y0051380D01*
X0097597Y0050988D02*
X0186123Y0050988D01*
X0186123Y0050595D02*
X0097597Y0050595D01*
X0097597Y0050203D02*
X0186123Y0050203D01*
X0186123Y0049811D02*
X0097597Y0049811D01*
X0097597Y0049419D02*
X0186123Y0049419D01*
X0186123Y0049027D02*
X0097597Y0049027D01*
X0097597Y0048634D02*
X0186123Y0048634D01*
X0186123Y0048242D02*
X0097597Y0048242D01*
X0097597Y0047850D02*
X0186159Y0047850D01*
X0186551Y0047458D02*
X0097597Y0047458D01*
X0097597Y0047065D02*
X0191603Y0047065D01*
X0191603Y0046673D02*
X0097597Y0046673D01*
X0097597Y0046281D02*
X0191603Y0046281D01*
X0191603Y0045889D02*
X0097597Y0045889D01*
X0097597Y0045497D02*
X0191603Y0045497D01*
X0191603Y0045104D02*
X0097597Y0045104D01*
X0097597Y0044712D02*
X0191603Y0044712D01*
X0191603Y0044320D02*
X0097597Y0044320D01*
X0097597Y0043928D02*
X0191603Y0043928D01*
X0191603Y0043536D02*
X0097597Y0043536D01*
X0097597Y0043143D02*
X0191603Y0043143D01*
X0191603Y0042751D02*
X0097597Y0042751D01*
X0097597Y0042359D02*
X0191603Y0042359D01*
X0191603Y0041967D02*
X0097597Y0041967D01*
X0097597Y0041574D02*
X0191603Y0041574D01*
X0191603Y0041182D02*
X0097597Y0041182D01*
X0097597Y0040790D02*
X0191603Y0040790D01*
X0191603Y0040398D02*
X0097597Y0040398D01*
X0097597Y0040006D02*
X0191603Y0040006D01*
X0191603Y0039613D02*
X0097597Y0039613D01*
X0097488Y0039221D02*
X0191603Y0039221D01*
X0191603Y0038829D02*
X0097326Y0038829D01*
X0097109Y0038437D02*
X0191603Y0038437D01*
X0191603Y0038045D02*
X0096717Y0038045D01*
X0096325Y0037652D02*
X0191603Y0037652D01*
X0191603Y0037260D02*
X0095933Y0037260D01*
X0095540Y0036868D02*
X0191603Y0036868D01*
X0191603Y0036476D02*
X0095148Y0036476D01*
X0094756Y0036084D02*
X0191603Y0036084D01*
X0191603Y0035691D02*
X0094364Y0035691D01*
X0093972Y0035299D02*
X0191603Y0035299D01*
X0191603Y0034907D02*
X0093579Y0034907D01*
X0093187Y0034515D02*
X0191603Y0034515D01*
X0191603Y0034122D02*
X0092795Y0034122D01*
X0092403Y0033730D02*
X0191603Y0033730D01*
X0191603Y0033338D02*
X0092011Y0033338D01*
X0091691Y0032946D02*
X0191603Y0032946D01*
X0191090Y0032554D02*
X0091691Y0032554D01*
X0092826Y0032161D02*
X0097174Y0032161D01*
X0096782Y0031769D02*
X0093218Y0031769D01*
X0093610Y0031377D02*
X0096390Y0031377D01*
X0096359Y0030985D02*
X0093641Y0030985D01*
X0093641Y0030593D02*
X0096359Y0030593D01*
X0096359Y0030200D02*
X0093641Y0030200D01*
X0093641Y0029808D02*
X0096359Y0029808D01*
X0096359Y0029416D02*
X0093641Y0029416D01*
X0093641Y0029024D02*
X0096359Y0029024D01*
X0096359Y0028631D02*
X0093641Y0028631D01*
X0093641Y0028239D02*
X0096359Y0028239D01*
X0096359Y0027847D02*
X0093641Y0027847D01*
X0093641Y0027455D02*
X0096359Y0027455D01*
X0096359Y0027063D02*
X0093641Y0027063D01*
X0093641Y0026670D02*
X0096359Y0026670D01*
X0096359Y0026278D02*
X0093641Y0026278D01*
X0093641Y0025886D02*
X0096359Y0025886D01*
X0096359Y0025494D02*
X0093641Y0025494D01*
X0093641Y0025102D02*
X0096359Y0025102D01*
X0096359Y0024709D02*
X0093641Y0024709D01*
X0093641Y0024317D02*
X0096359Y0024317D01*
X0096359Y0023925D02*
X0093641Y0023925D01*
X0093641Y0023533D02*
X0096359Y0023533D01*
X0096359Y0023141D02*
X0093641Y0023141D01*
X0093641Y0022748D02*
X0096359Y0022748D01*
X0096359Y0022356D02*
X0093641Y0022356D01*
X0093641Y0021964D02*
X0096359Y0021964D01*
X0096359Y0021572D02*
X0093641Y0021572D01*
X0093641Y0021179D02*
X0096359Y0021179D01*
X0096359Y0020787D02*
X0093641Y0020787D01*
X0093641Y0020395D02*
X0096359Y0020395D01*
X0096359Y0020003D02*
X0093641Y0020003D01*
X0093641Y0019611D02*
X0096359Y0019611D01*
X0096359Y0019218D02*
X0093641Y0019218D01*
X0105452Y0027455D02*
X0105775Y0027455D01*
X0105452Y0030200D02*
X0190650Y0030200D01*
X0190650Y0030593D02*
X0105452Y0030593D01*
X0105452Y0030985D02*
X0190650Y0030985D01*
X0190650Y0031377D02*
X0105421Y0031377D01*
X0105029Y0031769D02*
X0190650Y0031769D01*
X0190698Y0032161D02*
X0104637Y0032161D01*
X0132028Y0012551D02*
X0028109Y0012551D01*
X0027162Y0012159D02*
X0132028Y0012159D01*
X0132028Y0011766D02*
X0026215Y0011766D01*
X0137319Y0010198D02*
X0138567Y0010198D01*
X0138175Y0010590D02*
X0137711Y0010590D01*
X0143873Y0010982D02*
X0146669Y0010982D01*
X0146276Y0011374D02*
X0143873Y0011374D01*
X0203877Y0049811D02*
X0211639Y0049811D01*
X0211247Y0050203D02*
X0203877Y0050203D01*
X0191419Y0069814D02*
X0173544Y0069814D01*
X0173152Y0070206D02*
X0191027Y0070206D01*
X0190650Y0070598D02*
X0172759Y0070598D01*
X0172367Y0070990D02*
X0190650Y0070990D01*
X0190650Y0071383D02*
X0171975Y0071383D01*
X0171583Y0071775D02*
X0190650Y0071775D01*
X0190650Y0072167D02*
X0171190Y0072167D01*
X0170798Y0072559D02*
X0190650Y0072559D01*
X0190650Y0072951D02*
X0170406Y0072951D01*
X0170014Y0073344D02*
X0190650Y0073344D01*
X0190650Y0073736D02*
X0169622Y0073736D01*
X0169229Y0074128D02*
X0190650Y0074128D01*
X0190650Y0074520D02*
X0168837Y0074520D01*
X0168445Y0074913D02*
X0190650Y0074913D01*
X0190650Y0075305D02*
X0168053Y0075305D01*
X0167661Y0075697D02*
X0190650Y0075697D01*
X0190650Y0076089D02*
X0167268Y0076089D01*
X0166876Y0076481D02*
X0190650Y0076481D01*
X0190650Y0076874D02*
X0166484Y0076874D01*
X0166092Y0077266D02*
X0190650Y0077266D01*
X0190650Y0077658D02*
X0165700Y0077658D01*
X0165307Y0078050D02*
X0190650Y0078050D01*
X0190650Y0078442D02*
X0165433Y0078442D01*
X0165596Y0078835D02*
X0190650Y0078835D01*
X0190650Y0079227D02*
X0165688Y0079227D01*
X0165688Y0079619D02*
X0190655Y0079619D01*
X0191048Y0080011D02*
X0165688Y0080011D01*
X0165688Y0080403D02*
X0191440Y0080403D01*
X0203877Y0097269D02*
X0211681Y0097269D01*
X0211289Y0097661D02*
X0203877Y0097661D01*
X0203877Y0103544D02*
X0211195Y0103544D01*
X0211587Y0103936D02*
X0203877Y0103936D01*
X0203877Y0104328D02*
X0213156Y0104328D01*
X0213548Y0104721D02*
X0203574Y0104721D01*
X0203181Y0105113D02*
X0213940Y0105113D01*
X0218956Y0102367D02*
X0220060Y0102367D01*
X0220060Y0101975D02*
X0218956Y0101975D01*
X0218956Y0101583D02*
X0220261Y0101583D01*
X0220653Y0101191D02*
X0218956Y0101191D01*
X0201246Y0114918D02*
X0097597Y0114918D01*
X0097597Y0114526D02*
X0200853Y0114526D01*
X0200461Y0114134D02*
X0097597Y0114134D01*
X0097597Y0113742D02*
X0200069Y0113742D01*
X0199677Y0113349D02*
X0097597Y0113349D01*
X0097597Y0115310D02*
X0201458Y0115310D01*
X0201458Y0115703D02*
X0097597Y0115703D01*
X0097597Y0116095D02*
X0201458Y0116095D01*
X0201458Y0116487D02*
X0097597Y0116487D01*
X0097597Y0116879D02*
X0201458Y0116879D01*
X0200517Y0117271D02*
X0198538Y0117271D01*
X0198930Y0117664D02*
X0200125Y0117664D01*
X0199732Y0118056D02*
X0199323Y0118056D01*
X0199350Y0118448D02*
X0199706Y0118448D01*
X0199706Y0118840D02*
X0199350Y0118840D01*
X0199350Y0119232D02*
X0199706Y0119232D01*
X0199706Y0119625D02*
X0199350Y0119625D01*
X0199350Y0120017D02*
X0199706Y0120017D01*
X0199706Y0120409D02*
X0199350Y0120409D01*
X0199350Y0120801D02*
X0199706Y0120801D01*
X0199706Y0121194D02*
X0199350Y0121194D01*
X0199350Y0121586D02*
X0199706Y0121586D01*
X0199706Y0121978D02*
X0199350Y0121978D01*
X0199350Y0122370D02*
X0199706Y0122370D01*
X0199706Y0122762D02*
X0199350Y0122762D01*
X0199350Y0123155D02*
X0199706Y0123155D01*
X0199706Y0123547D02*
X0199350Y0123547D01*
X0199350Y0123939D02*
X0199706Y0123939D01*
X0199706Y0124331D02*
X0199350Y0124331D01*
X0199350Y0124723D02*
X0199706Y0124723D01*
X0199706Y0125116D02*
X0199350Y0125116D01*
X0199350Y0125508D02*
X0199706Y0125508D01*
X0199706Y0125900D02*
X0199350Y0125900D01*
X0199350Y0126292D02*
X0199706Y0126292D01*
X0199706Y0126685D02*
X0199350Y0126685D01*
X0199350Y0127077D02*
X0199706Y0127077D01*
X0200060Y0127469D02*
X0198995Y0127469D01*
X0198602Y0127861D02*
X0200453Y0127861D01*
X0208405Y0126292D02*
X0220636Y0126292D01*
X0220244Y0125900D02*
X0208405Y0125900D01*
X0208405Y0125508D02*
X0220060Y0125508D01*
X0220060Y0125116D02*
X0218435Y0125116D01*
X0218827Y0124723D02*
X0220060Y0124723D01*
X0211565Y0125116D02*
X0208405Y0125116D01*
X0208405Y0124723D02*
X0211173Y0124723D01*
X0191603Y0128253D02*
X0099426Y0128253D01*
X0099034Y0127861D02*
X0191398Y0127861D01*
X0191005Y0127469D02*
X0098641Y0127469D01*
X0098249Y0127077D02*
X0190650Y0127077D01*
X0190650Y0126685D02*
X0097857Y0126685D01*
X0097597Y0126292D02*
X0190650Y0126292D01*
X0190650Y0125900D02*
X0097597Y0125900D01*
X0097597Y0125508D02*
X0190650Y0125508D01*
X0190650Y0125116D02*
X0097597Y0125116D01*
X0097597Y0124723D02*
X0190650Y0124723D01*
X0190650Y0124331D02*
X0097597Y0124331D01*
X0097597Y0123939D02*
X0190650Y0123939D01*
X0190650Y0123547D02*
X0097597Y0123547D01*
X0097597Y0123155D02*
X0190650Y0123155D01*
X0190650Y0122762D02*
X0097597Y0122762D01*
X0097597Y0122370D02*
X0190650Y0122370D01*
X0190650Y0121978D02*
X0097597Y0121978D01*
X0097597Y0121586D02*
X0190650Y0121586D01*
X0190650Y0121194D02*
X0097597Y0121194D01*
X0097597Y0120801D02*
X0190650Y0120801D01*
X0190650Y0120409D02*
X0097597Y0120409D01*
X0097597Y0120017D02*
X0190650Y0120017D01*
X0190650Y0119625D02*
X0097597Y0119625D01*
X0097597Y0119232D02*
X0190650Y0119232D01*
X0190650Y0118840D02*
X0097597Y0118840D01*
X0097597Y0118448D02*
X0190650Y0118448D01*
X0190677Y0118056D02*
X0097597Y0118056D01*
X0097597Y0117664D02*
X0191070Y0117664D01*
X0191462Y0117271D02*
X0097597Y0117271D01*
X0092403Y0117271D02*
X0028538Y0117271D01*
X0029177Y0116879D02*
X0092403Y0116879D01*
X0092403Y0116487D02*
X0029569Y0116487D01*
X0029962Y0116095D02*
X0092403Y0116095D01*
X0092403Y0115703D02*
X0030354Y0115703D01*
X0030746Y0115310D02*
X0092403Y0115310D01*
X0092403Y0114918D02*
X0031138Y0114918D01*
X0031530Y0114526D02*
X0092403Y0114526D01*
X0092403Y0114134D02*
X0031702Y0114134D01*
X0031865Y0113742D02*
X0092403Y0113742D01*
X0092403Y0113349D02*
X0032027Y0113349D01*
X0032190Y0112957D02*
X0092403Y0112957D01*
X0092403Y0112565D02*
X0032352Y0112565D01*
X0032515Y0112173D02*
X0092403Y0112173D01*
X0092403Y0111780D02*
X0032677Y0111780D01*
X0032840Y0111388D02*
X0092403Y0111388D01*
X0092403Y0110996D02*
X0032947Y0110996D01*
X0032947Y0110604D02*
X0092403Y0110604D01*
X0092403Y0110212D02*
X0032947Y0110212D01*
X0032947Y0109819D02*
X0092403Y0109819D01*
X0092403Y0109427D02*
X0032947Y0109427D01*
X0032947Y0109035D02*
X0092403Y0109035D01*
X0092403Y0108643D02*
X0032947Y0108643D01*
X0032947Y0108251D02*
X0092403Y0108251D01*
X0092403Y0107858D02*
X0032947Y0107858D01*
X0032945Y0107466D02*
X0092403Y0107466D01*
X0092403Y0107074D02*
X0032783Y0107074D01*
X0032620Y0106682D02*
X0092403Y0106682D01*
X0092403Y0106289D02*
X0032458Y0106289D01*
X0032295Y0105897D02*
X0092403Y0105897D01*
X0092403Y0105505D02*
X0032133Y0105505D01*
X0031970Y0105113D02*
X0092403Y0105113D01*
X0092403Y0104721D02*
X0031808Y0104721D01*
X0031645Y0104328D02*
X0092403Y0104328D01*
X0092403Y0103936D02*
X0031393Y0103936D01*
X0031000Y0103544D02*
X0092403Y0103544D01*
X0092403Y0103152D02*
X0030608Y0103152D01*
X0030216Y0102760D02*
X0092403Y0102760D01*
X0092403Y0102367D02*
X0029824Y0102367D01*
X0029431Y0101975D02*
X0092403Y0101975D01*
X0092403Y0101583D02*
X0029039Y0101583D01*
X0028205Y0101191D02*
X0092403Y0101191D01*
X0092403Y0100799D02*
X0027258Y0100799D01*
X0026311Y0100406D02*
X0092403Y0100406D01*
X0092403Y0085110D02*
X0063026Y0085110D01*
X0063973Y0084718D02*
X0092403Y0084718D01*
X0092403Y0084326D02*
X0064567Y0084326D01*
X0064959Y0083933D02*
X0092403Y0083933D01*
X0092403Y0083541D02*
X0065351Y0083541D01*
X0065743Y0083149D02*
X0092403Y0083149D01*
X0092403Y0082757D02*
X0066135Y0082757D01*
X0066528Y0082365D02*
X0092403Y0082365D01*
X0092403Y0081972D02*
X0066920Y0081972D01*
X0067312Y0081580D02*
X0092403Y0081580D01*
X0092403Y0081188D02*
X0067704Y0081188D01*
X0068096Y0080796D02*
X0092403Y0080796D01*
X0092403Y0080403D02*
X0068489Y0080403D01*
X0068881Y0080011D02*
X0092403Y0080011D01*
X0092403Y0117664D02*
X0027591Y0117664D01*
X0026644Y0118056D02*
X0092403Y0118056D01*
X0092403Y0118448D02*
X0025697Y0118448D01*
X0025397Y0118840D02*
X0092403Y0118840D01*
X0092403Y0119232D02*
X0025397Y0119232D01*
X0025397Y0119625D02*
X0092403Y0119625D01*
X0092403Y0120017D02*
X0025397Y0120017D01*
X0025397Y0120409D02*
X0092403Y0120409D01*
X0092403Y0120801D02*
X0025397Y0120801D01*
X0025397Y0121194D02*
X0092403Y0121194D01*
X0092403Y0121586D02*
X0025397Y0121586D01*
X0025469Y0121978D02*
X0092403Y0121978D01*
X0092403Y0122370D02*
X0026416Y0122370D01*
X0027363Y0122762D02*
X0092403Y0122762D01*
X0092403Y0123155D02*
X0028310Y0123155D01*
X0028749Y0123547D02*
X0092403Y0123547D01*
X0092403Y0123939D02*
X0029141Y0123939D01*
X0029534Y0124331D02*
X0092403Y0124331D01*
X0092403Y0124723D02*
X0029926Y0124723D01*
X0030318Y0125116D02*
X0092403Y0125116D01*
X0092403Y0125508D02*
X0030675Y0125508D01*
X0030838Y0125900D02*
X0092403Y0125900D01*
X0092403Y0126292D02*
X0031000Y0126292D01*
X0031163Y0126685D02*
X0092403Y0126685D01*
X0092403Y0127077D02*
X0031325Y0127077D01*
X0031488Y0127469D02*
X0092403Y0127469D01*
X0092403Y0127861D02*
X0031650Y0127861D01*
X0031813Y0128253D02*
X0092501Y0128253D01*
X0092664Y0128646D02*
X0031874Y0128646D01*
X0031874Y0129038D02*
X0092865Y0129038D01*
X0093258Y0129430D02*
X0031874Y0129430D01*
X0031874Y0129822D02*
X0093650Y0129822D01*
X0094042Y0130214D02*
X0031874Y0130214D01*
X0031874Y0130607D02*
X0077960Y0130607D01*
X0077013Y0130999D02*
X0031874Y0130999D01*
X0031874Y0131391D02*
X0076066Y0131391D01*
X0075322Y0131783D02*
X0031797Y0131783D01*
X0031635Y0132175D02*
X0074930Y0132175D01*
X0074537Y0132568D02*
X0031472Y0132568D01*
X0031310Y0132960D02*
X0074145Y0132960D01*
X0073753Y0133352D02*
X0031148Y0133352D01*
X0030985Y0133744D02*
X0073361Y0133744D01*
X0072969Y0134137D02*
X0030823Y0134137D01*
X0030660Y0134529D02*
X0072766Y0134529D01*
X0072603Y0134921D02*
X0030281Y0134921D01*
X0029889Y0135313D02*
X0072441Y0135313D01*
X0072279Y0135705D02*
X0029497Y0135705D01*
X0029105Y0136098D02*
X0072116Y0136098D01*
X0071954Y0136490D02*
X0028713Y0136490D01*
X0028221Y0136882D02*
X0071791Y0136882D01*
X0071629Y0137274D02*
X0027275Y0137274D01*
X0026328Y0137666D02*
X0071512Y0137666D01*
X0071512Y0138059D02*
X0001594Y0138059D01*
X0001594Y0138451D02*
X0071512Y0138451D01*
X0071512Y0138843D02*
X0001594Y0138843D01*
X0001594Y0139235D02*
X0071512Y0139235D01*
X0071512Y0139628D02*
X0001594Y0139628D01*
X0001594Y0140020D02*
X0071512Y0140020D01*
X0071512Y0140412D02*
X0001594Y0140412D01*
X0001594Y0140804D02*
X0071512Y0140804D01*
X0071171Y0141196D02*
X0001594Y0141196D01*
X0001594Y0141589D02*
X0070779Y0141589D01*
X0070387Y0141981D02*
X0025476Y0141981D01*
X0026423Y0142373D02*
X0069995Y0142373D01*
X0069602Y0142765D02*
X0027370Y0142765D01*
X0028317Y0143157D02*
X0069210Y0143157D01*
X0068818Y0143550D02*
X0028752Y0143550D01*
X0029144Y0143942D02*
X0068426Y0143942D01*
X0068034Y0144334D02*
X0029536Y0144334D01*
X0029494Y0155708D02*
X0172435Y0155708D01*
X0172827Y0155316D02*
X0071269Y0155316D01*
X0072216Y0154924D02*
X0173219Y0154924D01*
X0173612Y0154532D02*
X0073101Y0154532D01*
X0073493Y0154139D02*
X0174004Y0154139D01*
X0174396Y0153747D02*
X0073885Y0153747D01*
X0074277Y0153355D02*
X0174788Y0153355D01*
X0175180Y0152963D02*
X0074670Y0152963D01*
X0075062Y0152571D02*
X0175573Y0152571D01*
X0175965Y0152178D02*
X0075454Y0152178D01*
X0075846Y0151786D02*
X0176357Y0151786D01*
X0176749Y0151394D02*
X0076238Y0151394D01*
X0076631Y0151002D02*
X0177142Y0151002D01*
X0177534Y0150609D02*
X0077023Y0150609D01*
X0077415Y0150217D02*
X0177926Y0150217D01*
X0178318Y0149825D02*
X0077807Y0149825D01*
X0078199Y0149433D02*
X0178710Y0149433D01*
X0179103Y0149041D02*
X0078592Y0149041D01*
X0078984Y0148648D02*
X0179495Y0148648D01*
X0179887Y0148256D02*
X0083004Y0148256D01*
X0083951Y0147864D02*
X0180279Y0147864D01*
X0180671Y0147472D02*
X0084897Y0147472D01*
X0085815Y0147080D02*
X0181064Y0147080D01*
X0181456Y0146687D02*
X0086208Y0146687D01*
X0086600Y0146295D02*
X0181848Y0146295D01*
X0182240Y0145903D02*
X0086992Y0145903D01*
X0087384Y0145511D02*
X0157685Y0145511D01*
X0156738Y0145118D02*
X0087776Y0145118D01*
X0088606Y0143942D02*
X0155007Y0143942D01*
X0154614Y0143550D02*
X0088768Y0143550D01*
X0088931Y0143157D02*
X0154222Y0143157D01*
X0153938Y0142765D02*
X0089093Y0142765D01*
X0089255Y0142373D02*
X0153775Y0142373D01*
X0153613Y0141981D02*
X0152800Y0141981D01*
X0149700Y0141981D02*
X0089418Y0141981D01*
X0089580Y0141589D02*
X0149029Y0141589D01*
X0148842Y0136098D02*
X0107270Y0136098D01*
X0106878Y0135705D02*
X0149251Y0135705D01*
X0150198Y0135313D02*
X0106486Y0135313D01*
X0106093Y0134921D02*
X0154884Y0134921D01*
X0154492Y0135313D02*
X0152302Y0135313D01*
X0153249Y0135705D02*
X0154100Y0135705D01*
X0153887Y0136098D02*
X0153658Y0136098D01*
X0155276Y0134529D02*
X0105701Y0134529D01*
X0105309Y0134137D02*
X0155668Y0134137D01*
X0156442Y0133744D02*
X0104917Y0133744D01*
X0104525Y0133352D02*
X0157389Y0133352D01*
X0161351Y0133352D02*
X0191603Y0133352D01*
X0191603Y0132960D02*
X0104132Y0132960D01*
X0103740Y0132568D02*
X0191603Y0132568D01*
X0191603Y0132175D02*
X0103348Y0132175D01*
X0102956Y0131783D02*
X0191603Y0131783D01*
X0191603Y0131391D02*
X0102564Y0131391D01*
X0102171Y0130999D02*
X0191603Y0130999D01*
X0191603Y0130607D02*
X0101779Y0130607D01*
X0101387Y0130214D02*
X0191603Y0130214D01*
X0191603Y0129822D02*
X0100995Y0129822D01*
X0100602Y0129430D02*
X0191603Y0129430D01*
X0191603Y0129038D02*
X0100210Y0129038D01*
X0099818Y0128646D02*
X0191603Y0128646D01*
X0191603Y0133744D02*
X0162298Y0133744D01*
X0163072Y0134137D02*
X0191603Y0134137D01*
X0191603Y0134529D02*
X0163464Y0134529D01*
X0163856Y0134921D02*
X0191603Y0134921D01*
X0191603Y0135313D02*
X0164248Y0135313D01*
X0164641Y0135705D02*
X0191603Y0135705D01*
X0191603Y0136098D02*
X0164853Y0136098D01*
X0165016Y0136490D02*
X0191603Y0136490D01*
X0191603Y0136882D02*
X0165178Y0136882D01*
X0165341Y0137274D02*
X0191603Y0137274D01*
X0191603Y0137666D02*
X0165503Y0137666D01*
X0165666Y0138059D02*
X0191603Y0138059D01*
X0191603Y0138451D02*
X0165688Y0138451D01*
X0165688Y0138843D02*
X0191603Y0138843D01*
X0191603Y0139235D02*
X0165688Y0139235D01*
X0165688Y0139628D02*
X0191603Y0139628D01*
X0191603Y0140020D02*
X0165688Y0140020D01*
X0165688Y0140412D02*
X0191603Y0140412D01*
X0191603Y0140804D02*
X0165615Y0140804D01*
X0165452Y0141196D02*
X0191603Y0141196D01*
X0191603Y0141589D02*
X0165290Y0141589D01*
X0165127Y0141981D02*
X0191603Y0141981D01*
X0186636Y0142373D02*
X0164965Y0142373D01*
X0164802Y0142765D02*
X0186244Y0142765D01*
X0186123Y0143157D02*
X0164518Y0143157D01*
X0164126Y0143550D02*
X0186123Y0143550D01*
X0186123Y0143942D02*
X0163733Y0143942D01*
X0162002Y0145118D02*
X0186123Y0145118D01*
X0182632Y0145511D02*
X0161055Y0145511D01*
X0181786Y0152571D02*
X0186776Y0152571D01*
X0186384Y0152178D02*
X0182179Y0152178D01*
X0182571Y0151786D02*
X0186123Y0151786D01*
X0186123Y0151394D02*
X0182963Y0151394D01*
X0183355Y0151002D02*
X0186123Y0151002D01*
X0186123Y0150609D02*
X0183747Y0150609D01*
X0184140Y0150217D02*
X0186123Y0150217D01*
X0186123Y0149825D02*
X0184532Y0149825D01*
X0188758Y0156885D02*
X0177472Y0156885D01*
X0177080Y0157277D02*
X0188366Y0157277D01*
X0187974Y0157669D02*
X0176688Y0157669D01*
X0176295Y0158061D02*
X0187582Y0158061D01*
X0187189Y0158454D02*
X0175903Y0158454D01*
X0175511Y0158846D02*
X0186797Y0158846D01*
X0186405Y0159238D02*
X0175119Y0159238D01*
X0174726Y0159630D02*
X0186013Y0159630D01*
X0185621Y0160023D02*
X0174334Y0160023D01*
X0173942Y0160415D02*
X0185303Y0160415D01*
X0185303Y0160807D02*
X0173550Y0160807D01*
X0173158Y0161199D02*
X0177701Y0161199D01*
X0177309Y0161591D02*
X0172765Y0161591D01*
X0172373Y0161984D02*
X0177038Y0161984D01*
X0177038Y0162376D02*
X0171981Y0162376D01*
X0171589Y0162768D02*
X0177038Y0162768D01*
X0183499Y0161199D02*
X0184001Y0161199D01*
X0178256Y0156100D02*
X0190694Y0156100D01*
X0190302Y0156493D02*
X0177864Y0156493D01*
X0172043Y0156100D02*
X0029102Y0156100D01*
X0028710Y0156493D02*
X0171651Y0156493D01*
X0171258Y0156885D02*
X0028215Y0156885D01*
X0027268Y0157277D02*
X0170866Y0157277D01*
X0170474Y0157669D02*
X0026321Y0157669D01*
X0083300Y0130607D02*
X0094434Y0130607D01*
X0094826Y0130999D02*
X0084247Y0130999D01*
X0085194Y0131391D02*
X0095219Y0131391D01*
X0095611Y0131783D02*
X0085938Y0131783D01*
X0086330Y0132175D02*
X0096003Y0132175D01*
X0096395Y0132568D02*
X0086722Y0132568D01*
X0087115Y0132960D02*
X0096787Y0132960D01*
X0097180Y0133352D02*
X0087507Y0133352D01*
X0087899Y0133744D02*
X0097572Y0133744D01*
X0097964Y0134137D02*
X0088291Y0134137D01*
X0088494Y0134529D02*
X0098356Y0134529D01*
X0098748Y0134921D02*
X0088656Y0134921D01*
X0088819Y0135313D02*
X0099141Y0135313D01*
X0099533Y0135705D02*
X0088981Y0135705D01*
X0089144Y0136098D02*
X0099925Y0136098D01*
X0100317Y0136490D02*
X0089306Y0136490D01*
X0089469Y0136882D02*
X0100710Y0136882D01*
X0101102Y0137274D02*
X0089631Y0137274D01*
X0089748Y0137666D02*
X0101494Y0137666D01*
X0101886Y0138059D02*
X0089748Y0138059D01*
X0089748Y0138451D02*
X0102278Y0138451D01*
X0102671Y0138843D02*
X0089748Y0138843D01*
X0089748Y0139235D02*
X0103063Y0139235D01*
X0103455Y0139628D02*
X0089748Y0139628D01*
X0089748Y0140020D02*
X0103847Y0140020D01*
X0104239Y0140412D02*
X0089748Y0140412D01*
X0089748Y0140804D02*
X0104632Y0140804D01*
X0105370Y0141196D02*
X0089743Y0141196D01*
X0248247Y0141196D02*
X0249794Y0141196D01*
X0249794Y0140804D02*
X0248247Y0140804D01*
X0248247Y0140412D02*
X0249794Y0140412D01*
X0249794Y0140020D02*
X0248247Y0140020D01*
X0248247Y0139628D02*
X0249794Y0139628D01*
X0249794Y0139235D02*
X0248247Y0139235D01*
X0248247Y0138843D02*
X0250107Y0138843D01*
X0250200Y0138750D02*
X0249794Y0138344D01*
X0249794Y0132856D01*
X0250612Y0132038D01*
X0251753Y0132038D01*
X0251753Y0131673D01*
X0252923Y0130503D01*
X0256753Y0126673D01*
X0256753Y0121673D01*
X0257923Y0120503D01*
X0270503Y0107923D01*
X0270503Y0105423D01*
X0271673Y0104253D01*
X0276438Y0099488D01*
X0276438Y0099392D01*
X0276983Y0098847D01*
X0271456Y0098847D01*
X0271456Y0099594D01*
X0270638Y0100413D01*
X0264362Y0100413D01*
X0263544Y0099594D01*
X0263544Y0094497D01*
X0263327Y0094497D01*
X0248247Y0109577D01*
X0248247Y0142923D01*
X0249577Y0144253D01*
X0249794Y0144470D01*
X0249794Y0139156D01*
X0250200Y0138750D01*
X0249901Y0138451D02*
X0248247Y0138451D01*
X0248247Y0138059D02*
X0249794Y0138059D01*
X0249794Y0137666D02*
X0248247Y0137666D01*
X0248247Y0137274D02*
X0249794Y0137274D01*
X0249794Y0136882D02*
X0248247Y0136882D01*
X0248247Y0136490D02*
X0249794Y0136490D01*
X0249794Y0136098D02*
X0248247Y0136098D01*
X0248247Y0135705D02*
X0249794Y0135705D01*
X0249794Y0135313D02*
X0248247Y0135313D01*
X0248247Y0134921D02*
X0249794Y0134921D01*
X0249794Y0134529D02*
X0248247Y0134529D01*
X0248247Y0134137D02*
X0249794Y0134137D01*
X0249794Y0133744D02*
X0248247Y0133744D01*
X0248247Y0133352D02*
X0249794Y0133352D01*
X0249794Y0132960D02*
X0248247Y0132960D01*
X0248247Y0132568D02*
X0250083Y0132568D01*
X0250475Y0132175D02*
X0248247Y0132175D01*
X0248247Y0131783D02*
X0251753Y0131783D01*
X0252035Y0131391D02*
X0248247Y0131391D01*
X0248247Y0130999D02*
X0252427Y0130999D01*
X0252819Y0130607D02*
X0248247Y0130607D01*
X0248247Y0130214D02*
X0253212Y0130214D01*
X0253604Y0129822D02*
X0248247Y0129822D01*
X0248247Y0129430D02*
X0253996Y0129430D01*
X0254388Y0129038D02*
X0248247Y0129038D01*
X0248247Y0128646D02*
X0254780Y0128646D01*
X0255173Y0128253D02*
X0248247Y0128253D01*
X0248247Y0127861D02*
X0255565Y0127861D01*
X0255957Y0127469D02*
X0248247Y0127469D01*
X0248247Y0127077D02*
X0256349Y0127077D01*
X0256742Y0126685D02*
X0248247Y0126685D01*
X0248247Y0126292D02*
X0256753Y0126292D01*
X0256753Y0125900D02*
X0248247Y0125900D01*
X0248247Y0125508D02*
X0256753Y0125508D01*
X0256753Y0125116D02*
X0248247Y0125116D01*
X0248247Y0124723D02*
X0256753Y0124723D01*
X0256753Y0124331D02*
X0248247Y0124331D01*
X0248247Y0123939D02*
X0256753Y0123939D01*
X0256753Y0123547D02*
X0248247Y0123547D01*
X0248247Y0123155D02*
X0256753Y0123155D01*
X0256753Y0122762D02*
X0248247Y0122762D01*
X0248247Y0122370D02*
X0256753Y0122370D01*
X0256753Y0121978D02*
X0248247Y0121978D01*
X0248247Y0121586D02*
X0256840Y0121586D01*
X0257232Y0121194D02*
X0248247Y0121194D01*
X0248247Y0120801D02*
X0257625Y0120801D01*
X0258017Y0120409D02*
X0248247Y0120409D01*
X0248247Y0120017D02*
X0258409Y0120017D01*
X0258801Y0119625D02*
X0248247Y0119625D01*
X0248247Y0119232D02*
X0259194Y0119232D01*
X0259586Y0118840D02*
X0248247Y0118840D01*
X0248247Y0118448D02*
X0259978Y0118448D01*
X0260370Y0118056D02*
X0248247Y0118056D01*
X0248247Y0117664D02*
X0260762Y0117664D01*
X0261155Y0117271D02*
X0248247Y0117271D01*
X0248247Y0116879D02*
X0261547Y0116879D01*
X0261939Y0116487D02*
X0248247Y0116487D01*
X0248247Y0116095D02*
X0262331Y0116095D01*
X0262723Y0115703D02*
X0248247Y0115703D01*
X0248247Y0115310D02*
X0263116Y0115310D01*
X0263508Y0114918D02*
X0248247Y0114918D01*
X0248247Y0114526D02*
X0263900Y0114526D01*
X0264292Y0114134D02*
X0248247Y0114134D01*
X0248247Y0113742D02*
X0264685Y0113742D01*
X0265077Y0113349D02*
X0248247Y0113349D01*
X0248247Y0112957D02*
X0265469Y0112957D01*
X0265861Y0112565D02*
X0248247Y0112565D01*
X0248247Y0112173D02*
X0266253Y0112173D01*
X0266646Y0111780D02*
X0248247Y0111780D01*
X0248247Y0111388D02*
X0267038Y0111388D01*
X0267430Y0110996D02*
X0248247Y0110996D01*
X0248247Y0110604D02*
X0267822Y0110604D01*
X0268214Y0110212D02*
X0248247Y0110212D01*
X0248247Y0109819D02*
X0268607Y0109819D01*
X0268999Y0109427D02*
X0248397Y0109427D01*
X0248789Y0109035D02*
X0269391Y0109035D01*
X0269783Y0108643D02*
X0249181Y0108643D01*
X0249573Y0108251D02*
X0270175Y0108251D01*
X0270503Y0107858D02*
X0249966Y0107858D01*
X0250358Y0107466D02*
X0270503Y0107466D01*
X0270503Y0107074D02*
X0250750Y0107074D01*
X0251142Y0106682D02*
X0270503Y0106682D01*
X0270503Y0106289D02*
X0251534Y0106289D01*
X0251927Y0105897D02*
X0270503Y0105897D01*
X0270503Y0105505D02*
X0252319Y0105505D01*
X0252711Y0105113D02*
X0270813Y0105113D01*
X0271205Y0104721D02*
X0253103Y0104721D01*
X0253496Y0104328D02*
X0271598Y0104328D01*
X0271990Y0103936D02*
X0253888Y0103936D01*
X0254280Y0103544D02*
X0272382Y0103544D01*
X0272774Y0103152D02*
X0254672Y0103152D01*
X0255064Y0102760D02*
X0273166Y0102760D01*
X0273559Y0102367D02*
X0255457Y0102367D01*
X0255849Y0101975D02*
X0273951Y0101975D01*
X0274343Y0101583D02*
X0256241Y0101583D01*
X0256633Y0101191D02*
X0274735Y0101191D01*
X0275128Y0100799D02*
X0257025Y0100799D01*
X0257418Y0100406D02*
X0264356Y0100406D01*
X0263964Y0100014D02*
X0257810Y0100014D01*
X0258202Y0099622D02*
X0263572Y0099622D01*
X0263544Y0099230D02*
X0258594Y0099230D01*
X0258987Y0098837D02*
X0263544Y0098837D01*
X0263544Y0098445D02*
X0259379Y0098445D01*
X0259771Y0098053D02*
X0263544Y0098053D01*
X0263544Y0097661D02*
X0260163Y0097661D01*
X0260555Y0097269D02*
X0263544Y0097269D01*
X0263544Y0096876D02*
X0260948Y0096876D01*
X0261340Y0096484D02*
X0263544Y0096484D01*
X0263544Y0096092D02*
X0261732Y0096092D01*
X0262124Y0095700D02*
X0263544Y0095700D01*
X0263544Y0095308D02*
X0262516Y0095308D01*
X0262909Y0094915D02*
X0263544Y0094915D01*
X0263544Y0094523D02*
X0263301Y0094523D01*
X0259214Y0092962D02*
X0253112Y0092962D01*
X0252294Y0092144D01*
X0252294Y0086656D01*
X0253112Y0085837D01*
X0259388Y0085837D01*
X0259597Y0086046D01*
X0260303Y0085340D01*
X0261379Y0084264D01*
X0261379Y0082502D01*
X0262197Y0081684D01*
X0269530Y0081684D01*
X0272161Y0079053D01*
X0276777Y0079053D01*
X0277080Y0078750D01*
X0276777Y0078447D01*
X0272161Y0078447D01*
X0269530Y0075816D01*
X0262197Y0075816D01*
X0261379Y0074998D01*
X0261379Y0073236D01*
X0260303Y0072160D01*
X0259597Y0071454D01*
X0259388Y0071663D01*
X0253112Y0071663D01*
X0252294Y0070844D01*
X0252294Y0065356D01*
X0253112Y0064538D01*
X0259388Y0064538D01*
X0260206Y0065356D01*
X0260206Y0065904D01*
X0260260Y0065904D01*
X0261379Y0067022D01*
X0261379Y0066360D01*
X0262197Y0065542D01*
X0270218Y0065542D01*
X0268513Y0063837D01*
X0268394Y0063956D01*
X0262906Y0063956D01*
X0262500Y0063550D01*
X0262094Y0063956D01*
X0256606Y0063956D01*
X0255788Y0063138D01*
X0255788Y0061997D01*
X0252077Y0061997D01*
X0249497Y0064577D01*
X0249497Y0102679D01*
X0259214Y0092962D01*
X0258830Y0093346D02*
X0249497Y0093346D01*
X0249497Y0092954D02*
X0253105Y0092954D01*
X0252713Y0092562D02*
X0249497Y0092562D01*
X0249497Y0092170D02*
X0252320Y0092170D01*
X0252294Y0091778D02*
X0249497Y0091778D01*
X0249497Y0091385D02*
X0252294Y0091385D01*
X0252294Y0090993D02*
X0249497Y0090993D01*
X0249497Y0090601D02*
X0252294Y0090601D01*
X0252294Y0090209D02*
X0249497Y0090209D01*
X0249497Y0089817D02*
X0252294Y0089817D01*
X0252294Y0089424D02*
X0249497Y0089424D01*
X0249497Y0089032D02*
X0252294Y0089032D01*
X0252294Y0088640D02*
X0249497Y0088640D01*
X0249497Y0088248D02*
X0252294Y0088248D01*
X0252294Y0087856D02*
X0249497Y0087856D01*
X0249497Y0087463D02*
X0252294Y0087463D01*
X0252294Y0087071D02*
X0249497Y0087071D01*
X0249497Y0086679D02*
X0252294Y0086679D01*
X0252663Y0086287D02*
X0249497Y0086287D01*
X0249497Y0085894D02*
X0253055Y0085894D01*
X0249497Y0085502D02*
X0260141Y0085502D01*
X0260533Y0085110D02*
X0249497Y0085110D01*
X0249497Y0084718D02*
X0260925Y0084718D01*
X0261318Y0084326D02*
X0249497Y0084326D01*
X0249497Y0083933D02*
X0261379Y0083933D01*
X0261379Y0083541D02*
X0249497Y0083541D01*
X0249497Y0083149D02*
X0261379Y0083149D01*
X0261379Y0082757D02*
X0249497Y0082757D01*
X0249497Y0082365D02*
X0261516Y0082365D01*
X0261909Y0081972D02*
X0249497Y0081972D01*
X0249497Y0081580D02*
X0269634Y0081580D01*
X0270026Y0081188D02*
X0249497Y0081188D01*
X0249497Y0080796D02*
X0270418Y0080796D01*
X0270811Y0080403D02*
X0249497Y0080403D01*
X0249497Y0080011D02*
X0271203Y0080011D01*
X0271595Y0079619D02*
X0249497Y0079619D01*
X0249497Y0079227D02*
X0271987Y0079227D01*
X0272156Y0078442D02*
X0249497Y0078442D01*
X0249497Y0078050D02*
X0271764Y0078050D01*
X0271372Y0077658D02*
X0249497Y0077658D01*
X0249497Y0077266D02*
X0270980Y0077266D01*
X0270588Y0076874D02*
X0249497Y0076874D01*
X0249497Y0076481D02*
X0270195Y0076481D01*
X0269803Y0076089D02*
X0249497Y0076089D01*
X0249497Y0075697D02*
X0262078Y0075697D01*
X0261686Y0075305D02*
X0249497Y0075305D01*
X0249497Y0074913D02*
X0261379Y0074913D01*
X0261379Y0074520D02*
X0249497Y0074520D01*
X0249497Y0074128D02*
X0261379Y0074128D01*
X0261379Y0073736D02*
X0249497Y0073736D01*
X0249497Y0073344D02*
X0261379Y0073344D01*
X0261095Y0072951D02*
X0249497Y0072951D01*
X0249497Y0072559D02*
X0260702Y0072559D01*
X0260310Y0072167D02*
X0249497Y0072167D01*
X0249497Y0071775D02*
X0259918Y0071775D01*
X0252832Y0071383D02*
X0249497Y0071383D01*
X0249497Y0070990D02*
X0252440Y0070990D01*
X0252294Y0070598D02*
X0249497Y0070598D01*
X0249497Y0070206D02*
X0252294Y0070206D01*
X0252294Y0069814D02*
X0249497Y0069814D01*
X0249497Y0069422D02*
X0252294Y0069422D01*
X0252294Y0069029D02*
X0249497Y0069029D01*
X0249497Y0068637D02*
X0252294Y0068637D01*
X0252294Y0068245D02*
X0249497Y0068245D01*
X0249497Y0067853D02*
X0252294Y0067853D01*
X0252294Y0067460D02*
X0249497Y0067460D01*
X0249497Y0067068D02*
X0252294Y0067068D01*
X0252294Y0066676D02*
X0249497Y0066676D01*
X0249497Y0066284D02*
X0252294Y0066284D01*
X0252294Y0065892D02*
X0249497Y0065892D01*
X0249497Y0065499D02*
X0252294Y0065499D01*
X0252543Y0065107D02*
X0249497Y0065107D01*
X0249497Y0064715D02*
X0252936Y0064715D01*
X0251320Y0062754D02*
X0255788Y0062754D01*
X0255797Y0063146D02*
X0250928Y0063146D01*
X0250536Y0063538D02*
X0256189Y0063538D01*
X0256581Y0063931D02*
X0250143Y0063931D01*
X0249751Y0064323D02*
X0268999Y0064323D01*
X0269391Y0064715D02*
X0259564Y0064715D01*
X0259957Y0065107D02*
X0269783Y0065107D01*
X0270175Y0065499D02*
X0260206Y0065499D01*
X0260206Y0065892D02*
X0261847Y0065892D01*
X0261455Y0066284D02*
X0260641Y0066284D01*
X0261033Y0066676D02*
X0261379Y0066676D01*
X0262120Y0063931D02*
X0262880Y0063931D01*
X0255788Y0062362D02*
X0251712Y0062362D01*
X0268419Y0063931D02*
X0268607Y0063931D01*
X0287160Y0054053D02*
X0288447Y0055340D01*
X0289697Y0056590D01*
X0289697Y0072840D01*
X0292029Y0075172D01*
X0293212Y0075172D01*
X0294527Y0075717D01*
X0295533Y0076723D01*
X0296078Y0078038D01*
X0296078Y0079462D01*
X0295533Y0080777D01*
X0294697Y0081613D01*
X0294697Y0094660D01*
X0293410Y0095947D01*
X0289697Y0099660D01*
X0289697Y0124660D01*
X0288410Y0125947D01*
X0288241Y0126116D01*
X0288870Y0126745D01*
X0289565Y0128423D01*
X0289565Y0136577D01*
X0288870Y0138255D01*
X0287586Y0139539D01*
X0286997Y0139783D01*
X0286997Y0140704D01*
X0287027Y0140717D01*
X0288033Y0141723D01*
X0288578Y0143038D01*
X0288578Y0144462D01*
X0288033Y0145777D01*
X0287027Y0146783D01*
X0285793Y0147294D01*
X0285894Y0147294D01*
X0286712Y0148112D01*
X0286712Y0151714D01*
X0295423Y0143003D01*
X0297077Y0143003D01*
X0301853Y0143003D01*
X0301422Y0141962D01*
X0301422Y0140538D01*
X0301967Y0139223D01*
X0302033Y0139157D01*
X0301130Y0138255D01*
X0300435Y0136577D01*
X0300435Y0128423D01*
X0301130Y0126745D01*
X0302414Y0125461D01*
X0303003Y0125217D01*
X0303003Y0122923D01*
X0304173Y0121753D01*
X0306673Y0119253D01*
X0314214Y0119253D01*
X0314717Y0118750D01*
X0314076Y0118108D01*
X0314076Y0114392D01*
X0314717Y0113750D01*
X0314214Y0113247D01*
X0307923Y0113247D01*
X0299173Y0104497D01*
X0298003Y0103327D01*
X0298003Y0066673D01*
X0301753Y0062923D01*
X0301753Y0054577D01*
X0300423Y0053247D01*
X0299253Y0052077D01*
X0299253Y0051712D01*
X0298112Y0051712D01*
X0297294Y0050894D01*
X0297294Y0050118D01*
X0295423Y0048247D01*
X0294253Y0047077D01*
X0294253Y0040647D01*
X0293212Y0041078D01*
X0291788Y0041078D01*
X0290473Y0040533D01*
X0289637Y0039697D01*
X0280910Y0039697D01*
X0275607Y0045000D01*
X0277038Y0046431D01*
X0277038Y0045612D01*
X0277856Y0044794D01*
X0283344Y0044794D01*
X0284163Y0045612D01*
X0284163Y0051888D01*
X0283344Y0052706D01*
X0283197Y0052706D01*
X0283197Y0053574D01*
X0285106Y0053574D01*
X0285586Y0054053D01*
X0287160Y0054053D01*
X0287232Y0054125D02*
X0301301Y0054125D01*
X0300909Y0053733D02*
X0285266Y0053733D01*
X0283886Y0052164D02*
X0299340Y0052164D01*
X0299253Y0051772D02*
X0284163Y0051772D01*
X0284163Y0051380D02*
X0297780Y0051380D01*
X0297388Y0050988D02*
X0284163Y0050988D01*
X0284163Y0050595D02*
X0297294Y0050595D01*
X0297294Y0050203D02*
X0284163Y0050203D01*
X0284163Y0049811D02*
X0296987Y0049811D01*
X0296595Y0049419D02*
X0284163Y0049419D01*
X0284163Y0049027D02*
X0296203Y0049027D01*
X0295810Y0048634D02*
X0284163Y0048634D01*
X0284163Y0048242D02*
X0295418Y0048242D01*
X0295026Y0047850D02*
X0284163Y0047850D01*
X0284163Y0047458D02*
X0294634Y0047458D01*
X0294253Y0047065D02*
X0284163Y0047065D01*
X0284163Y0046673D02*
X0294253Y0046673D01*
X0294253Y0046281D02*
X0284163Y0046281D01*
X0284163Y0045889D02*
X0294253Y0045889D01*
X0294253Y0045497D02*
X0284047Y0045497D01*
X0283655Y0045104D02*
X0294253Y0045104D01*
X0294253Y0044712D02*
X0275895Y0044712D01*
X0275711Y0045104D02*
X0277546Y0045104D01*
X0277154Y0045497D02*
X0276103Y0045497D01*
X0276496Y0045889D02*
X0277038Y0045889D01*
X0277038Y0046281D02*
X0276888Y0046281D01*
X0276287Y0044320D02*
X0294253Y0044320D01*
X0294253Y0043928D02*
X0276679Y0043928D01*
X0277071Y0043536D02*
X0294253Y0043536D01*
X0294253Y0043143D02*
X0277463Y0043143D01*
X0277856Y0042751D02*
X0294253Y0042751D01*
X0294253Y0042359D02*
X0278248Y0042359D01*
X0278640Y0041967D02*
X0294253Y0041967D01*
X0294253Y0041574D02*
X0279032Y0041574D01*
X0279425Y0041182D02*
X0294253Y0041182D01*
X0294253Y0040790D02*
X0293907Y0040790D01*
X0291093Y0040790D02*
X0279817Y0040790D01*
X0280209Y0040398D02*
X0290338Y0040398D01*
X0289946Y0040006D02*
X0280601Y0040006D01*
X0277525Y0036868D02*
X0262197Y0036868D01*
X0262197Y0037260D02*
X0277133Y0037260D01*
X0276741Y0037652D02*
X0262197Y0037652D01*
X0262197Y0038045D02*
X0276349Y0038045D01*
X0275956Y0038437D02*
X0262197Y0038437D01*
X0262197Y0038829D02*
X0275564Y0038829D01*
X0275172Y0039221D02*
X0262197Y0039221D01*
X0262197Y0039613D02*
X0274780Y0039613D01*
X0274388Y0040006D02*
X0262197Y0040006D01*
X0262197Y0040398D02*
X0273995Y0040398D01*
X0273603Y0040790D02*
X0262197Y0040790D01*
X0262197Y0041182D02*
X0273211Y0041182D01*
X0272819Y0041574D02*
X0262197Y0041574D01*
X0262197Y0041967D02*
X0272426Y0041967D01*
X0272034Y0042359D02*
X0262197Y0042359D01*
X0262197Y0042751D02*
X0271642Y0042751D01*
X0271590Y0042803D02*
X0279090Y0035303D01*
X0279979Y0035303D01*
X0278661Y0033985D01*
X0277491Y0032815D01*
X0277491Y0032568D01*
X0276744Y0032568D01*
X0275926Y0031750D01*
X0275926Y0031374D01*
X0275638Y0031663D01*
X0269362Y0031663D01*
X0268544Y0030844D01*
X0268544Y0030297D01*
X0266560Y0030297D01*
X0262197Y0034660D01*
X0262197Y0042803D01*
X0271590Y0042803D01*
X0277917Y0036476D02*
X0262197Y0036476D01*
X0262197Y0036084D02*
X0278310Y0036084D01*
X0278702Y0035691D02*
X0262197Y0035691D01*
X0262197Y0035299D02*
X0279975Y0035299D01*
X0279583Y0034907D02*
X0262197Y0034907D01*
X0262342Y0034515D02*
X0279191Y0034515D01*
X0278798Y0034122D02*
X0262734Y0034122D01*
X0263127Y0033730D02*
X0278406Y0033730D01*
X0278014Y0033338D02*
X0263519Y0033338D01*
X0263911Y0032946D02*
X0277622Y0032946D01*
X0276730Y0032554D02*
X0264303Y0032554D01*
X0264695Y0032161D02*
X0276338Y0032161D01*
X0275945Y0031769D02*
X0265088Y0031769D01*
X0265480Y0031377D02*
X0269077Y0031377D01*
X0268685Y0030985D02*
X0265872Y0030985D01*
X0266264Y0030593D02*
X0268544Y0030593D01*
X0275923Y0031377D02*
X0275926Y0031377D01*
X0283050Y0031377D02*
X0286950Y0031377D01*
X0286950Y0030985D02*
X0283050Y0030985D01*
X0283050Y0030593D02*
X0286950Y0030593D01*
X0286950Y0030200D02*
X0283050Y0030200D01*
X0283050Y0029808D02*
X0286950Y0029808D01*
X0286950Y0029416D02*
X0283050Y0029416D01*
X0283050Y0029024D02*
X0286950Y0029024D01*
X0286950Y0028631D02*
X0283050Y0028631D01*
X0283050Y0028239D02*
X0286950Y0028239D01*
X0287333Y0027847D02*
X0283050Y0027847D01*
X0283050Y0027455D02*
X0287725Y0027455D01*
X0287389Y0024709D02*
X0283050Y0024709D01*
X0283050Y0025102D02*
X0304838Y0025102D01*
X0304458Y0025494D02*
X0283050Y0025494D01*
X0283050Y0025886D02*
X0304296Y0025886D01*
X0304133Y0026278D02*
X0283050Y0026278D01*
X0283050Y0026670D02*
X0303971Y0026670D01*
X0303922Y0027063D02*
X0283050Y0027063D01*
X0283003Y0024317D02*
X0285243Y0024317D01*
X0284851Y0023925D02*
X0283050Y0023925D01*
X0283050Y0023533D02*
X0284459Y0023533D01*
X0284067Y0023141D02*
X0283050Y0023141D01*
X0283050Y0022748D02*
X0283674Y0022748D01*
X0283282Y0022356D02*
X0283050Y0022356D01*
X0286185Y0019611D02*
X0312283Y0019611D01*
X0312675Y0019218D02*
X0285792Y0019218D01*
X0285400Y0018826D02*
X0392107Y0018826D01*
X0392107Y0018434D02*
X0285008Y0018434D01*
X0284616Y0018042D02*
X0392107Y0018042D01*
X0392107Y0017650D02*
X0284224Y0017650D01*
X0283831Y0017257D02*
X0392107Y0017257D01*
X0392107Y0016865D02*
X0283439Y0016865D01*
X0286577Y0020003D02*
X0287697Y0020003D01*
X0287305Y0020395D02*
X0286969Y0020395D01*
X0293327Y0020003D02*
X0311890Y0020003D01*
X0311498Y0020395D02*
X0293719Y0020395D01*
X0294074Y0020787D02*
X0311106Y0020787D01*
X0310714Y0021179D02*
X0294074Y0021179D01*
X0294074Y0021572D02*
X0310322Y0021572D01*
X0309929Y0021964D02*
X0294074Y0021964D01*
X0294074Y0022356D02*
X0309537Y0022356D01*
X0309145Y0022748D02*
X0294074Y0022748D01*
X0294074Y0023141D02*
X0308753Y0023141D01*
X0308360Y0023533D02*
X0294074Y0023533D01*
X0294074Y0023925D02*
X0306781Y0023925D01*
X0305834Y0024317D02*
X0294026Y0024317D01*
X0293634Y0024709D02*
X0305231Y0024709D01*
X0303922Y0027455D02*
X0293298Y0027455D01*
X0293691Y0027847D02*
X0303922Y0027847D01*
X0303933Y0028239D02*
X0296063Y0028239D01*
X0296455Y0028631D02*
X0304096Y0028631D01*
X0304258Y0029024D02*
X0296848Y0029024D01*
X0316110Y0030200D02*
X0322706Y0030200D01*
X0317317Y0028239D02*
X0339794Y0028239D01*
X0339794Y0027847D02*
X0317328Y0027847D01*
X0317328Y0027455D02*
X0322861Y0027455D01*
X0322469Y0027063D02*
X0317328Y0027063D01*
X0317154Y0028631D02*
X0340081Y0028631D01*
X0340473Y0029024D02*
X0316992Y0029024D01*
X0316829Y0029416D02*
X0392107Y0029416D01*
X0392107Y0029808D02*
X0316502Y0029808D01*
X0317059Y0034515D02*
X0322441Y0034515D01*
X0322833Y0034907D02*
X0316997Y0034907D01*
X0316997Y0035299D02*
X0392107Y0035299D01*
X0392107Y0034907D02*
X0328643Y0034907D01*
X0329036Y0034515D02*
X0392107Y0034515D01*
X0392107Y0034122D02*
X0329300Y0034122D01*
X0329300Y0033730D02*
X0392107Y0033730D01*
X0392107Y0033338D02*
X0329300Y0033338D01*
X0329300Y0032946D02*
X0392107Y0032946D01*
X0392107Y0032554D02*
X0329300Y0032554D01*
X0329300Y0032161D02*
X0392107Y0032161D01*
X0392107Y0031769D02*
X0329300Y0031769D01*
X0329300Y0031377D02*
X0392107Y0031377D01*
X0392107Y0030985D02*
X0329300Y0030985D01*
X0329162Y0030593D02*
X0392107Y0030593D01*
X0392107Y0030200D02*
X0328770Y0030200D01*
X0328615Y0027455D02*
X0333885Y0027455D01*
X0333493Y0027063D02*
X0329007Y0027063D01*
X0329300Y0026670D02*
X0333200Y0026670D01*
X0333200Y0026278D02*
X0329300Y0026278D01*
X0329300Y0025886D02*
X0333200Y0025886D01*
X0333200Y0025494D02*
X0329300Y0025494D01*
X0329300Y0025102D02*
X0333200Y0025102D01*
X0333200Y0024709D02*
X0329300Y0024709D01*
X0329300Y0024317D02*
X0333200Y0024317D01*
X0333200Y0023925D02*
X0329300Y0023925D01*
X0329300Y0023533D02*
X0333200Y0023533D01*
X0338428Y0021572D02*
X0392107Y0021572D01*
X0392107Y0021964D02*
X0338821Y0021964D01*
X0338959Y0022356D02*
X0340294Y0022356D01*
X0339902Y0022748D02*
X0339822Y0022748D01*
X0338036Y0021179D02*
X0392107Y0021179D01*
X0392107Y0020787D02*
X0337644Y0020787D01*
X0337252Y0020395D02*
X0392107Y0020395D01*
X0392107Y0020003D02*
X0336860Y0020003D01*
X0336467Y0019611D02*
X0392107Y0019611D01*
X0392107Y0019218D02*
X0336075Y0019218D01*
X0347206Y0022356D02*
X0392107Y0022356D01*
X0392107Y0022748D02*
X0347598Y0022748D01*
X0347706Y0023141D02*
X0392107Y0023141D01*
X0392107Y0023533D02*
X0347706Y0023533D01*
X0347706Y0023925D02*
X0392107Y0023925D01*
X0392107Y0024317D02*
X0347706Y0024317D01*
X0347706Y0024709D02*
X0392107Y0024709D01*
X0392107Y0025102D02*
X0347706Y0025102D01*
X0347706Y0025494D02*
X0392107Y0025494D01*
X0392107Y0025886D02*
X0347706Y0025886D01*
X0347706Y0026278D02*
X0392107Y0026278D01*
X0392107Y0026670D02*
X0347706Y0026670D01*
X0347706Y0027063D02*
X0392107Y0027063D01*
X0392107Y0027455D02*
X0347706Y0027455D01*
X0347706Y0027847D02*
X0392107Y0027847D01*
X0392107Y0028239D02*
X0347706Y0028239D01*
X0347419Y0028631D02*
X0392107Y0028631D01*
X0392107Y0029024D02*
X0347027Y0029024D01*
X0339794Y0027455D02*
X0339639Y0027455D01*
X0316997Y0035691D02*
X0392107Y0035691D01*
X0392107Y0036084D02*
X0316997Y0036084D01*
X0316997Y0036476D02*
X0392107Y0036476D01*
X0392107Y0036868D02*
X0316997Y0036868D01*
X0316997Y0037260D02*
X0392107Y0037260D01*
X0392107Y0037652D02*
X0316997Y0037652D01*
X0316997Y0038045D02*
X0392107Y0038045D01*
X0392107Y0038437D02*
X0316997Y0038437D01*
X0316997Y0038829D02*
X0392107Y0038829D01*
X0392107Y0039221D02*
X0316997Y0039221D01*
X0316997Y0039613D02*
X0392107Y0039613D01*
X0392107Y0040006D02*
X0316997Y0040006D01*
X0316997Y0040398D02*
X0392107Y0040398D01*
X0392107Y0040790D02*
X0316997Y0040790D01*
X0316997Y0041182D02*
X0392107Y0041182D01*
X0392107Y0041574D02*
X0316997Y0041574D01*
X0316997Y0041967D02*
X0392107Y0041967D01*
X0392107Y0042359D02*
X0316997Y0042359D01*
X0316997Y0042751D02*
X0392107Y0042751D01*
X0392107Y0043143D02*
X0316997Y0043143D01*
X0316997Y0043536D02*
X0392107Y0043536D01*
X0392107Y0043928D02*
X0316997Y0043928D01*
X0316997Y0044320D02*
X0392107Y0044320D01*
X0392107Y0044712D02*
X0316997Y0044712D01*
X0316997Y0045104D02*
X0392107Y0045104D01*
X0392107Y0045497D02*
X0316997Y0045497D01*
X0316935Y0045889D02*
X0392107Y0045889D01*
X0392107Y0046281D02*
X0316543Y0046281D01*
X0316151Y0046673D02*
X0392107Y0046673D01*
X0392107Y0047065D02*
X0315759Y0047065D01*
X0315366Y0047458D02*
X0392107Y0047458D01*
X0392107Y0047850D02*
X0314974Y0047850D01*
X0314582Y0048242D02*
X0392107Y0048242D01*
X0392107Y0048634D02*
X0314190Y0048634D01*
X0313797Y0049027D02*
X0392107Y0049027D01*
X0392107Y0049419D02*
X0313405Y0049419D01*
X0313013Y0049811D02*
X0392107Y0049811D01*
X0392107Y0050203D02*
X0312706Y0050203D01*
X0312706Y0050595D02*
X0392107Y0050595D01*
X0392107Y0050988D02*
X0312612Y0050988D01*
X0312220Y0051380D02*
X0392107Y0051380D01*
X0392107Y0051772D02*
X0310747Y0051772D01*
X0310660Y0052164D02*
X0392107Y0052164D01*
X0392107Y0052556D02*
X0310268Y0052556D01*
X0309875Y0052949D02*
X0392107Y0052949D01*
X0392107Y0053341D02*
X0309483Y0053341D01*
X0309091Y0053733D02*
X0314734Y0053733D01*
X0314342Y0054125D02*
X0308699Y0054125D01*
X0308306Y0054517D02*
X0314076Y0054517D01*
X0314076Y0054910D02*
X0308247Y0054910D01*
X0308247Y0055302D02*
X0314076Y0055302D01*
X0314076Y0055694D02*
X0308247Y0055694D01*
X0308247Y0056086D02*
X0314076Y0056086D01*
X0314076Y0056479D02*
X0308247Y0056479D01*
X0308247Y0056871D02*
X0314076Y0056871D01*
X0314076Y0057263D02*
X0308247Y0057263D01*
X0308247Y0057655D02*
X0314076Y0057655D01*
X0314076Y0058047D02*
X0308247Y0058047D01*
X0308247Y0058440D02*
X0314407Y0058440D01*
X0314636Y0058832D02*
X0308247Y0058832D01*
X0308247Y0059224D02*
X0314243Y0059224D01*
X0314076Y0059616D02*
X0308247Y0059616D01*
X0308247Y0060008D02*
X0314076Y0060008D01*
X0314076Y0060401D02*
X0308247Y0060401D01*
X0308247Y0060793D02*
X0314076Y0060793D01*
X0314076Y0061185D02*
X0308247Y0061185D01*
X0308247Y0061577D02*
X0314076Y0061577D01*
X0314076Y0061970D02*
X0308247Y0061970D01*
X0308247Y0062362D02*
X0314076Y0062362D01*
X0314076Y0062754D02*
X0308247Y0062754D01*
X0308247Y0063146D02*
X0314114Y0063146D01*
X0314506Y0063538D02*
X0308247Y0063538D01*
X0308247Y0063931D02*
X0314537Y0063931D01*
X0314145Y0064323D02*
X0308247Y0064323D01*
X0308247Y0064715D02*
X0314076Y0064715D01*
X0314076Y0065107D02*
X0308247Y0065107D01*
X0308247Y0065499D02*
X0314076Y0065499D01*
X0314076Y0065892D02*
X0308182Y0065892D01*
X0307790Y0066284D02*
X0314076Y0066284D01*
X0314076Y0066676D02*
X0307398Y0066676D01*
X0307006Y0067068D02*
X0314076Y0067068D01*
X0314076Y0067460D02*
X0306613Y0067460D01*
X0306221Y0067853D02*
X0314076Y0067853D01*
X0314212Y0068245D02*
X0305829Y0068245D01*
X0305437Y0068637D02*
X0314605Y0068637D01*
X0314438Y0069029D02*
X0305045Y0069029D01*
X0304652Y0069422D02*
X0314076Y0069422D01*
X0314076Y0069814D02*
X0304497Y0069814D01*
X0304497Y0070206D02*
X0314076Y0070206D01*
X0314076Y0070598D02*
X0304497Y0070598D01*
X0304497Y0070990D02*
X0314076Y0070990D01*
X0314076Y0071383D02*
X0304497Y0071383D01*
X0304497Y0071775D02*
X0314076Y0071775D01*
X0314076Y0072167D02*
X0304497Y0072167D01*
X0304497Y0072559D02*
X0314076Y0072559D01*
X0314076Y0072951D02*
X0304497Y0072951D01*
X0304497Y0073344D02*
X0314311Y0073344D01*
X0314703Y0073736D02*
X0304497Y0073736D01*
X0304497Y0074128D02*
X0331304Y0074128D01*
X0330912Y0073736D02*
X0322934Y0073736D01*
X0323327Y0073344D02*
X0330520Y0073344D01*
X0331696Y0074520D02*
X0304497Y0074520D01*
X0304497Y0074913D02*
X0332089Y0074913D01*
X0332481Y0075305D02*
X0307282Y0075305D01*
X0308229Y0075697D02*
X0332873Y0075697D01*
X0333265Y0076089D02*
X0308649Y0076089D01*
X0309041Y0076481D02*
X0333657Y0076481D01*
X0334050Y0076874D02*
X0309345Y0076874D01*
X0309508Y0077266D02*
X0334442Y0077266D01*
X0334834Y0077658D02*
X0309670Y0077658D01*
X0309828Y0078050D02*
X0335226Y0078050D01*
X0335618Y0078442D02*
X0330743Y0078442D01*
X0331135Y0078835D02*
X0336011Y0078835D01*
X0336403Y0079227D02*
X0331456Y0079227D01*
X0331456Y0079619D02*
X0336795Y0079619D01*
X0337187Y0080011D02*
X0331456Y0080011D01*
X0331456Y0080403D02*
X0337580Y0080403D01*
X0337972Y0080796D02*
X0331456Y0080796D01*
X0331456Y0081188D02*
X0338364Y0081188D01*
X0338756Y0081580D02*
X0331456Y0081580D01*
X0331456Y0081972D02*
X0339148Y0081972D01*
X0339541Y0082365D02*
X0331456Y0082365D01*
X0331456Y0082757D02*
X0339933Y0082757D01*
X0340325Y0083149D02*
X0331456Y0083149D01*
X0331456Y0083541D02*
X0340717Y0083541D01*
X0341109Y0083933D02*
X0331456Y0083933D01*
X0333400Y0084326D02*
X0341502Y0084326D01*
X0341894Y0084718D02*
X0333792Y0084718D01*
X0334184Y0085110D02*
X0342286Y0085110D01*
X0342678Y0085502D02*
X0334576Y0085502D01*
X0334968Y0085894D02*
X0343070Y0085894D01*
X0343463Y0086287D02*
X0335361Y0086287D01*
X0335753Y0086679D02*
X0343855Y0086679D01*
X0344247Y0087071D02*
X0336145Y0087071D01*
X0336537Y0087463D02*
X0344253Y0087463D01*
X0344253Y0087856D02*
X0336929Y0087856D01*
X0337322Y0088248D02*
X0344253Y0088248D01*
X0344253Y0088640D02*
X0337714Y0088640D01*
X0338106Y0089032D02*
X0344253Y0089032D01*
X0344253Y0089424D02*
X0338498Y0089424D01*
X0338891Y0089817D02*
X0344253Y0089817D01*
X0344253Y0090209D02*
X0339283Y0090209D01*
X0339675Y0090601D02*
X0344253Y0090601D01*
X0344253Y0090993D02*
X0340067Y0090993D01*
X0340459Y0091385D02*
X0344253Y0091385D01*
X0344253Y0091778D02*
X0340852Y0091778D01*
X0341244Y0092170D02*
X0344253Y0092170D01*
X0344253Y0092562D02*
X0341636Y0092562D01*
X0342028Y0092954D02*
X0344253Y0092954D01*
X0344253Y0093346D02*
X0342420Y0093346D01*
X0342813Y0093739D02*
X0344253Y0093739D01*
X0344253Y0094131D02*
X0343205Y0094131D01*
X0343597Y0094523D02*
X0344253Y0094523D01*
X0344253Y0094915D02*
X0343989Y0094915D01*
X0348247Y0094915D02*
X0355841Y0094915D01*
X0355449Y0094523D02*
X0348247Y0094523D01*
X0348247Y0094131D02*
X0355057Y0094131D01*
X0354665Y0093739D02*
X0348247Y0093739D01*
X0348247Y0093346D02*
X0354273Y0093346D01*
X0353880Y0092954D02*
X0348247Y0092954D01*
X0348247Y0092562D02*
X0353488Y0092562D01*
X0353096Y0092170D02*
X0348247Y0092170D01*
X0348247Y0091778D02*
X0352704Y0091778D01*
X0352311Y0091385D02*
X0348247Y0091385D01*
X0348247Y0090993D02*
X0351919Y0090993D01*
X0351527Y0090601D02*
X0348247Y0090601D01*
X0348247Y0090209D02*
X0351135Y0090209D01*
X0350743Y0089817D02*
X0348247Y0089817D01*
X0348247Y0089424D02*
X0350350Y0089424D01*
X0349958Y0089032D02*
X0348247Y0089032D01*
X0348247Y0088640D02*
X0349566Y0088640D01*
X0349174Y0088248D02*
X0348247Y0088248D01*
X0348247Y0087856D02*
X0348782Y0087856D01*
X0348389Y0087463D02*
X0348247Y0087463D01*
X0356046Y0081972D02*
X0360176Y0081972D01*
X0360172Y0081580D02*
X0355654Y0081580D01*
X0355262Y0081188D02*
X0360172Y0081188D01*
X0360172Y0080796D02*
X0354870Y0080796D01*
X0354477Y0080403D02*
X0360228Y0080403D01*
X0360390Y0080011D02*
X0354085Y0080011D01*
X0353693Y0079619D02*
X0360553Y0079619D01*
X0360715Y0079227D02*
X0353301Y0079227D01*
X0352909Y0078835D02*
X0361105Y0078835D01*
X0361498Y0078442D02*
X0352516Y0078442D01*
X0352124Y0078050D02*
X0362125Y0078050D01*
X0365375Y0078050D02*
X0370875Y0078050D01*
X0370248Y0078442D02*
X0366002Y0078442D01*
X0366395Y0078835D02*
X0369855Y0078835D01*
X0369465Y0079227D02*
X0366785Y0079227D01*
X0366947Y0079619D02*
X0369303Y0079619D01*
X0369140Y0080011D02*
X0367110Y0080011D01*
X0367272Y0080403D02*
X0368978Y0080403D01*
X0368922Y0080796D02*
X0367328Y0080796D01*
X0367328Y0081188D02*
X0368922Y0081188D01*
X0368922Y0081580D02*
X0367328Y0081580D01*
X0367324Y0081972D02*
X0368926Y0081972D01*
X0369089Y0082365D02*
X0367161Y0082365D01*
X0366999Y0082757D02*
X0369251Y0082757D01*
X0369414Y0083149D02*
X0366836Y0083149D01*
X0366519Y0083541D02*
X0369731Y0083541D01*
X0369413Y0083933D02*
X0367122Y0083933D01*
X0367514Y0084326D02*
X0369021Y0084326D01*
X0368629Y0084718D02*
X0367906Y0084718D01*
X0368241Y0085110D02*
X0368294Y0085110D01*
X0374996Y0083933D02*
X0392107Y0083933D01*
X0392107Y0083541D02*
X0375269Y0083541D01*
X0375586Y0083149D02*
X0392107Y0083149D01*
X0392107Y0082757D02*
X0375749Y0082757D01*
X0375911Y0082365D02*
X0392107Y0082365D01*
X0392107Y0081972D02*
X0376074Y0081972D01*
X0376078Y0081580D02*
X0392107Y0081580D01*
X0392107Y0081188D02*
X0376078Y0081188D01*
X0376078Y0080796D02*
X0392107Y0080796D01*
X0392107Y0080403D02*
X0376022Y0080403D01*
X0375860Y0080011D02*
X0392107Y0080011D01*
X0392107Y0079619D02*
X0375697Y0079619D01*
X0375535Y0079227D02*
X0392107Y0079227D01*
X0392107Y0078835D02*
X0375145Y0078835D01*
X0374752Y0078442D02*
X0392107Y0078442D01*
X0392107Y0078050D02*
X0374125Y0078050D01*
X0375388Y0084326D02*
X0392107Y0084326D01*
X0392107Y0084718D02*
X0375780Y0084718D01*
X0376115Y0085110D02*
X0392107Y0085110D01*
X0392107Y0085502D02*
X0376278Y0085502D01*
X0376440Y0085894D02*
X0392107Y0085894D01*
X0392107Y0086287D02*
X0376603Y0086287D01*
X0376765Y0086679D02*
X0392107Y0086679D01*
X0392107Y0087071D02*
X0376770Y0087071D01*
X0376770Y0087463D02*
X0392107Y0087463D01*
X0392107Y0087856D02*
X0376770Y0087856D01*
X0376770Y0088248D02*
X0392107Y0088248D01*
X0392107Y0088640D02*
X0376715Y0088640D01*
X0376552Y0089032D02*
X0392107Y0089032D01*
X0392107Y0089424D02*
X0376390Y0089424D01*
X0376227Y0089817D02*
X0392107Y0089817D01*
X0392107Y0090209D02*
X0376051Y0090209D01*
X0375659Y0090601D02*
X0392107Y0090601D01*
X0392107Y0090993D02*
X0375266Y0090993D01*
X0374874Y0091385D02*
X0392107Y0091385D01*
X0392107Y0091778D02*
X0374045Y0091778D01*
X0370654Y0092170D02*
X0392107Y0092170D01*
X0392107Y0092562D02*
X0370262Y0092562D01*
X0369870Y0092954D02*
X0392107Y0092954D01*
X0392107Y0093346D02*
X0369477Y0093346D01*
X0369085Y0093739D02*
X0392107Y0093739D01*
X0392107Y0094131D02*
X0368693Y0094131D01*
X0367869Y0094523D02*
X0392107Y0094523D01*
X0392107Y0094915D02*
X0368226Y0094915D01*
X0368389Y0095308D02*
X0392107Y0095308D01*
X0392107Y0095700D02*
X0368551Y0095700D01*
X0368713Y0096092D02*
X0392107Y0096092D01*
X0392107Y0096484D02*
X0368876Y0096484D01*
X0368896Y0096876D02*
X0392107Y0096876D01*
X0392107Y0097269D02*
X0368896Y0097269D01*
X0368896Y0097661D02*
X0392107Y0097661D01*
X0392107Y0098053D02*
X0368896Y0098053D01*
X0368856Y0098445D02*
X0392107Y0098445D01*
X0392107Y0098837D02*
X0368694Y0098837D01*
X0368531Y0099230D02*
X0392107Y0099230D01*
X0392107Y0099622D02*
X0368369Y0099622D01*
X0368206Y0100014D02*
X0392107Y0100014D01*
X0392107Y0100406D02*
X0367822Y0100406D01*
X0367430Y0100799D02*
X0392107Y0100799D01*
X0392107Y0101191D02*
X0367037Y0101191D01*
X0366643Y0101583D02*
X0392107Y0101583D01*
X0392107Y0101975D02*
X0366888Y0101975D01*
X0367050Y0102367D02*
X0392107Y0102367D01*
X0392107Y0102760D02*
X0367212Y0102760D01*
X0367328Y0103152D02*
X0392107Y0103152D01*
X0392107Y0103544D02*
X0367328Y0103544D01*
X0367328Y0103936D02*
X0392107Y0103936D01*
X0392107Y0104328D02*
X0367328Y0104328D01*
X0367221Y0104721D02*
X0392107Y0104721D01*
X0392107Y0105113D02*
X0367058Y0105113D01*
X0366896Y0105505D02*
X0392107Y0105505D01*
X0392107Y0105897D02*
X0366663Y0105897D01*
X0366270Y0106289D02*
X0392107Y0106289D01*
X0392107Y0106682D02*
X0365878Y0106682D01*
X0365075Y0107074D02*
X0392107Y0107074D01*
X0392107Y0107466D02*
X0348247Y0107466D01*
X0348247Y0107074D02*
X0362425Y0107074D01*
X0361622Y0106682D02*
X0348247Y0106682D01*
X0348247Y0106289D02*
X0361230Y0106289D01*
X0360837Y0105897D02*
X0348247Y0105897D01*
X0348247Y0105505D02*
X0360604Y0105505D01*
X0360442Y0105113D02*
X0348247Y0105113D01*
X0348247Y0104721D02*
X0360279Y0104721D01*
X0360172Y0104328D02*
X0348247Y0104328D01*
X0348247Y0103936D02*
X0360172Y0103936D01*
X0360172Y0103544D02*
X0348247Y0103544D01*
X0348247Y0103152D02*
X0360172Y0103152D01*
X0360287Y0102760D02*
X0348247Y0102760D01*
X0348247Y0102367D02*
X0360450Y0102367D01*
X0360612Y0101975D02*
X0348247Y0101975D01*
X0348247Y0101583D02*
X0360857Y0101583D01*
X0361249Y0101191D02*
X0348247Y0101191D01*
X0348247Y0100799D02*
X0361232Y0100799D01*
X0360840Y0100406D02*
X0348247Y0100406D01*
X0348247Y0100014D02*
X0360455Y0100014D01*
X0360293Y0099622D02*
X0348247Y0099622D01*
X0348247Y0099230D02*
X0360130Y0099230D01*
X0359763Y0098837D02*
X0348247Y0098837D01*
X0348247Y0098445D02*
X0359371Y0098445D01*
X0359253Y0098327D02*
X0359253Y0098327D01*
X0358979Y0098053D02*
X0348247Y0098053D01*
X0348247Y0097661D02*
X0358587Y0097661D01*
X0358195Y0097269D02*
X0348247Y0097269D01*
X0348247Y0096876D02*
X0357802Y0096876D01*
X0357410Y0096484D02*
X0348247Y0096484D01*
X0348247Y0096092D02*
X0357018Y0096092D01*
X0356626Y0095700D02*
X0348247Y0095700D01*
X0348247Y0095308D02*
X0356234Y0095308D01*
X0359576Y0085502D02*
X0360257Y0085502D01*
X0360420Y0085110D02*
X0359184Y0085110D01*
X0358792Y0084718D02*
X0360755Y0084718D01*
X0361147Y0084326D02*
X0358400Y0084326D01*
X0358007Y0083933D02*
X0361373Y0083933D01*
X0360981Y0083541D02*
X0357615Y0083541D01*
X0357223Y0083149D02*
X0360664Y0083149D01*
X0360501Y0082757D02*
X0356831Y0082757D01*
X0356439Y0082365D02*
X0360339Y0082365D01*
X0351732Y0077658D02*
X0392107Y0077658D01*
X0392107Y0077266D02*
X0351340Y0077266D01*
X0350948Y0076874D02*
X0392107Y0076874D01*
X0392107Y0076481D02*
X0350555Y0076481D01*
X0350163Y0076089D02*
X0392107Y0076089D01*
X0392107Y0075697D02*
X0349771Y0075697D01*
X0349379Y0075305D02*
X0392107Y0075305D01*
X0392107Y0074913D02*
X0348986Y0074913D01*
X0348594Y0074520D02*
X0392107Y0074520D01*
X0392107Y0074128D02*
X0348202Y0074128D01*
X0347810Y0073736D02*
X0392107Y0073736D01*
X0392107Y0073344D02*
X0347418Y0073344D01*
X0347025Y0072951D02*
X0392107Y0072951D01*
X0392107Y0072559D02*
X0346633Y0072559D01*
X0346241Y0072167D02*
X0392107Y0072167D01*
X0392107Y0071775D02*
X0345849Y0071775D01*
X0345457Y0071383D02*
X0392107Y0071383D01*
X0392107Y0070990D02*
X0345064Y0070990D01*
X0344672Y0070598D02*
X0392107Y0070598D01*
X0392107Y0070206D02*
X0344280Y0070206D01*
X0343888Y0069814D02*
X0392107Y0069814D01*
X0392107Y0069422D02*
X0343496Y0069422D01*
X0343103Y0069029D02*
X0392107Y0069029D01*
X0392107Y0068637D02*
X0342711Y0068637D01*
X0342319Y0068245D02*
X0392107Y0068245D01*
X0392107Y0067853D02*
X0341927Y0067853D01*
X0341534Y0067460D02*
X0392107Y0067460D01*
X0392107Y0067068D02*
X0341142Y0067068D01*
X0340750Y0066676D02*
X0392107Y0066676D01*
X0392107Y0066284D02*
X0340358Y0066284D01*
X0339966Y0065892D02*
X0392107Y0065892D01*
X0392107Y0065499D02*
X0339573Y0065499D01*
X0339181Y0065107D02*
X0392107Y0065107D01*
X0392107Y0064715D02*
X0338789Y0064715D01*
X0338397Y0064323D02*
X0392107Y0064323D01*
X0392107Y0063931D02*
X0338005Y0063931D01*
X0337612Y0063538D02*
X0392107Y0063538D01*
X0392107Y0063146D02*
X0337220Y0063146D01*
X0336828Y0062754D02*
X0392107Y0062754D01*
X0392107Y0062362D02*
X0336436Y0062362D01*
X0336043Y0061970D02*
X0392107Y0061970D01*
X0392107Y0061577D02*
X0335651Y0061577D01*
X0335259Y0061185D02*
X0392107Y0061185D01*
X0392107Y0060793D02*
X0334867Y0060793D01*
X0334475Y0060401D02*
X0392107Y0060401D01*
X0392107Y0060008D02*
X0334082Y0060008D01*
X0333690Y0059616D02*
X0392107Y0059616D01*
X0392107Y0059224D02*
X0333298Y0059224D01*
X0332906Y0058832D02*
X0392107Y0058832D01*
X0392107Y0058440D02*
X0332514Y0058440D01*
X0332121Y0058047D02*
X0392107Y0058047D01*
X0392107Y0057655D02*
X0331729Y0057655D01*
X0331337Y0057263D02*
X0392107Y0057263D01*
X0392107Y0056871D02*
X0330945Y0056871D01*
X0330553Y0056479D02*
X0392107Y0056479D01*
X0392107Y0056086D02*
X0330160Y0056086D01*
X0329768Y0055694D02*
X0392107Y0055694D01*
X0392107Y0055302D02*
X0329376Y0055302D01*
X0328984Y0054910D02*
X0392107Y0054910D01*
X0392107Y0054517D02*
X0328591Y0054517D01*
X0323296Y0054125D02*
X0392107Y0054125D01*
X0392107Y0053733D02*
X0322903Y0053733D01*
X0301753Y0054910D02*
X0288017Y0054910D01*
X0288409Y0055302D02*
X0301753Y0055302D01*
X0301753Y0055694D02*
X0288801Y0055694D01*
X0289193Y0056086D02*
X0301753Y0056086D01*
X0301753Y0056479D02*
X0289585Y0056479D01*
X0289697Y0056871D02*
X0301753Y0056871D01*
X0301753Y0057263D02*
X0289697Y0057263D01*
X0289697Y0057655D02*
X0301753Y0057655D01*
X0301753Y0058047D02*
X0289697Y0058047D01*
X0289697Y0058440D02*
X0301753Y0058440D01*
X0301753Y0058832D02*
X0289697Y0058832D01*
X0289697Y0059224D02*
X0301753Y0059224D01*
X0301753Y0059616D02*
X0289697Y0059616D01*
X0289697Y0060008D02*
X0301753Y0060008D01*
X0301753Y0060401D02*
X0289697Y0060401D01*
X0289697Y0060793D02*
X0301753Y0060793D01*
X0301753Y0061185D02*
X0289697Y0061185D01*
X0289697Y0061577D02*
X0301753Y0061577D01*
X0301753Y0061970D02*
X0289697Y0061970D01*
X0289697Y0062362D02*
X0301753Y0062362D01*
X0301753Y0062754D02*
X0289697Y0062754D01*
X0289697Y0063146D02*
X0301530Y0063146D01*
X0301138Y0063538D02*
X0289697Y0063538D01*
X0289697Y0063931D02*
X0300745Y0063931D01*
X0300353Y0064323D02*
X0289697Y0064323D01*
X0289697Y0064715D02*
X0299961Y0064715D01*
X0299569Y0065107D02*
X0289697Y0065107D01*
X0289697Y0065499D02*
X0299177Y0065499D01*
X0298784Y0065892D02*
X0289697Y0065892D01*
X0289697Y0066284D02*
X0298392Y0066284D01*
X0298003Y0066676D02*
X0289697Y0066676D01*
X0289697Y0067068D02*
X0298003Y0067068D01*
X0298003Y0067460D02*
X0289697Y0067460D01*
X0289697Y0067853D02*
X0298003Y0067853D01*
X0298003Y0068245D02*
X0289697Y0068245D01*
X0289697Y0068637D02*
X0298003Y0068637D01*
X0298003Y0069029D02*
X0289697Y0069029D01*
X0289697Y0069422D02*
X0298003Y0069422D01*
X0298003Y0069814D02*
X0289697Y0069814D01*
X0289697Y0070206D02*
X0298003Y0070206D01*
X0298003Y0070598D02*
X0289697Y0070598D01*
X0289697Y0070990D02*
X0298003Y0070990D01*
X0298003Y0071383D02*
X0289697Y0071383D01*
X0289697Y0071775D02*
X0298003Y0071775D01*
X0298003Y0072167D02*
X0289697Y0072167D01*
X0289697Y0072559D02*
X0298003Y0072559D01*
X0298003Y0072951D02*
X0289808Y0072951D01*
X0290200Y0073344D02*
X0298003Y0073344D01*
X0298003Y0073736D02*
X0290593Y0073736D01*
X0290985Y0074128D02*
X0298003Y0074128D01*
X0298003Y0074520D02*
X0291377Y0074520D01*
X0291769Y0074913D02*
X0298003Y0074913D01*
X0298003Y0075305D02*
X0293532Y0075305D01*
X0294479Y0075697D02*
X0298003Y0075697D01*
X0298003Y0076089D02*
X0294899Y0076089D01*
X0295291Y0076481D02*
X0298003Y0076481D01*
X0298003Y0076874D02*
X0295595Y0076874D01*
X0295758Y0077266D02*
X0298003Y0077266D01*
X0298003Y0077658D02*
X0295920Y0077658D01*
X0296078Y0078050D02*
X0298003Y0078050D01*
X0298003Y0078442D02*
X0296078Y0078442D01*
X0296078Y0078835D02*
X0298003Y0078835D01*
X0298003Y0079227D02*
X0296078Y0079227D01*
X0296013Y0079619D02*
X0298003Y0079619D01*
X0298003Y0080011D02*
X0295850Y0080011D01*
X0295688Y0080403D02*
X0298003Y0080403D01*
X0298003Y0080796D02*
X0295514Y0080796D01*
X0295122Y0081188D02*
X0298003Y0081188D01*
X0298003Y0081580D02*
X0294730Y0081580D01*
X0294697Y0081972D02*
X0298003Y0081972D01*
X0298003Y0082365D02*
X0294697Y0082365D01*
X0294697Y0082757D02*
X0298003Y0082757D01*
X0298003Y0083149D02*
X0294697Y0083149D01*
X0294697Y0083541D02*
X0298003Y0083541D01*
X0298003Y0083933D02*
X0294697Y0083933D01*
X0294697Y0084326D02*
X0298003Y0084326D01*
X0298003Y0084718D02*
X0294697Y0084718D01*
X0294697Y0085110D02*
X0298003Y0085110D01*
X0298003Y0085502D02*
X0294697Y0085502D01*
X0294697Y0085894D02*
X0298003Y0085894D01*
X0298003Y0086287D02*
X0294697Y0086287D01*
X0294697Y0086679D02*
X0298003Y0086679D01*
X0298003Y0087071D02*
X0294697Y0087071D01*
X0294697Y0087463D02*
X0298003Y0087463D01*
X0298003Y0087856D02*
X0294697Y0087856D01*
X0294697Y0088248D02*
X0298003Y0088248D01*
X0298003Y0088640D02*
X0294697Y0088640D01*
X0294697Y0089032D02*
X0298003Y0089032D01*
X0298003Y0089424D02*
X0294697Y0089424D01*
X0294697Y0089817D02*
X0298003Y0089817D01*
X0298003Y0090209D02*
X0294697Y0090209D01*
X0294697Y0090601D02*
X0298003Y0090601D01*
X0298003Y0090993D02*
X0294697Y0090993D01*
X0294697Y0091385D02*
X0298003Y0091385D01*
X0298003Y0091778D02*
X0294697Y0091778D01*
X0294697Y0092170D02*
X0298003Y0092170D01*
X0298003Y0092562D02*
X0294697Y0092562D01*
X0294697Y0092954D02*
X0298003Y0092954D01*
X0298003Y0093346D02*
X0294697Y0093346D01*
X0294697Y0093739D02*
X0298003Y0093739D01*
X0298003Y0094131D02*
X0294697Y0094131D01*
X0294697Y0094523D02*
X0298003Y0094523D01*
X0298003Y0094915D02*
X0294441Y0094915D01*
X0294049Y0095308D02*
X0298003Y0095308D01*
X0298003Y0095700D02*
X0293657Y0095700D01*
X0293265Y0096092D02*
X0298003Y0096092D01*
X0298003Y0096484D02*
X0292873Y0096484D01*
X0292480Y0096876D02*
X0298003Y0096876D01*
X0298003Y0097269D02*
X0292088Y0097269D01*
X0291696Y0097661D02*
X0298003Y0097661D01*
X0298003Y0098053D02*
X0291304Y0098053D01*
X0290912Y0098445D02*
X0298003Y0098445D01*
X0298003Y0098837D02*
X0290519Y0098837D01*
X0290127Y0099230D02*
X0298003Y0099230D01*
X0298003Y0099622D02*
X0289735Y0099622D01*
X0289697Y0100014D02*
X0298003Y0100014D01*
X0298003Y0100406D02*
X0289697Y0100406D01*
X0289697Y0100799D02*
X0298003Y0100799D01*
X0298003Y0101191D02*
X0289697Y0101191D01*
X0289697Y0101583D02*
X0298003Y0101583D01*
X0298003Y0101975D02*
X0289697Y0101975D01*
X0289697Y0102367D02*
X0298003Y0102367D01*
X0298003Y0102760D02*
X0289697Y0102760D01*
X0289697Y0103152D02*
X0298003Y0103152D01*
X0298220Y0103544D02*
X0289697Y0103544D01*
X0289697Y0103936D02*
X0298612Y0103936D01*
X0299004Y0104328D02*
X0289697Y0104328D01*
X0289697Y0104721D02*
X0299397Y0104721D01*
X0299789Y0105113D02*
X0289697Y0105113D01*
X0289697Y0105505D02*
X0300181Y0105505D01*
X0300573Y0105897D02*
X0289697Y0105897D01*
X0289697Y0106289D02*
X0300966Y0106289D01*
X0301358Y0106682D02*
X0289697Y0106682D01*
X0289697Y0107074D02*
X0301750Y0107074D01*
X0302142Y0107466D02*
X0289697Y0107466D01*
X0289697Y0107858D02*
X0302534Y0107858D01*
X0302927Y0108251D02*
X0289697Y0108251D01*
X0289697Y0108643D02*
X0303319Y0108643D01*
X0303711Y0109035D02*
X0289697Y0109035D01*
X0289697Y0109427D02*
X0304103Y0109427D01*
X0304495Y0109819D02*
X0289697Y0109819D01*
X0289697Y0110212D02*
X0304888Y0110212D01*
X0305280Y0110604D02*
X0289697Y0110604D01*
X0289697Y0110996D02*
X0305672Y0110996D01*
X0306064Y0111388D02*
X0289697Y0111388D01*
X0289697Y0111780D02*
X0306456Y0111780D01*
X0306849Y0112173D02*
X0289697Y0112173D01*
X0289697Y0112565D02*
X0307241Y0112565D01*
X0307633Y0112957D02*
X0289697Y0112957D01*
X0289697Y0113349D02*
X0314317Y0113349D01*
X0314709Y0113742D02*
X0289697Y0113742D01*
X0289697Y0114134D02*
X0314334Y0114134D01*
X0314076Y0114526D02*
X0289697Y0114526D01*
X0289697Y0114918D02*
X0314076Y0114918D01*
X0314076Y0115310D02*
X0289697Y0115310D01*
X0289697Y0115703D02*
X0314076Y0115703D01*
X0314076Y0116095D02*
X0289697Y0116095D01*
X0289697Y0116487D02*
X0314076Y0116487D01*
X0314076Y0116879D02*
X0289697Y0116879D01*
X0289697Y0117271D02*
X0314076Y0117271D01*
X0314076Y0117664D02*
X0289697Y0117664D01*
X0289697Y0118056D02*
X0314076Y0118056D01*
X0314416Y0118448D02*
X0289697Y0118448D01*
X0289697Y0118840D02*
X0314627Y0118840D01*
X0314235Y0119232D02*
X0289697Y0119232D01*
X0289697Y0119625D02*
X0306301Y0119625D01*
X0305909Y0120017D02*
X0289697Y0120017D01*
X0289697Y0120409D02*
X0305517Y0120409D01*
X0305125Y0120801D02*
X0289697Y0120801D01*
X0289697Y0121194D02*
X0304732Y0121194D01*
X0304340Y0121586D02*
X0289697Y0121586D01*
X0289697Y0121978D02*
X0303948Y0121978D01*
X0303556Y0122370D02*
X0289697Y0122370D01*
X0289697Y0122762D02*
X0303164Y0122762D01*
X0303003Y0123155D02*
X0289697Y0123155D01*
X0289697Y0123547D02*
X0303003Y0123547D01*
X0303003Y0123939D02*
X0289697Y0123939D01*
X0289697Y0124331D02*
X0303003Y0124331D01*
X0303003Y0124723D02*
X0289633Y0124723D01*
X0289241Y0125116D02*
X0303003Y0125116D01*
X0302367Y0125508D02*
X0288849Y0125508D01*
X0288457Y0125900D02*
X0301975Y0125900D01*
X0301583Y0126292D02*
X0288417Y0126292D01*
X0288809Y0126685D02*
X0301191Y0126685D01*
X0300992Y0127077D02*
X0289008Y0127077D01*
X0289170Y0127469D02*
X0300830Y0127469D01*
X0300668Y0127861D02*
X0289332Y0127861D01*
X0289495Y0128253D02*
X0300505Y0128253D01*
X0300435Y0128646D02*
X0289565Y0128646D01*
X0289565Y0129038D02*
X0300435Y0129038D01*
X0300435Y0129430D02*
X0289565Y0129430D01*
X0289565Y0129822D02*
X0300435Y0129822D01*
X0300435Y0130214D02*
X0289565Y0130214D01*
X0289565Y0130607D02*
X0300435Y0130607D01*
X0300435Y0130999D02*
X0289565Y0130999D01*
X0289565Y0131391D02*
X0300435Y0131391D01*
X0300435Y0131783D02*
X0289565Y0131783D01*
X0289565Y0132175D02*
X0300435Y0132175D01*
X0300435Y0132568D02*
X0289565Y0132568D01*
X0289565Y0132960D02*
X0300435Y0132960D01*
X0300435Y0133352D02*
X0289565Y0133352D01*
X0289565Y0133744D02*
X0300435Y0133744D01*
X0300435Y0134137D02*
X0289565Y0134137D01*
X0289565Y0134529D02*
X0300435Y0134529D01*
X0300435Y0134921D02*
X0289565Y0134921D01*
X0289565Y0135313D02*
X0300435Y0135313D01*
X0300435Y0135705D02*
X0289565Y0135705D01*
X0289565Y0136098D02*
X0300435Y0136098D01*
X0300435Y0136490D02*
X0289565Y0136490D01*
X0289439Y0136882D02*
X0300561Y0136882D01*
X0300724Y0137274D02*
X0289276Y0137274D01*
X0289114Y0137666D02*
X0300886Y0137666D01*
X0301049Y0138059D02*
X0288951Y0138059D01*
X0288674Y0138451D02*
X0301326Y0138451D01*
X0301718Y0138843D02*
X0288282Y0138843D01*
X0287890Y0139235D02*
X0301962Y0139235D01*
X0301799Y0139628D02*
X0287372Y0139628D01*
X0286997Y0140020D02*
X0301637Y0140020D01*
X0301474Y0140412D02*
X0286997Y0140412D01*
X0287114Y0140804D02*
X0301422Y0140804D01*
X0301422Y0141196D02*
X0287506Y0141196D01*
X0287899Y0141589D02*
X0301422Y0141589D01*
X0301430Y0141981D02*
X0288140Y0141981D01*
X0288302Y0142373D02*
X0301592Y0142373D01*
X0301755Y0142765D02*
X0288465Y0142765D01*
X0288578Y0143157D02*
X0295269Y0143157D01*
X0294876Y0143550D02*
X0288578Y0143550D01*
X0288578Y0143942D02*
X0294484Y0143942D01*
X0294092Y0144334D02*
X0288578Y0144334D01*
X0288468Y0144726D02*
X0293700Y0144726D01*
X0293308Y0145118D02*
X0288306Y0145118D01*
X0288143Y0145511D02*
X0292915Y0145511D01*
X0292523Y0145903D02*
X0287907Y0145903D01*
X0287515Y0146295D02*
X0292131Y0146295D01*
X0291739Y0146687D02*
X0287123Y0146687D01*
X0286311Y0147080D02*
X0291346Y0147080D01*
X0290954Y0147472D02*
X0286071Y0147472D01*
X0286463Y0147864D02*
X0290562Y0147864D01*
X0290170Y0148256D02*
X0286712Y0148256D01*
X0286712Y0148648D02*
X0289778Y0148648D01*
X0289385Y0149041D02*
X0286712Y0149041D01*
X0286712Y0149433D02*
X0288993Y0149433D01*
X0288601Y0149825D02*
X0286712Y0149825D01*
X0286712Y0150217D02*
X0288209Y0150217D01*
X0287817Y0150609D02*
X0286712Y0150609D01*
X0286712Y0151002D02*
X0287424Y0151002D01*
X0287032Y0151394D02*
X0286712Y0151394D01*
X0298439Y0156885D02*
X0306541Y0156885D01*
X0306753Y0156673D02*
X0307923Y0155503D01*
X0309499Y0155503D01*
X0309499Y0154497D01*
X0300827Y0154497D01*
X0294831Y0160492D01*
X0294831Y0171082D01*
X0295421Y0171327D01*
X0296705Y0172611D01*
X0297400Y0174289D01*
X0297400Y0176105D01*
X0296705Y0177783D01*
X0295435Y0179053D01*
X0300235Y0179053D01*
X0298964Y0177783D01*
X0298269Y0176105D01*
X0298269Y0174289D01*
X0298964Y0172611D01*
X0300249Y0171327D01*
X0300838Y0171082D01*
X0300838Y0168138D01*
X0300837Y0168138D01*
X0300837Y0161862D01*
X0301656Y0161044D01*
X0302403Y0161044D01*
X0302403Y0161023D01*
X0306753Y0156673D01*
X0306933Y0156493D02*
X0298831Y0156493D01*
X0299224Y0156100D02*
X0307326Y0156100D01*
X0307718Y0155708D02*
X0299616Y0155708D01*
X0300008Y0155316D02*
X0309499Y0155316D01*
X0309499Y0154924D02*
X0300400Y0154924D01*
X0300792Y0154532D02*
X0309499Y0154532D01*
X0306149Y0157277D02*
X0298047Y0157277D01*
X0297655Y0157669D02*
X0305757Y0157669D01*
X0305365Y0158061D02*
X0297262Y0158061D01*
X0296870Y0158454D02*
X0304972Y0158454D01*
X0304580Y0158846D02*
X0296478Y0158846D01*
X0296086Y0159238D02*
X0304188Y0159238D01*
X0303796Y0159630D02*
X0295694Y0159630D01*
X0295301Y0160023D02*
X0303403Y0160023D01*
X0303011Y0160415D02*
X0294909Y0160415D01*
X0294831Y0160807D02*
X0302619Y0160807D01*
X0301501Y0161199D02*
X0294831Y0161199D01*
X0294831Y0161591D02*
X0301108Y0161591D01*
X0300837Y0161984D02*
X0294831Y0161984D01*
X0294831Y0162376D02*
X0300837Y0162376D01*
X0300837Y0162768D02*
X0294831Y0162768D01*
X0294831Y0163160D02*
X0300837Y0163160D01*
X0300837Y0163552D02*
X0294831Y0163552D01*
X0294831Y0163945D02*
X0300837Y0163945D01*
X0300837Y0164337D02*
X0294831Y0164337D01*
X0294831Y0164729D02*
X0300837Y0164729D01*
X0300837Y0165121D02*
X0294831Y0165121D01*
X0294831Y0165514D02*
X0300837Y0165514D01*
X0300837Y0165906D02*
X0294831Y0165906D01*
X0294831Y0166298D02*
X0300837Y0166298D01*
X0300837Y0166690D02*
X0294831Y0166690D01*
X0294831Y0167082D02*
X0300837Y0167082D01*
X0300837Y0167475D02*
X0294831Y0167475D01*
X0294831Y0167867D02*
X0300837Y0167867D01*
X0300838Y0168259D02*
X0294831Y0168259D01*
X0294831Y0168651D02*
X0300838Y0168651D01*
X0300838Y0169043D02*
X0294831Y0169043D01*
X0294831Y0169436D02*
X0300838Y0169436D01*
X0300838Y0169828D02*
X0294831Y0169828D01*
X0294831Y0170220D02*
X0300838Y0170220D01*
X0300838Y0170612D02*
X0294831Y0170612D01*
X0294831Y0171004D02*
X0300838Y0171004D01*
X0300178Y0171397D02*
X0295491Y0171397D01*
X0295883Y0171789D02*
X0299786Y0171789D01*
X0299394Y0172181D02*
X0296275Y0172181D01*
X0296668Y0172573D02*
X0299002Y0172573D01*
X0298817Y0172966D02*
X0296852Y0172966D01*
X0297014Y0173358D02*
X0298655Y0173358D01*
X0298492Y0173750D02*
X0297177Y0173750D01*
X0297339Y0174142D02*
X0298330Y0174142D01*
X0298269Y0174534D02*
X0297400Y0174534D01*
X0297400Y0174927D02*
X0298269Y0174927D01*
X0298269Y0175319D02*
X0297400Y0175319D01*
X0297400Y0175711D02*
X0298269Y0175711D01*
X0298269Y0176103D02*
X0297400Y0176103D01*
X0297238Y0176495D02*
X0298431Y0176495D01*
X0298594Y0176888D02*
X0297076Y0176888D01*
X0296913Y0177280D02*
X0298756Y0177280D01*
X0298918Y0177672D02*
X0296751Y0177672D01*
X0296424Y0178064D02*
X0299246Y0178064D01*
X0299638Y0178457D02*
X0296031Y0178457D01*
X0295639Y0178849D02*
X0300030Y0178849D01*
X0305639Y0178849D02*
X0310030Y0178849D01*
X0309638Y0178457D02*
X0306031Y0178457D01*
X0306424Y0178064D02*
X0309246Y0178064D01*
X0308918Y0177672D02*
X0306751Y0177672D01*
X0306913Y0177280D02*
X0308756Y0177280D01*
X0308594Y0176888D02*
X0307076Y0176888D01*
X0307238Y0176495D02*
X0308431Y0176495D01*
X0308269Y0176103D02*
X0307400Y0176103D01*
X0307400Y0175711D02*
X0308269Y0175711D01*
X0308269Y0175319D02*
X0307400Y0175319D01*
X0307400Y0174927D02*
X0308269Y0174927D01*
X0308269Y0174534D02*
X0307400Y0174534D01*
X0307339Y0174142D02*
X0308330Y0174142D01*
X0308492Y0173750D02*
X0307177Y0173750D01*
X0307014Y0173358D02*
X0308655Y0173358D01*
X0308817Y0172966D02*
X0306852Y0172966D01*
X0306668Y0172573D02*
X0309002Y0172573D01*
X0309394Y0172181D02*
X0306275Y0172181D01*
X0305883Y0171789D02*
X0309786Y0171789D01*
X0310178Y0171397D02*
X0305491Y0171397D01*
X0304831Y0171004D02*
X0310238Y0171004D01*
X0310238Y0170612D02*
X0304831Y0170612D01*
X0304831Y0170220D02*
X0310238Y0170220D01*
X0310238Y0169828D02*
X0304831Y0169828D01*
X0304831Y0169436D02*
X0310238Y0169436D01*
X0310238Y0169043D02*
X0304831Y0169043D01*
X0307448Y0168651D02*
X0310052Y0168651D01*
X0309660Y0168259D02*
X0307840Y0168259D01*
X0307962Y0167867D02*
X0309538Y0167867D01*
X0309538Y0167475D02*
X0307962Y0167475D01*
X0307962Y0167082D02*
X0309538Y0167082D01*
X0309538Y0166690D02*
X0307962Y0166690D01*
X0307962Y0166298D02*
X0309538Y0166298D01*
X0309538Y0165906D02*
X0307962Y0165906D01*
X0307962Y0165514D02*
X0309538Y0165514D01*
X0309538Y0165121D02*
X0307962Y0165121D01*
X0307962Y0164729D02*
X0309538Y0164729D01*
X0309538Y0164337D02*
X0307962Y0164337D01*
X0307962Y0163945D02*
X0309538Y0163945D01*
X0309538Y0163552D02*
X0307962Y0163552D01*
X0307962Y0163160D02*
X0309538Y0163160D01*
X0309538Y0162768D02*
X0307962Y0162768D01*
X0307962Y0162376D02*
X0309538Y0162376D01*
X0309538Y0161984D02*
X0307962Y0161984D01*
X0307691Y0161591D02*
X0309809Y0161591D01*
X0310201Y0161199D02*
X0307875Y0161199D01*
X0308267Y0160807D02*
X0392107Y0160807D01*
X0392107Y0161199D02*
X0315999Y0161199D01*
X0316392Y0161591D02*
X0392107Y0161591D01*
X0392107Y0161984D02*
X0316663Y0161984D01*
X0316663Y0162376D02*
X0392107Y0162376D01*
X0392107Y0162768D02*
X0316663Y0162768D01*
X0316663Y0163160D02*
X0392107Y0163160D01*
X0392107Y0163552D02*
X0316663Y0163552D01*
X0316663Y0163945D02*
X0392107Y0163945D01*
X0392107Y0164337D02*
X0316663Y0164337D01*
X0316663Y0164729D02*
X0392107Y0164729D01*
X0392107Y0165121D02*
X0316663Y0165121D01*
X0316663Y0165514D02*
X0392107Y0165514D01*
X0392107Y0165906D02*
X0316663Y0165906D01*
X0316663Y0166298D02*
X0392107Y0166298D01*
X0392107Y0166690D02*
X0316663Y0166690D01*
X0316663Y0167082D02*
X0392107Y0167082D01*
X0392107Y0167475D02*
X0316663Y0167475D01*
X0316663Y0167867D02*
X0392107Y0167867D01*
X0392107Y0168259D02*
X0316541Y0168259D01*
X0316149Y0168651D02*
X0392107Y0168651D01*
X0392107Y0169043D02*
X0315431Y0169043D01*
X0315431Y0169436D02*
X0392107Y0169436D01*
X0392107Y0169828D02*
X0315431Y0169828D01*
X0315431Y0170220D02*
X0392107Y0170220D01*
X0392107Y0170612D02*
X0315431Y0170612D01*
X0315431Y0171004D02*
X0392107Y0171004D01*
X0392107Y0171397D02*
X0315491Y0171397D01*
X0315883Y0171789D02*
X0392107Y0171789D01*
X0392107Y0172181D02*
X0316275Y0172181D01*
X0316668Y0172573D02*
X0392107Y0172573D01*
X0392107Y0172966D02*
X0316852Y0172966D01*
X0317014Y0173358D02*
X0392097Y0173358D01*
X0392066Y0173750D02*
X0317177Y0173750D01*
X0317339Y0174142D02*
X0392035Y0174142D01*
X0392004Y0174534D02*
X0317400Y0174534D01*
X0317400Y0174927D02*
X0391949Y0174927D01*
X0391821Y0175319D02*
X0317400Y0175319D01*
X0317400Y0175711D02*
X0391694Y0175711D01*
X0391567Y0176103D02*
X0317400Y0176103D01*
X0317238Y0176495D02*
X0391439Y0176495D01*
X0391312Y0176888D02*
X0317076Y0176888D01*
X0316913Y0177280D02*
X0391184Y0177280D01*
X0391057Y0177672D02*
X0316751Y0177672D01*
X0316424Y0178064D02*
X0390850Y0178064D01*
X0390565Y0178457D02*
X0316031Y0178457D01*
X0315639Y0178849D02*
X0390280Y0178849D01*
X0389995Y0179241D02*
X0315031Y0179241D01*
X0315031Y0179633D02*
X0389710Y0179633D01*
X0389425Y0180025D02*
X0315031Y0180025D01*
X0315031Y0180418D02*
X0389140Y0180418D01*
X0388624Y0180810D02*
X0314797Y0180810D01*
X0314405Y0181202D02*
X0388084Y0181202D01*
X0387544Y0181594D02*
X0314013Y0181594D01*
X0313620Y0181986D02*
X0387004Y0181986D01*
X0386385Y0182379D02*
X0313228Y0182379D01*
X0312836Y0182771D02*
X0385178Y0182771D01*
X0383971Y0183163D02*
X0312444Y0183163D01*
X0310014Y0160415D02*
X0308659Y0160415D01*
X0309051Y0160023D02*
X0309622Y0160023D01*
X0309499Y0159630D02*
X0309444Y0159630D01*
X0316108Y0160415D02*
X0316313Y0160415D01*
X0322407Y0160415D02*
X0392107Y0160415D01*
X0392107Y0160023D02*
X0322799Y0160023D01*
X0322922Y0159630D02*
X0392107Y0159630D01*
X0392107Y0159238D02*
X0322922Y0159238D01*
X0322922Y0158846D02*
X0392107Y0158846D01*
X0392107Y0158454D02*
X0333120Y0158454D01*
X0333512Y0158061D02*
X0392107Y0158061D01*
X0392107Y0157669D02*
X0333905Y0157669D01*
X0334297Y0157277D02*
X0392107Y0157277D01*
X0392107Y0156885D02*
X0334689Y0156885D01*
X0335081Y0156493D02*
X0392107Y0156493D01*
X0392107Y0156100D02*
X0335474Y0156100D01*
X0335866Y0155708D02*
X0392107Y0155708D01*
X0392107Y0155316D02*
X0336258Y0155316D01*
X0336650Y0154924D02*
X0392107Y0154924D01*
X0392107Y0154532D02*
X0337042Y0154532D01*
X0337435Y0154139D02*
X0392107Y0154139D01*
X0392107Y0153747D02*
X0337827Y0153747D01*
X0338219Y0153355D02*
X0392107Y0153355D01*
X0392107Y0152963D02*
X0338611Y0152963D01*
X0339003Y0152571D02*
X0392107Y0152571D01*
X0392107Y0152178D02*
X0339396Y0152178D01*
X0339788Y0151786D02*
X0392107Y0151786D01*
X0392107Y0151394D02*
X0340180Y0151394D01*
X0340572Y0151002D02*
X0392107Y0151002D01*
X0392107Y0150609D02*
X0340965Y0150609D01*
X0341357Y0150217D02*
X0392107Y0150217D01*
X0392107Y0149825D02*
X0341749Y0149825D01*
X0342141Y0149433D02*
X0392107Y0149433D01*
X0392107Y0149041D02*
X0342533Y0149041D01*
X0342926Y0148648D02*
X0392107Y0148648D01*
X0392107Y0148256D02*
X0343318Y0148256D01*
X0343710Y0147864D02*
X0392107Y0147864D01*
X0392107Y0147472D02*
X0344102Y0147472D01*
X0344494Y0147080D02*
X0392107Y0147080D01*
X0392107Y0146687D02*
X0344887Y0146687D01*
X0345279Y0146295D02*
X0392107Y0146295D01*
X0392107Y0145903D02*
X0345671Y0145903D01*
X0346063Y0145511D02*
X0392107Y0145511D01*
X0392107Y0145118D02*
X0346455Y0145118D01*
X0346848Y0144726D02*
X0392107Y0144726D01*
X0392107Y0144334D02*
X0347240Y0144334D01*
X0347632Y0143942D02*
X0392107Y0143942D01*
X0392107Y0143550D02*
X0348024Y0143550D01*
X0348247Y0143157D02*
X0392107Y0143157D01*
X0392107Y0142765D02*
X0348247Y0142765D01*
X0348247Y0142373D02*
X0392107Y0142373D01*
X0392107Y0141981D02*
X0348247Y0141981D01*
X0348247Y0141589D02*
X0392107Y0141589D01*
X0392107Y0141196D02*
X0348247Y0141196D01*
X0348247Y0140804D02*
X0392107Y0140804D01*
X0392107Y0140412D02*
X0348247Y0140412D01*
X0348247Y0140020D02*
X0392107Y0140020D01*
X0392107Y0139628D02*
X0348247Y0139628D01*
X0348247Y0139235D02*
X0392107Y0139235D01*
X0392107Y0138843D02*
X0348247Y0138843D01*
X0348247Y0138451D02*
X0392107Y0138451D01*
X0392107Y0138059D02*
X0348247Y0138059D01*
X0348247Y0137666D02*
X0392107Y0137666D01*
X0392107Y0137274D02*
X0348247Y0137274D01*
X0348247Y0136882D02*
X0392107Y0136882D01*
X0392107Y0136490D02*
X0348247Y0136490D01*
X0348247Y0136098D02*
X0392107Y0136098D01*
X0392107Y0135705D02*
X0348247Y0135705D01*
X0348247Y0135313D02*
X0392107Y0135313D01*
X0392107Y0134921D02*
X0348247Y0134921D01*
X0348247Y0134529D02*
X0392107Y0134529D01*
X0392107Y0134137D02*
X0348247Y0134137D01*
X0348247Y0133744D02*
X0392107Y0133744D01*
X0392107Y0133352D02*
X0348247Y0133352D01*
X0348247Y0132960D02*
X0392107Y0132960D01*
X0392107Y0132568D02*
X0348247Y0132568D01*
X0348247Y0132175D02*
X0392107Y0132175D01*
X0392107Y0131783D02*
X0348247Y0131783D01*
X0348247Y0131391D02*
X0392107Y0131391D01*
X0392107Y0130999D02*
X0348247Y0130999D01*
X0348247Y0130607D02*
X0392107Y0130607D01*
X0392107Y0130214D02*
X0348247Y0130214D01*
X0348247Y0129822D02*
X0392107Y0129822D01*
X0392107Y0129430D02*
X0348247Y0129430D01*
X0348247Y0129038D02*
X0392107Y0129038D01*
X0392107Y0128646D02*
X0348247Y0128646D01*
X0348247Y0128253D02*
X0392107Y0128253D01*
X0392107Y0127861D02*
X0348247Y0127861D01*
X0348247Y0127469D02*
X0392107Y0127469D01*
X0392107Y0127077D02*
X0348247Y0127077D01*
X0348247Y0126685D02*
X0392107Y0126685D01*
X0392107Y0126292D02*
X0348247Y0126292D01*
X0348247Y0125900D02*
X0392107Y0125900D01*
X0392107Y0125508D02*
X0348247Y0125508D01*
X0348247Y0125116D02*
X0392107Y0125116D01*
X0392107Y0124723D02*
X0348247Y0124723D01*
X0348247Y0124331D02*
X0392107Y0124331D01*
X0392107Y0123939D02*
X0348247Y0123939D01*
X0348247Y0123547D02*
X0392107Y0123547D01*
X0392107Y0123155D02*
X0348247Y0123155D01*
X0348247Y0122762D02*
X0392107Y0122762D01*
X0392107Y0122370D02*
X0348247Y0122370D01*
X0348247Y0121978D02*
X0392107Y0121978D01*
X0392107Y0121586D02*
X0348247Y0121586D01*
X0348247Y0121194D02*
X0392107Y0121194D01*
X0392107Y0120801D02*
X0348247Y0120801D01*
X0348247Y0120409D02*
X0392107Y0120409D01*
X0392107Y0120017D02*
X0348247Y0120017D01*
X0348247Y0119625D02*
X0392107Y0119625D01*
X0392107Y0119232D02*
X0348247Y0119232D01*
X0348247Y0118840D02*
X0392107Y0118840D01*
X0392107Y0118448D02*
X0348247Y0118448D01*
X0348247Y0118056D02*
X0392107Y0118056D01*
X0392107Y0117664D02*
X0348247Y0117664D01*
X0348247Y0117271D02*
X0392107Y0117271D01*
X0392107Y0116879D02*
X0348247Y0116879D01*
X0348247Y0116487D02*
X0392107Y0116487D01*
X0392107Y0116095D02*
X0348247Y0116095D01*
X0348247Y0115703D02*
X0392107Y0115703D01*
X0392107Y0115310D02*
X0348247Y0115310D01*
X0348247Y0114918D02*
X0392107Y0114918D01*
X0392107Y0114526D02*
X0348247Y0114526D01*
X0348247Y0114134D02*
X0392107Y0114134D01*
X0392107Y0113742D02*
X0348247Y0113742D01*
X0348247Y0113349D02*
X0392107Y0113349D01*
X0392107Y0112957D02*
X0348247Y0112957D01*
X0348247Y0112565D02*
X0392107Y0112565D01*
X0392107Y0112173D02*
X0348247Y0112173D01*
X0348247Y0111780D02*
X0392107Y0111780D01*
X0392107Y0111388D02*
X0348247Y0111388D01*
X0348247Y0110996D02*
X0392107Y0110996D01*
X0392107Y0110604D02*
X0348247Y0110604D01*
X0348247Y0110212D02*
X0392107Y0110212D01*
X0392107Y0109819D02*
X0348247Y0109819D01*
X0348247Y0109427D02*
X0392107Y0109427D01*
X0392107Y0109035D02*
X0348247Y0109035D01*
X0348247Y0108643D02*
X0392107Y0108643D01*
X0392107Y0108251D02*
X0348247Y0108251D01*
X0348247Y0107858D02*
X0392107Y0107858D01*
X0324257Y0078442D02*
X0309828Y0078442D01*
X0309828Y0078835D02*
X0314633Y0078835D01*
X0305218Y0075305D02*
X0304497Y0075305D01*
X0290303Y0081613D02*
X0289467Y0080777D01*
X0288922Y0079462D01*
X0288922Y0078279D01*
X0286590Y0075947D01*
X0285924Y0075281D01*
X0285924Y0078108D01*
X0285283Y0078750D01*
X0285924Y0079392D01*
X0285924Y0083108D01*
X0285106Y0083926D01*
X0277256Y0083926D01*
X0276777Y0083447D01*
X0273981Y0083447D01*
X0273621Y0083806D01*
X0273621Y0090503D01*
X0274173Y0090503D01*
X0275423Y0089253D01*
X0276577Y0089253D01*
X0277256Y0088574D01*
X0285106Y0088574D01*
X0285924Y0089392D01*
X0285924Y0093108D01*
X0285283Y0093750D01*
X0285924Y0094392D01*
X0285924Y0097219D01*
X0290303Y0092840D01*
X0290303Y0081613D01*
X0290270Y0081580D02*
X0285924Y0081580D01*
X0285924Y0081188D02*
X0289878Y0081188D01*
X0289486Y0080796D02*
X0285924Y0080796D01*
X0285924Y0080403D02*
X0289312Y0080403D01*
X0289150Y0080011D02*
X0285924Y0080011D01*
X0285924Y0079619D02*
X0288987Y0079619D01*
X0288922Y0079227D02*
X0285759Y0079227D01*
X0285367Y0078835D02*
X0288922Y0078835D01*
X0288922Y0078442D02*
X0285590Y0078442D01*
X0285924Y0078050D02*
X0288693Y0078050D01*
X0288301Y0077658D02*
X0285924Y0077658D01*
X0285924Y0077266D02*
X0287909Y0077266D01*
X0287517Y0076874D02*
X0285924Y0076874D01*
X0285924Y0076481D02*
X0287125Y0076481D01*
X0286732Y0076089D02*
X0285924Y0076089D01*
X0285924Y0075697D02*
X0286340Y0075697D01*
X0285948Y0075305D02*
X0285924Y0075305D01*
X0276995Y0078835D02*
X0249497Y0078835D01*
X0259445Y0085894D02*
X0259749Y0085894D01*
X0273621Y0085894D02*
X0290303Y0085894D01*
X0290303Y0085502D02*
X0273621Y0085502D01*
X0273621Y0085110D02*
X0290303Y0085110D01*
X0290303Y0084718D02*
X0273621Y0084718D01*
X0273621Y0084326D02*
X0290303Y0084326D01*
X0290303Y0083933D02*
X0273621Y0083933D01*
X0273886Y0083541D02*
X0276871Y0083541D01*
X0273621Y0086287D02*
X0290303Y0086287D01*
X0290303Y0086679D02*
X0273621Y0086679D01*
X0273621Y0087071D02*
X0290303Y0087071D01*
X0290303Y0087463D02*
X0273621Y0087463D01*
X0273621Y0087856D02*
X0290303Y0087856D01*
X0290303Y0088248D02*
X0273621Y0088248D01*
X0273621Y0088640D02*
X0277190Y0088640D01*
X0276798Y0089032D02*
X0273621Y0089032D01*
X0273621Y0089424D02*
X0275252Y0089424D01*
X0274859Y0089817D02*
X0273621Y0089817D01*
X0273621Y0090209D02*
X0274467Y0090209D01*
X0285172Y0088640D02*
X0290303Y0088640D01*
X0290303Y0089032D02*
X0285565Y0089032D01*
X0285924Y0089424D02*
X0290303Y0089424D01*
X0290303Y0089817D02*
X0285924Y0089817D01*
X0285924Y0090209D02*
X0290303Y0090209D01*
X0290303Y0090601D02*
X0285924Y0090601D01*
X0285924Y0090993D02*
X0290303Y0090993D01*
X0290303Y0091385D02*
X0285924Y0091385D01*
X0285924Y0091778D02*
X0290303Y0091778D01*
X0290303Y0092170D02*
X0285924Y0092170D01*
X0285924Y0092562D02*
X0290303Y0092562D01*
X0290189Y0092954D02*
X0285924Y0092954D01*
X0285686Y0093346D02*
X0289797Y0093346D01*
X0289404Y0093739D02*
X0285294Y0093739D01*
X0285663Y0094131D02*
X0289012Y0094131D01*
X0288620Y0094523D02*
X0285924Y0094523D01*
X0285924Y0094915D02*
X0288228Y0094915D01*
X0287836Y0095308D02*
X0285924Y0095308D01*
X0285924Y0095700D02*
X0287443Y0095700D01*
X0287051Y0096092D02*
X0285924Y0096092D01*
X0285924Y0096484D02*
X0286659Y0096484D01*
X0286267Y0096876D02*
X0285924Y0096876D01*
X0276600Y0099230D02*
X0271456Y0099230D01*
X0271428Y0099622D02*
X0276304Y0099622D01*
X0275912Y0100014D02*
X0271036Y0100014D01*
X0270644Y0100406D02*
X0275520Y0100406D01*
X0258437Y0093739D02*
X0249497Y0093739D01*
X0249497Y0094131D02*
X0258045Y0094131D01*
X0257653Y0094523D02*
X0249497Y0094523D01*
X0249497Y0094915D02*
X0257261Y0094915D01*
X0256868Y0095308D02*
X0249497Y0095308D01*
X0249497Y0095700D02*
X0256476Y0095700D01*
X0256084Y0096092D02*
X0249497Y0096092D01*
X0249497Y0096484D02*
X0255692Y0096484D01*
X0255300Y0096876D02*
X0249497Y0096876D01*
X0249497Y0097269D02*
X0254907Y0097269D01*
X0254515Y0097661D02*
X0249497Y0097661D01*
X0249497Y0098053D02*
X0254123Y0098053D01*
X0253731Y0098445D02*
X0249497Y0098445D01*
X0249497Y0098837D02*
X0253339Y0098837D01*
X0252946Y0099230D02*
X0249497Y0099230D01*
X0249497Y0099622D02*
X0252554Y0099622D01*
X0252162Y0100014D02*
X0249497Y0100014D01*
X0249497Y0100406D02*
X0251770Y0100406D01*
X0251378Y0100799D02*
X0249497Y0100799D01*
X0249497Y0101191D02*
X0250985Y0101191D01*
X0250593Y0101583D02*
X0249497Y0101583D01*
X0249497Y0101975D02*
X0250201Y0101975D01*
X0249809Y0102367D02*
X0249497Y0102367D01*
X0285491Y0083541D02*
X0290303Y0083541D01*
X0290303Y0083149D02*
X0285884Y0083149D01*
X0285924Y0082757D02*
X0290303Y0082757D01*
X0290303Y0082365D02*
X0285924Y0082365D01*
X0285924Y0081972D02*
X0290303Y0081972D01*
X0287624Y0054517D02*
X0301694Y0054517D01*
X0300517Y0053341D02*
X0283197Y0053341D01*
X0283197Y0052949D02*
X0300125Y0052949D01*
X0299732Y0052556D02*
X0283494Y0052556D01*
X0266422Y0020395D02*
X0266250Y0020395D01*
X0266422Y0020003D02*
X0264077Y0020003D01*
X0263685Y0019611D02*
X0266422Y0019611D01*
X0249794Y0141589D02*
X0248247Y0141589D01*
X0248247Y0141981D02*
X0249794Y0141981D01*
X0249794Y0142373D02*
X0248247Y0142373D01*
X0248247Y0142765D02*
X0249794Y0142765D01*
X0249794Y0143157D02*
X0248481Y0143157D01*
X0248874Y0143550D02*
X0249794Y0143550D01*
X0249794Y0143942D02*
X0249266Y0143942D01*
X0249658Y0144334D02*
X0249794Y0144334D01*
D34*
X0232500Y0143750D03*
X0232500Y0137500D03*
X0232500Y0131250D03*
X0217500Y0135000D03*
X0212500Y0135000D03*
X0191250Y0115000D03*
X0186250Y0115000D03*
X0181250Y0115000D03*
X0160000Y0090000D03*
X0181250Y0067500D03*
X0186250Y0067500D03*
X0191250Y0067500D03*
X0212500Y0087500D03*
X0217500Y0087500D03*
X0232500Y0090000D03*
X0232500Y0083750D03*
X0251250Y0083750D03*
X0251250Y0078750D03*
X0251250Y0073750D03*
X0263750Y0078750D03*
X0276250Y0086250D03*
X0287500Y0086250D03*
X0292500Y0078750D03*
X0306250Y0078750D03*
X0311250Y0076250D03*
X0311250Y0071250D03*
X0333750Y0080000D03*
X0337500Y0083750D03*
X0363750Y0081250D03*
X0372500Y0081250D03*
X0363750Y0103750D03*
X0315000Y0141250D03*
X0305000Y0141250D03*
X0295000Y0141250D03*
X0285000Y0143750D03*
X0275000Y0143750D03*
X0302500Y0157500D03*
X0298750Y0160000D03*
X0326250Y0161250D03*
X0326250Y0166250D03*
X0261250Y0113750D03*
X0261250Y0107500D03*
X0261250Y0101250D03*
X0232500Y0096250D03*
X0151250Y0138750D03*
X0193750Y0167500D03*
X0207500Y0160000D03*
X0231250Y0048750D03*
X0231250Y0042500D03*
X0231250Y0036250D03*
X0217500Y0040000D03*
X0212500Y0040000D03*
X0191250Y0020000D03*
X0186250Y0020000D03*
X0181250Y0020000D03*
X0162500Y0031250D03*
X0157500Y0031250D03*
X0152500Y0031250D03*
X0147500Y0031250D03*
X0133750Y0007500D03*
X0128750Y0007500D03*
X0123750Y0007500D03*
X0115000Y0005000D03*
X0110000Y0005000D03*
X0105000Y0005000D03*
X0220000Y0010000D03*
X0237500Y0020000D03*
X0247500Y0020000D03*
X0265000Y0023750D03*
X0270000Y0020000D03*
X0266250Y0033750D03*
X0266250Y0040000D03*
X0282500Y0042500D03*
X0288750Y0042500D03*
X0292500Y0037500D03*
X0305000Y0037500D03*
X0311250Y0036250D03*
X0313750Y0027500D03*
X0321250Y0028750D03*
X0307500Y0027500D03*
X0331250Y0037500D03*
X0337500Y0037500D03*
X0343750Y0037500D03*
D35*
X0195000Y0027598D02*
X0195000Y0052402D01*
X0195000Y0075098D02*
X0195000Y0099902D01*
X0195000Y0122598D02*
X0195000Y0147402D01*
D36*
X0201447Y0155000D02*
X0201437Y0155010D01*
X0201447Y0155000D02*
X0215000Y0155000D01*
X0218750Y0158750D01*
X0231250Y0158750D01*
X0238750Y0151250D01*
X0238750Y0105000D01*
X0242500Y0101250D01*
X0242500Y0061250D01*
X0256250Y0047500D01*
X0268750Y0047500D01*
X0273750Y0052500D01*
X0273750Y0058750D01*
X0276250Y0061250D01*
X0281181Y0061250D01*
X0281181Y0066250D02*
X0277500Y0066250D01*
X0271250Y0060000D01*
X0271250Y0055000D01*
X0268750Y0052500D01*
X0265650Y0052500D01*
X0259350Y0052500D02*
X0255000Y0052500D01*
X0245000Y0062500D01*
X0245000Y0102500D01*
X0241250Y0106250D01*
X0241250Y0152500D01*
X0231250Y0162500D01*
X0211250Y0162500D01*
X0205000Y0168750D01*
X0199281Y0168750D01*
X0192835Y0175197D01*
X0202835Y0175197D02*
X0213031Y0165000D01*
X0232500Y0165000D01*
X0243750Y0153750D01*
X0243750Y0107500D01*
X0247500Y0103750D01*
X0247500Y0063750D01*
X0251250Y0060000D01*
X0259350Y0060000D01*
X0265650Y0060000D02*
X0267500Y0060000D01*
X0273750Y0066250D01*
X0273750Y0068750D01*
X0276250Y0071250D01*
X0281181Y0071250D01*
X0300000Y0067500D02*
X0303750Y0063750D01*
X0303750Y0053750D01*
X0301250Y0051250D01*
X0301250Y0048150D01*
X0298150Y0048150D01*
X0296250Y0046250D01*
X0296250Y0035000D01*
X0297500Y0033750D01*
X0308750Y0033750D01*
X0311250Y0036250D01*
X0315000Y0033750D02*
X0316260Y0032490D01*
X0325738Y0032490D01*
X0315000Y0033750D02*
X0312500Y0031250D01*
X0296250Y0031250D01*
X0295000Y0030000D01*
X0290522Y0030000D01*
X0290512Y0029990D01*
X0295000Y0033750D02*
X0281250Y0033750D01*
X0279488Y0031988D01*
X0279488Y0029990D01*
X0273750Y0023750D02*
X0265000Y0023750D01*
X0257500Y0016250D01*
X0257500Y0010000D01*
X0267500Y0010000D02*
X0267500Y0017500D01*
X0270000Y0020000D01*
X0275000Y0020000D01*
X0276250Y0018750D01*
X0282500Y0018750D01*
X0286260Y0022510D01*
X0290512Y0022510D01*
X0279488Y0022510D02*
X0279478Y0022500D01*
X0275000Y0022500D01*
X0273750Y0023750D01*
X0295000Y0033750D02*
X0296250Y0035000D01*
X0315000Y0033750D02*
X0315000Y0045000D01*
X0311850Y0048150D01*
X0308750Y0048150D01*
X0308750Y0051250D01*
X0306250Y0053750D01*
X0306250Y0065000D01*
X0302500Y0068750D01*
X0302500Y0101250D01*
X0307500Y0106250D01*
X0318819Y0106250D01*
X0318819Y0101250D02*
X0331250Y0101250D01*
X0333750Y0103750D01*
X0333750Y0108100D01*
X0333750Y0114400D02*
X0333750Y0140000D01*
X0328750Y0145000D01*
X0296250Y0145000D01*
X0285000Y0156250D01*
X0278750Y0156250D01*
X0262835Y0172165D01*
X0262835Y0175197D01*
X0252835Y0175197D02*
X0268750Y0159281D01*
X0268750Y0155650D01*
X0263750Y0160000D02*
X0253750Y0170000D01*
X0248031Y0170000D01*
X0242835Y0175197D01*
X0241250Y0167500D02*
X0233553Y0175197D01*
X0232835Y0175197D01*
X0235000Y0170000D02*
X0228031Y0170000D01*
X0222835Y0175197D01*
X0220531Y0167500D02*
X0212835Y0175197D01*
X0220531Y0167500D02*
X0233750Y0167500D01*
X0238750Y0162500D01*
X0246250Y0162500D01*
X0248750Y0160000D01*
X0248750Y0155650D01*
X0258750Y0155650D02*
X0258750Y0161250D01*
X0252500Y0167500D01*
X0241250Y0167500D01*
X0240000Y0165000D02*
X0235000Y0170000D01*
X0240000Y0165000D02*
X0251250Y0165000D01*
X0253750Y0162500D01*
X0253750Y0141900D01*
X0248750Y0146250D02*
X0246250Y0143750D01*
X0246250Y0108750D01*
X0262500Y0092500D01*
X0275000Y0092500D01*
X0276250Y0091250D01*
X0281181Y0091250D01*
X0281181Y0101250D02*
X0277500Y0101250D01*
X0272500Y0106250D01*
X0272500Y0108750D01*
X0258750Y0122500D01*
X0258750Y0127500D01*
X0253750Y0132500D01*
X0253750Y0135600D01*
X0258750Y0132500D02*
X0261250Y0130000D01*
X0261250Y0123750D01*
X0275000Y0110000D01*
X0275000Y0107500D01*
X0276250Y0106250D01*
X0281181Y0106250D01*
X0281181Y0111250D02*
X0277500Y0111250D01*
X0263750Y0125000D01*
X0263750Y0135600D01*
X0258750Y0132500D02*
X0258750Y0149350D01*
X0248750Y0149350D02*
X0248750Y0146250D01*
X0263750Y0141900D02*
X0263750Y0160000D01*
X0276250Y0150650D02*
X0276850Y0151250D01*
X0276250Y0150650D02*
X0276250Y0145000D01*
X0275000Y0143750D01*
X0275000Y0132500D01*
X0275000Y0123750D01*
X0277500Y0121250D01*
X0281181Y0121250D01*
X0281181Y0116250D02*
X0277500Y0116250D01*
X0268750Y0125000D01*
X0268750Y0149350D01*
X0283150Y0151250D02*
X0283750Y0150650D01*
X0283750Y0145000D01*
X0285000Y0143750D01*
X0285000Y0132500D01*
X0305000Y0132500D02*
X0305000Y0123750D01*
X0307500Y0121250D01*
X0318819Y0121250D01*
X0322500Y0125000D02*
X0325000Y0122500D01*
X0325000Y0117500D01*
X0323750Y0116250D01*
X0318819Y0116250D01*
X0318819Y0111250D02*
X0308750Y0111250D01*
X0300000Y0102500D01*
X0300000Y0067500D01*
X0318819Y0066250D02*
X0330000Y0066250D01*
X0361250Y0097500D01*
X0364272Y0097500D01*
X0364331Y0097441D01*
X0367500Y0092500D02*
X0360000Y0092500D01*
X0328750Y0061250D01*
X0318819Y0061250D01*
X0318819Y0056250D02*
X0327500Y0056250D01*
X0358750Y0087500D01*
X0364232Y0087500D01*
X0364331Y0087598D01*
X0367500Y0092500D02*
X0372205Y0087795D01*
X0372205Y0087598D01*
X0346250Y0086250D02*
X0346250Y0142500D01*
X0331988Y0156762D01*
X0319360Y0156762D01*
X0313061Y0156762D02*
X0312323Y0157500D01*
X0308750Y0157500D01*
X0304400Y0161850D01*
X0304400Y0165000D01*
X0302835Y0166565D01*
X0302835Y0175197D01*
X0292835Y0175197D02*
X0292835Y0159665D01*
X0300000Y0152500D01*
X0332500Y0152500D01*
X0343750Y0141250D01*
X0343750Y0097500D01*
X0332500Y0086250D01*
X0318819Y0086250D01*
X0318819Y0091250D02*
X0333750Y0091250D01*
X0341250Y0098750D01*
X0341250Y0140000D01*
X0331250Y0150000D01*
X0298750Y0150000D01*
X0282835Y0165915D01*
X0282835Y0175197D01*
X0272835Y0175197D02*
X0272835Y0172165D01*
X0297500Y0147500D01*
X0330000Y0147500D01*
X0338750Y0138750D01*
X0338750Y0100000D01*
X0335000Y0096250D01*
X0318819Y0096250D01*
X0331250Y0071250D02*
X0346250Y0086250D01*
X0331250Y0071250D02*
X0318819Y0071250D01*
X0313750Y0027500D02*
X0316240Y0025010D01*
X0325738Y0025010D01*
X0322500Y0125000D02*
X0316250Y0125000D01*
X0315000Y0126250D01*
X0315000Y0132500D01*
M02*
